<svg xmlns="http://www.w3.org/2000/svg" width="45.503" height="41.207" viewBox="0 0 45.503 41.207">
  <g id="Group_3979" data-name="Group 3979" transform="translate(-5542.164 -18943)">
    <g id="Group_3977" data-name="Group 3977" transform="translate(5525.619 18911.74)">
      <path id="Path_5006" data-name="Path 5006" d="M46.332,53.5q-7.044-.024-14.087,0a4.137,4.137,0,0,0-3.167,1.357,4.143,4.143,0,0,0,3.062,6.943c1.7.01,3.391.006,5.088.006l4.083,0c1.668,0,3.335,0,5,.005h.026a4.073,4.073,0,0,0,3.2-1.368,3.989,3.989,0,0,0,.731-4.412A4.056,4.056,0,0,0,46.332,53.5Zm1.255,5.217a1.5,1.5,0,0,1-1.26.489q-1.508-.006-3.014-.006h-2l-4.084,0c-1.691,0-3.382,0-5.073,0a1.544,1.544,0,0,1-1.139-2.608A1.521,1.521,0,0,1,32.25,56.1q7.038-.014,14.074,0a1.483,1.483,0,0,1,1.554.954A1.421,1.421,0,0,1,47.587,58.714Z" fill="#013369"/>
      <path id="Path_5007" data-name="Path 5007" d="M62.047,44.109A1.688,1.688,0,0,0,60.2,42.255q-5.373.006-10.748,0H45.417a1.3,1.3,0,0,0-.919.381l-5.183,5.183-5.179-5.18a1.3,1.3,0,0,0-.919-.381H30.658q-6.137,0-12.273-.012a1.868,1.868,0,0,0-1.359.5,1.836,1.836,0,0,0-.476,1.373c.026,1.788.025,3.265,0,4.646a1.662,1.662,0,0,0,1.8,1.832H19.4q.023,10.066,0,20.133a1.7,1.7,0,0,0,.465,1.252,1.857,1.857,0,0,0,1.362.484h.029q18.05-.017,36.1,0a1.644,1.644,0,0,0,1.836-1.709q-.02-10.078,0-20.155h1.024a1.7,1.7,0,0,0,1.832-1.9C62.016,47.123,62.017,45.577,62.047,44.109Zm-42.887.746q5.748.017,11.5.009h2.02l3.126,3.127h-.289c-5.439,0-10.871,0-16.357.006C19.172,47.036,19.172,46.014,19.16,44.855Zm37.429,25.01q-9.036-.007-18.082-.007-8.237,0-16.5.006.02-9.579,0-19.159,6.928.013,13.856.007h7.162c4.5,0,9,0,13.568-.008Q56.571,60.285,56.589,69.865ZM59.434,48q-6.211-.013-12.421-.011H42.826l3.129-3.13h3.494q4.992,0,9.985,0Q59.413,46.373,59.434,48Z" fill="#013369"/>
    </g>
    <path id="Path_5008" data-name="Path 5008" d="M42.951,37,40.8,39.152V32.76a1.5,1.5,0,0,0-3,0v6.367l-2.154-2.155a1.5,1.5,0,1,0-2.121,2.121l4.655,4.655a1.486,1.486,0,0,0,1.12.512h.013l.013,0a1.5,1.5,0,0,0,.5-.1c.031-.011.059-.022.088-.035a1.461,1.461,0,0,0,.4-.262c.02-.018.046-.024.065-.043l4.7-4.7A1.5,1.5,0,0,0,42.951,37Z" transform="translate(5525.619 18911.74)" fill="#013369"/>
  </g>
</svg>
