<?xml version="1.0" encoding="utf-8"?>
<!-- Generator: Adobe Illustrator 22.0.0, SVG Export Plug-In . SVG Version: 6.00 Build 0)  -->
<svg version="1.1" id="Layer_1" xmlns="http://www.w3.org/2000/svg" xmlns:xlink="http://www.w3.org/1999/xlink" x="0px" y="0px"
	 viewBox="0 0 42.9 40.9" style="enable-background:new 0 0 42.9 40.9;" xml:space="preserve">
<style type="text/css">
	.st0{fill:#013369;}
	.st1{fill:#1DAB35;}
</style>
<g>
	<path id="Path_5000" class="st0" d="M40,19.6c0-0.3-0.1-0.5-0.6-0.5c-6,0-12,0-18,0s-12,0-18,0c-0.5,0-0.6,0.1-0.6,0.4
		c0,7,0,13.9,0,20.9c0,0.3,0.1,0.4,0.6,0.4c12,0,24.1,0,36.1,0c0.4,0,0.5-0.1,0.5-0.4C40,33.5,40,26.5,40,19.6z M30.7,27.3
		c-0.6,0.6-1.4,1-2.2,0.9c-2.3,0-4.7,0-7,0c-2.4,0-4.8,0-7.2,0c-1.6,0-2.8-1.3-2.9-2.8c0-0.7,0.3-1.4,0.8-1.9c0.6-0.6,1.4-1,2.2-0.9
		c4.7,0,9.4,0,14.1,0c1.2-0.1,2.3,0.6,2.7,1.7C31.7,25.3,31.5,26.5,30.7,27.3z"/>
	<path id="Path_5001" class="st1" d="M0.5,10.5C0.1,10.5,0,10.6,0,11c0,1.6,0,3.1,0,4.7c0,0.4,0.1,0.5,0.5,0.5c6.9,0,10.7,0,17.6,0
		l-5.7-5.7C7.4,10.5,5.5,10.5,0.5,10.5z"/>
	<path id="Path_5001_1_" class="st1" d="M42.4,10.5c0.4,0,0.5,0.1,0.5,0.5c0,1.6,0,3.1,0,4.7c0,0.4-0.1,0.5-0.5,0.5
		c-6.9,0-10.7,0-17.6,0l5.7-5.7C35.5,10.5,37.4,10.5,42.4,10.5z"/>
	<path id="Path_4999" class="st0" d="M25.2,7.4L23,5.2v9.5c0,0.8-0.7,1.5-1.5,1.5S20,15.4,20,14.6V5.2l-2.2,2.2
		c-0.6,0.6-1.5,0.6-2.1,0s-0.6-1.5,0-2.1l4.7-4.7c0.3-0.3,0.7-0.5,1.1-0.5l0,0l0,0c0.2,0,0.3,0,0.5,0.1c0,0,0.4,0.2,0.6,0.5
		c0.2,0.2,4.7,4.5,4.7,4.5c0.6,0.6,0.6,1.5,0,2.1C26.7,7.9,25.7,7.9,25.2,7.4L25.2,7.4z"/>
</g>
</svg>
