<svg xmlns="http://www.w3.org/2000/svg" width="45.502" height="41.207" viewBox="0 0 45.502 41.207">
  <g id="Group_3980" data-name="Group 3980" transform="translate(-5624.498 -18943)">
    <g id="Group_3978" data-name="Group 3978" transform="translate(5525.619 18911.74)">
      <path id="Path_5009" data-name="Path 5009" d="M111.411,54.852a4.142,4.142,0,0,0,3.063,6.943c1.695.01,3.389.006,5.088.006l4.082,0c1.669,0,3.336,0,5,.005h.026a4.073,4.073,0,0,0,3.2-1.369,3.988,3.988,0,0,0,.73-4.41,4.053,4.053,0,0,0-3.935-2.527q-7.044-.024-14.086,0A4.14,4.14,0,0,0,111.411,54.852ZM128.657,56.1a1.483,1.483,0,0,1,1.554.954,1.421,1.421,0,0,1-.291,1.663h0a1.488,1.488,0,0,1-1.246.488h-.013q-1.508-.006-3.014-.006h-2l-4.083,0q-2.537,0-5.073,0a1.544,1.544,0,0,1-1.14-2.607,1.523,1.523,0,0,1,1.238-.494Q121.624,56.081,128.657,56.1Z" fill="#013369"/>
      <path id="Path_5010" data-name="Path 5010" d="M144.38,44.112a1.831,1.831,0,0,0-.473-1.36,1.852,1.852,0,0,0-1.377-.5q-5.374.006-10.749,0H127.75a1.3,1.3,0,0,0-.919.381l-5.183,5.182-5.179-5.179a1.3,1.3,0,0,0-.919-.381h-2.559q-6.136,0-12.273-.012a1.889,1.889,0,0,0-1.358.494,1.839,1.839,0,0,0-.478,1.376c.028,1.739.027,3.258,0,4.644a1.661,1.661,0,0,0,1.8,1.832h1.056q.021,10.066,0,20.137a1.712,1.712,0,0,0,.467,1.25,1.854,1.854,0,0,0,1.36.482h.029q18.049-.017,36.1,0a1.856,1.856,0,0,0,1.374-.482,1.666,1.666,0,0,0,.461-1.227q-.02-10.078,0-20.155h1.024a1.7,1.7,0,0,0,1.832-1.9C144.35,47.121,144.351,45.575,144.38,44.112Zm-42.887.743q5.748.017,11.5.009h2.02l3.127,3.127h-.29c-5.44,0-10.871,0-16.356.006C101.506,47.029,101.506,45.993,101.493,44.855Zm37.429,25.01q-9.034-.007-18.077-.007-8.238,0-16.508.006.02-9.577,0-19.159,6.929.013,13.855.007h7.162c4.5,0,9,0,13.568-.008Q138.9,60.284,138.922,69.865ZM141.767,48q-6.211-.013-12.422-.011h-4.187l3.13-3.13h3.494q4.992,0,9.986,0Q141.747,46.371,141.767,48Z" fill="#013369"/>
    </g>
    <path id="Path_5011" data-name="Path 5011" d="M127.4,36.4l-4.7-4.7c-.017-.018-.041-.023-.06-.04a1.492,1.492,0,0,0-.4-.269c-.027-.011-.053-.02-.081-.03a1.471,1.471,0,0,0-.5-.1l-.016,0h-.008a1.49,1.49,0,0,0-1.116.507l-4.66,4.66a1.5,1.5,0,1,0,2.121,2.121l2.155-2.155V42.76a1.5,1.5,0,0,0,3,0V36.37l2.154,2.154A1.5,1.5,0,1,0,127.4,36.4Z" transform="translate(5525.619 18911.74)" fill="#013369"/>
  </g>
</svg>
