<svg xmlns="http://www.w3.org/2000/svg" width="97.046" height="128.94" viewBox="0 0 97.046 128.94">
  <path id="Path_4977" data-name="Path 4977" d="M63.219,79.392a.9.9,0,0,1,.624.534,1.7,1.7,0,0,1-.144,1.322c-.581,1.158-2.245,5.04-2.33,5.253,0,.069-2.373,6.351-3.829,11.732a4.165,4.165,0,0,0-2.085.694,3.235,3.235,0,0,0-1.376,2.133c0,.154-.267,1.52-.4,2.25-.533,3.029-1.221,6.8-1.317,7.573a3.4,3.4,0,0,0,.758,2.591,4.37,4.37,0,0,0,1.653,1.232c-.651,5-1.173,9.391-1.179,9.434l-.112.912.864.3c.027,0,.533.2,1.546.48-.241,3.785-.429,7.247-.565,9.987q2.005-.088,4.011-.162c.124-2.484.289-5.53.5-8.839a91.4,91.4,0,0,0,19.449,2.027,68.05,68.05,0,0,0,15.5-1.659c-.607,2.721-1.32,5.415-2.112,8.087q2.072.012,4.143.029c.9-3.107,1.693-6.244,2.353-9.412a22.057,22.057,0,0,0,2.922-1.2l.48-.256,1.781-9.14a4.363,4.363,0,0,0,3.44-3.066l.176-.758c.443-1.872,1.6-6.836,1.925-8.319a2.89,2.89,0,0,0-.757-2.736,3.152,3.152,0,0,0-1.408-.784,111.415,111.415,0,0,1,5.087-15.342c1.568-2.613,3.243-6.117,2.325-7.951a2.17,2.17,0,0,0-1.285-1.136l.416-1.157a19.061,19.061,0,0,0-1.483-19.385c-.288-.341-.656-.747-1.067-1.195a3.342,3.342,0,0,0-.239-4.207A159.956,159.956,0,0,0,83.27,29.1c-5.535-3.136-11.732-6.293-18.446-9.381-.277-1.893-2.416-2.815-3.285-3.2l-.246-.107c-.32-.144-.879-.421-1.567-.762-1.734-.854-4.107-2.022-5.92-2.71a4.228,4.228,0,0,0-4.127.283c-1.269-.5-1.989-.768-2.032-.784a1.27,1.27,0,0,0-.411-.059c-.533,0-1.338.267-2.986,2.086C36.889,11.431,30.17,8.8,25.15,6.883a36.962,36.962,0,0,0-2.85,3.193c4.654,1.772,11.6,4.468,19.353,7.648A68.655,68.655,0,0,0,32.193,36.9a128.348,128.348,0,0,0-4.88,24c-.025.224-.049.443-.074.656-3.37-.98-6.242-1.811-8.044-2.33q.17,2.127.371,4.25c1.9.549,4.443,1.285,7.3,2.117a3.158,3.158,0,0,0,2.315,3.242,3.909,3.909,0,0,0,2.944,3.344c1.141.325,7.946,2.165,10.665,2.517a4.139,4.139,0,0,0,.534.032A3.337,3.337,0,0,0,45.8,73.654c5.973,1.83,12.575,4.091,15.818,5.205ZM57.5,111.3h-.123c-.288-.043-.5-.069-.645-.08a1.186,1.186,0,0,1-.23-.037,1.139,1.139,0,0,1-.17-.059c.16-.976.6-3.509,1.232-7.023l.325-1.829a3.662,3.662,0,0,1,.827.1l.192.043.277.032,1.856.384a104.059,104.059,0,0,0,14.676,1.445l1.733.07c1.12.032,2.309.069,3.573.1,1.637.032,3.354.042,5.236.026H88l1.872-.037-1.6,9.066c-2.992.154-6.005.181-8.965.069a169.382,169.382,0,0,1-19.428-1.9l-1.258-.2H58.51l-.331-.053Zm25.3-27.069a7.9,7.9,0,0,0,4.368.618l.011,0,1.157-.16.213-.032a150.7,150.7,0,0,0-3.056,15.817c-1.541,0-2.981,0-4.362-.032l-2.064-.053A92.107,92.107,0,0,1,82.795,84.235Zm1.419-20.58,1.146-.165a3.561,3.561,0,0,1,.449-.037l.016-.006a3.505,3.505,0,0,1,.41,0,3.439,3.439,0,0,1,1.893.88,2.761,2.761,0,0,1,.427.47,3.325,3.325,0,0,1,.667,1.6l1.391,9.9a3.411,3.411,0,0,1-.074,1.338,3.6,3.6,0,0,1-.235.629,3.5,3.5,0,0,1-.4.63,3.425,3.425,0,0,1-2.2,1.269l-1.146.16a3.513,3.513,0,0,1-.48.037,3.422,3.422,0,0,1-2.165-.789,3.119,3.119,0,0,1-.481-.48,3.2,3.2,0,0,1-.394-.608,3.326,3.326,0,0,1-.352-1.067l-1.387-9.9A3.436,3.436,0,0,1,84.214,63.655Zm14.324,57.68-.155.059c-.533.2-1.152.41-1.829.624a58.528,58.528,0,0,1-17.273,2.314,85.629,85.629,0,0,1-20.078-2.3l-.731-.187c.2-1.653.48-3.866.789-6.239h.161a170.7,170.7,0,0,0,19.79,1.935c3.258.112,6.228.091,9.407-.08a3.638,3.638,0,0,0,3.029,1.622,2.851,2.851,0,0,0,.346,0l3.141-.3a3.574,3.574,0,0,0,2.992-2.266l.72-.112.682-.112Zm-6.431-6.261,2.032-11.684.181-1.066,2.341-.075L94.6,113.784l-.186,1.066Zm12.009-4.682v.006l-.192.821a1.719,1.719,0,0,1-.533.266c-.155.048-.325.1-.533.139l-.79.155-.991.2-.358.069c-.533.1-1.141.208-1.818.32l1.482-8.346,1.707-.106,1.285-.08h.342l.879-.059.8-.058.288-.032C105.246,105.6,104.489,108.83,104.116,110.392Zm5.594-53.2c1.056,1.3,4.218,6.149.805,15.492l0-.022-.2.533-.117-.079A11.4,11.4,0,0,1,106.047,60.7a10.319,10.319,0,0,1,2.735-4.5C109.39,56.819,109.683,57.155,109.71,57.187ZM61.384,26.662c.262-.438.5-.832.715-1.179.346-.533.645-.986.906-1.381l.038-.053.058-.086c6.57,3.035,12.591,6.1,17.908,9.109a160.556,160.556,0,0,1,26.216,18.5l-.2.134-.593.49a14.594,14.594,0,0,0-4.714,7.066,15.9,15.9,0,0,0,5.824,17.6c.672.479,1.3.9,1.994,1.327a10.956,10.956,0,0,0,.992.534,17.677,17.677,0,0,1-1.067,2.309c-.17.309-.351.624-.559.97a125.618,125.618,0,0,0-5.962,17.833l-.464.027-2.224.139a3.361,3.361,0,0,0-.384-.534,3.551,3.551,0,0,0-2.858-1.253l-3.173.1a3.585,3.585,0,0,0-3.12,2.075H89.541A147.528,147.528,0,0,1,93.45,81.723a8,8,0,0,0,1.691-6.1l-1.4-9.855a8,8,0,0,0-7.162-6.847,73.861,73.861,0,0,0-10.553-6.351c-2.181-1.067-4.554-2.134-6.848-3.136l-.106-.048c-5.226-2.309-12.388-5.472-13.1-7.6a8.157,8.157,0,0,1,.87-6.73C57.832,32.97,59.657,29.595,61.384,26.662ZM41.157,36.57a105.524,105.524,0,0,1,8.319-16.6l.235-.357c.266-.394.533-.762.736-1.109L50.5,18.4l.357-.533.107-.166c.283-.421.475-.682.624-.869s.3-.3.325-.288a2.127,2.127,0,0,1,.454.139c.906.341,2.181.912,3.78,1.685l1.8.88.219.106c.64.31,1.157.566,1.482.715l.278.123c.282.122.5.224.655.3-.117.2-.255.426-.426.677l-.363.533-.24.352c-.288.422-.608.907-.97,1.488-.208.331-.421.688-.651,1.067-1.461,2.469-3.482,6.122-4.714,8.708a12.136,12.136,0,0,0-1.067,9.7c1.259,3.8,7.424,6.538,15.274,10.015,2.384,1.066,4.7,2.079,6.8,3.114a68.507,68.507,0,0,1,6.725,3.8,8.121,8.121,0,0,0-3.946,4.72,84.634,84.634,0,0,0-11.775-6.9c-.966-.442-2.016-.912-3.114-1.407l-.763-.342c-3.28-1.461-7.311-3.258-10.89-5.1.086-.416.16-.8.224-1.131a9.065,9.065,0,0,0-6.826-9.913,9.244,9.244,0,0,0-3.2-.246A15.157,15.157,0,0,1,41.157,36.57Zm2.554,30.072a8.929,8.929,0,0,0-.181,1.109v-.016c-.08.6-.165,1.168-.235,1.6v.128a9.669,9.669,0,0,1-.224.992.663.663,0,0,1-.069.224c-2.368-.374-7.925-1.829-9.764-2.357h-.065v-.027a3.5,3.5,0,0,1,0-.88,8.737,8.737,0,0,1,.081-.917v-.144a.663.663,0,0,1,.037-.261c.053-.406.149-.976.267-1.675.037-.219.074-.448.117-.688l10.1,2.379A4.362,4.362,0,0,1,43.711,66.642Zm1.84-4.218-12.265-2.88-.437-.107.628-2.666,12.7,2.986Zm1.067-12.458-.139.7c-.043.218-.091.448-.144.682l-.069.342c-.038.186-.08.378-.112.533-.208,1.013-.432,2.09-.656,3.253L35.67,53.166c.218-1.035.432-1.968.608-2.667a12.783,12.783,0,0,1,2.741-5.866,4.285,4.285,0,0,1,.575-.474,3.428,3.428,0,0,1,.592-.315,4.268,4.268,0,0,1,2.741-.064l.016.005A5.072,5.072,0,0,1,46.8,49.06C46.746,49.332,46.687,49.636,46.618,49.966Zm.741,19.4c.021-.262.059-.544.09-.822v.022c.065-.448.123-.918.182-1.419.048-.379.1-.778.149-1.189a3.574,3.574,0,0,0,1.6-2.224l.805-3.429a3.565,3.565,0,0,0-.9-3.317q.2-1.035.389-1.978c3.371,1.695,7.061,3.333,10.09,4.682l1.221.533c.923.411,1.8.805,2.624,1.184a92.033,92.033,0,0,1,13.332,8.069l1.2,8.559a7.961,7.961,0,0,0,1.418,3.525,90.147,90.147,0,0,0-4.522,18.665,97.858,97.858,0,0,1-12.953-1.3c1.349-4.847,3.359-10.271,3.53-10.745.565-1.323,1.77-4.085,2.165-4.885a2.266,2.266,0,0,0,.133-.309l.054-.091.2-.379c.192-.357.341-.64.448-.853a4.265,4.265,0,0,0,.143-3.274A3.728,3.728,0,0,0,67,76.225c-.208-.107-.533-.235-.89-.395-1.509-.634-3.973-1.568-6.783-2.57C54.622,71.66,50.692,70.391,47.359,69.362Z" transform="translate(-19.195 -6.883)" fill="#013369"/>
</svg>
