<?xml version="1.0" encoding="utf-8"?>
<!-- Generator: Adobe Illustrator 26.2.1, SVG Export Plug-In . SVG Version: 6.00 Build 0)  -->
<svg version="1.1" id="Group_4297" xmlns="http://www.w3.org/2000/svg" xmlns:xlink="http://www.w3.org/1999/xlink" x="0px" y="0px"
	 viewBox="0 0 174.7 162.3" style="enable-background:new 0 0 174.7 162.3;" xml:space="preserve">
<style type="text/css">
	.st0{fill:#013369;}
</style>
<g>
	<g>
		<path class="st0" d="M154.2,156.2c-1.1,0-2.4-0.2-3.6-0.6c-2.2-0.8-3.7-2.7-3.9-5c-0.4-4.4-0.6-12.6,2-18.1
			c2.7-5.7,4.2-22.6,1.9-29.3c-0.6-0.6-4.8-3.6-28.9-5.8c-14.2-1.3-29.5-1.8-35.9-1.8c-6.1,0-20.8,0.6-34.5,2.1
			c-24,2.7-26.6,6.2-26.7,6.4c-3.2,4.9-0.1,18.5,2,27.5c0.6,2.6,1.2,5.1,1.6,7.2c0.9,5,0.9,9,0,11.9c-1,3-4.3,4.6-7.3,3.7l-2.7-0.9
			c-1.8-0.6-3.2-2-3.8-3.8l-3-9.4l-8.2-20.1c-0.4-1-0.5-2-0.4-3.1l1.3-8.3L2.4,106c-0.8-1.2-1.1-2.6-0.9-4L4,82.9
			c0.2-1.8,1.2-3.3,2.7-4.2l-0.8-2c-0.5-1.3-0.6-2.7-0.1-4L10,60c0.5-1.6,1.8-2.9,3.4-3.5l3.8-1.5l0.1-1.2l-0.4-10.1
			c-0.1-1.5,0.5-3.1,1.6-4.2l19.3-20.4c0.9-0.9,2-1.5,3.2-1.7l4.3-0.7l1.4-3.1c0.7-1.5,1.9-2.6,3.5-3.1l12.9-4.3
			c1.4-0.5,3-0.4,4.4,0.3l3.2,1.5c2.7-2,8.1-4.9,16.8-4.9c8.8,0,14.1,3,16.7,5.2l5.7-2.2c1.5-0.6,3.2-0.5,4.6,0.2l10.2,4.9
			c1.1,0.5,2,1.4,2.6,2.5l2,3.8l4.9,0.9c1.2,0.2,2.3,0.8,3.2,1.7l19.2,20.5c1.4,1.5,1.9,3.6,1.3,5.6l-2.2,7.6l0,0.5l4.2,1.6
			c1.7,0.6,3.1,2.1,3.6,3.9l3.9,13.6c0.4,1.5,0.2,3.2-0.6,4.6l-0.6,1l0.8,0.4c1.6,0.9,2.7,2.5,2.9,4.3l2.3,18.3
			c0.1,0.9,0,1.9-0.3,2.7l-1.7,4.8c3.1,8.9,3.1,9.3,3.1,10c0,0.9,0,1.3-7.9,20.1c-0.1,2-0.7,6.7-3.3,11.7
			C160.3,154.5,157.5,156.2,154.2,156.2z M153.6,149.3c1.4,0.3,1.9-0.4,2.4-1.2c2.1-4,2.5-7.9,2.5-9c0-0.7,0.2-1.3,0.4-2
			c3.6-8.5,6.4-15.4,7.3-17.7c-0.4-1.2-1.3-3.9-2.7-8c-0.4-1.3-0.4-2.7,0-3.9l1.8-4.9l-2.2-17.5l-1.3-0.7c-1.4-0.8-2.4-2-2.8-3.6
			c-0.4-1.5-0.2-3.1,0.6-4.5l0.9-1.5L157,62.1l-4.4-1.6c-2.2-0.8-3.7-2.8-3.8-5.1l-0.1-1.4c0-0.7,0-1.3,0.2-2l2.1-7.2L132.4,25
			l-5.1-1c-1.7-0.3-3.2-1.4-4.1-3l-2.1-3.9l-9.5-4.6l-5.8,2.2c-2,0.8-4.3,0.4-5.9-1.1c-1.3-1.2-5.1-3.9-12.6-3.9
			c-7.5,0-11.6,2.6-13,3.8c-1.7,1.4-4.2,1.7-6.2,0.7l-3.4-1.6l-12,4L51.4,20c-0.8,1.8-2.4,3-4.3,3.4l-4.5,0.8L23.9,43.9l0.3,9.7
			c0,0.2,0,0.4,0,0.5L24.1,56c-0.1,2.3-1.6,4.2-3.6,5.1l-4,1.6l-4,11.9l1,2.5c0.6,1.5,0.6,3-0.1,4.5c-0.5,1.2-1.5,2.2-2.6,2.8
			l-2.3,18.2l1.9,2.9c0.8,1.2,1.1,2.7,0.9,4.1l-1.3,8.4l8.1,19.9c0.1,0.1,0.1,0.3,0.2,0.4l2.8,8.8l1,0.3c0.2-1.3,0.2-3.6-0.5-7.4
			c-0.4-2-0.9-4.4-1.5-7c-2.6-11.3-5.8-25.4-1-32.8c7.2-11.1,66.4-11.6,67-11.6c6.9,0,23.3,0.5,38.1,2c26.9,2.6,31.8,6.3,33.1,10
			c3.1,8.5,1.4,27.4-2.1,34.7C153.7,138.2,153.2,143.3,153.6,149.3z M23.1,147.8L23.1,147.8L23.1,147.8z M20.4,147
			C20.4,147,20.4,147,20.4,147L20.4,147C20.4,147,20.4,147,20.4,147z M166.4,120.1C166.4,120.1,166.4,120.1,166.4,120.1
			C166.4,120.1,166.4,120.1,166.4,120.1z M150.8,103.3C150.8,103.3,150.8,103.3,150.8,103.3L150.8,103.3z"/>
	</g>
	<g>
		<path class="st0" d="M31.1,54.2l0.1-0.1l-3.7-5.8c1-0.6,10.9-6.2,58.4-6.2c47.3,0,57.7,4.8,58.7,5.4c1.7,0.9,2.3,3,1.4,4.7
			c-0.9,1.7-3,2.3-4.7,1.4C140.9,53.4,131,49,85.8,49C40.9,49,31.5,53.9,31.1,54.2z"/>
	</g>
	<path class="st0" d="M23,96.7c0-0.2,1.7-9.8,2-12c0-0.3,0.2-0.5,0.5-0.6l7.9-2.5c0.5-0.2,1,0.3,0.9,0.8l-2,13.3
		c0,0.3-0.2,0.5-0.4,0.6C30.1,97,22.4,100,23,96.7z"/>
	<path class="st0" d="M151.6,95.5c0-0.2-1.7-9.8-2-12c0-0.3-0.2-0.5-0.5-0.6l-7.9-2.5c-0.5-0.2-1,0.3-0.9,0.8l2,13.3
		c0,0.3,0.2,0.5,0.4,0.6C144.5,95.8,152.2,98.8,151.6,95.5z"/>
	<g>
		<path class="st0" d="M40.8,89.4c-1.6,0-3-1.1-3.4-2.7c-0.4-1.9,0.8-3.7,2.7-4.1c2.5-0.5,7.5-1.4,12.7-1.9
			c1.3-12.7,3.3-26.2,3.3-26.4c0.3-1.9,2-3.2,3.9-2.9c1.9,0.3,3.2,2,2.9,3.9c0,0.2-2.4,15.6-3.6,28.8c-0.2,1.7-1.5,3-3.2,3.1
			c-5.8,0.4-12,1.4-14.7,2C41.3,89.4,41.1,89.4,40.8,89.4z"/>
	</g>
	<g>
		<path class="st0" d="M132.9,89.4c-0.2,0-0.5,0-0.7-0.1c-2.7-0.6-8.9-1.6-14.7-2c-1.7-0.1-3.1-1.4-3.2-3.1
			c-1.2-13.2-3.5-28.7-3.6-28.8c-0.3-1.9,1-3.6,2.9-3.9c1.9-0.3,3.6,1,3.9,2.9c0,0.1,2.1,13.7,3.3,26.4c5.2,0.5,10.3,1.4,12.7,1.9
			c1.9,0.4,3.1,2.2,2.7,4.1C136,88.3,134.5,89.4,132.9,89.4z"/>
	</g>
	<g>
		<path class="st0" d="M63.7,88.1c-1.7,0-3.2-1.3-3.4-3c-0.2-1.9,1.1-3.6,3-3.9c0.4,0,9.7-1.2,22.8-1.2c13.1,0,23.7,1.2,24.2,1.2
			c1.9,0.2,3.3,1.9,3.1,3.8c-0.2,1.9-1.9,3.3-3.8,3.1c-0.1,0-10.7-1.2-23.4-1.2c-12.7,0-21.9,1.1-22,1.2
			C64,88.1,63.8,88.1,63.7,88.1z"/>
	</g>
	<g>
		<path class="st0" d="M32.2,77c-1.8,0-3.3-1.4-3.4-3.3c-0.1-2.5,2.4-10.6,4.5-17c0.6-1.8,2.6-2.8,4.4-2.2c1.8,0.6,2.8,2.6,2.2,4.4
			c-1.9,5.8-4.1,13-4.2,14.6c0.1,1.9-1.4,3.4-3.3,3.6C32.3,77,32.2,77,32.2,77z M35.6,73.3C35.6,73.3,35.6,73.4,35.6,73.3
			C35.6,73.4,35.6,73.3,35.6,73.3z"/>
	</g>
	<g>
		<path class="st0" d="M142.3,77c-0.1,0-0.1,0-0.2,0c-1.9-0.1-3.3-1.7-3.3-3.6c-0.1-1.5-2.2-8.7-4.2-14.6c-0.6-1.8,0.4-3.8,2.2-4.4
			c1.8-0.6,3.8,0.4,4.4,2.2c2.1,6.4,4.6,14.6,4.5,17C145.6,75.6,144.1,77,142.3,77z M138.8,73.4L138.8,73.4L138.8,73.4z M138.8,73.3
			C138.8,73.3,138.8,73.4,138.8,73.3C138.8,73.4,138.8,73.3,138.8,73.3z"/>
	</g>
	<path class="st0" d="M8.7,108.2l4.9,6.5c0,0,2.3,2.2,2.3,5.2c0,3.1,0,4.7,0,4.7s-0.7,2.9-3.6,0s-5.7-7-5.7-7L8.7,108.2z"/>
	<path class="st0" d="M166.9,108.2l-4.9,6.5c0,0-2.3,2.2-2.3,5.2c0,3.1,0,4.7,0,4.7s0.7,2.9,3.6,0c2.9-2.9,5.7-7,5.7-7L166.9,108.2z
		"/>
	<g>
		<path class="st0" d="M13.2,97.4c-0.6,0-1.2-0.2-1.7-0.6c-0.7-0.6-1-1.5-0.9-2.3l1-7.9c0.2-1.5,1.5-2.5,3-2.3
			c1.5,0.2,2.5,1.5,2.3,3l-0.5,4l1.5-0.4c1.4-0.4,2.9,0.4,3.3,1.8c0.4,1.4-0.4,2.9-1.8,3.3l-5.4,1.5C13.7,97.4,13.4,97.4,13.2,97.4z
			"/>
	</g>
	<g>
		<path class="st0" d="M160.5,97.4c-0.2,0-0.5,0-0.7-0.1l-5.4-1.5c-1.4-0.4-2.2-1.9-1.8-3.3c0.4-1.4,1.9-2.2,3.3-1.8l1.5,0.4l-0.5-4
			c-0.2-1.5,0.8-2.8,2.3-3c1.5-0.2,2.8,0.8,3,2.3l1,7.9c0.1,0.9-0.2,1.8-0.9,2.3C161.7,97.2,161.1,97.4,160.5,97.4z"/>
	</g>
	<g>
		<path class="st0" d="M135.9,140.5c-0.5,0-0.9-0.1-1.4-0.3c-0.2-0.1-16.7-6.9-47.6-6.9c-30.7,0-44.7,6.8-44.8,6.8
			c-1.7,0.8-3.8,0.2-4.6-1.5c-0.8-1.7-0.2-3.8,1.5-4.6c0.6-0.3,15.4-7.6,47.9-7.6c32.4,0,49.6,7.2,50.3,7.5c1.8,0.7,2.6,2.8,1.8,4.5
			C138.6,139.7,137.3,140.5,135.9,140.5z"/>
	</g>
	<g>
		<path class="st0" d="M54.9,41.4c-1.7,0-3.1-1.2-3.4-2.9c-0.3-1.9,1-3.6,2.9-3.9c8.9-1.4,18.3-1.3,23.3-1.1v-9.8
			c0-0.2,0-0.3-0.2-0.4c-2.3-1.7-10.7-0.7-14.2,0.4c-1.1,0.4-4.4,2.7-13.9,11.6L48.6,36c-1.4,1.3-3.6,1.2-4.9-0.2
			c-1.3-1.4-1.2-3.6,0.2-4.9l0.7-0.7c7.9-7.4,13.4-12.2,16.5-13.2c0.1,0,14.2-4,20.4,0.5c1.9,1.4,3,3.5,3,5.9V37
			c0,1-0.4,1.9-1.1,2.5c-0.7,0.7-1.7,1-2.6,0.9c-0.1,0-13.5-1-25.4,0.9C55.2,41.4,55,41.4,54.9,41.4z"/>
	</g>
	<g>
		<path class="st0" d="M118.7,41.8c-0.2,0-0.4,0-0.5,0c-16.1-2.6-25.5-1.3-25.6-1.3c-1,0.1-2-0.2-2.7-0.8C89,39,88.6,38,88.6,37
			V23.6c0-2.4,1.1-4.5,3-5.9c6.3-4.6,20.3-0.6,20.4-0.5c3.1,1,8.6,5.8,16.5,13.2l0.7,0.7c1.4,1.3,1.5,3.5,0.2,4.9
			c-1.3,1.4-3.5,1.5-4.9,0.2l-0.7-0.7c-9.5-8.9-12.8-11.3-13.9-11.6c-3.5-1.1-12-2.1-14.2-0.4c-0.2,0.1-0.2,0.1-0.2,0.4v9.7
			c4.5-0.2,12.7-0.1,23.7,1.6c1.9,0.3,3.2,2.1,2.9,3.9C121.8,40.6,120.4,41.8,118.7,41.8z"/>
	</g>
</g>
</svg>
