<svg id="Group_4650" data-name="Group 4650" xmlns="http://www.w3.org/2000/svg" xmlns:xlink="http://www.w3.org/1999/xlink" width="31.18" height="42.437" viewBox="0 0 31.18 42.437">
  <defs>
    <clipPath id="clip-path">
      <rect id="Rectangle_5512" data-name="Rectangle 5512" width="31.18" height="42.437" fill="#013369"/>
    </clipPath>
  </defs>
  <g id="Group_4649" data-name="Group 4649" clip-path="url(#clip-path)">
    <path id="Path_6983" data-name="Path 6983" d="M15.439,68.412c-.474,3.175-.925,6.3-1.414,9.425a2.886,2.886,0,0,1-3.207,2.427A2.953,2.953,0,0,1,8.3,76.9c.664-4.563,1.495-9.108,1.96-13.691a76.5,76.5,0,0,0-.026-8.37c-.006-.693-.527-.492-.885-.494-2.152-.015-4.3,0-6.456-.013A2.707,2.707,0,0,1,.331,52.858a2.542,2.542,0,0,1,.155-2.747,2.724,2.724,0,0,1,2.355-1.259q12.745-.015,25.49,0a2.735,2.735,0,1,1-.032,5.464c-2.188.057-4.378.039-6.567,0-.634-.011-.833.169-.805.8a17.336,17.336,0,0,1-.041,2.795c-.52,4.364.456,8.6,1.047,12.864.291,2.1.65,4.189.935,6.289a2.98,2.98,0,0,1-2.578,3.238A2.913,2.913,0,0,1,17.165,77.9c-.478-2.9-.894-5.806-1.332-8.711-.043-.285.035-.617-.394-.78m.215-17.759q-6.178,0-12.357,0c-.72,0-1.46.106-1.463.973,0,.851.744.863,1.4.861,2.449-.007,4.9,0,7.347-.007.693,0,1.362.131,1.389.938a78.8,78.8,0,0,1,.152,9.721c-.418,4.622-1.3,9.2-2,13.8-.118.777.061,1.38.9,1.486s1.152-.405,1.266-1.2c.643-4.454,1.327-8.9,1.979-13.353.12-.816.41-1.508,1.314-1.52.859-.011,1.16.673,1.281,1.428.03.184.034.371.062.555q.983,6.508,1.964,13.017c.111.746.471,1.191,1.242,1.087.794-.106.988-.673.882-1.4-.284-1.951-.595-3.9-.837-5.854-.48-3.869-1.475-7.68-1.2-11.634.133-1.9.167-3.8.172-5.7,0-1.036.478-1.385,1.432-1.371,1.632.024,3.265.008,4.9.006.965,0,1.929,0,2.894-.011a.889.889,0,0,0,.988-.849.937.937,0,0,0-.913-.952,6.063,6.063,0,0,0-.889-.017H15.654" transform="translate(0 -37.9)" fill="#013369"/>
    <path id="Path_6984" data-name="Path 6984" d="M52.605,9.808a4.84,4.84,0,0,1-4.828-4.923,4.886,4.886,0,1,1,9.771.088,4.9,4.9,0,0,1-4.942,4.834m.038-1.788a3.131,3.131,0,0,0,3.1-3.11A3.094,3.094,0,0,0,49.557,4.9,3.129,3.129,0,0,0,52.643,8.02" transform="translate(-37.073 0)" fill="#013369"/>
  </g>
</svg>
