<svg xmlns="http://www.w3.org/2000/svg" width="19.388" height="21.142" viewBox="0 0 19.388 21.142">
  <g id="Group_4251" data-name="Group 4251" transform="translate(-806.508 -234)">
    <path id="Path_4256" data-name="Path 4256" d="M134.576,66.939c-2.717,0-5.434-.007-8.151,0a1.551,1.551,0,0,1-1.51-1.2,1.726,1.726,0,0,1-.032-.348q0-7.487,0-14.974a1.537,1.537,0,0,1,1.041-1.5,1.651,1.651,0,0,1,.5-.064c.446,0,.893,0,1.34,0,.085,0,.107-.022.106-.107,0-.378-.008-.757,0-1.135a1.888,1.888,0,0,1,1.407-1.741,1.479,1.479,0,0,1,.309-.045,5.961,5.961,0,0,1,1.24.029,1.861,1.861,0,0,1,1.509,1.789c.007.37,0,.741,0,1.111,0,.079.021.1.1.1q2.138,0,4.275,0c.078,0,.1-.018.1-.1,0-.358-.005-.717,0-1.075a1.85,1.85,0,0,1,1.536-1.826,3.724,3.724,0,0,1,1.64.054,1.85,1.85,0,0,1,1.292,1.715c.008.374.005.749,0,1.123,0,.084.02.108.106.107.463,0,.926-.006,1.389,0a1.505,1.505,0,0,1,1.462,1.2,1.69,1.69,0,0,1,.032.348q0,7.488,0,14.975a1.542,1.542,0,0,1-1.019,1.477,1.809,1.809,0,0,1-.572.071Zm.011-13.554q-4.039,0-8.079,0c-.111,0-.135.029-.135.137q0,5.9,0,11.8c0,.112.031.135.138.135q8.066,0,16.133,0c.113,0,.135-.032.135-.139q0-5.9,0-11.8c0-.114-.033-.134-.139-.134Q138.615,53.387,134.587,53.385Zm3.719-3.951c0,.551,0,1.1,0,1.653,0,.295.122.416.418.418q.325,0,.651,0c.3,0,.419-.123.42-.43q0-1.273,0-2.546c0-.245,0-.49,0-.736,0-.3-.128-.419-.42-.42h-.64c-.306,0-.429.124-.43.433Q138.305,48.618,138.306,49.433Zm-7.459.015c0-.563,0-1.126,0-1.689a.342.342,0,0,0-.353-.386q-.386-.009-.772,0a.34.34,0,0,0-.359.344,1.069,1.069,0,0,0,0,.108v3.222a1.157,1.157,0,0,0,.005.12.33.33,0,0,0,.351.334c.242.006.483,0,.724,0,.289,0,.408-.124.409-.415Q130.849,50.268,130.847,49.448Z" transform="translate(681.625 188.199)" fill="#013369"/>
    <rect id="Rectangle_4755" data-name="Rectangle 4755" width="3.727" height="3.727" transform="translate(809.762 243.318)" fill="#013369"/>
  </g>
</svg>
