<svg xmlns="http://www.w3.org/2000/svg" width="32.82" height="19.292" viewBox="0 0 32.82 19.292">
  <path id="Path_6643" data-name="Path 6643" d="M204.764,198.546l1.279-.384,1.156-.368.125-.016a1.669,1.669,0,0,1,1.283,0l.186.062,1.1.322,1.279.385,1.283.384c.851.265,1.692.562,2.56.768a6.134,6.134,0,0,0,1.283.385c.839.309,1.7.559,2.56.785a6.932,6.932,0,0,0,1.28.385q1.229.445,2.5.768l0,0c.011.034.026.063.07.05l1.284.385c.185.077.267.257.394.394a.822.822,0,0,1-.4.891,5.271,5.271,0,0,0-.9.389.7.7,0,0,0-.375.119l-1.286.517c-.133-.01-.232.093-.348.114-.161.028-.216.133-.146.225s-.018.242.106.311a7.394,7.394,0,0,1,.082,1.278v3.846c0,.373,0,.746-.013,1.119,0,.141.046.222.192.232l.151.165a1.369,1.369,0,0,1,.311,1.045,9.7,9.7,0,0,1-.321,1.283.7.7,0,0,0-.128.382l-.286.777-.564,1.4a.151.151,0,0,1-.05,0l-.191-.45-.018-.125c.012-.046-.018-.06-.053-.07a2.6,2.6,0,0,0-.252-.635,9.155,9.155,0,0,0-.466-1.278,11.513,11.513,0,0,1-.321-1.283,1.506,1.506,0,0,1,.468-1.213c.157,0,.187-.1.185-.232-.006-.372-.009-.745-.012-1.117v-3.841a4.063,4.063,0,0,0-.07-.908c0-.195-.09-.43-.391-.208a1.675,1.675,0,0,1-.426.163l-.516.183c-.528.188-.528.188-.5.766v3.846a8.462,8.462,0,0,1-.065,1.279l-.2.634-.517.645-.765.635-1.157.647-.122.013c-.407.219-.869.295-1.283.494l-1.281.321-1.277.21c-.153-.065-.282.048-.427.056-.713.04-1.422.138-2.137.136h-1.28c-.307-.008-.616,0-.921-.026-.548-.046-1.095-.11-1.643-.166l-1.278-.21-1.279-.322-1.218-.449c-.038-.1-.127-.038-.189-.058l-1.087-.579-.835-.7-.517-.645-.205-.634a8.653,8.653,0,0,1-.064-1.279v-3.846c.03-.576.031-.576-.5-.766l-.516-.183c-.287-.112-.572-.228-.862-.334-.569-.208-1.115-.476-1.7-.644a12.059,12.059,0,0,0-1.281-.513.66.66,0,0,0-.38-.123,3.685,3.685,0,0,0-.9-.372.785.785,0,0,1-.377-.9,1.043,1.043,0,0,1,.375-.4l1.283-.384c.048-.018.095-.038.143-.053.81-.247,1.628-.464,2.422-.762a6.99,6.99,0,0,0,1.28-.385,9.043,9.043,0,0,0,1.282-.383.718.718,0,0,0,.383-.13,2.859,2.859,0,0,0,.894-.272,6.168,6.168,0,0,0,1.282-.385c.1.047.181-.038.262-.062.769-.225,1.533-.469,2.3-.707Zm11.711,9.427c0-.372,0-.744.012-1.116,0-.2-.066-.193-.193-.09a10.472,10.472,0,0,0-1.284.5,10.664,10.664,0,0,0-1.283.511.4.4,0,0,0-.319.13,6.731,6.731,0,0,0-1.024.385l-1.216.464a6.842,6.842,0,0,0-1.027.431.325.325,0,0,0-.254.081,9.082,9.082,0,0,0-1.279.513,1.582,1.582,0,0,1-1.283,0,9.2,9.2,0,0,0-1.279-.513.114.114,0,0,0-.058-.013c-.01-.035-.025-.064-.07-.053l-.127-.018a4.146,4.146,0,0,0-.961-.384,11.293,11.293,0,0,0-1.278-.507l-2.631-1.029a10.248,10.248,0,0,0-1.284-.5c-.127-.1-.2-.107-.193.09.009.372.009.744.012,1.116v1.282c0,.618-.019,1.237,0,1.855a1.176,1.176,0,0,0,.194.707,2.756,2.756,0,0,0,1.2.964,5.11,5.11,0,0,0,1.591.693,2.8,2.8,0,0,0,1.041.254,4.547,4.547,0,0,0,1.283.257,1.486,1.486,0,0,0,.423.08c.287.02.572.073.857.112l1.283.063h1.279l1.283-.065c.114-.073.242-.038.364-.055a4.853,4.853,0,0,0,.916-.136,4.522,4.522,0,0,0,1.283-.257,2.863,2.863,0,0,0,1.041-.254,5.508,5.508,0,0,0,1.519-.642,3.064,3.064,0,0,0,1.272-1.015,1.1,1.1,0,0,0,.143-.372,14.719,14.719,0,0,0,.049-2.189Zm-4.024-4.024-1.283-.128c-.417-.131-.857-.1-1.279-.193a8.27,8.27,0,0,0-1.283-.127c-.055-.025-.111-.074-.166-.072a1.226,1.226,0,0,1-1.112-.459l-.013-.122a1.258,1.258,0,0,1,.08-.51.872.872,0,0,1,.721-.332c.19.006.363.119.556.065a71.468,71.468,0,0,1,2.5.32c.194.029.395.049.58.09a2.853,2.853,0,0,1,.7.1c.431.008.847.159,1.282.128.846.171,1.7.249,2.56.338a9.312,9.312,0,0,0,1.284.174l1.279.192a2.132,2.132,0,0,1,.978.329.226.226,0,0,0,.3-.009l1.464-.552-2.745-.837-1.283-.383-1.279-.385a.128.128,0,0,0-.058-.014c-.009-.036-.024-.064-.069-.053l-.19-.018a4.764,4.764,0,0,0-.963-.3,10.762,10.762,0,0,0-1.219-.382,10.392,10.392,0,0,0-1.343-.387.949.949,0,0,0-.442-.139c-.01-.036-.024-.065-.07-.053l-.126-.018a3.165,3.165,0,0,0-.643-.19,8.451,8.451,0,0,0-1.28-.385,7.959,7.959,0,0,0-1.286-.391,1.217,1.217,0,0,0-1.282.007,7,7,0,0,0-1.282.384,8.65,8.65,0,0,0-1.281.385,3.485,3.485,0,0,0-.837.261.941.941,0,0,0-.443.141,6.171,6.171,0,0,0-1.279.384,7.837,7.837,0,0,0-1.283.385,4.771,4.771,0,0,0-.964.3l-.19.018c-.045-.011-.06.017-.07.053a.114.114,0,0,0-.058.013l-1.279.385-1.283.384-2.744.837,1.463.552,2.564,1.024c.44.12.833.37,1.282.469a.876.876,0,0,0,.5.184,3.127,3.127,0,0,0,.774.326,10.647,10.647,0,0,0,1.284.495c.092.045.181.1.275.136q1.142.447,2.285.889a10.738,10.738,0,0,0,1.278.467,10.851,10.851,0,0,0,1.378.565c.2.075.4.259.608.183a16.056,16.056,0,0,0,1.865-.749,10.966,10.966,0,0,0,1.279-.467c.1-.04.209-.077.313-.119l2.248-.906a10.879,10.879,0,0,0,1.284-.494,3.058,3.058,0,0,0,.773-.326.886.886,0,0,0,.508-.188c.5-.128.96-.381,1.526-.561l-1.528-.2a8.926,8.926,0,0,0-1.283-.127,6.219,6.219,0,0,0-1.279-.192l-.25-.013c-.009-.036-.024-.063-.069-.053l-.382-.018C212.856,203.921,212.627,204.075,212.451,203.949Z" transform="translate(-191.56 -197.65)" fill="#013369"/>
</svg>
