<svg xmlns="http://www.w3.org/2000/svg" width="21.264" height="24.302" viewBox="0 0 21.264 24.302">
  <path id="Icon_awesome-trash-alt" data-name="Icon awesome-trash-alt" d="M1.519,22.023A2.278,2.278,0,0,0,3.8,24.3h13.67a2.278,2.278,0,0,0,2.278-2.278V6.075H1.519ZM14.429,9.873a.759.759,0,0,1,1.519,0V20.5a.759.759,0,0,1-1.519,0Zm-4.557,0a.759.759,0,0,1,1.519,0V20.5a.759.759,0,0,1-1.519,0Zm-4.557,0a.759.759,0,0,1,1.519,0V20.5a.759.759,0,1,1-1.519,0ZM20.5,1.519h-5.7L14.363.631A1.139,1.139,0,0,0,13.342,0H7.917A1.126,1.126,0,0,0,6.9.631l-.446.888H.759A.759.759,0,0,0,0,2.278V3.8a.759.759,0,0,0,.759.759H20.5a.759.759,0,0,0,.759-.759V2.278A.759.759,0,0,0,20.5,1.519Z" fill="#c65353"/>
</svg>
