<svg xmlns="http://www.w3.org/2000/svg" width="19.284" height="18.636" viewBox="0 0 19.284 18.636">
  <g id="Component_61_7" data-name="Component 61 – 7" transform="translate(1.002 1.088)">
    <path id="star" d="M249.329,45.649l-2.112,4.275-4.716.691a1.036,1.036,0,0,0-.579,1.764l3.415,3.328-.806,4.7a1.036,1.036,0,0,0,1.5,1.088l4.222-2.22,4.224,2.22a1.034,1.034,0,0,0,1.4-.438,1.022,1.022,0,0,0,.1-.65l-.809-4.7,3.415-3.328a1.035,1.035,0,0,0-.571-1.766l-4.716-.689-2.115-4.275a1.036,1.036,0,0,0-1.388-.468,1.013,1.013,0,0,0-.468.468Z" transform="translate(-241.613 -45.073)" fill="none" stroke="#013369" stroke-linecap="round" stroke-linejoin="round" stroke-width="2"/>
  </g>
</svg>
