<?xml version="1.0" encoding="utf-8"?>
<!-- Generator: Adobe Illustrator 26.2.1, SVG Export Plug-In . SVG Version: 6.00 Build 0)  -->
<svg version="1.1" id="Layer_1" xmlns="http://www.w3.org/2000/svg" xmlns:xlink="http://www.w3.org/1999/xlink" x="0px" y="0px"
	 viewBox="0 0 37.2 45" style="enable-background:new 0 0 37.2 45;" xml:space="preserve">
<style type="text/css">
	.st0{fill:#013165;}
</style>
<g>
	<path class="st0" d="M24.7,11.7C24.7,11.7,24.6,11.7,24.7,11.7c-0.5,0-1.7-0.2-2.3-0.8c-0.5-0.4-1-0.8-1.6-1
		c-0.6-0.2-1.1-0.4-1.7-0.4c-0.3,0-0.6-0.3-0.7-0.7c0-0.1-0.4-3.6,1.5-5.8c1-1.1,2.4-1.7,4.1-1.7c1.9,0,3.3,0.6,4.3,1.7
		c1.8,2,1.5,5,1.5,5.1c0,0.4-0.4,0.7-0.7,0.7h-3c-0.4,0.3-0.8,0.8-0.8,1.3v0.8c0,0.2-0.1,0.4-0.2,0.5C25.1,11.6,24.9,11.7,24.7,11.7
		z M19.9,8.1c0.5,0.1,1,0.2,1.4,0.4c0.8,0.3,1.5,0.7,2.1,1.3c0,0,0.1,0.1,0.1,0.1c0,0,0.2,0.1,0.4,0.1c0,0,0,0,0-0.1
		c0.1-1.1,0.8-2,1.8-2.6c0.1-0.1,0.2-0.1,0.4-0.1h2.4c0-0.8-0.2-2.3-1.1-3.3c-0.7-0.8-1.8-1.2-3.2-1.2c-1.3,0-2.3,0.4-3,1.2
		C20,5.3,19.9,7.2,19.9,8.1z"/>
	<path class="st0" d="M4.4,44.1c-1.2,0-1.9-0.7-2.2-1.1c-0.7-1-0.9-2.7-0.3-3.3c0.7-0.8,1.6-1.5,2.5-2.1c2.6-2.5,5.5-5.3,5.9-5.8
		c0,0,0,0,0,0c0.6-1.3,1.3-2.5,2.1-3.7c0.1-0.2,0.4-0.4,0.7-0.3c0.3,0,0.5,0.2,0.6,0.4c0,0,0.7,1.3,1.3,2.2c0.8,0.8,1.7,1.5,2.8,2.1
		c0.2,0.1,0.3,0.3,0.4,0.5c0.1,0.2,0,0.4-0.1,0.6L15,37.7c0,0.1-0.1,0.1-0.1,0.1c-0.2,0.2-5.4,4.3-8.8,5.8C5.4,44,4.9,44.1,4.4,44.1
		z M3.1,40.6c-0.1,0.3,0,1.2,0.5,1.7c0.4,0.4,1,0.4,1.9,0c3-1.4,7.7-5,8.4-5.6l2.6-3.6c-0.9-0.6-1.7-1.2-2.5-2c0,0-0.1-0.1-0.1-0.1
		c-0.3-0.4-0.5-0.9-0.8-1.3c-0.5,0.8-0.9,1.7-1.4,2.5l0,0c-0.3,0.5-1.4,1.7-6.3,6.3c0,0-0.1,0.1-0.1,0.1C4.5,39.3,3.8,39.9,3.1,40.6
		z M3,40.7C3,40.7,3,40.7,3,40.7C3,40.7,3,40.7,3,40.7z M3.1,40.6L3.1,40.6L3.1,40.6z M2.5,40.2L2.5,40.2L2.5,40.2z"/>
	<path class="st0" d="M28.2,44.7c-2.3,0-3-2.2-3-3.4v-6.8c-0.9-0.5-3.4-1.6-6.8-3.1c-4.6-1.9-3.9-9.9-3.8-11.2l-0.7-2.6
		c-0.2-0.1-0.4-0.1-0.7-0.1c-1.5,0.2-3.2-1.2-5.7-3.4C6.1,13,5.2,11.4,4.8,9.6C1.2,9,0.3,6.4,0.3,6.3c0-0.1,0-0.2,0-0.2
		c0,0,0-4.7,5.4-5.6c4.4-0.8,6.3-0.1,8,3c0.1,0.1,0.1,0.2,0.1,0.3c0.2,2.5-2.1,4.2-3.3,4.9c0.4,0.8,1,1.5,1.6,2.1
		c0.7,0.6,1.4,1,2.2,1.4c0.6-0.6,1.8-1.5,2.9-1.5c0.9,0,1.9,0.3,2.6,0.9c0.3,0.2,0.6,0.5,0.8,0.8c0.5,0.6,0.9,1.1,1.9,1.1
		c1,0,1.8-0.2,2.6-0.5c0.6-0.2,1.2-0.4,1.8-0.4c1.4,0,1.9,1.4,2.1,2.2c0,0,0,0.1,0,0.1v3.6l2.2,1.9l4.1,0.3c0.2,0,0.4,0.1,0.5,0.2
		c0.7,0.7,1.1,1.6,1.2,2.6c0.1,0.9-0.3,1.7-1,2.2c-0.1,0.1-0.3,0.2-0.5,0.1l-7-0.3c-0.2,0-0.3-0.1-0.4-0.2c-0.8-0.6-1.7-1.3-2.2-1.7
		c-0.4,0.7-0.8,1.4-1.3,2c1.5,1.1,3,2,4.7,2.8c1.4,0.5,2.4,1.9,2.6,3.4c0,0,0,0.1,0,0.1l-0.3,8.9C31.3,42.2,30.4,44.7,28.2,44.7z
		 M13.4,16.1c0.5,0,1.1,0.2,1.6,0.6c0.1,0.1,0.2,0.2,0.2,0.4l0.8,3c0,0.1,0,0.2,0,0.3c0,0.1-1,8.1,2.8,9.7c4.4,1.8,7.3,3.3,7.4,3.3
		c0.3,0.1,0.4,0.4,0.4,0.7v7.2c0,0.2,0.1,1.9,1.5,1.9c1.5,0,1.7-2.6,1.7-2.6l0.3-8.8c-0.1-1-0.8-1.8-1.7-2.2c-2-1-3.8-2.1-5.6-3.4
		c-0.3-0.2-0.4-0.7-0.2-1c0.7-1,1.4-2,1.9-3.1v0c0.1-0.2,0.2-0.3,0.4-0.4c0.4-0.2,0.7-0.3,3.6,2.1l6.5,0.3c0.1-0.2,0.2-0.4,0.2-0.6
		c-0.1-0.5-0.3-1.1-0.7-1.5l-4-0.3c-0.2,0-0.3-0.1-0.5-0.2l-2.6-2.3c-0.2-0.1-0.2-0.3-0.2-0.6v-3.9c0-0.2-0.2-0.8-0.6-0.8
		c-0.4,0-0.8,0.1-1.4,0.3c-0.8,0.2-1.8,0.5-3,0.5c-1.6,0-2.5-1-3-1.6c-0.2-0.2-0.4-0.4-0.5-0.5c0,0-0.1,0-0.1-0.1
		c-0.5-0.4-1.1-0.6-1.8-0.6c-0.5,0-1.6,0.8-2.1,1.4c-0.2,0.2-0.5,0.3-0.8,0.2c-1.2-0.4-2.2-1-3.2-1.8c-1-0.9-1.8-2-2.3-3.3
		c-0.2-0.4,0-0.8,0.4-1c0,0,3.1-1.5,3.1-3.6C11,1.8,9.9,1.2,5.9,1.9c-3.7,0.6-4.1,3.3-4.2,4c0.2,0.4,1.1,2,3.8,2.3
		c0.4,0,0.6,0.3,0.7,0.7c0.2,1.7,1,3.2,2.2,4.3c1.5,1.3,3.6,3.2,4.4,3C13,16.1,13.2,16.1,13.4,16.1z"/>
</g>
</svg>
