<svg xmlns="http://www.w3.org/2000/svg" width="46.936" height="38.7" viewBox="0 0 46.936 38.7">
  <g id="Group_4654" data-name="Group 4654" transform="translate(-8806.838 -16201.211)">
    <path id="Path_6961" data-name="Path 6961" d="M492.067,57.024c1.452,0,2.9.011,4.356,0,.9-.01,1.752-.061,1.789,1.24.035,1.252-.142,2.54-1.584,2.583-4.38.129-8.767.1-13.149.023a1.8,1.8,0,0,1-1.678-1.92c-.077-1.506-.39-3.135.045-4.506,1.157-3.653.023-7.215,0-10.811a14.261,14.261,0,0,1-.1-1.718c.089-.755-.547-2.065.755-2.065,1.094,0,.853,1.312.913,2.089.218,2.792.465,5.592.453,8.387-.007,1.652.524,2.056,2.1,1.981,2.869-.134,5.748-.071,8.622-.019.929.016,1.269-.149,1.472-1.21a15.948,15.948,0,0,1,3.22-7.279c1.638-2.006,2.38-4.53,3.375-6.9a1.257,1.257,0,0,0-.5-1.68,1.27,1.27,0,0,0-1.865.43c-.429.572-.869,1.14-1.24,1.75-.293.484-.643.806-1.213.645-.628-.178-.577-.735-.577-1.243,0-2.588-.007-5.177.015-7.766.007-.821.073-1.7-1.016-1.794-1.281-.106-1.2.9-1.29,1.772-.091.852.409,2.3-.827,2.3-1.346,0-.681-1.45-.753-2.264-.107-1.213-.042-2.443-.027-3.665.01-.824-.3-1.491-1.147-1.539-.883-.051-1.221.7-1.278,1.443-.088,1.144-.04,2.3-.065,3.449-.012.531-.132,1.076-.806,1.009-.5-.049-.639-.513-.644-.978-.006-.575.011-1.151-.011-1.726-.029-.773-.251-1.481-1.167-1.5-1.046-.027-1.287.717-1.291,1.6,0,.935,0,1.87-.019,2.8-.01.624.134,1.46-.772,1.473-.739.01-.739-.731-.758-1.315a3.34,3.34,0,0,0-.049-.857c-.171-.561-.435-1.121-1.136-1.1a1.137,1.137,0,0,0-1.177,1.254c-.021,1.726-.007,3.451-.012,5.177,0,.582.027,1.253-.781,1.267-.791.013-.846-.649-.85-1.235-.013-1.725-.019-3.452.017-5.176a2.928,2.928,0,0,1,.311-1.244c.224-.432.652-1.163.885-1.124,2.813.467,3.22-3.439,5.771-3.153a1.714,1.714,0,0,0,1.727-.691c1.64-1.7,3.919-1.116,4.664,1.163.239.731.341,1.148,1.34,1.166,1.878.033,2.779,1.319,2.846,3.117s.015,3.592.015,5.345c.344.232.564.1.808-.087a2.662,2.662,0,0,1,3.546.135,2.915,2.915,0,0,1,.738,3.546,32.532,32.532,0,0,1-3.924,7.814c-1.81,2.478-3.252,5.133-2.041,8.478.479,1.322.229,2.571-1.831,2.3a32.465,32.465,0,0,0-4.2-.034q-.006.432-.012.865m4.5,2.248c-1.024-.75-2.108-.5-3.159-.51-1.555-.012-3.052-.193-3.026-2.15.027-1.977,1.6-2.043,3.11-2.087,1-.03,2.056.245,3.011-.383-3.078-.15-6.151-.156-9.223-.148-4.22.011-4.22.016-3.808,4.178a1.194,1.194,0,0,1,0,.216c-.054.646.262.89.887.889q6.1-.014,12.208,0" transform="translate(8349.415 16178.98)" fill="#013369"/>
    <path id="Path_6962" data-name="Path 6962" d="M438.283,56.422a9.066,9.066,0,0,0-4.257-.217c-1.819.123-2.315-.845-1.805-2.164,1.249-3.233-.065-5.879-1.788-8.312a34.607,34.607,0,0,1-3.862-7.358c-.585-1.473-.972-2.946.3-4.189,1.331-1.3,2.826-1.055,4.493.3,0-2.059-.02-3.745,0-5.431.03-2.061.86-3.551,3.125-3.516,1.082.017.878-.681,1.065-1.213.784-2.225,3.092-2.82,4.7-1.081a1.525,1.525,0,0,0,1.739.641c.775-.173,1.94.19,2.063.816.554,2.814,5.318,1.227,4.942,4.993-.249,2.491.039,5.032-.1,7.539-.272,4.728-.813,9.445-.977,14.175-.074,2.154.875,4.26.69,6.51-.2,2.462-.584,2.983-3.076,2.988-3.663.006-7.327-.021-10.99.011-1.575.014-2.352-.591-2.423-2.263-.079-1.878,1.127-1.638,2.279-1.633,1.294.006,2.587,0,3.881,0q0-.3,0-.6m2.1-4.159c1.581,0,3.164-.037,4.744.014.889.029,1.24-.225,1.294-1.187.235-4.158.633-8.307.832-12.467.141-2.941.049-5.893.081-8.84.008-.778-.118-1.514-1-1.622-1.01-.122-1.337.639-1.472,1.482-.045.282-.022.575-.05.861-.043.448-.17.943-.687.927-.448-.014-.7-.418-.709-.9-.007-.791.037-1.586-.029-2.372-.084-.989.453-2.519-1.121-2.577-1.745-.064-1.252,1.532-1.347,2.6-.013.143,0,.287,0,.432,0,.529-.08,1.118-.71,1.133s-.734-.573-.742-1.1c-.019-1.15.034-2.305-.056-3.45-.06-.765-.5-1.445-1.363-1.35a1.243,1.243,0,0,0-1.057,1.407,24.86,24.86,0,0,1-.036,3.017c-.124,1.073.626,2.947-.608,3.043-1.655.129-.754-1.748-.964-2.744-.163-.771-.324-1.44-1.295-1.351-.828.076-1,.656-1,1.381.013,2.014.1,4.033-.034,6.038-.075,1.133.784,2.806-.58,3.3-1.307.475-1.56-1.358-2.286-2.15-.538-.587-1.086-1.066-1.834-.669a1.318,1.318,0,0,0-.541,1.991c.819,1.657,1.444,3.41,2.261,5.068.976,1.983,2.548,3.6,3.457,5.655.638,1.439-.01,3.649,1.522,4.293,1.406.592,3.254.132,4.907.136h.432m-6.56,6.48.083.355a1.254,1.254,0,0,0,.391.144c2.944.015,5.889.044,8.833.021,4.088-.031,4.193-.178,3.749-4.279-.056-.523.005-1-.751-1-4.092.014-8.183.007-12.274.007q0,.273,0,.545c1.271,0,2.545-.047,3.813.014s2.289.554,2.319,2c.031,1.525-.936,2.148-2.34,2.183-1.272.032-2.546.006-3.82.006" transform="translate(8380.814 16178.982)" fill="#013369"/>
    <path id="Path_6963" data-name="Path 6963" d="M495.319,67.7a7.913,7.913,0,0,1-4.832-1.229c-1.831-1.334-1.829-3.239-.029-4.617,2.214-1.694,6.873-1.755,9.113-.12,1.982,1.447,1.922,3.517-.122,4.883a7.823,7.823,0,0,1-4.13,1.082m-.667-1.522c2.4.028,4.717-1,4.785-1.968.074-1.052-2.335-2.27-4.529-2.06-1.557.149-3.96.035-3.917,2.041.041,1.926,2.461,1.636,3.661,1.987" transform="translate(8345.039 16157.252)" fill="#013369"/>
    <path id="Path_6964" data-name="Path 6964" d="M489.4,100.98c-1.457-.081-2.3-.794-2.248-2.3a2.053,2.053,0,0,1,2.352-2.173,1.993,1.993,0,0,1,2.139,2.172,2.071,2.071,0,0,1-2.244,2.3" transform="translate(8346.153 16136.857)" fill="#013369"/>
    <path id="Path_6965" data-name="Path 6965" d="M448.891,67.691a6.615,6.615,0,0,1-3.86-1.287,2.645,2.645,0,0,1-.172-4.369c2.207-1.984,7.637-1.952,9.792.057a2.627,2.627,0,0,1-.31,4.372c-1.38,1.016-3,1.246-5.45,1.228m.379-1.5a6.784,6.784,0,0,0,3.625-.761c1.426-.776,1.463-1.7.1-2.521a5.689,5.689,0,0,0-3.526-.733c-1.581.161-3.994.12-3.934,2.036.055,1.777,2.444,1.755,3.738,1.978" transform="translate(8370.74 16157.241)" fill="#013369"/>
    <path id="Path_6966" data-name="Path 6966" d="M465,100.969a2.019,2.019,0,0,1-2.109-2.339,1.975,1.975,0,0,1,2.179-2.116,2.045,2.045,0,0,1,2.284,2.233c.024,1.51-.824,2.2-2.355,2.222" transform="translate(8359.906 16136.856)" fill="#013369"/>
  </g>
</svg>
