<svg xmlns="http://www.w3.org/2000/svg" width="18.642" height="22" viewBox="0 0 18.642 22">
  <g id="Group_4252" data-name="Group 4252" transform="translate(-94.478 -193.515)">
    <path id="Path_6644" data-name="Path 6644" d="M103,208.489c-.057-.495-.11-.963-.126-1.437a.5.5,0,0,0-.02-.125,1.4,1.4,0,0,1-.031-.36v-.038a.528.528,0,0,0-.013-.107,3.929,3.929,0,0,1-.076-.678l-.024-.324a.544.544,0,0,0-.015-.092,2.148,2.148,0,0,1-.05-.407c0-.076-.009-.152-.017-.227l-.053-.579a2.722,2.722,0,0,0-.613-1.442.518.518,0,0,0-.107-.094.509.509,0,0,0-.11-.113,3.812,3.812,0,0,0-.82-.435.7.7,0,0,0-.167-.049l-.09-.011-.057-.007-.036,0a.56.56,0,0,0-.067-.01l-.085-.007-.057,0h-.058q-.493.018-.986.019c-.348,0-.691-.007-1.019-.023h-.023a.486.486,0,0,0-.115.014.55.55,0,0,0-.123-.014h-.074a.56.56,0,0,0-.057,0,.533.533,0,0,0-.085-.007.5.5,0,0,0-.145.022.509.509,0,0,0-.16-.023h-.05l-.639.046a.491.491,0,0,0-.174.046l-.654.3a.494.494,0,0,0-.176.137.519.519,0,0,1-.129.117.491.491,0,0,0-.125.109,2.7,2.7,0,0,0-.595,1.412.47.47,0,0,0,0,.091.455.455,0,0,0-.01.1.5.5,0,0,0-.016.172.249.249,0,0,1-.011.111.511.511,0,0,0-.025.2,1.647,1.647,0,0,1-.028.355c-.009.058-.017.115-.024.173a.531.531,0,0,0,0,.079.494.494,0,0,0-.075.311l.012.125.007.08c0,.065-.009.129-.013.194a2.7,2.7,0,0,1-.057.484.487.487,0,0,0-.013.178.168.168,0,0,1,0,.056.473.473,0,0,0-.026.125l-.017.241a8.445,8.445,0,0,1-.121,1.083.447.447,0,0,0-.009.073l-.014.269-.058.8a.488.488,0,0,0,0,.112l.027.176a.49.49,0,0,0,.042.138c0,.013.007.025.011.038l.018.052.043.127a.5.5,0,0,0,.068.131.475.475,0,0,0,.061.118,3.452,3.452,0,0,0,1.073.958c.023.44.028.794.018,1.124l.007.558c0,.015,0,.03,0,.044a1.972,1.972,0,0,1,.013.5.5.5,0,0,0,.007.186,1.477,1.477,0,0,1,.011.431.464.464,0,0,0,0,.1,2.545,2.545,0,0,1,.011.526.587.587,0,0,0,0,.09,2.017,2.017,0,0,1,.007.433.522.522,0,0,0,0,.1,14.018,14.018,0,0,1,.046,1.733c0,.015,0,.03,0,.045l.025.449a.5.5,0,0,0,.042.175.938.938,0,0,0,.875.6,1.128,1.128,0,0,0,.224-.023.49.49,0,0,0,.2-.086l.109-.079.109-.08a.492.492,0,0,0,.164-.205,1.426,1.426,0,0,0,.088-.644c0-.034,0-.069,0-.1,0-.344-.013-.688-.026-1.032-.017-.462-.034-.939-.021-1.4a.5.5,0,0,0,0-.055l-.005-.057a1.627,1.627,0,0,1-.006-.36.523.523,0,0,0,0-.116,14.7,14.7,0,0,1-.048-1.691.542.542,0,0,0,0-.08,2.4,2.4,0,0,1-.008-.517.459.459,0,0,0,0-.068l-.015-.323c-.012-.246-.025-.492-.033-.739a.9.9,0,0,0-.636-.887,1.709,1.709,0,0,1-.286-.138c-.449-.261-.445-.358-.354-.725a.411.411,0,0,0,.013-.085l.019-.27a4.39,4.39,0,0,1,.086-.773.511.511,0,0,0,.013-.142,2.179,2.179,0,0,1,.05-.5c0-.021.006-.041.007-.062l.007-.109a8.591,8.591,0,0,1,.129-1.206.489.489,0,0,0,.006-.158.319.319,0,0,1,.011-.123.488.488,0,0,0,.018-.164,1.935,1.935,0,0,1,.039-.4l.019-.122.048-.547c.027-.309.194-.49.438-.49a.488.488,0,0,1,.069,0,.5.5,0,0,0,.063,0,.473.473,0,0,0,.087-.008.97.97,0,0,1,.172-.015,1.258,1.258,0,0,1,.2.017.483.483,0,0,0,.147,0,1.743,1.743,0,0,1,.247-.018,1.6,1.6,0,0,1,.239.018.529.529,0,0,0,.073.005.458.458,0,0,0,.08-.007,1.317,1.317,0,0,1,.2-.015,1.517,1.517,0,0,1,.225.017.537.537,0,0,0,.073.005.508.508,0,0,0,.078-.006,1.38,1.38,0,0,1,.218-.018,1.2,1.2,0,0,1,.208.018.509.509,0,0,0,.084.007.465.465,0,0,0,.085-.008,1.171,1.171,0,0,1,.2-.016,1.5,1.5,0,0,1,.223.017.518.518,0,0,0,.072.005l.038,0h0a.415.415,0,0,1,.408.4.513.513,0,0,0,.023.127.307.307,0,0,1,.011.126.5.5,0,0,0,.021.19.394.394,0,0,0,0,.056l0,.087a.6.6,0,0,0,.009.068,2.017,2.017,0,0,1,.054.5.54.54,0,0,0,0,.074l.008.089a.512.512,0,0,0,.033.137c0,.023,0,.047,0,.068l.007.114.006.109a.529.529,0,0,0,.008.065,1.9,1.9,0,0,1,.051.494,6.312,6.312,0,0,1,.034.34,2.038,2.038,0,0,1,.056.5.488.488,0,0,0,.028.172h0s0,.017,0,.057a.5.5,0,0,0,.015.177,2.044,2.044,0,0,1,.046.387c.006.1.013.2.025.3l.021.238.021.234a1.6,1.6,0,0,0,.036.247c.005.029.013.066.017.091a.49.49,0,0,0-.06.14.6.6,0,0,0-.054.054,1.3,1.3,0,0,1-.568.356.888.888,0,0,0-.635.761c-.052.6-.066,1.206-.073,1.767l0,.3c-.008.7-.017,1.421-.05,2.127l-.006.553a.287.287,0,0,0,0,.034,3.5,3.5,0,0,1-.025.779.488.488,0,0,0,0,.184.094.094,0,0,1,0,.036.5.5,0,0,0-.017.185,1.917,1.917,0,0,1-.011.5.435.435,0,0,0-.006.1l.011.248.011.247a.488.488,0,0,0,.064.223l.03.053.032.057a.507.507,0,0,0,.083.109.989.989,0,0,0,.708.3,1.111,1.111,0,0,0,.264-.033.512.512,0,0,0,.227-.127l.219-.214a.5.5,0,0,0,.148-.315l.021-.264.022-.264a.534.534,0,0,0,0-.056,3.719,3.719,0,0,1,.021-.712.485.485,0,0,0,0-.148.625.625,0,0,1,.005-.2.586.586,0,0,0,.008-.083l.008-.628,0-.357a6.054,6.054,0,0,1,.03-.924.512.512,0,0,0,0-.123.889.889,0,0,1,.005-.26.557.557,0,0,0,.008-.094,14.427,14.427,0,0,1,.044-1.734.506.506,0,0,0,0-.119,1.326,1.326,0,0,1,.009-.391c0-.017,0-.034,0-.052a3.619,3.619,0,0,0,1.051-.953.442.442,0,0,0,.032-.054,2.376,2.376,0,0,0,.212-1.383Z" transform="translate(0 -2.84)" fill="#013369"/>
    <path id="Path_6645" data-name="Path 6645" d="M97.571,196.5a.168.168,0,0,0,.012.06,2.544,2.544,0,0,0,1.324,1.408l.111.067a.168.168,0,0,0,.084.023.186.186,0,0,0,.038,0l.021.005.054.009.035.006.025,0a.17.17,0,0,0,.093.028H99.4a.137.137,0,0,1,.066.012.169.169,0,0,0,.076.019h.007l.164-.006a3.787,3.787,0,0,0,.627-.057l.417-.139a2.458,2.458,0,0,0,1.261-1.52l.033-.138a.175.175,0,0,0,0-.046.158.158,0,0,0,.023-.072l.017-.221a2.993,2.993,0,0,0-.289-1.246.187.187,0,0,0-.017-.029,2.617,2.617,0,0,0-.963-.906,2.958,2.958,0,0,0-.937-.235c-.034,0-.068,0-.1,0a2.807,2.807,0,0,0-.583.079c-.089.019-.178.037-.268.051a.165.165,0,0,0-.063.023l-.5.31-.057.035a.2.2,0,0,0-.034.029,5.045,5.045,0,0,0-.541.668.175.175,0,0,0-.025.065.18.18,0,0,0-.038.058l-.144.4a.144.144,0,0,0-.009.037l-.07.629a.782.782,0,0,0,.058.4A.7.7,0,0,1,97.571,196.5Zm1.484-1.568a1.107,1.107,0,0,1,.693-.271,1.064,1.064,0,0,1,.456.109,1.106,1.106,0,0,1,.735,1.147.7.7,0,0,1,0,.074.13.13,0,0,0-.036.072l-.018.092a.194.194,0,0,0,0,.034.175.175,0,0,0-.049.112c0,.026-.009.054-.086.113a.165.165,0,0,0-.063.105c0,.009-.026.025-.04.032a.162.162,0,0,0-.065.067.618.618,0,0,1-.477.3.91.91,0,0,1-.312.062.743.743,0,0,1-.267-.051.16.16,0,0,0-.052-.011.717.717,0,0,1-.36-.169l-.02-.014a.873.873,0,0,0-.131-.135c-.062-.056-.1-.089-.107-.133a.162.162,0,0,0-.041-.076.615.615,0,0,1-.152-.467A1.024,1.024,0,0,1,99.055,194.931Z" transform="translate(-1.005 0)" fill="#013369"/>
    <path id="Path_6646" data-name="Path 6646" d="M117.6,196.4a.447.447,0,0,0,.482-.415v-.6a.448.448,0,0,0-.482-.415h-4.978a.447.447,0,0,0-.48.415v19.976a.446.446,0,0,0,.48.415H117.6a.447.447,0,0,0,.482-.415v-.6a.447.447,0,0,0-.482-.415l-3.655,0v-2.2h1.723a.448.448,0,0,0,.482-.415v-.6a.447.447,0,0,0-.482-.415h-1.723v-1.795H117.6a.447.447,0,0,0,.482-.415v-.6a.447.447,0,0,0-.482-.415h-3.655V205.69h1.723a.448.448,0,0,0,.482-.415v-.6a.447.447,0,0,0-.482-.415h-1.723v-1.795H117.6a.448.448,0,0,0,.482-.415v-.6a.447.447,0,0,0-.482-.415h-3.655v-1.795h1.723a.448.448,0,0,0,.482-.415v-.6a.447.447,0,0,0-.482-.415h-1.723v-1.4Z" transform="translate(-4.961 -0.491)" fill="#013369"/>
  </g>
</svg>
