<?xml version="1.0" encoding="utf-8"?>
<!-- Generator: Adobe Illustrator 22.0.0, SVG Export Plug-In . SVG Version: 6.00 Build 0)  -->
<svg version="1.1" id="Layer_1" xmlns="http://www.w3.org/2000/svg" xmlns:xlink="http://www.w3.org/1999/xlink" x="0px" y="0px"
	 viewBox="0 0 407 562.2" style="enable-background:new 0 0 407 562.2;" xml:space="preserve">
<style type="text/css">
	.st0{fill:#C8D3DE;}
	.st1{opacity:0;fill:#C8D3DE;}
	.st2{opacity:0;}
</style>
<g>
	<path class="st0" d="M53.4,539.9L53.4,539.9C53.4,540,53.5,540,53.4,539.9C53.5,539.9,53.5,539.9,53.4,539.9
		C53.5,539.9,53.5,539.9,53.4,539.9L53.4,539.9z"/>
	<path class="st0" d="M53.3,540.3c0-0.1,0.1-0.2,0.1-0.3C53.3,540,53.1,540.1,53.3,540.3z"/>
	<path class="st0" d="M312.8,70.4L312.8,70.4c0.1,0.1,0.1,0.1,0.2,0.2L312.8,70.4z"/>
	<path class="st0" d="M186,236C186,236,186,236,186,236C186,236,186.1,236,186,236C186.1,236,186.1,236,186,236
		C186.1,236,186,236,186,236z"/>
	<path class="st0" d="M403.6,209.9c-0.4-1.3-1.1-1.1-2-0.5c-4.8,2.5-9.9,4.6-15.1,6.1c-2.4,0.8-11.5,2.8-11.5,2.8l-8.2,0.8
		c0-0.2,0-0.4,0-0.6c2.7-0.3,5.1-1.8,7.7-2.4c3.2-1,6.4-2.2,9.4-3.7c1.3-0.6,4.9-2.4,5.3-2.7c3.9-2.5,8.1-4.7,9-9.9
		c0.3-1.1-0.8-4.7-1.3-5.3c-1-1.4-1.8-1.7-3-0.1c-1.7,2-4.5,5.6-11.3,10.3s-9.6,5.3-12.3,6.6c-0.1-0.2-0.2-0.4-0.3-0.5
		c1.8-1.3,4.6-3.1,6.1-4.4s3.7-2.9,5.6-4.7c1.9-1.8,5.9-5.9,7.5-10.3c0.9-2.1-1.8-10-2.7-11.8c-1.3-3-2.8-5.8-4.6-8.6
		c-0.7-1.1-1.5-1.3-2.5-0.4c-2.7,2.4-5.6,4.2-10.2,6.6c-4.7,2.4-12.8,6-19.3,8.4c-2.1,0.8-6.7,2.7-7.3,1.4c-0.7-1.3-1-2,0.4-2.6
		c2.4-1.2,7.3-3.1,11-5.1c7.6-4,16.1-9.5,22-14.1c3.3-2.6,5.5-6.3,6.2-9.7c1.5-7.6,0.8-12.2,0.4-19.8c-0.1-0.9-0.5-1.8-0.9-2.5
		c-5.2-10.1-12.3-18.6-20.5-26.4c-3.4-3.3-7.7-5.4-12.4-6.2c-6.3-1.1-12.5-1.7-19-1.8c-3.7,0-5.3,1.5-6.8,4.7
		c-5.5,11.8-14,20.6-27,24.5c-4.7,1.4-8.8,4.2-11.8,8.1c-5,6.6-6,14.2-5.8,22.2c0,0.9,0.6,1.8,0.3,2.8c0,0,0,0,0,0
		c-18.1-10-27-26.5-29.3-38.7c0,0,0,0,0,0c2.8,5.2,5.7,10.4,9.7,14.8c3.9,4.5,8.8,8.1,14.3,10.4c0,0,0,0,0,0c0.2-1.2,0.2-2.1,0.4-3
		c0.9-5.6,3.8-10.6,8.1-14.3c4.1-3.4,8.6-6.2,13.4-8.3c2.6-1.2,5.3-2.3,7.6-4.1c3.8-3.2,6.9-7.1,9.2-11.4c0.5-0.9,0.7-2.2,1.7-2.6
		c5-1.9,6.6-6.4,8.5-10.7c2.5-5.6,4-11.5,5.6-17.4c0.8-2.8,0.8-5.9,2.5-8.4c1.8-2.7,2.5-5.5,1.3-8.6c-0.3-0.8-0.7-1.7-0.1-2.6
		c1.5-2.4,1.1-4.8-0.3-7.1c-0.9-1.7-1.4-3.5-1.4-5.4c-1-14.4-5.5-27.1-17.6-36c-3-2.4-6.6-4-10.4-4.8c0,0,0,0,0,0
		c2,2.2,3.5,4.8,4.5,7.6c1.8,4.8,2.2,9.7,2.2,14.7c0,0.9-0.1,1.8,1.2,2c3.5,0.5,6.5,2.4,9.7,3.7c0.9,0.2,1.5,1.1,1.3,2
		c-0.4,4.1-0.4,8.2-1.1,12.2c-0.5,3.3-0.3,7.1-3.7,9.3c-0.4,0.3-0.1,0.9-0.1,1.3c0.2,4.9-0.9,9.8-3.3,14.1l0,0l0.2,0.1
		c0,0-0.1-0.1-0.1-0.1c1,0.5,1.7-0.2,2.4-0.7c3.4-2.3,6.4-5.1,9-8.2c1.3-1.5,2.1-3.4,2.3-5.3c0.3-2.9-0.8-5.8-2.9-7.9c0,0,0,0,0,0
		c3.9,1.2,6.3,6.1,5.1,10.4c-1.7,6.1-2.8,12.4-4.6,18.5c-2,6.8-3.9,13.6-7.2,20c-1,2.2-2.8,3.8-5.1,4.4c-3.1,0.7-6.2,1.1-9.4,1.3
		c-0.3-0.3-0.6-0.5-0.1-0.9c3.5-0.6,6.9-1.5,10.3-2.6c1.3-0.4,2.4-1.3,3-2.6c3.2-5.3,4.6-11.3,6.3-17.1c0.8-2.2,1.2-4.5,1.4-6.8
		c0,0,0,0,0,0c-2.3,0.7-4.7,1.1-7.1,1.4c-9.8,0.9-19.4-0.4-28.9-2.3c-0.6-0.1-1.3-0.6-1.9,0.2c-1.3,1.7-0.3,5.7,1.6,6.7
		c2.3,1,4.7,1.6,7.2,1.7c7.7,0.8,15.4,1,23.2,1.1c-0.9,0.3-1.8,0.6-2.8,0.7c-9.4,1.2-19,0.8-28.3-1.2c-1.2-0.2-1.7-0.3-2,1.4
		c-1,5.7-0.2,14.7,0,17.1c-1.1-2.9-2-7.5-2.2-11.2c-0.4-5.2-0.5-7.8-0.4-13.7c0-1.3,0.2-4.5-2.2-4.6c-5.3-0.3-10.3-2.2-13.6-4
		c-0.4-0.2-1.2-0.9-1.4-0.4c-0.6,1.4-0.7,2.3-0.9,4.3c0,0.4,0.1,0.7,0.4,0.9c2,1.5,5.2,3.2,8.6,4.2c3.4,1.1,3.9,1.2,5.6,1.7
		c0.5,0.2,1.2,1.1,1.2,1.4c-8.6-1.8-12.5-3.9-16.2-5.5c0,0,0,0,0,0c-0.6,4-1,8-1.2,12.1c-0.2,1.8,0.6,3.5,2,4.5
		c3.5,2.7,7.3,5.1,11.3,7.1c0.6,0.3,1.3,0.4,1.4,1.3c-0.3,0-0.5,0.1-0.7,0c-4.6-2.1-9.1-4.5-13.2-7.3c-2.3-1.5-3.6-4.1-3.3-6.9
		c0.2-6.3,0.8-12.6,1.7-18.8c0.4-2.2,0.1-3.8-1.9-5c-1.7-1-3.1-2.4-4.9-3.2c-1.1-0.5-1.3-2-1-3c0.7-2,1-2.7,1.5-4.6
		c0.5-1.6,1.5-3,2.8-3.7c2.6-1.5,4.6-2.2,7.6-2.5c0.5-0.1,1.1,0,1.4,0.4c2.7,3.4,6.2,4,10.5,3.6c8.9-0.8,17.7,0.4,26.5,1.6
		c4.5,0.6,9.4,0.2,13,3.9c0.2-0.4,0.4-0.7,0.5-1.1c0,0,0,0,0,0c1-5.4,1.6-10.9,1.8-16.5c0.1-1-0.5-2-1.5-2.2
		c-2.8-1.1-5.8-1.7-8.8-1.9c-6.4-0.9-12.8-1.3-19.3-1.2c-2.2,0.1-3.2,1-3.3,3.1c-0.1,1.7-0.2,3.4-0.2,5.1c-0.8-2.7-1.2-5.5-1.4-8.3
		c-0.1-1.3,0.4-1.7,1.6-1.9c3.1-0.7,6.3-1.1,9.5-1.1c1.3,0,1.8-0.4,1.5-1.7c-0.5-2.8-0.7-5.6-1.2-8.3c-1-5.5-2.7-10.7-6.6-14.9
		c-0.8-0.9-2-1.4-3.2-1.3c-5.6,0.1-11.2,1.2-16.4,3.4c-7.4,3.1-13.9,7.8-19,13.9c-6,6.8-9.8,14.4-10.3,23.6
		c-0.5,7.8,0,15.6,1.3,23.3c0.1,0.8,0.1,1.2-0.7,2.2c-1.5,1.7-1.4,8.3,1.3,10.8c2.1,1.9,2.1,1.8,3.3,4.4c3.1,6.8,8.7,10.9,15.1,14
		c4.1,2,7.9,3.9,10.6,8c2.6,3.9,6.4,6.8,10.9,8.1c6.5,1.8,11.5-1,15.7-5.6c0.5-0.5,0.6-1.4,1.7-1.2c1.7,0.5,3.4-0.1,5.5-0.2
		c0,0,0,0,0,0c-3.9,5.5-9.4,9.7-15.7,12c-6.4,2.3-11.7,6.8-16.9,11.7c-3,2.9-5.7,2.9-8.6,0.8c0,0,0,0,0,0c-3-2.6-5.6-5.6-7.7-8.9
		c-5.7-9.2-8.5-19.3-10-29.9c-0.4-2.7-1.2-4.5-3.9-5.2c-1.7-0.5-3.4-1.3-5.1-2c-7.5-2.8-11.4-4.9-25.7-5.6
		c-14.3-0.6-20.8,1.3-32.2,4.5c-2.1,0.6-3.9,2-5.2,3.8c-3.3,4.3-4.8,9.4-6.4,14.4c-1.3,4.6-2.3,9.2-3,14c-1,5.1-0.9,10.5,0.3,15.6
		c2.1,8.1,5.4,15.7,9,23.2c-0.2,0.2-0.2,0.2-0.3,0.3c-2.9-1.7-4.4-4.5-6.1-7.2c-2.7-4.6-4.9-9.5-6.5-14.7c-0.5-1.5-1.1-1.8-2.6-1.4
		c-4.6,1.2-8.9,3.6-12.4,6.7c-4.9,4.4-9,9.2-6.7,16.8c0.2,0.7,0.4,1.4,0.5,2.2c0.4,1.7,1.4,3.4,0.9,5.4c-2.4-3.4-3.4-7.3-4.8-11
		c-1.4-3.8-1.7-4.1-5.2-1.8c-0.9,0.6-1.7,1.2-2.6,1.9c-4.4,3.6-8.5,7.5-12.1,11.9c-0.8,0.9-1.6,1.8-3,1.6c-2.8-0.3-4.7,1.5-5.8,3.6
		c-2.9,5.7-2.6,11.9-2.4,18.2c0,0,0,0,0,0c8.5-4.8,16.2-5.4,22.7-1.4c0,0,0,0,0,0c-3.5-0.5-7-0.6-10.5-0.4
		c-6.9,0.6-10.1,4.1-9.9,10.9c0.1,5,2.2,9.7,2.9,14.7c0.5,2.9,1.2,5.7,3.1,7.9c1.7,2.1,2.6,4.8,2.5,7.6c-0.1,2.4,0.8,4.7,2.4,6.4
		c1.9,2,3.9,3.8,6.1,5.5c6,4.2,12.3,7.9,18.6,11.6c4.4,2.6,9.4,6,15.2,8.8c5.8,2.8,17.8,4.8,21.8,4.3c1-0.1,2.6-0.4,3-1.3
		s-0.7-1.4-1.4-1.5c-3.8-0.6-7.2-1.3-10.7-2.8c1.7,0.3,3,0.7,4.2,0.9c2.8,0.5,5.4,1,8.4,1c1.5,0.1,2.9-0.8,3.5-2.1
		c0.6-1.4,0.4-2.9-0.7-4c-1.6-1.9-3.6-2.1-6.6-2.8c-6.2-1.6-11.4-4.1-16.3-8c1-0.2,2.1-0.2,3.2,0.1c5.1,0.8,10.2,1.2,15.4,1.1
		c3.4,0,4.5-1.4,4.2-4.9c0-0.4-0.3-0.8,0.1-1.2c0,0-0.1,0-0.1,0.1c0,0,0,0,0.1-0.1c0,0,0,0,0.1-0.1c0,0,0,0,0,0c0,0,0,0,0,0l0,0
		c0,0,0,0,0,0c5.4,8,4.6,16.3,0.8,24.7c0,0,0,0,0,0c3.7,0.5,7.5,0.5,11.2,0c4.9-0.7,9.6-2,13.5-5.4c0.9-0.8,2-1.6,1.8-3
		c-0.3-1.5-1.7-1.7-2.9-2.3c-0.6-0.3-1.4-0.1-1.8,0.4c-1.2,0.9-2.5,1.7-3.8,2.5c-2.9,1.6-6,2.8-9.4,2.7c0,0,0,0,0,0
		c3.3-1.1,6.3-3.1,8.5-5.8c3.1-3.4,2.9-4.4,0-7c-1.2-1.1-2.4-2.3-3.6-3.4c-3-2.6-6.1-5.1-9.2-7.6c0,0,0,0,0,0
		c6.7,2.5,12,7,17.4,11.7c0,0,0,0,0,0c2.5-6.5,2.6-13,1.3-19.6c0.4,0.1,0.5,0.1,0.6,0.2c0.1,0.2,0.2,0.4,0.3,0.6
		c2.1,6.4,2.4,13.3,0.8,19.9c-0.1,0.5-0.9,1,0,1.8c1.5,1.3,2.8,2.8,4.4,4.4c0,0,0,0,0,0c2-8.6,2.3-17,0.2-25.3
		c-1.6-6.3-4.8-12-9.3-16.6l-4.6-4.1c0,0-6.2-5-14-8.2c-8.7-3.5-17.5-5.9-26.9-3.1c-5.6,1.6-11.6,6.1-13.5,10.4
		c0.7,0.2,1.1-0.3,1.5-0.7c0.5-0.4,1-0.7,1.5-1c6.8-3.6,13.8-3.1,21-1.6c7.4,1.6,14.2,4.7,15.3,12.6c1,7.9-2.4,14.3-2.9,16.6
		c0,0,0,0,0,0c-0.5,0.9-1.3,1.6-2.1,2.1c-1.7,1.1-3.8,1.4-5.8,0.7c-1.8-0.5-3.7-0.9-5.5-1.4c-4.7-1.1-9.2-3-13.4-5.5
		c-1.8-1-2.8-2.9-2.7-4.9c0-3.7,3.2-7,7.6-7.7c1.9-0.3,3.8-0.3,5.7-0.5c3-0.3,5.4-1.5,6.4-4.6c0.4-1.3,0.4-2.1-1.2-2.4
		c-2.1-0.5-4.2-1.2-6.2-2.1c-2.1-1.1-4.6-1.3-6.8-0.5c-3.3,1-6.4,2.3-9.4,3.9c-3.5,1.9-6.9,4.1-10.7,5.3c-4.2,1.4-7.4-0.9-7.8-5.5
		c0.4,0.3,0.7,0.6,1.1,0.9c3.2,2.4,6.3,1.7,7.8-2c3.5-8.1,4.1-17.2,1.6-25.7c-2.8-9.7-9.3-14.8-19-16.7c2.3-0.9,4.9-0.8,7.1,0.2
		c4.6,1.9,8.5,5.1,11.3,9.2c1.8,2.9,4,5.5,6.4,7.9c4.6,4.1,8.7,4.5,14.4,1.8c5.7-2.7,11.1-5.8,16.3-9.3c4.3-2.9,8.6-5.8,12.7-9.1
		c0.9-0.7,0.6-0.8,0-1.8c-1.3-2.2-0.8-14.5,0.1-11.8c0.7,2,0.6,4.7,0.8,6.1c0.2,1.4,0.7,4.5,1.1,3.1s1.3-6.1,2.4-8.2
		c1.6-3,4.8-5.2,2.8-0.2c-0.7,1.7-1.1,2.9-1.6,5.7c-0.6,2.8-0.9,8.5-1.6,14.9c-0.6,6.1-0.5,12.3,0.3,18.4c0.4,3.6,1.1,6.9,5.1,8.2
		c0.3,0.2,0.7,0.4,0.9,0.7c6.6,5.4,12.1,11.6,15.4,19.6c4.4,10.4,5.6,21,2.4,31.9c-0.9,2.9-2.7,5.5-5.1,7.4
		c-4.3,3.6-9.5,5.6-14.8,7.2c-1.7,0.5-4.3,0.3-4.9,1.3c-0.9,1.6,1.2,3.1,2.1,4.7c2.8,4.7,6.4,8.8,10.6,12.2
		c3.5,2.7,7.2,5.2,11.1,7.3c-2.2-0.2-4.4-0.8-6.3-1.9c-5.6-2.6-9.9-7.2-14.9-10.6c-4.6-3.1-9.2-6.2-14.9-6.7c-4-0.4-7.4,0.7-10,4
		c-4.1,5.3-5.4,11.3-4.7,17.7c0.8,7.3,3.2,14.4,7.1,20.7c1.5,2.6,3.1,5.1,5,7.8c0,0,0,0,0,0c-5.4-0.3-8.8,2.4-11.4,6.3
		c-0.4,0.5-0.7,1.2-1.8,0.8c1.9-3.9,2.5-8.3,1.9-12.6c-0.8-6.9-4-12.3-10.7-15.1c-1.7-0.9-3.9-0.6-5.2,0.9c-1.2,1.3-2.3,2.8-3.2,4.3
		c-5.1,9-8.2,18.8-11.3,28.6c-2,6.4-3.4,13-5.5,19.4c-1.8,5.5-0.9,9.9,2.4,14.2c1,1.2,1.4,2.7,1.3,4.2c-0.4,4.6-1.5,8.9-4.5,12.6
		c-0.7,0.9-1.3,1.9-1.6,3c-2.8,9.5-1.9,19.1-0.7,29.1c0,0,0,0,0,0c4.7-7.7,9.2-15,14-22.1c5.6-8.4,11.4-16.5,17.6-24.5
		c5.1-6.7,10.4-13.1,16.1-19.4c5.3-6,11-12.4,17.4-17.3c7.6-5.7,14.8-9.9,24.1-12.3c5.5-1.5,12.3-1.2,17.9,0.1c0,0,0,0,0,0
		c-2.7,0.2-10,0.4-15.6,2.3c-9,3.2-20.2,9.1-26.5,15.9s-10.5,13.5-13.2,20c-2.7,6.6-4.8,13.4-6.9,20.1c-0.1,0.7-0.7,1.3-1.4,1.5
		c-9.5,3-16.9,9.3-23.6,16.3c-6.3,6.8-11.9,14.1-16.7,22c-2.8,4.3-2.1,8.2-0.2,12.2c3,6.5,8.2,11,13.6,15.3c1.1,0.9,2.5,1.5,3.1,2.8
		c-10.4-4.2-19-10-21.3-22.5c0,0,0,0,0,0c-1.3,3.7-3.5,6.5-5.7,9.3c-0.8,1.1-1.8,2.1-3,2.7c-5.2,2.5-10.1,5.4-14.7,8.8
		c-11.6,8.4-19.8,19.7-27.4,31.5c-3.7,5.7-7,11.7-11.5,16.8c-5.9,6.5-12.6,11.8-21.4,13.8c-1.4,0.2-2.7,0.9-3.7,1.9c0,0,0,0,0,0
		c-0.8,0.3-1.5,0.9-2,1.6c0,0,0,0,0,0c-2.7,2.3-5.3,4.7-8.9,5.5c-0.9,0.3-1.6,0.9-2.1,1.6c-1.4,1.6-2.6,3.4-3.3,5.4
		c-1.1,3.6-3.5,6.7-6.8,8.6c0,0,0,0,0,0c5.9,3.1,10.8,7.8,14.1,13.6c-1.6-1.7-3.4-3.3-5.2-4.8c-1.9-1.6-4-3-6.2-4.1c0,0,0,0,0,0
		c-0.6-0.6-4.4-2.6-5.8-2.5c-3.7-0.2-7.3,0.6-10.5,2.3c-4,2.1-5.4,6.3-3.5,9.9c5,9.5,14.7,13.6,24.6,12.6c0,0,0,0,0,0
		c-5.1-1.1-10-3.2-14.5-6c-2.2-1.4-4.3-3.2-6-5.2c-1.4-1.7-1.3-3.2,0.5-3.9c3.2-1.4,9.7-1.3,11.3,3.6c2.6,7.6,11.6,9.9,18,9
		c3.6-0.3,5.8-2.6,8-5.1c1.8-2,3.4-4,4.9-6.2c2.7-3.8,4.6-8,4-12.9c0.5-4-1.1-7.6-2.6-11.1c-1.2-2.8-3.4-4-6.5-4
		c-2.5,0-4.9,0.2-7.3,0.6c0,0,0,0,0,0c3.4-2.4,6.5-3.5,10.2-3.1c4.8,0.5,7.1,2.7,8.1,7.5c0.6,3.1,0.3,6.2,0.5,9.3c0,0,0,0,0,0
		c-0.2,1.8-0.7,3.6-0.5,5.4c0,0,0,0,0,0c2.1-1.4,3.2-3.7,5.1-5.3c1.5-1.4,3-2.8,4.5-4.1c0,0,0,0,0,0c0.9-0.4,1.7-1,2.3-1.8
		c0,0,0,0,0,0c4.6-3.1,9.6-5.5,14.9-7.2c0,0,0,0,0,0c-5.5-5.7-10.5-11.4-11.9-19.5c0,0,0,0,0,0c2.2,1.1,4.7,1.2,7,0.5
		c6.7-1.7,12.8-5,18.8-8.3c2.5-1.4,5-2.8,7.4-4.2c0.1-0.3,0.4-0.4,0.7-0.3c0.1,0,0.1,0.1,0.2,0.1c-0.2,0.2-0.3,0.4-0.5,0.6
		c-0.1,0.2-0.2,0.4-0.4,0.6c-5.8,4.5-11,9.7-15.4,15.6c-2.5,3.5-4.9,7.1-4.6,11.8c0,0.6-0.1,1.4,0.5,1.7c0.6,0.3,1-0.5,1.4-0.8
		c0.7-0.6,1.4-1.4,2.2-2c6.6-5.1,13.7-9.4,21.3-12.9c8.9-4.3,17.7-8.8,25.6-14.9c4.8-3.6,9.2-7.6,13.2-12.1c0,0,0,0,0,0
		c1.5-2,3.4-3.6,5.5-4.9c1.4-0.7,2.6-2,3.2-3.4c0.6-1.4,0.8-2.4-1.4-2.7c-7.1-0.9-14-2.6-20.2-6.2c-1.8-1.1-3.7-2.1-4.9-4
		c0.8,0.1,1.6,0.4,2.3,0.8c7.5,4.3,16.2,5.9,24.7,4.6c1.7-0.1,3.1-1.1,3.9-2.6c2.3-3.9,4.5-7.9,5.5-12.4c0.3-1.3,0.7-1.4,1.8-0.8
		c1.7,0.8,3.5,1.4,5.4,1.6c0.9,0.3,1.8,0.1,2.5-0.6c3.6-3.9,6.9-8,10-12.3c3.7-5.1,6.7-10.6,8.8-16.5c2.1-5.9,2.8-11.8,0.9-17.8
		c-2.1-6.5-6.7-10.8-12.7-14c0.9-0.1,1.9-0.1,2.8,0.2c6,1.8,11.7,4.6,16.8,8.2c4.6,3.2,5.9,6.9,4.5,12.5c0,0,0,0,0,0
		c-0.8,2.7-1.9,5.2-3.3,7.7c-2.2,4.3-5.5,7.9-8.3,11.8c-0.2,0.1-0.5,0.1-0.3,0.3c0,0.1,0.4,0,0.6,0c9.1-3.3,17.9-7.2,26.4-11.9
		c1.8-1,3.6-1.8,5.5-2.5c6.2-2.1,12.6-1.4,18.9-1.1c5.5,0.2,11.1,0.5,15.9-3.1c0.4-0.4,1-0.4,1.4,0c0,0,0,0,0.1,0.1
		c-2.1,3.3-6.7,4.9-8.7,5.5c-1.7,0.5-5.4,0.7-5.5,0.9l0,0.4c0,0.2,2.9,1,6.7,0.5s9.3-0.8,13-5.1c1.7-1.9,2.5-4.3,3.5-6.6
		c3.1-7.1,4.2-14.3,1.1-21.7c0.2-0.2,0.2-0.2,0.3-0.3c2,0.7,2.7,2.5,3,4.2c1.6,10-0.5,19.1-7.4,26.8c-2,2.3-4.6,3.9-7.6,4.7
		c-1.2,0.3-2.9,0.1-3.7,0.8c-1,0.8,0.1,2.4-0.1,3.8c-0.5,4.7-1.9,9.2-3,13.7c-0.7,2.8,0.4,5.7,2.7,7.3c5.9,3.6,14.6,1.5,17.5-2.5
		c0.8-1.1,1.4-2.6,3.3-2.7c0.6-0.1,1-0.7,0.9-1.3c0-0.1-0.1-0.2-0.1-0.3c-0.9-1.2-0.1-2,0.5-2.7c0.9-1.1,1.5-2.4,1.8-3.8
		c0.2-1,0.5-1.8,1.8-1.8c1,0,1.2-0.8,1.3-1.6c0.1-0.7,0-1.4-0.7-1.5c-2-0.3-1.2-1.9-1.5-3c-0.3-1.2,1-1,1.7-1.3
		c1.2-0.7,2.1-1.6,1.8-3.1c-0.1-1-1.1-1.8-2.1-1.6c-0.2,0-0.3,0.1-0.5,0.1c-1.1,0.3-1-0.4-1-1.1c-0.3-6,1-12,3.7-17.3
		c1.4-2.7,2.7-6.2,7.1-5.2c0.9,0.2,1.5-0.6,1.8-1.4c0.3-0.9-0.4-1.4-1.1-1.7c-1.6-0.7-1.4-1.5-0.9-3c0.7-2.1,2.3-2.3,3.9-3
		c0.8-0.3,1.5-0.7,1.6-1.7c0-0.9-0.5-1.6-1.3-1.9c-0.2-0.2-0.5-0.3-0.8-0.4c-1.6-0.4-2.1-1.4-2.4-3c-1.2-6.6-6.3-9.8-12.9-8.2
		c-4.7,1.1-8.9,3.4-13.2,5.3c-0.6,0.2-1.1,0.6-1.2,1.2c-0.8,3.3-3.3,4.3-6.2,4.6c-1,0-1.9,0.5-2.5,1.3c-3.6,5.6-7.8,10.8-12.6,15.4
		c-2.4,2.3-5,4.8-8.5,5.3c-4.2,0.7-7.9,2.6-11.5,4.7c-5.3,3-10.3,6.3-15.4,9.4l-0.4-0.6c6.8-6.1,14.4-11.1,22.5-15
		c2.4-1.1,4.6-2.6,6.6-4.3c4.4-3.7,8.4-7.8,12.2-12.1c4.7-5.2,9.1-10.6,13.4-16c4-5.1,7.9-10.3,11.8-15.5c4.7-6.3,9.9-12.3,13.9-19
		c5.9-9.7,7.8-21.3,5.4-32.4c-0.2-1.2-0.7-1.6-2-1.6c-14.1,0-28.2-0.6-42.1-3c-11-1.9-21.7-4.7-31.7-9.8c-2.6-1.1-4.9-2.7-6.9-4.8
		c1.2-0.5,2,0.2,2.9,0.6c3.6,1.7,7.4,3.1,11.2,4.2c9.3,2.9,18.9,5,28.6,6.3c11.8,1.7,23.7,2,35.6,1.1c2.3-0.2,3.9-1,4.8-3.2
		c1.1-2.5,2.3-4.9,3.2-7.5c3.8-10.4,7.5-20.7,10.7-31.3c1.8-5.9,4.2-11.7,5.4-17.8l0.3-0.2h-0.5c-8.4,4.6-17.1,8.3-26.1,11.3
		c-11.3,3.5-22.8,6-34.8,4.9c-0.7-0.1-1.6,0.3-1.9-0.7c33-3.5,58.1-20,77.1-46.8c0,0,0,0,0,0c-8.3-4.1-15.8-8.8-18.4-11.7
		c-0.7-0.7,0.3-1.8,1.1-1.3c2.8,1.7,5.8,4,9.7,5.3c3.5,1.1,7.1,1.4,10.8,1c1.8-0.2,2.9-2,2.2-3.6c-0.6-1.4-1.1-2.8-1.5-4.1
		c-0.8-2.3-1.7-5-2.1-7.4c-0.4-2.1-0.9-6.2-0.1-6.2c0,0,0,0,0,0c4.4,13.7,13.7,23.6,24,32.7c0,0,0,0,0,0c0.5,0.7,1.1,1.3,1.9,1.7
		c0.6,0.7,1.4,1.3,2.1,1.9c1.7,1.7,4.7,2.5,4.3,5.8c-0.1,1.8,0.6,3.6,1.7,5c0.4,1.5,2.2,2.1,2.3,4c0.4,8.9,2.5,17.5,4.9,26
		c1.8,5.6,2.9,11.4,3.3,17.3c0.1,5.5,0.9,10.9,2.3,16.2c1,3.5,0.2,6.9-1.1,10.2c-0.6,1.5-1.4,3-2,4.5c0.2,0.1,0.2,0.1,0.3,0.1
		c0.2,0,0.4,0,0.7-0.1c2.9-1,5.3-0.2,7.3,2.2c3.8,4.4,4.2,14,0.7,19.9c0.5-3.3,0.7-6.7,0.7-10c-0.1-2.8-1.4-5.3-3.7-7
		c-4.3-3.6-7.7-2.6-10.3,2.4c-2.3,4.7-3.8,9.7-4.5,14.9c-0.5,3.5-1.1,6.9-4.1,9.3c-0.8,0.8-1.3,1.9-1.3,3.1
		c-0.3,3.1,1.2,4.8,4.2,4.4c3.1-0.4,5.8-1.5,7.4-4.6c0.9-1.7,1.6-3.6,2.1-5.5c0.4-1.5,1-2.9,1.7-4.2c0.4-0.8,1.5-1.3,1.7-0.3
		c0.4,2.4,1.7,4.6,3.7,6c0.5,0.4,0.3,1.6,0.4,2.4c0.2,6.5-3.2,10.8-8.8,13.5c-3.7,1.8-3.9,2.4-2.3,6.3c0.3,0.8,0.7,1.4-0.2,2.1
		c-0.8,0.6-1,1.7-0.4,2.5c0,0.1,0.1,0.1,0.1,0.1c0.8,1.1,1.7,2.3,3.3,2c2.6-0.6,5.1-1.3,7.6-2c1-0.3,1.9-0.7,2.7-1.4c0,0,0,0,0,0
		c1.6-0.4,3-1.2,4.1-2.3c0,0,0,0,0,0c1.2,0.1,1.6-1,2.3-1.7c0.8-0.2,1.4-0.7,1.9-1.4c1.6-1.7,3.7-3.2,4.5-5.5c0,0,0,0,0,0
		c0.7-0.7,1.3-1.4,1.8-2.2c0,0,0,0,0,0c3.3-6.6,6.2-13.3,5.8-20.9c-0.5-8.7-1.2-17.4-1.9-26.1c-0.4-4.8-1.6-9.6-1-14.5
		c0.6-5.7,1.7-11.4,2.4-17.1s2.1-11.3,1.8-17.1c-0.1-2.6-1.7-5-4.2-5.9c-4.3-1.8-8.9-2.9-13.6-3.2c-4.2-0.4-8.3-0.4-12.5-0.7
		c0,0,0,0,0,0c2.7-1.4,5.6-2.2,8.6-2.5c6.9-0.6,13.8,0.5,20.2,3.1c1.7,0.7,2.5,0.2,3.1-1.3c1.1-2.6,1.8-5.3,2-8.1
		C407.2,221.4,405.4,215.7,403.6,209.9z"/>
</g>
<path class="st1" d="M244.2,79.1c0,0,2.4,8,8.6,12c6.2,4.1,11.1,5.7,13.3,8c2.3,2.3,6.5,12.2,17.4,13c10.9,0.8,15.3-6.7,15.3-6.7
	s12.9,1.1,17.4-2.3s5.2-5.7,6.8-9.9c1.6-4.2,5-13.5,5.4-16.6s0.3-4.4,1-6.4c0.7-1.9,2.3-3.6,2.8-5.5c0.5-2,0.2-4.5,0-5.1
	c-0.2-0.6-1.2-1.1-1-2.4c0.2-1.3,1.6-2.2,1.5-3.7s-2-3.7-2.6-6.2c-0.5-2.5-0.4-7.6-1-10.9c-0.6-3.3-2.3-17.6-14.5-26.2
	C302.4,1.7,294.3-1,276.1,1.6s-31,18.4-34.3,29.4s-2.5,22.5-2.2,24.9c0.3,2.4,1,5.7,0.9,7.2c-0.1,1.5-1.8,5-0.5,10.2
	S243.7,77.7,244.2,79.1z"/>
<path class="st1" d="M176.3,83.3c3.1-1.5,11.4-5.1,17.9-5.8c6.5-0.7,15.7-1,20.6-0.6c5,0.4,13.3,1.9,17.7,3.1s9.1,3.8,10.3,4.6
	c1.2,0.7,4,2.9,4.4,4.8s1.6,10.6,6.1,21.4c4.5,10.8,11.2,19,13.6,19c2.4,0,5.8-2.7,8.3-4.8s7.5-5.8,10.6-7.3s7.8-3.6,11.8-5.8
	c3.9-2.2,5-2.6,10.4-3.1c5.5-0.5,8.6-0.4,11.1-3.1c2.5-2.7,3.7-6.2,6.3-7.3s8.7-0.1,12.1,0c3.4,0.1,11.9,0.6,15.8,1.9
	c3.9,1.2,11.6,6,16.7,12.9c5.1,7,9.9,13.9,11.6,15.9c1.6,2,3.1,5.1,3.4,6.3c0.2,1.2,0.6,6.3,0.7,11.1c0.1,4.7-0.7,14.2-4.7,17.4
	s-10.8,9.6-18.4,13.2c-7.6,3.6-13.3,8-17.8,9.1c-4.5,1.1-8.8,4.8-11.1,8.3c-2.2,3.5-8.8,12.3-11.8,19.9c-3,7.6-9.8,30.2-11.9,37.6
	s-8.5,27.1-10.8,32.8c-2.4,5.7-1.1,6.7-4.3,8.7c-3.2,2-20.2,5-57.5-3.2s-45.3-21.7-44.9-23.4c0.3-1.7,1.8-2.3,4.8-3.2
	c3-0.8,18.2-2.3,21.1-11.8s5.2-20.1-0.7-31.8c-5.8-11.8-11.8-16.7-15.4-18.9c-3.6-2.2-6.8-5.5-7.3-8.6c-0.5-3.2-0.7-11.1-0.2-20.1
	s-8.1-8.3-17.6-19s-12.2-19.2-13.2-24c-1-4.8-1.1-14.7,2-25.5S172.1,85.3,176.3,83.3z"/>
<g class="st2">
	<path class="st0" d="M265.4,371.4c1.9-1,9.8-5,13.1-5.5s5.8-0.6,7.6,0s5.1,1.9,6.6,4.6s-0.1,4.7,1.4,6s3.1,1.6,3.3,2.6
		s0.2,2.1,0,2.9s-1.3,1.4-2.8,2s-2.6,1.4-2.6,2.1s-0.4,1,0.1,1.6s1.9,0.9,1.9,1.6s0.4,2.4-1.4,3s-2.7-0.1-3.7,0.6s-2.9,3.1-4.7,7.8
		s-2.4,9.6-2.4,11.9s0.4,1.7,0.4,1.7s2.9-0.1,3.1,2.1s0.2,3.3-0.8,3.9s-2.7,0.6-2.7,1s-0.4,1.5-0.1,2.1s2.1,0.5,2,1.6
		s0.2,1.8-0.5,2.4s-1.7,0.5-1.9,0.8s-0.3,2-1.4,4s-1.8,2.3-1.8,2.7s0.9,1.1,0.6,1.8s-0.4,1-0.9,1.2c-0.5,0.2-1.1,0.1-1.6,0.5
		c-0.5,0.3-0.8,1.3-2.1,2.9s-3.9,3.5-8.9,3.8s-9.2-0.1-11.8-4.1s-0.3-6.8,0.8-11.9c1.1-5.1,1.1-8.1,0.6-9.3
		c-0.5-1.2-5.3-2.7-7.2-4.3c-1.8-1.7-4.2-1.2,0.8-3.4c4.9-2.3,18.4-5.8,19.6-21.8C269.3,374.2,265.4,371.4,265.4,371.4z"/>
	<path class="st0" d="M4.7,555.9c3.6,3.2,9.4,7.8,21.3,6.9c11.9-0.9,15.1-4.4,18.6-8.2s9.5-14.3,12.5-17.7s7.8-7,7.8-7
		s-7.5-8.1-10.6-14.3s-3.8-7.9-4.8-8s-2.2,0.9-5.3,1.5c-3.2,0.6-5.7,4.7-8.7,6.7s-6.2,2.8-7.4,3.3s-3.8,4.8-4.8,6.8
		s-2.7,5.8-5.8,8.1s-7.3,1.2-11.7,3.3c-4.4,2.1-6.9,4.3-6.9,8.5S1.9,553.5,4.7,555.9z"/>
</g>
</svg>
