<?xml version="1.0" encoding="utf-8"?>
<!-- Generator: Adobe Illustrator 26.2.1, SVG Export Plug-In . SVG Version: 6.00 Build 0)  -->
<svg version="1.1" id="Group_4653" xmlns="http://www.w3.org/2000/svg" xmlns:xlink="http://www.w3.org/1999/xlink" x="0px" y="0px"
	 viewBox="0 0 35.2 39.9" style="enable-background:new 0 0 35.2 39.9;" xml:space="preserve">
<style type="text/css">
	.st0{fill:#013369;}
</style>
<g id="Group_4652">
	<path id="Path_6985" class="st0" d="M17.1,38.1c-1-0.9-1.8-2.1-2.3-3.3c-1.3-3.1-3.2-5.8-5.5-8.1c-2.4-2.3-2.7-5.2-0.3-7.5
		c5.2-5,7-11.8,9.7-18c0.3-0.6,0.4-1.3,1.2-1c0.8,0.2,0.7,1,0.5,1.5c-0.7,2-1.5,4-2.4,6c-1,2.3-2.1,4.6-3.2,6.9
		c-0.3,0.4-0.2,1,0.2,1.4c1.3,1.4,2.2,3,2.8,4.7c0.2,0.6,0.5,1.3-0.4,1.6c-0.8,0.2-1-0.4-1.2-1c-0.5-1.4-1.2-2.7-2.2-3.9
		c-0.4-0.4-0.5-0.4-0.9,0c-0.8,0.9-1.7,1.8-2.6,2.7c-1.9,2-1.9,3.8,0.2,5.7c2.5,2.4,4.5,5.4,5.8,8.7c0.9,2.4,3.2,4,5.8,3.8
		c2.5,0,5,0,7.5,0c0.7,0,1.3-0.1,1.4-0.9s-0.4-1.1-1-1.3c-2.1-0.8-4.2-1.6-6.3-2.1c-0.5-0.1-1-0.2-1.1-0.8c-0.1-0.5,0.2-0.8,0.8-1
		c0.5-0.1,0.2-0.5,0.1-0.7c-0.5-2.1-1-4.3-1.5-6.4c-0.5-1.8-0.2-3.6,0.8-5.2c3.2-5.5,6.4-11.1,9.4-16.8c0.4-0.7,0.7-1.4,1.1-2.2
		c0.3-0.6,0.6-1,1.3-0.7C35.3,0.4,35.2,1,35,1.5c-1.1,2.5-2.5,4.9-3.8,7.2c-2.3,4-4.5,8-6.8,12c-0.7,1.1-0.9,2.4-0.5,3.6
		c0.6,2.2,1.2,4.5,1.6,6.7c0.2,0.9,0.8,1.7,1.7,2c1.2,0.4,2.4,0.9,3.7,1.4c1.5,0.4,2.4,1.8,2.1,3.3c-0.3,1.4-1.6,2.4-3,2.3
		c-2.7,0-5.3,0-8,0H1.8c-0.3,0-0.6,0-0.9,0C0.4,39.8,0,39.6,0,39c0-0.5,0.3-0.9,0.8-0.9c0,0,0,0,0.1,0c0.3,0,0.6,0,0.9,0L17.1,38.1"
		/>
</g>
</svg>
