<svg xmlns="http://www.w3.org/2000/svg" width="20.15" height="20.15" viewBox="0 0 20.15 20.15">
  <g id="Group_4250" data-name="Group 4250" transform="translate(-143.982 -195)">
    <path id="Path_6641" data-name="Path 6641" d="M152.747,198.731a12.969,12.969,0,0,1,5.411-.082,10.643,10.643,0,0,1,3.68,1.624c.833.585,1.127.871.5,1.763-.445.636-.918,1.255-1.383,1.876a20.225,20.225,0,0,1-1.364,1.772c-.616.652-1.06.014-1.689-.275a5,5,0,0,0-4.351.028c-.55.25-1.021.8-1.591.42a7.258,7.258,0,0,1-1.351-1.676c-.494-.679-1.014-1.334-1.514-2.008-.242-.325-.685-.809-.531-1.235.2-.565,1.369-1.066,1.866-1.328A12.673,12.673,0,0,1,152.747,198.731Zm2.913.913c-2.575,0-5.427,1.411-5.5,1.806-.048.273.9,1.2,1.071,1.438.307.441.868,1.555,1.381,1.468a8.114,8.114,0,0,0,.87-.394,5.665,5.665,0,0,1,.883-.274c.6-.109.643-.156.644-.813,0-.6-.2-1.7.671-1.619.848.077.618,1.2.622,1.774,0,.619.062.676.7.762.4.055,1.36.505,1.591.523.55.044,1.941-2.1,2.267-2.553.242-.333.3-.318.081-.622a3.311,3.311,0,0,0-1.058-.558A8.408,8.408,0,0,0,155.661,199.644Z" transform="translate(-1.594 -1.19)" fill="#013369"/>
    <g id="Group_4249" data-name="Group 4249" transform="translate(143.982 195)">
      <path id="Path_6642" data-name="Path 6642" d="M161.735,215.15H146.379a2.4,2.4,0,0,1-2.4-2.4V197.4a2.4,2.4,0,0,1,2.4-2.4h15.357a2.4,2.4,0,0,1,2.4,2.4v15.357A2.4,2.4,0,0,1,161.735,215.15ZM146.379,196.3a1.1,1.1,0,0,0-1.1,1.1v15.357a1.1,1.1,0,0,0,1.1,1.1h15.357a1.1,1.1,0,0,0,1.1-1.1V197.4a1.1,1.1,0,0,0-1.1-1.1Z" transform="translate(-143.982 -195)" fill="#013369"/>
    </g>
  </g>
</svg>
