<?xml version="1.0" encoding="utf-8"?>
<!-- Generator: Adobe Illustrator 22.0.0, SVG Export Plug-In . SVG Version: 6.00 Build 0)  -->
<svg version="1.1" id="Layer_1" xmlns="http://www.w3.org/2000/svg" xmlns:xlink="http://www.w3.org/1999/xlink" x="0px" y="0px"
	 viewBox="0 0 42.5 42.5" style="enable-background:new 0 0 42.5 42.5;" xml:space="preserve">
<style type="text/css">
	.st0{fill:#013369;}
	.st1{fill:#1DAB35;}
	.st2{fill:#FFFFFF;}
</style>
<path id="Path_4140" class="st0" d="M41.5,24.3c-0.7-1.2-1.8-2.1-3.2-2.4c-0.7-0.2-1.4-0.4-2.2-0.5c-0.4-0.1-0.8-0.2-1.2-0.2
	c-4.3-1-8.4-2.9-11.9-5.5c-1.1-0.7-2-1.6-2.7-2.7c-0.4-0.5-0.9-1-1.4-1.4c-0.2-0.2-0.3-0.3-0.5-0.5c-0.5-0.7-1-1.4-1.6-2.1
	c-0.3-0.4-0.8-0.5-1.2-0.5C15,8.7,14.6,9,14.4,9.5c-0.1,0.2-0.2,0.5-0.3,0.8c-0.1,0.2-0.1,0.4-0.2,0.6c-0.1,0.1-0.1,0.3-0.3,0.3
	c-0.8,0.3-1.5,0.5-2.3,0.8c-0.4,0.1-0.8,0.3-1.2,0.4c-1,0.4-2.2,0.6-3.3,0.5c-0.3,0-0.5,0-0.8,0H5.9c-0.9,0-1.7,0.7-1.8,1.6
	C4,15.2,3.7,16,3.5,16.8l-0.2,0.7c-0.1,0.4-0.2,0.7-0.3,1c-0.2,0.8-0.4,1.5-0.6,2.3c-0.1,1.2-0.4,2.3-0.8,3.4
	c-0.2,0.5-0.3,1.1-0.3,1.7c0,0.5,0.1,0.9,0.3,1.3C1.9,27.6,2,28,2,28.4c0,0.4,0.1,0.8,0.1,1.2v0c0,0.2,0.1,0.4,0.2,0.6
	c0.1,0.2,0.3,0.2,0.5,0.3c0.2,0,0.3,0.1,0.5,0.1c0.4,0.1,0.8,0.1,1.2,0.2c0.3,0,0.6-0.2,0.7-0.4c0.1-0.2,0.2-0.4,0.3-0.6
	c0.1-0.2,0.2-0.3,0.3-0.5C5.9,29.1,6,29,6.1,29c0.4,0,0.8,0,1.2,0.1c0.5,0,1.1,0.1,1.7,0.1c0.1,0,0.2,0,0.3,0.1
	c0.1,0.1,0.2,0.2,0.2,0.4c0.1,0.2,0.1,0.4,0.2,0.6c0.2,0.8,0.3,0.9,1,0.9c0.1,0,0.3,0,0.4,0c0.1,0,0.3,0,0.4,0c0.2,0,0.4,0,0.5,0
	c0,0,0.1,0,0.1,0h0c0.4,0,0.7-0.3,0.8-0.7c0.1-0.5,0.2-0.9,0.3-1.4c0-0.1,0.1-0.2,0.2-0.3c2.1-0.5,4.3-0.5,6.4,0.1
	c0.3,0.1,0.3,0.1,0.3,0.3c0.1,1.3,0.2,1.4,1.3,1.7l0.1,0c0,0,0.1,0,0.1,0.1c0.5,0.2,1.1-0.1,1.3-0.6c0.5-0.8,0.5-0.8,1.4-0.7l0.1,0
	h0c0.3,0,0.3,0,0.4,0.4c0.1,1.2,0.2,1.4,1.4,1.5l0.3,0.1c0.2,0,0.4,0.1,0.6,0.1c0.4,0,0.6-0.2,0.8-0.8c0-0.1,0.1-0.3,0.2-0.4
	c0.2-0.5,0.4-0.6,0.8-0.6c0.2,0,0.4,0,0.6,0c0.2,0,0.4,0,0.6,0c0.2,0.2,0.3,0.5,0.3,0.7c0,0.1,0.1,0.2,0.1,0.3
	c0.1,0.4,0.5,0.7,0.9,0.7c0.4,0,0.9,0,1.4,0l0.1,0c0.2,0,0.4-0.1,0.5-0.2c0.1-0.1,0.2-0.3,0.2-0.5c0.1-0.3,0.1-0.6,0.2-1l0.1-0.3
	c0.4-0.1,0.8-0.1,1.2-0.2c0.2-0.1,0.4-0.1,0.4,0c0.1,0.1,0.1,0.2,0.2,0.4c0,0.5,0.5,1,1.1,0.9c0.1,0,0.2,0,0.2,0
	c0.3-0.1,0.6-0.1,0.8-0.1c0.9-0.1,1-0.2,1.2-1.2c0-0.2,0.1-0.4,0.1-0.7c0.1-0.2,0.2-0.3,0.3-0.4c0.2-0.1,0.4-0.3,0.6-0.4
	c0.3-0.2,0.5-0.3,0.8-0.5C41.8,26.6,42.1,25.3,41.5,24.3z M37.8,28.9c0,0.4-0.2,0.4-0.8,0.4L37,29.1L37.8,28.9z M32.7,29.8l-0.1,0.5
	c-0.2,0.1-0.5,0.1-0.8,0c-0.1-0.1-0.2-0.3-0.2-0.4L32.7,29.8z M21.6,29.5c0-0.1-0.1-0.2-0.1-0.3l0.5,0.1c-0.1,0.1-0.2,0.2-0.3,0.2
	C21.7,29.5,21.7,29.5,21.6,29.5L21.6,29.5z M11.8,29.8c-0.7,0.1-0.8,0.1-1-0.6L12,29C12,29.3,11.9,29.5,11.8,29.8L11.8,29.8z
	 M15.2,10.7c0.1-0.4,0.2-0.7,0.5-0.8c0.3-0.1,0.4,0.1,0.7,0.5c0.1,0.1,0.1,0.2,0.2,0.2c0,0,0,0.1,0.1,0.1H15.2z M7.5,24.8
	c-1.1-0.4-2.1-1-3.1-1.5l-0.7-0.4c0,0-0.1-0.1-0.2-0.1c0.2-1.2,0.4-2.4,0.7-3.5l0,0c1.2,2.4,3,4.5,5.4,5.9C8.8,25.1,8.1,25,7.5,24.8
	z M11.7,26.4c3.9,0,7.8,0.5,11.6,1.4c4.3,0.9,8.7,0.9,12.9,0c0.6-0.1,1.2-0.3,1.7-0.6c1.1-0.3,1.9-1.1,2.3-2.1
	c0.1,0.2,0.1,0.4,0.1,0.6c-0.1,0.4-0.3,0.6-0.6,0.8c-1.2,0.7-2.5,1.2-3.9,1.4c-3.2,0.7-6.5,0.9-9.7,0.5c-2-0.2-4-0.5-6-1
	c-2.3-0.5-4.8-0.5-7.1,0c-2.9,0.6-5.9,0.6-8.8-0.1C2.5,27,2.5,26.6,2.8,25c0.1-0.3,0.2-0.6,0.2-0.8c0.1,0,0.1,0.1,0.2,0.1
	c1.6,1.1,3.4,1.8,5.2,2.1C9.5,26.4,10.6,26.4,11.7,26.4z M37.1,22.8c0.5,0.2,1.1,0.3,1.6,0.6c0.1,0,0.2,0.1,0.3,0.2
	c0.4,0.4,0.5,1.1,0.1,1.5c-0.3,0.3-0.7,0.6-1.1,0.7c-1.5,0.7-3.2,1.1-4.9,1.1c-2,0.2-4,0.2-6,0c-2.2-0.3-4.3-0.6-6.5-1.1
	c-1.9-0.4-3.9-0.6-5.9-0.7c-3.5,0-6.2-1.7-8.6-5.2c0,0,0-0.1-0.1-0.1c0-0.1-0.1-0.1-0.1-0.2c-1.1-1.6-1.3-2.8-0.7-4.1
	c0.1-0.2,0.1-0.5,0.2-0.7C5.5,14.2,5.6,14,6,14c0.1,0,0.3,0,0.4,0c1.6,0.1,3.1-0.1,4.6-0.7c0,0.1,0,0.1,0,0.2
	c-0.1,0.4-0.1,0.8-0.2,1.3c-0.1,0.6-0.1,1.3-0.1,2c0,0.8,0.3,1.5,0.9,2c1.1,1,2.5,1.7,4,1.9c1.7,0.3,3.4,0.7,5.1,1
	c3.4,0.7,6.9,1.4,10.3,2.1c1.3,0.2,2.6,0.3,3.9,0.3c0.9,0.1,1.7-0.6,1.8-1.5C36.8,22.7,36.9,22.8,37.1,22.8L37.1,22.8z M15.9,12
	c0.1,0,0.2-0.1,0.3-0.1c0.3,0,0.6,0.1,0.7,0.3c-0.1,0-0.2,0-0.2,0c-0.5-0.1-1.1,0.2-1.2,0.7c-0.2,0.5,0.1,1,0.6,1.2
	c0.2,0.1,0.5,0.1,0.8,0c0.3-0.1,0.5-0.3,0.6-0.5c0.1-0.1,0.1-0.2,0.3-0.3c0.2-0.2,0.5-0.3,0.8-0.2c0.3,0,0.5,0.2,0.7,0.4
	c0.1,0.1,0.1,0.2,0.2,0.3l-0.1,0C19,13.9,18.7,14,18.4,14c-0.5,0-0.9,0.4-1,0.9c-0.1,0.5,0.2,1,0.7,1.2c0.5,0.2,1,0,1.3-0.5
	c0-0.1,0.1-0.1,0.1-0.2c0-0.1,0-0.1,0.1-0.2c0.4-0.3,0.5-0.3,0.9,0c0.1,0.1,0.2,0.2,0.4,0.4c-0.3,0.1-0.5,0.2-0.7,0.2
	c-0.5,0-0.9,0.4-0.9,0.9c-0.1,0.5,0.2,1,0.7,1.2c0.5,0.2,1,0,1.2-0.5c0.2-0.3,0.4-0.5,0.6-0.8l0.1-0.2l0.9,0.7
	c-0.1,0.2-0.4,0.3-0.6,0.3h0l-0.1,0c-0.5,0.1-0.8,0.5-0.8,1c0,0.5,0.3,1,0.8,1c0.5,0.1,1-0.2,1.2-0.6c0.1-0.3,0.3-0.6,0.5-0.8
	l0.1-0.1l1.1,0.7c-0.1,0.2-0.2,0.3-0.4,0.3h0h-0.1c-0.5,0-0.9,0.4-0.9,0.9c-0.1,0.5,0.3,1,0.8,1.1c0.5,0.1,1-0.1,1.2-0.6l0.5-1.1
	l0.1,0.1c0.3,0.2,0.6,0.3,0.9,0.5c0,0,0,0.1,0,0.1c0,0-0.1,0.1-0.1,0.1c-0.7,0.1-1.1,0.6-1,1.1c0,0.5,0.4,0.9,0.9,1
	c0.6,0.1,1-0.3,1.2-0.9c0.1-0.2,0.1-0.4,0.2-0.6l1.2,0.4c1.2,0.4,2.5,0.9,3.7,1.3c0.4,0.1,0.7,0.2,1.1,0.3c0.3,0.1,0.5,0.1,0.8,0.2
	c0.1,0,0.1,0.1,0.2,0.1c0,0.1-0.1,0.1-0.1,0.1c-0.8,0.1-1.7,0.1-2.6,0.1c-5-0.7-10.1-1.9-15-2.9c-1-0.2-1.9-0.4-2.9-0.6
	c-0.3-0.1-0.6-0.2-0.9-0.3c-1.6-0.8-2-1.6-1.8-3.6c0.1-0.7,0.2-1.4,0.4-2.1l0-0.1c0-0.1,0-0.1,0.1-0.2l0.4-0.1
	C13.9,12.5,14.9,12.2,15.9,12z M4.6,28.8c-0.2,0.5-0.3,0.6-1.1,0.4l-0.1-0.7L4.6,28.8z M27,29.8c-0.1,0.1-0.1,0.2-0.2,0.4l0,0.1
	c-0.2,0-0.4,0-0.5-0.1c-0.1-0.1-0.1-0.3-0.1-0.5L27,29.8z"/>
<g id="Group_2845" transform="translate(35.698 20.163)">
	<g id="Group_2843">
		<g id="Group_2841">
			<ellipse id="Ellipse_365" class="st1" cx="-1.4" cy="13.9" rx="7.5" ry="7.5"/>
		</g>
		<g id="Group_2842" transform="translate(2.843 6.352)">
			<path id="Path_4136" class="st2" d="M0,8.3c-0.2,0.2-0.4,0.3-0.7,0.3h-7.2c-0.5,0-1-0.4-1-1c0-0.5,0.4-1,1-1l0,0h7.2
				c0.5,0,1,0.4,1,1C0.3,7.8,0.2,8.1,0,8.3L0,8.3z"/>
		</g>
	</g>
	<g id="Group_2844" transform="translate(6.351 2.843)">
		<path id="Path_4137" class="st2" d="M-7,6.8C-6.9,7-6.8,7.2-6.8,7.5v7.2c0,0.5-0.4,1-1,1c-0.5,0-1-0.4-1-1V7.5c0-0.5,0.4-1,1-1
			C-7.5,6.5-7.2,6.6-7,6.8z"/>
	</g>
</g>
</svg>
