<?xml version="1.0" encoding="utf-8"?>
<!-- Generator: Adobe Illustrator 22.0.0, SVG Export Plug-In . SVG Version: 6.00 Build 0)  -->
<svg version="1.1" id="Layer_1" xmlns="http://www.w3.org/2000/svg" xmlns:xlink="http://www.w3.org/1999/xlink" x="0px" y="0px"
	 viewBox="0 0 42.5 42.5" style="enable-background:new 0 0 42.5 42.5;" xml:space="preserve">
<style type="text/css">
	.st0{fill:#013369;}
	.st1{fill:#FF3D00;}
	.st2{fill:#FFFFFF;}
</style>
<path class="st0" d="M41.7,20.3c-0.8-1.4-2-2.4-3.4-2.7c-0.7-0.2-1.4-0.4-2.2-0.5c-0.4-0.1-0.8-0.2-1.2-0.2
	c-4.3-1.1-8.4-3.1-11.9-5.9c-1.1-0.7-2-1.7-2.7-2.8C20,7.5,19.5,7,19,6.6L18.5,6c-0.5-0.7-1-1.5-1.6-2.3c-0.3-0.4-0.8-0.6-1.4-0.6
	l-0.1,0c-0.7,0.3-1.1,0.6-1.3,1.2c-0.1,0.2-0.2,0.6-0.3,0.9c-0.1,0.1-0.1,0.3-0.1,0.4c0,0.1,0,0.2-0.1,0.2c0,0.1-0.1,0.1-0.1,0.2
	c0,0,0,0,0,0l-0.1,0c-0.4,0.2-0.8,0.3-1.1,0.4c-0.4,0.1-0.8,0.3-1.1,0.4c-0.2,0.1-0.4,0.1-0.6,0.2c-0.2,0.1-0.4,0.2-0.6,0.2
	C8.9,7.8,7.7,8,6.7,7.9H5.8c-1,0-1.9,0.9-2.1,1.9c-0.1,0.5-0.2,1-0.3,1.5c-0.1,0.3-0.2,0.6-0.2,0.9L2.9,13c-0.1,0.4-0.2,0.7-0.3,1.1
	c-0.1,0.4-0.2,0.8-0.3,1.2c-0.1,0.4-0.2,0.8-0.3,1.3c-0.1,1.1-0.3,2.3-0.8,3.6c-0.2,0.6-0.3,1.2-0.3,1.9c0,0.6,0.1,1,0.3,1.5
	c0.2,0.3,0.4,0.7,0.4,1.1c0,0.2,0,0.4,0.1,0.7c0,0.2,0,0.4,0,0.6c0,0.3,0.1,0.5,0.2,0.8c0.1,0.2,0.3,0.3,0.5,0.4c0,0,0.1,0,0.1,0.1
	l0.1,0c0.1,0,0.1,0,0.2,0c0.1,0,0.2,0.1,0.3,0.1c0.2,0.1,0.4,0.1,0.6,0.1c0.2,0,0.4,0,0.6,0.1l0.1,0c0.4,0,0.8-0.2,0.9-0.6l0.3-0.6
	c0-0.1,0.1-0.2,0.1-0.2c0.1-0.1,0.1-0.2,0.2-0.3C6,25.8,6,25.7,6,25.7c0.4,0,0.8,0,1.1,0.1l0.1,0c0.2,0,0.5,0,0.8,0
	c0.3,0,0.6,0.1,1,0.1c0.1,0,0.1,0,0.1,0c0.1,0.1,0.1,0.1,0.1,0.3l0,0.1c0,0.1,0.1,0.2,0.1,0.3c0,0.1,0.1,0.2,0.1,0.3
	c0.2,0.9,0.4,1.2,1.2,1.2H12c0.5,0,0.9-0.4,1-1c0.1-0.3,0.1-0.5,0.2-0.8c0.1-0.2,0.1-0.5,0.2-0.8c0,0,0-0.1,0.1-0.1
	c2.1-0.5,4.3-0.5,6.2,0.1c0,0,0.1,0,0.1,0.1v0.1c0.1,1.5,0.3,1.7,1.5,2.1l0.2,0.1c0.3,0.1,0.6,0.1,0.9,0c0.3-0.1,0.6-0.4,0.7-0.7
	c0.4-0.7,0.4-0.7,1.2-0.6h0.1c0,0,0.1,0,0.1,0c0,0.1,0,0.1,0.1,0.2c0.1,1.4,0.3,1.7,1.6,1.8l0.3,0.1l0.1,0c0.1,0,0.2,0,0.2,0
	c0.1,0,0.2,0.1,0.4,0.1c0.6,0,0.8-0.4,1-1l0-0.1c0-0.1,0.1-0.2,0.1-0.3l0.1-0.1c0.2-0.5,0.3-0.5,0.6-0.5H30c0.1,0.2,0.2,0.4,0.2,0.5
	c0,0.1,0,0.2,0.1,0.3c0,0,0,0.1,0,0.1c0.1,0.5,0.6,0.9,1.1,0.9h1.5c0.3,0,0.5-0.1,0.7-0.3c0.1-0.1,0.3-0.4,0.3-0.7
	c0.1-0.2,0.1-0.4,0.1-0.5c0-0.2,0-0.3,0.1-0.5l0.1-0.2c0.1,0,0.3-0.1,0.4-0.1c0.2,0,0.4-0.1,0.7-0.1c0,0,0.1,0,0.1,0
	c0,0,0,0.1,0.1,0.1c0,0.1,0,0.1,0.1,0.2c0,0.3,0.2,0.7,0.5,0.9c0.3,0.2,0.6,0.3,0.9,0.3H37l0.1,0c0.3-0.1,0.5-0.1,0.7-0.1
	c1-0.1,1.2-0.3,1.4-1.5c0-0.1,0-0.2,0-0.2c0-0.1,0.1-0.3,0.1-0.4c0.1-0.1,0.1-0.2,0.2-0.3c0.1-0.1,0.2-0.1,0.3-0.2
	c0.1-0.1,0.2-0.1,0.3-0.2c0.1-0.1,0.3-0.2,0.4-0.3c0.1-0.1,0.3-0.2,0.4-0.3C42.1,23,42.4,21.4,41.7,20.3z M21.6,12.7
	c0.1-0.1,0.2-0.2,0.3-0.4l0.5,0.4c-0.1,0-0.2,0.1-0.2,0.1l-0.2,0c-0.2,0.1-0.4,0.2-0.6,0.3C21.5,12.9,21.6,12.8,21.6,12.7z
	 M19.5,11.2L19.5,11.2L19.5,11.2c0.1-0.1,0.1-0.2,0.1-0.3c0,0,0,0,0,0c0.3-0.2,0.3-0.2,0.6,0l0.1,0.2c-0.1,0-0.2,0.1-0.3,0.1
	C19.9,11,19.7,11.1,19.5,11.2C19.5,11.2,19.5,11.2,19.5,11.2z M15.7,5.1c0.1,0,0.1,0,0.3,0.3l0,0.1h-0.6C15.5,5.3,15.6,5.2,15.7,5.1
	z M12.1,11.2c0.1-0.7,0.2-1.5,0.4-2.2l0,0l0-0.1c0,0,0,0,0,0l0.3-0.1l0.1,0c0.9-0.7,1.8-1,2.5-1.2c-0.2,0.2-0.3,0.4-0.3,0.5
	c-0.2,0.6,0.1,1.3,0.7,1.6c0.3,0.1,0.6,0.1,1,0c0.3-0.1,0.6-0.3,0.7-0.6c0,0,0.1-0.1,0.1-0.1c0-0.1,0.1-0.1,0.1-0.1l0.1,0
	c0.1-0.2,0.4-0.2,0.5-0.1l0.1,0c0.2,0,0.3,0.1,0.5,0.3l0,0c-0.3,0.1-0.5,0.1-0.7,0.1c-0.6,0-1.1,0.5-1.3,1.2
	c-0.1,0.6,0.2,1.3,0.9,1.6c0.4,0.2,0.8,0.1,1.2-0.1C19,11.8,19,12,19,12.2c-0.1,0.6,0.2,1.3,0.9,1.6c0.3,0.1,0.6,0.1,0.9,0
	c0.1-0.1,0.2-0.1,0.3-0.2C21,13.7,21,13.9,21,14.1c0,0.6,0.4,1.3,1,1.3h0c0.6,0.1,1.2-0.2,1.5-0.8c0.1-0.2,0.2-0.5,0.4-0.7l0.7,0.5
	c0,0,0,0-0.1,0h-0.1c-0.6,0-1.2,0.5-1.2,1.2c-0.1,0.6,0.3,1.3,1,1.5c0.7,0.1,1.3-0.2,1.5-0.8l0.4-0.9c0.1,0.1,0.2,0.1,0.3,0.2
	c0.1,0,1.2,0.8,1.7,1c0.6,0.3,1.2,0.5,1.2,0.5c0.6,0.2,1.2,0.5,1.9,0.7c0.6,0.2,1.3,0.5,1.9,0.7c0.2,0.1,0.4,0.1,0.5,0.2
	c0.2,0.1,0.4,0.1,0.5,0.2c0,0,0,0,0.1,0c-0.5,0-1.1,0-1.7,0c-1.6-0.2-4.4-0.8-4.8-0.9c-0.4-0.1-1.5-0.3-1.9-0.4
	c-0.4-0.1-3.1-0.7-4.6-1c-1.2-0.3-2.5-0.6-3.7-0.8c-0.5-0.1-1-0.2-1.5-0.3c-0.5-0.1-1-0.2-1.4-0.3l-0.9-0.3
	C12.3,14,12,13.2,12.1,11.2z M4.1,15.8c1.1,2.1,2.6,3.9,4.3,5.2c-0.4-0.1-0.7-0.1-1-0.3c-0.8-0.3-1.5-0.7-2.2-1.1
	c-0.3-0.2-0.6-0.3-0.8-0.5l-0.7-0.4c0,0,0,0-0.1-0.1C3.8,17.7,3.9,16.7,4.1,15.8z M12.8,23.5c-3,0.7-5.9,0.6-8.7-0.1
	c-1.5-0.3-1.5-0.5-1.2-2.2C2.9,21,3,20.9,3,20.7c1.6,1.1,3.3,1.9,5.2,2.2h3.3c1.3,0,2.7,0.1,4.1,0.2C14.7,23.1,13.8,23.3,12.8,23.5z
	 M38.9,21.1c-0.3,0.4-0.7,0.6-1,0.7c-1.5,0.8-3.2,1.2-4.8,1.2c-2,0.2-4,0.2-6,0c-2.3-0.3-4.3-0.7-6.5-1.2c-1.7-0.4-3.7-0.6-6-0.8
	c-3.3,0-6-1.7-8.4-5.4c0-0.1-0.1-0.2-0.1-0.2c0,0,0-0.1-0.1-0.1l0-0.1c-1.1-1.6-1.3-2.9-0.7-4.2c0.1-0.1,0.1-0.3,0.1-0.4
	c0-0.1,0-0.2,0.1-0.3l0-0.1c0.1-0.6,0.2-0.6,0.4-0.6l0.4,0c1.6,0.1,3-0.1,4.3-0.6c0,0.2,0,0.3-0.1,0.5c0,0.2,0,0.4-0.1,0.7
	c-0.1,0.7-0.1,1.4-0.1,2.2c0,1,0.3,1.8,1,2.3c1.2,1.1,2.7,1.9,4.1,2.1c0.9,0.2,1.7,0.3,2.6,0.5c0.9,0.2,1.7,0.4,2.6,0.5
	c1.7,0.4,3.4,0.8,5.2,1.1c1.7,0.4,3.5,0.8,5.2,1.1c1.3,0.2,2.6,0.3,3.9,0.3c0.5,0.1,0.9-0.1,1.3-0.4c0.3-0.3,0.6-0.6,0.7-1
	c0.1,0,0.1,0,0.2,0c0.2,0.1,0.4,0.1,0.6,0.2c0.3,0.1,0.7,0.2,1,0.4l0,0h0.1c0,0,0.1,0.1,0.1,0.1C39.1,20.1,39.2,20.8,38.9,21.1z"/>
<path d="M32.3,31L32.3,31c-0.1,0.1-0.3,0.1-0.4,0L32.3,31z"/>
<path d="M26.5,30.9C26.5,31,26.5,31,26.5,30.9C26.4,31,26.4,31,26.4,31c0,0,0,0,0-0.1L26.5,30.9z"/>
<g>
	<path class="st1" d="M38.3,28.4H23.7c-0.4,0-0.7,0.1-1,0.4L18,32.9c-0.7,0.6-0.7,1.7,0,2.3l4.7,4.1c0.3,0.2,0.6,0.4,1,0.4h14.6
		c0.9,0,1.6-0.7,1.6-1.6V30C39.8,29.1,39.1,28.4,38.3,28.4z"/>
	<g>
		<path class="st2" d="M34.3,38.9c-0.3,0-0.6-0.1-0.8-0.3l-7.1-7.1c-0.4-0.4-0.4-1.2,0-1.6s1.2-0.4,1.6,0l7.1,7.1
			c0.4,0.4,0.4,1.2,0,1.6C34.9,38.8,34.6,38.9,34.3,38.9z"/>
	</g>
</g>
</svg>
