<?xml version="1.0" encoding="utf-8"?>
<!-- Generator: Adobe Illustrator 24.0.2, SVG Export Plug-In . SVG Version: 6.00 Build 0)  -->
<svg version="1.1" id="line" xmlns="http://www.w3.org/2000/svg" xmlns:xlink="http://www.w3.org/1999/xlink" x="0px" y="0px"
	 viewBox="0 0 330 313" style="enable-background:new 0 0 330 313;" xml:space="preserve">
<style type="text/css">
	.st0{fill:#013369;}
</style>
<title>icon-07</title>
<path class="st0" d="M51.8,289.1c2.3-0.2,6.8,0.2,12.6,0.7c32.2,2.9,107.5,9.6,177.5-52l0,0c69.7-61.5,72.5-137.6,73.7-170.1
	c0.2-5.6,0.4-10,0.9-12.2l0.1-0.4c1-18.1-12.7-33.6-30.8-34.8l-0.4,0c-2.3,0.2-6.8-0.2-12.6-0.7c-32.2-2.9-107.6-9.7-177.4,52l0,0
	c-69.7,61.5-72.5,137.6-73.6,170.1c-0.2,5.6-0.4,10-0.8,12.1l-0.1,0.4c-1.1,18.1,12.7,33.7,30.8,34.8L51.8,289.1z M132.8,263.4
	l-76.6-86.8c20.8-67.9,78-118.4,148-130.6l76.6,86.8C260,200.7,202.8,251.2,132.8,263.4z M289.7,77.6c-0.6,10.7-1,17-2,24.8
	L235.2,43c7.9-0.1,14.3,0.3,25.3,1.1c6.1,0.4,13.7,0.9,23.6,1.5c4.2,0.3,7.4,3.9,7.1,8.1l0,0C290.5,63.7,290.1,71.4,289.7,77.6
	L289.7,77.6z M49.4,207l52.5,59.4c-7.9,0.1-14.3-0.3-25.3-1.1c-6.1-0.4-13.7-0.9-23.6-1.5c-4.2-0.3-7.4-3.9-7.1-8.1
	c0.7-9.8,1.1-17.3,1.5-23.3C47.9,221.8,48.3,215,49.4,207L49.4,207z"/>
<path class="st0" d="M198,169.3l-11.7-13.4l11.5-10l11.7,13.4c4.6,5.2,12.6,5.8,17.8,1.2c5.2-4.6,5.8-12.5,1.2-17.8l-11.7-13.4
	l5.7-5c5.3-4.6,5.8-12.6,1.2-17.8c-4.6-5.3-12.6-5.8-17.8-1.2c0,0,0,0,0,0l-5.7,5l-11.7-13.4c-4.6-5.2-12.6-5.8-17.8-1.2
	c-5.2,4.6-5.8,12.5-1.2,17.8l11.7,13.4l-11.5,10L158,123.5c-4.6-5.2-12.6-5.8-17.8-1.2c-5.2,4.6-5.8,12.6-1.2,17.8l11.7,13.4
	l-11.5,10l-11.7-13.4c-4.6-5.2-12.6-5.8-17.8-1.2c-5.2,4.6-5.8,12.6-1.2,17.8l11.7,13.4l-5.7,5c-5.2,4.6-5.8,12.6-1.2,17.8
	c4.6,5.2,12.5,5.8,17.8,1.2l5.7-5l11.7,13.4c4.6,5.2,12.6,5.8,17.8,1.2s5.8-12.6,1.2-17.8l-11.7-13.4l11.5-10l11.7,13.4
	c4.6,5.2,12.6,5.8,17.8,1.2C202,182.5,202.6,174.5,198,169.3L198,169.3z"/>
</svg>
