<?xml version="1.0" encoding="utf-8"?>
<!-- Generator: Adobe Illustrator 22.0.0, SVG Export Plug-In . SVG Version: 6.00 Build 0)  -->
<svg version="1.1" id="line" xmlns="http://www.w3.org/2000/svg" xmlns:xlink="http://www.w3.org/1999/xlink" x="0px" y="0px"
	 viewBox="0 0 330 313" style="enable-background:new 0 0 330 313;" xml:space="preserve">
<style type="text/css">
	.st0{fill:#013369;}
	.st1{fill:#FF3D00;}
	.st2{fill:#FFFFFF;}
</style>
<title>icon-07</title>
<g>
	<path class="st0" d="M51.2,266.2c2.1-0.2,6.2,0.2,11.5,0.6c29.3,2.6,98,8.7,161.8-47.4l0,0c63.5-56.1,66.1-125.4,67.2-155
		c0.2-33.5-9.1-39.7-39-43.8C223.3,17.9,154.6,11.7,91,68l0,0C27.4,124,24.9,193.4,23.9,223c-0.2,5.1-0.4,9.1-0.7,11l-0.1,0.4
		C22.1,250.9,34.6,265.1,51.2,266.2L51.2,266.2z M125,242.8l-69.8-79.1c19-61.9,71.1-107.9,134.9-119l69.8,79.1
		C241,185.6,188.8,231.7,125,242.8z M268.1,73.4c-0.5,9.8-0.9,15.5-1.8,22.6l-47.9-54.1c7.2-0.1,13,0.3,23.1,1
		c5.6,0.4,12.5,0.8,21.5,1.4c3.8,0.3,6.7,3.6,6.5,7.4l0,0C268.8,60.8,268.4,67.8,268.1,73.4L268.1,73.4z M49,191.4l47.9,54.1
		c-7.2,0.1-13-0.3-23.1-1c-5.6-0.4-12.5-0.8-21.5-1.4c-3.8-0.3-6.7-3.6-6.5-7.4c0.6-8.9,1-15.8,1.4-21.2
		C47.7,204.9,48,198.7,49,191.4L49,191.4z"/>
	<path class="st0" d="M184.5,157l-10.7-12.2l10.5-9.1l10.7,12.2c4.2,4.7,11.5,5.3,16.2,1.1s5.3-11.4,1.1-16.2l-10.7-12.2l5.2-4.6
		c4.8-4.2,5.3-11.5,1.1-16.2c-4.2-4.8-11.5-5.3-16.2-1.1l0,0l-5.2,4.6L175.8,91c-4.2-4.7-11.5-5.3-16.2-1.1
		c-4.7,4.2-5.3,11.4-1.1,16.2l10.7,12.2l-10.5,9.1L148,115.3c-4.2-4.7-11.5-5.3-16.2-1.1c-4.7,4.2-5.3,11.5-1.1,16.2l10.7,12.2
		l-10.5,9.1l-10.7-12.2c-4.2-4.7-11.5-5.3-16.2-1.1c-4.7,4.2-5.3,11.5-1.1,16.2l10.7,12.2l-5.2,4.6c-4.7,4.2-5.3,11.5-1.1,16.2
		c4.2,4.7,11.4,5.3,16.2,1.1l5.2-4.6l10.7,12.2c4.2,4.7,11.5,5.3,16.2,1.1c4.7-4.2,5.3-11.5,1.1-16.2L146,169.1l10.5-9.1l10.7,12.2
		c4.2,4.7,11.5,5.3,16.2,1.1C188.1,169.1,188.7,161.8,184.5,157L184.5,157z"/>
</g>
<g>
	<path class="st1" d="M303.8,211.6H189.5c-3,0-5.8,1.1-8,3l-37.2,32.4c-5.6,4.9-5.6,13.6,0,18.4l37.2,32.4c2.2,1.9,5.1,3,8,3h114.3
		c6.8,0,12.2-5.5,12.2-12.2v-64.9C316,217.1,310.5,211.6,303.8,211.6z"/>
	<g>
		<path class="st2" d="M272.6,293.8c-2.3,0-4.6-0.9-6.3-2.6l-55.6-55.6c-3.5-3.5-3.5-9.1,0-12.6s9.1-3.5,12.6,0l55.6,55.6
			c3.5,3.5,3.5,9.1,0,12.6C277.2,292.9,274.9,293.8,272.6,293.8z"/>
	</g>
</g>
</svg>
