<?xml version="1.0" encoding="utf-8"?>
<!-- Generator: Adobe Illustrator 22.0.0, SVG Export Plug-In . SVG Version: 6.00 Build 0)  -->
<svg version="1.1" id="Layer_1" xmlns="http://www.w3.org/2000/svg" xmlns:xlink="http://www.w3.org/1999/xlink" x="0px" y="0px"
	 viewBox="0 0 42.5 42.5" style="enable-background:new 0 0 42.5 42.5;" xml:space="preserve">
<style type="text/css">
	.st0{fill:#013369;}
	.st1{fill:#FF3D00;}
	.st2{fill:#FFFFFF;}
</style>
<g>
	<path class="st0" d="M37.2,16.5c-0.1-0.6-0.2-1.3-0.4-2C35.2,8.8,30.7,4.3,25,2.8C16.1,0.3,6.8,5.7,4.3,14.7
		c-0.3,1.1-0.4,2.2-0.5,3.4c0,0.5,0,1,0.3,1.4c0.3,0.4,0.9,0.4,1.4,0.4c1.2,0,2.4-0.4,3.5-1c0.3-0.2,0.6-0.3,0.9-0.5v4.8
		c-1.8,0.4-3.8,0.9-5.9,1.4l-0.3,0.1c-0.4,0.1-0.8,0.3-1.2,0.5l-0.2,0.1v1.1l0,0.1c0.1,1.2,0.4,2.4,0.6,3.6l0.2,1.1
		c0.2,1.3,0.3,2.6,0.6,4c0.1,0.6,0.6,1,1.1,1.2c0.2,0,0.4,0,0.6,0c3.1,0,6-1.9,7.2-5c0.1-0.7,0.3-1.5,0.4-2.3c0.1,0,0.3,0,0.4-0.1
		c0.3,0,0.7-0.1,0.9-0.1c0,0,0,0,0.1,0.1c0.3,0.5,0.6,0.9,0.9,1.3c3,3.3,8.1,3.5,11.3,0.5c0.9-0.6,1.9-1.2,3-1.8
		c0.3-0.2,0.7-0.2,1,0c0.3,0.1,0.6,0.3,1,0.4c0.3,0.1,0.7,0.3,1,0.4l0.2,0c0.7,0.2,1.4-0.1,1.7-0.7c0.7-1.1,1.5-2.2,2.3-3.5
		c0.2-0.5,0.3-0.9,0.3-1.5C36.9,22.8,37.7,19.9,37.2,16.5z M10.3,29.2c0,1-0.3,1.9-0.9,2.6c-0.8,1-2.1,1.6-3.6,1.9l-0.5-3.9
		L10.3,29.2z M4.9,27.1c0.1-0.1,0.4-0.1,0.5-0.2l0.2,0c1.5-0.4,3-0.7,4.5-1.1v1L5,27.3C5,27.2,4.9,27.1,4.9,27.1z M34.6,20.9
		c-0.1,0.3-0.2,0.6-0.4,0.8c-0.4,0.5-0.8,0.9-1.3,1.4c-0.9,1-1.8,2-2.7,2.9c-0.3,0.3-0.6,0.5-1,0.6c-1.7,0.6-3.1,1.4-4.3,2.5
		c-1.4,1.3-3.5,1.8-5.4,1.2c-2.2-0.6-3.7-2.5-3.8-4.7c-0.2-1.5-0.2-3.2-0.2-4.8c0-2.1-1.3-3.9-3.2-4.7c-0.5-0.2-1.1-0.3-1.7-0.3
		c-1,0-2.1,0.3-2.9,0.9c-0.4,0.2-0.8,0.5-1.2,0.6c0.1-1.5,0.5-3,1.2-4.6c2.7-5.5,8.6-8.7,14.6-7.9c6.3,0.7,11.3,5.5,12.3,11.6
		C34.8,17.9,34.8,19.4,34.6,20.9z M12.6,22.6v-3.4c0.3,0.4,0.4,0.9,0.5,1.4l0,1.2c0,0.4,0,0.7-0.1,0.8C13,22.5,12.8,22.5,12.6,22.6z
		 M13.4,26.4l-0.6,0.1c0-0.2,0-0.4,0-0.6v-0.8l0.4-0.1L13.4,26.4z M33.8,25.9c-0.3,0.5-0.6,0.9-0.9,1.3l-0.3-0.1L33.8,25.9z"/>
	<path class="st0" d="M29.4,9.2c-0.1-0.2-0.2-0.3-0.4-0.6c-3-3-7.3-4.2-11.6-3.2c-4,0.8-7.3,3.7-8.7,7.5c-0.2,0.6-0.2,1.1,0,1.6
		c0.2,0.4,0.5,0.6,0.9,0.6c0,0,0,0,0.1,0c0.5,0,1-0.5,1.3-1.2c0.4-1.1,1-2.1,1.7-2.9c1.7-2,4.1-3.1,6.7-3.3c2.6-0.2,5.2,0.7,7.2,2.5
		c0.3,0.3,0.5,0.5,0.9,0.8c0.4,0.2,1,0.4,1.5,0C29.8,10.6,29.9,9.9,29.4,9.2z"/>
	<path class="st0" d="M23.4,19.9c-2,0-3.6,1.6-3.6,3.6s1.6,3.6,3.6,3.6c1.8,0,3.3-1,3.5-3.1C27.2,21.8,25.4,19.9,23.4,19.9z
		 M23.5,24.6c-0.3,0-0.5-0.1-0.7-0.3c-0.2-0.2-0.4-0.5-0.4-0.8c0-0.6,0.5-1.1,1.1-1.1c0.6,0,1.1,0.5,1.2,1.1
		C24.6,24,24.1,24.6,23.5,24.6z"/>
</g>
<g>
	<path class="st1" d="M38.5,28.4H23.2c-0.4,0-0.8,0.1-1.1,0.4l-5,4.4c-0.8,0.7-0.8,1.8,0,2.5l5,4.4c0.3,0.3,0.7,0.4,1.1,0.4h15.4
		c0.9,0,1.6-0.7,1.6-1.6v-8.7C40.2,29.2,39.4,28.4,38.5,28.4z"/>
	<g>
		<path class="st2" d="M34.3,39.5c-0.3,0-0.6-0.1-0.9-0.4L26,31.7c-0.5-0.5-0.5-1.2,0-1.7c0.5-0.5,1.2-0.5,1.7,0l7.5,7.5
			c0.5,0.5,0.5,1.2,0,1.7C35,39.4,34.6,39.5,34.3,39.5z"/>
	</g>
</g>
</svg>
