<?xml version="1.0" encoding="utf-8"?>
<!-- Generator: Adobe Illustrator 22.0.0, SVG Export Plug-In . SVG Version: 6.00 Build 0)  -->
<svg version="1.1" id="Layer_1" xmlns="http://www.w3.org/2000/svg" xmlns:xlink="http://www.w3.org/1999/xlink" x="0px" y="0px"
	 viewBox="0 0 42.5 42.5" style="enable-background:new 0 0 42.5 42.5;" xml:space="preserve">
<style type="text/css">
	.st0{fill:#013369;}
	.st1{fill:#1DAB35;}
	.st2{fill:#FFFFFF;}
</style>
<g id="Group_20" transform="translate(3.84 5.995)">
	<g id="Group_2865">
		<path id="Path_1781" class="st0" d="M-2.3,23.3v-0.9c0.5-0.3,1.1-0.5,1.6-0.7c2.4-0.6,4.9-1.2,7.1-1.7v-6.8
			c-0.7,0.3-1.3,0.6-1.9,0.9c-1.1,0.7-2.4,1.1-3.7,1.1c-1.2,0-1.5-0.3-1.4-1.5c0.1-1.3,0.3-2.6,0.6-3.8C2.8-0.1,13.1-6,23-3.3
			c6.4,1.7,11.3,6.7,13.1,13c0.3,1.1,0.4,2.2,0.6,3.3v2.6c-0.4,1.7-0.5,3.5-0.3,5.3c0,0.5-0.1,0.9-0.3,1.4c-0.8,1.3-1.7,2.6-2.6,3.9
			c-0.2,0.5-0.8,0.7-1.3,0.5c0,0,0,0,0,0l-0.1,0c-0.7-0.3-1.5-0.6-2.2-0.9c-0.5-0.3-1.2-0.3-1.7,0c-1.2,0.6-2.4,1.3-3.5,2.1
			c-3.5,3.2-9,3-12.2-0.5c-0.4-0.4-0.7-0.9-1-1.4c-0.1-0.2-0.3-0.4-0.5-0.4c-0.8,0-1.6,0.2-2.2,0.2c-0.1,1-0.3,2.1-0.5,3.1
			c-1.3,3.4-4.7,5.5-8.3,5.2c-0.4-0.1-0.7-0.5-0.8-0.9c-0.3-1.7-0.5-3.4-0.7-5C-1.8,26.5-2.1,24.9-2.3,23.3z M1.3,13.7
			c0.8-0.3,1.6-0.7,2.3-1.1c1.4-1,3.2-1.3,4.8-0.7c2,0.8,3.3,2.7,3.3,4.8c0,1.8,0,3.7,0.2,5.5c0.2,2.8,2.1,5.1,4.8,5.9
			c2.3,0.7,4.9,0.2,6.7-1.5c1.3-1.2,2.9-2.1,4.7-2.7c0.5-0.1,1-0.4,1.4-0.8c1.6-1.6,3.1-3.3,4.6-4.9c0.3-0.3,0.5-0.7,0.6-1.2
			c0.2-1.8,0.2-3.6,0-5.3C33.5,4.3,27.5-1.3,20.1-2.1C12.9-3,6,0.8,2.8,7.3C1.9,9.3,1.3,11.5,1.3,13.7z M0.7,32.2
			c4-0.3,6.6-3,6.1-6.4L0,26.6L0.7,32.2z M6.7,21.7c-2.1,0.5-4.1,1-6.1,1.5c-1.2,0.3-1.2,0.4-0.8,1.6l6.9-0.7L6.7,21.7z M8.3,19.4
			c1.7-0.1,1.7-0.1,1.8-1.6c0-0.5,0-0.9,0-1.4c-0.1-1.2-0.7-2.3-1.7-2.8V19.4z M34.8,20.5l-0.3-0.1l-3.7,3.9l1.5,0.6
			c0.7-1,1.4-2,2-3C34.6,21.4,34.8,20.9,34.8,20.5z M10.5,23.7L10,20.9l-1.5,0.3c0,0.5,0,0.9,0,1.4c0,0.4,0,0.8,0.1,1.3L10.5,23.7z"
			/>
		<path id="Path_1782" class="st0" d="M28.1,4.4c-0.2,0.3-0.4,0.7-0.6,0.8c-0.3,0.1-0.6,0.1-0.9-0.1c-0.4-0.3-0.7-0.6-1-0.9
			C20.6-0.2,13.1,0.3,8.8,5.2c-0.9,1-1.6,2.2-2.1,3.5C6.3,9.6,5.5,10,5.1,9.3C4.9,8.9,4.9,8.5,5.1,8c1.5-4.2,5.1-7.3,9.5-8.2
			c4.6-1.1,9.4,0.2,12.7,3.5C27.6,3.7,27.8,4,28.1,4.4z"/>
		<path id="Path_1783" class="st0" d="M24.8,19.9c0,2-1.6,3.6-3.5,3.6c0,0,0,0,0,0h0c-2,0-3.6-1.6-3.6-3.6c0-2,1.6-3.6,3.6-3.6
			c1.9,0,3.5,1.5,3.6,3.4c0,0,0,0,0,0V19.9z M21.3,18.1c-1,0-1.8,0.8-1.8,1.8c0,1,0.9,1.9,1.9,1.8c1,0,1.8-0.9,1.8-1.8
			C23.1,18.9,22.3,18.1,21.3,18.1L21.3,18.1z"/>
	</g>
</g>
<g id="Group_2845" transform="translate(35.698 20.163)">
	<g id="Group_2843">
		<g id="Group_2841">
			<ellipse id="Ellipse_365" class="st1" cx="-1.4" cy="13.9" rx="7.5" ry="7.5"/>
		</g>
		<g id="Group_2842" transform="translate(2.843 6.352)">
			<path id="Path_4136" class="st2" d="M0,8.3c-0.2,0.2-0.4,0.3-0.7,0.3h-7.2c-0.5,0-1-0.4-1-1c0-0.5,0.4-1,1-1l0,0h7.2
				c0.5,0,1,0.4,1,1C0.3,7.8,0.2,8.1,0,8.3L0,8.3z"/>
		</g>
	</g>
	<g id="Group_2844" transform="translate(6.351 2.843)">
		<path id="Path_4137" class="st2" d="M-7,6.8C-6.9,7-6.8,7.2-6.8,7.5v7.2c0,0.5-0.4,1-1,1s-1-0.4-1-1V7.5c0-0.5,0.4-1,1-1
			C-7.5,6.5-7.2,6.6-7,6.8z"/>
	</g>
</g>
</svg>
