<svg xmlns="http://www.w3.org/2000/svg" width="18.549" height="29" viewBox="0 0 18.549 29">
  <g id="Group_2822" data-name="Group 2822" transform="translate(0 0)">
    <path id="Path_4074" data-name="Path 4074" d="M82.306-10.606c.758.011,4.76.282,7.453.437s6.246.44,6.543.5c.528.113,2.032,2.74,2.3,3.778.151.481-.51,1.123-1.164,1.123s-7.263.094-8.144.158c-.8.057-3.511.234-3.913.327-.428.1-1.745.3-2.164-.1-.389-.376-.6-2.662-.683-3.717S82.306-10.606,82.306-10.606Z" transform="translate(-82.306 10.606)" fill="#333d47"/>
    <path id="Path_4075" data-name="Path 4075" d="M92.458,1.68h8.833a9.477,9.477,0,0,0-.151,3.145c.226,1.585,2.416,8.455,2.642,9.135s.728,1.741.906,2.215a4.359,4.359,0,0,1-.591,3.586,6.166,6.166,0,0,1-2.922,2.045,33.536,33.536,0,0,1-3.269,1.453c-.528.025-2.705-.44-1.523-1.85s1.963-1.51,2.038-2.164a16.236,16.236,0,0,0-1.082-4.806,20.584,20.584,0,0,1-1.1-6.2,6.693,6.693,0,0,0-1.265-3.888C94.472,3.668,92.735,3.368,92.458,1.68Z" transform="translate(-86.327 5.74)" fill="#333d47"/>
    <path id="Path_4076" data-name="Path 4076" d="M93.2,6.471s1.057.038,1.34.85a8.7,8.7,0,0,1,.377,1.453c.06.272.094.563.094.563s-1.132.342-1.3.21a14.222,14.222,0,0,1-.51-2.322C93.166,7.075,93.065,6.457,93.2,6.471Z" transform="translate(-86.594 3.843)" fill="#333d47"/>
  </g>
</svg>
