<?xml version="1.0" encoding="utf-8"?>
<!-- Generator: Adobe Illustrator 22.0.0, SVG Export Plug-In . SVG Version: 6.00 Build 0)  -->
<svg version="1.1" id="Layer_1" xmlns="http://www.w3.org/2000/svg" xmlns:xlink="http://www.w3.org/1999/xlink" x="0px" y="0px"
	 viewBox="0 0 42.5 42.5" style="enable-background:new 0 0 42.5 42.5;" xml:space="preserve">
<style type="text/css">
	.st0{fill:#013369;}
	.st1{fill:#1DAB35;}
	.st2{fill:#FFFFFF;}
</style>
<path id="Path_1863" class="st0" d="M41.8,18.8c-1,3.3-3.8,2.8-6.4,2.8v4.8c0,1.5,0,2.9,0,4.4c0.1,1.6-1.1,2.9-2.6,3
	c-0.1,0-0.1,0-0.2,0c-0.4,0.1-0.8,0.3-1.2,0.5c-0.7,0.4-1.5,0.7-2.3,0.9c-1,0.1-2.1,0.1-3.1,0c-2.4,0-3.6-1-4-3.5h-1.5
	c-0.1,1.4-0.7,2.9-2.1,3.1c-2.1,0.3-4.2,0.3-6.3,0c-1.1-0.2-2.1-1.1-3.3-1.4C7.6,33.2,7.1,32,7,30.8c0-2.7,0-5.4,0-8.1v-1.2
	c-0.9,0-1.8,0-2.7,0c-2.3,0-3.8-1.4-3.7-3.8c0-1.3,0.4-2.6,0.5-3.9c0-0.3-0.1-0.6-0.3-0.9c-0.5-0.7-0.3-1.1,0.4-1.3
	c2.4-1,5.1-1.4,7.7-1.3c0.4,0,0.7,0.6,1.1,0.8c0.3,0.2,0.6,0.5,0.9,0.6c0.9,0,1.7,0.7,1.9,1.6c1,3.3,3,6.3,5.9,8.3
	c1,0.7,1.6,1.8,1.7,2.9H22c0.2-1.6,1.2-2.5,2.3-3.4c2.5-2,4.4-4.7,5.2-7.7c0.2-0.9,1-1.6,2-1.6c0.3-0.1,0.6-0.2,0.8-0.5
	c0.3-0.6,0.9-1,1.6-0.9c2.4,0,4.7,0.4,7,1.3c0.3,0.2,0.6,0.4,0.9,0.6v0.6c-0.2,0.4-0.6,0.7-0.6,1.1c0.4,0.5,0.6,1.2,0.6,1.9
	C41.9,16.9,41.8,18.8,41.8,18.8z M23.4,31.6c-0.1,1.1,0.7,2.1,1.8,2.2c0.1,0,0.2,0,0.3,0c1.1,0,2.2,0,3.3,0c1.6,0,2.5-0.8,2.5-2.5
	c0-2.4,0-4.9,0-7.3c-0.1-2,1.4-3.7,3.4-3.8c0,0,0,0,0,0c0.1,0,0.2,0,0.3,0c1.1,0,2.2,0,3.3,0c1.1,0.1,2.1-0.7,2.2-1.8
	c0-1.2,0-2.3-0.1-3.5c-0.3,0.1-0.3,0.1-0.4,0.1c-0.2,0.2-0.4,0.5-0.5,0.7c-1,1.4-2.6,2.3-4.4,2.2c-0.8,0-1.6,0-2.5,0
	c-1.4,0-1.6-0.2-1.4-1.6c0.1-1.1,0.2-2.2,0.4-3.3c-0.3,0.1-0.6,0.3-0.8,0.6c-1.1,3.6-3.4,6.8-6.5,9.1c-0.5,0.5-0.9,1.1-1.3,1.8
	c0.9,0,1.5,0,2.1,0c0.4,0,0.8,0.3,0.9,0.7c0,0.4-0.5,0.5-0.9,0.6c-0.6,0.1-1.2,0.1-1.8,0v1.5c0.6,0,1.2,0,1.9,0
	c0.3,0.1,0.9,0.3,0.9,0.7c0,0.4-0.5,0.5-0.8,0.6c-0.6,0.1-1.2,0.1-1.9,0v1.6c0.6,0,1.3,0,1.9,0c0.3,0,0.8,0.2,0.8,0.6
	s-0.5,0.6-0.8,0.7C24.7,31.7,24.1,31.7,23.4,31.6L23.4,31.6z M11.1,13.1l-0.2,0.1c0.1,1.3,0.3,2.5,0.4,3.8c0.1,0.8-0.2,1.1-1.1,1.1
	c-0.9,0-1.9,0-2.8,0c-1.8,0.1-3.5-0.8-4.4-2.3c-0.2-0.3-0.4-0.6-0.7-1c-0.1,0.5-0.2,1-0.2,1.5c0,0.7,0,1.3,0,2c0.1,1.2,1.1,2,2.2,2
	c1,0,2,0,2.9,0c2.7,0,4.1,1.4,4.1,4.1c0,2.4,0,4.8,0,7.2c-0.1,1.1,0.8,2.1,2,2.2c0,0,0,0,0,0c0.1,0,0.1,0,0.2,0c1.2,0,2.4,0,3.6,0
	c1.1,0,2.1-0.9,2.1-2c0,0,0,0,0,0c0-0.1,0-0.1,0-0.2c-0.6,0-1.2,0-1.8,0c-0.3-0.1-0.9-0.2-0.9-0.6c0-0.4,0.4-0.6,0.8-0.6
	c0.6,0,1.2,0,1.8,0v-1.6h-1.8c-0.5,0-1,0-1-0.7c0-0.6,0.5-0.6,1-0.6h1.7v-1.5c-0.7,0-1.3,0-2,0c-0.3,0-0.7-0.1-0.7-0.6
	c0-0.5,0.5-0.7,0.8-0.7c0.6-0.1,1.3-0.1,1.9,0l0.2-0.3c-0.3-0.6-0.8-1.1-1.3-1.6c-3-2.2-5.2-5.3-6.3-8.8
	C11.5,13.6,11.3,13.3,11.1,13.1z M40.1,12.7c-1.9-0.7-3.9-1-6-1c-0.2,0-0.4,0.1-0.6,0.3c-0.7,1.5-1,3.1-0.9,4.7
	C37.2,17,37.6,16.8,40.1,12.7z M2.4,12.7c2,3.7,4.1,4.8,7.6,3.9c-0.3-1.4-0.6-2.9-0.9-4.3C9,12,8.7,11.8,8.4,11.7
	C6.3,11.7,4.3,12,2.4,12.7L2.4,12.7z M32.5,32.4c1.1-0.1,1.6-0.6,1.6-1.7c0-2.8,0-5.7,0-8.5c0-0.1,0-0.3-0.1-0.4
	c-0.9,0.3-1.5,1.2-1.5,2.1C32.5,26.7,32.5,29.5,32.5,32.4L32.5,32.4z M9.9,32.3c0-2.8,0-5.6,0-8.3c0.1-1-0.6-2-1.6-2.2
	c0,3.1,0,6.1,0,9.1C8.4,31.9,8.9,32.3,9.9,32.3L9.9,32.3z M22,30.3v-1.5h-1.5v1.5H22z M20.5,26v1.4H22V26H20.5z"/>
<g id="Group_2845" transform="translate(35.698 20.163)">
	<g id="Group_2843">
		<g id="Group_2841">
			<ellipse id="Ellipse_365" class="st1" cx="-1.4" cy="13.9" rx="7.5" ry="7.5"/>
		</g>
		<g id="Group_2842" transform="translate(2.843 6.352)">
			<path id="Path_4136" class="st2" d="M0,8.3c-0.2,0.2-0.4,0.3-0.7,0.3h-7.2c-0.5,0-1-0.4-1-1c0-0.5,0.4-1,1-1l0,0h7.2
				c0.5,0,1,0.4,1,1C0.3,7.8,0.2,8.1,0,8.3L0,8.3z"/>
		</g>
	</g>
	<g id="Group_2844" transform="translate(6.351 2.843)">
		<path id="Path_4137" class="st2" d="M-7,6.8C-6.9,7-6.8,7.2-6.8,7.5v7.2c0,0.5-0.4,1-1,1c-0.5,0-1-0.4-1-1V7.5c0-0.5,0.4-1,1-1
			C-7.5,6.5-7.2,6.6-7,6.8z"/>
	</g>
</g>
</svg>
