<?xml version="1.0" encoding="utf-8"?>
<!-- Generator: Adobe Illustrator 22.0.0, SVG Export Plug-In . SVG Version: 6.00 Build 0)  -->
<svg version="1.1" id="Layer_1" xmlns="http://www.w3.org/2000/svg" xmlns:xlink="http://www.w3.org/1999/xlink" x="0px" y="0px"
	 viewBox="0 0 42.5 42.5" style="enable-background:new 0 0 42.5 42.5;" xml:space="preserve">
<style type="text/css">
	.st0{fill:#013369;}
	.st1{fill:#FF3D00;}
	.st2{fill:#FFFFFF;}
</style>
<path class="st0" d="M41.6,11.4c0-0.8-0.2-1.5-0.6-2.1c0-0.1,0.1-0.3,0.2-0.4c0.1-0.2,0.2-0.3,0.3-0.5l0-1l-1.1-0.8
	c-2.2-0.9-4.4-1.4-6.8-1.4c0,0,0,0,0,0c-0.8-0.1-1.5,0.3-1.9,1.1c-0.1,0.2-0.3,0.3-0.5,0.4c-1.1,0-2,0.8-2.2,1.9
	c-0.7,3-2.5,5.7-4.9,7.8c-1.1,1-2,1.9-2.3,3.5H21c-0.2-1.2-0.8-2.3-1.7-3c-2.6-1.9-4.6-4.9-5.5-8.4c-0.2-1.1-1.1-1.9-2.1-2
	c-0.1-0.1-0.3-0.2-0.4-0.3c-0.1-0.1-0.2-0.2-0.3-0.3c-0.1-0.1-0.2-0.2-0.3-0.3C10.2,5.5,10,5.2,9.6,5.2h0C6.9,5.1,4.3,5.6,2.1,6.6
	C1.6,6.7,1.3,6.9,1.2,7.3C1.1,7.6,1.2,8,1.5,8.5C1.6,8.7,1.7,9,1.7,9.2c0,0.6-0.1,1.1-0.2,1.7c-0.1,0.8-0.3,1.6-0.3,2.4
	c-0.1,1.3,0.3,2.5,1.1,3.2C3,17.2,4,17.6,5.2,17.6h2.2l0,9.4c0.1,1.7,0.9,2.8,2,3c0.5,0.1,1,0.4,1.5,0.7c0.5,0.3,1.1,0.6,1.7,0.8
	c2,0.3,4.1,0.3,6.2,0c1.2-0.2,2.1-1.4,2.3-3.2h0.8c0.5,2.5,1.7,3.6,4.1,3.6c0,0,0,0,0,0c0.5,0.1,1,0.1,1.5,0.1c0.5,0,1.1,0,1.6-0.1
	c0.8-0.2,1.6-0.6,2.3-1c0.3-0.2,0.7-0.4,1-0.5l0.2,0c1.7-0.1,2.9-1.7,2.8-3.5v-9.2c0.2,0,0.3,0,0.5,0c2.2,0.1,4.7,0.1,5.6-3.2l0-0.1
	C41.6,14.4,41.7,12.4,41.6,11.4z M25.5,28c0.7-0.2,1-0.6,1-1.1c0-0.6-0.7-1-1.1-1h-1.5v-0.9c0.5,0.1,1,0,1.6-0.1l0.1,0
	c0.3-0.1,0.9-0.3,0.9-0.9c0-0.7-0.8-0.9-1.1-1.1l-1.6,0v-0.8c0.5,0,1,0,1.4-0.1l0.1,0c0.4-0.1,1.1-0.3,1.1-1c-0.1-0.6-0.7-1-1.2-1
	h-1.4c0.3-0.5,0.6-0.9,0.9-1.2c3-2.4,5.2-5.7,6.3-9.4c-0.1,0.8-0.2,1.6-0.2,2.4c-0.1,0.8-0.1,1.3,0.2,1.7c0.3,0.3,0.8,0.4,1.5,0.4
	l2.4,0c1.8,0.1,3.5-0.8,4.6-2.5c0-0.1,0.1-0.2,0.2-0.4c0.1,1,0.1,2,0.1,3c0,0.5-0.3,0.9-0.6,1.2c-0.3,0.3-0.7,0.4-1.1,0.3l-3.5,0
	c-2.1,0.1-3.7,2.1-3.6,4.3v7.6c0,1.5-0.6,2.2-2,2.2l-3.4,0c-0.7-0.1-1.3-0.7-1.4-1.5C24.5,28.2,25,28.2,25.5,28z M32.7,11.9
	c0-1.5,0.2-3,0.8-4.4c0.1-0.1,0.2-0.2,0.3-0.2c1.9,0,3.6,0.3,5.3,0.9C37,11.9,36.6,12.2,32.7,11.9z M33.5,18.1v8.7
	c0,0.8-0.2,1.2-0.8,1.3v-8.4C32.6,19.1,33,18.5,33.5,18.1z M21.8,25.2v0.8h-0.7v-0.8H21.8z M21.8,22.3V23h-0.7v-0.7H21.8z
	 M17.5,20.2c-0.5,0-1.1,0.3-1.1,1.1c0,0.6,0.4,1,1,1h1.6v0.8h-1.3c-0.5,0-1.3,0-1.3,1c0,1.1,0.9,1.1,1.3,1.1H19v0.9h-1.4
	c-0.7,0-1.1,0.4-1.1,1c0,0.6,0.6,0.8,1,0.9l1.6,0.1c-0.1,0.9-0.8,1.6-1.7,1.6l-3.6,0c-0.9-0.1-1.7-1-1.6-1.9v-7.5
	c0-3-1.5-4.6-4.3-4.6H5.2c-0.9,0-1.7-0.8-1.8-1.7v-2.1c0-0.2,0-0.4,0-0.6c0.1,0.1,0.1,0.2,0.2,0.2c0.9,1.7,2.7,2.7,4.5,2.6h2.7
	c0.4,0,0.9,0,1.2-0.4c0.3-0.3,0.3-0.8,0.3-1.1c0-0.7-0.1-1.3-0.2-2c0-0.1,0-0.3,0-0.4c1.1,3.5,3.2,6.6,6,8.7
	c0.4,0.4,0.8,0.9,1.1,1.3C18.5,20.1,17.9,20.1,17.5,20.2z M3.8,8.3C5.4,7.7,7.1,7.4,9,7.4c0.2,0.1,0.3,0.2,0.4,0.3
	C9.6,8.4,9.7,9.2,9.9,10c0.1,0.6,0.2,1.3,0.4,1.9C7.3,12.6,5.6,11.6,3.8,8.3z M9.4,18.1c0.5,0.3,0.9,1,0.8,1.8v8.3
	C9.7,28,9.4,27.7,9.4,27V18.1z"/>
<g>
	<path class="st1" d="M38.3,29.5H24.1c-0.4,0-0.7,0.1-1,0.4l-4.6,4c-0.7,0.6-0.7,1.7,0,2.3l4.6,4c0.3,0.2,0.6,0.4,1,0.4h14.2
		c0.8,0,1.5-0.7,1.5-1.5v-8C39.8,30.1,39.2,29.5,38.3,29.5z"/>
	<g>
		<path class="st2" d="M34.5,39.7c-0.3,0-0.6-0.1-0.8-0.3l-6.9-6.9c-0.4-0.4-0.4-1.1,0-1.6s1.1-0.4,1.6,0l6.9,6.9
			c0.4,0.4,0.4,1.1,0,1.6C35,39.6,34.7,39.7,34.5,39.7z"/>
	</g>
</g>
</svg>
