<svg xmlns="http://www.w3.org/2000/svg" width="37.088" height="40.443" viewBox="0 0 37.088 40.443">
  <g id="Group_4030" data-name="Group 4030" transform="translate(-9.133 -45.801)">
    <path id="Path_5160" data-name="Path 5160" d="M27.676,86.236c-5.2,0-10.4-.014-15.593.008a2.967,2.967,0,0,1-2.888-2.287,3.3,3.3,0,0,1-.061-.666q0-14.322,0-28.645a2.941,2.941,0,0,1,1.991-2.864,3.158,3.158,0,0,1,.957-.123c.854,0,1.709,0,2.564,0,.163,0,.2-.043.2-.2-.007-.724-.016-1.448,0-2.172a3.612,3.612,0,0,1,2.692-3.33,2.829,2.829,0,0,1,.592-.086,11.4,11.4,0,0,1,2.373.055A3.561,3.561,0,0,1,23.4,49.348c.014.708.008,1.417,0,2.125,0,.152.04.19.19.19q4.089-.007,8.178,0c.149,0,.194-.034.192-.188-.008-.685-.01-1.371,0-2.056a3.539,3.539,0,0,1,2.938-3.493,7.124,7.124,0,0,1,3.138.1A3.539,3.539,0,0,1,40.5,49.31c.016.716.01,1.432,0,2.148,0,.161.039.207.2.2.886-.008,1.771-.012,2.657,0a2.879,2.879,0,0,1,2.8,2.3,3.231,3.231,0,0,1,.061.666q0,14.323,0,28.646A2.949,2.949,0,0,1,44.271,86.1a3.46,3.46,0,0,1-1.094.136ZM27.7,60.308q-7.727,0-15.454-.006c-.212,0-.259.056-.259.262q.009,11.284,0,22.57c0,.215.059.259.264.259q15.43-.007,30.862,0c.216,0,.259-.061.259-.265q-.008-11.284,0-22.569c0-.218-.063-.257-.265-.257Q35.4,60.312,27.7,60.308Zm7.114-7.559c0,1.054,0,2.108,0,3.162,0,.564.233.8.8.8q.623.006,1.246,0c.575,0,.8-.235.8-.823q0-2.435,0-4.871c0-.469,0-.938,0-1.408-.006-.565-.245-.8-.8-.8H35.633c-.586,0-.821.237-.822.828Q34.81,51.191,34.811,52.749Zm-14.269.028c0-1.077,0-2.154,0-3.231a.654.654,0,0,0-.676-.738q-.738-.018-1.477,0a.649.649,0,0,0-.687.658,2.046,2.046,0,0,0-.008.207v6.164a2.212,2.212,0,0,0,.01.23.631.631,0,0,0,.672.639c.462.011.924.009,1.385,0,.552,0,.781-.238.782-.793Q20.545,54.346,20.542,52.777Z" fill="#013369"/>
    <rect id="Rectangle_4354" data-name="Rectangle 4354" width="23.583" height="4.75" transform="translate(15.917 64.917)" fill="#013369"/>
    <rect id="Rectangle_4355" data-name="Rectangle 4355" width="8.833" height="4.75" transform="translate(30.667 73.583)" fill="#013369"/>
  </g>
</svg>
