<?xml version="1.0" encoding="utf-8"?>
<!-- Generator: Adobe Illustrator 26.2.1, SVG Export Plug-In . SVG Version: 6.00 Build 0)  -->
<svg version="1.1" id="Group_4590" xmlns="http://www.w3.org/2000/svg" xmlns:xlink="http://www.w3.org/1999/xlink" x="0px" y="0px"
	 viewBox="0 0 47 48.4" style="enable-background:new 0 0 47 48.4;" xml:space="preserve">
<style type="text/css">
	.st0{clip-path:url(#SVGID_00000091002171567718459480000014797118129634800281_);}
	.st1{fill:#979797;}
</style>
<g>
	<defs>
		<rect id="SVGID_1_" y="0" width="47" height="48.4"/>
	</defs>
	<clipPath id="SVGID_00000039103299293629549000000017360818891976687281_">
		<use xlink:href="#SVGID_1_"  style="overflow:visible;"/>
	</clipPath>
	<g id="Group_4584" style="clip-path:url(#SVGID_00000039103299293629549000000017360818891976687281_);">
		<path id="Path_6927" class="st1" d="M36,18.2c0.5-0.5,0.9-0.9,1.3-1.3c0.2-0.2,0.3-0.4,0.6-0.1c1.6,1.7,3.3,3.3,4.9,4.9
			c0.2,0.2,0.2,0.3,0,0.5c-2.2,2.2-4.4,4.4-6.6,6.6c-0.1,0.1-0.2,0.3-0.2,0.5c0,1.6,0,3.3,0,4.9c0,4.3,0,8.6,0,12.9
			c0.1,0.6-0.4,1.1-0.9,1.2c-0.1,0-0.1,0-0.2,0c-11.2,0-22.4,0-33.5,0c-0.2,0-0.4,0-0.6,0c-0.4-0.1-0.7-0.5-0.7-1c0-1.4,0-2.9,0-4.3
			c0-4.4,0-8.9,0-13.3c0-3,0-6.1,0-9.1c0-3.4,0-6.8,0-10.1c0-0.4,0.1-0.8,0.4-1c2.7-2.7,5.3-5.3,8-8c0.3-0.3,0.7-0.7,1-1.1
			C9.7,0.1,10,0,10.4,0c3.1,0,6.3,0,9.4,0h15c0.9,0,1.2,0.3,1.2,1.2c0,3,0,6.1,0,9.1c0,2.5,0,5.1,0,7.6C35.9,18,35.9,18,36,18.2
			 M7.2,11.2H7c-1.6,0-3.3,0-4.9,0c-0.3,0-0.2,0.2-0.2,0.3c0,2.4,0,4.8,0,7.1c0,4.4,0,8.7,0,13.1c0,4.8,0,9.6,0,14.4
			c0,0.3,0.1,0.4,0.4,0.4c5,0,10.1,0,15.1,0c3.7,0,7.4,0,11.1,0c1.7,0,3.5,0,5.2,0c0.3,0,0.3-0.1,0.3-0.3c0-2,0-3.9,0-5.9
			c0-1.1,0-2.1,0-3.2c0-0.1,0-0.2,0-0.3c0.1-0.2,0.1-0.5,0-0.7c0.1-0.7,0.1-1.5,0-2.2c0-0.9,0-1.7,0-2.6c0-0.1,0.1-0.2,0-0.3
			s-0.1,0-0.2,0.1c0,0-0.1,0.1-0.1,0.1c-1.7,1.7-3.3,3.3-5,5c-0.4,0.5-0.9,0.9-1.5,1.1c-1.3,0.3-2.6,0.8-3.9,1.2
			c-0.9,0.3-1.7,0.5-2.6,0.8c-0.2,0.1-0.3,0.1-0.5-0.1c-0.1-0.1-0.2-0.3-0.1-0.5c0.7-2.2,1.3-4.3,2-6.5c0.1-0.4,0.3-0.8,0.6-1
			c1.6-1.6,3.2-3.1,4.7-4.7c2.1-2.1,4.2-4.1,6.2-6.2c0.1-0.1,0.2-0.2,0.2-0.4c0-1.8,0-3.6,0-5.4c0-0.1,0-0.3,0-0.4
			c0-0.4,0-0.8,0-1.3c0-0.1,0-0.1,0-0.2c0-1.1,0-2.2,0-3.2c0-0.1,0-0.1,0-0.2c0-0.1,0-0.2,0-0.3c0-0.1,0-0.1,0-0.2
			c0-0.1,0-0.2,0-0.3c0-2.1,0-4.1,0-6.2c0-0.3-0.1-0.4-0.4-0.4c-4.1,0-8.2,0-12.3,0c-3.3,0-6.6,0-9.8,0c-0.3,0-0.3,0-0.3,0.3
			c0,2.6,0,5.2,0,7.8c0,0.8-0.2,1-1,1.2c-0.4,0-0.8,0-1.2,0c-0.4,0-0.8,0-1.1,0c-0.1,0-0.1,0-0.2,0C7.5,11.1,7.4,11.1,7.2,11.2
			 M3.3,9.2l0.1,0.1c1.9,0,3.7,0,5.6,0c0.3,0,0.4-0.1,0.4-0.4c0-1.7,0-3.4,0-5.1c0-0.2,0.1-0.4,0-0.5C9.1,3.3,9,3.5,8.9,3.6
			C7.6,4.9,6.4,6.1,5.2,7.3C4.5,7.9,3.9,8.6,3.3,9.2 M23,32.8c-0.4,1.2-0.8,2.3-1.2,3.5c-0.1,0.1,0,0.3,0.1,0.4
			c0.4,0.4,0.8,0.8,1.1,1.1c0.1,0.1,0.2,0.1,0.3,0.1c0.5-0.2,1-0.3,1.4-0.5c0.7-0.2,1.3-0.5,2-0.7L23,32.8"/>
		<path id="Path_6928" class="st1" d="M47,17.7c0,0.3-0.1,0.5-0.3,0.7c-0.9,0.9-1.9,1.9-2.8,2.8c-0.1,0.1-0.2,0.1-0.3,0
			c-1.7-1.7-3.4-3.4-5.1-5.1c-0.1-0.1-0.1-0.2,0-0.3c1-0.9,1.9-1.9,2.9-2.9c0.4-0.4,1-0.3,1.3,0c0,0,0,0,0,0c1,1,1.9,1.9,2.9,2.9
			c0.4,0.4,0.8,0.8,1.2,1.2C46.8,17.2,47,17.4,47,17.7"/>
		<path id="Path_6929" class="st1" d="M18,18.3c-3.6,0-7.2,0-10.8,0c-0.6,0-1.2-0.5-1.2-1.1c0-0.2,0-0.4,0.1-0.5
			c0.2-0.4,0.6-0.7,1-0.7c0.2,0,0.3,0,0.5,0h21c0.6-0.1,1.2,0.4,1.3,1c0,0.1,0,0.3,0,0.4c-0.1,0.6-0.6,0.9-1.2,0.9
			c-2.2,0-4.4,0-6.6,0L18,18.3L18,18.3z"/>
		<path id="Path_6930" class="st1" d="M15.9,25.3c-2.9,0-5.9,0-8.8,0c-0.6,0-1.1-0.5-1.2-1.1c0,0,0,0,0-0.1c-0.1-0.6,0.4-1.1,1-1.2
			c0.1,0,0.1,0,0.2,0c3.9,0,7.8,0,11.8,0c1.9,0,3.9,0,5.8,0c0.5-0.1,1,0.3,1.1,0.8c0.2,0.5,0,1.1-0.5,1.4c-0.2,0.1-0.4,0.2-0.6,0.2
			C21.8,25.3,18.9,25.3,15.9,25.3"/>
		<path id="Path_6931" class="st1" d="M29.7,10.9c-0.4,0.3-1,0.4-1.5,0.4c-4.2,0-8.3,0-12.5,0c-0.4,0-0.9-0.2-1.1-0.6
			c-0.2-0.4-0.2-0.9,0-1.2c0.2-0.4,0.6-0.6,1.1-0.5c1.6,0,3.2,0,4.8,0c2.7,0,5.4,0,8.1,0c0.5-0.1,1,0.2,1.2,0.6
			C30.1,9.9,30,10.4,29.7,10.9C29.7,10.8,29.7,10.9,29.7,10.9L29.7,10.9"/>
		<path id="Path_6932" class="st1" d="M13,32.3H7c-0.7,0-0.9-0.3-1-0.9c0-0.3,0-0.5,0.1-0.8c0.1-0.5,0.3-0.7,0.9-0.7h11.9
			c0.8,0,1.1,0.3,1.2,1.1c0,0.2,0,0.5-0.1,0.7c-0.1,0.3-0.4,0.6-0.8,0.5L13,32.3"/>
	</g>
</g>
</svg>
