<svg id="Group_4590" data-name="Group 4590" xmlns="http://www.w3.org/2000/svg" xmlns:xlink="http://www.w3.org/1999/xlink" width="46.968" height="48.409" viewBox="0 0 46.968 48.409">
  <defs>
    <clipPath id="clip-path">
      <rect id="Rectangle_5480" data-name="Rectangle 5480" width="46.968" height="48.409" fill="#1dab35"/>
    </clipPath>
  </defs>
  <g id="Group_4584" data-name="Group 4584" clip-path="url(#clip-path)">
    <path id="Path_6927" data-name="Path 6927" d="M35.954,18.177c.467-.465.881-.865,1.281-1.279.195-.2.306-.352.6-.051,1.622,1.663,3.271,3.3,4.923,4.933.211.208.209.316,0,.521q-3.31,3.29-6.607,6.592a.666.666,0,0,0-.224.524c.011,1.64.007,3.279.007,4.919,0,4.305-.013,8.611.006,12.916a1.053,1.053,0,0,1-1.151,1.156Q18.026,48.392,1.261,48.4a2.624,2.624,0,0,1-.6-.049.926.926,0,0,1-.653-.987q0-2.172,0-4.345,0-6.662,0-13.324,0-4.55,0-9.1,0-5.07,0-10.139A1.365,1.365,0,0,1,.42,9.407q4.015-3.99,8.012-8c.349-.349.7-.7,1.043-1.053A1.167,1.167,0,0,1,10.382,0q4.689.008,9.378,0l15,0c.856,0,1.174.319,1.175,1.178q0,4.571,0,9.142,0,3.791,0,7.582c0,.062.006.123.013.273M7.223,11.182h-.2c-1.641-.005-3.282,0-4.923-.021-.267,0-.212.156-.212.3q0,3.574,0,7.149,0,6.54,0,13.081,0,7.2-.007,14.393c0,.333.057.445.426.445,5.048-.008,10.1.006,15.144.008,3.7,0,7.4-.012,11.093-.017,1.731,0,3.463-.006,5.195.006.269,0,.334-.075.333-.339-.011-1.956,0-3.913-.007-5.869,0-1.056-.009-2.113-.014-3.169a.453.453,0,0,0-.009-.27,1.688,1.688,0,0,0,0-.737,15.9,15.9,0,0,0,0-2.233c.046-.853.025-1.706.011-2.559.016-.091.061-.207-.022-.264s-.12.049-.156.113a1.016,1.016,0,0,0-.105.08c-1.66,1.659-3.313,3.325-4.982,4.976a3.3,3.3,0,0,1-1.457,1.08c-1.309.344-2.595.779-3.89,1.176q-1.284.393-2.57.782a.411.411,0,0,1-.469-.064.428.428,0,0,1-.115-.457q1-3.257,1.983-6.52a2.348,2.348,0,0,1,.637-1.033q2.38-2.346,4.738-4.716,3.115-3.112,6.226-6.226a.519.519,0,0,0,.2-.375q-.01-2.679-.017-5.359.009-.2.018-.4a9.835,9.835,0,0,0-.006-1.273.241.241,0,0,0-.014-.212c.026-1.081.037-2.161,0-3.242,0-.061.008-.123.012-.185a.36.36,0,0,0,0-.275q0-.106,0-.211c0-.1.014-.2.014-.3,0-2.069-.007-4.138.008-6.207,0-.307-.086-.367-.376-.366q-6.171.015-12.342.007-4.924,0-9.848-.006c-.254,0-.346.049-.345.329.006,2.607-.006,5.214-.011,7.82,0,.766-.21,1.024-.956,1.159a5.664,5.664,0,0,0-1.215,0,5.853,5.853,0,0,0-1.147,0,.238.238,0,0,0-.2-.01.756.756,0,0,0-.405.011m-3.975-2,.069.1c1.863,0,3.726-.008,5.589.007.3,0,.393-.068.39-.38-.016-1.7-.006-3.391-.01-5.087,0-.163.083-.421-.037-.468-.15-.059-.27.171-.39.29C7.627,4.866,6.4,6.094,5.169,7.316c-.634.628-1.28,1.244-1.922,1.865M22.993,32.753c-.4,1.169-.781,2.312-1.172,3.452a.3.3,0,0,0,.1.352q.582.559,1.141,1.143a.275.275,0,0,0,.349.072c.472-.173.952-.324,1.428-.487.669-.229,1.337-.46,1.988-.685l-3.832-3.846" transform="translate(0 0)" fill="#1dab35"/>
    <path id="Path_6928" data-name="Path 6928" d="M186.191,63.571a.987.987,0,0,1-.319.738q-1.4,1.408-2.8,2.815c-.115.116-.189.135-.315.008q-2.561-2.576-5.134-5.14c-.139-.138-.14-.2,0-.337.956-.945,1.9-1.9,2.852-2.851a.933.933,0,0,1,1.331.038c.973.963,1.938,1.935,2.906,2.9q.583.583,1.166,1.167a.922.922,0,0,1,.319.658" transform="translate(-139.223 -45.915)" fill="#1dab35"/>
    <path id="Path_6929" data-name="Path 6929" d="M39.742,76.07q-5.375,0-10.75,0a1.172,1.172,0,0,1-1.114-1.659,1.151,1.151,0,0,1,1.032-.694c.167-.016.337,0,.505,0H50.423a1.184,1.184,0,0,1,1.314,1.446,1.172,1.172,0,0,1-1.211.912q-3.285,0-6.57,0H39.742Z" transform="translate(-21.782 -57.808)" fill="#1dab35"/>
    <path id="Path_6930" data-name="Path 6930" d="M37.736,108.633c-2.933,0-5.866-.017-8.8.012a1.129,1.129,0,0,1-1.15-1.168,1.081,1.081,0,0,1,1.144-1.2q5.883,0,11.765.011c1.929,0,3.859-.009,5.788-.011a1.046,1.046,0,0,1,1.138.8,1.294,1.294,0,0,1-.459,1.41.974.974,0,0,1-.606.153q-4.411,0-8.823,0" transform="translate(-21.793 -83.352)" fill="#1dab35"/>
    <path id="Path_6931" data-name="Path 6931" d="M82.359,43.17a2.284,2.284,0,0,1-1.481.362q-6.252-.016-12.505-.006a1.167,1.167,0,0,1-1.094-.591,1.129,1.129,0,0,1,.034-1.241,1.161,1.161,0,0,1,1.063-.527q2.41,0,4.82,0c2.685,0,5.371.005,8.056,0a1.244,1.244,0,0,1,1.221.612,1.171,1.171,0,0,1-.115,1.327c-.008.011.005.039.009.06l-.007.008" transform="translate(-52.634 -32.284)" fill="#1dab35"/>
    <path id="Path_6932" data-name="Path 6932" d="M34.782,141.189H28.815c-.662,0-.947-.253-1.014-.923a2.007,2.007,0,0,1,.057-.767c.146-.506.341-.664.86-.664H40.65c.835,0,1.143.293,1.169,1.132a1.87,1.87,0,0,1-.11.7.693.693,0,0,1-.758.528H34.782" transform="translate(-21.795 -108.887)" fill="#1dab35"/>
  </g>
</svg>
