<?xml version="1.0" encoding="utf-8"?>
<!-- Generator: Adobe Illustrator 22.0.0, SVG Export Plug-In . SVG Version: 6.00 Build 0)  -->
<svg version="1.1" id="Layer_1" xmlns="http://www.w3.org/2000/svg" xmlns:xlink="http://www.w3.org/1999/xlink" x="0px" y="0px"
	 viewBox="0 0 48 48" style="enable-background:new 0 0 48 48;" xml:space="preserve">
<style type="text/css">
	.st0{fill:#FFFFFF;}
	.st1{fill:#CD1126;}
	.st2{fill:#FEFDFD;}
</style>
<g>
	<polygon class="st0" points="21,27.6 22.9,21.1 25.1,27.6 	"/>
	<path class="st0" d="M37.8,12.7c0,1.9,0,5.9,0,5.9s-2.2,0.6-3.3,0.8c-0.1,0-0.1,0-0.2,0c0.4,1,0.9,1.9,1.3,2.9
		c1.7,3.8,3.4,7.6,5.1,11.3c0,0,0,0,0.1,0c0.9,0.2,1.9,0.4,2.8,0.6c0,1.6,0,4.9,0,4.9H24.4c0,0,0-3.3,0-4.9c0.7-0.2,1.3-0.4,2-0.6
		c0.2-0.1,0.2-0.1,0-0.5c-0.2-0.4-0.4-0.9-0.4-1.4c0-0.3-0.1-0.3-0.3-0.3c0,0,0,0,0,0c-0.9,0-1.8,0-2.7,0c-1,0-2,0-3,0
		c-0.2,0.7-0.5,1.4-0.7,2.1c0.8,0.2,1.6,0.4,2.3,0.7c0,1.6,0,3.3,0,4.9c-2.7,0-5.4,0-8.1,0c-2.8,0-5.5,0-8.3,0c0-1.6,0-4.9,0-4.9
		s0,0,0.2,0c0.8-0.2,1.7-0.4,2.5-0.6c0,0,0.1,0,0.1-0.1c2.1-4.7,4.3-9.5,6.4-14.2c-1.1-0.3-3.4-0.9-3.4-0.9s0-4,0-5.9
		c5.8,0,11.5,0,17.3,0c1.5,0,3,0,4.5,0c0.7,0,1.4,0,2.1,0C35.9,12.7,36.8,12.7,37.8,12.7 M40,10.5l-2.2,0c-0.9,0-1.9,0-2.8,0l-1,0
		l-1,0l-2.3,0l-2.3,0c-5.8,0-11.5,0-17.3,0l-2.2,0l0,2.2c0,1.9,0,5.9,0,5.9l0,1.7l1.6,0.4c0,0,0.4,0.1,0.9,0.2
		c-1.6,3.6-3.3,7.3-4.9,10.9c-0.2,0-0.3,0.1-0.5,0.1c-0.3,0.1-0.7,0.2-1,0.2l-0.2,0l-1.7,0.4l0,1.7c0,0,0,3.3,0,4.9l0,2.2l2.2,0
		c2.8,0,5.5,0,8.3,0c2.7,0,5.4,0,8.1,0l2.2,0v0h0.5h19.1h2.2l0-2.2c0,0,0-3.3,0-4.9l0-1.8L44,32.2c-0.4-0.1-0.9-0.2-1.3-0.3
		c-0.1,0-0.3-0.1-0.4-0.1c-1.2-2.8-2.5-5.6-3.7-8.4l-0.9-2l-0.2-0.5l0.9-0.2l1.7-0.4l0-1.7c0,0,0-4,0-5.9L40,10.5L40,10.5z"/>
	<g>
		<path class="st1" d="M34.3,19.5c0.4,1,0.9,1.9,1.3,2.9c1.7,3.7,3.3,7.5,5,11.2c0.1,0.1,0.1,0.2,0.3,0.2c0.8,0.2,1.6,0.4,2.5,0.6
			c0.1,0,0.2,0.1,0.2,0.2c0,1.5,0,3,0,4.5c0,0.2,0,0.2-0.2,0.2c-6.3,0-12.5,0-18.8,0c-0.1,0-0.2,0-0.2-0.2c0-1.5,0-3,0-4.6
			c0-0.1,0-0.2,0.2-0.2c0.6-0.2,1.2-0.4,1.8-0.5c0.1,0,0.2-0.1,0.1-0.2c-0.2-0.6-0.4-1.2-0.6-1.8c0-0.1-0.1-0.2-0.2-0.2
			c-1.8,0-3.6,0-5.5,0c-0.1,0-0.2,0-0.2,0.2c-0.2,0.6-0.4,1.2-0.6,1.8c0,0.1,0,0.2,0.1,0.2c0.7,0.2,1.3,0.4,2,0.6
			c0.1,0,0.2,0.1,0.2,0.2c0,1.5,0,3,0,4.5c0,0.2,0,0.2-0.2,0.2c-5.3,0-10.7,0-16,0c-0.2,0-0.2,0-0.2-0.2c0-1.5,0-3,0-4.5
			c0-0.1,0-0.2,0.2-0.2c0.8-0.2,1.6-0.4,2.4-0.6c0.1,0,0.2-0.1,0.3-0.2c2.1-4.6,4.1-9.2,6.2-13.8c0.1-0.3,0.1-0.3-0.2-0.4
			c-1-0.2-1.9-0.5-2.9-0.7c-0.1,0-0.2-0.1-0.2-0.2c0-1.8,0-3.7,0-5.5c0-0.2,0-0.2,0.2-0.2c7.2,0,14.4,0,21.6,0c1.6,0,3.2,0,4.7,0
			c0.2,0,0.2,0,0.2,0.2c0,1.8,0,3.7,0,5.5c0,0.1,0,0.2-0.2,0.2c-1,0.3-2.1,0.5-3.1,0.8C34.5,19.4,34.4,19.4,34.3,19.5z M29.1,28.4
			c0,0,0.1,0.1,0.1,0.1c0.5,0.4,1,0.8,1.5,1.2c0.1,0.1,0.1,0.1,0.1,0.3c-0.1,0.3-0.2,0.6-0.3,0.9c-0.1,0.4-0.2,0.7-0.4,1.1
			c0.1,0,0.1-0.1,0.1-0.1c0.5-0.4,1.1-0.8,1.6-1.2c0.1-0.1,0.2-0.1,0.2,0c0.4,0.4,0.9,0.7,1.4,1c0.1,0.1,0.2,0.2,0.4,0.3
			c0,0,0-0.1,0-0.1c-0.2-0.6-0.4-1.3-0.6-1.9c0-0.1,0-0.2,0.1-0.2c0.3-0.2,0.5-0.4,0.8-0.6c0.3-0.2,0.6-0.4,0.9-0.7
			c-0.1,0-0.2,0-0.2,0c-0.6,0-1.3,0-1.9,0c-0.1,0-0.2,0-0.2-0.1c-0.2-0.6-0.4-1.1-0.6-1.7c0-0.1,0-0.1-0.1-0.2
			c-0.2,0.6-0.4,1.2-0.6,1.8c0,0.1-0.1,0.2-0.3,0.2c-0.6,0-1.2,0-1.8,0C29.2,28.3,29.1,28.3,29.1,28.4z M29.1,16.5
			C29.1,16.5,29.1,16.5,29.1,16.5c-0.1,0-0.1,0-0.2,0c-0.6,0-1.3,0-1.9,0c-0.1,0-0.1,0-0.2-0.1c-0.1-0.3-0.2-0.6-0.3-0.9
			c-0.1-0.3-0.2-0.7-0.4-1c0,0.1,0,0.1-0.1,0.1c-0.2,0.6-0.4,1.2-0.6,1.8c0,0.1-0.1,0.1-0.2,0.1c-0.4,0-0.8,0-1.1,0
			c-0.3,0-0.6,0-0.9,0c0,0.1,0.1,0.1,0.1,0.1c0.5,0.4,1,0.8,1.5,1.2c0.1,0.1,0.1,0.1,0.1,0.3c-0.2,0.6-0.4,1.2-0.6,1.8
			c0,0,0,0.1,0,0.1c0,0,0,0,0.1,0c0.5-0.4,1.1-0.8,1.6-1.2c0.1-0.1,0.2-0.1,0.3,0c0.4,0.3,0.8,0.6,1.2,0.9c0.2,0.1,0.3,0.2,0.5,0.4
			c0-0.1,0-0.1,0-0.1c-0.2-0.6-0.4-1.3-0.6-1.9c0-0.1,0-0.2,0.1-0.2c0.3-0.2,0.6-0.5,1-0.8C28.6,16.9,28.8,16.7,29.1,16.5z
			 M36.6,37.7c0-0.1,0-0.1,0-0.2c-0.2-0.6-0.4-1.2-0.6-1.8c0-0.1,0-0.2,0.1-0.2c0.3-0.2,0.5-0.4,0.8-0.6c0.3-0.2,0.6-0.4,0.9-0.7
			c-0.7,0-1.4,0-2.1,0c-0.1,0-0.2,0-0.2-0.1c-0.1-0.2-0.1-0.4-0.2-0.6c-0.1-0.4-0.3-0.8-0.5-1.3c-0.2,0.6-0.4,1.3-0.7,1.9
			c0,0.1-0.1,0.2-0.2,0.2c-0.6,0-1.2,0-1.9,0c0,0-0.1,0-0.1,0c0.5,0.4,1.1,0.9,1.6,1.3c0.1,0.1,0.1,0.1,0.1,0.2
			c-0.1,0.3-0.2,0.5-0.3,0.8c-0.1,0.4-0.3,0.8-0.4,1.2c0.1,0,0.1-0.1,0.1-0.1c0.5-0.4,1.1-0.8,1.6-1.2c0.1-0.1,0.2-0.1,0.2,0
			C35.4,36.9,36,37.3,36.6,37.7z M27.3,25.9C27.3,25.9,27.3,25.9,27.3,25.9c0.6-0.4,1.2-0.8,1.7-1.2c0.1-0.1,0.1-0.1,0.2,0
			c0.4,0.3,0.9,0.7,1.3,1c0.1,0.1,0.2,0.2,0.4,0.3c-0.2-0.7-0.4-1.4-0.6-2c0-0.1,0-0.2,0.1-0.3c0.5-0.4,1-0.8,1.5-1.2
			c0,0,0.1,0,0.1-0.1c-0.7,0-1.4,0-2,0c-0.1,0-0.2,0-0.3-0.2c-0.2-0.6-0.4-1.2-0.6-1.8c0,0,0,0.1-0.1,0.1c-0.2,0.6-0.4,1.2-0.6,1.8
			c0,0.1-0.1,0.1-0.2,0.1c-0.6,0-1.2,0-1.8,0c0,0-0.1,0-0.2,0c0,0,0.1,0.1,0.1,0.1c0.5,0.4,1,0.8,1.5,1.2c0.1,0.1,0.1,0.1,0.1,0.3
			C27.7,24.6,27.5,25.2,27.3,25.9z M24.8,27.4c-0.6-1.9-1.3-3.8-1.9-5.7c-0.6,1.9-1.1,3.8-1.7,5.7C22.4,27.4,23.6,27.4,24.8,27.4z"
			/>
		<path class="st2" d="M29.1,28.4c0.1,0,0.1,0,0.2,0c0.6,0,1.2,0,1.8,0c0.2,0,0.2-0.1,0.3-0.2c0.2-0.6,0.4-1.2,0.6-1.8
			c0.1,0,0.1,0.1,0.1,0.2c0.2,0.6,0.4,1.1,0.6,1.7c0,0.1,0.1,0.1,0.2,0.1c0.6,0,1.3,0,1.9,0c0.1,0,0.1,0,0.2,0
			c-0.3,0.3-0.6,0.5-0.9,0.7c-0.3,0.2-0.5,0.4-0.8,0.6c-0.1,0.1-0.1,0.1-0.1,0.2c0.2,0.6,0.4,1.3,0.6,1.9c0,0,0,0,0,0.1
			c-0.1-0.1-0.3-0.2-0.4-0.3c-0.5-0.3-0.9-0.7-1.4-1c-0.1-0.1-0.2-0.1-0.2,0c-0.5,0.4-1.1,0.8-1.6,1.2c0,0-0.1,0.1-0.1,0.1
			c0.1-0.4,0.3-0.7,0.4-1.1c0.1-0.3,0.2-0.6,0.3-0.9c0-0.1,0-0.2-0.1-0.3c-0.5-0.4-1-0.8-1.5-1.2C29.1,28.4,29.1,28.4,29.1,28.4z"/>
		<path class="st2" d="M29.1,16.5c-0.2,0.2-0.5,0.4-0.7,0.6c-0.3,0.3-0.6,0.5-1,0.8c-0.1,0.1-0.1,0.1-0.1,0.2
			c0.2,0.6,0.4,1.3,0.6,1.9c0,0,0,0.1,0,0.1c-0.2-0.1-0.3-0.2-0.5-0.4c-0.4-0.3-0.8-0.6-1.2-0.9c-0.1-0.1-0.2-0.1-0.3,0
			c-0.5,0.4-1.1,0.8-1.6,1.2c0,0,0,0-0.1,0c0,0,0-0.1,0-0.1c0.2-0.6,0.4-1.2,0.6-1.8c0-0.1,0-0.2-0.1-0.3c-0.5-0.4-1-0.8-1.5-1.2
			c0,0-0.1-0.1-0.1-0.1c0.3,0,0.6,0,0.9,0c0.4,0,0.8,0,1.1,0c0.1,0,0.2,0,0.2-0.1c0.2-0.6,0.4-1.2,0.6-1.8c0,0,0-0.1,0.1-0.1
			c0.1,0.4,0.2,0.7,0.4,1c0.1,0.3,0.2,0.6,0.3,0.9c0,0.1,0.1,0.1,0.2,0.1c0.6,0,1.3,0,1.9,0C28.9,16.5,29,16.5,29.1,16.5
			C29.1,16.5,29.1,16.5,29.1,16.5z"/>
		<path class="st2" d="M36.6,37.7c-0.6-0.4-1.1-0.9-1.7-1.3c-0.1-0.1-0.1-0.1-0.2,0c-0.5,0.4-1.1,0.8-1.6,1.2c0,0-0.1,0-0.1,0.1
			c0.1-0.4,0.3-0.8,0.4-1.2c0.1-0.3,0.2-0.5,0.3-0.8c0-0.1,0-0.2-0.1-0.2c-0.5-0.4-1.1-0.9-1.6-1.3c0-0.1,0.1,0,0.1,0
			c0.6,0,1.2,0,1.9,0c0.1,0,0.2,0,0.2-0.2c0.2-0.6,0.4-1.2,0.7-1.9c0.2,0.5,0.3,0.9,0.5,1.3c0.1,0.2,0.1,0.4,0.2,0.6
			c0,0.1,0.1,0.1,0.2,0.1c0.7,0,1.4,0,2.1,0c-0.3,0.2-0.6,0.5-0.9,0.7c-0.3,0.2-0.5,0.4-0.8,0.6c-0.1,0.1-0.1,0.1-0.1,0.2
			c0.2,0.6,0.4,1.2,0.6,1.8C36.6,37.6,36.6,37.7,36.6,37.7z"/>
		<path class="st2" d="M27.3,25.9c0.2-0.6,0.4-1.3,0.7-1.9c0-0.1,0-0.2-0.1-0.3c-0.5-0.4-1-0.8-1.5-1.2c0,0-0.1-0.1-0.1-0.1
			c0.1,0,0.1,0,0.2,0c0.6,0,1.2,0,1.8,0c0.1,0,0.2,0,0.2-0.1c0.2-0.6,0.4-1.2,0.6-1.8c0,0,0-0.1,0.1-0.1c0.2,0.6,0.4,1.2,0.6,1.8
			c0,0.1,0.1,0.2,0.3,0.2c0.7,0,1.3,0,2,0c0,0.1-0.1,0.1-0.1,0.1c-0.5,0.4-1,0.8-1.5,1.2c-0.1,0.1-0.1,0.1-0.1,0.3
			c0.2,0.7,0.4,1.3,0.6,2c-0.2-0.1-0.3-0.2-0.4-0.3c-0.4-0.3-0.9-0.7-1.3-1c-0.1-0.1-0.1-0.1-0.2,0C28.5,25.1,27.9,25.5,27.3,25.9
			C27.3,25.9,27.3,25.9,27.3,25.9z"/>
	</g>
</g>
</svg>
