<svg id="Layer_1" data-name="Layer 1" xmlns="http://www.w3.org/2000/svg" viewBox="0 0 48 48"><defs><style>.cls-1{fill:#f3b53d;}.cls-2{fill:#fff;}.cls-3{fill:#1a1919;}.cls-4{fill:#fffffe;}.cls-5{fill:#951432;}</style></defs><title>arizona_cardinals</title><path class="cls-1" d="M39.81,26.83c-.39-2.92-1.45-7.14-7.11-10.26-8.58-4.73-13.33-.87-26.86-9.16a11.93,11.93,0,0,0,2.31,5L6.75,12a14.4,14.4,0,0,0,3.5,4.72l-1.57-.49a16.87,16.87,0,0,0,4.91,6.49C14.33,29,18.9,30,19.27,33.86c6,.93,12.27,7.32,12.27,7.32,3.3-5.68,7.91-6.78,11.81-6.43v0C43.44,30.11,39.81,26.83,39.81,26.83Z"/><path class="cls-2" d="M31.85,43.63l-1.38-1.4c-.06-.06-6-6-11.43-6.89l-1.15-.18L17.78,34c-.12-1.23-.87-2.11-1.91-3.32a13.5,13.5,0,0,1-3.69-7.18A18.57,18.57,0,0,1,7.3,16.82L6.07,14c-.24-.43-.47-.87-.68-1.32L4,9.63l1,.3a12.31,12.31,0,0,1-.66-2.22L3.69,4.33l2.93,1.8a38.21,38.21,0,0,0,16.46,6,27.8,27.8,0,0,1,10.34,3.14c5.84,3.21,7.3,7.63,7.8,10.86a12.75,12.75,0,0,1,3.63,8.64l0,1.61-1.6-.13c-4.47-.4-8,1.52-10.38,5.69Z"/><g id="Team-icons_arizona_cardinals" data-name="Team-icons arizona cardinals"><g id="arizona_cardinals" data-name="arizona cardinals"><path id="Fill-4" class="cls-3" d="M43.35,34.73c.09-4.62-3.54-7.9-3.54-7.9-.39-2.92-1.45-7.14-7.11-10.26-8.58-4.73-13.33-.87-26.86-9.16a11.93,11.93,0,0,0,2.31,5L6.75,12a14.4,14.4,0,0,0,3.5,4.72l-1.57-.49a16.87,16.87,0,0,0,4.91,6.49C14.33,29,18.9,30,19.27,33.86c6,.93,12.27,7.32,12.27,7.32,3.3-5.68,7.91-6.78,11.81-6.43"/><path id="Fill-5" class="cls-4" d="M35.71,26.7c-1.3,2.08-3.49,1.5-4.27-1.1l1.58.09a14.39,14.39,0,0,1-3.62-3.25c-.29,5.75,5.13,8.33,6.92,4.3h-.61"/><path id="Fill-6" class="cls-5" d="M32,17.35c-6.22-3.41-13.82-1.19-23.54-7.21,1,2.87,7,6.24,7,6.24l-5.32-1.73C11.46,17,17,20,17,20l-5-1.6c2,3.41,6.71,5.71,6.71,5.71l-2.86-.21c.37,3.21,4.8,6,5,8.45a23.61,23.61,0,0,1,6.6,3.84c3.85-1.9,2.79-8.3-4.55-17.39,10.1.61,9.82,8.1,15.61,7-.42-2-.69-5.18-6.61-8.43"/><path id="Fill-7" class="cls-1" d="M42.62,33.54a10.28,10.28,0,0,0-4-6.12,6.32,6.32,0,0,1-4,2.84,14.33,14.33,0,0,1,8,3.28"/><path id="Fill-8" class="cls-4" d="M35.71,26.7c-1.3,2.08-3.49,1.5-4.27-1.1l1.58.09a14.39,14.39,0,0,1-3.62-3.25c-.29,5.75,5.13,8.33,6.92,4.3h-.61"/><path id="Fill-9" class="cls-1" d="M34.89,35.5A12,12,0,0,1,42.48,34a12.4,12.4,0,0,0-8.07-2.36,5.37,5.37,0,0,1,.48,3.87"/></g></g></svg>