<svg id="Layer_1" data-name="Layer 1" xmlns="http://www.w3.org/2000/svg" viewBox="0 0 48 48"><defs><style>.cls-1{fill:#fff;}.cls-2{fill:#9fa7a5;}.cls-3{fill:#fffffe;}.cls-4{fill:#0a0b09;}.cls-5{fill:#942231;}</style></defs><title>atlanta_falcons</title><path class="cls-1" d="M42.29,11.87h0c-5.08-3.21-15.49-5.6-24.67-7.7l-3.55-.82L.48,17.94l10.15-.21a25.75,25.75,0,0,0,.25,18.35c2,4.57,5.35,7.45,9.74,8.33l3.45.69-1.9-3A4.34,4.34,0,0,1,22,37.86l4.95-9.48,2.69,0c6.26-.07,8.93-3,9.79-4.25l.53-.78-.47-.82a3.87,3.87,0,0,0-.24-.37l2.16-.43a5,5,0,0,0,4-4C45.81,15.55,44.65,13.36,42.29,11.87Z"/><g id="Team-icons_atlanta_falcons" data-name="Team-icons atlanta falcons"><g id="atlanta_falcons" data-name="atlanta falcons"><path id="Fill-1" class="cls-2" d="M41.49,13.14c-5.38-3.4-17.72-6-26.91-8.13L4,16.37l9.08-.19c-4.52,7.3-3.6,24.47,7.83,26.76a5.83,5.83,0,0,1-.29-5.77l6.19-11.86h1.26c1.7,0,2.26.64,1.5,1.54,4.53-.05,7.32-1.77,8.57-3.6-1-1.74-4-3.78-5.21-4.61h6.34c1.82,0,2.23.76,1.8,1.59,3-.59,4.49-4.52.42-7.09"/><path id="Fill-3" class="cls-3" d="M40.76,13.49C33.43,9.38,15.28,6.63,15.28,6.63L7.5,15h8.06c-6,7.86-4.63,23.74,4.12,27a5.85,5.85,0,0,1,.19-5.37C21.13,34.17,23.14,30,26,24.52h2.35c1.95,0,2.57.83,2.31,1.46a8.1,8.1,0,0,0,6.66-2.74c-1.77-2.47-7.63-5.36-7.63-5.36H39.77c1.47,0,2.21.52,2,1.41,2.57-1.25,1.9-4.18-1-5.81"/><path id="Fill-5" class="cls-4" d="M28.86,18.16l.19.55c-.44.85-2,4-2.55,5.05h4.07a1.86,1.86,0,0,0,1.51,1.49,1.11,1.11,0,0,1,.06-1.49h1.93c.53,0,.36.64-.5,1.3a5,5,0,0,0,3-1.81c-1.26-1.92-7.74-5.09-7.74-5.09"/><path id="Fill-6" class="cls-4" d="M40.46,14c-6.17-3.38-25.7-6.24-25.7-6.24l.71.9-4.53,4.87,15.93,1.22-.09.18H16.08l.83.78a18.71,18.71,0,0,0-1.73,3.05L24.12,17l-.14.22L13.32,20.74l.94.53a22.12,22.12,0,0,0-.86,4.49l9-5.49a2.41,2.41,0,0,0-.08.25l-10,7.88.92.23A21,21,0,0,0,14,33.55L22.14,24a.37.37,0,0,0,.05.23L14.14,36h.76a10.73,10.73,0,0,0,3.94,5,5.66,5.66,0,0,1,.31-4.74c.66-1.34,9.19-18.33,9.19-18.33l-1.42-.76H40.18c1.35,0,2.11.56,2.09,1.33.84-.71,1-2.85-1.81-4.41"/><path id="Fill-7" class="cls-3" d="M41.16,15.26l.17.76c-1.16.21-3.21.39-3.79.43l-.09.18h3.06c1.21,0,1.72.57,1.83.91A2.08,2.08,0,0,0,41.16,15.26Zm-3.4-1.49a8.5,8.5,0,0,1,2.78,1.75H39.45A10,10,0,0,0,37.76,13.77Z"/><path id="Fill-8" class="cls-5" d="M14.84,23.19l6.51-3.56.11-.27-6.27,2.26C15.05,22.13,14.93,22.66,14.84,23.19Zm2.91-7.06a11.27,11.27,0,0,0-.8,1.23l6.37-1.14.17-.22Zm4,11.72-.12-.23-5.29,8a10.64,10.64,0,0,0,.92,1.47Zm-7.06,2.53,5.88-6.56v-.28l-6.06,5.15c.07.57.13,1.14.22,1.69ZM33,22.87l-4.62-.69-.47.91h5A.85.85,0,0,1,33,22.87Zm3.18-8.25L15.09,11.69l1.29-1.4a192.13,192.13,0,0,1,20,4.1Z"/></g></g></svg>