<svg id="Layer_1" data-name="Layer 1" xmlns="http://www.w3.org/2000/svg" viewBox="0 0 48 48"><defs><style>.cls-1{fill:#0a0b09;}.cls-2{fill:#fff;}.cls-3{fill:#8d702f;}.cls-4{fill:#fffffe;}.cls-5{fill:#1f1e46;}.cls-6{fill:#b52532;}</style></defs><title>baltimore_ravens</title><path class="cls-1" d="M43.51,26c-.15-.87-.74-2.16-2.74-3.36a11.57,11.57,0,0,0-1.7-.82l.7-.24-1-.38a11.47,11.47,0,0,0-1.51-.47l.21-.21-.75-.11a9.74,9.74,0,0,0-2.41-.09v-.74l-.13-.93-.52.71A4.49,4.49,0,0,0,32.84,18L32,17l.09.76a10.7,10.7,0,0,0-3.1-2A18.06,18.06,0,0,0,18.14,15a20.2,20.2,0,0,0-11.5,7.51l-1,1.22,1.44-.58A25.46,25.46,0,0,1,12,21.79c.85-.12,1.44,0,1.66.28a1.59,1.59,0,0,1-.18,1.48,21,21,0,0,1-1.31,2.18l-.72,1.05,1.2-.42c1.59-.55,3.59-1,4-.65a.36.36,0,0,1,.19.26,2,2,0,0,1-.38,1.15L15.7,28.2l1.3-.45c2-.71,5.53-1.52,6.63-.68.5.39,0,1.16,0,1.19l-.49.78.91-.14.44-.07V29a4,4,0,0,0,.93,2.72l.52.54.18-.73a3.94,3.94,0,0,1,2.41-3l.11.8.49-.18A6.15,6.15,0,0,0,31.34,28a25.55,25.55,0,0,1,4.46,0,16.51,16.51,0,0,0,5.2-.26,2.56,2.56,0,0,1,1.7.19l.38.2.2-.37a2.93,2.93,0,0,0,.25-1.2,4.51,4.51,0,0,0,0-.52Z"/><path class="cls-2" d="M26.75,35.26l-2.48-2.58a5.42,5.42,0,0,1-1.1-2.13l-3,.47,1.77-2.83a18.08,18.08,0,0,0-4.4,1l-5.7,2,2.64-3.76c-.39.11-.83.24-1.3.4L7.62,29.71l3.31-4.83a16.6,16.6,0,0,0,1-1.55,24.59,24.59,0,0,0-4.27,1.22L.77,27.31l4.71-5.75a21.68,21.68,0,0,1,12.32-8,19.49,19.49,0,0,1,11.74.82l.67.31-.29-2.48,3.81,4.54,1.42-2,.56,4a10.38,10.38,0,0,1,1.25.13l3.68.54-.6.61,4.14,1.57-1.48.51a6,6,0,0,1,2.24,3.34l.07.14L45,26c0,.22,0,.46,0,.68a4.3,4.3,0,0,1-.38,1.73l-.25.47-.71,1.31L42,29.26a1,1,0,0,0-.66-.06,17.92,17.92,0,0,1-5.7.29,23.32,23.32,0,0,0-3.74,0,7.8,7.8,0,0,1-2.3,1.12l-1.85.67a2.46,2.46,0,0,0-.15.53l0,.11Zm-13.93-12Z"/><g id="Team-icons_baltimore_ravens" data-name="Team-icons baltimore ravens"><g id="baltimore_ravens" data-name="baltimore ravens"><path id="Fill-3" class="cls-3" d="M43.51,26c-.15-.87-.74-2.16-2.74-3.36a11.57,11.57,0,0,0-1.7-.82l.7-.24-1-.38a11.47,11.47,0,0,0-1.51-.47l.21-.21-.75-.11a9.74,9.74,0,0,0-2.41-.09v-.74l-.13-.93-.52.71A4.49,4.49,0,0,0,32.84,18L32,17l.09.76a10.7,10.7,0,0,0-3.1-2A18.06,18.06,0,0,0,18.14,15a20.2,20.2,0,0,0-11.5,7.51l-1,1.22,1.44-.58A25.46,25.46,0,0,1,12,21.79c.85-.12,1.44,0,1.66.28a1.59,1.59,0,0,1-.18,1.48,21,21,0,0,1-1.31,2.18l-.72,1.05,1.2-.42c1.59-.55,3.59-1,4-.65a.36.36,0,0,1,.19.26,2,2,0,0,1-.38,1.15L15.7,28.2l1.3-.45c2-.71,5.53-1.52,6.63-.68.5.39,0,1.16,0,1.19l-.49.78.91-.14.44-.07V29a4,4,0,0,0,.93,2.72l.52.54.18-.73a3.94,3.94,0,0,1,2.41-3l.11.8.49-.18A6.15,6.15,0,0,0,31.34,28a25.55,25.55,0,0,1,4.46,0,16.51,16.51,0,0,0,5.2-.26,2.56,2.56,0,0,1,1.7.19l.38.2.2-.37a2.93,2.93,0,0,0,.25-1.2,4.51,4.51,0,0,0,0-.52"/><path id="Fill-4" class="cls-1" d="M40.52,23.11a10.11,10.11,0,0,0-3.05-1.33,3.09,3.09,0,0,1,.91-.14,10.89,10.89,0,0,0-2.11-.54l.25-.23a10.09,10.09,0,0,0-2.63-.14,2.88,2.88,0,0,0,0-1.17,1.7,1.7,0,0,1-.51.73,3,3,0,0,0-.87-2l.12,1A8.58,8.58,0,0,0,29,16.45c-5.45-2.55-15-1.58-20.3,5.22a12.48,12.48,0,0,1,4.88-1.09c1.49,0,1.85.79,1.31,2.2a12.08,12.08,0,0,1-1.5,2.64s6.42-2.27,4.39.89c0,0,4.85-1.45,6.3.25.68.79-.11,1.89-.11,1.89l1.37-.29A3.66,3.66,0,0,0,25.69,31,4,4,0,0,1,29,28l.15.62a4.42,4.42,0,0,0,2-1.25,25.32,25.32,0,0,1,6.09.05A20.53,20.53,0,0,0,42,27.13a1.55,1.55,0,0,1,.74.3s1.16-2-2.18-4.32"/><path id="Fill-6" class="cls-4" d="M38.23,26.82a14.81,14.81,0,0,0,3.25-.32,33.76,33.76,0,0,0-9.85-1.78s-.5.14.08.7c-.81-.32-1.61-.92-1.67-1.23s.53-.42,1.92-.25c5.22.61,9.74,1.49,10.35,2.77,0,0,.32-1.6-2.28-3.13a13.74,13.74,0,0,0-5.65-1.73l.86.7-1.6-.14,1.27.92c-1.37-.44-5-1.65-8.09-.89,0,0,3.34,0,4.87.88-5.65-.93-8.59,1-8.59,1a16.1,16.1,0,0,1,6.55-.54c-1.34.32.23,1.3,1.2,1.81A1.54,1.54,0,0,1,31,26.91a4,4,0,0,0,.5-.91l.78.63c2.34-.29,4.06.2,6,.19"/><path id="Fill-7" class="cls-5" d="M27.55,16.7c-6.18-1.85-12.63-.06-16.21,3.36,0,0,3.61-1.13,4.69,0,1.25,1.3-.65,4.34-.65,4.34l1.24-.19h-.14c1-3.4,1.85-4.59,2.44-5.18a3.54,3.54,0,0,1,1.46-.88,48.23,48.23,0,0,0-6.56.84c2.09-1.62,7-2.76,9.74-2.47s2.61,1.42,2.32,2.07A4,4,0,0,1,23.43,20c1.12.14,1.75,1,1.35,1.86l-.12.21a11.91,11.91,0,0,0-3.11,1.22l-.09.05-.12.07-.09.06-.11.07-.09.05-.11.07-.09.06-.09.07a6.43,6.43,0,0,0-1.5,1.35s7.28-1.47,6,2.2l1.88-.52a6.26,6.26,0,0,1-.63.81,2.84,2.84,0,0,0-.83,1.93s.26-1,1.94-1.73a3.23,3.23,0,0,0,1.89-1.73,2,2,0,0,1,.11,1.9A2.62,2.62,0,0,0,31,27a1.55,1.55,0,0,0-.11-1.28c-1-.51-2.54-1.49-1.2-1.81a16.1,16.1,0,0,0-6.55.54s2.94-2,8.59-1c-1.53-.92-4.87-.88-4.87-.88a10.37,10.37,0,0,1,3.6-.16,15.35,15.35,0,0,0-1.88-.4,11.07,11.07,0,0,0-3.3.11,4.66,4.66,0,0,1,3.25-1,5,5,0,0,0-3.22-.64,7.9,7.9,0,0,1,4.31-.7,4.11,4.11,0,0,0-2.4-1.15c3.34-.13,4.51,1.62,4.51,1.62a3.15,3.15,0,0,0-1.42-.3,2.06,2.06,0,0,1,1.34,1.14c.58,1.08,1.07,1,1.07,1s.91-3.47-5.13-5.27"/><path id="Fill-8" class="cls-4" d="M20.94,23.7l.2-.12.11-.07.09-.06.12-.07.09-.05a11.91,11.91,0,0,1,3.11-1.22l.12-.21c.4-.86-.23-1.72-1.35-1.86a4,4,0,0,0,2.45-1.46c.29-.65.48-1.79-2.32-2.07s-7.65.85-9.74,2.47a48.23,48.23,0,0,1,6.56-.84,3.54,3.54,0,0,0-1.46.88c-.59.59-1.46,1.78-2.44,5.18h.14c.38-.07,1.68-.2,2.38-.26l1.25-.07h.47l.09-.07.09-.06"/><path id="Fill-9" class="cls-1" d="M22.58,19.47c0,.08-.08.16-.13.24a1.48,1.48,0,0,0,.86-.61c.34-.58.08-1-.46-1.06h-.56a1.6,1.6,0,0,0-.28.35c.65,0,.92.33.57,1.08"/><path id="Fill-10" class="cls-1" d="M21.61,22.26a1.52,1.52,0,0,1-.4.54,1.66,1.66,0,0,0,1.13-.9c.42-.9.05-1.27-.62-1.27h-.83l-.18.36H21c.67,0,1,.38.62,1.27"/><path id="Fill-11" class="cls-5" d="M21.21,22.8a1.52,1.52,0,0,0,.4-.54C22,21.37,21.66,21,21,21h-.28q-.41.91-.72,1.86h.72a2.33,2.33,0,0,0,.53-.06"/><path id="Fill-12" class="cls-5" d="M22.45,19.71c.05-.08.09-.16.13-.24.35-.75.08-1.07-.57-1.08a9.41,9.41,0,0,0-.73,1.41h.5a2.52,2.52,0,0,0,.67-.09"/><path id="Fill-13" class="cls-3" d="M25.63,17.68c-.26-.43-.9-.68-2-.74A10.52,10.52,0,0,0,21,17a18.75,18.75,0,0,0-5.74,1.52,32.82,32.82,0,0,1,6.09-.75h1.38a1.25,1.25,0,0,1,1.06.41.83.83,0,0,1-.1,1,2.22,2.22,0,0,1-1,.71l.7-.15a3.54,3.54,0,0,0,2.21-1.26.83.83,0,0,0,0-.81"/><path id="Fill-14" class="cls-3" d="M20.58,20.34h1.15a1,1,0,0,1,1,.45,1.37,1.37,0,0,1-.08,1.29,2.09,2.09,0,0,1-1.94,1.14l-1.31.05A18.12,18.12,0,0,1,20.58,20.34Zm.6,3.21a12.17,12.17,0,0,1,3.05-1.33,1.23,1.23,0,0,0,.19-.31,1.19,1.19,0,0,0,0-.83c-.13-.38-.38-.63-1.19-.82a10.79,10.79,0,0,0-2.6-.14,12,12,0,0,1,.89-1.8,3.47,3.47,0,0,0-2.26.95A11.59,11.59,0,0,0,17,23.82c1.14-.12,2.17-.17,2.17-.17h1.08A7.34,7.34,0,0,0,21.18,23.55Z"/><path id="Fill-15" class="cls-6" d="M30.81,20.67a.78.78,0,0,1-.45,1h-.08a.94.94,0,0,1-1.16-.47.78.78,0,0,1,.45-1h.08a.92.92,0,0,1,1.16.46"/><path id="Fill-16" class="cls-4" d="M29.61,21.28a.57.57,0,0,1,.34-.74H30a.75.75,0,0,1,.42,0,.8.8,0,0,0-.66-.07.59.59,0,0,0-.44.71h0v.06a.67.67,0,0,0,.48.37.57.57,0,0,1-.24-.27"/><path id="Fill-17" class="cls-1" d="M30.77,20.92a.49.49,0,0,1-.29.62h0a.5.5,0,0,1-.64-.28.47.47,0,0,1,.28-.6h0a.49.49,0,0,1,.64.27h0"/></g></g></svg>