<svg id="Layer_1" data-name="Layer 1" xmlns="http://www.w3.org/2000/svg" viewBox="0 0 48 48"><defs><style>.cls-1{fill:#fff;}.cls-2{fill:#b32534;}.cls-3{fill:#27366f;}</style></defs><title>buffalo_bills</title><path class="cls-1" d="M44.41,17.15a3.18,3.18,0,0,0-1.86-2.37h0a7.15,7.15,0,0,0-2.73-.58,12,12,0,0,0-3.13-3l-1.26-.87-.35.53a5.81,5.81,0,0,0-1.71-.26h-1l-.09.23c-.42,0-1,.07-1.67.14l-1.85.19.2.61a24.51,24.51,0,0,0-7.62,3.53l-.44.29-.05.16-2.75,1.29.28.16a28.27,28.27,0,0,0-4.26,2.69l-.37.28-7,.6L2.28,28.7l7.66-1.15A10.85,10.85,0,0,1,7.47,29.5a2.18,2.18,0,0,0-1,1.49l-.08.24a3,3,0,0,1-.92.89l-.85.52.15,1L4.17,35,7.4,39.78l1.47-4,2.38,3.1,2.23-5,6.45-5.18a12.62,12.62,0,0,1,1.93.19l.75.15.12-.11-1.58,4.39,4.34-1.89-.94,3.39,4-1.71h.08a13.55,13.55,0,0,0,4.17-.87,3.43,3.43,0,0,0,1-.61l-.19,1.56,2.74-2.45.18.56,1.74-1.84A11.7,11.7,0,0,0,39.49,28a2.73,2.73,0,0,0,1.93-1.11,5.83,5.83,0,0,0,.7-1.58,2.05,2.05,0,0,1,.55-.87l.11-.12A5.58,5.58,0,0,0,44,21.64,26.16,26.16,0,0,0,44.44,19c0-.12,0-.25.05-.38Z"/><g id="Team-icons_buffalo_bills" data-name="Team-icons buffalo bills"><g id="buffalo_bills" data-name="buffalo bills"><path id="Fill-4" class="cls-2" d="M7.69,22.22,5.11,26.76l33.29-5s-1.16-.88.52-2.27L7.69,22.22"/><path id="Fill-5" class="cls-3" d="M41.48,18.9s-2.6,1.78-1.7,3.31c0,0-.94.52.1,1.26,0,0-1.61.72-1.19-1.27l-26.16,4S12,28.53,8.26,30.78a.65.65,0,0,0-.3.45,1.33,1.33,0,0,1-.31.83A4.45,4.45,0,0,1,6.26,33.4l.07.49-.45,1L7,36.53l1-2.72,2-1.53A11.84,11.84,0,0,1,15.14,28a13.44,13.44,0,0,1,7-.52l.38-.36L27.3,27s.18,0,.06.14a4.57,4.57,0,0,1-2,.82l.09.29s0,.1-.05.13l-1,.4-.66,1.83,1.88-.82.1.08a17.65,17.65,0,0,0,4.1-.39A3.1,3.1,0,0,0,32,27l3.25-.14s.68.14.59.77l-.23,1.84,1.48-1.32.11.34a9.72,9.72,0,0,0,1.41-1.91s1.24,0,1.54-.48a4.59,4.59,0,0,0,.54-1.22,3.54,3.54,0,0,1,.94-1.52,4.13,4.13,0,0,0,.92-2s.4-2.11.4-2.51c0,0,.42-2.08-1-2.7a5.82,5.82,0,0,0-3-.42s-.4-1.38-3.13-3.28l-.2.3a4.38,4.38,0,0,0-2.26-.63l-.07.18s-.8,0-2.56.18l.16.49s-3.62.17-8.75,3.6l-.09.28-.66.31.35.19A26.65,26.65,0,0,0,15,21.1l26.51-2.2"/><path id="Fill-6" class="cls-3" d="M32.31,27.39h1.12a8.6,8.6,0,0,1,.09,2.15A2,2,0,0,1,32.3,30.9a12,12,0,0,1-3.7.77l-.1-.09-1.68.71.55-2a26.36,26.36,0,0,0,2.93-.37,2.77,2.77,0,0,0,2-2.55"/><path id="Fill-7" class="cls-3" d="M18.48,28a9.41,9.41,0,0,0-6.72,3.16,2.49,2.49,0,0,1-1.42,2l.05.37-.67.92L10.91,36l1.35-3,6.22-5"/></g></g></svg>