<svg id="Layer_1" data-name="Layer 1" xmlns="http://www.w3.org/2000/svg" viewBox="0 0 48 48"><defs><style>.cls-1{fill:#fff;}.cls-2{fill:#000105;}.cls-3{fill:#aeb1ad;}.cls-4{fill:#207cb4;}</style></defs><title>carolina_panthers-01</title><path class="cls-1" d="M45.69,18.58l-.15-.08-.34-.88-.63-.29a12.71,12.71,0,0,0-1.72-.54,4.85,4.85,0,0,0,.38-2.86l-.15-.83H41.67a11.88,11.88,0,0,1-2.08-.34,26.06,26.06,0,0,0-9.34-1.54,13.91,13.91,0,0,0-2.23.11,32.36,32.36,0,0,0-7,1.31,7.07,7.07,0,0,1-2.05.19,2.16,2.16,0,0,0-2.14,1.35A2.66,2.66,0,0,0,17,16.37c.1.2.2.4.31.59A48,48,0,0,0,2.44,29.19,11.59,11.59,0,0,0,1.26,31L.13,33.19l3.17-.77a32.33,32.33,0,0,1,3.36-.58l.5-.05h.11a34.09,34.09,0,0,1,5.89-.06,19.83,19.83,0,0,1,2.41.3,22.52,22.52,0,0,1,4.34,1.2l2.67,1,.21.09c3.91,1.57,7.28,2.93,11.28,2.93h.58A4.81,4.81,0,0,0,36.07,37l.91-.28-.37-1.54c-.06-.29-.12-.58-.16-.9-.11-.55-.23-1.19-.38-1.85a5.24,5.24,0,0,0,2-3.82,6.45,6.45,0,0,0,0-1.7,18.25,18.25,0,0,0,3.36-5.27,26.5,26.5,0,0,1,4.68.9l.24.07.07-.24a6.72,6.72,0,0,0,.29-1.61l.83-.47Z"/><g id="Team-icons_carolina_panthers" data-name="Team-icons carolina panthers"><g id="carolina_panthers" data-name="carolina panthers"><path id="Fill-4" class="cls-2" d="M41.77,15a.09.09,0,0,1,0-.07h0c-.06-.18-.18-.19-.44-.17s-.72.12-1,.15h-.82a2.91,2.91,0,0,1,1.07,1.85h0A4.19,4.19,0,0,0,41.72,15"/><path d="M40.49,17v-.23a2.82,2.82,0,0,0-1-1.77l-.28-.22h1.18l.44-.07a5.21,5.21,0,0,1,.55-.08c.22,0,.47,0,.57.25h0l-.13.06h.09a4.29,4.29,0,0,1-1.18,1.81Zm-.65-2a3.06,3.06,0,0,1,.82,1.48A4,4,0,0,0,41.6,15h0c0-.06-.07-.07-.3-.06l-.52.08-.48.07Z"/><path id="Fill-5" class="cls-3" d="M31.77,21a5.62,5.62,0,0,1-.33,3.29,9.65,9.65,0,0,0,1.88-2.76,5.33,5.33,0,0,1,2.69,0A4.73,4.73,0,0,1,35.73,24a6.3,6.3,0,0,0,1.47-2.94s-.4-.37-2.18-.5a7.94,7.94,0,0,0-3.24.45"/><path d="M31.07,24.85l.26-.61A5.53,5.53,0,0,0,31.65,21h.13v-.11A7.85,7.85,0,0,1,35,20.44c1.77.12,2.21.49,2.26.53l.05.05v.06a6.32,6.32,0,0,1-1.5,3l-.47.53L35.6,24a4.48,4.48,0,0,0,.29-2.32,5.24,5.24,0,0,0-2.49,0,9.9,9.9,0,0,1-1.88,2.74Zm.85-3.76a6,6,0,0,1-.15,2.66,10.14,10.14,0,0,0,1.44-2.27v-.06h.06a5.34,5.34,0,0,1,2.75,0h.08v.08A4.76,4.76,0,0,1,36,23.38a5.94,5.94,0,0,0,1-2.27,5,5,0,0,0-2-.43A7.87,7.87,0,0,0,31.92,21.09Z"/><path id="Fill-6" class="cls-3" d="M33.06,26.38a7.53,7.53,0,0,1-1.06,2,3.67,3.67,0,0,0,1.91.27c1.21-.12,1.5-.57,1.61-1a2.65,2.65,0,0,0-.2-1.55,2.21,2.21,0,0,1-.74,1.79,3.69,3.69,0,0,1-1.48,0,2.44,2.44,0,0,0,0-1.51"/><path d="M33.45,28.8a3.9,3.9,0,0,1-1.5-.3l-.14-.07.09-.12a8,8,0,0,0,1-2l.14.05.14-.05a2.56,2.56,0,0,1,0,1.45,3.34,3.34,0,0,0,1.26,0,2,2,0,0,0,.68-1.66l0-.68.28.62a2.65,2.65,0,0,1,.21,1.62c-.11.45-.41,1-1.72,1.1Zm-1.26-.48a3.51,3.51,0,0,0,1.7.21c1.16-.12,1.41-.53,1.51-.91a2.12,2.12,0,0,0,0-.87A2.21,2.21,0,0,1,34.66,28h0a3.63,3.63,0,0,1-1.54,0H33v-.13a2.24,2.24,0,0,0,.08-1.12A7.8,7.8,0,0,1,32.19,28.32Z"/><path id="Fill-7" class="cls-3" d="M30.2,15.05h0a1,1,0,0,0-1,.41c-.23.35-.14.51-.14.51a11.9,11.9,0,0,1,3.47.33,4.64,4.64,0,0,0-2.2-1.23h-.09"/><path d="M32.94,16.53l-.44-.11a11.65,11.65,0,0,0-3.43-.32H29V16s-.11-.24.15-.64a1.12,1.12,0,0,1,1.12-.46v.24a.89.89,0,0,0-.88.36.85.85,0,0,0-.13.31,12.43,12.43,0,0,1,2.92.23,4.62,4.62,0,0,0-1.79-.88h-.06v-.25h.09a4.73,4.73,0,0,1,2.29,1.27Z"/><path id="Fill-8" class="cls-3" d="M39.2,16.21a2,2,0,0,0-1.62-.5,1,1,0,0,0-.73.89c.75-.69,2.35-.39,2.35-.39"/><path d="M36.7,16.91v-.32a1.14,1.14,0,0,1,.83-1,2.07,2.07,0,0,1,1.73.53l.33.29-.43-.08s-1.55-.28-2.25.36Zm1.16-1.09H37.6a.89.89,0,0,0-.55.47A3.33,3.33,0,0,1,38.73,16,1.86,1.86,0,0,0,37.86,15.82Z"/><path id="Fill-9" class="cls-4" d="M22.45,17.72a20.92,20.92,0,0,1,8,.29,3.57,3.57,0,0,1,.54-.42,17.8,17.8,0,0,0-8.49.13"/><path d="M30.49,18.15h-.07a20.79,20.79,0,0,0-7.82-.31h-.13V17.6h.12A18,18,0,0,1,31,17.47l.29.07L31,17.7a2.88,2.88,0,0,0-.52.4Zm-4.78-.81a21.23,21.23,0,0,1,4.7.53l.27-.22a17.8,17.8,0,0,0-5.3-.31Z"/><path id="Fill-10" class="cls-4" d="M22.47,19.14a20.86,20.86,0,0,1,7.22-.27A1.82,1.82,0,0,1,30,18.4a18.29,18.29,0,0,0-7.53.74"/><path d="M22.5,19.26,22.43,19A18.12,18.12,0,0,1,30,18.28h.25l-.17.18a1.86,1.86,0,0,0-.29.44V19h-.1A20.69,20.69,0,0,0,22.5,19.26Zm4.34-.71a21.51,21.51,0,0,1,2.78.18,1.76,1.76,0,0,1,.14-.23,18.08,18.08,0,0,0-4.41.1C25.85,18.57,26.35,18.55,26.84,18.55Z"/><path id="Fill-11" class="cls-4" d="M22.55,20.54a20.94,20.94,0,0,1,7-.68,1.35,1.35,0,0,1,0-.49,18.16,18.16,0,0,0-7,1.17"/><path d="M22.58,20.66l-.07-.24a18.35,18.35,0,0,1,7-1.17h.15v.14a1.69,1.69,0,0,0,0,.45V20H29.5A21,21,0,0,0,22.58,20.66ZM29,19.49a18.09,18.09,0,0,0-3.6.36,21.41,21.41,0,0,1,4-.13.89.89,0,0,1,0-.23Z"/><path id="Fill-12" class="cls-4" d="M13.49,30.22h.71c.52.06,1.06.13,1.6.23a13.09,13.09,0,0,1,4.65-6.73,15.79,15.79,0,0,0-7,6.53"/><path d="M15.89,30.59h-.11c-.56-.1-1.12-.17-1.59-.23h-.7v-.07l-.15-.08a15.72,15.72,0,0,1,7.06-6.58l1.09-.52-1,.73a12.87,12.87,0,0,0-4.61,6.67Zm-2.21-.5h.52c.46.06,1,.12,1.51.22a13.09,13.09,0,0,1,3.76-5.94A15.58,15.58,0,0,0,13.68,30.09Z"/><path id="Fill-13" class="cls-4" d="M35.31,24.05a2.76,2.76,0,0,1,.47-2.26C34,23.32,35.1,24.84,35.62,26a2.34,2.34,0,0,1-.21,2.69c-.52.6-2,.65-3,.47S31,28,30.73,26.72a9.87,9.87,0,0,1,.21-3.34c-.74,1.09-.74,3.34-.16,5.1a3,3,0,0,0,3,2.24,2.67,2.67,0,0,0,2.68-2.64v-.36c-.29-2.13-.89-2.29-1.18-3.64"/><path d="M33.67,30.85a3.1,3.1,0,0,1-3-2.34c-.62-1.89-.55-4.13.18-5.2l.38-.56-.16.66a9.91,9.91,0,0,0-.21,3.3c.32,1.5.78,2.18,1.58,2.33,1.06.19,2.42.1,2.89-.43a2.23,2.23,0,0,0,.19-2.55l-.21-.45c-.55-1.12-1.24-2.51.4-3.91l.84-.73-.66.89A2.63,2.63,0,0,0,35.43,24l-.24.06a2.83,2.83,0,0,1,.05-1.5c-.65,1-.16,2,.28,2.92q.12.24.21.45a2.46,2.46,0,0,1-.22,2.82c-.6.68-2.19.68-3.12.51-1.14-.2-1.54-1.39-1.78-2.53a9.93,9.93,0,0,1,0-2.18,7.83,7.83,0,0,0,.29,3.87,2.87,2.87,0,0,0,2.78,2.16h.11a2.54,2.54,0,0,0,2.54-2.51v-.36a6.45,6.45,0,0,0-.69-2.3,5,5,0,0,1-.48-1.31L35.4,24a5.17,5.17,0,0,0,.47,1.26,7,7,0,0,1,.71,2.39v.38a2.78,2.78,0,0,1-2.79,2.76Z"/><path id="Fill-14" class="cls-4" d="M24,25.14a6.28,6.28,0,0,1-1.87-3.92A5.17,5.17,0,0,0,23,25.46c1.48,1.82,5.09,2,5.09,2A9,9,0,0,1,24,25.12"/><path d="M29.29,27.64l-1.21-.06c-.15,0-3.68-.2-5.18-2a5.33,5.33,0,0,1-.9-4.39l.17-.75.07.77A6.17,6.17,0,0,0,24.08,25h0a9,9,0,0,0,4,2.31ZM22.13,22a5.09,5.09,0,0,0,1,3.35,6.57,6.57,0,0,0,3.76,1.79,9.24,9.24,0,0,1-2.94-2h0A6.38,6.38,0,0,1,22.13,22Z"/><path id="Fill-15" class="cls-4" d="M33.2,17.18c2.14.83,2.11,2.11,2.11,2.11a3.35,3.35,0,0,1,1.83-1.88A5.59,5.59,0,0,0,35.29,17a6.42,6.42,0,0,0-2.09.22"/><path d="M35.17,20v-.7c0-.05,0-1.17-1.93-1.95h-.07v-.2h.07a6.42,6.42,0,0,1,2-.19,5.34,5.34,0,0,1,1.89.41l.27.12-.27.11a3.37,3.37,0,0,0-1.76,1.82Zm-1.51-2.75a3,3,0,0,1,1.7,1.65,3.57,3.57,0,0,1,1.46-1.47,5.84,5.84,0,0,0-1.54-.3,6.29,6.29,0,0,0-1.62.11Z"/><path id="Fill-16" class="cls-4" d="M30.2,15.05a4.65,4.65,0,0,0-2.58.3h0a6.13,6.13,0,0,1,1.54.13,1,1,0,0,1,1-.43"/><path d="M29.22,15.62h-.09a5.48,5.48,0,0,0-1.51-.12h-.68l.63-.27a4.81,4.81,0,0,1,2.65-.3v.24h0a.88.88,0,0,0-.88.38Zm-.87-.38a6.31,6.31,0,0,1,.76.1,1,1,0,0,1,.24-.23A4.81,4.81,0,0,0,28.35,15.24Z"/><path id="Fill-17" class="cls-4" d="M34.39,31.72h0a3.76,3.76,0,0,1-1.7.1,14.45,14.45,0,0,1,2.51,3.9h0a27.14,27.14,0,0,0-.75-3.56l-.06-.44"/><path d="M35.45,36.6l-.36-.83A14.63,14.63,0,0,0,32.6,31.9l-.24-.26.35.06a3.64,3.64,0,0,0,1.64-.1h.14l.08.58a24.23,24.23,0,0,1,.75,3.56ZM33,32a14.47,14.47,0,0,1,1.94,2.89,24.37,24.37,0,0,0-.61-2.69v-.31A4.23,4.23,0,0,1,33,32Z"/><path id="Fill-18" class="cls-2" d="M35.73,24A4.73,4.73,0,0,0,36,21.53a5.33,5.33,0,0,0-2.69,0,9.65,9.65,0,0,1-1.88,2.76A5.62,5.62,0,0,0,31.77,21,7.87,7.87,0,0,1,35,20.55c1.78.13,2.18.5,2.18.5A6.26,6.26,0,0,1,35.73,24Zm-1.15,3.89a2.21,2.21,0,0,0,.74-1.79,2.65,2.65,0,0,1,.2,1.55c-.11.44-.4.89-1.61,1A3.68,3.68,0,0,1,32,28.37a7.53,7.53,0,0,0,1.06-2,2.44,2.44,0,0,1,0,1.51,3.89,3.89,0,0,0,1.52,0Zm1.91-.16a2.65,2.65,0,0,1-2.27,3h-.39a3,3,0,0,1-3-2.23c-.55-1.79-.55-4,.16-5.08a9.69,9.69,0,0,0-.21,3.31c.26,1.21.76,2.24,1.73,2.42s2.43.13,3-.47A2.33,2.33,0,0,0,35.67,26c-.52-1.19-1.58-2.71.16-4.24A2.8,2.8,0,0,0,35.36,24c.24,1.4.84,1.56,1.13,3.72Zm-6.8-8.82a20.86,20.86,0,0,0-7.22.27A18.29,18.29,0,0,1,30,18.43a1.67,1.67,0,0,0-.31.44Zm-.19,1a20.62,20.62,0,0,0-6.95.68,18.16,18.16,0,0,1,7-1.17,1.16,1.16,0,0,0-.05.45ZM23,25.5a5.16,5.16,0,0,1-.85-4.24A6.3,6.3,0,0,0,24,25.18a9.11,9.11,0,0,0,4.07,2.34s-3.61-.24-5.09-2.06Zm8-7.9a3.57,3.57,0,0,0-.54.42,21.12,21.12,0,0,0-8-.3A17.75,17.75,0,0,1,31,17.56Zm-3.31-2.22h0a4.35,4.35,0,0,1,4.87,1,11.79,11.79,0,0,0-3.5-.38s-.09-.16.14-.51a6.62,6.62,0,0,0-1.54-.11Zm10,.37a2,2,0,0,1,1.62.5s-1.6-.3-2.35.39a1,1,0,0,1,.66-.92ZM40,19.26a2.29,2.29,0,0,0-.12-.37,2.26,2.26,0,0,0-.16-.26q-.16-.18-.33-.33a2,2,0,0,0-.65-.35h0a1.31,1.31,0,0,1,.54,1,2.18,2.18,0,0,1-1.38,2,2.11,2.11,0,0,0,.79-2c-.16-1-1.45-1.47-1.45-1.47a3.35,3.35,0,0,0-1.83,1.88s0-1.28-2.11-2.11a6.32,6.32,0,0,1,2-.25,5.4,5.4,0,0,1,1.85.45s.2-.53,1.26-.71a6.56,6.56,0,0,1,2.21.08,2.62,2.62,0,0,0-1.52-1.38,2.76,2.76,0,0,0-2,0,1.71,1.71,0,0,0-.85-1c-1.25-.81-4.58-1.3-5.22-1.33s.48.38.93.63,1.08.79,1.13,1.26a.75.75,0,0,1-.07.33,2.11,2.11,0,0,0-.31-.52c-.91-1.17-3.23-1.67-5-1.56a9.6,9.6,0,0,0-3.11.77c0,.16-.64.72-2.46.92a10.79,10.79,0,0,1-3.4-.19h0c-.17,0-.31,0-.36.11h0a.37.37,0,0,0,0,.21h0a7.31,7.31,0,0,0,1.79,2.16s.58-.12,1.27-.2c0,0-10.65,5.19-15,13.29a34.84,34.84,0,0,1,7-.13h0a15.79,15.79,0,0,1,7-6.53,13.12,13.12,0,0,0-4.64,6.83,22.89,22.89,0,0,1,4.67,1.27c5,1.94,9.17,4,13.9,3.92h.8a14.82,14.82,0,0,0-2.49-3.81,3.76,3.76,0,0,0,1.7-.1l.18-.08a3.84,3.84,0,0,0,1.93-3.25,5.63,5.63,0,0,0-.06-1.92s2.68-3.51,3.36-6.28a3.35,3.35,0,0,0,0-1Z"/><path d="M34.13,35.81c-3.88,0-7.34-1.39-11.32-3l-2.36-.93a22.62,22.62,0,0,0-4.64-1.27h-.14v-.13a13.32,13.32,0,0,1,3.82-6.17,15.45,15.45,0,0,0-6,6v.07h-.08a34.12,34.12,0,0,0-7,.12H6.18l.11-.21c3.7-6.89,12-11.72,14.41-13l-.54.1h-.11a7.57,7.57,0,0,1-1.82-2.2.51.51,0,0,1,0-.3c.09-.21.3-.21.48-.21a10.73,10.73,0,0,0,3.39.2c1.76-.2,2.32-.72,2.35-.81V14h.07a9.29,9.29,0,0,1,3.15-.78c1.82-.12,4.17.4,5.11,1.6l.14.21a2.3,2.3,0,0,0-1-1.09l-.49-.24c-.57-.26-.73-.34-.69-.5S31,13,31.07,13a15.4,15.4,0,0,1,5.28,1.35,1.9,1.9,0,0,1,.86,1,2.87,2.87,0,0,1,2,0,2.77,2.77,0,0,1,1.59,1.45l.11.22h-.25a6.53,6.53,0,0,0-2.16-.08,1.75,1.75,0,0,0-1.11.54c.32.14,1.29.63,1.43,1.53a2.26,2.26,0,0,1-.25,1.44,2,2,0,0,0,.55-1.4,1.15,1.15,0,0,0-.48-.9L38,17.59l.75.24a2.3,2.3,0,0,1,.69.37c.12.11.23.23.34.35a1.67,1.67,0,0,1,.18.28,1.87,1.87,0,0,1,.13.4l.06.25L40,19.4a2.48,2.48,0,0,1,0,.86,22,22,0,0,1-3.35,6.29,5.57,5.57,0,0,1,0,1.91,4,4,0,0,1-2,3.34l-.19.08A4,4,0,0,1,33,32a14.41,14.41,0,0,1,2.29,3.59l.08.17H34.13ZM16,30.39a23.15,23.15,0,0,1,4.56,1.25l2.35.94c4,1.59,7.39,3,11.23,3H35A15.08,15.08,0,0,0,32.62,32l-.24-.26.35.06a3.69,3.69,0,0,0,1.65-.1l.16-.07a3.79,3.79,0,0,0,1.62-1.93l-.09.13a2.78,2.78,0,0,1-1.84,1.07h0a2.41,2.41,0,0,1-.38,0h-.11a3.12,3.12,0,0,1-3-2.33c-.6-1.94-.52-4.12.18-5.18l.39-.6-.17.7a9.73,9.73,0,0,0-.21,3.27c.3,1.38.85,2.16,1.63,2.31a3.67,3.67,0,0,0,2.89-.44,2.2,2.2,0,0,0,.14-2.52l-.21-.46c-.54-1.13-1.2-2.54.4-3.94l.06-.06a5.17,5.17,0,0,0-2.41,0,10.12,10.12,0,0,1-1.88,2.74l-.47.48.26-.62A5.49,5.49,0,0,0,31.65,21v-.1h.1A8,8,0,0,1,35,20.43c1.77.13,2.21.49,2.25.53l.06.05v.06a.61.61,0,0,1,0,.19l.53-.41a2,2,0,0,0,.7-1.85c-.13-.82-1.11-1.26-1.33-1.35a3.23,3.23,0,0,0-1.71,1.79l-.25.61v-.66s0-1.21-2-2l-.34-.14.35-.1a6.47,6.47,0,0,1,2.1-.25,5.3,5.3,0,0,1,1.8.41,1.86,1.86,0,0,1,1.29-.67,6.7,6.7,0,0,1,2,0,2.47,2.47,0,0,0-1.33-1.09,2.65,2.65,0,0,0-1.92,0h-.12v-.12a1.58,1.58,0,0,0-.79-.93,15.46,15.46,0,0,0-5-1.3l.29.14.5.24c.45.25,1.14.82,1.19,1.36a.76.76,0,0,1-.08.39l-.12.26L33,15.33a1.86,1.86,0,0,0-.29-.49c-.87-1.13-3.18-1.63-4.89-1.51a9.16,9.16,0,0,0-3,.73c-.13.32-1,.78-2.55,1a10.75,10.75,0,0,1-3.44-.19h-.22V15a7.39,7.39,0,0,0,1.7,2.07c.41-.08.82-.15,1.23-.19l.72-.09-.66.32c-.1,0-10.47,5.18-14.82,13a34.88,34.88,0,0,1,6.7-.11,15.75,15.75,0,0,1,7-6.51L21.5,23l-.93.71A13,13,0,0,0,16,30.39Zm17.84.22a2,2,0,0,0,.35,0,2.53,2.53,0,0,0,1.69-1,2.5,2.5,0,0,0,.5-1.87h0a7,7,0,0,0-.67-2.29,6.52,6.52,0,0,1-.33-.83h0a3.5,3.5,0,0,1-.13-.56,2.89,2.89,0,0,1,0-1.43c-.6,1-.13,2,.3,2.91l.2.45a2.46,2.46,0,0,1-.17,2.81c-.65.68-2.22.68-3.12.51s-1.51-1-1.83-2.51a9.74,9.74,0,0,1,0-1.87A8.62,8.62,0,0,0,31,28.46a2.87,2.87,0,0,0,2.78,2.15Zm1.74-6.24a6,6,0,0,0,.36,1,8.78,8.78,0,0,1,.43,1.11h0a23.75,23.75,0,0,0,3.33-6.27,2.8,2.8,0,0,0,0-1L39.65,19l.12.06V19a1,1,0,0,0-.14-.24c-.1-.11-.2-.21-.31-.31l-.07-.05a1.43,1.43,0,0,1,.17.6A2.33,2.33,0,0,1,38,21.1l-.67.26a6.27,6.27,0,0,1-1.43,2.75Zm.35-2.51A2.6,2.6,0,0,0,35.48,24v.21l.09-.23a4.42,4.42,0,0,0,.35-2.12Zm-4-.78a5.7,5.7,0,0,1-.15,2.66,9.53,9.53,0,0,0,1.44-2.26v-.06h.06a5.34,5.34,0,0,1,2.75,0h0l.55-.48a8.15,8.15,0,0,0-4.67.14Zm4.22.48a4.9,4.9,0,0,1-.08,1.83,6.3,6.3,0,0,0,1-2.28,1.85,1.85,0,0,0-.44-.18Zm-2.47-4.28A3.1,3.1,0,0,1,35.42,19a3.54,3.54,0,0,1,1.5-1.49,5.47,5.47,0,0,0-1.6-.36,6.14,6.14,0,0,0-1.66.13ZM33.47,28.8A3.88,3.88,0,0,1,32,28.48l-.14-.06L32,28.3a7.5,7.5,0,0,0,1-2l.12-.35.12.35a2.74,2.74,0,0,1,0,1.45,3.66,3.66,0,0,0,1.32,0,2.14,2.14,0,0,0,.66-1.65l-.05-.68.28.62a2.65,2.65,0,0,1,.21,1.62c-.11.46-.41,1-1.72,1.1A3,3,0,0,1,33.47,28.8Zm-1.28-.49a3.56,3.56,0,0,0,1.71.22c1.15-.11,1.4-.52,1.5-.91a2.12,2.12,0,0,0,0-.87A2.21,2.21,0,0,1,34.66,28l-.2.19V28A4,4,0,0,1,33,28h-.14v-.13a2.41,2.41,0,0,0,.09-1A7.08,7.08,0,0,1,32.19,28.31Zm-4.13-.67c-.15,0-3.64-.26-5.15-2.07h0A5.26,5.26,0,0,1,22,21.23l.18-.75.06.77a6.14,6.14,0,0,0,1.82,3.84,8.88,8.88,0,0,0,4,2.31Zm-5-2.33.06.07a6.63,6.63,0,0,0,3.69,1.82A9.14,9.14,0,0,1,24,25.27a6.3,6.3,0,0,1-1.76-3.2A5,5,0,0,0,23,25.31Zm-.44-4.6-.07-.24a18.55,18.55,0,0,1,7-1.18h.17v.16a1.07,1.07,0,0,0,0,.4V20h-.13a20.7,20.7,0,0,0-7,.71ZM29,19.54a18.62,18.62,0,0,0-3.57.35,21.4,21.4,0,0,1,4-.11v-.24Zm-6.5-.24-.07-.24A18.13,18.13,0,0,1,30,18.31h.26l-.18.19a1.46,1.46,0,0,0-.27.38V19h-.15A20.52,20.52,0,0,0,22.5,19.3Zm4.34-.71a21.32,21.32,0,0,1,2.76.18,1.58,1.58,0,0,1,.15-.24,17.45,17.45,0,0,0-4.45.12C25.81,18.61,26.33,18.59,26.84,18.59Zm3.66-.43h-.07a20.87,20.87,0,0,0-7.95-.3l-.05-.24A18,18,0,0,1,31,17.44h.05l.18.15-.14.1a2.88,2.88,0,0,0-.52.4Zm-4.8-.82a20.84,20.84,0,0,1,4.72.54l.3-.24a17.79,17.79,0,0,0-5.59-.29Zm11.13-.41v-.29a1.14,1.14,0,0,1,.75-1h.09a2.11,2.11,0,0,1,1.68.54l.33.29-.43-.08s-1.55-.28-2.25.36Zm.79-1.08a.89.89,0,0,0-.48.51,3.18,3.18,0,0,1,1.69-.29,1.88,1.88,0,0,0-1.12-.2h0ZM33,16.61l-.42-.11a12.28,12.28,0,0,0-3.47-.38H29v-.07a.58.58,0,0,1,.05-.48,6.83,6.83,0,0,0-1.28-.08h-.06v-.23h0a4.49,4.49,0,0,1,5,1Zm-3.42-.74a12,12,0,0,1,2.6.28,4.21,4.21,0,0,0-3.7-.89,6.83,6.83,0,0,1,.79.11h.19l-.11.16a.85.85,0,0,0-.13.31Z"/><path id="Fill-19" class="cls-4" d="M45.2,21a10.82,10.82,0,0,0-4.7-1.18h0a3.35,3.35,0,0,1,.17-.62h0a9.27,9.27,0,0,1,4.17.63l-.14-.1a9.92,9.92,0,0,0-3.94-.88h0a2.84,2.84,0,0,1,.1-.57h0a9,9,0,0,1,3.24.52v-.08A9.47,9.47,0,0,0,41,18a2.14,2.14,0,0,0-.21-1,3.58,3.58,0,0,0,1.09-2.09h0v-.3h-.22a6.87,6.87,0,0,1-2.42-.44h-.09a24.08,24.08,0,0,0-8.82-1.46h0a18.64,18.64,0,0,0-2.11.11,31.48,31.48,0,0,0-6.73,1.27,9.07,9.07,0,0,1-2.49.23s-.52,0-.63.33-.1.46.1,1a10,10,0,0,0,1.17,1.86C16.75,18.63,9.45,22.72,2.91,31a26.6,26.6,0,0,1,3.55-.61h0c4.32-8.1,15-13.29,15-13.29-.69.08-1.27.2-1.27.2A7.42,7.42,0,0,1,18.36,15h0a.37.37,0,0,1,0-.21h0c.05-.13.19-.14.36-.11h0a10.79,10.79,0,0,0,3.4.19c1.82-.2,2.48-.76,2.46-.92a9.6,9.6,0,0,1,3.11-.77c1.73-.11,4,.39,5,1.56a2.11,2.11,0,0,1,.31.52.75.75,0,0,0,.07-.33c0-.47-.62-1-1.13-1.26S30.37,13,31,13a15.23,15.23,0,0,1,5.22,1.33,1.71,1.71,0,0,1,.85,1,2.76,2.76,0,0,1,2,0,2.62,2.62,0,0,1,1.52,1.38,2.91,2.91,0,0,0-1.07-1.85h.82a5.62,5.62,0,0,0,1-.15c.36-.07.38,0,.44.17h0a.09.09,0,0,0,0,.07,4,4,0,0,1-1.16,1.71h0a6.6,6.6,0,0,0-2.26,0c-1.06.18-1.26.71-1.26.71s1.29.47,1.45,1.47a2.11,2.11,0,0,1-.79,2,2.18,2.18,0,0,0,1.38-2,1.31,1.31,0,0,0-.54-1h0a2,2,0,0,1,.65.35l.33.33a2.26,2.26,0,0,1,.16.26,2.29,2.29,0,0,1,.12.37,2.82,2.82,0,0,1-.07,1c-.68,2.77-3.36,6.28-3.36,6.28h0c2-1.73,3.37-4.78,4-6.32a12,12,0,0,1,4.94.93H45.2"/><path d="M2.59,31.21l.22-.29C9,23,16.11,18.79,19.44,17.46a9.81,9.81,0,0,1-1.08-1.75c-.21-.57-.23-.73-.11-1.09s.73-.41.75-.41A9.24,9.24,0,0,0,21.46,14a31,31,0,0,1,6.75-1.27,17.6,17.6,0,0,1,2.05-.11h.07a24,24,0,0,1,8.84,1.46h.11a6.69,6.69,0,0,0,2.38.44H42v.42A3.63,3.63,0,0,1,40.94,17a2.28,2.28,0,0,1,.19.85,10,10,0,0,1,3,.71h.07V19L44,18.94a9.27,9.27,0,0,0-3-.54,1.91,1.91,0,0,0-.06.33,9.85,9.85,0,0,1,3.85.89l1,.7-1-.37a9.12,9.12,0,0,0-4-.63,2,2,0,0,1-.11.38,11,11,0,0,1,4.31,1l.46.18-.08.24-.2-.05L44.86,21a12.17,12.17,0,0,0-4.35-.74,16.69,16.69,0,0,1-4,6.29l-.92.8.74-1s2.67-3.52,3.34-6.23a2.82,2.82,0,0,0,.07-1,2.19,2.19,0,0,0-.12-.33.79.79,0,0,0-.14-.23l-.32-.32-.06,0a1.41,1.41,0,0,1,.16.6A2.3,2.3,0,0,1,37.81,21l-.82.32.69-.54a2,2,0,0,0,.75-1.88c-.15-.92-1.36-1.37-1.37-1.37h-.12v-.11s.24-.6,1.36-.79a6.7,6.7,0,0,1,2-.05,2.53,2.53,0,0,0-1.3-1,2.62,2.62,0,0,0-1.91,0L37,15.5v-.13a1.58,1.58,0,0,0-.79-.93,14.84,14.84,0,0,0-5.06-1.31l.5.24.4.19c.57.29,1.2.85,1.2,1.37a.85.85,0,0,1-.09.38l-.11.26-.12-.26a1.86,1.86,0,0,0-.29-.49c-1-1.14-3.19-1.62-4.89-1.52a9.44,9.44,0,0,0-3,.74.24.24,0,0,1-.06.09,4,4,0,0,1-2.5.86,10.75,10.75,0,0,1-3.44-.19h-.21a.33.33,0,0,0,0,.14,7.34,7.34,0,0,0,1.75,2.2A11.13,11.13,0,0,1,21.45,17l.73-.09-.67.32c-.1.05-10.69,5.27-14.94,13.24v.06h-.1a28,28,0,0,0-3.53.61ZM18.66,15.76a9.25,9.25,0,0,0,1.08,1.68l.1.14-.15.06C16.49,18.86,9.47,23,3.23,30.8a25.89,25.89,0,0,1,3.15-.53c3.69-6.85,12-11.67,14.38-12.94l-.54.09h-.11A7.66,7.66,0,0,1,18.66,15.76Zm19.23,1.72.75.24a2.3,2.3,0,0,1,.69.37l.34.34a1.75,1.75,0,0,1,.18.29,1.87,1.87,0,0,1,.13.4,2.92,2.92,0,0,1-.07,1.06,18.3,18.3,0,0,1-2.45,5,20.39,20.39,0,0,0,2.85-5.12V20h1c-.27,0-.55,0-.83-.06h-.15v-.14a3.55,3.55,0,0,1,.17-.64v-.08h.08a9,9,0,0,1,1.27,0A9.79,9.79,0,0,0,40.76,19h-.13v-.13a3.16,3.16,0,0,1,.11-.6v-.08h.1V18a1.77,1.77,0,0,0,0-.46l-.36-.79a6.72,6.72,0,0,0-2.1,0,1.76,1.76,0,0,0-1.1.53,2.26,2.26,0,0,1,1.39,1.51,2.26,2.26,0,0,1-.25,1.44A2,2,0,0,0,39,18.84a1.15,1.15,0,0,0-.48-.9Zm2.83-.74v.14a3.2,3.2,0,0,0,.71-1A4.23,4.23,0,0,1,40.72,16.74ZM39.85,15a3,3,0,0,1,.82,1.47,4,4,0,0,0,1-1.5v-.06c0-.1-.06-.1-.29-.06a5.62,5.62,0,0,1-1,.15Zm-1.78,0a3.11,3.11,0,0,1,1,.19,2.78,2.78,0,0,1,1.11.74,2.75,2.75,0,0,0-.79-1l-.28-.23h1.18a3.23,3.23,0,0,0,.44,0,7.72,7.72,0,0,1-1.56-.38h-.11a23.89,23.89,0,0,0-8.78-1.45,18.45,18.45,0,0,0-2.1.1,31.83,31.83,0,0,0-6.7,1.27,9.86,9.86,0,0,1-2.54.24.9.9,0,0,0-.36.08h.11a10.9,10.9,0,0,0,3.37.19c1.77-.2,2.32-.72,2.35-.8v-.1h.08a9.29,9.29,0,0,1,3.15-.78c1.76-.12,4.08.4,5.11,1.6l.15.22c0-.37-.56-.84-1.06-1.1l-.38-.18c-.64-.3-.85-.41-.82-.58s.23-.14.32-.14a15.31,15.31,0,0,1,5.29,1.35,1.84,1.84,0,0,1,.86.94A3.14,3.14,0,0,1,38.07,15Z"/></g></g></svg>