<svg id="Layer_1" data-name="Layer 1" xmlns="http://www.w3.org/2000/svg" viewBox="0 0 48 48"><defs><style>.cls-1{fill:#fff;}.cls-2{fill:#0f151d;}.cls-3{fill:#fffffe;}.cls-4{fill:#b53a2b;}</style></defs><title>chicago_bears</title><path class="cls-1" d="M35.19,24.11l-.39,1.31c-.33,1.36-1.59,2.62-3.74,3.75a14.25,14.25,0,0,1-10.83,0C17.5,27.78,16,26,16.11,24.24s1.88-3.72,4.37-4.65c5.47-2,10.73-.27,12.59,1.53l.44.44H45.27l-.94-2.35c-2.09-5.3-9.27-8.12-12.48-8.68-6.8-1.65-12.8-.53-16.18,1.09A15,15,0,0,0,7.3,19.24,12.49,12.49,0,0,1,5.7,22a7.54,7.54,0,0,1-2.14,1.4l-1.06.46v3h.64a3.49,3.49,0,0,1,2.47.93h0a7.31,7.31,0,0,1,1.4,2l.49.8a11.52,11.52,0,0,0,1.52,2,18.66,18.66,0,0,0,7.06,5,21.33,21.33,0,0,0,8.44,1.77l.87,0c5.78,0,10.14-1.27,14.16-4.12a18.85,18.85,0,0,0,3.63-3.5,9.77,9.77,0,0,0,2.3-5.85V24.11Z"/><g id="Team-icons_chicago_bears" data-name="Team-icons chicago bears"><g id="chicago_bears" data-name="chicago bears"><path id="Fill-1" class="cls-2" d="M16.25,13a13.53,13.53,0,0,0-7.57,6.82A13.87,13.87,0,0,1,6.82,23a8.65,8.65,0,0,1-2.66,1.77L4,24.84v.5h.19a5.24,5.24,0,0,1,2.5,1.38,8.94,8.94,0,0,1,1.69,2.36l.44.7a10.34,10.34,0,0,0,1.34,1.81,17.28,17.28,0,0,0,6.54,4.59,19.73,19.73,0,0,0,8.71,1.62c5.41,0,9.5-1.15,13.27-3.83a17.41,17.41,0,0,0,3.38-3.26A8.19,8.19,0,0,0,44,25.83v-.22H36.31l-.05.17c-.62,2.49-3.13,4-4.57,4.75a15.89,15.89,0,0,1-12.08,0c-3.33-1.67-5.1-3.93-5-6.35s2.23-4.84,5.36-6C26.06,16,31.88,17.89,34.08,20l.06.06h8.91l-.12-.3C41.1,15.11,34.47,12.49,31.55,12c-6.55-1.6-12.2-.5-15.3,1"/><path id="Fill-3" class="cls-3" d="M8.18,22.35a11.42,11.42,0,0,0,.91-1.73l.27-.6a12.3,12.3,0,0,1,4-4.62,19.79,19.79,0,0,1,5.31-2.58,25.38,25.38,0,0,1,17.41,1.39c1.23.57,4.58,2.56,5.94,5.14H34.47C29.22,15.26,22.13,16.3,18.64,18a11.75,11.75,0,0,0-3.26,2.51,5.89,5.89,0,0,0,.35,8.16,12.45,12.45,0,0,0,4.12,2.71A16.4,16.4,0,0,0,32.31,31a8.74,8.74,0,0,0,4.55-4.71h6.36c-.23,1.61-.7,3.28-3.11,5.62l-.27.24a16.49,16.49,0,0,1-5.9,3.64c-5.33,2.07-13.3,1.83-17.78-.53l-.28-.14a16.34,16.34,0,0,1-4.12-2.81,15.73,15.73,0,0,1-3.11-4.05A6.85,6.85,0,0,0,5.26,25a7.29,7.29,0,0,0,2.92-2.67"/><path id="Fill-5" class="cls-4" d="M8.46,23.52c.76-.84,1.35-3,2.55-4.62a14,14,0,0,1,5.61-4.44c3.82-1.87,9.31-2.4,14.69-1.11a17.43,17.43,0,0,1,5.29,2.06,15.52,15.52,0,0,1,3.94,3.18H34.8a12.48,12.48,0,0,0-5.25-2.38,17.56,17.56,0,0,0-8.31.11,13.44,13.44,0,0,0-4.9,2.22c-2.75,2-5.77,7.08-.4,11.54A13.21,13.21,0,0,0,20.8,32.6a18.52,18.52,0,0,0,9,.11,12.11,12.11,0,0,0,5.62-2.94,9.73,9.73,0,0,0,2.06-2.71h4.71a8.69,8.69,0,0,1-2.83,4.39,16.55,16.55,0,0,1-4.56,3.07c-4.88,2.34-12,2.26-16.46.66a15.83,15.83,0,0,1-4.62-2.38,14.17,14.17,0,0,1-3.62-3.9,26.08,26.08,0,0,0-1.55-2.46A4.83,4.83,0,0,0,6.91,25a5.08,5.08,0,0,0,1.55-1.51"/></g></g></svg>