<svg id="Layer_1" data-name="Layer 1" xmlns="http://www.w3.org/2000/svg" viewBox="0 0 48 48"><defs><style>.cls-1{fill:#fff;}.cls-2{fill:#de4e31;}.cls-3{fill:#0a0b09;}</style></defs><title>cincinnati_bengals</title><path class="cls-1" d="M38.86,22.77a6.08,6.08,0,0,0,2-4.88c0-4.33-3.77-7.24-9.37-7.24H12.06l-5,8.75h4.11v7.9H7.09L12.14,36H32.33c6.05,0,9.31-4,9.31-7.91A6.77,6.77,0,0,0,38.86,22.77Z"/><g id="Team-icons_cincinnati_bengals" data-name="Team-icons cincinnati bengals"><g id="cincinnati_bengals" data-name="cincinnati bengals"><path id="Fill-4" class="cls-2" d="M26.72,21.6H23.48V18.48a.61.61,0,0,1,.6-.59h2.64c1.55,0,2.13.79,2.13,1.82S28.27,21.6,26.72,21.6Zm0,7.16H24.08a.58.58,0,0,1-.6-.56v0h0V25.06h3.24c1.55,0,2.13.76,2.13,1.82S28.27,28.76,26.72,28.76ZM36,23.09a.22.22,0,0,1-.16-.25.22.22,0,0,1,.16-.16,4.7,4.7,0,0,0,3.39-4.79c0-3.4-3-5.74-7.87-5.74H12.93L9.67,17.9h2.24a.8.8,0,0,1,.8.8V28a.8.8,0,0,1-.8.8H9.7L13,34.47H32.33c5.53,0,7.81-3.67,7.81-6.37A5.28,5.28,0,0,0,36,23.09Z"/><path id="Fill-5" class="cls-3" d="M19.23,32.85a31.74,31.74,0,0,1-3.06-20.7H12.93L9.67,17.9h2.24a.8.8,0,0,1,.8.8v7.11A25.45,25.45,0,0,0,19.23,32.85Zm16.2-20.06c-3.93,5.83-6.06,13.26-5.11,20a25.34,25.34,0,0,1,9-14.76v-.17C39.34,15.55,37.91,13.71,35.43,12.79Zm-6.59-.64A50.58,50.58,0,0,0,27,17.9H24a.61.61,0,0,0-.6.59V21.6h2.78c-.18,1.11-.33,2.27-.43,3.46H23.48v3.11a.58.58,0,0,0,.57.59H25.7a34.08,34.08,0,0,0,.54,5.71H23.83a33.76,33.76,0,0,1-1.92-22.32Z"/></g></g></svg>