<svg id="Layer_1" data-name="Layer 1" xmlns="http://www.w3.org/2000/svg" viewBox="0 0 48 48"><defs><style>.cls-1{fill:#fff;}.cls-2{fill:#fffffe;}.cls-3{fill:#dd4531;}.cls-4{fill:#1d1610;}</style></defs><title>cleveland_browns</title><path class="cls-1" d="M42.09,27.84l-.09-.2a2.34,2.34,0,0,0-2.78-1.5l-.46.1a15.64,15.64,0,0,1-3.28.06l-1.2-2.92a3,3,0,0,0,.56-.78c.06-.13.12-.26.17-.4A2.39,2.39,0,0,0,36.65,21a2.23,2.23,0,0,0-.14-2.38l-2.13-3.86-1.26.57C28.79,8.92,21.2,7.63,15.58,9.21A15,15,0,0,0,4.23,24.55a19.29,19.29,0,0,0,.94,5.22,20.9,20.9,0,0,0,1.26,3.15A3.73,3.73,0,0,0,6.5,34a12.32,12.32,0,0,0,.69,1.87,2.55,2.55,0,0,0,.72,1.75,3.06,3.06,0,0,0,2.93.78,8.22,8.22,0,0,0,2.91-.9A11.49,11.49,0,0,0,20,39.42a11.76,11.76,0,0,0,1.48-.16,6.75,6.75,0,0,0,4.1-2.13,5.66,5.66,0,0,0,1.31,0,6.76,6.76,0,0,0,2.12-.5,7.49,7.49,0,0,0,3.82,2.23,11.24,11.24,0,0,0,5.93-.07,14.89,14.89,0,0,0,3.52-.88l.22-.1.16-.1a2.79,2.79,0,0,0,1-2.47A26.53,26.53,0,0,0,42.09,27.84Z"/><g id="Team-icons_cleveland_browns" data-name="Team-icons cleveland browns"><g id="cleveland_browns" data-name="cleveland browns"><path id="Path" class="cls-2" d="M42.45,35.36a26.32,26.32,0,0,0-1.56-7.07L40.78,28c-.22-.58-.62-.69-1.26-.61l-.54.06a18.07,18.07,0,0,1-4.41,0l-2-4.83h.08a1.38,1.38,0,0,0,1-.72,2,2,0,0,0,.19-1.06.48.48,0,0,1,.09-.11,1.17,1.17,0,0,0,.61.11.94.94,0,0,0,.79-1.57l-1.52-2.75-1.22.53h-.05C24.7,3.17.64,10.88,6.43,29.37a21.2,21.2,0,0,0,1.39,3.34,2.27,2.27,0,0,0,0,.9,11.81,11.81,0,0,0,.77,2c-.19.71.47,1.75,2.08,1.44a6.94,6.94,0,0,0,3.13-1.17L14,36c3.39,2.64,8.94,2.86,11-.28a6.3,6.3,0,0,0,1.84,0,5.18,5.18,0,0,0,2.59-.8l-.24-.4a5.8,5.8,0,0,1-3.82.74h-.11c.06-.12.11-.24.16-.37-.05.13-.1.25-.16.37h.11a5.8,5.8,0,0,0,3.82-.74l.24.4a6.13,6.13,0,0,0,3.77,2.65,10.35,10.35,0,0,0,5.52-.14.6.6,0,0,0,.58,0l.11-.08a8,8,0,0,0,2.49-.74h0C42.48,36.29,42.45,35.41,42.45,35.36Z"/><path id="Fill-4" class="cls-3" d="M22.27,26c.47.5,1.17,1.21,1.69,1.71a6,6,0,0,1,0-2.24,4.37,4.37,0,0,1,.5-1.27l-.45-1-.47.7s-.64,1-1.3,2.08"/><path id="Fill-5" class="cls-3" d="M24.36,29.37A6.12,6.12,0,0,1,23,28.3L21.67,27,21,28l1.41.93a1.12,1.12,0,0,1,.66.88A2.19,2.19,0,0,1,22.54,31c-.17.22-.69.84-1.37.41l-1.63-1L19,31.2l5.56.89A18.29,18.29,0,0,0,24,29.68a10.83,10.83,0,0,1,.8,2.41l.45.08a2.71,2.71,0,0,0-.13-.63c-.09-.38-.42-1.19-.72-2.17"/><path id="Fill-6" class="cls-3" d="M26.27,22.43a6,6,0,0,1,2.6-.84l.32-.05a1,1,0,0,0,.76-.33.83.83,0,0,0,.08-.49,24.28,24.28,0,0,0-4,1.13,6.55,6.55,0,0,0-1.11.59l.35.77a5.32,5.32,0,0,1,.9-.68l.14-.1"/><path id="Fill-7" class="cls-4" d="M19,36.88a11,11,0,0,1-4.12-1.22,8.9,8.9,0,0,0-2.43-1,9.89,9.89,0,0,1,2.35,1.16,10.51,10.51,0,0,0,4.2,1.3c3.73.23,5.81-1.79,5.92-3.89h-.3c-.31,2.7-3.13,4-5.62,3.7"/><path id="Fill-8" class="cls-4" d="M24.54,32.06h.22a10.83,10.83,0,0,0-.8-2.41,20.12,20.12,0,0,1,.58,2.41"/><path id="Fill-9" class="cls-4" d="M16.13,28.31a1.43,1.43,0,0,0-1,.43,1.81,1.81,0,0,0,.27,2.53,1.9,1.9,0,0,0,1.07.4,1.49,1.49,0,0,0,.47-.07l1-1.48a1.93,1.93,0,0,0-.56-1.24,1.73,1.73,0,0,0-1.25-.56"/><path id="Fill-10" class="cls-4" d="M14.05,32.67a3.42,3.42,0,0,0,4.78.75h0l.32-.26a4,4,0,0,1-5.1-.49"/><path id="Fill-11" class="cls-4" d="M21.34,32.94a.61.61,0,0,1,.57.65h0a.58.58,0,0,1-.15.35.57.57,0,0,0-.18-.79h0a.57.57,0,0,0-.25-.08.54.54,0,0,0-.57.51h0a.61.61,0,0,0,0,.19.59.59,0,0,1,.29-.79A.49.49,0,0,1,21.34,32.94Zm.24.54a.41.41,0,0,0-.51-.07c-.07,0-.14,0-.06-.1a.44.44,0,0,1,.62,0h0c.08.11,0,.18-.1.1Zm-.32.82a.42.42,0,0,1-.4-.41.4.4,0,0,1,.4-.4h0a.38.38,0,0,1,.4.38v0h0A.42.42,0,0,1,21.26,34.3Zm-.43-.2a.52.52,0,0,0,.43.28.47.47,0,0,0,.35-.15.7.7,0,0,0,.45-.68.73.73,0,0,0-.82-.65.74.74,0,0,0-.65.65A.76.76,0,0,0,20.83,34.1Z"/><path id="Fill-12" class="cls-2" d="M21,33.37c-.08.14,0,.23.06.16a.33.33,0,0,1,.47,0h0v.08c.06.14.14,0,.06-.16-.14-.35-.46-.36-.63-.12"/><path id="Fill-13" class="cls-2" d="M21.33,33.1a.57.57,0,0,1,.52.62h0a.58.58,0,0,1-.09.25.61.61,0,0,0-.05-.85h0a.64.64,0,0,0-.35-.14.6.6,0,0,0-.63.54.75.75,0,0,0,.07.33.56.56,0,0,1,.37-.69h.18"/><path id="Fill-14" class="cls-2" d="M21.26,34.21a.33.33,0,0,1-.37-.28.32.32,0,0,1,.24-.37h0a.33.33,0,0,1,.38.27v.05A.32.32,0,0,1,21.26,34.21Zm.4-.32a.38.38,0,0,0-.38-.4h0a.42.42,0,0,0-.41.4h0a.4.4,0,0,0,.4.4h0a.38.38,0,0,0,.4-.38Z"/><path id="Fill-15" class="cls-4" d="M21,33.88h0a.27.27,0,0,0,.37,0h0a.24.24,0,0,1-.35,0S21,33.9,21,33.88Zm.24-.34a.32.32,0,0,0-.37.26h0a.34.34,0,0,0,.28.38.33.33,0,0,0,.37-.28h0a.32.32,0,0,0-.28-.32Z"/><path id="Fill-16" class="cls-2" d="M21.48,34c-.08.21-.33.19-.42-.08h0c0,.36.34.74.5.14h0"/><path id="Fill-17" class="cls-4" d="M15.32,35.12c.5-.65-.46-1.39-.84-.8C14.79,33.35,16.07,34.57,15.32,35.12Zm-.12-.51a.53.53,0,0,0-.29-.26c-.09,0-.06-.16.05-.12a.66.66,0,0,1,.29.23C15.35,34.62,15.25,34.7,15.2,34.61Zm-.66.44a.43.43,0,0,1-.07-.56.4.4,0,0,1,.56.09h0a.42.42,0,0,1,.07.57A.41.41,0,0,1,14.54,35.05Zm0-1.17a.72.72,0,0,0-.23.65.57.57,0,0,0,.14.58.53.53,0,0,0,.61.15.64.64,0,0,0,.4-.11.72.72,0,0,0,0-1A.69.69,0,0,0,14.54,33.88Z"/><path id="Fill-18" class="cls-2" d="M15,34.23c-.12,0-.16.13-.06.15a.59.59,0,0,1,.34.3c0,.1.17,0,.06-.18a.76.76,0,0,0-.34-.27"/><path id="Fill-19" class="cls-2" d="M14.48,34.32c.38-.59,1.34.15.84.8.75-.55-.53-1.77-.84-.8"/><path id="Fill-20" class="cls-2" d="M15,35.11c-.12.08-.31,0-.45-.12a.34.34,0,0,1-.06-.45c.12-.11.33,0,.45.1S15.16,35,15,35.11Zm0-.53a.4.4,0,0,0-.56-.09h0a.49.49,0,0,0,.2.65.54.54,0,0,0,.43,0A.43.43,0,0,0,15,34.58Z"/><path id="Fill-21" class="cls-4" d="M14.93,35.05c-.23,0-.44-.26-.35-.38s.06-.09.07,0A.47.47,0,0,0,15,35Zm-.39-.51a.34.34,0,0,0,.06.45c.14.13.33.2.45.12s0-.35-.06-.47S14.64,34.43,14.54,34.54Z"/><path id="Fill-22" class="cls-2" d="M14.67,34.67c0-.1-.09,0-.09,0s.14.47.42.45c.08,0,.07-.08,0-.09a.54.54,0,0,1-.36-.37"/><path id="Fill-23" class="cls-2" d="M13.54,35.88l.13-.1A2.91,2.91,0,0,0,11,35.54h-.06a4.21,4.21,0,0,1,1-.12,2.75,2.75,0,0,1,1.31.37l-.24.13a7.27,7.27,0,0,1-2.58.73c-.53,0-.42-.27-.08-.44a.81.81,0,0,0,.42-.62h-.14c-.12.82-1.72.73-1.54-.38,0,0-.23-.48-.37-.75v-.18s.39.64.55.84a.68.68,0,0,0,.5.79.67.67,0,0,0,.7-.29c-1,.19-1-.32-1-.48a.11.11,0,0,0,0-.08A14.24,14.24,0,0,1,8.09,33a7.22,7.22,0,0,0,.75,2.4l.06.16c-.23.64.44,1.48,1.64,1.29a7.38,7.38,0,0,0,3-1"/><path id="Fill-24" class="cls-4" d="M30.22,33.78H30l.08.15c0,.1.11.19.16.28a2.54,2.54,0,0,0,.36-.5h-.4"/><path id="Fill-25" class="cls-4" d="M30.8,29.93a6.31,6.31,0,0,1-.17,2.63l.51-.05a5.91,5.91,0,0,0,.2-1.26v-.12l3.82.65s-.25-.57-.32-.76l-3.51-.6v-.55l-.49.06"/><path id="Fill-26" class="cls-4" d="M24.36,29.37c.3,1,.63,1.79.72,2.17a4.7,4.7,0,0,0,.13.63l.59.09a.21.21,0,0,0,0-.11,4.2,4.2,0,0,0,1.41-1.94v-.1h-.1A5.88,5.88,0,0,1,25,29.65a18.48,18.48,0,0,1,.49,2.08c-.13-.56-.44-1.32-.72-2.18l-.31-.17"/><path id="Fill-27" class="cls-4" d="M24,27.69l.23.22h.06a5.16,5.16,0,0,1,.35-3.48l-.13-.29a4.37,4.37,0,0,0-.5,1.27,6,6,0,0,0,0,2.24"/><path id="Fill-28" class="cls-2" d="M30.4,26.82c-.23-1.08,0-3.08.8-3.65-1.12.14-1.43,2.95-.8,3.65"/><path id="Fill-29" class="cls-4" d="M26.64,29l-1.93-4.26a6.31,6.31,0,0,0-.17,3.47,4.19,4.19,0,0,0,2.09.79"/><path id="Fill-31" class="cls-2" d="M39.59,37.15a3.31,3.31,0,0,0,0-.77c2.38-.5.12-.72.12-.72.53.16.51.35.51.35a2.71,2.71,0,0,1-.63-.13v-.75a5.69,5.69,0,0,0,1.35.34c.66.14.34.41.34.41-.34.42-1.57.59-1.57.59,2.06-.27,1.87-.83,1.87-.83.85.55,0,.94-.41,1.06Zm-1.14-1.51v.46a.33.33,0,0,1-.15.33c-3,.8-6.48.39-8.07-2.2,0-.09-.11-.18-.16-.28L30,33.8h.6c1.59-.17,3.48-.42,5.12-.7A6.1,6.1,0,0,0,38.45,35.64Zm-1.51-2.83.93-.2H38a.21.21,0,0,1,.08.16h0a8.27,8.27,0,0,1,.25,1.39A6.36,6.36,0,0,1,36.94,32.81Zm-1,.22a6.41,6.41,0,0,0,.76-.16,7.31,7.31,0,0,0,1.67,1.66v.86A6.4,6.4,0,0,1,36,33Zm2.71,4.22-.27.12a10.72,10.72,0,0,1-5.16.06,5.84,5.84,0,0,1-4-3.27l-.15-.33h.79c1.45,3.11,5.18,3.68,8.38,2.86a1,1,0,0,0,.37-.13,1.69,1.69,0,0,0,.06-.55,15.68,15.68,0,0,0-.43-3.27.46.46,0,0,0-.1-.25.49.49,0,0,0-.17,0,1.28,1.28,0,0,0-.39,0,64.46,64.46,0,0,1-7.44,1.1h-.77a12.42,12.42,0,0,1-1.92-.15L18.54,32l.48-.65,8.65,1.42a7.88,7.88,0,0,0,2,.1,62.06,62.06,0,0,0,7.68-1,3.69,3.69,0,0,0,.64-.21l-.08-.47s-.42-1.39-.63-1.92h0s-.1-.32-.19-.36H37l-.28.06a77.89,77.89,0,0,1-7.92,1H27.1a5.19,5.19,0,0,1-3.8-1.78s-1.46-1.4-2.05-2a.41.41,0,0,1,.09-.55h0a.31.31,0,0,1,.44,0h0c.25.34,1.72,1.85,2.44,2.53a4.37,4.37,0,0,0,2.5,1.07,12.21,12.21,0,0,0,1.35.07,72.21,72.21,0,0,0,8.43-.94,1.3,1.3,0,0,0,.33-.07v-.1a1.09,1.09,0,0,1,.17-.13.48.48,0,0,1,.5.07,18,18,0,0,1,2,8.85.4.4,0,0,1-.2.34.62.62,0,0,1-.63-.08ZM18,32a.57.57,0,0,1-.41-.26.25.25,0,0,1,0-.24l1.13-1.72a4.13,4.13,0,0,0,.63.47l-1.06,1.6A.33.33,0,0,1,18,32Zm1-3c.31-.44.46-.69.53-.81a.87.87,0,0,0,.27.27c.53.33,1.63,1,2,1.17a1.42,1.42,0,0,1,.41.28.7.7,0,0,1,.15,1l0,0h0a.73.73,0,0,1-1,.24l-.47-.29h0l-.17-.1-1.49-.91h0a.49.49,0,0,1-.29-.64A.47.47,0,0,1,19,29Zm.79-1.26c0,.41.6.73.89.65l1.58,1.06a.71.71,0,0,1,.33.85c0-.36-.48-.66-.48-.66L19.9,28.32a.31.31,0,0,1-.19-.41.33.33,0,0,1,.11-.15Zm.27-.06h0L21,26.2a5.52,5.52,0,0,0,.63.65l-.86,1.37c-.12.09-.36,0-.51-.15s-.23-.22-.13-.37Zm2.29,1.63-1.51-1,.13-.12c.54.35,1.26.82,1.57,1a.68.68,0,0,1,.25.92.81.81,0,0,0-.41-.78Zm7,3.32a3.66,3.66,0,0,1-.81,0c-.24-.46-.5-1.08-1.18-2.57a5.47,5.47,0,0,0,.81,0Zm5.48-1.78-3.46-.6v.17l3.51.6c.07.19.32.76.32.76l-3.82-.65v.18L35.1,32c-1.26.21-2.57.41-4,.56l-.51,0A6.22,6.22,0,0,0,30.76,30l.49-.06c1-.1,2-.23,2.93-.37ZM36,31l-.68-1.62,1.25-.21h0a.25.25,0,0,1,.34.09v.08h0c.15.38.42,1.2.57,1.63H36Zm.34.8-.27-.61h1.54c.11.4-.26.41-.26.41Zm-.18.06c-.23.06-.47.1-.71.14-.14-.27-1-2.45-1-2.45l.71-.11c.3.81.63,1.61,1,2.39ZM24.9,29.64a6,6,0,0,0,2.16.46h.1v.1a4.2,4.2,0,0,1-1.41,1.94.21.21,0,0,1,0,.11l-.59-.09-.45-.08h-.22l-5.56-.89.61-.81,1.68,1c.68.43,1.2-.19,1.37-.41a2.21,2.21,0,0,0,.49-1.09,1.12,1.12,0,0,0-.66-.88L21,28.07,21.67,27c.64.63,1.37,1.33,1.37,1.34a5.9,5.9,0,0,0,1.32,1.07l.31.17c.28.86.59,1.62.72,2.18A19.16,19.16,0,0,0,24.9,29.64ZM23,23c.22-.34.72-.94.65-.86a1,1,0,0,0,.08.37c.08.15.23.53.23.53s-.34.43-.55.76l-1.24,2-.33-.37s-.15-.17-.28-.17C22.18,24.22,22.77,23.28,23,23Zm1.74,1.73L26.64,29a4.22,4.22,0,0,1-2.1-.79,6.23,6.23,0,0,1,.17-3.5Zm-.24-.53.13.29A5.13,5.13,0,0,0,24.25,28h-.06L24,27.73c-.52-.5-1.22-1.21-1.69-1.71.66-1.14,1.27-2.14,1.27-2.14l.45-.7ZM23.86,22a.58.58,0,0,1,.56-.24L27.69,29a5.48,5.48,0,0,1-.81,0l-3-6.61A.35.35,0,0,1,23.86,22Zm1.54-.93a30.27,30.27,0,0,1,5.78-1.48.39.39,0,0,1,.44.29c0,.15,0,.32-.33.36h-.13a29.61,29.61,0,0,0-5.25,1.38,3.57,3.57,0,0,0-1.06.55s-.16-.34-.22-.44a.58.58,0,0,0-.17-.21A5.41,5.41,0,0,1,25.4,21.07Zm5.1-3,.5,1.28h-.24s-.29-.83-.48-1.4a.88.88,0,0,1,0-.64l.22-.1a1.58,1.58,0,0,0,.09.86Zm.1-.9.24-.13h0v.09a1.18,1.18,0,0,0,.09.37c.14.39.89,1.93,1,2.15.43,1.11-.68,1.32-.79.83,1.18-.09.7-1.33,0-1.15-.26-.63-.46-1.26-.46-1.26s-.26-.65-.08-.85Zm1.55,3.19H33s-.21.4-1.11.34c0,.05.24-.12.26-.29Zm2.51-.77h0c.15,0,.23.2.22.35a.31.31,0,0,1-.32.27h0c-.25-.06-.91-.12-1.24-.15a1.75,1.75,0,0,0-.17-.68,11.11,11.11,0,0,1,1.53.26Zm2.07,8.29a.23.23,0,0,0-.21.21c-.48.12-1.6.24-1.6.24l-.23-.52A10,10,0,0,0,36.73,27.88Zm2-.14a11.71,11.71,0,0,1-1.19.14.5.5,0,0,0-.28-.12h0q.74,0,1.44-.06Zm1,0a.3.3,0,0,1,.26.35v0a.32.32,0,0,1-.26.26h-.09c-.22.06-.66.17-1.1.25l-.5.09c-.06-.13-.1-.26-.26-.59a13,13,0,0,0,1.53-.33l.34-.09Zm1,.73c.94,2.65,1.67,6.26,1.46,7.52,0-.16-.25-.46-.68-.55v-.37C41.4,34,41,32,41,32c.61-.2.55-1.44-.48-1.43a12.81,12.81,0,0,0-.61-2,.5.5,0,0,0,.3-.63.48.48,0,0,0-.3-.29s.52-.19.78.78Zm.17,3.33a7.92,7.92,0,0,1-1.73.41s-.12-.44-.17-.67c0,0,1.2-.25,1.67-.42,0,0,0-.16-.24-.15,0,0-1.22.31-1.5.33l-.07-.18,1.39-.29s.74-.25.9.31a.51.51,0,0,1-.28.62Zm-1.24-3.21h0A11.7,11.7,0,0,1,40.14,30l.15.62a11.93,11.93,0,0,1-1.57.25A15.68,15.68,0,0,0,38,29a6.9,6.9,0,0,0,1.61-.4Zm-.12,6.29a19.16,19.16,0,0,0-.41-2.5c.47-.09,1.33-.3,1.64-.38v.13c.16.88.41,2.21.5,3a.67.67,0,0,1,0,.2H41A6.32,6.32,0,0,1,39.54,34.88Zm2.91.47a26.32,26.32,0,0,0-1.56-7.07L40.78,28c-.22-.58-.62-.69-1.26-.61l-.54.06a18.07,18.07,0,0,1-4.41,0l-2-4.83H32.4l2.37,5.61c-.24,0-.48.07-.73.09L31.74,23l-.12.13h0L33.25,27a1.32,1.32,0,0,1-.25-.16,7.56,7.56,0,0,1-2.16-1.94h0v.18a6.38,6.38,0,0,0,2.54,2.29l.36.89a7.1,7.1,0,0,1-3-2.13v.2a6.77,6.77,0,0,0,3,2.17c-.85.11-1.78.22-2.66.31l-.49.05a7.5,7.5,0,0,0-.41-1.21c-.82-1.94-3.05-1-2.89.11-.69-1.5-1.38-3-1.9-4.17a6.34,6.34,0,0,1,1.26-1.05,3.35,3.35,0,0,0-.82.52q-.24.2-.48.42l-.12-.25-.35-.77A6,6,0,0,1,26,21.88a24.28,24.28,0,0,1,4-1.13l.23-.05a.94.94,0,0,1-.8,1.06h-.1c-.39.08-.7.09-.86.15h.37a3.77,3.77,0,0,0,1-.19c.37-.14.65-.39.53-1.07h.2c.1.64,0,1.26-1.24,1.38.21.15,2.15-.21,3.31.06,0,0,.51.18,0,.42,1.08-.24,1.13-1.31.93-2.11h0a3,3,0,0,1,.51.07h.36a.53.53,0,0,0,.65-.35.5.5,0,0,0-.33-.64h0a2.77,2.77,0,0,0-.48-.11h-.11l-1-2.24.56-.25,1.43,2.58c.67,1.06-.44,1.5-1,1.18a.76.76,0,0,0-.19.12,1.24,1.24,0,0,0,.6.12.94.94,0,0,0,.79-1.57l-1.52-2.75-1.22.53a.22.22,0,0,1,.2.14l.21-.09,1,2.13-.52-.06h-.24c-.2-.64-.47-1.44-.65-1.91a1.93,1.93,0,0,0-.34,0h0c.14.27.58,1.61.72,2a2,2,0,0,1,.19.8h-.94a2.47,2.47,0,0,0-.27-.79l-.35-.7-.09-.2-.36-.76h0a3.31,3.31,0,0,1-.12-.42.44.44,0,0,1,.35-.49h.09a.7.7,0,0,1,.65.38h.13A8.21,8.21,0,0,0,31.54,16a14,14,0,0,0-15-5.42c6.74-1,11.88,1.92,14.45,6.25l-.73.38h-.42c-.16,0-.31,0-.2.4a4.56,4.56,0,0,0,.18.52c.07.21.32.84.5,1.38h-.19l-.11-.3c-.21-.53-.46-1.22-.54-1.46a1,1,0,0,1,0-.55s-.26.2,0,.74l.57,1.6h-.23a25.74,25.74,0,0,0-4.47,1.31,4.49,4.49,0,0,0-1.23.68h0a.84.84,0,0,0-.38.26l-.31.28q-.32.36-.6.75c-.2.29-.91,1.41-1.54,2.43a.64.64,0,0,0-.39.68c-.51.83-.81,1.32-.94,1.52a.61.61,0,0,0-.44.27A11.05,11.05,0,0,1,18.76,29a.78.78,0,0,0-.13.56v.09L17.44,31.4a.47.47,0,0,0,0,.46.78.78,0,0,0,.59.37.57.57,0,0,0,.36-.09l6.29,1H25l.5.08.39.06a5.12,5.12,0,0,1-.51,1.91h.11a5.8,5.8,0,0,0,3.82-.74l.24.4A6.13,6.13,0,0,0,33.3,37.5a10.35,10.35,0,0,0,5.52-.14.6.6,0,0,0,.58,0l.11-.08A8,8,0,0,0,42,36.59h0c.48-.3.45-1.18.45-1.23Z"/><path id="Fill-33" class="cls-2" d="M20.16,29.73a.64.64,0,0,0,.55.7.57.57,0,0,0,.36-.06.61.61,0,0,0,.66.54h.11a.64.64,0,0,1-.86-.24h0a.7.7,0,0,1-.08-.2.56.56,0,0,1-.73-.31h0A.61.61,0,0,1,20.16,29.73Zm.12-.14a.42.42,0,0,1,.34-.12,1.15,1.15,0,0,0-.08.41s-.05,0-.08-.07v.12s.05,0,.09.07a1,1,0,0,0,0,.24H20.5A.65.65,0,0,1,20.28,29.59Zm.54-.1a.53.53,0,0,1,.39.49h0a.38.38,0,0,1-.46.3h0a.67.67,0,0,1,0-.2.49.49,0,0,0,.17,0V30a.61.61,0,0,1-.18-.05A1.18,1.18,0,0,1,20.82,29.49Zm.54.5c.47,0,.83.45.59.79h-.08a.54.54,0,0,1-.67-.34v-.13a.47.47,0,0,0,.16-.31Zm-.54.59c0,.06.05.11.07.17h0a1,1,0,0,0,.21.21.68.68,0,0,0,1,0s0,0,0,0h0a.56.56,0,0,0-.12-.78.84.84,0,0,0-.61-.19.69.69,0,0,0-.73-.52h0a.55.55,0,0,0-.55.38.65.65,0,0,0,.05.53A.69.69,0,0,0,20.82,30.58Z"/><path id="Fill-34" class="cls-4" d="M31.85,17.88c-.2-.09-.49-.38-.45-.63.46,0,.59.47.45.63"/><path id="Fill-35" class="cls-4" d="M32.2,18.73a.79.79,0,0,1-.41-.59c.4,0,.64.37.41.59"/><path id="Fill-36" class="cls-4" d="M30.68,18.11s.2.63.46,1.26c.67-.18,1.15,1.06,0,1.15.11.49,1.22.28.79-.83-.08-.22-.83-1.76-1-2.15a1.18,1.18,0,0,1-.09-.37v-.09h0l-.24.13c-.18.2.08.89.08.89"/><path id="Fill-37" class="cls-4" d="M30.19,17.41a.88.88,0,0,0,0,.64c.19.57.48,1.4.48,1.4l.24-.05-.37-1.28a1.6,1.6,0,0,1-.09-.81l-.22.1"/><path id="Fill-38" class="cls-4" d="M33,20.42h-.85a.84.84,0,0,1-.26.49c.9.09,1.11-.48,1.11-.48"/><path id="Fill-39" class="cls-4" d="M21.81,25.45l.33.37,1.24-2c.21-.33.58-.79.55-.76s-.15-.38-.23-.53a1,1,0,0,1-.08-.37c.07-.08-.43.52-.65.86s-.79,1.24-1.44,2.3c.13,0,.28.17.28.17"/><path id="Fill-40" class="cls-4" d="M38.7,27.7a5.66,5.66,0,0,1-1.42.2.55.55,0,0,1,.28.3,5.26,5.26,0,0,0,1.14-.5"/><path id="Fill-42" class="cls-4" d="M37.63,31.14H36.09l.27.61,1-.2s.37,0,.26-.41"/><path id="Fill-43" class="cls-4" d="M35.15,29.39l-.71.11,1,2.45a2.88,2.88,0,0,0,.71-.14c-.37-.79-.7-1.6-1-2.42"/><path id="Fill-44" class="cls-4" d="M36.72,32.88S36.11,33,36,33a6.39,6.39,0,0,0,2.48,2.36V34.5a7.13,7.13,0,0,1-1.72-1.66"/><path id="Fill-46" class="cls-4" d="M41.61,35.66s.19.56-1.87.83c0,0,1.23-.17,1.57-.59,0,0,.32-.27-.34-.41a5.69,5.69,0,0,1-1.35-.34v.75a2.78,2.78,0,0,0,.63.11s0-.19-.51-.35c0,0,2.26.22-.12.72a3.31,3.31,0,0,1,0,.77l1.61-.43c.43-.12,1.26-.51.41-1.06"/><path id="Fill-48" class="cls-4" d="M27.34,30.13c.68,1.49.94,2.11,1.18,2.57a3.66,3.66,0,0,0,.81,0l-1.18-2.54a5.48,5.48,0,0,1-.81,0"/><path id="Fill-49" class="cls-4" d="M26.88,29a4.41,4.41,0,0,0,.81.05l-3.27-7.23h-.17a.49.49,0,0,0-.39.24.33.33,0,0,0,0,.36l3,6.61"/><path id="Fill-50" class="cls-4" d="M39.39,36.93a18,18,0,0,0-2-8.85.48.48,0,0,0-.5-.07.31.31,0,0,0-.17.13v.1a1.3,1.3,0,0,1-.33.07,72.21,72.21,0,0,1-8.43.94,12.21,12.21,0,0,1-1.35-.07,4.37,4.37,0,0,1-2.5-1.07c-.72-.68-2.19-2.19-2.44-2.53a.31.31,0,0,0-.44,0h0a.4.4,0,0,0-.09.54h0c.59.64,2,2,2.05,2A5.17,5.17,0,0,0,27,29.91a16.45,16.45,0,0,0,1.72,0c2.18-.14,5.89-.65,7.92-1l.28-.06H37c.09,0,.18.34.19.36h0c.21.53.63,1.91.63,1.92s.12.43.08.47a3.69,3.69,0,0,1-.64.21,62.27,62.27,0,0,1-7.7,1.07,7.88,7.88,0,0,1-2-.1l-8.65-1.42-.48.65,9,1.47a12.42,12.42,0,0,0,1.92.15h.77a64.63,64.63,0,0,0,7.44-1.16,1.27,1.27,0,0,1,.39,0h.17a.46.46,0,0,1,.1.25A15.83,15.83,0,0,1,38.63,36a1.69,1.69,0,0,1-.06.55,1,1,0,0,1-.37.13c-3.2.82-6.93.25-8.38-2.86H29l.15.33a5.84,5.84,0,0,0,4,3.27,10.72,10.72,0,0,0,5.16-.06c.28-.1.27-.12.27-.12a.67.67,0,0,0,.52,0,.4.4,0,0,0,.2-.34"/><path id="Fill-51" class="cls-4" d="M20,29.74a.55.55,0,0,1,.55-.38h0a.69.69,0,0,1,.73.52.84.84,0,0,1,.61.19.56.56,0,0,1,.12.78.68.68,0,0,1-1,.15h0a1,1,0,0,1-.21-.21h0c0-.06-.05-.11-.07-.17a.69.69,0,0,1-.73-.31A.75.75,0,0,1,20,29.74Zm-.9.17h0l1.48.91.17.1h0l.47.29a.73.73,0,0,0,1-.24.7.7,0,0,0-.09-1h0a1.42,1.42,0,0,0-.41-.28c-.32-.17-1.42-.84-2-1.17a.87.87,0,0,1-.27-.27c-.07.12-.22.37-.53.81a.65.65,0,0,0-.15.52.66.66,0,0,0,.36.3Z"/><path id="Fill-52" class="cls-4" d="M22.54,29.28a14.36,14.36,0,0,0-1.57-1l-.13.12,1.51,1a.81.81,0,0,1,.44.84.7.7,0,0,0-.19-1l-.05,0h0"/><path id="Fill-53" class="cls-4" d="M19.88,28.37c.52.33,2.21,1.32,2.21,1.32s.46.3.48.66a.71.71,0,0,0-.33-.85l-1.58-1.06c-.29.08-.92-.24-.89-.65-.16.14-.19.39.11.58"/><path id="Fill-54" class="cls-4" d="M21.17,30.32a.55.55,0,0,0,.59.49H22c.24-.34-.12-.81-.59-.79a.45.45,0,0,1-.19.33"/><path id="Fill-55" class="cls-4" d="M20.9,30.44a.65.65,0,0,0,.75.52.62.62,0,0,0,.19-.07.61.61,0,0,1-.74-.4v-.12a.63.63,0,0,1-.84-.28.65.65,0,0,1-.07-.36.57.57,0,0,0,.34.72.68.68,0,0,0,.4,0"/><path id="Fill-56" class="cls-4" d="M39.26,27.77a13,13,0,0,1-1.53.33c.16.33.2.46.26.59l.5-.09c.44-.08.88-.19,1.1-.25h.09a.32.32,0,0,0,.26-.37.3.3,0,0,0-.26-.26,2.66,2.66,0,0,0-.39.07"/><path id="Fill-57" class="cls-4" d="M40.22,30.79l-1.39.29.07.18a12.51,12.51,0,0,0,1.5-.33c.23,0,.24.15.24.15-.47.17-1.67.42-1.67.42a2.54,2.54,0,0,0,.17.67,7.92,7.92,0,0,0,1.73-.41c.41-.17.25-.66.25-.66-.16-.56-.9-.31-.9-.31"/><path id="Fill-58" class="cls-4" d="M39.89,28.5a12.81,12.81,0,0,1,.61,2c1,0,1.09,1.23.48,1.43,0,0,.39,2,.5,3.07v.37c.43.09.68.39.68.55.21-1.26-.52-4.87-1.46-7.52-.26-1-.82-.85-.82-.85a.48.48,0,0,1,.3.62h0a.48.48,0,0,1-.3.29"/><path id="Fill-59" class="cls-4" d="M36.54,28.05a.23.23,0,0,1,.21-.21,10.27,10.27,0,0,1-2-.07l.23.52s1.12-.12,1.6-.24"/><path id="Fill-60" class="cls-4" d="M18.24,31.88l1.08-1.61a4.13,4.13,0,0,1-.63-.47l-1.15,1.73a.26.26,0,0,0,0,.24A.56.56,0,0,0,18,32a.33.33,0,0,0,.29-.15"/><path id="Fill-61" class="cls-4" d="M24.63,21.76c.06.1.22.44.22.44a3.57,3.57,0,0,1,1.06-.55,29.61,29.61,0,0,1,5.25-1.38h.13a.3.3,0,0,0,.33-.26.17.17,0,0,0,0-.1.39.39,0,0,0-.44-.29A30.27,30.27,0,0,0,25.4,21.1a4.17,4.17,0,0,0-.94.48c.07,0,.08,0,.17.21"/><path id="Fill-62" class="cls-4" d="M20.65,28.2l.89-1.32a6.32,6.32,0,0,1-.56-.6l-.9,1.48h0c-.1.12.06.29.1.32s.39.24.51.15"/><path id="Fill-63" class="cls-4" d="M33.31,20.11a7.37,7.37,0,0,1,1.24.15.3.3,0,0,0,.34-.25h0c0-.15-.07-.33-.22-.35h0a12.92,12.92,0,0,0-1.52-.21,1.75,1.75,0,0,1,.17.68"/><path id="Fill-64" class="cls-4" d="M30.4,26.82c-.63-.7-.32-3.51.8-3.65C30.42,23.74,30.17,25.74,30.4,26.82Zm4.76-7.38-1.43-2.56-.56.25,1,2.24h.11a2.77,2.77,0,0,1,.48.11.52.52,0,0,1,.36.63v0a.53.53,0,0,1-.65.35H34.1a3,3,0,0,0-.51-.07h0c.2.8.15,1.87-.93,2.11.55-.24.07-.41,0-.42-1.16-.27-3.1.09-3.31-.06,1.24-.12,1.34-.74,1.24-1.38h-.2c.12.68-.16.93-.53,1.07a3.77,3.77,0,0,1-1,.19h-.32c.16-.06.47-.07.86-.15.6-.12.94-.38.9-1.07l-.23.05a.83.83,0,0,1-.08.49c-.12.21-.54.3-.76.33l-.32.05a6,6,0,0,0-2.6.84l-.14.1a5.32,5.32,0,0,0-.9.68l.12.25q.24-.22.48-.42a3.35,3.35,0,0,1,.82-.52,6.34,6.34,0,0,0-1.26,1.05c.52,1.14,1.21,2.67,1.9,4.17-.16-1.16,2.07-2.05,2.89-.11a7.17,7.17,0,0,1,.37,1.22l.49-.05a2.18,2.18,0,0,0-.18-.65,8.24,8.24,0,0,1-.2-1.92v-.11a7.1,7.1,0,0,0,3,2.13l-.36-.89A6.38,6.38,0,0,1,30.8,25.1v-.18a3.94,3.94,0,0,1,.74-1.67l.07-.09.12-.13L34,28.41a4.41,4.41,0,0,0,.73-.09l-2.37-5.61h.25a1.38,1.38,0,0,0,1-.72,1.86,1.86,0,0,0,.2-1.11.48.48,0,0,1,.09-.11.76.76,0,0,1,.19-.12C34.72,20.94,35.83,20.5,35.16,19.44Z"/><path id="Fill-65" class="cls-4" d="M20.88,30.11a.49.49,0,0,1-.17,0,.67.67,0,0,0,0,.2.41.41,0,0,0,.5-.28h0a.53.53,0,0,0-.39-.49,1.12,1.12,0,0,0-.11.47.61.61,0,0,0,.18,0v.1"/><path id="Fill-66" class="cls-4" d="M20.59,30.21h.08a1,1,0,0,1,0-.24l-.13-.07v-.12l.13.07a.71.71,0,0,1,.14-.42.8.8,0,0,0-.48.12.5.5,0,0,0,.3.62"/><path id="Fill-68" class="cls-3" d="M16.9,31.6a1.49,1.49,0,0,1-.47.07,1.81,1.81,0,0,1-1.34-2.93,1.43,1.43,0,0,1,1-.43,1.73,1.73,0,0,1,1.25.56,1.88,1.88,0,0,1,.52,1.25Zm2.25,1.56A3.41,3.41,0,0,1,14.32,33l-.27-.32A4,4,0,0,0,19.15,33.16Zm-3.65,2a.64.64,0,0,1-.4.11.53.53,0,0,1-.61-.15.57.57,0,0,1-.14-.58.64.64,0,0,1,.4-.79.62.62,0,0,1,.79.39h0a.72.72,0,0,1,0,1Zm5.83-2.34a.73.73,0,0,1,.73.73h0a.7.7,0,0,1-.45.68.47.47,0,0,1-.35.15.52.52,0,0,1-.43-.28.74.74,0,0,1,0-1A.76.76,0,0,1,21.33,32.82Zm7.9-14.7a1.31,1.31,0,0,0-.1-.32.81.81,0,0,1,0-.38.49.49,0,0,1,.06-.17h0l.08-.07h.05a12.8,12.8,0,0,0-3.57-3.83,13.22,13.22,0,0,0-4.5-2.13h-.06a13.64,13.64,0,0,0-5.65-.34,14.39,14.39,0,0,0-7.3,5.2v.06h0a14.17,14.17,0,0,0-1.86,12A20,20,0,0,0,9.54,35s-.06.81,1.35.39a6.66,6.66,0,0,1,.88-.22,3.09,3.09,0,0,1,2.5.79l.18.13c2.35,1.64,6.19,2.35,8.7,1a4.32,4.32,0,0,0,1.61-1.42h0a2.86,2.86,0,0,0,.4-.8,3.88,3.88,0,0,0,.22-1.51l-.5-.08c-.11,2.1-2.19,4.12-5.92,3.89a10.58,10.58,0,0,1-4.2-1.35,9.89,9.89,0,0,0-2.35-1.16,8.9,8.9,0,0,1,2.43,1A11.23,11.23,0,0,0,19,36.88c2.49.23,5.31-1,5.62-3.7l-6.29-1a.57.57,0,0,1-.36.09.78.78,0,0,1-.59-.37.47.47,0,0,1,0-.46l1.21-1.79v-.09a.78.78,0,0,1,.13-.56,10.51,10.51,0,0,0,.87-1.23A.56.56,0,0,1,20,27.5c.13-.2.43-.69.94-1.52a.64.64,0,0,1,.39-.68c.63-1,1.34-2.14,1.54-2.43a7.88,7.88,0,0,1,.6-.75l.31-.28a.84.84,0,0,1,.38-.26h0a4.89,4.89,0,0,1,1.21-.7,27.32,27.32,0,0,1,4.42-1.22l-.51-1.47a.11.11,0,0,0,0-.08Z"/><path id="Fill-69" class="cls-4" d="M32.36,18.51c.08.37-.19.57-.46.26a1.47,1.47,0,0,1-.21-.39h0a1,1,0,0,1,0-.35l-.18-.2h0a1.15,1.15,0,0,1-.12-.25v-.06h0V17.3a.61.61,0,0,1,0-.19h0a.19.19,0,0,1,.15,0,.79.79,0,0,1,.51.85h0A1.08,1.08,0,0,1,32.36,18.51ZM13.62,35.76l-.08.12a7.57,7.57,0,0,1-3.06,1c-1.2.19-1.87-.65-1.64-1.29l-.06-.16A7.21,7.21,0,0,1,8,33a13.58,13.58,0,0,0,1.34,2.1.11.11,0,0,1,0,.08c0,.16,0,.67,1,.48a.66.66,0,0,1-1.2-.5c-.16-.2-.55-.84-.55-.84v.18l.37.75c-.18,1.11,1.42,1.2,1.54.38h.14a.81.81,0,0,1-.42.62c-.35.17-.44.48.08.44a7.19,7.19,0,0,0,2.63-.81l.24-.13a2.52,2.52,0,0,0-1.31-.37,4.21,4.21,0,0,0-1,.12h.06A2.88,2.88,0,0,1,13.62,35.76ZM33,17.18l-.21.09a.22.22,0,0,0-.2-.14h-.06C24.7,3.17.64,10.88,6.43,29.37a21.2,21.2,0,0,0,1.39,3.34,2.27,2.27,0,0,0,0,.9,11.81,11.81,0,0,0,.77,2c-.19.71.47,1.75,2.08,1.44a6.94,6.94,0,0,0,3.13-1.17L14,36c3.39,2.64,8.94,2.86,11-.28a6.3,6.3,0,0,0,1.84,0,5.18,5.18,0,0,0,2.59-.8l-.24-.4a5.8,5.8,0,0,1-3.82.74h-.11a5,5,0,0,0,.51-1.9l-.39-.07a4,4,0,0,1-.23,1.57,2.86,2.86,0,0,1-.4.8h0a4.32,4.32,0,0,1-1.61,1.42c-2.51,1.31-6.35.6-8.7-1L14.26,36a3.09,3.09,0,0,0-2.5-.79,6.66,6.66,0,0,0-.88.22C9.47,35.82,9.53,35,9.53,35a20.06,20.06,0,0,1-3.19-6.85,14.14,14.14,0,0,1,1.84-12h0v-.06a14.39,14.39,0,0,1,7.36-5.23,13.77,13.77,0,0,1,5.68.2h.06a13.22,13.22,0,0,1,4.5,2.13A12.85,12.85,0,0,1,29.35,17H29.3l-.08.07h0a.49.49,0,0,0-.06.17.81.81,0,0,0,0,.38,1,1,0,0,0,.1.32.06.06,0,0,1,0,.06l.51,1.47H30l-.57-1.6c-.23-.54,0-.74,0-.74a1,1,0,0,0,0,.55c.08.24.33.93.54,1.46l.11.3h.19c-.18-.54-.43-1.17-.5-1.38a4.56,4.56,0,0,1-.18-.52c-.11-.38,0-.39.2-.4h.44L31,16.8c-2.52-4.27-7.66-7.18-14.43-6.19a14,14,0,0,1,15,5.42,7.37,7.37,0,0,1,.65,1.08h-.13a.73.73,0,0,0-.66-.38.4.4,0,0,0-.43.37h0v.11a3.31,3.31,0,0,0,.12.42h0l.36.76.09.2.35.7a2.47,2.47,0,0,1,.27.79h.94a2,2,0,0,0-.19-.8c-.14-.37-.58-1.71-.72-2h.34c.18.47.45,1.28.65,1.91h.24l.51.06Z"/><path id="Fill-71" class="cls-2" d="M32.05,18.73a.89.89,0,0,1-.26-.59.42.42,0,0,1,.3.5h0A.36.36,0,0,1,32.05,18.73Zm-.33-.85a.79.79,0,0,1-.32-.63C31.72,17.24,31.82,17.7,31.72,17.88Zm.64.65a1.06,1.06,0,0,0-.32-.65h0a.79.79,0,0,0-.51-.85.2.2,0,0,0-.15,0h0a.61.61,0,0,0,0,.19v.17h0v.06a1.15,1.15,0,0,0,.12.25v.05l.18.2a1,1,0,0,0,0,.35h0a1.47,1.47,0,0,0,.21.39c.28.39.55.19.47-.18Z"/></g></g></svg>