<svg id="Layer_1" data-name="Layer 1" xmlns="http://www.w3.org/2000/svg" viewBox="0 0 48 48"><defs><style>.cls-1{fill:#fff;}.cls-2{fill:#101b2e;}.cls-3{fill:#fffffe;}</style></defs><title>dallas_cowboys</title><polygon class="cls-1" points="47.8 18.25 29.71 18.25 23.98 1.16 18.26 18.25 0.16 18.25 14.96 28.85 9.3 46.03 23.98 35.53 38.67 46.03 33 28.85 47.8 18.25"/><g id="Team-icons_dallas_cowboys" data-name="Team-icons dallas cowboys"><g id="dallas_cowboys" data-name="dallas cowboys"><polyline id="Fill-1" class="cls-2" points="23.98 5.88 19.34 19.75 4.83 19.75 16.73 28.27 12.16 42.14 23.98 33.69 35.81 42.14 31.23 28.27 43.13 19.75 28.63 19.75 23.98 5.88"/><polyline id="Fill-4" class="cls-3" points="23.98 9.7 20.25 20.93 8.5 20.93 18.14 27.84 14.43 39.07 24.01 32.23 33.53 39.07 29.83 27.84 39.47 20.93 27.72 20.93 23.98 9.7"/><polyline id="Fill-5" class="cls-2" points="23.98 13 21.05 21.88 11.77 21.88 19.38 27.33 16.45 36.21 24.02 30.8 31.51 36.21 28.58 27.33 36.2 21.88 26.92 21.88 23.98 13"/></g></g></svg>