<svg id="Layer_1" data-name="Layer 1" xmlns="http://www.w3.org/2000/svg" viewBox="0 0 48 48"><defs><style>.cls-1{fill:#fff;}.cls-2{fill:#111c2e;}.cls-3{fill:#df4f2a;}.cls-4{fill:#fffffe;}</style></defs><title>denver_broncos</title><path class="cls-1" d="M24,37.9a1.81,1.81,0,0,1-1.05-.32,1.75,1.75,0,0,1-.72-1.08l-.65-2.22a7,7,0,0,0-1.73-2.88,10.78,10.78,0,0,0-5.51-2.47,33.5,33.5,0,0,1-5.59-1.46,9.61,9.61,0,0,1-3-1.73A9,9,0,0,1,2.33,19.2L2,14l3,4.26s.91,1.17,1.48.82l0,0a5.57,5.57,0,0,1-.33-1.26,8.08,8.08,0,0,1,.21-2.91,7.74,7.74,0,0,1,1.69-3.11L9.52,10.2l1.49.42,1.3,1.84c.28.39,1.19,1.3,1.61,1.06a24.42,24.42,0,0,1,3.68-1.69l.11,0a9.67,9.67,0,0,1,4.69-.08A10.23,10.23,0,0,1,26,13.4a14.86,14.86,0,0,1,3.22,3.26,8.4,8.4,0,0,1,5.56,2.55l6.66,3-.87.57c1.18.76,2.17,1.43,2.7,1.86l2.36,1.12L45,27.57v.05l1,.73-2.36,6.26-1.7-2.23-1.17,1-5-.32V31.43a3.69,3.69,0,0,0-1.15-.77,8.05,8.05,0,0,1-2.17.44,6.82,6.82,0,0,1-3.67-.83,7.38,7.38,0,0,0-1.07.58,3.77,3.77,0,0,0-1.78,2.87s-.12,1.31-.17,2.4a1.73,1.73,0,0,1-1.55,1.77H24Z"/><g id="Team-icons_denver_broncos" data-name="Team-icons denver broncos"><g id="denver_broncos" data-name="denver broncos"><path id="Fill-1" class="cls-2" d="M24.26,36.16a.22.22,0,0,1-.2.24h0a.33.33,0,0,1-.27-.06.21.21,0,0,1-.1-.17h0L23,33.86a8.47,8.47,0,0,0-2.15-3.56,12.32,12.32,0,0,0-6.32-2.86,32.26,32.26,0,0,1-5.3-1.38A8.12,8.12,0,0,1,6.74,24.6a7.48,7.48,0,0,1-2.91-5.49s1.67,2.35,3.49,1.22a2.56,2.56,0,0,1,1.49-.45,4.29,4.29,0,0,1-1.09-2.31,6.48,6.48,0,0,1,.17-2.32,6.26,6.26,0,0,1,1.36-2.49s-.4,3.42,1.24,4.64a3.15,3.15,0,0,0,2,.34A3.15,3.15,0,0,1,11,15.09a5.84,5.84,0,0,1,.08-1.77s1.79,2.54,3.59,1.5a22.76,22.76,0,0,1,3.44-1.58,8,8,0,0,1,3.95-.07,8.61,8.61,0,0,1,3.08,1.44,13.29,13.29,0,0,1,3.29,3.52S32,18,33.88,20.44h0l4.46,2-.51.33h0c1.44.92,4,2.55,4.66,3.13h0l1.28.61-.23.61h0c0,.05-.37,1,.29,1.53l.33.24h0l-1,2.66-.26-.34c-1.4-1.93-2.72-2.29-3.39-2.3s-.81.38-.71.55c.3.56,2,.85,2.61.92l.43.05-1.63,1.46-2.94-.19h0v-.58h0c0-.11-.21-1.1-2.62-2.09h0a6.49,6.49,0,0,1-2.29.57,5.3,5.3,0,0,1-3.42-1h0a8.85,8.85,0,0,0-2.05,1,5.23,5.23,0,0,0-2.45,4s-.13,1.35-.18,2.48"/><path id="Fill-4" class="cls-3" d="M14.65,18c-2.11.65-3.61.65-4.58,0S8.75,16.44,8.7,14.73a4.57,4.57,0,0,0,.59,4.61,4.92,4.92,0,0,0,3.34,1.49,27.24,27.24,0,0,1,8.29-2.36c-.76-1.29-3-1.44-6.27-.44"/><path id="Fill-5" class="cls-3" d="M24.86,15.35A8.08,8.08,0,0,0,22,13.93a7.21,7.21,0,0,0-3.69,0A24.71,24.71,0,0,0,15,15.44a2.7,2.7,0,0,1-3.42-.73h0a4.74,4.74,0,0,0,.33,1.17A2.65,2.65,0,0,0,13,17.13a4,4,0,0,0,3.43-.19,6.66,6.66,0,0,1,4-.6,3.76,3.76,0,0,1,2.34,2,23.84,23.84,0,0,1,5.2.37,13,13,0,0,0-3-3.35"/><path id="Fill-6" class="cls-4" d="M42.69,27.74a2.55,2.55,0,0,1,.15-.86l-.76-.36h0c-.47-.51-5.55-3.71-5.6-3.74h0l.37-.25L33.4,21h0c-1.4-2-4.17-2.14-4.7-2.13,1.05.32,1.38.64,1.46.85s0,.24,0,.24h0c-11.89-3.25-21.62,4.21-22,4.53.47.47,1.52,1.11,5.29,1.94A17.47,17.47,0,0,1,24.31,23.1l-1-1.48a31.74,31.74,0,0,1,5.89,2.16,3.38,3.38,0,0,0,5.55,2.92l2.69,1.71-2.58-1a4.39,4.39,0,0,1-7-3.14c-5.82-1.46-10.1,2.21-11,3a16.45,16.45,0,0,1,1.91.75,10.85,10.85,0,0,1,1.9,1.16,7,7,0,0,1,5.44-2.36S23,27.68,22,30.31a9.57,9.57,0,0,1,1.75,3.25,5.54,5.54,0,0,1,1-2.77A6.81,6.81,0,0,1,26.51,29a9.37,9.37,0,0,1,2.58-1.21h0a5.1,5.1,0,0,0,5.53.43h0a8.7,8.7,0,0,1,2,1,4.31,4.31,0,0,1,1,1,1.54,1.54,0,0,1,.38.94l2,.13.57-.49c-1.77-.23-2.31-.78-2.42-1.25-.19-1.14,1-1.28,1.5-1.21a5.92,5.92,0,0,1,3.31,2l.42-1.13a1.8,1.8,0,0,1-.69-1.49"/><path id="Fill-7" class="cls-3" d="M4.92,20.93s.77,3.93,6.43.68c-1.57-.49-1.89-1.56-3.76-.59a2.32,2.32,0,0,1-2.67-.09"/><path id="Fill-8" class="cls-2" d="M35.81,23.16a.44.44,0,0,1-.87-.15.47.47,0,0,1,.13-.24,7.52,7.52,0,0,0-2-.74,10.07,10.07,0,0,1,2.27,2l.42-.29,4,2.23a27.55,27.55,0,0,0-3.95-2.74"/><path id="Fill-9" class="cls-3" d="M34.93,23.06a.44.44,0,1,0,.88.1l-.19-.1-.43.32.12-.49-.24-.12a.47.47,0,0,0-.14.29"/><path id="Fill-10" class="cls-2" d="M35.19,23.39l.5-.33-.36-.17-.14.5"/><path id="Fill-11" class="cls-2" d="M42.13,27c-.94.38.27,1.46.27,1.46-2.63-2.09-.27-1.46-.27-1.46"/><path id="Fill-12" class="cls-2" d="M30.66,20.17c1.7,0,0-.69,0-.69a3,3,0,0,1,1.94,1.33,17.24,17.24,0,0,0-2-.64"/></g></g></svg>