<svg id="Layer_1" data-name="Layer 1" xmlns="http://www.w3.org/2000/svg" viewBox="0 0 48 48"><defs><style>.cls-1{fill:#fff;}.cls-2{fill:#aab0b0;}.cls-3{fill:#fffffe;}.cls-4{fill:#1a6ba2;}</style></defs><title>detroit_lions</title><path class="cls-1" d="M43.76,31l.07,0a2.71,2.71,0,0,0,1.09-.66,3.18,3.18,0,0,0,.6-.92l0-.06a2.85,2.85,0,0,0,.61-1.23,3.56,3.56,0,0,0-2.05-3.73l-.43-.19.39-.25A3,3,0,0,0,45,23l.05-.06a3,3,0,0,0,.63-.78A2.28,2.28,0,0,0,46,21l0-.08a2.75,2.75,0,0,0-.19-2.31l-.08-.13A4,4,0,0,0,43.67,17l-1-.22L44.23,16l-1.17-1.21A13.09,13.09,0,0,0,40.89,13a12.87,12.87,0,0,0-1.32-.71l-.08,0,0-.06a3.49,3.49,0,0,0-.77-.94l-.12-.09a6,6,0,0,0-.74-.44l-.06,0,0-.06a3.18,3.18,0,0,0-1.29-1.09,7.87,7.87,0,0,0-1.18-.42l-.11,0c-.31-.1-.66-.2-1-.36a21.48,21.48,0,0,1-2.84-1.65l-1.4-1L29.3,7.84a.41.41,0,0,0-.05.16v.19l-.18.05A5.94,5.94,0,0,0,27.31,9L25,10.43l-.21.17a7.77,7.77,0,0,0-1.23,1.27.62.62,0,0,1-.37.2h-.15a7.67,7.67,0,0,1-1,.18l-1.43.09L21,13.72a8.45,8.45,0,0,0,.26.81l0,.09,0,.09a4.83,4.83,0,0,0-.3,1.13v.07l-.05.06a9.19,9.19,0,0,0-.78,1l-.31.52-.85-.39V19a5.58,5.58,0,0,0,.24,1.62l0,.11-.13.2a1.63,1.63,0,0,0-.11.17,2.25,2.25,0,0,0-.16.31,1.73,1.73,0,0,1-.45.69c-.22.17-.52.41-.73.59l-.16.1-.48.15a5.27,5.27,0,0,0-1.38.59l-.15.11c-.27.21-.55.46-.83.71l-.16.15-.19-.12a1.48,1.48,0,0,1-.52-.95v-.19a6.63,6.63,0,0,0-1.54-3A6.17,6.17,0,0,0,10.67,19l-.07,0,0-.07a3.41,3.41,0,0,0-1.39-1.52c-1-.67-2.25-.71-3.95-.12a8.84,8.84,0,0,0-3.13,2.11L.68,20.87l2.39.67a3.31,3.31,0,0,1,1.5.53l.06.06a5.06,5.06,0,0,0,1.74,1.48l.16,0a3,3,0,0,0,1.14.23H7.8l.08.11a2.35,2.35,0,0,1,.39,1.12v.21A6.55,6.55,0,0,0,10,28.62a7.73,7.73,0,0,0,1.93,1.31l.15.08v.16a13.37,13.37,0,0,1-.15,1.54.81.81,0,0,1-.18.3,3.43,3.43,0,0,0-1.38,1.9l0,.26a3.17,3.17,0,0,0,.31,1.56l0,.11v1.62a3.26,3.26,0,0,0,1,3,3.09,3.09,0,0,0,2.09.81h0a3.18,3.18,0,0,0,.82-.11h.08a2.74,2.74,0,0,0,2.45-1.25l.05,0a2.74,2.74,0,0,0,.91-2.45,2.84,2.84,0,0,0-.33-1.07l-.12-.22.22-.12a4.66,4.66,0,0,1,.45-.22l.14-.06.12.09a2.8,2.8,0,0,0,1.57.61c.66,0,1.37,0,2.06-.09h.08l.07,0a4.43,4.43,0,0,0,1.22.48h.26a5.62,5.62,0,0,0,1.13-.17H25a3.9,3.9,0,0,0,1.72-.25,2.57,2.57,0,0,0,1.2-1.06l0-.06a2.71,2.71,0,0,0,.7-1,3,3,0,0,0-.32-2.76l-.11-.15.11-.14a3.41,3.41,0,0,0,.28-.42l.08-.15c.11-.27.22-.57.32-.9l0-.13.13,0a6.92,6.92,0,0,0,1.14-.45l.42-.21.27-.16.19.58h.82a6.91,6.91,0,0,0,1.88-.21l.08,0,.07,0a11.88,11.88,0,0,0,3.42.78h.08A3.08,3.08,0,0,1,38,30h.1l.07.07a3.69,3.69,0,0,0,1.44,1,4.06,4.06,0,0,0,1.25.22l.09,0a2.74,2.74,0,0,0,1.52.2A2.59,2.59,0,0,0,43.76,31Z"/><g id="Team-icons_detroit_lions" data-name="Team-icons detroit lions"><g id="detroit_lions" data-name="detroit lions"><path id="Fill-1" class="cls-2" d="M40.23,18.18a1.86,1.86,0,0,1,1.08-.44,1.59,1.59,0,0,1,1.14.41,2.53,2.53,0,0,1,.91.07,2.69,2.69,0,0,1,1.41,1,1.5,1.5,0,0,1,0,1.48,1.07,1.07,0,0,1-.14.76,1.79,1.79,0,0,1-.58.64,1.83,1.83,0,0,1-.91.91,2.3,2.3,0,0,1-1.51,0,6,6,0,0,1-.85.09,3.16,3.16,0,0,1-1-.23s-.44.64-.56.79a4.23,4.23,0,0,0,1.25.73,6.4,6.4,0,0,1,1.47.51,1.68,1.68,0,0,1,.41.43,2.18,2.18,0,0,1,2.18.93,2,2,0,0,1,.4,1.6,1.31,1.31,0,0,1-.46.77,2.23,2.23,0,0,1-.48.83,1.21,1.21,0,0,1-.76.34,1.37,1.37,0,0,1-.89.43A1.55,1.55,0,0,1,41.23,30a3.06,3.06,0,0,1-1.2-.16,2.44,2.44,0,0,1-1.16-.92,3.51,3.51,0,0,0-1.28-.25,10.44,10.44,0,0,1-3.51-.89,5.89,5.89,0,0,1-2,.31,2.53,2.53,0,0,0-.64-1s-1.27.7-1.67.89a5.64,5.64,0,0,1-1.79.55,7,7,0,0,1-.47,1.62,2.63,2.63,0,0,1-1.4,1.16,2.45,2.45,0,0,1,1.11.82,1.69,1.69,0,0,1,.25,1.7,1.4,1.4,0,0,1-.56.64,1.35,1.35,0,0,1-.73.77,2.51,2.51,0,0,1-1.33.13,2.46,2.46,0,0,1-1,.21A2.78,2.78,0,0,1,22.64,35s-1.84.17-2.39.13a1.67,1.67,0,0,1-1.51-1.08,4.53,4.53,0,0,1-.84.52,15,15,0,0,0-2.14,1.2v.36a1.7,1.7,0,0,1,1.07,1.4,1.55,1.55,0,0,1-.66,1.52,1.49,1.49,0,0,1-1.67.82,1.88,1.88,0,0,1-2-.33,2,2,0,0,1-.6-1.92c0-.21.07-2.09.06-2.17a1.91,1.91,0,0,1-.34-1.22,2.12,2.12,0,0,1,.9-1.23,2,2,0,0,0,.66-1,13.16,13.16,0,0,0,.19-1.88c.05-.37.07-1,.07-1a6.23,6.23,0,0,1-2.56-1.45A5.24,5.24,0,0,1,9.53,25a3.44,3.44,0,0,0-1.27-2.5A2,2,0,0,1,7,22.42a3.88,3.88,0,0,1-1.5-1.34,4.5,4.5,0,0,0-2.5-.8,7.48,7.48,0,0,1,2.69-1.81c1.55-.54,2.29-.33,2.8,0a2.32,2.32,0,0,1,1.1,1.44,5.21,5.21,0,0,1,1.7,1.24,5.44,5.44,0,0,1,1.24,2.42,2.68,2.68,0,0,0,2.29,2.35,16.44,16.44,0,0,1,1.45-1.32,4.06,4.06,0,0,1,1.05-.45l.82-.26s1.06-.87,1.24-1c0,0,.39-.71.65-1.12a5.65,5.65,0,0,1,.64-.82,4.47,4.47,0,0,1-.49-2,2.13,2.13,0,0,0,.49.15,2.75,2.75,0,0,1,.48-1.49,7.93,7.93,0,0,1,1-1.17,3.62,3.62,0,0,1,.54-1.84,3.43,3.43,0,0,1-.48-1.15,8,8,0,0,0,1.28-.22,1.89,1.89,0,0,0,1.1-.61A6,6,0,0,1,26.4,11a5.22,5.22,0,0,1,2.46-.49A3,3,0,0,0,28,10a5,5,0,0,1,2.32-.74,4,4,0,0,1,.18-1.19,22.42,22.42,0,0,0,3.07,1.8c1,.4,1.77.53,2.3.79a2,2,0,0,1,1,1,5.31,5.31,0,0,1,1,.53,2.4,2.4,0,0,1,.69,1,12.2,12.2,0,0,1,1.69.86,12.31,12.31,0,0,1,1.91,1.62,3.26,3.26,0,0,0-1.23,1.1,3.85,3.85,0,0,1-.69,1.35"/><path id="Fill-4" class="cls-3" d="M39,18.56a2.94,2.94,0,0,1,.72.08,2.83,2.83,0,0,1,.55.21s.25-.16.38-.27a1.27,1.27,0,0,1,.84-.25,1,1,0,0,1,.64.4h.56a1.88,1.88,0,0,1,1.16.4c.4.31.76.78.28,1.4a1.13,1.13,0,0,1,0,.68,1.15,1.15,0,0,1-.51.44,1.48,1.48,0,0,1-.75.84,1.84,1.84,0,0,1-1.2-.15,4.81,4.81,0,0,1-1.07.12,2.2,2.2,0,0,1-.94-.41,1,1,0,0,0-.21.21c-.1.15-.87,1.24-1.05,1.43a5.62,5.62,0,0,0,1.5,1,7.86,7.86,0,0,0,1.33.41,1.26,1.26,0,0,1,.79.77,3,3,0,0,1,.79-.09,1.63,1.63,0,0,1,1.18.65,1.18,1.18,0,0,1,.33,1.32,1.24,1.24,0,0,1-.41.44,1.21,1.21,0,0,1-.31.72,1,1,0,0,1-.67.21.89.89,0,0,1-.54.41,1.21,1.21,0,0,1-1-.25A3,3,0,0,1,40,29.13a1.87,1.87,0,0,1-.78-.77A5.49,5.49,0,0,0,37.43,28a8.07,8.07,0,0,1-3.32-.94,5,5,0,0,1-1.62.42,2.39,2.39,0,0,0-1-1.15s-1.68.93-2.27,1.21a7,7,0,0,1-1.81.39,1.83,1.83,0,0,1,0,.66,4.89,4.89,0,0,1-.55,1.48,3.31,3.31,0,0,1-1.15.73,11.08,11.08,0,0,0-1.14.42,5.08,5.08,0,0,0-1,.72,5.88,5.88,0,0,0,.73.14,4.08,4.08,0,0,0,.69-.26,1.45,1.45,0,0,1,1.34.16,1.64,1.64,0,0,1,.74,1.22,1,1,0,0,1-.6.8,1,1,0,0,1-.54.67,2.79,2.79,0,0,1-1.15,0,1.71,1.71,0,0,1-.76.25,2.15,2.15,0,0,1-1-.38.63.63,0,0,0-.33-.09c-.15,0-1.77.13-2.27.13a1.14,1.14,0,0,1-1.07-.64c-.21-.39.09-1,.28-1.27s.49-.6.52-.68a.18.18,0,0,0,0-.25h0a3.62,3.62,0,0,0-.43-.24s-.5,1-.69,1.34a2.51,2.51,0,0,1-.91,1c-.47.29-1.47.73-2,1a5.69,5.69,0,0,0-.84.62v1.07a1.72,1.72,0,0,1,.66.26,1,1,0,0,1,.37.8,1,1,0,0,1-.52,1,1,1,0,0,1-.49.62,1.14,1.14,0,0,1-.73,0,1.8,1.8,0,0,1-1,.14,1.29,1.29,0,0,1-1-1.19c0-.54.09-2.51.09-2.64a.72.72,0,0,0-.1-.43,1.88,1.88,0,0,1-.26-.89,1.88,1.88,0,0,1,.6-.82,2,2,0,0,0,.74-.88,5.62,5.62,0,0,0,.3-1.51,23.79,23.79,0,0,1,.18-2.39,6.3,6.3,0,0,1-2.84-1.44A5.76,5.76,0,0,1,10,24.33a3.2,3.2,0,0,0-1.6-2.45,1.62,1.62,0,0,1-1.26,0c-.71-.3-1.09-1.11-1.47-1.39A3.76,3.76,0,0,0,4,20a9.87,9.87,0,0,1,2.08-1.1,2.65,2.65,0,0,1,2.33.1,2.1,2.1,0,0,1,.66,1.25,5.38,5.38,0,0,1,1.87,1.33,5,5,0,0,1,1,2.16,4,4,0,0,0,1.22,2.05,4.17,4.17,0,0,0,1.86.69A18.19,18.19,0,0,1,16.58,25a3.35,3.35,0,0,1,1-.41l.84-.28,1.38-1.17s.68-1.16.87-1.44.69-.92.69-.92a2.09,2.09,0,0,1-.46-1.22,3.38,3.38,0,0,0,.45,0,1.43,1.43,0,0,1-.12-.93,4.65,4.65,0,0,1,1.49-2.11,3.8,3.8,0,0,1,.14-1.11,3.35,3.35,0,0,1,.5-1,2.46,2.46,0,0,1-.42-.8,6.59,6.59,0,0,0,1.16-.22A3,3,0,0,0,25,13a5.24,5.24,0,0,1,2-1.65,5.64,5.64,0,0,1,2.23-.27,6.11,6.11,0,0,1,.79-.44,3.13,3.13,0,0,0-.8-.65,5.34,5.34,0,0,1,1.64-.19,4.3,4.3,0,0,1,.1-.87,18.22,18.22,0,0,0,2,1.27c.62.27,1.81.67,2.21.79a1.6,1.6,0,0,1,1.23,1.12s.66.28.92.42a1.67,1.67,0,0,1,.59.62,3.2,3.2,0,0,0,.17.43.55.55,0,0,0,.3.22,10,10,0,0,1,1.71.91c.5.38,1.19,1,1.19,1a6.44,6.44,0,0,0-.85.8,5.17,5.17,0,0,1-.54,1.17,2,2,0,0,1-.82.68v.17"/><path id="Fill-5" class="cls-4" d="M33.18,20.19c-.59-.64-2.61-1-4.53-.32a5,5,0,0,1,4.61-.27A1.23,1.23,0,0,1,34,20.87h0a4.19,4.19,0,0,0,1.09-.4c0-.6.38-1.21.93-1.18a4.6,4.6,0,0,1,1.49.5,12.61,12.61,0,0,1-4.16,1.92,1.18,1.18,0,0,0-.21-1.53M25.54,20a3.9,3.9,0,0,1-2.34-.16c1.8-.06,2.66-.57,4.44-1.52a4.7,4.7,0,0,1,3.68-.16,5.16,5.16,0,0,0-3.09.52A10.84,10.84,0,0,1,25.54,20m4.51-3.8a4.15,4.15,0,0,1,2.69,1.73,6.45,6.45,0,0,0-2.89-1.28A6.73,6.73,0,0,0,27,17a3.75,3.75,0,0,1,3.1-.85m6.3-2c.18,0,.57.25.84.27,0,0-.23.32-.27.4s.1.26.1.26l-.71-.53a4.47,4.47,0,0,0-.81-.25,6,6,0,0,1,.85-.15m1.22,9.54c.65-.59,1.3-1.78,1.61-2.05a1,1,0,0,1,.71-.21,1.14,1.14,0,0,0,.82.42,2.82,2.82,0,0,0,1-.15s.78.31,1.05.17.42-.71.42-.71.44-.09.46-.3a1.29,1.29,0,0,0-.15-.54s.3-.19.34-.31-.11-.3-.23-.4a1.44,1.44,0,0,0-.82-.32,4.92,4.92,0,0,1-.94,0s-.11-.29-.29-.35a.55.55,0,0,0-.53.14,1.43,1.43,0,0,1-.69.38c-.19,0-.33-.19-.92-.29a1.2,1.2,0,0,0-.94.16,4.45,4.45,0,0,0,0-.73h-.13v-.71c-.06.17-.61.92-1.09.67s-.3-1.15-.3-1.15a3.59,3.59,0,0,1,1.82-.4,1.06,1.06,0,0,1-.06.92c.9-.29,1.11-1.4,1.21-1.63a1.77,1.77,0,0,1,.59-.5,8.23,8.23,0,0,0-1-.76A12.55,12.55,0,0,0,38,14.27a1.18,1.18,0,0,1-.41-.55A1.28,1.28,0,0,0,37,13c-.31-.16-1.21-.54-1.21-.54s.13-.19-.08-.52-1-.49-2.2-.9a6.36,6.36,0,0,1-2.07-1.18,1,1,0,0,0,.23.67,6.33,6.33,0,0,0-1.49-.23,2.5,2.5,0,0,1,.86.61,3,3,0,0,0-1.09.4,1,1,0,0,1,.77.29c-.5.23-1.59-.1-2.82.09a3.57,3.57,0,0,0-2,1.15,1.16,1.16,0,0,1,.86,0,8.21,8.21,0,0,0-1.93.94,2.46,2.46,0,0,1-1,.21.86.86,0,0,0,.55.4,2.75,2.75,0,0,0-.84,1.25c.31-.36.78-.33.88-.12s0,.59-.46.9A7.69,7.69,0,0,0,22.27,18a2.86,2.86,0,0,0-.51,1.12c.53-.22.7,0,.66.23-.06.44-.84.78-.84.78.19.31.9.34.9.34a14.46,14.46,0,0,0-1.17,1.42c-.34.5-.9,1.51-1,1.65s-1.31,1.13-1.5,1.28-1.4.46-1.71.61A9,9,0,0,0,15.36,27l-.06.08a4.66,4.66,0,0,1-2.49-.85,4.47,4.47,0,0,1-1.47-2.59,4.49,4.49,0,0,0-.88-1.76A8,8,0,0,0,8.58,20.6,2.12,2.12,0,0,0,8,19.47a1.85,1.85,0,0,0-1.34-.19l-.3.1a4.67,4.67,0,0,1,.65.13c.59.15.63.57.63.57a2,2,0,0,0-2.3-.23,1.35,1.35,0,0,1,.8.41,2.44,2.44,0,0,0,1.06,1,1,1,0,0,0,1.16,0,4.52,4.52,0,0,1,1.48,1.23A8.3,8.3,0,0,1,10.7,25,3.57,3.57,0,0,0,12,27.1a7.16,7.16,0,0,0,2.81,1.12l-.06.2A13.93,13.93,0,0,0,14.5,31a4.85,4.85,0,0,1-.5,2.15c-.25.46-1,.9-1.09,1.17s.29.57.33,1-.06,2.17-.06,2.42a1.46,1.46,0,0,0,.09.8.69.69,0,0,0,1,.22l0,0h0a.69.69,0,0,0,.13-.11s.46.19.66.07.19-.55.19-.55.32,0,.4-.1a.67.67,0,0,0,0-.67c-.15-.19-.88-.25-.88-.25a6.93,6.93,0,0,1-.06-1.82c.1-.32.94-.8,1.59-1.18a11.69,11.69,0,0,0,1.84-1A15.26,15.26,0,0,0,19.23,31,6,6,0,0,1,22,28.07h0c-1.41,1.26-1.53,1.73-1.53,1.73A9,9,0,0,1,23,28.2a8.79,8.79,0,0,1,2.46-.71,17.13,17.13,0,0,0-3.65,1.78,7.59,7.59,0,0,0-2,1.7c1,.41,1,.86.87,1.11s-.75,1-.86,1.24-.06.61.46.65,2-.15,2.43-.13.75.48,1.19.48a.81.81,0,0,0,.65-.29,2,2,0,0,0,1.11.06c.23-.1.19-.54.19-.54.38-.07.61-.25.54-.46a1.16,1.16,0,0,0-.52-.67.84.84,0,0,0-.84,0,1.72,1.72,0,0,1-.88.25,12.1,12.1,0,0,1-1.59-.32,3.48,3.48,0,0,1,1.89-1.75,7.87,7.87,0,0,0,1.76-.76,3.33,3.33,0,0,0,.58-1.55,4.41,4.41,0,0,0-.17-.88,8.44,8.44,0,0,0,2.12-.33,18.93,18.93,0,0,0,1.89-1c-1.34-.78-4-.58-4-.58a9.19,9.19,0,0,1,4.77.16,2.49,2.49,0,0,1,1.38,1.15,5.84,5.84,0,0,0,1.34-.44,17.68,17.68,0,0,0,3.41-2.68"/><path id="Fill-6" class="cls-4" d="M43.81,27.35a1.63,1.63,0,0,0-.71-.86c-.34-.18-.71,0-1,0a.71.71,0,0,1-.61-.35.79.79,0,0,0-.5-.46,7,7,0,0,1-1.59-.55,6,6,0,0,1-1.39-1,18,18,0,0,1-1.43,1.33,15.85,15.85,0,0,1-1.87,1.28,10.67,10.67,0,0,0,3.39.74,5.67,5.67,0,0,1,1.62.46,1.09,1.09,0,0,0,.6.69,2.49,2.49,0,0,0,1.24.1s.37.38.69.27.33-.52.33-.52.4.21.61.06.15-.73.15-.73c.25,0,.54-.17.48-.44"/></g></g></svg>