<svg id="Layer_1" data-name="Layer 1" xmlns="http://www.w3.org/2000/svg" viewBox="0 0 48 48"><defs><style>.cls-1{fill:#fffffe;}.cls-2{fill:#f1ac2b;}.cls-3{fill:#122c27;}</style></defs><title>green_bay_packers</title><path class="cls-1" d="M23.89,38.75C11.7,38.75,2.5,32.52,2.5,24.25c0-8,9.8-14.7,21.39-14.7A27.51,27.51,0,0,1,39,13.64l0,0c4.2,2.78,6.51,6.54,6.51,10.58v.1a11.44,11.44,0,0,1-3.83,7.8C37.57,36.26,30.9,38.75,23.89,38.75Z"/><g id="Team-icons_green_bay_packers" data-name="Team-icons green bay packers"><g id="green_bay_packers" data-name="green bay packers"><path id="Fill-1" class="cls-2" d="M23.89,11.05C13.11,11.05,4,17.1,4,24.25c0,7.44,8.55,13,19.89,13,6.61,0,12.89-2.32,16.78-6.22A10,10,0,0,0,44,24.25c0-3.53-2.08-6.84-5.84-9.33A26.15,26.15,0,0,0,23.9,11.05"/><path id="Fill-4" class="cls-3" d="M10,33c-3.46-2.31-5.36-5.41-5.36-8.74,0-6.7,9-12.58,19.27-12.58,10.73,0,19.47,5.64,19.48,12.58a9.45,9.45,0,0,1-3.14,6.4c-3.78,3.78-9.89,6-16.34,6A25.33,25.33,0,0,1,10,33"/><path id="Fill-5" class="cls-1" d="M32.51,20.79c-1.54-2.3-4.93-3.9-8.93-3.9-5.47,0-9.92,3-9.92,6.73s3.14,7,9.92,7c4.08,0,7.35-1.76,8.88-4.07H20.89v-3H41v.72C41,30,33.34,34.72,23.89,34.72S6.77,30,6.77,24.25s8.12-10.66,17.12-10.69c7.48,0,13.85,3.06,16.17,7.23H32.51"/></g></g></svg>