<svg id="Layer_1" data-name="Layer 1" xmlns="http://www.w3.org/2000/svg" viewBox="0 0 48 48"><defs><style>.cls-1{fill:#fff;}.cls-2{fill:#0c181e;}.cls-3{fill:#b12531;}</style></defs><title>houston_texans</title><path class="cls-1" d="M36.34,11.83A22.36,22.36,0,0,0,30.59,11L35,14.44c1.81,1.41,2.3,2.45,2.16,3-.26.89-2.44,2.06-6.64,2.53l-1.68.19-.19,0-.67-.26c-13.33-5.14-13.2-8.15-13.19-8.27.06-.56,1.28-1.71,5.51-2.45l5.13-.9L21.72,6.77a17.4,17.4,0,0,0-3.25-1c-6.39-1.18-11.91.59-13.78,4.59-1.75,3.76.12,8.23,5,12.22L6.13,25.15l1.81,1.21c4.57,3.05,6.35,6.08,5.71,9.75l-3.38,2.38L18,41.94,20.46,43l7.43-3.37L28,38.8c.1-.77,1-1.66,2.24-2.78a21.27,21.27,0,0,0,5.64-7.48c7.66-2,8.68-6.08,8.75-7.81C44.79,17,41.54,13.47,36.34,11.83Z"/><g id="Team-icons_houston_texans" data-name="Team-icons houston texans"><g id="houston_texans" data-name="houston texans"><path id="Fill-3" class="cls-2" d="M23.18,31.69l-2.57-2.93-2.95.45L19,27l-2.55-3,3.42,1.54,1.36-2.25.74,3.2L25.39,28l-3,.44ZM27.4,21.28C10.66,14.82,9.55,9.51,20,7.68,6.93,4.13-.69,13.6,12.24,22.63L8.77,25.11C12.46,27.57,16.36,31.21,15,37l-1.71,1.2,6.71,3C26.25,34.4,29.51,27.75,27.4,21.28Z"/><path id="Fill-4" class="cls-3" d="M35.89,13.26c5.75,4.5,1.76,7.37-5.24,8.15C32.42,28.88,27,35.72,21.24,41l5.27-2.39c.39-3,5.74-4.61,8.27-11.35,11.91-2.66,10-11.2,1.11-14"/></g></g></svg>