<svg id="Layer_1" data-name="Layer 1" xmlns="http://www.w3.org/2000/svg" viewBox="0 0 48 48"><defs><style>.cls-1{fill:#fff;}.cls-2{fill:#1d2847;}</style></defs><title>indianapolis_colts</title><polygon class="cls-1" points="24.4 43.17 24.41 43.17 24.4 43.17 24.4 43.17"/><path class="cls-1" d="M42,21.78v0a26.17,26.17,0,0,0-4.32-9.69C39.23,11.5,39,9.8,38.92,8.83l-.21-1.36c-.38-2.15-2.07-2.16-3.16-2.15a16.31,16.31,0,0,0-3.45.27,4.17,4.17,0,0,0-2.78,2.05c-.72,1.34-.7,3,.08,5.13a14.36,14.36,0,0,0,1.43,2.52,12.79,12.79,0,0,1,1.2,2l.13.29c1,2.08,3,6.41,1.62,9.86a10.31,10.31,0,0,1-9.46,6.74c-2.52,0-7.1-1-9.42-6.76-1.34-3.4.57-7.56,1.6-9.79l.14-.31a15.26,15.26,0,0,1,1.19-2,14.73,14.73,0,0,0,1.48-2.63,6,6,0,0,0,.07-5.06,4.24,4.24,0,0,0-2.86-2.08,17.07,17.07,0,0,0-3.31-.25H13c-.93,0-2.68-.06-3,2.16L9.79,8.65l0,.19c-.11,1-.31,2.67,1.22,3.24A26,26,0,0,0,6.67,21.8,17.17,17.17,0,0,0,8.82,34a18.89,18.89,0,0,0,3.23,4.15L15.75,41a17.43,17.43,0,0,0,8.46,2.19h.65A17.24,17.24,0,0,0,33,40.94a18.91,18.91,0,0,0,6.87-6.89A17.12,17.12,0,0,0,42,21.78Z"/><g id="Team-icons_indianapolis_colts-2" data-name="Team-icons indianapolis colts-2"><g id="indianapolis_colts-2" data-name="indianapolis colts-2"><path id="Fill-4" class="cls-2" d="M24.32,39.06a.42.42,0,0,0,.43-.41h0a.44.44,0,0,0-.49-.36.39.39,0,0,0,.06.78h0ZM13.09,33.72a.42.42,0,1,0-.42-.42h0A.42.42,0,0,0,13.09,33.72ZM10.58,24a.42.42,0,0,0,.42-.42h0a.42.42,0,1,0-.42.42Zm4.95-11.47a.43.43,0,1,0-.42-.44h0a.42.42,0,0,0,.42.39ZM36,33.3a.42.42,0,1,0-.42.42h0A.42.42,0,0,0,36,33.3Zm2.51-9.76a.42.42,0,1,0-.84,0h0a.42.42,0,0,0,.84,0Zm-5-11.48a.42.42,0,1,0-.42.43.42.42,0,0,0,.48-.33h0v-.09Zm-17,27.61a17.36,17.36,0,0,1-6.39-6.4,15.7,15.7,0,0,1-2-11.18,24.36,24.36,0,0,1,4.93-10.26c.65-.93,0-1.47-.54-1.27a2.3,2.3,0,0,1-.73.18c-.77-.11-.67-.61-.52-1.92l.18-1.08c.16-1,.59-.93,1.72-.91a15.17,15.17,0,0,1,3.08.23c1.3.29,3,1.58,1.65,5.13-.82,1.9-1.68,2.55-2.62,4.52-1,2.19-3.44,7.1-1.79,11.3,2.26,5.63,6.64,7.64,10.8,7.71A11.78,11.78,0,0,0,35.19,28c1.65-4.2-.79-9.11-1.8-11.3-.93-2-1.79-2.62-2.61-4.52-1.33-3.55.36-4.84,1.65-5.13a15.17,15.17,0,0,1,3.08-.23c1.13,0,1.56,0,1.72.91l.18,1.08c.15,1.31.25,1.81-.52,1.92a2.3,2.3,0,0,1-.73-.18c-.52-.2-1.19.34-.54,1.27a24.36,24.36,0,0,1,4.93,10.26A15.66,15.66,0,0,1,38.6,33.27a17.36,17.36,0,0,1-6.39,6.4c-3.14,2.19-9,2.06-7.89,2a15.94,15.94,0,0,1-7.84-2Z"/></g></g></svg>