<svg id="Layer_1" data-name="Layer 1" xmlns="http://www.w3.org/2000/svg" viewBox="0 0 48 48"><defs><style>.cls-1{fill:#000105;}.cls-2{fill:#fff;}.cls-3{fill:#fffffe;}.cls-4{fill:#c7983f;}.cls-5{fill:#8a6d36;}.cls-6{fill:#145f69;}</style></defs><title>jacksonville_jaguars</title><path class="cls-1" d="M43.26,21.32a3.15,3.15,0,0,0-.93-1.18l.16-.34-.34.12a4.78,4.78,0,0,0-.38-.61,7.63,7.63,0,0,0-1.36-1.42c-.2-.15-.4-.31-.63-.45l-.33-.22.25-.33a1.62,1.62,0,0,0,.37-1.5,6.92,6.92,0,0,0-2.19-1.76l-.4-.21L36.77,13l-.3-.16-.65-.38c-.49-.29-1-.57-1.51-.84l-.63-.32c-.32-.16-.61-.3-.88-.41a15,15,0,0,0-9.15-1.17h-.19A3.65,3.65,0,0,0,23,9.65a12.87,12.87,0,0,0-5.84.63c-2.27.63-4.21,1.11-5.38,1.31l-.38.06c-1.08.16-1.72.21-3.84.36L6,12.14H5.28c-.52,0-.62,0-.7.17C3.72,13.81,6.3,17.25,8.15,18l.27.12-.05.29a8.3,8.3,0,0,0,2.33,7.1A10.84,10.84,0,0,0,13.92,28c.38.2.78.39,1.28.62l1.26.56a12.39,12.39,0,0,1,2.2,1.21,10.59,10.59,0,0,1,2.79,3.24c.49.76.58.91.81,1.24a10.56,10.56,0,0,0,1.12,1.38c2,2.12,5.27,3.08,7.84,1.83a7.64,7.64,0,0,0,2.38-1.76,6.62,6.62,0,0,0,1.14-1.77,6.93,6.93,0,0,0,.34-1c0-.1,0-.21-.24-.29l-.33-.17L34.25,33l.07-.28a8.49,8.49,0,0,0,.27-2.46l-.43.57-.26.33-.46.52-.25.28-.28-.26a4.3,4.3,0,0,1-.68-.85,2.53,2.53,0,0,1-.4-1.69V28.9l.21-.09a4.75,4.75,0,0,0,1.18-.62,4.06,4.06,0,0,0,.55-.46l.15-.08a7.09,7.09,0,0,0,1-.38,2.54,2.54,0,0,0,1-.75l.38-.7v0l.29.77a.72.72,0,0,0,.4-.17l.5-.38.1.62a.89.89,0,0,1,0,.23H38l-.1.49a3.17,3.17,0,0,1-.28.78c0,.1-.1.2-.16.3A7.14,7.14,0,0,0,39,27.5a6.26,6.26,0,0,0,1.07-1.05l.27-.36v-.22l.33-.07h.15l.45-.18a5.53,5.53,0,0,0,1-.65,4,4,0,0,0,1.08-1.39A2.53,2.53,0,0,0,43.26,21.32Z"/><path class="cls-2" d="M28.7,40.15a8.92,8.92,0,0,1-6.41-2.87A12.1,12.1,0,0,1,21,35.71c-.17-.24-.27-.4-.52-.79l-.31-.48a9.1,9.1,0,0,0-2.45-2.86,11,11,0,0,0-1.87-1L14.59,30c-.55-.25-1-.45-1.37-.66A12.2,12.2,0,0,1,9.58,26.5,9.75,9.75,0,0,1,6.8,19a9.62,9.62,0,0,1-3.63-4.53,3.44,3.44,0,0,1,.08-2.85,2,2,0,0,1,2-1h.66l1.5-.12c2.07-.15,2.7-.2,3.74-.35l.37-.06c1-.18,2.87-.63,5.16-1.26a14.37,14.37,0,0,1,6.47-.69l.38.05a16.41,16.41,0,0,1,9.88,1.32c.23.09.55.25.91.43l.64.32c.55.3,1.08.59,1.59.89l2,1.13a8.18,8.18,0,0,1,2.65,2.14l.21.25.08.32a3.14,3.14,0,0,1-.06,1.8,10,10,0,0,1,1.29,1.31l1.37,1.73a4.35,4.35,0,0,1,.48.8,4.06,4.06,0,0,1,.12,3.55,5.65,5.65,0,0,1-1.49,1.92,7.5,7.5,0,0,1-1.29.84l-.55.23-.12.16a7.82,7.82,0,0,1-1.36,1.34,8.3,8.3,0,0,1-1.84,1.12l-2,.89A9.27,9.27,0,0,1,36,32.19a1.72,1.72,0,0,1,.62,1.36l0,.37a7.29,7.29,0,0,1-.41,1.22,7.92,7.92,0,0,1-1.41,2.18,9.11,9.11,0,0,1-2.85,2.12A7.45,7.45,0,0,1,28.7,40.15Z"/><g id="Team-icons_jacksonville_jaguars" data-name="Team-icons jacksonville jaguars"><g id="jacksonville_jaguars" data-name="jacksonville jaguars"><path id="Path-2" d="M42.15,19.92a4.78,4.78,0,0,0-.38-.61,7.63,7.63,0,0,0-1.36-1.42c-.2-.15-.4-.31-.63-.45l-.33-.22.25-.33a1.62,1.62,0,0,0,.37-1.5,6.92,6.92,0,0,0-2.19-1.76l-.4-.21L36.77,13l-.3-.16-.65-.38c-.49-.29-1-.57-1.51-.84l-.63-.32c-.32-.16-.61-.3-.88-.41a15,15,0,0,0-9.15-1.17h-.19A3.65,3.65,0,0,0,23,9.65a12.87,12.87,0,0,0-5.84.63c-2.27.63-4.21,1.11-5.38,1.31l-.38.06c-1.08.16-1.72.21-3.84.36L6,12.14H5.28c-.52,0-.62,0-.7.17C3.72,13.81,6.3,17.25,8.15,18l.27.12-.05.29a8.3,8.3,0,0,0,2.33,7.1A10.84,10.84,0,0,0,13.92,28c.38.2.78.39,1.28.62l1.26.56a12.39,12.39,0,0,1,2.2,1.21,10.59,10.59,0,0,1,2.79,3.24c.49.76.58.91.81,1.24a10.56,10.56,0,0,0,1.12,1.38c2,2.12,5.27,3.08,7.84,1.83a7.64,7.64,0,0,0,2.38-1.76,6.62,6.62,0,0,0,1.14-1.77,6.93,6.93,0,0,0,.34-1c0-.1,0-.21-.24-.29l-.33-.17L34.25,33l.07-.28a8.49,8.49,0,0,0,.27-2.46l-.43.57-.26.33-.46.52-.25.28-.28-.26a4.3,4.3,0,0,1-.68-.85,2.53,2.53,0,0,1-.4-1.69V28.9l.21-.09a4.75,4.75,0,0,0,1.18-.62,4.06,4.06,0,0,0,.55-.46l.15-.08a7.09,7.09,0,0,0,1-.38,2.54,2.54,0,0,0,1-.75l.39-.73.29.78a.72.72,0,0,0,.4-.17l.5-.38.1.62a.89.89,0,0,1,0,.23H38l-.1.49a3.17,3.17,0,0,1-.28.78c0,.1-.1.2-.16.3A7.14,7.14,0,0,0,39,27.5a6.26,6.26,0,0,0,1.07-1.05l.27-.36v-.22l.33-.07h.15l.45-.18a5.53,5.53,0,0,0,1-.65,4,4,0,0,0,1.08-1.39,2.53,2.53,0,0,0-.09-2.26,3.15,3.15,0,0,0-.93-1.18l.16-.34Z"/><path id="Fill-5" class="cls-3" d="M18.71,23.1a.66.66,0,0,1,.69,0,1.79,1.79,0,0,1,.43.56,2.77,2.77,0,0,1,.48-.11,2.7,2.7,0,0,0-.39.27,1.5,1.5,0,0,1,.15.51c0,.24-.18.31-.37.39a.64.64,0,0,1-.47,0,.25.25,0,0,0-.17,0,2.1,2.1,0,0,1,.33-.26,1.08,1.08,0,0,0-.49.18c-.21,0-.41.05-.62.06a1.54,1.54,0,0,1-.54-.2.87.87,0,0,0-.31.1,2.79,2.79,0,0,1,.51-.46,1.4,1.4,0,0,0-.43.2c-.08-.07-.44-.3-.54-.37a.39.39,0,0,1-.12-.39c0-.22.27-.24.5-.25h.53a.83.83,0,0,0-.16.21,2.08,2.08,0,0,1,.38-.22A4.44,4.44,0,0,0,18.71,23.1Zm1.79,4a.45.45,0,0,1-.32.25l.05-.09a.45.45,0,0,1-.34-.05.68.68,0,0,1,.11.31l-.07.12h.22l-.12.15c0,.34-.25.47-.59.45a1.73,1.73,0,0,1-.74-.37,1.89,1.89,0,0,1,.28-.5,3.2,3.2,0,0,0-.51.29c-.31-.19-.24-.13-1.12-.25A4.23,4.23,0,0,1,16,27a.77.77,0,0,1,.12-.35.86.86,0,0,0-.31.26.63.63,0,0,1-.23-.65c.1-.34.61-.4.61-.4a.83.83,0,0,1,.43-.13l-.15.1,1.25.07q.34,0,.69,0l.34-.08-.6.39a3.84,3.84,0,0,1,.87-.28.63.63,0,0,1,.27.06c.15.07.22.32.22.32a.73.73,0,0,1,.6.19.84.84,0,0,1,.24.5Zm17.74-3.48a1.8,1.8,0,0,0-.1-.4,1.45,1.45,0,0,0-.49-.7h0a3.51,3.51,0,0,0-.36-.29,12.29,12.29,0,0,0-1.9-1l-.18-.08c-.78-.33-1.57-.65-2.37-.92l.38.22h.07l.1.06.33.2a5.41,5.41,0,0,1,.87.64h-.28a4.51,4.51,0,0,1,.86.77s.32.4.33.4c-.18.08-.35.16-.53.22l-.27.08a4.82,4.82,0,0,1-1,.14h0v0a.35.35,0,0,1-.39.07c-.14-.07-.41-.21-.81-.39a41,41,0,0,0-10.22-3.06c-.82-.15-1.57-.27-2.27-.36H19.9l.58.17a4.66,4.66,0,0,1,.82.28,7.06,7.06,0,0,0-.92,0,1.44,1.44,0,0,1,.39.2H19.23a26.61,26.61,0,0,0-2.68.19,3.38,3.38,0,0,1,1.3.68A.66.66,0,0,1,18,21a9.47,9.47,0,0,0-1.06.09h0a1.31,1.31,0,0,1,.09.28,1.12,1.12,0,0,1-.34.31.66.66,0,0,0,.28,0,1.75,1.75,0,0,0,0,.56c0,.23-.28.32-.72.39a.82.82,0,0,1-.63-.08l.07-.15a5.61,5.61,0,0,1-.58,0,4.18,4.18,0,0,0,.65-.37,5.44,5.44,0,0,1-.54.15L15,22.09l-.79.24a9.63,9.63,0,0,0-2.16,1l.26.06.38.1.23.08h0a1.24,1.24,0,0,1,.32-.23.59.59,0,0,0-.12.31h0a.73.73,0,0,1,.63-.35l-.18.08a2.06,2.06,0,0,0,.35.12,4.15,4.15,0,0,0,.79.08,4.66,4.66,0,0,1,.64.08c.18-.06.75-.2.75-.2-.2.12-.54.29-.54.29.7.39.1,1.19.1,1.19a1.14,1.14,0,0,0-.38.23.86.86,0,0,0-.32.45,2.43,2.43,0,0,1,.32-.24c0,.08,0,.12-.15.38s-.38.24-.58.26a1,1,0,0,1-.51-.21,2.43,2.43,0,0,0-.32.24,1.85,1.85,0,0,1,.43-.64,3.34,3.34,0,0,0-.4.25c-.14-.12-.64-.26-1-.44a.57.57,0,0,1-.3-.55,1.48,1.48,0,0,1,.21-.5,1.16,1.16,0,0,0-.24.2v-.12h0l-.35.2-.32.24-.2.17h0a12,12,0,0,0,1.89,1.6,9.27,9.27,0,0,0,1,.62A32.42,32.42,0,0,0,18.14,29a8.44,8.44,0,0,1,2.16,1.33,6.59,6.59,0,0,1,1.11,1.19c.38.51.66,1.09,1,1.62a10,10,0,0,0,2,2.4,7.19,7.19,0,0,0,1.49,1,2.25,2.25,0,0,0,.45.19l.18.06c0,.14-.16.26-.27.34a7.37,7.37,0,0,0,2.73,0c-.16.17-.33.34-.49.52A7.23,7.23,0,0,0,31.2,37a6.63,6.63,0,0,0,2.1-1.54,6.47,6.47,0,0,0,.88-1.26v-.08a3.11,3.11,0,0,0-1.12-.3,7.82,7.82,0,0,0-3.31.64,8.51,8.51,0,0,1-1.39.41,3.27,3.27,0,0,1-2-.21,5.26,5.26,0,0,1-1.49-1.29,11.41,11.41,0,0,1-1.08-1.5,16.92,16.92,0,0,1-1.59-3.36,8.64,8.64,0,0,1-.57-3.1,5,5,0,0,1,.69-2.47A2.83,2.83,0,0,1,23.2,22a2,2,0,0,1,.62-.26,2,2,0,0,1,.35-.07c-1.07-.25-2.25-.48-3.53-.68-.84-.13-1.62-.23-2.34-.31.73,0,1.53.12,2.38.21A37.22,37.22,0,0,1,32,23.63s.33.21.15.48a.34.34,0,0,1-.39.08c-.14-.07-.41-.2-.81-.37s-1.09-.46-1.9-.75a6,6,0,0,0,.55.86,4.31,4.31,0,0,0,1,1,3.67,3.67,0,0,0,1.79.57,4.41,4.41,0,0,0,1.8-.24c.41-.14.8-.34,1.2-.49a11.08,11.08,0,0,1,1.69-.54,4.78,4.78,0,0,1,1-.1h.12A1.76,1.76,0,0,0,38.24,23.62Z"/><path id="Fill-6" class="cls-4" d="M35.9,13.92h.18a.17.17,0,0,0,0-.1,2.07,2.07,0,0,1,.38.28V14a.87.87,0,0,1,.31.14.81.81,0,0,1,.17.24s.11.21.07.26h-.08l-.36-.21s.14.23.16.28-.25,0-.31-.13a1.71,1.71,0,0,1-.38-.13.38.38,0,0,1-.18-.23l.24.11s-.22-.26-.29-.32A.38.38,0,0,1,35.9,13.92Zm-.24-.36-.32-.27s.12.26.14.32a.57.57,0,0,1-.34-.08c-.12-.09-.29-.2-.25-.2H35a.53.53,0,0,0-.37-.18.52.52,0,0,1-.3-.05.66.66,0,0,1-.23-.17.44.44,0,0,1-.1-.22l.23.14a.71.71,0,0,1-.14-.32.45.45,0,0,1,.23,0h.16a.64.64,0,0,1-.08-.14,1.88,1.88,0,0,0,.23.16.69.69,0,0,1,.35,0,1.23,1.23,0,0,1,.34.26l.14.12a.56.56,0,0,1-.11-.2l.16.09a.38.38,0,0,1,.15.18.35.35,0,0,1-.08.16s.13.17.13.24A.18.18,0,0,1,35.66,13.56Zm-1.15,1a1.14,1.14,0,0,0-.32-.07.25.25,0,0,1-.23.07.89.89,0,0,1-.31-.15h.25a.37.37,0,0,0-.18-.08.61.61,0,0,1-.31-.13.11.11,0,0,0,0,.13.19.19,0,0,1-.24-.12h0c0-.21-.16-.2-.07-.35a.29.29,0,0,1,.26-.16l-.25-.15a2.81,2.81,0,0,1,.62.26.26.26,0,0,0-.09-.16.52.52,0,0,1,.4.08c.2.14.21.27.36.38a.18.18,0,0,1,.06.25h0l-.06.06.12.14ZM33,12.74a.21.21,0,0,1-.2.19h-.24a.31.31,0,0,1-.17.13l-.59-.35s.15.2.19.27a.86.86,0,0,1-.42-.05l-.41-.18a.88.88,0,0,1-.25-.22,1.66,1.66,0,0,0,.31.12s-.18-.2-.18-.26a.39.39,0,0,0,.19-.12.63.63,0,0,1,.37-.12h0a1.65,1.65,0,0,1,.63.29,2.17,2.17,0,0,0-.24-.29h.31a.44.44,0,0,1,.32,0,.44.44,0,0,1,.17.16l-.2-.07s0,.09.17.21S33,12.64,33,12.74ZM31.85,14.2a2.85,2.85,0,0,1,.23.26.53.53,0,0,0-.12.14.53.53,0,0,1-.21.21.38.38,0,0,1-.21.14,1,1,0,0,1-.25,0,.77.77,0,0,1-.56-.21h.38a2.28,2.28,0,0,1-.33-.29s.08,0,.07-.12a.26.26,0,0,1,0-.21,2.85,2.85,0,0,0,.39.11L31,14a.41.41,0,0,1,.22,0,.36.36,0,0,0,.16-.11.47.47,0,0,1,.46,0,1,1,0,0,1,.25.26.72.72,0,0,1,.25.24A1.47,1.47,0,0,0,31.85,14.2Zm-1.56-1.29-.2-.05a.72.72,0,0,1,.12.21.66.66,0,0,1-.24.11.31.31,0,0,0-.19.11.4.4,0,0,1-.34.13,3,3,0,0,1-.43-.11.71.71,0,0,1,.19.23,1.91,1.91,0,0,1-.41.11h-.34c-.1,0-.19-.08-.19-.14a.33.33,0,0,1,0-.14l.33.1s-.3-.28-.41-.36l.34.08a.61.61,0,0,0,0-.19.14.14,0,0,1,0-.18l.05,0a1.51,1.51,0,0,0,.29-.13,1.27,1.27,0,0,0-.27-.18,2,2,0,0,1,.42.07.69.69,0,0,0,.24-.05.39.39,0,0,1,.26,0h.3a.28.28,0,0,0-.14-.1,1,1,0,0,1,.33.1.59.59,0,0,1,.29.13A.21.21,0,0,1,30.29,12.91Zm-3-.73a1,1,0,0,1-.26.16.34.34,0,0,0,.09.19.73.73,0,0,1-.25-.08.91.91,0,0,0-.11.16.91.91,0,0,1-.25.3.87.87,0,0,1-.27.14,1.83,1.83,0,0,0,.3.32,2.53,2.53,0,0,1-.67-.4.38.38,0,0,0,0,.21.79.79,0,0,1-.48,0,1.54,1.54,0,0,1-.5-.24h.39c.14,0-.32-.16-.38-.31a.32.32,0,0,1,.1-.43.71.71,0,0,1,.32-.07,5.46,5.46,0,0,0,.67.26,1.85,1.85,0,0,1-.4-.34.71.71,0,0,0,.29,0c.07,0,.11-.14.23-.19h.26l-.15-.1a1.65,1.65,0,0,0,.32.07h.3a1.48,1.48,0,0,1,.42,0,.26.26,0,0,1,0,.37l0,0Zm-4-.32a.56.56,0,0,1-.23.43l-.18.07v.31s-.21-.19-.26-.25h-.2c-.15,0-.33.23-.6.21,0,0-.46-.1-.53-.28a.55.55,0,0,1,0-.4,1.33,1.33,0,0,0,.27.26,1.26,1.26,0,0,1-.1-.38.28.28,0,0,0,.1-.14.53.53,0,0,1,.29-.19.38.38,0,0,1,.21,0,2.82,2.82,0,0,0,.21.38,4.45,4.45,0,0,1,0-.73c.05.11.11.22.17.33h.3a.46.46,0,0,1,.44.08.46.46,0,0,1,.08.3Zm-4.17.28c0,.19-.26.36-.33.41a.56.56,0,0,0-.23.25.32.32,0,0,1-.24.21.47.47,0,0,0-.19.12.71.71,0,0,0,.29,0l-.21.17a1,1,0,0,1-.37.1h-.4c-.25,0-.54,0-.62-.19s-.12-.15-.12-.15a2,2,0,0,1-.54.08,2.33,2.33,0,0,0,.65-.48,1.82,1.82,0,0,1-.4.11.38.38,0,0,1,0-.21.25.25,0,0,1,.11-.17.44.44,0,0,1,.08-.15A.91.91,0,0,1,17,12a1,1,0,0,0,.41-.15,1.37,1.37,0,0,1,.59-.19h.54a2.71,2.71,0,0,1-.45.3,2.43,2.43,0,0,0,.6-.17c.31,0,.43.21.4.35ZM13.83,13a.34.34,0,0,1,.15.26,1.28,1.28,0,0,0,0,.39c0,.12,0,.21-.2.31a1,1,0,0,1-.35,0l.19.08a.57.57,0,0,1-.46.09,1.08,1.08,0,0,1-.58.16c-.24,0-.3-.14-.3-.14l.5-.08a2.91,2.91,0,0,1-.5-.16.62.62,0,0,1,.12-.26c.08-.08.06-.1.06-.1L12,13.47a3.86,3.86,0,0,0,.49-.1.35.35,0,0,1,.1-.21,3.11,3.11,0,0,0,.33-.29.72.72,0,0,1,.5,0,1,1,0,0,0,.25,0h.46A.48.48,0,0,1,13.83,13Zm27,6s-.56.69-.84.48.14-.5,0-1.06S38,16,35.72,14.64c0,0,1.07.44,2.1,1,1.26.2,1.55-.12,1.62-.26s-.09-.14-.14-.21a.61.61,0,0,0-.18-.09.55.55,0,0,0-.33-.08,1.87,1.87,0,0,1-.3-.33.37.37,0,0,0,0,.21,1.06,1.06,0,0,0-.33-.18,1.79,1.79,0,0,1-.39-.13l-.14-.12a.29.29,0,0,0,0,.13.19.19,0,0,1-.19-.18.25.25,0,0,1,.11-.24.21.21,0,0,1,0-.11,1.34,1.34,0,0,0,.21.2.42.42,0,0,0,0-.27h0l-.15-.08S35.19,12.54,34.07,12a1.65,1.65,0,0,1-.32-.07s-.19-.08-.22-.17a.14.14,0,0,0,0,.09,1.49,1.49,0,0,1,.18.3l-.34-.19a3.06,3.06,0,0,1-.58-.27l-.08-.07h0a.09.09,0,0,1,0-.07v-.09h0a.64.64,0,0,0,.22.14h0a.69.69,0,0,1-.16-.22A13.28,13.28,0,0,0,29.22,10a9.18,9.18,0,0,0-3.58-.07,5.87,5.87,0,0,1,1.31.34l.19-.1a.47.47,0,0,1,.26-.11c.06,0,.29.28.29.28a1.34,1.34,0,0,0-.07-.4h.32c.13,0,.23.08.28.08s.06-.06.06-.06.08.06.08.12.19.13.19.25a1,1,0,0,0,0,.34s-.05,0-.12-.09a.43.43,0,0,1-.24.1h-.14c.4.18.86.4,1.38.68l.1.07a.68.68,0,0,1,.07-.2l.06.08a.43.43,0,0,0,0-.16.6.6,0,0,1,.25-.13h.2a.61.61,0,0,0,0-.19.59.59,0,0,1,.22.25.49.49,0,0,0,0-.17,1,1,0,0,1,.35,0A.46.46,0,0,1,31,11c0,.06.12.24.07.28s-.14,0-.17.09a.41.41,0,0,1-.07.11h-.09a.45.45,0,0,0,0,.23.17.17,0,0,1-.12-.1.17.17,0,0,1,0,.14c-.06.06-.09.1-.15.11s-.13-.12-.14-.17a1,1,0,0,0,0,.24,3,3,0,0,0-.33-.28h-.17a.55.55,0,0,1-.24-.12.13.13,0,0,0,.08.13h-.11a.22.22,0,0,1-.13.08l.12.13a.57.57,0,0,1-.25-.11h-.2a.61.61,0,0,0-.27,0h-.18l-.26-.13a.34.34,0,0,0,.06.12s0,.07-.17,0a.72.72,0,0,1-.24-.14.18.18,0,0,1-.12-.17.41.41,0,0,1,.07-.11.38.38,0,0,0,.13.09,2.13,2.13,0,0,1-.16-.25h.11s0-.1.25-.15h.19A23.65,23.65,0,0,0,26,10.38v.13a.82.82,0,0,1-.12.2,4.57,4.57,0,0,1-.62-.22,3.6,3.6,0,0,0,.4.28S25.52,11,25,11a1,1,0,0,1-.41.08.94.94,0,0,1-.5-.22.3.3,0,0,1,.14-.4l.39.23s-.23-.28-.21-.37l.18-.13H24.3a15.84,15.84,0,0,0-3-.14c.06.09.05.18.1.28a.17.17,0,0,1,0,.17,2.74,2.74,0,0,0-.4-.15,1.64,1.64,0,0,1,.21.25,1.22,1.22,0,0,1-.46.09,1.68,1.68,0,0,0-.49.17.72.72,0,0,1-.32-.25h-.05v.15c.05.09.12.19.18.28h0l.07.11h0L20,11h0l-.19-.1h0s-.11-.09-.14-.08H19.4a1,1,0,0,1-.63-.36.25.25,0,0,1-.09-.19l-.53.13L15,11.26a1.13,1.13,0,0,1,0,.26.25.25,0,0,0,.08.18,1.46,1.46,0,0,1-.46-.1,1.35,1.35,0,0,0,.32.26.34.34,0,0,1-.15.18.58.58,0,0,1-.32,0l-.43.07a.87.87,0,0,1-.39-.1A.42.42,0,0,0,14,11.9a.34.34,0,0,1-.35-.18l-.13-.13L11.6,12l-1.22.16s-.08.11,0,.13h.53l-.6.27a.4.4,0,0,0-.15.1h.13a.27.27,0,0,1,.17.06h.4c.16.11,0,.25-.14.3a.39.39,0,0,0-.26,0s.21,0,.2.06-.11.1-.2.12a.3.3,0,0,0-.17.12h0a1.74,1.74,0,0,1-.11.18.72.72,0,0,1-.2.09,1.37,1.37,0,0,0,.29.07H9.92l.38.24h.22a14.42,14.42,0,0,0,2.45.42,6.3,6.3,0,0,0,1.5-.13,8.79,8.79,0,0,0,.89-.19,1.9,1.9,0,0,1-.45.4h0c1-.25,2-.5,3-.73a8.65,8.65,0,0,1,1.9-.22.47.47,0,0,1,.28-.09,1.76,1.76,0,0,1,.6.1h.77a1,1,0,0,0-.41-.39h.69a24.74,24.74,0,0,1,3.84.39c.31.06.63.12.94.2h0s0-.11.08-.13a.39.39,0,0,1,.23.07l.27.15a.24.24,0,0,1,0,.12l.51.15h0A1.91,1.91,0,0,1,29,14a.73.73,0,0,1,.29-.07.62.62,0,0,1,.37.2,1,1,0,0,1-.08.39,1.09,1.09,0,0,1-.4.27h0a.93.93,0,0,0-.14-.14v.07h0v.14l-.07.05a9,9,0,0,1,2.09,1.25,7.34,7.34,0,0,0,1.19.81h.08l.21.08A2,2,0,0,0,33.82,17h0l.08-.08.06-.09h0v-.06a1.22,1.22,0,0,0,.1-.82h0v-.11L34,15.47l-.08-.22v-.06h0v-.11h0a1.93,1.93,0,0,1,.3.27,4.62,4.62,0,0,1,1,1.24,5,5,0,0,1,.55,1.5c0,.15-.34.11-.6.08a6.81,6.81,0,0,0-2,.33h0a4.34,4.34,0,0,1,.88-.12,4.51,4.51,0,0,1,2.25.51h0s.24.18.18.39-.22.33-.53.35a.77.77,0,0,0,.11.39,3,3,0,0,0,.38.42q.56.09,1.11.21h0c.21.06.43.09.64.15l.35.09c.25.07.51.14.76.23l.48.16s.24.11.27.09a3.27,3.27,0,0,1,.88-.43c.38-.08.74-.22.74-.66A1.93,1.93,0,0,0,40.78,19Z"/><path id="Fill-7" class="cls-1" d="M36.24,19.1c-.19.41-1.24-.14-2.37-.24a8.64,8.64,0,0,0-2.63.34h0a2.5,2.5,0,0,1,.35-.21l.3-.14A7.31,7.31,0,0,1,33,18.46h0a4.34,4.34,0,0,1,.88-.12,4.51,4.51,0,0,1,2.25.51.21.21,0,0,1,.08.25"/><path id="Fill-8" class="cls-5" d="M35.83,19.6a.77.77,0,0,0,.11.39,3,3,0,0,0,.38.42H36.1c-.29,0-.59-.08-.89-.1H32.83c-.16-.21-.75-1.06-1.57-1A8.66,8.66,0,0,1,33.89,19c1.13.1,2.18.65,2.37.24a.21.21,0,0,0-.08-.25h0s.24.18.18.39-.22.33-.53.35"/><path id="Fill-9" class="cls-4" d="M35.48,22.61c-.18.08-.35.16-.53.22l-.27.08a4.82,4.82,0,0,1-1,.14h0a.39.39,0,0,0-.19-.34h0l-.42-.19c-.23-.11-.48-.21-.72-.31l-.14-.05-.1-.05c-.56-.22-1.12-.42-1.69-.6l-1-.31-.17-.05q-.87-.25-1.92-.51c-.45-.43-.9-.86-1.39-1.25a36.82,36.82,0,0,1,6.53,2.34c.39.18.66.32.8.4a.29.29,0,0,0,.39-.07c.09-.12-.13-.49-.13-.49A33.37,33.37,0,0,0,25.43,19c-.52-.37-1.07-.68-1.62-1a3,3,0,0,1-.54-.39.47.47,0,0,1-.18-.29v-.06h0a.76.76,0,0,1,.22-.28h.13a4.27,4.27,0,0,0,.71-.15h.24a2.57,2.57,0,0,0,.48.7,1.48,1.48,0,0,1-.42,0,3.87,3.87,0,0,0,2,1.18,6.57,6.57,0,0,0,1.4.12l-.27.12a2.57,2.57,0,0,1,.68.06h.17c.26.07.58.18.77.24h.06l.17.11a9.36,9.36,0,0,1,.94.72l.25.23c.14.12.26.25.39.38s0-.06,0-.08v-.08a1.34,1.34,0,0,0-.07-.18,3.78,3.78,0,0,0-.17-.35,5.47,5.47,0,0,0-.41-.65L30.08,19c-.06-.08-.14-.15-.21-.23s-.13-.18-.21-.21h1l.06.05h0a1.44,1.44,0,0,1,.18.25h0a2,2,0,0,1,.11.26h0v.05c.82,0,1.41.82,1.57,1h0l.38.22H33l.1.06.33.2a5.41,5.41,0,0,1,.87.64h-.28a4.51,4.51,0,0,1,.86.77s.32.4.33.4"/><path id="Fill-10" class="cls-6" d="M31.91,32.23l-.52-.34-.06-.75s.73.48.58,1.09"/><path id="Fill-11" class="cls-6" d="M30.16,30.59a4.66,4.66,0,0,1-2.33,2.64,4.27,4.27,0,0,1-2.27-2.34c-.65-1.49,0-4.27-.9-5.85a2.69,2.69,0,0,0-1.59-1.29,2.54,2.54,0,0,1,1.95.06c2.18.7,2.42,3.55,2.45,4.13.07,1.15.27,2.64,1,3a3.86,3.86,0,0,1-.47-2C28,24.59,26.5,24,26.5,24a3.08,3.08,0,0,1,2.32,1.84c.49,1.55-.3,3.92,1.34,4.77"/><path id="Fill-12" class="cls-6" d="M39.72,21.89c-.06.58-1,1.41-1,1.41a11.65,11.65,0,0,0-.61-1.09s.13-.32-.36-.74A3.67,3.67,0,0,0,36,21.06a1.38,1.38,0,0,1,.8-.16,10.41,10.41,0,0,1,2.92,1"/><path id="Fill-13" class="cls-3" d="M10.26,13.06H10a.76.76,0,0,0-.19.12H9.57c-.05,0-.07,0-.1.06H9.26v.07s-.25,0-.3.08c-.2-.1-.4-.2-.61-.28a5.89,5.89,0,0,0-.58-.24c-.39-.16-.79-.29-1.19-.41l-.36-.11h.27c1.11-.07,2.21,0,3.32-.1h.6s-.08.11,0,.13h.53l-.6.27a.4.4,0,0,0-.15.1h0v.06l.14.07"/><path id="Fill-14" class="cls-3" d="M14.93,15.76h-.09c-.19.12-.39.23-.59.33h0l-.21.1h0a5.42,5.42,0,0,1-.56.22l-.45.15a7,7,0,0,1-1.75.31l.27.08c.32.07,1.1.14,1.14.15h0a6.06,6.06,0,0,1-2.56.46A5.85,5.85,0,0,1,7.63,17a5.62,5.62,0,0,0,.71-.16,11.12,11.12,0,0,1-1.64-.68h.64l-.48-.4C6,15,5.45,14.07,5.55,13.63a1.57,1.57,0,0,0-.8-.56A6.71,6.71,0,0,1,8.9,14.36c.59.37,1,.79,1.56,1.12a7.68,7.68,0,0,1-2.53-.15,6.09,6.09,0,0,0,2.39.72,12.59,12.59,0,0,0,2.53.05A7.2,7.2,0,0,0,15,15.68"/><path id="Fill-15" class="cls-3" d="M43.29,22.57a2.85,2.85,0,0,1-.12.58c-.06.21-.11.45-.37.46a5,5,0,0,1-.55,0c-.11,0-.33,0-.39.08-.18.37.54.35.73.36h.08a4,4,0,0,1-2.08,1.08h0v-.05a3,3,0,0,0-2-.91h0a1.64,1.64,0,0,1,.2-.26A6.69,6.69,0,0,1,41,22.4a3.62,3.62,0,0,0,1.68-1.75,2.3,2.3,0,0,1,.35.41,1.4,1.4,0,0,1-.51.62s-.22.13-.14.29.25.1.34.05a1.06,1.06,0,0,0,.36-.37c0-.08.09-.16.13-.24a2.52,2.52,0,0,1,.18.65l-.12.13a1.24,1.24,0,0,1-.22.18,3.57,3.57,0,0,1-.71.34.35.35,0,0,0-.24.22c0,.16.19.19.31.18h0a1.7,1.7,0,0,0,1-.51"/><path id="Fill-16" class="cls-3" d="M33.29,33.41a.9.9,0,0,1-.66-.27,7.47,7.47,0,0,0-2.11.07,2.56,2.56,0,0,1-1.39.72c-.82.1-.81-.27-.77-.37s.43-.28,1.12-1a8.66,8.66,0,0,0,1.31-2.21,3.49,3.49,0,0,1,.21,1.5,3.11,3.11,0,0,1-.07.44,3.18,3.18,0,0,1-.25.67,1.75,1.75,0,0,1,.68-.64,2.62,2.62,0,0,1,.24.34,1.59,1.59,0,0,1,.13.22,3.4,3.4,0,0,1,.76-.66,1.48,1.48,0,0,1,.28.45,13.84,13.84,0,0,0,1.7-2.25c.06,1.44-.75,3-1.14,3"/><path id="Fill-17" class="cls-3" d="M40,25.83a6.23,6.23,0,0,1-2.31,2.25,7.13,7.13,0,0,0,.9-2.08,2.73,2.73,0,0,1-.79.46,2.08,2.08,0,0,0-.11-.78,5.2,5.2,0,0,1-.86.69,3.28,3.28,0,0,1-.35-.79A4.4,4.4,0,0,1,35,27.07,4.27,4.27,0,0,0,34.9,26c.61-.15,1.16-.33,1.57-.47a3.37,3.37,0,0,1,.87-.32s.4-.08.36.2c0,0,.48-.37.86-.24a.39.39,0,0,1,.23.19,1.2,1.2,0,0,1,.8-.24c.4.09.54.32.45.74"/><path id="Fill-18" class="cls-3" d="M34.87,26a.29.29,0,0,1-.07.2,5.49,5.49,0,0,1-3.19,2.6,3.67,3.67,0,0,0,1-2.51A9.1,9.1,0,0,0,34.87,26"/><path id="Fill-19" class="cls-1" d="M35.66,13.56l-.32-.27s.12.26.14.32a.57.57,0,0,1-.34-.08c-.12-.09-.29-.2-.25-.2H35a.53.53,0,0,0-.37-.18.52.52,0,0,1-.3-.05.66.66,0,0,1-.23-.17.44.44,0,0,1-.1-.22l.23.14a.71.71,0,0,1-.14-.32.45.45,0,0,1,.23,0h.16a.64.64,0,0,1-.08-.14,1.88,1.88,0,0,0,.23.16.69.69,0,0,1,.35,0,1.23,1.23,0,0,1,.34.26l.14.12a.56.56,0,0,1-.11-.2l.16.09a.38.38,0,0,1,.15.18.35.35,0,0,1-.08.16s.13.17.13.24a.21.21,0,0,1,0,.11"/><path id="Fill-20" class="cls-1" d="M36.93,14.61a.1.1,0,0,1-.08.05l-.36-.21s.14.23.16.28-.25,0-.31-.13a1.71,1.71,0,0,1-.38-.13.38.38,0,0,1-.18-.23l.24.11s-.22-.26-.29-.32a.62.62,0,0,1,.17-.11h.18a.17.17,0,0,0,0-.1,2.07,2.07,0,0,1,.38.28V14a.87.87,0,0,1,.31.14.81.81,0,0,1,.17.24s.11.21.07.26"/><path id="Fill-21" class="cls-1" d="M33.6,22c-.09.12-.26.1-.39.07s-.41-.22-.8-.4a36.82,36.82,0,0,0-6.53-2.34c-1.1-.29-2.32-.58-3.66-.83-.84-.16-1.62-.29-2.33-.39.73.07,1.52.16,2.38.29,1.11.16,2.14.34,3.1.54a33.37,33.37,0,0,1,8.1,2.57s.32.23.13.49"/><path id="Fill-22" class="cls-1" d="M27.42,15.6l-.24-.13s.2.2.1.22a.85.85,0,0,0-.25-.17,2.94,2.94,0,0,1-.55-.3.62.62,0,0,1-.14-.25s.06.08.1.08a.72.72,0,0,1,.19.11.42.42,0,0,0-.1-.17,1.89,1.89,0,0,1-.27-.2h.08a.81.81,0,0,0,0-.31h0V14.2h.35l-.23-.14h0s0-.11.08-.13a.39.39,0,0,1,.23.07l.27.15a.17.17,0,0,1,.05.12l.51.15h0l-.41-.06-.12.12a.92.92,0,0,0-.09.28.41.41,0,0,0,.09.26,2.35,2.35,0,0,1,.3.33v.29"/><path id="Fill-23" class="cls-1" d="M27.25,12.18a1,1,0,0,1-.26.16.34.34,0,0,0,.09.19.73.73,0,0,1-.25-.08.91.91,0,0,0-.11.16.91.91,0,0,1-.25.3.87.87,0,0,1-.27.14,1.83,1.83,0,0,0,.3.32,2.53,2.53,0,0,1-.67-.4.38.38,0,0,0,0,.21.79.79,0,0,1-.48,0,1.54,1.54,0,0,1-.5-.24h.39c.14,0-.32-.16-.38-.31A.32.32,0,0,1,25,12.2a.71.71,0,0,1,.32-.07,5.46,5.46,0,0,0,.67.26,1.85,1.85,0,0,1-.4-.34.71.71,0,0,0,.29,0c.07,0,.11-.14.23-.19h.26l-.15-.1a1.65,1.65,0,0,0,.32.07h.3a1.48,1.48,0,0,1,.42,0c.14.05.08.24,0,.34"/><path id="Fill-24" class="cls-1" d="M29.54,14.49a1.09,1.09,0,0,1-.4.27h0L29,14.62v.07h0v.14l-.07.05a1.56,1.56,0,0,0-.2.16.86.86,0,0,0-.14.18.75.75,0,0,0-.1.36.42.42,0,0,1-.18-.11.45.45,0,0,0,.2.27.15.15,0,0,1,0,.2,1,1,0,0,1-.34-.07L28,15.7h.14a.89.89,0,0,0-.14-.25c-.08-.06-.22-.17-.19-.3h.25a1.48,1.48,0,0,0-.43-.27h.23s0-.16.25-.29a1.06,1.06,0,0,0,.43-.32c.06-.09.08-.18.16-.23l.25.16a.76.76,0,0,0-.27-.32A1.75,1.75,0,0,1,29,14a.73.73,0,0,1,.29-.07.62.62,0,0,1,.37.2,1,1,0,0,1-.08.39"/><path id="Fill-25" class="cls-1" d="M30.29,12.91l-.2-.05a.72.72,0,0,1,.12.21.66.66,0,0,1-.24.11.31.31,0,0,0-.19.11.4.4,0,0,1-.34.13,3,3,0,0,1-.43-.11.71.71,0,0,1,.19.23,1.91,1.91,0,0,1-.41.11h-.34c-.1,0-.19-.08-.19-.14a.33.33,0,0,1,0-.14l.33.1s-.3-.28-.41-.36l.34.08a.61.61,0,0,0,0-.19.14.14,0,0,1,0-.18l.05,0a1.51,1.51,0,0,0,.29-.13,1.27,1.27,0,0,0-.27-.18,2,2,0,0,1,.42.07.69.69,0,0,0,.24-.05.39.39,0,0,1,.26,0h.3a.28.28,0,0,0-.14-.1,1,1,0,0,1,.33.1.59.59,0,0,1,.29.13.2.2,0,0,1,0,.25"/><path id="Fill-26" class="cls-1" d="M34.43,14.34a1.42,1.42,0,0,0,.08.18,1.14,1.14,0,0,0-.32-.07.25.25,0,0,1-.23.07.89.89,0,0,1-.31-.15h.25a.37.37,0,0,0-.18-.08.61.61,0,0,1-.31-.13.11.11,0,0,0,0,.13.19.19,0,0,1-.24-.12h0c0-.21-.16-.2-.07-.35a.29.29,0,0,1,.26-.16l-.25-.15a2.81,2.81,0,0,1,.62.26.26.26,0,0,0-.09-.16.52.52,0,0,1,.4.08c.2.14.21.27.36.38a.18.18,0,0,1,.06.25h0a.17.17,0,0,1-.06.06"/><path id="Fill-27" class="cls-1" d="M32.08,14.46a.53.53,0,0,0-.12.14.53.53,0,0,1-.21.21.38.38,0,0,1-.21.14,1,1,0,0,1-.25,0,.77.77,0,0,1-.56-.21h.38a2.28,2.28,0,0,1-.33-.29s.08,0,.07-.12a.26.26,0,0,1,0-.21,2.85,2.85,0,0,0,.39.11L31,14a.41.41,0,0,1,.22,0,.36.36,0,0,0,.16-.11.47.47,0,0,1,.46,0,1,1,0,0,1,.25.26.72.72,0,0,1,.25.24,1.57,1.57,0,0,0-.46-.2,2.85,2.85,0,0,1,.23.26"/><path id="Fill-28" class="cls-1" d="M33,12.74a.21.21,0,0,1-.2.19h-.24a.31.31,0,0,1-.17.13l-.59-.35s.15.2.19.27a.86.86,0,0,1-.42-.05l-.41-.18a.88.88,0,0,1-.25-.22,1.66,1.66,0,0,0,.31.12s-.18-.2-.18-.26a.39.39,0,0,0,.19-.12.63.63,0,0,1,.37-.12h0a1.65,1.65,0,0,1,.63.29,2.17,2.17,0,0,0-.24-.29h.31a.44.44,0,0,1,.32,0,.44.44,0,0,1,.17.16l-.2-.07s0,.09.17.21.21.18.21.28"/><path id="Fill-29" class="cls-1" d="M19.92,23.87a1.5,1.5,0,0,1,.15.51c0,.24-.18.31-.37.39a.64.64,0,0,1-.47,0,.25.25,0,0,0-.17,0,2.1,2.1,0,0,1,.33-.26,1.08,1.08,0,0,0-.49.18,2.18,2.18,0,0,0-.62.06,1.54,1.54,0,0,1-.54-.2.87.87,0,0,0-.31.1,2.79,2.79,0,0,1,.51-.46,1.4,1.4,0,0,0-.43.2c-.08-.07-.44-.3-.54-.37a.39.39,0,0,1-.12-.39c0-.22.27-.24.5-.25h.53a.83.83,0,0,0-.16.21,2.08,2.08,0,0,1,.38-.22,6.26,6.26,0,0,0,.61-.21.66.66,0,0,1,.69,0,1.79,1.79,0,0,1,.43.56,2.77,2.77,0,0,1,.48-.11,2.7,2.7,0,0,0-.39.27"/><path id="Fill-30" class="cls-1" d="M14.72,18.38c-.09.06-.1.12-.16.21s-.48.1-.48.1a2.24,2.24,0,0,0-.57-.08l.38.11a1.48,1.48,0,0,1-.42,0c-.19,0-.3-.23-.4-.37s0-.37,0-.37L13,18h.6l-.38-.1a1.72,1.72,0,0,1,.07-.21c.05-.1.27-.08.37-.07s.22-.1.29-.12a1.37,1.37,0,0,1,.4.09.15.15,0,0,1,.12.12,1.13,1.13,0,0,0-.26,0l.38.1s.24.13.28.25a.33.33,0,0,1-.11.34"/><path id="Fill-31" class="cls-1" d="M17,21.73a1.75,1.75,0,0,0,0,.56c0,.23-.28.32-.72.39a.82.82,0,0,1-.63-.08l.07-.15a5.61,5.61,0,0,1-.58,0,4.18,4.18,0,0,0,.65-.37,5.44,5.44,0,0,1-.54.15L15,22.09a.71.71,0,0,1-.19-.23c-.09-.18.07-.46.13-.57a.11.11,0,0,0,0-.16h0a1,1,0,0,0,.19-.22h0l-.46.07h0a.56.56,0,0,1-.16-.46l.08-.31h-.31A1.82,1.82,0,0,0,15,20h0a2.29,2.29,0,0,1-.37,0h0a.3.3,0,0,1,.12-.22.37.37,0,0,1,.21,0h.25l.27.09h0c.2.06.29.33.29.33a1,1,0,0,0,.24.39h0a.71.71,0,0,0,.14.1h.13l.19.07h.28A.52.52,0,0,1,17,21h0a1.31,1.31,0,0,1,.09.28,1.12,1.12,0,0,1-.34.31.66.66,0,0,0,.28,0"/><path id="Fill-32" class="cls-1" d="M13.83,13a.34.34,0,0,1,.15.26,1.28,1.28,0,0,0,0,.39c0,.12,0,.21-.2.31a1,1,0,0,1-.35,0l.19.08a.57.57,0,0,1-.46.09,1.08,1.08,0,0,1-.58.16c-.24,0-.3-.14-.3-.14l.5-.08a2.91,2.91,0,0,1-.5-.16.62.62,0,0,1,.12-.26c.08-.08.06-.1.06-.1L12,13.47a3.86,3.86,0,0,0,.49-.1.35.35,0,0,1,.1-.21,3.11,3.11,0,0,0,.33-.29.72.72,0,0,1,.5,0,1,1,0,0,0,.25,0h.46a.49.49,0,0,1-.32.18"/><path id="Fill-33" class="cls-1" d="M33.69,23h0v.07a.35.35,0,0,1-.39.07c-.14-.07-.41-.21-.81-.39a41,41,0,0,0-10.22-3.06c-.82-.15-1.57-.27-2.27-.36h.46c.77.08,1.53.16,2.29.27,1,.13,1.92.29,2.87.48s1.73.39,2.58.6l1.08.29.17.05c.35.09.69.2,1,.31.57.18,1.13.38,1.69.6l.1.05.14.05c.24.1.49.2.72.31l.42.19h0a.39.39,0,0,1,.19.34"/><path id="Fill-34" class="cls-1" d="M19.3,19.48c-.09.14-.47.19-.67.16a1.54,1.54,0,0,1-.59.14,4.24,4.24,0,0,1-.61-.17,1.13,1.13,0,0,1,.24-.08,1.07,1.07,0,0,0-.25-.31c-.17-.17-.4-.37-.43-.51a3,3,0,0,1,.39-.14,1,1,0,0,1-.43-.06,1.07,1.07,0,0,1,.05-.4,1.31,1.31,0,0,0,.09-.28c0-.06,0,0,.08-.08s.51-.1.51-.1,0-.1-.3-.14a1,1,0,0,1,.49-.05c.27,0,.44.35.53.52a1.65,1.65,0,0,0,.36.43c.11.08.51,0,.51,0s-.25.25-.42.24a1.25,1.25,0,0,0,.22.41c.14.12.32.29.23.44"/><path id="Fill-35" class="cls-1" d="M13.2,21.31a5,5,0,0,0-.59.53.62.62,0,0,1-.7.3c-.36-.1-.41-.62-.41-.62a1.77,1.77,0,0,1,.52-.33,4.51,4.51,0,0,0-.52,0v-.68a1.25,1.25,0,0,0-.14-.5,2.2,2.2,0,0,1,.32-.21,1.89,1.89,0,0,1-.67,0,.8.8,0,0,0,.3-.09.53.53,0,0,1,.09-.39c.07-.07.27-.32.36-.39a1.14,1.14,0,0,1,.58,0,.26.26,0,0,1,.28.18,1,1,0,0,0,.24,0,3.38,3.38,0,0,1-.52.22,1.71,1.71,0,0,0,.32,0s.11.39.16.59a.48.48,0,0,0,.13.23,3.55,3.55,0,0,1-.44.21,2,2,0,0,0,.54-.1l.17.17a.66.66,0,0,1-.05.75"/><path id="Fill-36" class="cls-1" d="M24,14.46a.4.4,0,0,1,.08.23c0,.12-.06.15-.09.23a.41.41,0,0,1-.24.19l.28.14h-.38a.79.79,0,0,0-.22.19.43.43,0,0,1-.36.2l-.3-.09.16.15a.53.53,0,0,1-.25,0,2.6,2.6,0,0,1-.47-.16h.26s-.4-.32-.46-.39h.25S22,15,22,14.86a.26.26,0,0,1,.16-.24c.09,0,.19,0,.23-.12a.38.38,0,0,0,0-.15l.43.09a.9.9,0,0,0-.19-.2.23.23,0,0,1,.12-.12,1.73,1.73,0,0,0,.37-.16.33.33,0,0,1,.29-.05c.07,0,.22.11.39.16a.53.53,0,0,1-.12-.14A.88.88,0,0,1,24,14a.15.15,0,0,1,.11.18h0s-.1.07-.11.12.13.14.19.19H24"/><path id="Fill-37" class="cls-5" d="M19.3,19.48c-.09.14-.47.19-.67.16a1.54,1.54,0,0,1-.59.14,4.24,4.24,0,0,1-.61-.17,1.13,1.13,0,0,1,.24-.08,1.07,1.07,0,0,0-.25-.31,2.16,2.16,0,0,1-.44-.51l.4-.14a1,1,0,0,1-.43-.06,1.41,1.41,0,0,1,0-.41.63.63,0,0,0,.1-.27c0-.06,0,0,.08-.08s.51-.1.51-.1,0-.1-.31-.14a1.2,1.2,0,0,1,.5-.05c.27,0,.44.35.53.52a1.65,1.65,0,0,0,.36.43c.1.07.48,0,.51,0a.72.72,0,0,1-.42.24,1.09,1.09,0,0,0,.22.41C19.21,19.16,19.39,19.33,19.3,19.48Zm-2.44-2.7c-.12.15-.42.1-.42.1a1,1,0,0,1-.63.17,2.48,2.48,0,0,1-.59-.17,2.6,2.6,0,0,1-.47-.16,4.45,4.45,0,0,0,.73,0A1.23,1.23,0,0,1,15,16.5s.12-.08.1-.18a.69.69,0,0,1,0-.35,4.32,4.32,0,0,0,.45.19,1.3,1.3,0,0,1-.26-.31.46.46,0,0,0,.25-.1c.12-.09.24-.26.46-.26a.63.63,0,0,1,.2-.13h.19a.9.9,0,0,0,.32.09,2.78,2.78,0,0,1-.34-.26h.23a.71.71,0,0,1,.29,0,.36.36,0,0,1,.31.3c0,.12-.17.27-.11.37s.43.19.49.21a1.62,1.62,0,0,0-.44,0,.35.35,0,0,1-.19.1.12.12,0,0,0-.11.09h0C16.89,16.42,17,16.63,16.86,16.78Zm-2.14,1.6c-.09.06-.1.12-.16.21s-.48.1-.48.1a1.84,1.84,0,0,0-.57-.09l.38.12a1.48,1.48,0,0,1-.42,0c-.19,0-.3-.23-.4-.37s0-.37,0-.37L13,18h.6l-.38-.1a1.72,1.72,0,0,1,.07-.21c.05-.1.27-.08.37-.07s.22-.1.29-.12a1.37,1.37,0,0,1,.4.09.15.15,0,0,1,.12.12,1.13,1.13,0,0,0-.26,0l.38.1s.24.13.28.25A.32.32,0,0,1,14.72,18.38ZM13.2,21.31a5,5,0,0,0-.59.53.62.62,0,0,1-.7.3c-.36-.1-.41-.62-.41-.62a1.77,1.77,0,0,1,.52-.33,4.51,4.51,0,0,0-.52,0v-.68a1.25,1.25,0,0,0-.14-.5,2.2,2.2,0,0,1,.32-.21,1.89,1.89,0,0,1-.67,0,.8.8,0,0,0,.3-.09.49.49,0,0,1,.09-.39c.07-.07.27-.32.36-.39a1.14,1.14,0,0,1,.58,0,.26.26,0,0,1,.28.18,1,1,0,0,0,.24,0,3.38,3.38,0,0,1-.52.22,1.71,1.71,0,0,0,.32,0s.11.39.16.59a.57.57,0,0,0,.12.23,3.42,3.42,0,0,1-.43.21,2,2,0,0,0,.54-.1l.17.17A.66.66,0,0,1,13.2,21.31Zm7.05-4.38a.12.12,0,0,1,.12-.09.57.57,0,0,0,.26,0c.05,0,.06-.14.15-.19s.24,0,.38,0l.31.11h-.33a2.06,2.06,0,0,1,.57.25c.19.12.11.23.27.29s.1.11.1.11a4.26,4.26,0,0,0-.5-.06l.41.16h-.26c-.07,0-.11.11-.18.17a.22.22,0,0,1-.16,0,.26.26,0,0,1-.09.14c-.07.06-.18,0-.33,0s-.19-.33-.19-.33a2.26,2.26,0,0,0-.38-.25h.22a1.15,1.15,0,0,0-.33-.21H20.1a3.71,3.71,0,0,1,.58.11A3.42,3.42,0,0,0,20.25,16.93Zm1.88-2.31c.09,0,.19,0,.23-.12a.38.38,0,0,0,0-.15l.43.09a.9.9,0,0,0-.19-.2.23.23,0,0,1,.12-.12,2.43,2.43,0,0,0,.37-.16.33.33,0,0,1,.29-.05c.07,0,.22.11.39.16a.53.53,0,0,1-.12-.14A.84.84,0,0,1,24,14a.15.15,0,0,1,.11.18h0s-.1.07-.11.12.13.14.19.19H24a.3.3,0,0,1,.08.24c0,.12-.06.14-.09.22a.41.41,0,0,1-.24.19l.28.14h-.38a.79.79,0,0,0-.22.19.43.43,0,0,1-.36.2l-.3-.09.16.15a.53.53,0,0,1-.25,0,2.6,2.6,0,0,1-.47-.16h.26s-.4-.32-.46-.39h.25S22,15,22,14.86A.24.24,0,0,1,22.13,14.62Zm5.14,5.93c-.45-.43-.9-.86-1.39-1.25-1.1-.29-2.32-.58-3.66-.83-.84-.16-1.62-.29-2.33-.39.73.07,1.52.16,2.38.29,1.11.16,2.14.34,3.1.54-.52-.37-1.07-.68-1.62-1a3,3,0,0,1-.54-.39.47.47,0,0,1-.18-.29v-.06h0a.76.76,0,0,1,.22-.28h0v-.06a4.09,4.09,0,0,1,2.58-1.66,1.64,1.64,0,0,0-.42-.41,1.31,1.31,0,0,1,.68,0h0v-.28h.35l-.23-.14c-.31-.08-.63-.14-.94-.2a24.74,24.74,0,0,0-3.84-.39h-.69a1,1,0,0,1,.41.39h-.77l.22.09h-.35l.11.08a.29.29,0,0,1,0,.13.34.34,0,0,0,0,.2,2.19,2.19,0,0,0,.12.33h-.39l.52.27h-.14l-.16.13s0,.29-.13.39-.31.08-.37.15a.11.11,0,0,0,0,.15L19.44,16a2.09,2.09,0,0,0,.22.2h-.23a1,1,0,0,1-.67-.11c-.19-.15-.09-.27-.05-.32s.06-.11-.07-.25-.11-.15-.08-.23a3.11,3.11,0,0,1,.61,0,4.78,4.78,0,0,0-.61-.28.26.26,0,0,1,.1-.13c.1-.07.23-.13.27-.31l.51.09a3.55,3.55,0,0,0-.63-.28h.32a.52.52,0,0,0,.23-.1l.12-.09a8.65,8.65,0,0,0-1.9.22c-1,.23-2,.48-3,.73h0a1.9,1.9,0,0,0,.45-.4,8.79,8.79,0,0,1-.89.19,6.3,6.3,0,0,1-1.5.13,14.42,14.42,0,0,1-2.45-.42L10,14.58l.39.24a7.93,7.93,0,0,0,1.24.61l.39.13a3.17,3.17,0,0,0,.44.12l.41.08a4.69,4.69,0,0,0,.75,0,4.8,4.8,0,0,0,.75-.09,8.45,8.45,0,0,0,.84-.19h.14A7.07,7.07,0,0,0,16.44,15l.28-.15h0a10.43,10.43,0,0,1-1,.75l-.22.13c-.11.07-.24.13-.36.19a1.77,1.77,0,0,1-.31.15l-.17.07h-.09c-.19.12-.39.23-.59.33h0l-.21.1h0a5.42,5.42,0,0,1-.56.22L13,16.6a7,7,0,0,1-1.75.31l.27.08c.32.07,1.1.14,1.14.15h0l-.06.06a4.13,4.13,0,0,1-1.74.89,8.45,8.45,0,0,1-1,.21H9.67A4.89,4.89,0,0,0,9.48,20a6.91,6.91,0,0,0,.11.9h0a.53.53,0,0,1,.14-.12.9.9,0,0,1,.44-.18h0a.5.5,0,0,0-.23-.09h0a1.69,1.69,0,0,1,.55,0h0a.51.51,0,0,1,.25.18h0a.29.29,0,0,1,0,.13,2.45,2.45,0,0,0-.18.54c0,.05-.26.22-.32.29h.34a1.84,1.84,0,0,0,.3.43,1,1,0,0,1,.3.51h.29a2.06,2.06,0,0,1-.55.55,1.21,1.21,0,0,0,.38,0h0a1.4,1.4,0,0,1-.41.92,4,4,0,0,0,.53.69h0v.05h0l.2-.17.32-.24.35-.2h0a.32.32,0,0,1,.08-.21c0-.05.1-.06.15-.09l.07-.05h0v-.1a.35.35,0,0,1,.08-.13h0l-.23-.08-.38-.1L12,23.35a9.63,9.63,0,0,1,2.16-1l.79-.24a.71.71,0,0,1-.19-.23c-.09-.18.07-.46.13-.57a.11.11,0,0,0,0-.16h0a1,1,0,0,0,.19-.22h0l-.46.07h0a.56.56,0,0,1-.16-.46l.08-.31h-.31A1.71,1.71,0,0,0,15,20h-.37a.3.3,0,0,1,.12-.22.37.37,0,0,1,.21,0h.25l.27.09h0c.2.06.29.33.29.33a1,1,0,0,0,.24.39h0a.71.71,0,0,0,.14.1h.13l.19.07h.28a.52.52,0,0,1,.2.24c.35,0,.71-.07,1.06-.09a.67.67,0,0,0-.14-.15,3.38,3.38,0,0,0-1.3-.68c.91-.06,1.81-.08,2.72,0h1.54a1.44,1.44,0,0,0-.39-.2,7.06,7.06,0,0,1,.92,0,4.66,4.66,0,0,0-.82-.28L20,19.36h.46c.77.08,1.53.16,2.29.27,1,.13,1.92.29,2.87.48s1.73.39,2.58.6l1.08.29C28.61,20.87,28,20.72,27.27,20.55Z"/><path id="Fill-38" class="cls-1" d="M15.65,25a1.14,1.14,0,0,0-.38.23.86.86,0,0,0-.32.45,2.43,2.43,0,0,1,.32-.24c0,.08,0,.12-.15.38s-.38.24-.58.26a1,1,0,0,1-.51-.21,2.43,2.43,0,0,0-.32.24,1.85,1.85,0,0,1,.43-.64,3.34,3.34,0,0,0-.4.25c-.14-.12-.64-.26-1-.44a.57.57,0,0,1-.3-.55,1.48,1.48,0,0,1,.21-.5,1.16,1.16,0,0,0-.24.2v-.12h0a.32.32,0,0,1,.08-.21c0-.05.1-.06.15-.09l.07-.05h0v-.1a.35.35,0,0,1,.08-.13,1.24,1.24,0,0,1,.32-.23.59.59,0,0,0-.12.31h0a.73.73,0,0,1,.63-.35l-.18.08a2.06,2.06,0,0,0,.35.12,4.15,4.15,0,0,0,.79.08,4.66,4.66,0,0,1,.64.08c.18-.06.75-.2.75-.2-.2.12-.54.29-.54.29.7.39.1,1.19.1,1.19"/><path id="Fill-39" class="cls-1" d="M20.5,27.1a.45.45,0,0,1-.32.25l.05-.09a.45.45,0,0,1-.34-.05.68.68,0,0,1,.11.31l-.07.12h.22l-.12.15c0,.34-.25.47-.59.45a1.73,1.73,0,0,1-.74-.37,1.89,1.89,0,0,1,.28-.5,3.2,3.2,0,0,0-.51.29c-.31-.19-.24-.13-1.12-.25A4.23,4.23,0,0,1,16,27a.77.77,0,0,1,.12-.35.86.86,0,0,0-.31.26.63.63,0,0,1-.23-.65c.1-.34.61-.4.61-.4a.83.83,0,0,1,.43-.13l-.15.1,1.25.07q.34,0,.69,0l.34-.08-.6.39a3.84,3.84,0,0,1,.87-.28.63.63,0,0,1,.27.06c.15.07.22.32.22.32a.73.73,0,0,1,.6.19.84.84,0,0,1,.24.5h.11"/><path id="Fill-40" class="cls-1" d="M20.34,14.56l.52.27h-.14l-.16.13s0,.29-.13.39-.31.08-.37.15a.11.11,0,0,0,0,.15l-.37-.07a2.09,2.09,0,0,0,.22.2h-.23a1,1,0,0,1-.67-.11c-.19-.15-.09-.27-.05-.32s.06-.11-.07-.25-.11-.15-.08-.23a3.11,3.11,0,0,1,.61,0,4.78,4.78,0,0,0-.61-.28.26.26,0,0,1,.1-.13c.1-.07.23-.13.27-.31l.51.09A3.32,3.32,0,0,0,19.1,14h.31a.52.52,0,0,0,.23-.1l.12-.09a.47.47,0,0,1,.28-.09,1.76,1.76,0,0,1,.6.1l.22.09h-.35l.11.08a.29.29,0,0,1,0,.13.23.23,0,0,0,0,.2,2.19,2.19,0,0,1,.12.33h-.39"/><path id="Fill-41" class="cls-1" d="M22.08,17.43a4.26,4.26,0,0,0-.5-.06l.41.16h-.26c-.07,0-.11.11-.18.17a.22.22,0,0,1-.16,0,.26.26,0,0,1-.09.14c-.07.06-.18,0-.33,0s-.19-.33-.19-.33a2.26,2.26,0,0,0-.38-.25h.22a1.15,1.15,0,0,0-.33-.21l-.2-.1a3.84,3.84,0,0,1,.59.11,3.36,3.36,0,0,0-.43-.2.12.12,0,0,1,.12-.09h.26c.05,0,.06-.13.15-.18s.24,0,.38,0l.31.11h-.33a1.71,1.71,0,0,1,.57.25c.19.12.11.23.27.29s.1.11.1.11"/><path id="Fill-42" class="cls-1" d="M19.09,12.14c0,.19-.26.36-.33.41a.56.56,0,0,0-.23.25.32.32,0,0,1-.24.21.47.47,0,0,0-.19.12.71.71,0,0,0,.29,0l-.21.17a1,1,0,0,1-.37.1h-.4c-.25,0-.54,0-.62-.19s-.12-.15-.12-.15a2,2,0,0,1-.54.08,2.33,2.33,0,0,0,.65-.48,1.82,1.82,0,0,1-.4.11.38.38,0,0,1,0-.21.25.25,0,0,1,.11-.17.44.44,0,0,1,.08-.15A.92.92,0,0,1,17,12a1,1,0,0,0,.41-.15,1.37,1.37,0,0,1,.59-.19h.54a2.71,2.71,0,0,1-.45.3,2.43,2.43,0,0,0,.6-.17c.32,0,.43.18.4.37"/><path id="Fill-43" class="cls-1" d="M23.26,11.86a.56.56,0,0,1-.23.43l-.18.07v.31s-.21-.19-.26-.25h-.2c-.15,0-.33.23-.6.21,0,0-.46-.1-.53-.28a.55.55,0,0,1,0-.4,1.33,1.33,0,0,0,.27.26,1.26,1.26,0,0,1-.1-.38.28.28,0,0,0,.1-.14.53.53,0,0,1,.29-.19.37.37,0,0,1,.21,0,2.82,2.82,0,0,0,.21.38,4.45,4.45,0,0,1,0-.73c.05.11.11.22.17.33h.3a.46.46,0,0,1,.44.08.42.42,0,0,1,.12.34"/><path id="Fill-44" class="cls-1" d="M17.6,16.13a1.62,1.62,0,0,0-.44,0,.35.35,0,0,1-.19.1.12.12,0,0,0-.11.09v.05c0,.06.12.27,0,.42s-.42.1-.42.1a1,1,0,0,1-.63.17,2.48,2.48,0,0,1-.59-.17,2.6,2.6,0,0,1-.47-.16,4.45,4.45,0,0,0,.73,0,1.26,1.26,0,0,1-.45-.22s.12-.08.1-.18a.69.69,0,0,1,0-.35,4.32,4.32,0,0,0,.45.19,1.3,1.3,0,0,1-.26-.31.46.46,0,0,0,.25-.1c.12-.09.24-.26.46-.26a.63.63,0,0,1,.2-.13h.19a.9.9,0,0,0,.32.09,2.78,2.78,0,0,1-.34-.26.89.89,0,0,0,.23,0,.71.71,0,0,1,.29,0,.33.33,0,0,1,.31.31c0,.12-.17.27-.11.37s.43.19.49.21"/><path id="Fill-45" class="cls-5" d="M35.64,18.05c0,.15-.34.11-.6.08a6.81,6.81,0,0,0-2,.33,7.19,7.19,0,0,0-1.11.36l-.3.14a2.5,2.5,0,0,0-.35.21h0a1.37,1.37,0,0,0-.35-.62h-.05l-.11-.09a1.6,1.6,0,0,0-.45-.23h-.2a1.93,1.93,0,0,0-.34,0h0a5.15,5.15,0,0,1,1.88-.58,14.11,14.11,0,0,1,2.9.27,1.86,1.86,0,0,0-.39-2.51,4.62,4.62,0,0,1,1,1.24,5,5,0,0,1,.55,1.5"/><path id="Fill-46" class="cls-5" d="M39.38,16.59a6.26,6.26,0,0,0-.79-.56c-.23-.14-.47-.28-.7-.39h0c1.26.2,1.55-.12,1.62-.26h0v.11a1.15,1.15,0,0,1-.17,1.1"/><path id="Fill-47" class="cls-6" d="M30.49,17.31a3.21,3.21,0,0,1-2,.5,8.9,8.9,0,0,1-2.24-1.33,5.27,5.27,0,0,1,1.43.08h0a1.66,1.66,0,0,1,.47.26l.22.18.23.14h0a.38.38,0,0,0,.76,0,.35.35,0,0,0-.08-.22c.76.22,1.14.35,1.14.35"/><path id="Fill-48" class="cls-3" d="M28.93,17a.18.18,0,0,1-.18.18h-.08L28.44,17l-.22-.18a1.66,1.66,0,0,0-.47-.26l.72.16.33.09s.14.06.13.17"/><path id="Fill-49" class="cls-5" d="M33.12,17.31a1.68,1.68,0,0,0,.69-.35h0a2,2,0,0,1-1.29.06l-.21-.08h-.08A7.26,7.26,0,0,1,31,16.13a9.36,9.36,0,0,0-2-1.29,1.56,1.56,0,0,0-.2.16h0a1.32,1.32,0,0,0,.46.88,5.91,5.91,0,0,0,1.17.67.76.76,0,0,1,0-.3,2,2,0,0,0,.72.67h.08l.41.17a1.42,1.42,0,0,0,.33.11,2.75,2.75,0,0,0,1.21,0"/><path id="Fill-50" class="cls-3" d="M28.41,18.23a11.87,11.87,0,0,0-1.14-.54q-.37-.18-.72-.39c-.32-.18-.64-.38-.94-.59a4.37,4.37,0,0,1-.44-.31H24.5a2.57,2.57,0,0,0,.48.7,1.48,1.48,0,0,1-.42,0,3.87,3.87,0,0,0,2,1.18,6.57,6.57,0,0,0,1.4.12l-.27.12a2.57,2.57,0,0,1,.68.06h.17c.26.07.58.18.77.24h.06a2.61,2.61,0,0,0-.28-.17c-.19-.12-.45-.28-.7-.41"/><path id="Fill-51" class="cls-3" d="M24.79,15.89a7.42,7.42,0,0,1,.94-.18,7.11,7.11,0,0,1,3,.4c.93.31,1.79.79,2.74,1.05l.37.09h.07a1.42,1.42,0,0,1-.33-.11L31.17,17h-.08a2,2,0,0,1-.72-.67.76.76,0,0,0,0,.3A5.91,5.91,0,0,1,29.2,16a1.32,1.32,0,0,1-.46-.88h0a.86.86,0,0,0-.14.18.75.75,0,0,0-.1.36.42.42,0,0,1-.18-.11.45.45,0,0,0,.2.27s.09.11.05.2a1,1,0,0,1-.34-.07A1.51,1.51,0,0,0,28,15.7h.14a.89.89,0,0,0-.14-.25c-.08-.06-.22-.17-.19-.3h.25a1.48,1.48,0,0,0-.43-.27h.23s0-.16.25-.29a1.06,1.06,0,0,0,.43-.32c.06-.09.08-.18.16-.23l.25.16a.76.76,0,0,0-.27-.32,2,2,0,0,0-1.26.29h.06l-.41-.06-.12.12a.92.92,0,0,0-.09.28.41.41,0,0,0,.09.26,2.35,2.35,0,0,1,.3.33v.29L27,15.26s.2.2.1.22a.85.85,0,0,0-.25-.17,2.94,2.94,0,0,1-.55-.3.62.62,0,0,1-.14-.25s.06.08.1.08a.72.72,0,0,1,.19.11.42.42,0,0,0-.1-.17,1.89,1.89,0,0,1-.27-.2h.08a.81.81,0,0,0,0-.31,1.31,1.31,0,0,0-.68,0,1.64,1.64,0,0,1,.42.41,4.09,4.09,0,0,0-2.58,1.66v.06h0a3.66,3.66,0,0,1,.5-.38,4.81,4.81,0,0,1,.82-.32"/><path id="Fill-52" class="cls-1" d="M28.53,17.81a8.9,8.9,0,0,1-2.24-1.33,5.27,5.27,0,0,1,1.43.08s.49.09.75.16l.33.09s.14.06.13.17a.18.18,0,0,1-.18.18h-.08a.38.38,0,0,0,.76,0,.35.35,0,0,0-.08-.22c.76.22,1.14.35,1.14.35A3.24,3.24,0,0,1,28.53,17.81Zm5.58-2.5a1.93,1.93,0,0,0-.3-.27h0v.11h0v.06l.08.22.09.28v.11h0a1.55,1.55,0,0,1-.07.77,1.1,1.1,0,0,1-.2.28h0a1.68,1.68,0,0,1-.69.35,2.75,2.75,0,0,1-1.21,0h-.07l-.37-.09c-.95-.26-1.81-.74-2.74-1.05a7.11,7.11,0,0,0-3-.4,7.42,7.42,0,0,0-.94.18,4.81,4.81,0,0,0-.82.32,3.66,3.66,0,0,0-.5.38h.08c.23-.06.47-.12.71-.16h.89a4.37,4.37,0,0,0,.44.31c.3.21.62.41.94.59s.47.27.72.39a11.87,11.87,0,0,1,1.14.54c.25.13.51.29.7.41a2.61,2.61,0,0,1,.28.17l.18.12a9.36,9.36,0,0,1,.94.72l.25.23.39.38V20.1a1.34,1.34,0,0,0-.07-.18,3.78,3.78,0,0,0-.17-.35,5.47,5.47,0,0,0-.41-.65l-.28-.35c-.06-.08-.14-.15-.21-.23s-.13-.18-.21-.21h0a5.15,5.15,0,0,1,1.88-.58,14.11,14.11,0,0,1,2.9.27A1.86,1.86,0,0,0,34.11,15.31Z"/></g></g></svg>