<svg id="Layer_1" data-name="Layer 1" xmlns="http://www.w3.org/2000/svg" viewBox="0 0 48 48"><defs><style>.cls-1{fill:#fff;}.cls-2{fill:#0a0b09;}.cls-3{fill:#fffffe;}.cls-4{fill:#cf2339;}</style></defs><title>kansas_city_chiefs</title><path class="cls-1" d="M13.22,37.41l-.28.07a4,4,0,0,1-2.46,0c-.9-.33-2.23-1.22-1.49-3.62l0-.15a11.88,11.88,0,0,1,.35-1.19,2.63,2.63,0,0,1-.91-.11l-.32-.07a3.9,3.9,0,0,0-.72.33l-.22.1a2.7,2.7,0,0,1-2.84-.64,2.38,2.38,0,0,1-.48-2.35A1.11,1.11,0,0,0,4,29.51a4.15,4.15,0,0,0-.18-1.33l-.07-.27c-.11-.45-.22-.85-.31-1.43q0-.3-.06-.57l0-.7V25l0-.17c0-.1,0-.21,0-.32a4.9,4.9,0,0,1,.05-.77A8.12,8.12,0,0,1,3.81,22a6.05,6.05,0,0,1,.64-1.41A.88.88,0,0,0,4.62,20a3.38,3.38,0,0,0-.16-.6l0-.16a3.26,3.26,0,0,1,0-1.39,2.9,2.9,0,0,1,.8-1.56l.08-.07a2,2,0,0,1,2.29-.35l.22.13.21-.1a3.08,3.08,0,0,1,1.89-.4L9.74,15a4.43,4.43,0,0,1-.27-1.25,3.06,3.06,0,0,1,.31-1.83,2.79,2.79,0,0,1,1.74-1.35l.21,0a7.33,7.33,0,0,1,2.1.17,3.92,3.92,0,0,0,1.44.12,6.46,6.46,0,0,1,2.33-.12,5.25,5.25,0,0,1,1.63.57l.11.07a.64.64,0,0,0,.19.08,9.08,9.08,0,0,1,2.27,0,3.47,3.47,0,0,1,1.34.48l.44.27a3.5,3.5,0,0,0,.49.29,1.87,1.87,0,0,0,1.09.19,4.67,4.67,0,0,1,1.53.15,4.1,4.1,0,0,1,1.29.68,2.39,2.39,0,0,0,1.21.43h.44a4.61,4.61,0,0,1,3.16,1l.16.13a2.35,2.35,0,0,0,1,.38,6.05,6.05,0,0,1,1.52.56,4.36,4.36,0,0,1,1.7,1.46.57.57,0,0,0,.25.2,3.68,3.68,0,0,1,2.73,1.67,1.37,1.37,0,0,0,.56.46,3.4,3.4,0,0,1,.72.51l.14.11a4,4,0,0,1,.72.49,8.45,8.45,0,0,1,.75.59,8.07,8.07,0,0,1,.89.87c.44.43,1.14,1.48,0,3.09a5.59,5.59,0,0,1-1,1.21,4,4,0,0,1-2,1.1l-.15,0a1,1,0,0,0-.73.5,4.48,4.48,0,0,1-2.43,2.08l-.15,0a4.76,4.76,0,0,0-1.77.85,5.94,5.94,0,0,1-1.85,1.1,5.71,5.71,0,0,1-1.06.33,2.27,2.27,0,0,0-.58.17l-.1.08-.34.33a4,4,0,0,1-1.67.86l-.25,0a6.56,6.56,0,0,0-.76.09,2.67,2.67,0,0,0-.58.25,5.34,5.34,0,0,1-1.2.47l-.21,0a11,11,0,0,0-2.53.56l-.31.14-.24.12a4.56,4.56,0,0,1-2.11.73h-.24a6.31,6.31,0,0,0-1.15,0,7.78,7.78,0,0,0-1.7.59l-.21.08a6.11,6.11,0,0,1-1.11.24H17Z"/><g id="Team-icons_kansas_city_chiefs" data-name="Team-icons kansas city chiefs"><g id="kansas_city_chiefs" data-name="kansas city chiefs"><path id="Fill-4" class="cls-2" d="M41.26,25.05c-.88.46-1.61.33-2.4,1.14A7.33,7.33,0,0,1,37,27.84a5,5,0,0,0-1.17.48,3.78,3.78,0,0,0-.83.53,3.47,3.47,0,0,1-1.38.88c-.46.16-1,.24-1.49.38a4.47,4.47,0,0,0-1,.44,6,6,0,0,1-1.88,1.07,5.55,5.55,0,0,0-2.3.77,3.44,3.44,0,0,1-1.27.27,3.56,3.56,0,0,0-1.81.43,4.49,4.49,0,0,1-1.74.78,18.23,18.23,0,0,0-2.44.28,11.83,11.83,0,0,0-1.28.52,6.75,6.75,0,0,1-2.15.11,7.13,7.13,0,0,0-2.21.11,7.47,7.47,0,0,1-2,.14.5.5,0,0,1-.41-.3,1,1,0,0,1-.12-.64,4.87,4.87,0,0,1,.17-1c0-.14.21-1,.24-1.18.2-.87.26-1.75-.43-2.15a2.08,2.08,0,0,0-1.13-.13c-1.16.2-.92.4-1.66.14a2.24,2.24,0,0,0-.63-.1c-.37,0-.9.28-1.37.35s-.41-.31-.4-.57a8.69,8.69,0,0,0,0-1.25,7.18,7.18,0,0,0-.4-2c-.13-.65-.1-1.76-.13-1.72a5,5,0,0,1,.68-2.23A4.17,4.17,0,0,0,7,21.31,2.18,2.18,0,0,0,7.14,20s-.14-.4-.08-.4a1.32,1.32,0,0,1,.1-.68c.13-.27.22-.4.42-.48A1.21,1.21,0,0,1,8,18.31c.43,0,.52.25,1.33-.09a1.34,1.34,0,0,1,1,.13c.56.21.47.21.82.22a1.77,1.77,0,0,0,1-.27,1.51,1.51,0,0,0,.43-.32,2.9,2.9,0,0,0,.24-.7,2.09,2.09,0,0,0,0-.93c-.17-.69-.24-.83-.36-1.26a8.68,8.68,0,0,1-.27-1V13.7a.48.48,0,0,1,.39-.55h.07c1,0,1.94.28,3,.27a4.86,4.86,0,0,1,2.27.19c.36.13.57.43,1.13.58,1.07.3,1.91-.41,2.82,0a6.18,6.18,0,0,1,1.31.59,4.69,4.69,0,0,0,1.84.7A4.38,4.38,0,0,1,27.6,16a3.34,3.34,0,0,0,1.8.65c.85.09.93,0,1.6.45.49.36.36.28.85.65a3.54,3.54,0,0,0,.73.48,5.31,5.31,0,0,0,.88.19,3.63,3.63,0,0,1,1.31.16s.65.42.54.34a4.84,4.84,0,0,1,.94,1.13,1.75,1.75,0,0,0,1.28.67c-.17,0,.79.31.94.39a2.6,2.6,0,0,1,.82.73,4.56,4.56,0,0,0,1.19,1c.27.18.32.25.84.62a2,2,0,0,1,.59.6C42.14,24.58,41.8,24.76,41.26,25.05ZM42,22.66a5.82,5.82,0,0,0-.68-.52,2.29,2.29,0,0,0-.54-.38c-.34-.21-.43-.38-.77-.57a3,3,0,0,1-1.16-1,2.19,2.19,0,0,0-1.75-1,2.1,2.1,0,0,1-1.21-.83,2.94,2.94,0,0,0-1.18-1c-.91-.5-2-.42-2.78-1.15-1.24-.87-1.56-.71-2.86-.75a4,4,0,0,1-2-.73,2.33,2.33,0,0,0-.82-.44c-.92-.28-1.54.2-2.82-.42-.38-.18-.71-.43-1.08-.64a2.05,2.05,0,0,0-.76-.28,7.32,7.32,0,0,0-2.09,0,2.24,2.24,0,0,1-1-.36,3.52,3.52,0,0,0-1.1-.39,4.91,4.91,0,0,0-1.83.1c-1.28.26-2.46-.39-3.69-.27a1.21,1.21,0,0,0-.76.57,1.65,1.65,0,0,0-.16,1,2.86,2.86,0,0,0,.2.91c.23.75.34,1.16.52,1.66s.2,1.3-.29,1.53a.94.94,0,0,1-.86-.06c-.35-.27-.54-.64-.93-.72s-1.15.44-1.7.58-.63-.15-1-.33a.48.48,0,0,0-.65.13,1.34,1.34,0,0,0-.38.77,1.67,1.67,0,0,0,0,.77,4.89,4.89,0,0,1,.24.93,2.38,2.38,0,0,1-.38,1.6,4.85,4.85,0,0,0-.51,1.14,7,7,0,0,0-.35,1.42c-.06.39,0,.82-.08,1.18a10.54,10.54,0,0,0,.08,1.13c.1.61.21,1,.34,1.51a5.8,5.8,0,0,1,.24,1.76c0,.59-.39,1.14,0,1.55a1.18,1.18,0,0,0,1.25.28,5.58,5.58,0,0,1,1.18-.5c.67-.09,1.11.2,1.4.16s.71-.29.93-.3a1.28,1.28,0,0,1,.67.06c.21.16.33.33.3.86l-.13.57c-.21.71-.44,1.36-.55,1.84s-.67,1.59.45,2a2.54,2.54,0,0,0,1.59,0,4.6,4.6,0,0,1,.74-.14h.82a4.59,4.59,0,0,1,1.48,0,6.85,6.85,0,0,0,1.69.13,4.94,4.94,0,0,0,.85-.18,9.41,9.41,0,0,1,2.13-.73,9.27,9.27,0,0,1,1.49,0,2.93,2.93,0,0,0,1.45-.52c.37-.2.47-.21.72-.35a12.4,12.4,0,0,1,3-.67c.71-.17,1-.51,1.79-.72a8.28,8.28,0,0,1,1-.13,2.48,2.48,0,0,0,1-.5c.44-.41.39-.43.73-.62.57-.32,1.22-.31,1.8-.58a4.85,4.85,0,0,0,1.5-.89A6.21,6.21,0,0,1,37.07,29a2.94,2.94,0,0,0,1.61-1.37,2.47,2.47,0,0,1,1.86-1.28,2.72,2.72,0,0,0,1.33-.75,4.14,4.14,0,0,0,.75-.92c.22-.31.64-.83.19-1.23A7.55,7.55,0,0,0,42,22.66Z"/><path id="Fill-5" class="cls-3" d="M31.91,29.11a7.16,7.16,0,0,1-1.39.75,8.67,8.67,0,0,1-2.5.68,17.1,17.1,0,0,1-3.2.05,11.23,11.23,0,0,1-3-.82,4.67,4.67,0,0,1-1.53-1.06,3.54,3.54,0,0,1-.92-1.56A4,4,0,0,1,19.75,24a4.61,4.61,0,0,1,1.48-1.5L21,22.23l-2.79,1.6v.41H19v1.61l-.5.47H13.39V25a8.55,8.55,0,0,1,.61-.74h.24V19h-.78V18l.65-.77h4.8v1.22l-.74.75v2l4.59-2.62v-.83l.51-.52h4.89v1.2l-.6.57H26.34l-2,1.21.36.36a9,9,0,0,1,7.12.38l.8-.49h1.32V24l-.63.62H32c-.93-1.53-2.51-2.92-5.69-2.24L28,24.28h.37v1.46l-.62.58H23V25l.35-.37-.21-.23c-.7.54-1.17,1.69.49,3,2.27,1.62,8,.66,8.55-1.44H34A4.27,4.27,0,0,1,31.91,29.11Zm9.4-5.65c-.52-.37-.57-.44-.84-.62a4.56,4.56,0,0,1-1.19-1,2.6,2.6,0,0,0-.82-.73c-.15-.08-1.11-.42-.94-.39a1.75,1.75,0,0,1-1.28-.67A5,5,0,0,0,35.3,19c.11.08-.55-.36-.54-.34a3.63,3.63,0,0,0-1.31-.16,5.31,5.31,0,0,1-.88-.19,3.54,3.54,0,0,1-.73-.48c-.49-.37-.36-.29-.85-.65-.67-.48-.75-.36-1.6-.45a3.34,3.34,0,0,1-1.8-.65A4.35,4.35,0,0,0,25,15.47a4.69,4.69,0,0,1-1.84-.7,6.18,6.18,0,0,0-1.31-.59c-.91-.43-1.75.28-2.82,0-.56-.15-.77-.45-1.13-.58a4.86,4.86,0,0,0-2.27-.19c-1.05,0-2-.27-3-.27a.49.49,0,0,0-.47.49v.46a8.68,8.68,0,0,0,.27,1c.12.43.19.57.36,1.26a2.09,2.09,0,0,1,0,.93,2.9,2.9,0,0,1-.24.7,1.51,1.51,0,0,1-.43.32,1.77,1.77,0,0,1-1,.27c-.35,0-.26,0-.82-.22a1.34,1.34,0,0,0-1-.13c-.81.34-.9.06-1.33.09a1.06,1.06,0,0,0-.39.13c-.2.08-.29.21-.42.48a1.32,1.32,0,0,0-.1.68l.08.39a2.17,2.17,0,0,1-.07,1.38,4.21,4.21,0,0,1-.49.94,5,5,0,0,0-.68,2.23A11,11,0,0,0,6,26.26a7.18,7.18,0,0,1,.4,2v1.25c0,.26.07.62.4.57s1-.33,1.37-.35a2.24,2.24,0,0,1,.63.1c.74.26.5.06,1.66-.14a2.08,2.08,0,0,1,1.13.13c.69.4.63,1.28.43,2.15,0,.14-.2,1-.24,1.18a4.87,4.87,0,0,0-.17,1,1,1,0,0,0,.12.64.5.5,0,0,0,.41.3,7.47,7.47,0,0,0,2-.14,7.13,7.13,0,0,1,2.21-.11,6.75,6.75,0,0,0,2.15-.11,11.83,11.83,0,0,1,1.28-.52,18.23,18.23,0,0,1,2.44-.28A4.51,4.51,0,0,0,24,33.15a3.56,3.56,0,0,1,1.81-.43A3.84,3.84,0,0,0,27,32.39a5.55,5.55,0,0,1,2.3-.77,6,6,0,0,0,1.88-1.07,4.47,4.47,0,0,1,1-.44c.48-.14,1-.22,1.49-.38A3.23,3.23,0,0,0,35,28.85a3.78,3.78,0,0,1,.83-.53A5,5,0,0,1,37,27.84a7.55,7.55,0,0,0,1.87-1.65c.79-.81,1.52-.68,2.4-1.14.54-.29.88-.47.64-1A2,2,0,0,0,41.31,23.46Z"/><path id="Fill-6" class="cls-2" d="M33.65,26.23a3.5,3.5,0,0,1-1.12,1.9A5.19,5.19,0,0,1,31,29.23a8.86,8.86,0,0,1-3.88.89,11.86,11.86,0,0,1-4.86-.79A4.57,4.57,0,0,1,20,27.41a3.52,3.52,0,0,1-.08-2.65,3.73,3.73,0,0,1,1.62-2l1.32,1.41a1.85,1.85,0,0,0-.35,2.59,1.7,1.7,0,0,0,.22.24c1.24,1.56,4.09,2,7,1.12a4.14,4.14,0,0,0,2.68-1.88ZM17.91,23.61v1.06h.72v.9H14.24v-.9H15V18.4h-.75v-.79h4.39v.79h-.75v3.4l6-3.41h-.53V17.6h4.53v.78h-1l-3.06,1.8L28,24.64h.14v.91H23.5v-.92h.64l-2.83-3Zm13.94-2.26.75-.49h1V24H32.47c-1.18-1.78-3.88-2.41-6.4-1.81L24.9,20.93A9.16,9.16,0,0,1,31.85,21.35Zm-8.28,6c-1.66-1.31-1.19-2.46-.49-3l.21.23-.35.37V26.3h4.79l.62-.58V24.28H28l-1.65-1.79c3.18-.68,4.76.71,5.69,2.24h1.24l.63-.62V20.57H32.59l-.8.49a9,9,0,0,0-7.12-.38l-.36-.36,2-1.21h1.22l.6-.57v-1.2H23.27l-.51.52v.83L18.17,21.3v-2l.74-.75V17.31h-4.8l-.65.77v1h.78v5.2H14a8.55,8.55,0,0,0-.61.74v1.34h5.06l.5-.47V24.24h-.74v-.41L21,22.23l.23.24A4.61,4.61,0,0,0,19.75,24a4,4,0,0,0-.42,3.18,3.54,3.54,0,0,0,.92,1.56,4.67,4.67,0,0,0,1.53,1.06,11.23,11.23,0,0,0,3,.82,17.1,17.1,0,0,0,3.2-.05,8.67,8.67,0,0,0,2.5-.68,7.16,7.16,0,0,0,1.39-.75A4.27,4.27,0,0,0,34,25.93H32.12C31.53,28,25.84,29,23.57,27.37Z"/><polyline id="Fill-7" class="cls-4" points="24.14 24.66 23.5 24.66 23.5 25.57 28.05 25.57 28.05 24.67 27.91 24.66 23.79 20.21 26.85 18.41 27.86 18.39 27.86 17.61 23.33 17.61 23.33 18.4 23.86 18.4 17.88 21.81 17.88 18.41 18.63 18.4 18.63 17.61 14.24 17.61 14.24 18.4 14.99 18.4 14.99 24.66 14.24 24.66 14.24 25.57 18.63 25.57 18.63 24.66 17.91 24.66 17.91 23.61 21.31 21.66 24.14 24.66"/><path id="Fill-8" class="cls-4" d="M29.77,28.11c-2.95.88-5.8.44-7-1.12a1.85,1.85,0,0,1-.14-2.61,2.73,2.73,0,0,1,.25-.23l-1.32-1.41a3.73,3.73,0,0,0-1.62,2A3.53,3.53,0,0,0,20,27.41a4.59,4.59,0,0,0,2.27,1.92,11.86,11.86,0,0,0,4.86.79A8.81,8.81,0,0,0,31,29.23a5.1,5.1,0,0,0,1.54-1.1,3.5,3.5,0,0,0,1.12-1.9h-1.2a4.14,4.14,0,0,1-2.68,1.88"/><path id="Fill-9" class="cls-4" d="M32.47,24h1.16V20.85h-1l-.75.49a9.19,9.19,0,0,0-7-.42l1.17,1.28c2.52-.6,5.22,0,6.4,1.81"/></g></g></svg>