<svg id="Capa_4" data-name="Capa 4" xmlns="http://www.w3.org/2000/svg" xmlns:xlink="http://www.w3.org/1999/xlink" viewBox="0 0 800 800"><defs><style>.cls-1{fill:none;}.cls-2{clip-path:url(#clip-path);}.cls-3{fill:#fff;}.cls-4{fill:#024592;}.cls-5{fill:#051b3e;}.cls-6{fill:#ffde00;}.cls-7{fill:#f6a400;}.cls-8{fill:#ee7b0f;}.cls-9{clip-path:url(#clip-path-2);}.cls-10{fill:url(#Degradado_sin_nombre_2);}</style><clipPath id="clip-path"><rect class="cls-1" x="25.24" y="124.59" width="742.69" height="533.15"/></clipPath><clipPath id="clip-path-2"><path class="cls-1" d="M222.61,559a229.89,229.89,0,0,0,65.06,53.58A220.9,220.9,0,0,1,248,534.71,76.31,76.31,0,0,0,222.61,559M393.06,183.3c-71.37,1.52-134.89,36.28-175.85,89.15h39.44L180.4,444.56h61.9c15.19-104.28,104.21-185.3,212.92-189.71,3.1-.16,6.22-.26,9.37-.26a187.08,187.08,0,0,1,71.78,13.9,169,169,0,0,1,73.71,58.73l0,0c-33.05-85.69-114.71-143.94-212-143.94-1.66,0-3.32,0-5,.05"/></clipPath><linearGradient id="Degradado_sin_nombre_2" x1="2.51" y1="703.74" x2="10.15" y2="703.74" gradientTransform="matrix(56.26, 0, 0, -56.26, 39.23, 39992.72)" gradientUnits="userSpaceOnUse"><stop offset="0" stop-color="#f6a400"/><stop offset="0.12" stop-color="#f7a900"/><stop offset="0.25" stop-color="#f9b700"/><stop offset="0.4" stop-color="#fcce00"/><stop offset="0.48" stop-color="#ffde00"/><stop offset="1" stop-color="#ffde00"/></linearGradient></defs><title>L.A.</title><g class="cls-2"><path class="cls-3" d="M677.38,215.14a309.06,309.06,0,0,0-382.13-43.72h0c-33,21.55-62.52,50.66-85.89,83.88-.07.1-.16.19-.24.29H145.4L25.24,527.48h155.9a248.5,248.5,0,0,0,98.4,99.82,245.75,245.75,0,0,0,252.76-9.52,23.9,23.9,0,0,0-12.79-43.9,24.08,24.08,0,0,0-7,1,166.2,166.2,0,0,1-47.9,7c-47.45,0-92-20.31-122.36-54.46H487.8l25-34.83h97s-3,7.51-4.58,11.18l-10.42,23.66H753.66l3.39-12.44a309.17,309.17,0,0,0-79.67-299.91m63.41,295.49H620.69A242.9,242.9,0,0,0,633,475.79H504l-24.86,34.83H363.55L536.39,268.5h0a187.27,187.27,0,0,0-71.78-13.89q-4.72,0-9.37.24c-93.76,4.72-168.54,80-168.54,171.86a167.48,167.48,0,0,0,.95,17.86h102.1l-30.41,42.78c-9.58,12.9-22.31,23.28-41.69,23.28h-8.32c30.48,52.57,88.66,88.17,155.28,88.17a182.78,182.78,0,0,0,52.75-7.73,7.67,7.67,0,0,1,2.16-.33c6.37,0,9.65,9,3.57,12.95a228.81,228.81,0,0,1-331.58-93.06H51.11L156.38,272.45H217.2c41-52.87,104.49-87.63,175.87-89.15,1.66,0,3.32-.05,5-.05,97.35,0,179,58.25,212.07,143.94L550.25,411h91.13c-.56-134.57-109.83-243.5-244.54-243.5a243.83,243.83,0,0,0-92.66,18.19,290.79,290.79,0,0,1,154.59-44.28c161.44,0,292.31,130.87,292.31,292.31a292.76,292.76,0,0,1-10.29,76.88M402,427.71H303.56c0-.35,0-.68,0-1,0-82.62,67-150.72,152.56-155,2.84-.15,5.7-.21,8.5-.21a174.24,174.24,0,0,1,44.84,5.81ZM615.57,348.8a225.89,225.89,0,0,1,8.26,45.38H583.18Z"/><path class="cls-4" d="M304.18,185.72a243.83,243.83,0,0,1,92.66-18.19c135.05,0,244.54,109.49,244.54,244.55a243.71,243.71,0,0,1-20.69,98.55h120.1a292.7,292.7,0,0,0,10.28-76.88c0-161.44-130.87-292.31-292.3-292.31a290.79,290.79,0,0,0-154.59,44.28"/><path class="cls-5" d="M536.39,268.5l-39.74,55.67q2.94-.15,5.91-.15A117.6,117.6,0,0,1,587,359.61l23.12-32.38a169,169,0,0,0-73.69-58.73"/><path class="cls-5" d="M633,475.79a244.74,244.74,0,0,0,8.39-63.71v-1h-25a118.2,118.2,0,0,1-.82,64.75Z"/><path class="cls-4" d="M616.39,411H550.25L587,359.61A117.58,117.58,0,0,0,502.56,324q-3,0-5.91.14L363.56,510.63H479.15L504,475.79H615.57a118.2,118.2,0,0,0,.82-64.75"/><path class="cls-6" d="M523.08,603.68a228.91,228.91,0,0,1-235.41,8.86h0A221.05,221.05,0,0,1,248,534.71c25.57-1.19,62.62,1,90,12.78a180.36,180.36,0,0,0,126.59,51.3,183.19,183.19,0,0,0,52.76-7.72,7.33,7.33,0,0,1,2.15-.34c6.37,0,9.66,9,3.59,12.95M287.63,444.56a167.34,167.34,0,0,1-1-17.86c0-91.86,74.79-167.14,168.56-171.87-108.71,4.43-197.74,85.46-212.93,189.73Z"/><path class="cls-7" d="M309.3,510.63H242.72A221.19,221.19,0,0,0,248,534.71c25.58-1.19,62.63,1,90,12.79a174,174,0,0,1-28.69-36.87"/><path class="cls-8" d="M191.49,510.63A228.73,228.73,0,0,0,222.61,559,76.22,76.22,0,0,1,248,534.71a214.32,214.32,0,0,1-5.24-24.08Z"/></g><g class="cls-9"><rect class="cls-10" x="180.4" y="183.25" width="429.7" height="429.29"/></g><g class="cls-2"><path class="cls-4" d="M256.65,272.45,180.4,444.56H389.73l-30.41,42.78c-9.58,12.91-22.31,23.29-41.69,23.29H51.11L156.38,272.45Z"/></g></svg>