<svg id="Layer_1" data-name="Layer 1" xmlns="http://www.w3.org/2000/svg" viewBox="0 0 48 48"><defs><style>.cls-1{fill:#f5bd2a;}.cls-2{fill:#fff;}.cls-3{fill:#101b2e;}.cls-4{fill:#3167a3;}</style></defs><title>los_angeles_chargers</title><path class="cls-1" d="M40,21.24a19.77,19.77,0,0,0-7.81-6.46,18.18,18.18,0,0,0-8.65-2H22.41v0l1.1,1.35H22.12c-4.4,0-11.23,1.49-15,6.77h1.6c-.08.08-.16.18-.26.3l-.07.08c-1.34,1.59-4,5.72-4,10.27a11.1,11.1,0,0,0,.22,2.23c4.56-8.35,9.84-10.32,13.69-11.93a6.85,6.85,0,0,0-.8-1.06.27.27,0,0,0-.07-.08c-.15-.18-.26-.29-.26-.29a17.91,17.91,0,0,1,2.07-.08,32.31,32.31,0,0,1,16.89,5,16.43,16.43,0,0,0-.54-1.68l-.18-.44c-.06-.12-.11-.24-.17-.35a29.43,29.43,0,0,1,7.89,10.9A15.22,15.22,0,0,0,43.2,32,17.53,17.53,0,0,0,40,21.24Z"/><path class="cls-2" d="M44,39.86l-2.29-5.49c-.85-2-3.26-4.79-4.56-6.57l-1.86-1.17a30.81,30.81,0,0,0-15.27-4.75l.43.7-2,.84c-3.74,1.56-8.4,3.5-12.55,11.1L4,38.13l-.82-4a12.69,12.69,0,0,1-.25-2.53,17.88,17.88,0,0,1,2.87-9.15H4.21L5.9,20.05c3.57-5,9.78-7,14.86-7.36l.73-1.39,2.05,0a19.67,19.67,0,0,1,9.34,2.17,21.16,21.16,0,0,1,8.34,6.92h0A19.14,19.14,0,0,1,44.7,32.06a15.5,15.5,0,0,1-.08,1.88Z"/><g id="Team-icons_los_angeles_chargers" data-name="Team-icons los angeles chargers"><g id="los_angeles_chargers" data-name="los angeles chargers"><path id="Fill-4" class="cls-3" d="M22.41,12.78h1.13a18.18,18.18,0,0,1,8.65,2A19.77,19.77,0,0,1,40,21.24,17.53,17.53,0,0,1,43.2,32a15.22,15.22,0,0,1-.07,1.79,29.43,29.43,0,0,0-7.89-10.9c.06.11.11.23.17.35l.18.44a16.43,16.43,0,0,1,.54,1.68,32.31,32.31,0,0,0-16.89-5,17.91,17.91,0,0,0-2.07.08s.11.11.26.29a.27.27,0,0,1,.07.08,6.85,6.85,0,0,1,.8,1.06C14.45,23.48,9.17,25.45,4.61,33.8a11.1,11.1,0,0,1-.22-2.23c0-4.55,2.66-8.68,4-10.27l.07-.08c.1-.12.18-.22.26-.3H7.12c3.77-5.28,10.6-6.77,15-6.77H23.5L22.4,12.8"/><path id="Fill-5" class="cls-4" d="M24.25,13.46H23.8l.91,1.3c-2.14-.18-10.35-.44-15.86,5l-.39.39L10,20.2l-.27.34A18.48,18.48,0,0,0,5.07,30.6l-.15,1,.58-.86a23.57,23.57,0,0,1,11.5-9l.3-.11-.19-.26a8,8,0,0,0-1.38-1.47,32.75,32.75,0,0,1,18.66,3.67l.57.28-.24-.59A17.16,17.16,0,0,0,33.4,20.7c3.5,2.08,6,5.14,8.51,9.06l.52.81-.08-1C41.43,19,31.06,13.32,24.25,13.46"/><path id="Fill-6" class="cls-1" d="M25.4,14.92l-.68-1a18.92,18.92,0,0,1,10.33,3.83,16.49,16.49,0,0,1,6.7,10.89c-2.59-3.89-5.18-6.91-9-8.89l-.75-.4.51.78A18.47,18.47,0,0,1,34,22.81a33.34,33.34,0,0,0-18.91-3.39l-.54.07.65.55a9.15,9.15,0,0,1,1.32,1.32,23.74,23.74,0,0,0-10.8,8.38,18.12,18.12,0,0,1,4.43-8.84L11,19.81H9.59c6.19-5.7,15.46-4.49,15.55-4.48l.56.09L25.38,15"/></g></g></svg>