<svg id="Layer_1" data-name="Layer 1" xmlns="http://www.w3.org/2000/svg" viewBox="0 0 48 48"><defs><style>.cls-1{fill:#fffffe;}.cls-2{fill:#0a0b09;}.cls-3{fill:#9ea5a4;}</style></defs><title>oakland_raiders</title><path class="cls-1" d="M23.8,40.33l-.38-.1C15.55,38.18,7.53,29.68,8.64,12l.11-1.63,1.61.24c5.15.75,9.85-.14,12.59-2.36l1-.78.95.79c2.64,2.19,7.13,3.07,12.62,2.45l1.58-.18.09,1.58c1,17.65-7.08,26.09-15,28.11Z"/><g id="Team-icons_oakland_raiders" data-name="Team-icons oakland raiders"><g id="oakland_raiders" data-name="oakland raiders"><path id="Fill-5" class="cls-2" d="M23.9,9.42c-3.37,2.74-8.68,3.42-13.76,2.68-.76,12.11,3.2,23.95,13.66,26.68C34.28,36.1,38.34,24.32,37.65,12.21c-5.18.58-10.39,0-13.75-2.79"/><path id="Fill-6" class="cls-1" d="M27.93,30.3a4.41,4.41,0,0,1-.42.91,2.92,2.92,0,0,1,.21.56c.81.63,1.71,1.21,4,.66a18.73,18.73,0,0,1-3.61-2l-.17-.11"/><path id="Fill-7" class="cls-1" d="M19.52,30.65a4.83,4.83,0,0,0,.51.68s.17.15.1.66a5.62,5.62,0,0,1-4.3.52,17.77,17.77,0,0,0,3.51-1.77l.18-.09"/><path id="Fill-8" class="cls-1" d="M26.63,30.43a1.29,1.29,0,0,1-.16.17.09.09,0,0,1-.06.08l-.19.13c-.07.05-.12.17-.06.22s.15.1.21,0,.11-.06.15-.1a.67.67,0,0,0,.24-.41c0-.05,0-.08-.08-.12s-.05,0-.05.07h0"/><path id="Fill-9" class="cls-1" d="M20.81,30.6c.07.18.23.26.28.33s.11.24.18.35c-.12.07-.22.26-.34.2s-.09-.15-.12-.24a3.42,3.42,0,0,1,0-.64h0"/><path id="Fill-10" class="cls-3" d="M23,17.71c-1.37,0-2.79.34-3.22,1.66a23,23,0,0,0-.68,3.07c-.38.11-1.16.49-.93,2.6a42.19,42.19,0,0,0,1.21,4.54h.24s.22-.23.18.52a.64.64,0,0,0,.27.7s.16-.63.26.33A3.4,3.4,0,0,0,22,34s.64-.42.71-.45a4.42,4.42,0,0,1-1.44-.9s.14.66-.4-.09c0,0-.27-.26-.42-2,0-.24,0-.27-.21-.52-.75-1.53-1.35-5.07.06-6.37a38.72,38.72,0,0,1,6.37.07c.54.13.81.3.93,1.24a12.28,12.28,0,0,1-.52,5.45,1.38,1.38,0,0,1-.31.6,3.16,3.16,0,0,0-1.13,1.22,1.6,1.6,0,0,1-.8.65c-.42.25-2,.65-1.38,1.34a2.81,2.81,0,0,1-.49.16s.08.39.26.33a1.06,1.06,0,0,0,.43-.32,3.77,3.77,0,0,0,2.83-.75c.29-.19.82-.44.88-.94a1.73,1.73,0,0,0-.2-1.53,2.92,2.92,0,0,0,.46-1.46,8.21,8.21,0,0,0,1.81-4.38s-.22-1.48-.16-.06a6.72,6.72,0,0,1-.16,1s-.3,1.1-.14,0a22.22,22.22,0,0,0-.14-3.16s-.05-.56.26.25l-.05-.18s.15,1,.18.3c-.18-.85-.23-1.06-.48-1.15a11.52,11.52,0,0,0-.62-2.46L28,20a25,25,0,0,1,.59,6.22s-.27,2.21-.5,2.06a36.48,36.48,0,0,0,.21-5.12,14.75,14.75,0,0,0-.44-2.88s-.56-1.46,0-.67H28c-.49-1.27-1.24-1.88-3.48-1.93l.3,5.5h-2l.22-5.5"/><path id="Fill-11" class="cls-1" d="M20.44,24.89l.44-.08a10.3,10.3,0,0,1,1.92.09c.13.06.36-.06.47-.11a4.7,4.7,0,0,0,.92-.47c.08,0,.6-.36.51-.37a21,21,0,0,0-4.19,0,.79.79,0,0,0-.27.1c-.23.26-.18.28-.34.64.11-.24,0,.29-.07.34s.19.13.24.06a.35.35,0,0,1,.37-.23"/><path id="Fill-12" class="cls-1" d="M27.22,28.65a5.19,5.19,0,0,1-.18.78,1.13,1.13,0,0,1-.41.64c-.07-.31-.13-.62-.17-.94-.2.07-.17.36-.19.63a1.52,1.52,0,0,0,.05.6c0,.06-.14.18-.2.27a4.25,4.25,0,0,1-.62.78s-.05.1-.09.12a1.37,1.37,0,0,0-.25.23,1.29,1.29,0,0,1-.32.19l-.27.08a1,1,0,0,1-.35,0c-.15,0-.35-.19-.51-.23-.47-.11-.58.31-1.31.15-.3-.06-.36-.26-.55-.47l-.24-.29a2.68,2.68,0,0,1-.61-.88,1.5,1.5,0,0,1,0-.89c0-.15,0-.52-.15-.55-.12.14,0,.23-.07.41s.13.2,0,.61c0,.12-.1.09-.14,0-.13-.3-.06-.93-.37-1.18a.2.2,0,0,1,0-.27c.09-.07.18,0,.31,0s0-.15,0-.17-.33-.07-.33-.09a.93.93,0,0,0-.05-.57c-.11-.16-.28-.18-.35-.34a1.27,1.27,0,0,1-.1-.61,1,1,0,0,1,0-.43v-.3c0-.2.06-.19.09-.39s.3-.19.3.09a4.79,4.79,0,0,0,.05,1,.4.4,0,0,0,.12.1,6.78,6.78,0,0,0,2.2.12c.21,0,.34-.27.38-.48a2.64,2.64,0,0,0,.08-.84c0-.1.14-.07.21,0s0,.22.06.42-.17.39-.17.39a4.75,4.75,0,0,0-.05.53,3.53,3.53,0,0,1,0,.46c0,.26.15.16.12.35A1,1,0,0,1,23,28c0,.18-.36.14-.3.14s-.15,0-.15-.11a1.13,1.13,0,0,0,0-.26c-.19,0-.11.15-.12.34s.05.16.2.18.17.05.24,0,.16-.05.18-.11c.07.28.15.32.36.31s.29,0,.37-.17.16,0,.18-.09c.36.07.14.21.57.07a.25.25,0,0,0,.16-.31v-.07H24.6c-.05.37-.19.26-.33.25-.46,0-.21-.22-.61,0,0,0-.18.22-.36.07s0-.38.05-.62a10.09,10.09,0,0,0,0-1.1c0-.47.09-.18.17-.39-.07,0,0-.57,0-.6,0-.21-.28-.13-.35-.21a.14.14,0,0,1,0-.17,4.52,4.52,0,0,0,.89-.33c.58-.29.91-.47,1.2-.65.08-.05.11-.16.16-.16a2.81,2.81,0,0,1,1.52.15.88.88,0,0,1,.5.68v1.05a5.31,5.31,0,0,1,0,1.38s-.08.17-.1.17a1.93,1.93,0,0,1-.27.3v.11a3.28,3.28,0,0,0,.31-.12,4.78,4.78,0,0,1-.1,1"/><path id="Fill-13" class="cls-2" d="M26.29,25.38a2.71,2.71,0,0,0-.35-.24c-.07,0-.39.17-.47.18-.33,0-.52.05-.87.06-.08,0-.21,0-.26-.08a.21.21,0,0,1,0-.19c.11-.13.31.1.44-.24h.51a3.35,3.35,0,0,1,1,0c.05-.05.13.18.21.23s.11,0,.18.19c-.05-.05,0,.13,0,.08a.33.33,0,0,1,0,.14l-.18-.05-.14-.09"/><path id="Fill-14" class="cls-2" d="M24.36,25.7c.34-.2-.25-.26-.15.32,0-.05.11,0,.12,0a1.31,1.31,0,0,0,0-.28"/><path id="Fill-15" class="cls-2" d="M24.09,26.59c.07.28,0,.24,0,.5s.24.29.24,0c0-1-.09-.7-.2-.52"/><path id="Fill-16" class="cls-2" d="M26.88,28c0,.07-.09.08-.15.12s-.1.1-.08.15a.12.12,0,0,0,.11.05.39.39,0,0,0,.1-.08V28"/><path id="Fill-17" class="cls-2" d="M24.36,27.69s.08,0,.09-.07h0a.07.07,0,0,0,0-.1h0a.08.08,0,0,0-.11,0h0a.06.06,0,0,0,0,.06.09.09,0,0,0,.08.09"/><path id="Fill-18" class="cls-2" d="M26.51,26.06c-.09.05-.17,0-.25.09.13-.08-.72-.14-.4-.1a4.62,4.62,0,0,0-.65-.08h0l-.27-.14c-.09-.06-.12,0-.17,0s0,0,0-.06.05,0,.07,0a1.67,1.67,0,0,0,.31-.05c.35-.13.61.06,1,0a.74.74,0,0,1,.36.06c.1.06,0,.06,0,.07h.16s-.06.1-.12.14"/><path id="Fill-19" class="cls-2" d="M26.17,26.57h-.05a1.14,1.14,0,0,1-.56-.19h-.44c-.07,0-.11.14-.06.18a.21.21,0,0,0,.28,0,.35.35,0,0,1,.37,0h.1a2.16,2.16,0,0,0,.36,0"/><path id="Fill-20" class="cls-2" d="M25,26.23s-.06,0,0-.08-.2.08-.3,0-.09-.09-.15-.13,0,.22,0,.26.3-.13.45,0v-.05"/><path id="Fill-21" class="cls-1" d="M18.09,21.13l-.74.73c.23.37.47.72.73,1.06.14-.25.36-.6.66-.62l.05-.38-.7-.79"/><path id="Fill-22" class="cls-1" d="M15.33,18.19h.4c.52.58,1.81,2.27,1.81,2.27l-.2.47a5.26,5.26,0,0,0,1-1c.37-.4.7-.09.41.17A10.3,10.3,0,0,1,17,21.78c-1.7,1.53-4.91-.92-2.22-3.27l.53-.32"/><path id="Fill-23" class="cls-2" d="M14.82,19.09c.3-.36.56-.16.33.05s.15.52.37.44.38.2.33.31c-.14.27.12.56.32.46s.34.13.26.29a.26.26,0,0,0,.09.37h0a.26.26,0,0,0,.29,0c.29-.14.13.25.13.25-1.46,1.23-3.6-1.12-2.13-2.18"/><path id="Fill-24" class="cls-1" d="M15,18.56a.47.47,0,0,0,.5-.44h0a.47.47,0,1,0-.94-.06h0a.5.5,0,0,0,.44.49"/><path id="Fill-25" class="cls-2" d="M15.21,17.8c.37.15,0,.57-.19.53s-.07-.09-.07-.09c.25,0,.47-.28.16-.37-.11,0,.1-.07.1-.07"/><path id="Fill-26" class="cls-1" d="M32,18.2h-.39c-.51.6-1.74,2.32-1.74,2.32l.21.47a5.57,5.57,0,0,1-1-.94c-.38-.38-.7-.06-.4.19a10.51,10.51,0,0,0,1.75,1.58c1.75,1.48,4.89-1.21,2.13-3.49L32,18.2"/><path id="Fill-27" class="cls-2" d="M32.64,18.9c-.25-.25-.44-.11-.38.1s-.21.69-.36.6-.39.2-.32.32-.11.58-.3.47-.33.16-.26.3-.14.46-.38.39-.11.26-.11.26c1.49,1.18,3.61-1.43,2.11-2.44"/><path id="Fill-28" class="cls-1" d="M32.42,18.41c-.26,0-.49,0-.51-.28s.17-.63.43-.65a.48.48,0,0,1,.51.43.46.46,0,0,1-.42.5h0"/><path id="Fill-29" class="cls-2" d="M32.26,17.66c-.41.21-.12.59.18.52s.05-.09.05-.09c-.29.05-.5-.22-.15-.37.1,0-.08-.06-.08-.06"/><path id="Fill-30" class="cls-1" d="M29.44,21.25c.11.06.71.61.86.7a10.09,10.09,0,0,1-.81,1.73c0-.69-.11-1.47-.49-1.47l-.07-.28.51-.68"/><path id="Fill-31" class="cls-2" d="M27,32.22c0-.2-.15-.4-.28-.24s-.08.26-.16.35-.37.27-.51.41a.31.31,0,0,0-.09.42l0,0a.57.57,0,0,0,.18.34c.19.14.45,0,.73-.36a.43.43,0,0,0,.06-.27v-.69"/><path id="Fill-32" class="cls-2" d="M25.82,33.53c0,.57-.85.8-1.19.61-.05,0-.23-.19-.2-.3a.4.4,0,0,1,.25-.21.35.35,0,0,0,.29-.1c.1-.1.23-.14.39-.29a.29.29,0,0,1,.35,0,.22.22,0,0,1,.1.28h0"/><path id="Fill-33" class="cls-1" d="M26.75,32.67c-.35.24-.78.44-.38.66.1.05.36-.13.42-.35a1.61,1.61,0,0,0,0-.31"/><path id="Fill-34" class="cls-1" d="M25.53,33.78a1.28,1.28,0,0,1-.25.15.8.8,0,0,1-.5.11c-.16,0-.09-.17-.06-.17.44-.06.52-.3.8-.41a.14.14,0,0,1,.08.17.26.26,0,0,1-.07.15"/><path id="Fill-35" class="cls-2" d="M22.26,28.61c-.11.14,0,.16-.26.42a1.93,1.93,0,0,0-.28.22.29.29,0,0,0,0,.13c.16.05.47-.08.79-.08a2.35,2.35,0,0,1,.59.1,4.87,4.87,0,0,0,1.08,0,3.81,3.81,0,0,1,.75.07c.31,0,.5-.18.37-.15h-.45a1.16,1.16,0,0,1-.52-.05,2.82,2.82,0,0,0-.82,0A12.72,12.72,0,0,0,22,29.2c-.06,0,.45-.4.41-.35.15-.18.18-.44.21-.35s-.15-.17-.37.11"/><path id="Fill-36" class="cls-2" d="M22.86,30.05c.38,0,1.09.23,1.43.06,0,.05.28-.12.27.07s-.47.22-.59.18c-.33-.11-.45,0-1.14,0a.37.37,0,0,1-.44-.26h0c0-.09.18-.11.47,0"/><path id="Fill-37" class="cls-2" d="M25.12,28.88c-.05.12.08.2.15.14a.17.17,0,0,0,0-.21h0c0,.06-.06.05-.08.09"/><path id="Fill-38" class="cls-2" d="M25,28.78l-.1-.09a2.11,2.11,0,0,0-.34-.16c-.12,0,0-.08,0-.11s.15,0,.23,0,.12.22.2.29.09,0,.07.08-.08,0-.09,0h0"/><path id="Fill-39" class="cls-1" d="M25.34,29.23a.09.09,0,0,0,.11-.07h0a.09.09,0,0,0-.18,0h0a.08.08,0,0,0,.07.09h0"/><path id="Fill-40" class="cls-1" d="M32.88,15.08a1.21,1.21,0,0,0,.7.29c.14,0,.22,0,.22-.14s-.14-.15-.37-.2c-.47-.1-.71-.36-.71-.76a1,1,0,0,1,1-1h.17a2.07,2.07,0,0,1,.94.26l-.31.72A1,1,0,0,0,34,14c-.14,0-.22.05-.22.13s.19.15.52.23a.74.74,0,0,1,.62.75,1.08,1.08,0,0,1-1.15,1h0a2.12,2.12,0,0,1-1.1-.31l.32-.78"/><path id="Fill-41" class="cls-1" d="M14.05,14.58h.16a.26.26,0,0,0,.29-.21v-.06a.27.27,0,0,0-.24-.28h-.21Zm-1-1.26h1.26c.74,0,1.12.34,1.12.93a.65.65,0,0,1-.54.72l.75,1.13h-1.1l-.49-.92v.92h-1Z"/><path id="Fill-42" class="cls-1" d="M18.13,15.06l-.08-.31a3.14,3.14,0,0,1-.12-.61h0a2.52,2.52,0,0,1-.11.61l-.08.31Zm-.75-1.77h1.11l1,2.79h-1.1l-.09-.35h-.75l-.09.35H16.39Z"/><polygon id="Fill-43" class="cls-1" points="20.36 16.1 21.38 16.1 21.38 13.32 20.36 13.32 20.36 16.1"/><path id="Fill-44" class="cls-1" d="M24.06,14.71c0-.37-.2-.54-.61-.54h0v1.08C23.85,15.24,24.06,15.09,24.06,14.71Zm-1.51-1.39h.81a2.45,2.45,0,0,1,1.1.17,1.37,1.37,0,0,1,.6,1.84,1.33,1.33,0,0,1-.42.49,2.27,2.27,0,0,1-1.35.28h-.74Z"/><polyline id="Fill-45" class="cls-1" points="26.16 13.32 28.02 13.32 28.02 14.07 27.14 14.07 27.14 14.34 27.94 14.34 27.94 15.05 27.14 15.05 27.14 15.35 28.05 15.35 28.05 16.1 26.16 16.1 26.16 13.32"/><path id="Fill-46" class="cls-1" d="M30.15,14.58h.16a.26.26,0,0,0,.29-.21v-.06a.27.27,0,0,0-.24-.28h-.21Zm-1-1.26h1.26c.74,0,1.12.34,1.12.93A.65.65,0,0,1,31,15l.74,1.13h-1.1l-.49-.92v.92h-1Z"/></g></g></svg>