<svg id="Layer_1" data-name="Layer 1" xmlns="http://www.w3.org/2000/svg" viewBox="0 0 48 48"><defs><style>.cls-1{fill:#fff;}.cls-2{fill:#1b4f67;}.cls-3{fill:#fffffe;}.cls-4{fill:#de4a2a;}.cls-5{fill:#178588;}</style></defs><title>miami_dolphins</title><path class="cls-1" d="M45.6,31.35,43.27,30c-1.62-.95-3.55-2.1-4.64-2.79a5.33,5.33,0,0,1,1-.09h4.3l-3.86-1.9a5.2,5.2,0,0,1-.72-.42c1-.36,2.7-.89,3.75-1.21L45.14,23,43,22.62c-1.69-.29-3.64-.65-4.42-.84l.21-.59.64-.61a26.6,26.6,0,0,1,3.09-2.33,8.41,8.41,0,0,0,1.29-.88,2.48,2.48,0,0,0,.77-1.89c-.24-1.12-1.3-1.73-2.78-1.58a14.08,14.08,0,0,0-2.12.56,13.1,13.1,0,0,0-4.32-.33c0-.28.12-.61.19-.91l.23-1.09-1,.54a14,14,0,0,1-1.8.86c.26-.85.76-2.3,1.19-3.51L35,7.79,33.4,9.51c-.77.8-1.72,1.78-2.36,2.41,0-1.26,0-3.39.05-4.71l.06-2.56L30.13,7c-.66,1.54-1.52,3.47-2.06,4.58L28,11.31,27,8.56,26,11.44a2,2,0,0,1-.14.55,4.37,4.37,0,0,1-1.06-2L23,4.5l-.16,5.82a7.34,7.34,0,0,1-.16,1.93l-.18-.19-3.2-2.93L20.71,13c-.95-.6-2.45-1.61-3.63-2.43l-1.6-1.1.86,1.73c.95,1.92,1.83,3.82,2.1,4.5a2.18,2.18,0,0,1-.59-.1L11.1,12.26l5.1,4.52c-1.8-.22-4.57-.71-4.93-.77l-2.74-.49,2.4,1.41c1.38.82,2.75,1.69,4.07,2.62H10.76l4.2,2a12.39,12.39,0,0,1-2.56.68l-4.49.94,4.48,1,.55.11a17,17,0,0,1,2.13.54,5.5,5.5,0,0,1-1,.84l-1.32.89a1.34,1.34,0,0,0-.58.15l-.06,0a7.4,7.4,0,0,1-1.63,0,2.18,2.18,0,0,0-1.26.15l-.41-.18-1.21-.31a9.38,9.38,0,0,0-1.28-.26,1.66,1.66,0,0,1-.75-.37l0,0a1.29,1.29,0,0,0-1.34-.52,1.07,1.07,0,0,0-.81.79,2,2,0,0,0,.27,1.5,6.07,6.07,0,0,0,3.08,3,11,11,0,0,0,3.77.68,17.12,17.12,0,0,0,7,1.5h.05c-.37.82-1,2-1.17,2.46l-.77,1.58,1.49-.94c1.06-.67,2.36-1.47,3.14-1.91,0,.74-.07,1.49-.15,2.23L20,37.33l1-.83c.48-.42,1-.83,1.51-1.21,0,1.44,0,4.12,0,5.14l-.05,2.11,1-1.87c.85-1.6,1.93-3.6,2.52-4.66.24.51.46,1,.65,1.55L27,38.74l.5-1.15c.3-.69.64-1.37,1-2a7,7,0,0,1,.62,1.39l1.85,4.5.22-4.5V36.4c0-.32,0-.64,0-.95a.46.46,0,0,1,.07.07l2.35,2.82L33,34.72l0-.16c1.13.89,3,2.52,3.77,3.15l1.83,1.57-1-2.17c-.92-1.9-2-4.18-2.33-5.15a6.42,6.42,0,0,1,1.31.26l3.88,1.12-2.91-2.8A2,2,0,0,1,37.1,30l5.84.91Z"/><g id="Team-icons_miami_dolphins" data-name="Team-icons miami dolphins"><g id="miami_dolphins" data-name="miami dolphins"><path id="Fill-1" class="cls-2" d="M38.56,16a7.71,7.71,0,0,1-1.36.09,2.89,2.89,0,0,0-1.45.26,2.35,2.35,0,0,0-1,.87.64.64,0,0,1,.13-.15,1.88,1.88,0,0,1,1.53-.5.18.18,0,0,0,0,.2h0l.63-.2a9.59,9.59,0,0,0,1.29-.39c.52-.21.68-.31.67-.35s-.15,0-.45.13"/><path id="Fill-2" class="cls-3" d="M34.9,17.1a.64.64,0,0,0-.13.15,7.53,7.53,0,0,0-.41.73,4.73,4.73,0,0,1,2-1.15h0a.18.18,0,0,1,0-.2,1.88,1.88,0,0,0-1.53.5"/><path id="Fill-3" class="cls-4" d="M35.93,29.05a2.81,2.81,0,0,0,.86,2.21c-.38-.11-2.35-.67-2.67.06s1.58,3.76,1.8,4.31c-.89-.88-3.33-2.87-3.68-2.64s-.26,1.33-.17,1.89c-.33-.4-.91-1.06-1.41-.86s-.43,2.09-.47,2.9c-.41-1-1.08-2.87-1.7-2.8S27.18,35.5,27.05,36c-.1-.5-.5-1.59-1.12-1.59s-2,2.9-2.47,3.84c0-.73.17-4.29-.21-4.46s-1.7.63-2,1c.11-.47.2-2-.15-2.24S19.78,32.29,18,34a9.25,9.25,0,0,0,.91-2,16.41,16.41,0,0,0,2.22-.27,9.84,9.84,0,0,0,15.6-8,8.65,8.65,0,0,0-.08-1.25l1-1a1.87,1.87,0,0,0-.11.66c0,.83,2.18,1,3.32,1.1-1.28.17-3.51,1.1-3.08,1.59a7.65,7.65,0,0,0,1.83,1.26c-.59,0-2.52.2-2.74.75s2.8,2.39,3.9,2.82c-1.37-.39-4.65-1-4.86-.59"/><path id="Fill-4" class="cls-4" d="M34.26,14.91a12.63,12.63,0,0,0-2,.56A9.84,9.84,0,0,0,17.75,27.4a8.88,8.88,0,0,1-1.64,1c.4-.48.75-1.4.29-1.64a8.58,8.58,0,0,0-1.75-.24s1.63-1.09,1.59-1.88-2.63-1.19-3.65-1.42c.9-.19,3.82-.85,3.95-1.44s-.91-1-1.35-1.21c.49,0,1.73.22,1.9-.39s-2.87-2.51-3.57-2.76a15.19,15.19,0,0,0,4.14.49c.79-.17-.13-1.24-.29-1.37.24.12,1.57.39,2-.24s-.92-3.16-1.65-4.23c.65.65,3.59,2.74,4,2.38s.11-1.5-.13-1.88c.48.44.94,1,1.55,1,.3,0,.68-1,.74-3.26.41,1.26,1.38,3,2.1,2.88s1-1.19,1-1.62c.08.48.46,1.73.94,1.78s1.71-2.52,2.12-3.7c.06.58-.37,3.58.26,3.82s1.68-1,2.27-1.71c-.36.68-1.06,2.33-.64,2.73s1.87,0,2.43-.49a1.51,1.51,0,0,0-.15.89"/><path id="Fill-5" class="cls-5" d="M38.34,16.25a9.59,9.59,0,0,1-1.29.39l-.63.2h0a4.73,4.73,0,0,0-2,1.15,5.24,5.24,0,0,1,.41-.73,2.35,2.35,0,0,1,1-.87,3.18,3.18,0,0,1,1.46-.26A9,9,0,0,0,38.56,16c.3-.08.43-.17.45-.13S38.86,16,38.34,16.25ZM42,14.86a13.49,13.49,0,0,0-2.26.62,12.12,12.12,0,0,0-10,1.64,24.06,24.06,0,0,0-2.06,1.4c-.63.48-1.21,1-1.75,1.46-.23.21-.53.48-.79.74-1.3.43-1.87,0-3.66.26a3.2,3.2,0,0,0-2.28,1,.21.21,0,0,0,0,.26c.17.13.43.07.92,0a3.08,3.08,0,0,1,1.74.28,1.49,1.49,0,0,1,.51.94c-.37.4-.73.78-1.09,1.14-2.26,2.23-3.77,3.55-5.47,4.22a6.42,6.42,0,0,1-6.58-.75h0a8.74,8.74,0,0,0-3.06-1,2.56,2.56,0,0,1-1.27-.61c-.15-.13-.27-.35-.44-.3l-.11.05.11-.05a5.18,5.18,0,0,0,4.39,3.38,5.22,5.22,0,0,0,1.42.08,8.24,8.24,0,0,1-1-1.21c.12.11.25.21.38.31a5.26,5.26,0,0,0,3.06,1.65l1,.06a16.78,16.78,0,0,0,3.9-.73,24.15,24.15,0,0,0,7.82-4.61s-.21.93-.29,1.26a12.85,12.85,0,0,1-.62,2s-.11.28-.27.62a5.74,5.74,0,0,0-.57,1.38h0v.06a6.83,6.83,0,0,0,1.17-.82,20.72,20.72,0,0,0,2.7-2.84C29.94,24,30.32,22,32,20.38a13.69,13.69,0,0,1,3.53-2h0A37.73,37.73,0,0,1,39,16.61c.94-.38,4.27-1.49,4.62-.94h0C43.48,15,42.73,14.79,42,14.86Z"/><path id="Fill-6" class="cls-3" d="M25.12,26.43a12.85,12.85,0,0,1-.62,2,24.07,24.07,0,0,1-5.26,2,12.08,12.08,0,0,1-6.48,0H12.7l1,.06a15.16,15.16,0,0,0,5.5-.94,29.52,29.52,0,0,0,5.93-3.14"/><path id="Fill-7" class="cls-2" d="M25.41,25.17s-.21.93-.29,1.26a29.52,29.52,0,0,1-5.93,3.14,15.16,15.16,0,0,1-5.5.94,16.78,16.78,0,0,0,3.9-.73,24.15,24.15,0,0,0,7.82-4.61"/><path id="Fill-8" class="cls-5" d="M34.85,23.55a20,20,0,0,1-1.25,3.07A7.33,7.33,0,0,1,31.7,29a.29.29,0,0,1-.1-.23,17.92,17.92,0,0,0,.52-2.91c.47-.35.9-.69,1.27-1s1-.82,1.46-1.26"/><path id="Fill-9" class="cls-2" d="M13,27.7a2.16,2.16,0,0,1,0,.36,2.67,2.67,0,0,1-.35.72,2.54,2.54,0,0,1-.29.36H12l-.29-.05h0s1.5-1.07,1.08-1.58a.17.17,0,0,1,.17.17v0"/><path id="Fill-10" class="cls-2" d="M43.43,16.33h0a1.66,1.66,0,0,1-.26.27,8.88,8.88,0,0,1-1.13.8,24.33,24.33,0,0,0-3.25,2.46l-3.27,3.08a20.45,20.45,0,0,1-1.39,3.52,6.17,6.17,0,0,1-2.06,2.44s-.23.15-.37.06a7.29,7.29,0,0,0,1.9-2.34,20,20,0,0,0,1.25-3.07c-.49.44-1,.87-1.46,1.26s-.8.66-1.27,1c0,0-1,.75-1.6,1.13h0c-.32.22-1.79,1.14-2.69,1.63s-2.35,1.16-2.36,1.17h0a3.53,3.53,0,0,1-1.65,1,.25.25,0,0,1-.14-.16,6.83,6.83,0,0,0,1.17-.82,20.72,20.72,0,0,0,2.7-2.84C29.94,24,30.32,22,32,20.38a13.69,13.69,0,0,1,3.53-2h0a16.31,16.31,0,0,0-2.93,2c-1.4,1.31-1.88,2.85-3.27,4.94v.05c4.68-3.55,8.29-7.66,12-9l.34-.12h0c1.27-.44,1.79-.5,1.82-.26a.5.5,0,0,1-.1.31"/><path id="Fill-11" class="cls-5" d="M11.72,29.09h0a8.65,8.65,0,0,1-2.39-1,1.21,1.21,0,0,1,1-.28,8.36,8.36,0,0,0,2,0c.34-.1.4-.25.54-.27h0c.42.51-1.11,1.54-1.08,1.58"/><path id="Fill-12" class="cls-2" d="M21.47,21c1.79-.23,2.36.17,3.66-.26.26-.26.56-.53.79-.74a5.9,5.9,0,0,1-.92.23c-.61.12-1.05.09-2.31.26a6,6,0,0,0-3.16,1.12.88.88,0,0,0-.22.25,1.18,1.18,0,0,0-.11.19A3.14,3.14,0,0,1,21.47,21"/><path id="Fill-13" class="cls-2" d="M24.23,29.09a5.74,5.74,0,0,0-.57,1.38h0a15.68,15.68,0,0,1-5.49,1.12,16.08,16.08,0,0,1-7.42-1.49h-.06a9.8,9.8,0,0,1-3.59-.62,5.05,5.05,0,0,1-2.52-2.41c-.26-.56-.27-.74-.19-.82h.09a5.18,5.18,0,0,0,4.39,3.38,5.22,5.22,0,0,0,1.42.08,8.24,8.24,0,0,1-1-1.21c.12.11.25.21.38.31a5.26,5.26,0,0,0,3.06,1.65h0a12.08,12.08,0,0,0,6.48,0,24.07,24.07,0,0,0,5.26-2s-.11.28-.27.62"/></g></g></svg>