<svg id="Layer_1" data-name="Layer 1" xmlns="http://www.w3.org/2000/svg" viewBox="0 0 48 48"><defs><style>.cls-1{fill:#fff;}.cls-2{fill:#f7c23d;}.cls-3{fill:#fffffe;}.cls-4{fill:#e2ba94;}.cls-5{fill:#432b6c;}.cls-6{fill:#0a0b09;}</style></defs><title>minnesota_vikings</title><path class="cls-1" d="M25.33,44.1A1.84,1.84,0,0,1,24,43.53,2.57,2.57,0,0,1,23.5,41a2.26,2.26,0,0,1,0-.52l0-.21.06-.21a3.33,3.33,0,0,1,0-.55l.05-.3s0-.1.05-.16a2.29,2.29,0,0,1-.05-.74,2.45,2.45,0,0,1,0-.38,5.39,5.39,0,0,1-.34-.68l-.05-.15a4.68,4.68,0,0,1-.18-.92A6.26,6.26,0,0,1,22,35l-.09-.17a6.17,6.17,0,0,1-.61-2.49,5.8,5.8,0,0,1-.95-1.39,3.57,3.57,0,0,1-.65-.06,7,7,0,0,1-1.06-.33c-.53.07-1.45.09-2.29.24a27.33,27.33,0,0,0-11,4.35,16.2,16.2,0,0,1,2-4.37,19.81,19.81,0,0,1,2-2.52L9.61,28l.92-.92a24.31,24.31,0,0,1,5.19-3.82,30,30,0,0,1,3.06-1.51,15.56,15.56,0,0,1,.13-1.8,9.74,9.74,0,0,1-5.73-9.1v-.15a18.25,18.25,0,0,1,.32-2.91,4.27,4.27,0,0,0,.07-.56l0-.28a7.14,7.14,0,0,0,.17-2.48l0-.2a1.58,1.58,0,0,1,.4-1.7,1.62,1.62,0,0,1,2.09-.17,3.57,3.57,0,0,1,.55.48,5.45,5.45,0,0,1,.6.81,3.33,3.33,0,0,1,.24.46,1.74,1.74,0,0,1,.25.66c0,.11.06.23.08.34a4.87,4.87,0,0,1,.15.76,13.53,13.53,0,0,1,.17,1.56,8,8,0,0,1,0,.87c0,.2,0,.4,0,.6v.27a4.34,4.34,0,0,0,.77,2,16.34,16.34,0,0,1-.2-2.57,13.56,13.56,0,0,0-.09-1.56,6.67,6.67,0,0,0-.67-2.14L18,4.61V4.38a2,2,0,0,1,0-.54,1.49,1.49,0,0,1,1.1-1.23l.41-.11a1.82,1.82,0,0,1,1.34.59,8.17,8.17,0,0,1,2.1,3,6.77,6.77,0,0,1,.4,1.44,8.67,8.67,0,0,0,.21.88L25,8.51c.24,0,6.07.62,9.64,3.83a13.75,13.75,0,0,1,4,5.85L40.78,18l-.05,2a5.39,5.39,0,0,1-.32,1.69l-.06.14a3.46,3.46,0,0,1-.55.82.45.45,0,0,0,0,.11,2,2,0,0,1,.81,1.51l0,.31a.64.64,0,0,1,0,.07,5.72,5.72,0,0,1,.73,1.66l.34,1.28-.71.28L41.24,29a7.69,7.69,0,0,1,.27,1.35l0,.48a4.34,4.34,0,0,1-.86,1.28,1.12,1.12,0,0,1-.71.37l-1.46.18c-.62.06-1.47.14-2.43.29q-.35,1.15-.78,2.28A6.52,6.52,0,0,1,30.4,39.3l-.9.18a6.3,6.3,0,0,1-.81,1.4,2.78,2.78,0,0,1-.24.56,3.42,3.42,0,0,1-.33.51,3.23,3.23,0,0,1-.3.62,3.07,3.07,0,0,1-.93.84,2.29,2.29,0,0,1-1.47.68ZM18.79,5.27h0Z"/><g id="Team-icons_minnesota_vikings" data-name="Team-icons minnesota vikings"><g id="minnesota_vikings" data-name="minnesota vikings"><path id="Fill-1" class="cls-2" d="M24.4,30.62a4.86,4.86,0,0,1,1.13-2,5.44,5.44,0,0,0-.78,3.77,9.28,9.28,0,0,1,1.73-3.74c1.42-1.85,2.79-2.72,3.92-4.1a6.69,6.69,0,0,0,1.2-2.17,5.53,5.53,0,0,0,.28-1.33,6.54,6.54,0,0,0-.89.09h0a3.13,3.13,0,0,1-1.77,2.11A20.39,20.39,0,0,1,25.27,26a5.07,5.07,0,0,0-2,3.32c.19-3.38,2.26-3.81,4.52-5.47l.21-.14h-.07a7.09,7.09,0,0,1-1.13-.11c-.25.17-.49.32-.71.44a7.1,7.1,0,0,0-2,1.7c.32-1.07,1.07-1.52,2.19-2.31A4.34,4.34,0,0,1,25,22.64a15.93,15.93,0,0,0-3,2.15,16.43,16.43,0,0,1-4,2.59,43.69,43.69,0,0,0,4.39-3.64s-3,1.72-3.82,2.29A11,11,0,0,1,21,24a32.92,32.92,0,0,0-4.77,2.43,22.63,22.63,0,0,0-3.07,2.72c.32-.07,1.57-.32,1.9-.36,2.24-.23,4.68-.05,6.83-2.63L22,26a8,8,0,0,0-.23,2.53A4.22,4.22,0,0,0,24.16,32a3.63,3.63,0,0,1,.18-1.46"/><path id="Fill-2" class="cls-2" d="M19.4,28.69h0a2.92,2.92,0,0,0,1.16.33,3.09,3.09,0,0,0,1-.17,7.4,7.4,0,0,1,0-1.63,5,5,0,0,1-2.11,1.47"/><path id="Fill-3" class="cls-3" d="M24.62,19.44h0a6.21,6.21,0,0,1,1.73.81s-.71-.14-1.43-.23a2.9,2.9,0,0,0,4,.79c.12-.09.24-.18.35-.28l-.33.2a1.75,1.75,0,0,1-.68.17,2.43,2.43,0,0,1-.93.06h0a2.51,2.51,0,0,0,2.26-2.61,2.84,2.84,0,0,0-.63-1.7,2.53,2.53,0,0,1,.88,1.69,2.59,2.59,0,0,1-.1,1A2.69,2.69,0,0,0,30,18.19a2.05,2.05,0,0,1,0,1.1,3.12,3.12,0,0,0,.2-1v.12h0a2.48,2.48,0,0,0-.07-.61h0a3.47,3.47,0,0,0-2-2.56A6.85,6.85,0,0,0,26,14.63a6.44,6.44,0,0,0-1.52,0l-.77.1a6,6,0,0,1-4-.43A6.26,6.26,0,0,1,16.5,9.46V9.23a4.34,4.34,0,0,0-.06-.88c-.06-.29-.1-.35-.11-.35s0,0,0,.06a2.5,2.5,0,0,1-.09.66,3.66,3.66,0,0,1-.1.74V8.74c0-.36-.08-1.43-.11-1.56S16,7,15.94,7s0,.25,0,.37a8.27,8.27,0,0,1-.12,1,8.52,8.52,0,0,1-.14,1,1,1,0,0,1,0,.24h0c0-.2-.06-.84-.06-1.57V8a17.78,17.78,0,0,0-.27,2.73v.16A8.92,8.92,0,0,0,15.88,14,7.3,7.3,0,0,0,21,18.53c1.25.35,2.65.62,3.62.91"/><path id="Fill-4" class="cls-2" d="M26.6,34.19A16.7,16.7,0,0,0,24.9,33a13.06,13.06,0,0,1-1.64-1,4.14,4.14,0,0,0,.55,2,7.53,7.53,0,0,0,2.3,1.69c.06-.24.24-.86.49-1.53"/><path id="Fill-5" class="cls-2" d="M25.21,32.75c.53.34,1.19.74,1.55,1a4.78,4.78,0,0,1,.28-.61c.57-1.14,1.14-1.54,1.36-2.73a2.88,2.88,0,0,0-.77-2.53,12.59,12.59,0,0,0-1.79,2.55,7,7,0,0,0-.63,2.29"/><path id="Fill-6" class="cls-2" d="M22.72,19.4l-.31-.08-.61-.14L21.12,19v.16c0,.2-.06.41-.08.61.52-.13,1.12-.27,1.71-.38h0"/><path id="Fill-7" class="cls-3" d="M24.18,11.94a5,5,0,0,1-2.66-3.89c-.05-.25-.11-.5-.18-.74a7.62,7.62,0,0,1,0,1.17,11.28,11.28,0,0,0-.44-1.61,12.38,12.38,0,0,1,.18,1.72,10.77,10.77,0,0,0-.33-1.36,5.31,5.31,0,0,0,.11.8,12.29,12.29,0,0,0,.47,3.67,4.76,4.76,0,0,0,1.61,2c.39-.55.89-1.25,1.23-1.77"/><path id="Fill-8" class="cls-4" d="M35.8,22.44a1.75,1.75,0,0,1,.29.47V23h0a2.61,2.61,0,0,1-.23,1l-.08.1c-.17.16-.46.31-1,.7a4.5,4.5,0,0,0-1.11,1.31,3.71,3.71,0,0,1,.56-1.31,4.71,4.71,0,0,1,1.48-1.18l.17-.77a1.57,1.57,0,0,0-.46-.2,10.35,10.35,0,0,1-1.23-.16h0a9.76,9.76,0,0,0,1.26-.27,2.33,2.33,0,0,1,1.08.08A1.67,1.67,0,0,0,35.8,22.44Zm2-.33c-.58.23-1.94-.18-2.79-.24a2.43,2.43,0,0,0-1.44.34,2.29,2.29,0,0,1,0-1.37c-.18,0-.82.08-1,.09a.49.49,0,0,1-.17,0V21a8.63,8.63,0,0,1-1.25,3.4,7.81,7.81,0,0,1,1.13.54,1.43,1.43,0,0,1,.42,1.16,7.23,7.23,0,0,1-.25,1.39A12.33,12.33,0,0,0,32.3,26a1.29,1.29,0,0,0-.84-.74c-.16-.05-.46-.13-.79-.2a18.79,18.79,0,0,1-1.9,1.78.44.44,0,0,0,.28.22,1.48,1.48,0,0,0,.83-.12,3.6,3.6,0,0,0,.49,2.52,1.73,1.73,0,0,0,1.71.64A7.28,7.28,0,0,1,33.39,27a6.2,6.2,0,0,1,3-2.16,1.67,1.67,0,0,1,0-.63.64.64,0,0,1,.59-.4,1.56,1.56,0,0,1,.6.15.89.89,0,0,0-.74.16.6.6,0,0,0,0,.63,4.89,4.89,0,0,1,1.62,0c.15,0,.28,0,.33-.17a.64.64,0,0,0,0-.47,3.23,3.23,0,0,1-.41-.22,1,1,0,0,1-.28-.83,2.91,2.91,0,0,0-.27-1Z"/><path id="Fill-9" class="cls-2" d="M34.18,20.86c-.3.2-.23.8-.23.8a1.84,1.84,0,0,1,.83-.4,4.5,4.5,0,0,1,1.37,0,2.15,2.15,0,0,0-.7.24,6.86,6.86,0,0,0,2.11.3,1.35,1.35,0,0,0,1.25-1.14,4.94,4.94,0,0,1-.83.25,8.2,8.2,0,0,1-2.1-.09,3.9,3.9,0,0,0-1.7.08"/><path id="Fill-10" class="cls-2" d="M23.07,14.36l.54-.07.78-.09a7.31,7.31,0,0,1,1.62,0,7.82,7.82,0,0,1,2.28.59,4,4,0,0,1,2.31,3h0v.11h0V18h0a28,28,0,0,1,3.17-.21,20.18,20.18,0,0,1,2.69.21A11.4,11.4,0,0,0,34,14.47a14.14,14.14,0,0,0-8.8-3.9,3.44,3.44,0,0,1-.34,1.13,5.27,5.27,0,0,1-.43.72c-.26.35-.79,1.07-1.27,1.8a.71.71,0,0,1-.1.14"/><path id="Fill-11" class="cls-2" d="M26.59,38.05l.59-1a6.41,6.41,0,0,0-.79-.58c-.3-.18-.81-.43-1.25-.69a2.48,2.48,0,0,0,.37,1.35,3.33,3.33,0,0,0,1.08,1"/><path id="Fill-12" class="cls-2" d="M24.77,22.26a1.27,1.27,0,0,1-.13-.19l-.1-.08a24.29,24.29,0,0,0-9.43,4,31.09,31.09,0,0,0-4.69,4.19,21.77,21.77,0,0,1,2.08-.8,23.63,23.63,0,0,1,3.11-2.8,36.48,36.48,0,0,1,9.16-4.29"/><path id="Fill-13" class="cls-2" d="M36.9,27.67a9,9,0,0,1,2.4-1.14,2.23,2.23,0,0,0-.75-1.35,3.82,3.82,0,0,0-2.4.3A6.65,6.65,0,0,0,33,28.57a10.12,10.12,0,0,0-.65,3.57,16.36,16.36,0,0,1-.28,3.76,8.34,8.34,0,0,0,.86-3.57c.21-2.39.8-4,1.9-4.81a7.88,7.88,0,0,0-1.18,3.22c-.3,2-.24,2.78-.61,4.44l-.09.31a10.15,10.15,0,0,0,1.35-4.25c.42-2.68,1.21-3.89,2.29-4.52a7.93,7.93,0,0,0-1.78,3.82,7.23,7.23,0,0,1,2.11-2.87"/><path id="Fill-14" class="cls-4" d="M29.74,29.61a6.75,6.75,0,0,1-.68-1.78,1.08,1.08,0,0,1-.8-.42l-.15.16a5.39,5.39,0,0,1,.73,1.81,5.32,5.32,0,0,1-.36,2.37,7.68,7.68,0,0,1,.43,1.63H29s1.57-.83,2.41-1.19L31.9,32a9.08,9.08,0,0,1,.1-1.28h-.44a2.14,2.14,0,0,1-1.81-1.09"/><path id="Fill-15" class="cls-4" d="M38.36,30.68c-.43,0-2.11-.06-3.15-.06h0a3.06,3.06,0,0,0-.27.58c.29-.06.57-.11.83-.14,1.42-.22,2.59-.26,2.78-.28s.53,0,.66-.12a5.75,5.75,0,0,1-.83,0"/><path id="Fill-16" class="cls-2" d="M25.65,38.66a.8.8,0,0,0,.48.52c.13-.41.3-.86.3-.86a4,4,0,0,1-.6-.42.66.66,0,0,0-.18.76"/><path id="Fill-17" class="cls-4" d="M38.86,29a2.17,2.17,0,0,0-.8-.09,4.39,4.39,0,0,0,.35-1.47,5.81,5.81,0,0,0-2.91,2.77,16.49,16.49,0,0,1,2.11.13,7.48,7.48,0,0,0,1.42.1c.17,0,.52,0,.41-.59s-.28-.73-.58-.85"/><path id="Fill-18" class="cls-2" d="M25.47,41.24c-.18.22-.26.67-.15.8a.25.25,0,0,0,.34,0h0a.35.35,0,0,0,0-.47,2.39,2.39,0,0,1-.21-.34"/><path id="Fill-19" class="cls-2" d="M28.12,32.37c-.1.16-.25.39-.34.51A12.63,12.63,0,0,0,26.51,36l.24.16a3.48,3.48,0,0,1,.62.53c.15-.25.43-.51.54-.71a4.24,4.24,0,0,0,.62-2.41,3.42,3.42,0,0,0-.41-1.16"/><path id="Fill-20" class="cls-2" d="M25.94,40.55a2.5,2.5,0,0,1-.39-.34c-.32.54-.17.67.27,1a.54.54,0,0,1,.24.51s.41-.21.38-.47a1.39,1.39,0,0,0-.5-.69"/><path id="Fill-21" class="cls-2" d="M27,38a9.75,9.75,0,0,0-.59,1.37h.06A2.91,2.91,0,0,1,27,40a4.82,4.82,0,0,0,.92-1.54,3.44,3.44,0,0,0-.05-1.8A12.78,12.78,0,0,0,27,38"/><path id="Fill-22" class="cls-2" d="M26.16,39.56a1.52,1.52,0,0,1-.5-.37.77.77,0,0,0-.12.57c.07.31.36.44.66.6a1,1,0,0,1,.43.46.5.5,0,0,0,.2-.64,1.31,1.31,0,0,0-.67-.62"/><path id="Fill-23" class="cls-5" d="M36.72,18.51a17.68,17.68,0,0,0-2.91-.25,30.25,30.25,0,0,0-3.15.19h0a3.33,3.33,0,0,1-6.37,1.36l-.53-.14a6.69,6.69,0,0,0-1,.14c-.64.12-1.3.27-1.84.41a6.85,6.85,0,0,1-.07.78c-.07,1.62,0,1.5,0,1.5.47-.18,2.19-.62,2.19-.62.51-.12,1.11-.25,1.81-.38a3,3,0,0,0,5.67-.79,24.76,24.76,0,0,1,6.77-.09,11.88,11.88,0,0,0-.62-2.11"/><path id="Fill-24" class="cls-6" d="M36.5,22.26a2.33,2.33,0,0,0-1.08-.08c-.61.1-.85.22-1.26.27h0a10.35,10.35,0,0,0,1.23.16,1.57,1.57,0,0,1,.46.2l-.17.77a4.71,4.71,0,0,0-1.48,1.18l-.1.14V25l-.05.09a.21.21,0,0,0,0,.11.17.17,0,0,0,0,.1c-.06.14-.12.29-.17.44h0s0,.19-.07.24v0h0l.12-.2v-.08a3.89,3.89,0,0,1,.6-.74l.11-.1a1.24,1.24,0,0,1,.22-.18,7.78,7.78,0,0,0,1-.7l.08-.1a2.61,2.61,0,0,0,.23-1h0v-.08h0a1.75,1.75,0,0,0-.29-.47A1.64,1.64,0,0,1,36.5,22.26Zm0,0a2.33,2.33,0,0,0-1.08-.08c-.61.1-.85.22-1.26.27h0a10.35,10.35,0,0,0,1.23.16,1.57,1.57,0,0,1,.46.2l-.17.77a4.71,4.71,0,0,0-1.48,1.18l-.1.14V25l-.05.09a.21.21,0,0,0,0,.11.17.17,0,0,0,0,.1c-.06.14-.12.29-.17.44h0s0,.19-.07.24v0h0l.12-.2v-.08a3.89,3.89,0,0,1,.6-.74l.11-.1a1.24,1.24,0,0,1,.22-.18,7.78,7.78,0,0,0,1-.7l.08-.1a2.61,2.61,0,0,0,.23-1h0v-.08h0a1.75,1.75,0,0,0-.29-.47A1.64,1.64,0,0,1,36.5,22.26Zm0,0a2.33,2.33,0,0,0-1.08-.08c-.61.1-.85.22-1.26.27h0a10.35,10.35,0,0,0,1.23.16,1.57,1.57,0,0,1,.46.2l-.17.77a4.71,4.71,0,0,0-1.48,1.18l-.1.14V25l-.05.09a.21.21,0,0,0,0,.11.17.17,0,0,0,0,.1c-.06.14-.12.29-.17.44h0s0,.19-.07.24v0h0l.12-.2v-.08a3.89,3.89,0,0,1,.6-.74l.11-.1a1.24,1.24,0,0,1,.22-.18,7.78,7.78,0,0,0,1-.7l.08-.1a2.61,2.61,0,0,0,.23-1h0v-.08h0a1.75,1.75,0,0,0-.29-.47A1.64,1.64,0,0,1,36.5,22.26Zm0,0a2.33,2.33,0,0,0-1.08-.08c-.61.1-.85.22-1.26.27h0a10.35,10.35,0,0,0,1.23.16,1.57,1.57,0,0,1,.46.2l-.17.77a4.71,4.71,0,0,0-1.48,1.18l-.1.14V25l-.05.09a.21.21,0,0,0,0,.11.17.17,0,0,0,0,.1c-.06.14-.12.29-.17.44h0s0,.19-.07.24v0h0l.12-.2v-.08a3.89,3.89,0,0,1,.6-.74l.11-.1a1.24,1.24,0,0,1,.22-.18,7.78,7.78,0,0,0,1-.7l.08-.1a2.61,2.61,0,0,0,.23-1h0v-.08h0a1.75,1.75,0,0,0-.29-.47A1.64,1.64,0,0,1,36.5,22.26Zm-1.08-.08c-.61.1-.85.22-1.26.27h0a10.35,10.35,0,0,0,1.23.16,1.57,1.57,0,0,1,.46.2l-.17.77a4.71,4.71,0,0,0-1.48,1.18l-.1.14V25l-.05.09a.21.21,0,0,0,0,.11.17.17,0,0,0,0,.1c-.06.14-.12.29-.17.44h0s0,.19-.07.24v0h0l.12-.2v-.08a3.89,3.89,0,0,1,.6-.74l.11-.1a1.24,1.24,0,0,1,.22-.18,7.78,7.78,0,0,0,1-.7l.08-.1a2.61,2.61,0,0,0,.23-1h0v-.08h0a1.75,1.75,0,0,0-.29-.47,1.73,1.73,0,0,1,.7-.18A2.18,2.18,0,0,0,35.42,22.18ZM39,30.39a9.59,9.59,0,0,1-1.42-.1c-.76-.1-2.11-.13-2.11-.13a5.83,5.83,0,0,1,2.9-2.77A4.68,4.68,0,0,1,38,28.86a2.17,2.17,0,0,1,.8.09c.3.12.47.23.58.85S39.2,30.4,39,30.39Zm-.5.39a23.58,23.58,0,0,0-2.78.28,4.64,4.64,0,0,0-.83.14,2.58,2.58,0,0,1,.28-.58h0c1,0,2.72.05,3.15.06a5.75,5.75,0,0,0,.83,0,1.87,1.87,0,0,1-.62.1Zm-4.25.46a10.15,10.15,0,0,1-1.35,4.25l.09-.31c.37-1.66.31-2.44.61-4.44a7.88,7.88,0,0,1,1.18-3.22c-1.1.77-1.69,2.42-1.9,4.81A8.22,8.22,0,0,1,32,35.9a16.36,16.36,0,0,0,.28-3.76,10.17,10.17,0,0,1,.7-3.57,6.65,6.65,0,0,1,3.17-3.09,3.82,3.82,0,0,1,2.4-.3,2.23,2.23,0,0,1,.75,1.35,9,9,0,0,0-2.4,1.14,7.23,7.23,0,0,0-2.11,2.87,7.93,7.93,0,0,1,1.78-3.82c-1.1.63-1.89,1.84-2.31,4.52ZM31.87,32l-.49.18c-.85.36-2.42,1.19-2.42,1.19H28.9a7.66,7.66,0,0,0-.42-1.63,5.32,5.32,0,0,0,.36-2.37,5.39,5.39,0,0,0-.73-1.81l.15-.16a1.08,1.08,0,0,0,.8.42,6.75,6.75,0,0,0,.68,1.78,2.14,2.14,0,0,0,1.81,1.09H32A11.39,11.39,0,0,0,31.87,32Zm-4,4c-.11.2-.39.46-.54.71a3.48,3.48,0,0,0-.62-.53l-.2-.18a12.74,12.74,0,0,1,1.27-3.08c.09-.12.24-.35.34-.51a3.22,3.22,0,0,1,.41,1.16,4.3,4.3,0,0,1-.62,2.37Zm0,2.47A5.05,5.05,0,0,1,27,40a3.38,3.38,0,0,0-.54-.59h-.07A10.34,10.34,0,0,1,27,38a14.71,14.71,0,0,1,.88-1.34,3.46,3.46,0,0,1,.05,1.75Zm-1.3,2.41a1,1,0,0,0-.43-.46c-.3-.16-.59-.29-.66-.6a.77.77,0,0,1,.12-.57,1.52,1.52,0,0,0,.5.37,1.31,1.31,0,0,1,.67.62.49.49,0,0,1-.14.58Zm-.57.89a.54.54,0,0,0-.24-.51c-.44-.32-.59-.45-.27-1a2.5,2.5,0,0,0,.39.34,1.39,1.39,0,0,1,.5.69c.09.21-.32.42-.32.42Zm-.37.34a.25.25,0,0,1-.34,0h0c-.11-.13,0-.58.15-.8a2.39,2.39,0,0,0,.21.34.35.35,0,0,1,.07.4Zm.74-3.73s-.17.45-.3.86a.8.8,0,0,1-.48-.52.66.66,0,0,1,.18-.76,4.22,4.22,0,0,0,.66.36Zm-1.29-2.59c.44.26,1,.51,1.25.69s.54.37.79.57c-.31.56-.6,1.06-.6,1.06a3.3,3.3,0,0,1-1.07-1,2.55,2.55,0,0,1-.31-1.38ZM23.81,34a4.14,4.14,0,0,1-.55-2,13.06,13.06,0,0,0,1.64,1,18.12,18.12,0,0,1,1.69,1.17c-.24.67-.42,1.29-.48,1.53A7.56,7.56,0,0,1,23.81,34Zm4.59-3.59c-.22,1.19-.79,1.59-1.4,2.73-.09.19-.19.4-.27.61a13.22,13.22,0,0,0-1.55-1,7,7,0,0,1,.63-2.29,12.59,12.59,0,0,1,1.79-2.55,2.88,2.88,0,0,1,.77,2.53Zm-6.58-1.82a8.3,8.3,0,0,1,.23-2.53l-.1.13c-2.15,2.58-4.59,2.4-6.83,2.63-.64.09-1.28.21-1.91.36a22.12,22.12,0,0,1,3.08-2.72A33,33,0,0,1,21.05,24a11.29,11.29,0,0,0-2.46,2c.82-.56,3.64-2.18,3.81-2.29A45.27,45.27,0,0,1,18,27.38a16.43,16.43,0,0,0,4-2.59,15.93,15.93,0,0,1,3-2.15,4.26,4.26,0,0,0,1.22.79c-1.13.79-1.88,1.24-2.2,2.31A7.5,7.5,0,0,1,26,24c.22-.12.46-.27.71-.44a7.09,7.09,0,0,0,1.13.11h.07l-.21.14c-2.26,1.65-4.33,2.09-4.52,5.46a5.07,5.07,0,0,1,2-3.31,20.28,20.28,0,0,0,3.94-2.68A3.11,3.11,0,0,0,31,21.18h0c.29,0,.59-.07.89-.09a5.53,5.53,0,0,1-.28,1.33,6.69,6.69,0,0,1-1.2,2.17c-1.13,1.39-2.5,2.25-3.92,4.1a9.28,9.28,0,0,0-1.73,3.74,5.35,5.35,0,0,1,.78-3.76,4.59,4.59,0,0,0-1.13,2,3.63,3.63,0,0,0-.18,1.46,4.21,4.21,0,0,1-2.41-3.51Zm-.34.23a3.09,3.09,0,0,1-1,.17,2.92,2.92,0,0,1-1.16-.33h0a5,5,0,0,0,2.11-1.47,7.69,7.69,0,0,0,.05,1.66Zm-9,.5a21.77,21.77,0,0,0-2.08.8A30.31,30.31,0,0,1,15.11,26a24.29,24.29,0,0,1,9.43-4l.09.08.13.19a37,37,0,0,0-9.16,4.28,25,25,0,0,0-3.1,2.8ZM15.88,14a8.93,8.93,0,0,1-.59-3.19v-.16A16.76,16.76,0,0,1,15.56,8h0a9.63,9.63,0,0,0,.06,1.57h0V9.33c.05-.33.1-.65.14-1s.1-.71.12-1V7c0-.12.06.14.06.18s.09,1.2.11,1.56v.72c0,.06.06-.48.1-.74A6.38,6.38,0,0,0,16.34,8V7.94c0-.06.06.11.08.37a6.51,6.51,0,0,0,.06.88v.23a6.28,6.28,0,0,0,3.18,4.85,6,6,0,0,0,4,.43l.77-.1a7.72,7.72,0,0,1,1.52,0,6.82,6.82,0,0,1,2.22.59,3.47,3.47,0,0,1,2,2.56h0a2.48,2.48,0,0,1,.07.61h0v-.12a3.12,3.12,0,0,1-.2,1,2.05,2.05,0,0,0,0-1.1,2.68,2.68,0,0,1-.25,1.11,2.59,2.59,0,0,0,.1-1A2.49,2.49,0,0,0,29,16.64a2.84,2.84,0,0,1,.63,1.7A2.51,2.51,0,0,1,27.37,21h0a2.43,2.43,0,0,0,.93-.06,1.75,1.75,0,0,0,.68-.17l.33-.2a2.91,2.91,0,0,1-4.1-.19c-.1-.12-.2-.25-.29-.38.72.09,1.43.23,1.43.23a6.21,6.21,0,0,0-1.73-.81h0c-1-.29-2.37-.56-3.62-.91A7.27,7.27,0,0,1,15.88,14Zm5.46-2.33A12.29,12.29,0,0,1,20.87,8a7,7,0,0,0-.11-.8,10.77,10.77,0,0,1,.33,1.36,12.4,12.4,0,0,0-.18-1.71,11.11,11.11,0,0,1,.43,1.6,7.62,7.62,0,0,0,0-1.17c.07.24.13.49.18.74a5,5,0,0,0,2.66,3.89c-.34.52-.84,1.22-1.23,1.77a4.76,4.76,0,0,1-1.61-2Zm3.53,0a3.44,3.44,0,0,0,.34-1.13,14,14,0,0,1,8.8,3.9A11.62,11.62,0,0,1,36.5,18a20.18,20.18,0,0,0-2.69-.21,28,28,0,0,0-3.17.21h0a.33.33,0,0,0,0-.14h0v-.11h0a4,4,0,0,0-2.31-3,7.85,7.85,0,0,0-2.33-.6,7.31,7.31,0,0,0-1.62,0l-.78.09-.54.07a.71.71,0,0,0,.1-.14c.48-.73,1-1.45,1.27-1.8A4.58,4.58,0,0,0,24.87,11.67ZM21,19.79a4.25,4.25,0,0,1,.08-.61V19l.68.16.61.14.31.08h0Zm16.34.83a24.76,24.76,0,0,0-6.77.09,3,3,0,0,1-5.67.79c-.7.13-1.3.26-1.81.38,0,0-1.72.44-2.19.62,0,0-.1.12,0-1.5,0,0,.05-.49.07-.78.54-.13,1.2-.29,1.84-.41.34-.06.67-.1,1-.14l.53.14a3.33,3.33,0,0,0,6.37-1.36h0a30.25,30.25,0,0,1,3.15-.19,17.68,17.68,0,0,1,2.91.25A12.9,12.9,0,0,1,37.34,20.62Zm.64.25a4.94,4.94,0,0,0,.83-.25,1.35,1.35,0,0,1-1.25,1.14,6.86,6.86,0,0,1-2.11-.3,2.15,2.15,0,0,1,.7-.24,4.5,4.5,0,0,0-1.37,0,1.84,1.84,0,0,0-.83.4s-.07-.6.23-.8a3.9,3.9,0,0,1,1.7-.08,7.94,7.94,0,0,0,2.12.13ZM38.31,24a3.23,3.23,0,0,0,.41.22c.1.07.1.29.05.47a.23.23,0,0,1-.26.19h-.07a4.89,4.89,0,0,0-1.62,0c0-.15-.11-.47,0-.63A.86.86,0,0,1,37.6,24a1.51,1.51,0,0,0-.59-.15.64.64,0,0,0-.59.4,1.67,1.67,0,0,0,0,.63,6.2,6.2,0,0,0-3,2.16,7.28,7.28,0,0,0-1.31,3.08,1.73,1.73,0,0,1-1.71-.64A3.6,3.6,0,0,1,29.91,27a1.48,1.48,0,0,1-.83.12.44.44,0,0,1-.28-.22,18.79,18.79,0,0,0,1.9-1.78c.33.07.63.15.79.2a1.29,1.29,0,0,1,.84.74,11.68,11.68,0,0,1,.15,1.45,7.23,7.23,0,0,0,.25-1.39A1.46,1.46,0,0,0,32.31,25a7.81,7.81,0,0,0-1.13-.54A8.59,8.59,0,0,0,32.43,21v-.06h.17c.18,0,.82-.09,1-.09a2.29,2.29,0,0,0,0,1.37,2.46,2.46,0,0,1,1.4-.35c.85.06,2.21.47,2.79.24a2.89,2.89,0,0,1,.25,1A1,1,0,0,0,38.31,24Zm1.49,5.46a1,1,0,0,0-.57-.68,3.1,3.1,0,0,1-.6-.15A5,5,0,0,0,39,27.11c.28-.15.85-.38.85-.38A4.27,4.27,0,0,0,38.93,25a5.91,5.91,0,0,0,.19-.69c0-.14-.25-.36-.51-.53s-.3-.48-.3-.84a1.71,1.71,0,0,0-.21-.83,1.9,1.9,0,0,0,.9-.89A3.88,3.88,0,0,0,39.23,20c-.3.44-1.48.62-1.48.62a12.23,12.23,0,0,0-4.15-7.16C30.35,10.54,24.81,10,24.81,10a1.85,1.85,0,0,1-.06.57,2.86,2.86,0,0,1-.26.86v.05a4.89,4.89,0,0,1-1.93-1.62c-.71-1.26-.62-2.34-1-3.23a6.87,6.87,0,0,0-1.78-2.48C19.63,4,19.58,4,19.5,4s0,.15,0,.25a8.27,8.27,0,0,1,.82,2.61c.21,1.46-.07,3.76.61,5.23a7,7,0,0,0,1.6,2.06h0l.16.16a4.53,4.53,0,0,1-2.84-.49,5.89,5.89,0,0,1-3-4.5V9.13c-.06-.52,0-1-.06-1.57a11.37,11.37,0,0,0-.16-1.43,2.63,2.63,0,0,0-.13-.62h0a1.18,1.18,0,0,0-.09-.37c0-.12,0-.14-.06-.14a2.45,2.45,0,0,0-.24-.52,3.84,3.84,0,0,0-.41-.56,2,2,0,0,0-.31-.27s-.1-.07-.17,0-.09.07,0,.27l0,.11a.33.33,0,0,0,0,.14.43.43,0,0,1,0,.16,8.66,8.66,0,0,1-.2,3h0a4.82,4.82,0,0,1-.1.75,17.92,17.92,0,0,0-.29,2.64v.19A8.22,8.22,0,0,0,20.61,19a1.86,1.86,0,0,1-.07.34,13.24,13.24,0,0,0-.24,3.44h0a26.63,26.63,0,0,0-3.86,1.82,23.07,23.07,0,0,0-4.87,3.58c-.31.3-.6.59-.87.88l-.2.21h0a20.87,20.87,0,0,0-2,2.5c2.56-1.85,6.57-2.41,7.79-2.48S18.88,29,18.88,29a4.91,4.91,0,0,0,1.11.4,3.2,3.2,0,0,0,1.41-.07,4.28,4.28,0,0,0,1.44,2.38,4.73,4.73,0,0,0,.45,2.46,4.77,4.77,0,0,0,1.29,1.32,3.42,3.42,0,0,0,.13,1.23,3.56,3.56,0,0,0,.62,1,1.81,1.81,0,0,0-.22.75.89.89,0,0,0,.22.66,1.41,1.41,0,0,0-.26.52,1.23,1.23,0,0,0,.1.57,1.77,1.77,0,0,0-.18.45.79.79,0,0,0,.08.43c-.1.18-.37,1,0,1.38s.91-.3.91-.3a1.32,1.32,0,0,0,.59-.45,1,1,0,0,0,.17-.51,1.54,1.54,0,0,0,.4-.51.9.9,0,0,0,.14-.48,4.49,4.49,0,0,0,1.06-2.08,5.22,5.22,0,0,0-.08-1.89A4.25,4.25,0,0,0,29,34a14.31,14.31,0,0,1,2.89-1.54,9,9,0,0,1-.08,2.69,5.36,5.36,0,0,1-1.69,2.68,5,5,0,0,0,3.73-3.14,29.55,29.55,0,0,0,1-3.06c1.88-.36,3.6-.46,4.17-.54.75-.12.94-.29,1-.57a6.81,6.81,0,0,0-.22-1.11Zm-3.3-7.15a2.33,2.33,0,0,0-1.08-.08c-.61.1-.85.22-1.26.27h0a10.35,10.35,0,0,0,1.23.16,1.57,1.57,0,0,1,.46.2l-.17.77a4.71,4.71,0,0,0-1.48,1.18l-.1.14V25l-.05.09a.21.21,0,0,0,0,.11.17.17,0,0,0,0,.1c-.06.14-.12.29-.17.44h0s0,.19-.07.24v.07h0l.12-.2v-.08a3.89,3.89,0,0,1,.6-.74l.11-.1a1.24,1.24,0,0,1,.22-.18,7.78,7.78,0,0,0,1-.7l.08-.1a2.61,2.61,0,0,0,.23-1h0v-.08h0a1.75,1.75,0,0,0-.29-.47,1.73,1.73,0,0,1,.67-.16Zm0,0a2.33,2.33,0,0,0-1.08-.08c-.61.1-.85.22-1.26.27h0a10.35,10.35,0,0,0,1.23.16,1.57,1.57,0,0,1,.46.2l-.17.77a4.71,4.71,0,0,0-1.48,1.18l-.1.14V25l-.05.09a.21.21,0,0,0,0,.11.17.17,0,0,0,0,.1c-.06.14-.12.29-.17.44h0s0,.19-.07.24v.07h0l.12-.2v-.08a3.89,3.89,0,0,1,.6-.74l.11-.1a1.24,1.24,0,0,1,.22-.18,7.78,7.78,0,0,0,1-.7l.08-.1a2.61,2.61,0,0,0,.23-1h0v-.08h0a1.75,1.75,0,0,0-.29-.47,1.73,1.73,0,0,1,.67-.16Zm0,0a2.33,2.33,0,0,0-1.08-.08c-.61.1-.85.22-1.26.27h0a10.35,10.35,0,0,0,1.23.16,1.57,1.57,0,0,1,.46.2l-.17.77a4.71,4.71,0,0,0-1.48,1.18l-.1.14V25l-.05.09a.21.21,0,0,0,0,.11.17.17,0,0,0,0,.1c-.06.14-.12.29-.17.44h0s0,.19-.07.24v.07h0l.12-.2v-.08a3.89,3.89,0,0,1,.6-.74l.11-.1a1.24,1.24,0,0,1,.22-.18,7.78,7.78,0,0,0,1-.7l.08-.1a2.61,2.61,0,0,0,.23-1h0v-.08h0a1.75,1.75,0,0,0-.29-.47,1.73,1.73,0,0,1,.67-.16Zm0,0a2.33,2.33,0,0,0-1.08-.08c-.61.1-.85.22-1.26.27h0a10.35,10.35,0,0,0,1.23.16,1.57,1.57,0,0,1,.46.2l-.17.77a4.71,4.71,0,0,0-1.48,1.18l-.1.14V25l-.05.09a.21.21,0,0,0,0,.11.17.17,0,0,0,0,.1c-.06.14-.12.29-.17.44h0s0,.19-.07.24v.07h0l.12-.2v-.08a3.89,3.89,0,0,1,.6-.74l.11-.1a1.24,1.24,0,0,1,.22-.18,7.78,7.78,0,0,0,1-.7l.08-.1a2.61,2.61,0,0,0,.23-1h0v-.08h0a1.75,1.75,0,0,0-.29-.47,1.73,1.73,0,0,1,.67-.16Zm0,0a2.33,2.33,0,0,0-1.08-.08c-.61.1-.85.22-1.26.27h0a10.35,10.35,0,0,0,1.23.16,1.57,1.57,0,0,1,.46.2l-.17.77a4.71,4.71,0,0,0-1.48,1.18l-.1.14V25l-.05.09a.21.21,0,0,0,0,.11.17.17,0,0,0,0,.1c-.06.14-.12.29-.17.44h0s0,.19-.07.24v.07h0l.12-.2v-.08a3.89,3.89,0,0,1,.6-.74l.11-.1a1.24,1.24,0,0,1,.22-.18,7.78,7.78,0,0,0,1-.7l.08-.1a2.61,2.61,0,0,0,.23-1h0v-.08h0a1.75,1.75,0,0,0-.29-.47,1.73,1.73,0,0,1,.67-.16Zm0,0a2.33,2.33,0,0,0-1.08-.08c-.61.1-.85.22-1.26.27h0a10.35,10.35,0,0,0,1.23.16,1.57,1.57,0,0,1,.46.2l-.17.77a4.71,4.71,0,0,0-1.48,1.18l-.1.14V25l-.05.09a.21.21,0,0,0,0,.11.17.17,0,0,0,0,.1c-.06.14-.12.29-.17.44h0s0,.19-.07.24v.07h0l.12-.2v-.08a3.89,3.89,0,0,1,.6-.74l.11-.1a1.24,1.24,0,0,1,.22-.18,7.78,7.78,0,0,0,1-.7l.08-.1a2.61,2.61,0,0,0,.23-1h0v-.08h0a1.75,1.75,0,0,0-.29-.47,1.73,1.73,0,0,1,.67-.16Z"/></g></g></svg>