<svg id="Layer_1" data-name="Layer 1" xmlns="http://www.w3.org/2000/svg" viewBox="0 0 48 48"><defs><style>.cls-1{fill:#fffffe;}.cls-2{fill:#d02139;}.cls-3{fill:#002344;}.cls-4{fill:#768089;}</style></defs><title>new_england_patriots</title><path class="cls-1" d="M48,14.88l-2.57.51c-2.17.44-3.49-.07-5.48-.83a23.64,23.64,0,0,0-7.62-1.79,43.32,43.32,0,0,0-7.2.19v0L24.5,13l-.25,0-1.5.19v.05a87.49,87.49,0,0,0-8.6,2C10.93,16.16.52,18.43.52,18.43L2,19.35a9.34,9.34,0,0,0,4.12,1.38c.46,0,.9.06,1.34.07,0,0,7.94,1.4,9,1.46l5.37,1.42a24.39,24.39,0,0,1,14.4,9.82l.6.76.69.87,1-.43a3.94,3.94,0,0,0,2.38-2.61,3,3,0,0,0,0-1.45l.26-.57,1.39-.54-.38-3,1.74-.71Z"/><g id="Team-icons_new_england_patriots" data-name="Team-icons new england patriots"><g id="new_england_patriots" data-name="new england patriots"><path id="Fill-4" class="cls-2" d="M24.4,17c-5.46.33-12,3.41-20.36,2,7.4-1,13-3.44,19.91-4.41L24.4,17"/><path id="Fill-5" class="cls-3" d="M25.29,20.1a9.12,9.12,0,0,1,6.29,1.13c-4.44-.48-6.62.76-9.38,1C32,24.83,35.56,30.31,38,33.35c1.69-.72,1.79-2.19,1.35-2.72l.44-1v-.61L41,28.58l-.37-2.92,2.18-.9,2.93-7.93c-4.88,1-6.5-2.16-13.48-2.6a41.5,41.5,0,0,0-7.8.28l.4,2.43a9.73,9.73,0,0,1,4.55.8A17.48,17.48,0,0,0,25,18l.29,2.07"/><path id="Fill-6" class="cls-2" d="M25,20.16c-3,.37-6.52,1.2-11.58.26,4.36-.13,7.62-1.58,11.21-2.3l.37,2"/><path id="Fill-7" class="cls-4" d="M32.83,26.83a23.06,23.06,0,0,1,5.37,5.69c.7-.29,1-1.1.69-1.39l-.66-.82.75.05.35-.61-1-.06-1.06.2,1.08-.74h.82v-.47l-.84-.4.29-.31,1.55.09-.45-3.45c-.61-.08-1.13.25-1.34,1.13l-2.76-.16a1.76,1.76,0,0,1,2.13-1.12c-.63-.9-3.76-1-4.2.43l2.52,2,.32,1.83-1-1.46c-.9-.77-1.83-1.31-2.56-.45"/><polyline id="Fill-8" class="cls-1" points="40.96 17.92 41.15 19.66 43.1 20.39 41.27 20.85 41.45 23.19 39.87 21.21 37.51 21.76 38.96 20.07 37.76 18.47 39.78 19.16 40.96 17.92"/></g></g></svg>