<?xml version="1.0" encoding="utf-8"?>
<!-- Generator: Adobe Illustrator 22.0.0, SVG Export Plug-In . SVG Version: 6.00 Build 0)  -->
<svg version="1.1" id="Layer_1" xmlns="http://www.w3.org/2000/svg" xmlns:xlink="http://www.w3.org/1999/xlink" x="0px" y="0px"
	 viewBox="0 0 48 48" style="enable-background:new 0 0 48 48;" xml:space="preserve">
<style type="text/css">
	.st0{fill:#003B66;}
	.st1{fill:#FFFFFF;}
	.st2{fill:#FCFCFD;}
	.st3{fill:#FDFEFE;}
</style>
<g>
	<g>
		<path class="st0" d="M20,29.4c0,0.8,0,1.6,0,2.4c0,0,1.3,0.4,1.7,0.5l0.7,0.2l0,0.8c0,1.7,0,3.5,0,5.2l0,1l-17,0l-1.2,0l0-1
			c0,0,0-3.5,0-5.2l0-0.8L5,32.2c0.5-0.1,1.8-0.4,2.1-0.5c0-4.8,0-9.7,0-14.5c-0.3-0.1-3-0.6-3-0.6l0-0.8c0-1.9,0-3.8,0-5.6l0-1
			h15.5c0.4,0,0.7,0.2,1,0.4l9,9.4c0-0.6,0-1.2,0-1.8c-0.1,0-0.2-0.1-0.3-0.1c-0.3-0.1-0.7-0.2-1-0.3l-0.7-0.2l0-0.8
			c0-1.7,0-5.6,0-5.6l0-1c0,0,5.7,0,7.9,0l9.2,0l0,1c0,0,0,4,0,5.7l0,0.8l-0.8,0.2c-0.4,0.1-0.9,0.2-1.3,0.3l-0.4,0.1
			c0,7.1,0,14.2,0,21.3v1l-12.2,0L20,29.4z"/>
		<path class="st1" d="M43.7,10.1c0,0,0,4,0,5.7c-0.8,0.2-1.6,0.4-2.4,0.5c-0.1,0-0.2,0.1-0.2,0.2c0,7.3,0,14.6,0,21.9
			c-3.6,0-7.1,0-10.7,0c-3.8-3.8-7.5-7.6-11.3-11.4c0,0-0.1-0.1-0.1-0.1c-0.1,0,0,0.1,0,0.2c0,1.8,0,3.5,0,5.3
			c0,0.1,0.1,0.2,0.2,0.2c0.8,0.2,1.5,0.4,2.3,0.7c0,1.7,0,3.5,0,5.2c-2,0-4.8,0-7.4,0c-4.4,0-8.6,0-8.6,0l-0.2,0c0,0,0-3.5,0-5.2
			c0.9-0.2,1.9-0.5,2.8-0.7c0-5.4,0-10.8,0-16.1c-1-0.2-2-0.4-3-0.6c0-1.9,0-3.8,0-5.6c2.3,0,4.7,0,7,0c2.5,0,5,0,7.5,0c0,0,0,0,0,0
			c0.1,0,0.2,0.1,0.3,0.1c3.5,3.7,7.1,7.4,10.6,11c0.1,0.1,0.1,0.1,0.2,0.2c0-0.1,0-0.1,0-0.2c0-1.6,0-3.3,0-4.9
			c-0.7-0.2-1.4-0.4-2.1-0.6c0-1.7,0-5.6,0-5.6s4.7,0,6.9,0c2.7,0,8,0,8,0H43.7 M3.1,8.1l0,2c0,1.9,0,3.8,0,5.6l0,1.7l1.6,0.3
			c0.4,0.1,0.8,0.2,1.2,0.2c0,0,0.1,0,0.1,0c0,4.3,0,8.6,0,12.9c-0.4,0.1-0.8,0.2-1.3,0.3l-1.6,0.4l0,1.6c0,1.7,0,5.2,0,5.2l0,2
			l2,0.1l0.2,0l0,0l0,0l8.6,0c2.7,0,5.4,0,7.4,0l2,0l0-2c0-1.4,0-2.8,0-4.1c1.8,1.9,3.7,3.7,5.5,5.6l0.6,0.6l0.9,0
			c2.7,0,5.4,0,8.1,0l2.6,0l2,0l0-2l0-1.1c0-6.5,0-12.9,0-19.4c0.3-0.1,0.6-0.1,0.9-0.2l1.6-0.4l0-1.6c0-1.7,0-5.6,0-5.6l0-2h-2
			h-0.2c0,0-5.3,0-8,0c-2.2,0-6.9,0-6.9,0l-2,0l0,2c0,0,0,2.3,0,4.2l-5.2-5.5c-0.6-0.6-1.3-0.8-1.7-0.8c-2.5,0-5,0-7.5,0l-7,0
			L3.1,8.1L3.1,8.1z"/>
	</g>
	<path class="st2" d="M26.2,30c0.2-0.7,0.5-1.4,0.7-2.1c0-0.1,0-0.2-0.1-0.3c-0.6-0.4-1.1-0.9-1.6-1.3c0,0-0.1-0.1-0.1-0.1
		c0-0.1,0.1,0,0.1,0c0.7,0,1.4,0,2,0c0.1,0,0.2,0,0.2-0.2c0.2-0.6,0.4-1.3,0.7-1.9c0,0,0-0.1,0.1-0.2c0.2,0.5,0.3,0.9,0.5,1.4
		c0.1,0.2,0.2,0.5,0.2,0.7c0,0.1,0.1,0.1,0.2,0.1c0.7,0,1.4,0,2.1,0c0.1,0,0.1,0,0.2,0c-0.4,0.3-0.7,0.6-1.1,0.9
		c-0.3,0.2-0.5,0.4-0.8,0.6c-0.1,0.1-0.1,0.1-0.1,0.2c0.2,0.7,0.5,1.4,0.7,2.1c0,0,0,0.1,0,0.1c-0.4-0.3-0.8-0.6-1.2-0.9
		c-0.2-0.2-0.4-0.3-0.7-0.5c-0.1-0.1-0.1-0.1-0.2,0c-0.6,0.4-1.2,0.9-1.8,1.3C26.3,30,26.3,30,26.2,30C26.3,30,26.3,30,26.2,30z"/>
	<path class="st2" d="M34.3,29.8c0.2,0.7,0.5,1.4,0.7,2c0,0.1,0.1,0.2,0.2,0.2c0.7,0,1.4,0,2.1,0c0.1,0,0.1,0,0.2,0
		c-0.2,0.2-0.4,0.4-0.7,0.5c-0.4,0.3-0.8,0.6-1.2,1c-0.1,0.1-0.1,0.1-0.1,0.2c0.2,0.7,0.5,1.5,0.7,2.2c-0.1,0-0.1-0.1-0.1-0.1
		c-0.6-0.4-1.2-0.9-1.8-1.4c-0.1-0.1-0.2-0.1-0.3,0c-0.6,0.4-1.1,0.8-1.7,1.2c-0.1,0-0.1,0.1-0.2,0.1c0.1-0.2,0.1-0.4,0.2-0.6
		c0.2-0.5,0.4-1,0.5-1.6c0-0.1,0-0.2-0.1-0.3c-0.5-0.4-1.1-0.9-1.6-1.3c0,0-0.1-0.1-0.1-0.1c0.1,0,0.1,0,0.2,0c0.7,0,1.4,0,2,0
		c0.1,0,0.1,0,0.2-0.1c0.2-0.6,0.4-1.3,0.7-1.9C34.3,29.9,34.3,29.8,34.3,29.8z"/>
	<path class="st2" d="M14.1,18.5c0-0.1,0-0.1,0-0.2c0.2-0.7,0.4-1.3,0.7-2c0-0.1,0-0.2-0.1-0.3c-0.5-0.4-1.1-0.9-1.6-1.3
		c0,0-0.1-0.1-0.1-0.1c0,0,0.1,0,0.2,0c0.7,0,1.4,0,2,0c0.1,0,0.2,0,0.2-0.2c0.2-0.7,0.5-1.4,0.7-2.1c0.1,0.3,0.2,0.5,0.3,0.8
		c0.2,0.4,0.3,0.9,0.4,1.3c0,0.1,0.1,0.1,0.2,0.1c0.8,0,1.5,0,2.4,0c-0.2,0.2-0.4,0.3-0.5,0.4c-0.4,0.4-0.9,0.7-1.3,1.1
		c-0.1,0.1-0.1,0.1-0.1,0.3c0.2,0.7,0.5,1.5,0.7,2.2l0,0c-0.1,0-0.1,0-0.1-0.1c-0.6-0.4-1.2-0.9-1.7-1.3c-0.1-0.1-0.2-0.1-0.3,0
		c-0.6,0.4-1.2,0.8-1.7,1.3C14.2,18.4,14.2,18.4,14.1,18.5L14.1,18.5z"/>
	<path class="st3" d="M19,20.4c0.7,0,1.5,0,2.2,0c0.2,0,0.2-0.1,0.3-0.2c0.2-0.7,0.5-1.3,0.7-2c0.1,0.4,0.3,0.8,0.4,1.1
		c0.1,0.3,0.2,0.7,0.3,1c0,0.1,0.1,0.1,0.2,0.1c0.7,0,1.4,0,2.1,0c0.1,0,0.1,0,0.2,0c-0.3,0.3-0.7,0.5-1,0.8
		c-0.3,0.2-0.6,0.5-0.9,0.7c-0.1,0.1-0.1,0.1-0.1,0.2c0.2,0.7,0.5,1.4,0.7,2.1c0,0,0,0,0,0.1c-0.1,0-0.1,0-0.1-0.1
		c-0.6-0.4-1.2-0.9-1.7-1.3c-0.1-0.1-0.2-0.1-0.4,0c-0.6,0.4-1.1,0.8-1.7,1.2c0,0-0.1,0-0.1,0.1c0.2-0.5,0.3-0.9,0.4-1.3
		c0.1-0.3,0.2-0.6,0.3-0.8c0-0.1,0-0.2-0.1-0.3C20.2,21.4,19.7,20.9,19,20.4C19.1,20.5,19.1,20.4,19,20.4z"/>
	<path class="st2" d="M14.1,18.5C14.1,18.5,14.1,18.5,14.1,18.5C14.1,18.5,14.1,18.5,14.1,18.5C14.1,18.5,14.1,18.5,14.1,18.5
		C14.1,18.5,14.1,18.5,14.1,18.5z"/>
</g>
</svg>
