<svg id="Layer_1" data-name="Layer 1" xmlns="http://www.w3.org/2000/svg" viewBox="0 0 48 48"><defs><style>.cls-1{fill:#fff;}.cls-2{fill:#0a0b09;}.cls-3{fill:#fffffe;}.cls-4{fill:#cbb686;}</style></defs><title>new_orleans_saints</title><path class="cls-1" d="M37.11,18.58a9.37,9.37,0,0,0-7.51-.87,11,11,0,0,0-.36-1.19c-.14-.43-.29-.86-.46-1.32l-1-2.5c-.5-1.3-.95-2.58-1.22-3.52L24,.29l-2.7,8.9c-.28,1-.7,2.18-1.22,3.52-.71,1.85-1,2.7-1.39,3.79-.14.4-.26.82-.37,1.24a9.3,9.3,0,0,0-7.5.86A7.32,7.32,0,0,0,7,25.89a6.55,6.55,0,0,0,4.8,5.56l2.76.78a5.72,5.72,0,0,0-.18,4.27l0,.11A4.71,4.71,0,0,0,18,39.36a7.83,7.83,0,0,0,2.05.08,9.85,9.85,0,0,0,2,3.08l2,2.07L26,42.52a9.92,9.92,0,0,0,2-3.09,7.68,7.68,0,0,0,2-.08,4.71,4.71,0,0,0,3.56-2.84,5.8,5.8,0,0,0-.13-4.32l2.67-.8A6.46,6.46,0,0,0,41,25.84,7.31,7.31,0,0,0,37.11,18.58Z"/><g id="Team-icons_new_orleans_saints" data-name="Team-icons new orleans saints"><g id="new_orleans_saints" data-name="new orleans saints"><path id="Path-2" class="cls-2" d="M35.78,29.94a5,5,0,0,0,3.69-4.26,5.85,5.85,0,0,0-3.09-5.79,7.88,7.88,0,0,0-7.44-.3l-.49.21-.07-.52a11.55,11.55,0,0,0-.57-2.3c-.17-.53-.37-1.07-.58-1.66l-.8-2.08c-.56-1.45-1-2.75-1.26-3.64L24,5.56,22.77,9.61c-.29,1-.73,2.27-1.26,3.64-.68,1.77-1,2.64-1.37,3.74a12.25,12.25,0,0,0-.56,2.3l-.07.53L19,19.6a7.91,7.91,0,0,0-7.44.32,5.86,5.86,0,0,0-3.07,5.8A5,5,0,0,0,12.2,30l1.22.34.3-1.23a4.12,4.12,0,0,1,.63-1.34,2.56,2.56,0,0,1,2.23-1.17,4.24,4.24,0,0,1,3.16,2l.12.17L19.8,29a3.7,3.7,0,0,0-.16,1.62l.2,1.5-1.39-1.85-1,.73a4.29,4.29,0,0,0-1.66,5,3.22,3.22,0,0,0,2.47,1.88,6.16,6.16,0,0,0,2.42-.06l.36-.08.11.35a8.53,8.53,0,0,0,2,3.39l.89.93.88-.93a8.38,8.38,0,0,0,2-3.4l.11-.35.36.08a6.16,6.16,0,0,0,2.42.06A3.2,3.2,0,0,0,32.21,36a4.32,4.32,0,0,0-1.69-5.08l-1-.73-1.39,1.86.19-1.51a3.53,3.53,0,0,0-.16-1.61l-.06-.19.12-.17a4.24,4.24,0,0,1,3.16-2,2.59,2.59,0,0,1,2.23,1.17,4.29,4.29,0,0,1,.64,1.35l.3,1.22Z"/><path id="Fill-3" class="cls-3" d="M23.46,9.72a31.16,31.16,0,0,1-1.29,3.78c-.43,1.12-.92,2.39-1.36,3.71a9.58,9.58,0,0,0-.6,3.09,5.69,5.69,0,0,0,.07.83,7.6,7.6,0,0,0-8.35-.6,5.15,5.15,0,0,0-2.72,5.09,4.33,4.33,0,0,0,3.18,3.67l.51.14.13-.52c0-.13.8-3.11,3.56-3.06,2.22,0,3.68,2.21,4.07,2.87a2.84,2.84,0,0,0-.34,1.37A3.18,3.18,0,0,0,21,32a1.4,1.4,0,0,1-.92.65,2.29,2.29,0,0,1-1.48-1l-.31-.42-.42.31c-.85.63-2.24,2.34-1.45,4.25a2.49,2.49,0,0,0,2,1.46,5.61,5.61,0,0,0,3.16-.39A8,8,0,0,0,23.63,41l.38.4.37-.4a8,8,0,0,0,2.06-4.2,5.61,5.61,0,0,0,3.16.39,2.5,2.5,0,0,0,2-1.47c.79-1.92-.61-3.61-1.46-4.24l-.42-.31-.31.41c-.37.5-.93,1.08-1.48,1A1.47,1.47,0,0,1,27,32a3.19,3.19,0,0,0,.71-1.92,2.85,2.85,0,0,0-.35-1.37c.39-.66,1.84-2.83,4.06-2.88,2.76-.06,3.54,2.93,3.57,3.05l.13.52.51-.14a4.33,4.33,0,0,0,3.18-3.67A5.17,5.17,0,0,0,36,20.5a7.55,7.55,0,0,0-8.34.63,5.66,5.66,0,0,0,.06-.82,9.75,9.75,0,0,0-.6-3.11c-.45-1.31-.94-2.58-1.37-3.7a29.58,29.58,0,0,1-1.3-3.78L24,7.34l-.51,2.38"/><path id="Fill-4" class="cls-2" d="M24,40.67A7.6,7.6,0,0,0,26,36c.88.87,4.29,1.46,5.06-.41S29.77,32,29.77,32c-2.07,2.77-3.46.06-3.46.06a2.46,2.46,0,0,0,.39-3.23c.11-.31,1.85-3.36,4.65-3.42,3.22-.08,4.09,3.44,4.09,3.44,3.38-.94,4-5.65.31-7.81-4.72-2.74-8.83,1.44-8.83,1.44a7.66,7.66,0,0,0-.28-5c-1.05-3.1-2.33-5.87-2.69-7.54-.36,1.67-1.63,4.45-2.67,7.55a7.66,7.66,0,0,0-.27,5s-4.1-4.22-8.82-1.45c-3.71,2.17-3,6.88.34,7.81,0,0,.85-3.52,4.07-3.46,2.8.06,4.55,3.1,4.66,3.41a2.47,2.47,0,0,0,.4,3.24s-1.38,2.67-3.46,0c0,0-2.13,1.58-1.28,3.63C17.69,37.5,21.1,36.9,22,36a7.63,7.63,0,0,0,2,4.72"/><path id="Fill-5" class="cls-4" d="M32.46,20.8c-3.84,0-7,4.37-7,4.37.14-.72,1.78-3.93.29-7.76A38.33,38.33,0,0,1,24,12h0a37.66,37.66,0,0,1-1.78,5.38c-1.48,3.84.17,7.05.31,7.76,0,0-3.16-4.35-7-4.35s-7,4.38-3.49,7a4.88,4.88,0,0,1,4.62-3.23c2.63,0,5.27,2.82,5.38,4.22a2.3,2.3,0,0,0,.47,3.12s-1.84,3.8-4.35,1.1c0,0-1.93,2.41.6,3,2,.47,4-1.56,4-1.56s-.21,3.2,1.27,5h0c1.48-1.76,1.25-5,1.25-5s2,2,4,1.56c2.53-.59.59-3,.59-3-2.5,2.75-4.32-1-4.32-1A2.31,2.31,0,0,0,26,28.76h0c.11-1.4,2.74-4.23,5.37-4.23A4.91,4.91,0,0,1,36,27.75c3.54-2.59.33-6.95-3.51-6.95"/></g></g></svg>