<svg id="Layer_1" data-name="Layer 1" xmlns="http://www.w3.org/2000/svg" viewBox="0 0 48 48"><defs><style>.cls-1{fill:#fff;}.cls-2{fill:#942231;}.cls-3{fill:#20254b;}</style></defs><title>new_york_giants</title><path class="cls-1" d="M23,9v1.25a5.61,5.61,0,0,0-2.43-1.23,7.68,7.68,0,0,0-4,0L5.36,9v7.69H8V38.34H36.06A13,13,0,0,0,38.63,38a5.53,5.53,0,0,0,3.95-5.65V9Z"/><g id="Team-icons_new_york_giants" data-name="Team-icons new york giants"><g id="new_york_giants" data-name="new york giants"><path id="Fill-1" class="cls-2" d="M41.08,31.18V10.53H35.34v12.6a1.42,1.42,0,0,1-.7,1,1.53,1.53,0,0,1-.75.2A1.4,1.4,0,0,1,32.42,23h0V10.53H24.51v4.68H26a.71.71,0,0,1,.71.71v9.16a4.5,4.5,0,0,0,2.13,3.53,7,7,0,0,0,5.42.79,5.31,5.31,0,0,0,1.09-.48v1.16a1.68,1.68,0,0,1-.1.67,1.29,1.29,0,0,1-1.27.64H9.48v5.45H36a10.91,10.91,0,0,0,2.21-.32,4,4,0,0,0,2.87-4.16V31.18"/><path id="Fill-3" class="cls-3" d="M29.2,27.92h.1a6.39,6.39,0,0,0,4.67.67h0a4.62,4.62,0,0,0,.88-.39l1.23-.82V30A2.6,2.6,0,0,1,36,31h0a2,2,0,0,1-2,1.1H10.27V36H36a8.93,8.93,0,0,0,2-.28,3.24,3.24,0,0,0,2.32-3.41v-21H36.13V23.2h0A2.22,2.22,0,0,1,35,24.86a2.32,2.32,0,0,1-2.77-.37,2.08,2.08,0,0,1-.6-1.49V11.32H25.3v3.1H26a1.5,1.5,0,0,1,1.5,1.5V25a3.67,3.67,0,0,0,1.73,2.88"/><path id="Fill-4" class="cls-2" d="M24.23,24.71a.71.71,0,0,1-.71-.71V14.15a1.46,1.46,0,0,0-.07-.51,4,4,0,0,0-.57-1.32,4.37,4.37,0,0,0-2.69-1.82,6.13,6.13,0,0,0-5.12.92v-.89H6.86v4.69H8.77a.71.71,0,0,1,.71.71h0V29.25h5.59V16.68h0a1.41,1.41,0,0,1,2.82,0V26.8a2.45,2.45,0,0,0,2.42,2.42h5.25v-4.5H24.23"/><path id="Fill-6" class="cls-3" d="M22.73,24V14.2l-.06-.39a2.81,2.81,0,0,0-.44-1A3.56,3.56,0,0,0,20,11.26a5.33,5.33,0,0,0-4.45.79l-1.27,1v-1.7H7.65v3.11H8.77a1.5,1.5,0,0,1,1.5,1.5v12.5h4V16.68a2.2,2.2,0,0,1,4.4,0V26.8a1.64,1.64,0,0,0,1.63,1.63h4.46V25.51h-.54A1.5,1.5,0,0,1,22.73,24h0"/></g></g></svg>