<svg id="Layer_1" data-name="Layer 1" xmlns="http://www.w3.org/2000/svg" viewBox="0 0 48 48"><defs><style>.cls-1{fill:#fffffe;}.cls-2{fill:#21312b;}</style></defs><title>new_york_jets</title><path class="cls-1" d="M23.91,35.72c-10.42,0-20.27-5.84-20.27-12s9.85-12,20.27-12c10.79,0,20.26,5.62,20.26,12S34.7,35.72,23.91,35.72Z"/><g id="Team-icons_new_york_jets" data-name="Team-icons new york jets"><g id="new_york_jets" data-name="new york jets"><path id="Fill-4" class="cls-2" d="M42.67,23.7c0-5.09-8.33-10.53-18.76-10.53-10,0-18.77,5.48-18.77,10.53s8.78,10.52,18.77,10.52c10.43,0,18.76-5.44,18.76-10.52"/><path id="Fill-5" class="cls-1" d="M31.16,18.22v1.1h1.78c.09,0,.25,0,.28.08s0,.24-.22.62L30.67,23.9l-2.48-4c-.2-.32-.18-.44-.16-.49a.32.32,0,0,1,.26-.12h1.28v-1.1H20v1.1h1.21a.72.72,0,0,1,.51.15,1.52,1.52,0,0,1,.21,1V24.5l-4.84-6.32H12.34v1.16H13.9a.54.54,0,0,1,.35.09c.12.12.12.43.12.72v6.38c0,1-.11,1.34-.53,1.34H12.32v1h5.12v-1H16c-.25,0-.42,0-.48-.07a2.69,2.69,0,0,1-.15-1.26V21L22,29h1V20a.5.5,0,0,1,.41-.57h1.08c.47,0,.78.58,1.1,1.12l2.8,4.75v2c0,.68-.3.68-.43.68h-1.1v1h6.07V28H31.78c-.43,0-.58-.15-.56-.79V25l3-5c.43-.66.47-.73,1-.72h1V18.22H31.16"/><path id="Fill-6" class="cls-2" d="M31.44,18.49v.56h1.47s1.09-.09.32,1.12l-2.55,4.26L28,20.07c-.71-1.12.34-1,.34-1h1v-.56h-9V19h.93c.89,0,1,.58,1,1.44v4.87L17,18.5H12.61v.6H13.9c.83,0,.74.65.75,1.28v6.19c0,.86,0,1.61-.81,1.62H12.6v.47h4.56v-.48H16c-.79,0-.91-.11-.91-1.61V20.12l7,8.55h.58V20.42c0-.86,0-1.34.81-1.37h1.14c.6,0,.93.74,1.35,1.48l2.72,4.59v2.1c0,.65-.26,1-.71,1h-.89v.48h5.53v-.49h-.85c-.67,0-.84-.38-.83-1.07v-2.2l2.8-4.71c.62-.94.66-1.19,1.5-1.18H36v-.56H31.44"/><path id="Fill-7" class="cls-2" d="M28.15,28.8c0-1.25-1.88-2.59-4.24-2.59s-4.25,1.35-4.25,2.59,2,2.58,4.25,2.58,4.24-1.33,4.24-2.58"/><path id="Fill-8" class="cls-1" d="M27.87,28.66c-.14-1.07-1.85-2.16-4-2.16s-3.82,1.1-4,2.16H27.8"/><path id="Fill-9" class="cls-1" d="M19.94,28.94c.15,1.06,1.94,2.16,4,2.16s3.82-1.1,4-2.16h-8"/><path id="Fill-10" class="cls-2" d="M22.47,29.72a.93.93,0,0,1-.22-1.85h0a.61.61,0,0,1,.19,0h2.87a.94.94,0,0,1,1,.85.93.93,0,0,1-.82,1,.61.61,0,0,1-.19,0H22.47"/><path id="Fill-11" class="cls-1" d="M25.49,28.39v-.08H25.2v.09a2.56,2.56,0,0,1,.05.27h-.49v-.25H24.5a1,1,0,0,1,.05.24H24v-.23h-.27v.23h-.49a1,1,0,0,1,0-.24H23v.25h-.49a2.56,2.56,0,0,1,0-.27v-.09h-.27v.08a1.48,1.48,0,0,0,0,.42,2,2,0,0,0,.06.48h.27a1.53,1.53,0,0,1-.07-.36H23a1,1,0,0,0,0,.25h.26a1,1,0,0,1,0-.25h.49v.24H24v-.24h.49a1,1,0,0,1,0,.25h.26a1,1,0,0,0,0-.25h.49a1.53,1.53,0,0,1-.07.36h.27a2,2,0,0,0,.06-.48,1.48,1.48,0,0,0,0-.42"/><path id="Fill-12" class="cls-2" d="M36.27,21.86c-.28-.53-1-.83-2.15-.88a7.47,7.47,0,0,0-2,.15H18.62l.7-1.3H16l-2.29,4.31c-.18.27-.21.29-.4.27H13.2a2.22,2.22,0,0,1,.2-.41l.79-1.31h-3.1l-.1.13c-.85,1.17-1.1,2.12-.75,2.81s1.18,1,2.5,1a5.17,5.17,0,0,0,2.82-.5H22.3L24,22.85h1.49l-1.72,3.23h3.44l1.08-2h1.45l-.07.19a1.37,1.37,0,0,0,0,1.33,2.39,2.39,0,0,0,2.08.74c1.78,0,2.92-.17,3.46-1a1.51,1.51,0,0,0,.19-1.75,1.41,1.41,0,0,0-.4-.33h1l.09-.15a1.19,1.19,0,0,0,.12-1.22"/><path id="Fill-14" class="cls-1" d="M13.64,23H11.25c-1.61,2.21-.82,3.33,1.49,3.31,2.1,0,2.84-.15,3.72-1.75l2.34-4.37H16.17L14,24.31c-.21.31-.32.46-.7.42-.59-.06-.43-.41-.13-.92l.51-.84"/><polyline id="Fill-15" class="cls-1" points="24.32 25.77 27.06 25.77 28.78 22.56 30.04 22.56 30.65 21.44 25.11 21.44 24.52 22.54 26.05 22.54 24.32 25.77"/><path id="Fill-16" class="cls-1" d="M30,24.36c-.42,1,.21,1.63,1.83,1.64s2.75-.17,3.2-.86a1.25,1.25,0,0,0,.2-1.4,3,3,0,0,0-1.58-.65c-.43-.09-.58-.19-.55-.44s.32-.28.53-.22a.43.43,0,0,1,.22.49h2c.55-.89-.08-1.56-1.77-1.63-2.09-.07-2.88.32-3.3,1.38-.21.49-.18.87.13,1.07a10.69,10.69,0,0,0,1.75.53.29.29,0,0,1,.16.36v.08a.48.48,0,0,1-.62.09c-.13-.1-.1-.23-.15-.44H30"/><polyline id="Fill-17" class="cls-1" points="16.88 25.78 22.11 25.78 22.7 24.68 19.84 24.68 20.11 24.16 22.66 24.16 23.25 23.04 20.86 23.04 21.1 22.54 23.69 22.54 24.27 21.45 19.2 21.45 16.88 25.78"/></g></g></svg>