<svg id="Layer_1" data-name="Layer 1" xmlns="http://www.w3.org/2000/svg" viewBox="0 0 48 48"><defs><style>.cls-1{fill:#fff;}.cls-2{fill:#164246;}.cls-3{fill:#0a0b09;}.cls-4{fill:#fffffe;}.cls-5{fill:#9ea5a4;}</style></defs><title>philadelphia_eagles</title><path class="cls-1" d="M14,38.57l-.8-.61a4.51,4.51,0,0,1-1.35-2.21,6.18,6.18,0,0,1-1.92.72,6,6,0,0,1-5.25-1.58c-1.21-1.06-1.49-3.64-1.55-4.4l0-.47.24-.41a16.27,16.27,0,0,1,2.45-3.14l-.06-.11-.81-1.45,1.53-.66A13.94,13.94,0,0,0,11,20.93a26.44,26.44,0,0,1,5.16-4.12A73.26,73.26,0,0,1,24,12.63l6.82-3.08L28.53,12c2.2-.78,4-1.39,4.19-1.44l6-2-2.35,2.35q3-.79,6.11-1.39L45.39,9l-1.24,2.66C43.59,12.84,43,14,42.3,15.17l2.92-.35-1.66,2.65a34.36,34.36,0,0,1-3.3,4.47l1.25.35L40.26,24a31.5,31.5,0,0,1-5.07,5.56c-3.78,3.32-6,3.47-6.78,3.37a6.56,6.56,0,0,1-5.9,1.21l-1.44-.55.58-1.42a3.19,3.19,0,0,0,.24-1.26,3,3,0,0,0-1.61.52,14.18,14.18,0,0,1-2,3.63,12.23,12.23,0,0,1-3.44,3Zm13.11-7.66v0Z"/><g id="Team-icons_philadelphia_eagles" data-name="Team-icons philadelphia eagles"><g id="philadelphia_eagles" data-name="philadelphia eagles"><path id="Fill-2" class="cls-2" d="M24.64,14,23,15.76C26.26,14.31,33.19,12,33.19,12l-2,2a98.74,98.74,0,0,1,11.6-3,41,41,0,0,1-3.43,6c1-.09,2.93-.32,2.93-.32a33.36,33.36,0,0,1-4.91,6.13,13.61,13.61,0,0,1,1.66.35,30.77,30.77,0,0,1-4.83,5.3c-3.92,3.43-5.65,3-5.65,3a1.93,1.93,0,0,0,0-.34.89.89,0,0,0,0-.23c-3,2.84-5.52,1.88-5.52,1.88s1.11-2.7-.59-3.24c-1.33-.42-3.36.66-3.52,1.24a12.82,12.82,0,0,1-1.85,3.41,10.8,10.8,0,0,1-3,2.59s-1.45-1.12-.95-4.39A1.5,1.5,0,0,0,13,31.32c-.24-.36-2.1,0-2.55,1.08-.32.73,1.53,1.35,1.53,1.35A4.74,4.74,0,0,1,9.6,35a4.5,4.5,0,0,1-3.92-1.19c-.9-.79-1.09-3.43-1.09-3.43a14.64,14.64,0,0,1,3.29-3.81A2.64,2.64,0,0,1,7,25.63c4.38-1.89,5-4.56,9.92-7.54A70.28,70.28,0,0,1,24.64,14"/><path id="Fill-3" class="cls-3" d="M36.28,23.22a8.16,8.16,0,0,1,1.29.34c-1.5,2.44-6,7.23-8.51,7.42a1.85,1.85,0,0,0-.39-1,5.81,5.81,0,0,1-5,2.5c1.45-5.32-4.71-3.29-5.18-1.83a10.62,10.62,0,0,1-4.34,5.57s-1-1.13-.57-3.68c.32-1.88-.87-1.82-.87-1.82-.48,0-2.28.19-2.85,1.45-.46,1,1.15,1.72,1.15,1.72a3.88,3.88,0,0,1-5-.44c-.65-.56-.9-2.94-.9-2.94a14.08,14.08,0,0,1,3.69-4,2.07,2.07,0,0,1-1-.67c3.6-1.65,5-4.39,8.07-6.43a42,42,0,0,1,6-3.35l-1,1.23s.81-.35,1.17-.52a78.72,78.72,0,0,1,8.66-3.3L29,15.1a58.55,58.55,0,0,1,6.36-1.72l5.84-1.24a23.85,23.85,0,0,1-2.9,5.49l2.47-.15a23.37,23.37,0,0,1-4.49,5.74"/><path id="Fill-4" class="cls-3" d="M21.71,19.53l-.18.06.16-.05h0"/><path id="Fill-6" class="cls-4" d="M25.75,26a6.21,6.21,0,0,0-4.43.05,13.05,13.05,0,0,1,8.48-1.28,11.82,11.82,0,0,0-7.48,0,13.8,13.8,0,0,0-1.52.68s.24-.18.68-.44a20.79,20.79,0,0,1,4.14-2.32,17.24,17.24,0,0,1,4-1,11.69,11.69,0,0,0-4.17.13,20.9,20.9,0,0,1,6.2-1.29c1,0,3.37.1,3.37.1a22.72,22.72,0,0,0-9.27-.84c-1.36.34-2.43.68-2.43.68s.19-.1.55-.25c.86-.51,4.4-2.41,11-3.44-.62-.09-1.24-.15-1.87-.18a27.08,27.08,0,0,0-3.12.36,27.55,27.55,0,0,1,7.81-1.69,31.33,31.33,0,0,0-11.78,1.39h-.09s.68-.49,1.45-1c.57-.38,1.39-1,1.39-1a43.52,43.52,0,0,0-7.79,2.92c-1.27.6-1.93,1-1.93,1,.19-.22,1.09-1,1.31-1.29A18.81,18.81,0,0,0,13.73,22c-1.81,2-1.73,2.28-4.41,3.72a4.53,4.53,0,0,0,4-.49,5.53,5.53,0,0,0,1-.87c.71-.82.47-1.66,1.41-2.26a3.44,3.44,0,0,0-.37,1.12,8.59,8.59,0,0,1,2.33-2,13,13,0,0,1,4.19-1.76l-.19.06c-3.44,1.44-4,3.31-4,3.5,0,.42,1.24-.52,2.29-.65a4.47,4.47,0,0,0-2.51,2.41,2.63,2.63,0,0,1-.79,1.39,2.59,2.59,0,0,1-.63.4,1.49,1.49,0,0,1-1.39.05.73.73,0,0,1-.17-.18,1.68,1.68,0,0,0,1.27-.27,1.8,1.8,0,0,0,.68-.74h0a.8.8,0,0,0,0-.79.71.71,0,0,0-.53-.32,4.1,4.1,0,0,1,.51-.79,5.26,5.26,0,0,0-1,1,.75.75,0,0,1,.57.34,1,1,0,0,1-.49,1.23,1,1,0,0,1-1.39-.1.47.47,0,0,1-.06-.15H14l-.47.22a1.24,1.24,0,0,0,.47,0c0,.55.38,1.43,2.3.93a2.63,2.63,0,0,1-2.67.08c.11.09.23.17.38.27,2.41,1.49,5.19.08,5.86-.31.17-.1.34-.2.51-.28a5.73,5.73,0,0,0-1.18,1.58A7.53,7.53,0,0,1,25.75,26"/><path id="Fill-7" class="cls-5" d="M16.94,23.57c.1.36.71,0,.71,0A5,5,0,0,0,16.49,25a1,1,0,0,1-.11.41h.23a1.28,1.28,0,0,0,.47-.18,1.29,1.29,0,0,1-.47.89,2.63,2.63,0,0,0,.79-1.39,4.47,4.47,0,0,1,2.51-2.41c-1.05.13-2.33,1.07-2.29.65,0-.19.58-2.06,4-3.5h-.13c-3.15,1.18-4.81,3.05-4.57,4"/><path id="Fill-8" class="cls-2" d="M15.63,25a.69.69,0,0,1-.36.89.71.71,0,0,1-1-.1h0a.33.33,0,0,1,0-.14l-.21.14a.47.47,0,0,0,.06.15,1.09,1.09,0,0,0,1.81-1.07.75.75,0,0,0-.57-.34l-.19.23a.52.52,0,0,1,.47.24"/><path id="Fill-9" class="cls-3" d="M15.27,25.91a.69.69,0,0,0,.36-.89.52.52,0,0,0-.47-.24,6.66,6.66,0,0,1-.5.56.55.55,0,0,0,.22.49.57.57,0,0,1-.36-.09.37.37,0,0,1-.13-.17l-.13.1a.58.58,0,0,0,.05.14.71.71,0,0,0,1,.1h0"/><path id="Fill-10" class="cls-4" d="M14.52,25.75a.67.67,0,0,0,.37.08.55.55,0,0,1-.22-.49l-.28.24a.37.37,0,0,0,.13.17"/><path id="Fill-11" class="cls-5" d="M35,20.55s-2.34-.13-3.37-.1a20.9,20.9,0,0,0-6.2,1.29,11.69,11.69,0,0,1,4.17-.13,17.24,17.24,0,0,0-4,1A21.16,21.16,0,0,0,21.48,25a18.74,18.74,0,0,1,13.24-2.2,16,16,0,0,0,1.54-1.54,6.58,6.58,0,0,0,1.43-2.1,44.56,44.56,0,0,0-9.38,0c-.85.13-1.77.33-2.58.53a22.72,22.72,0,0,1,9.27.84"/><path id="Fill-12" class="cls-5" d="M22.44,27c4.45-1.11,7.54.23,7.91,1.64h0a6.67,6.67,0,0,0,1.92-1.41,10.39,10.39,0,0,0,2-2.52c-4.55-2.28-9.57-.91-12,0a11.82,11.82,0,0,1,7.48,0A13,13,0,0,0,21.32,26a6.26,6.26,0,0,1,4.43,0,7.51,7.51,0,0,0-6.58,2.41,3,3,0,0,0-.18.41A6.62,6.62,0,0,1,22.44,27"/><path id="Fill-13" class="cls-5" d="M37.64,15.27A27.2,27.2,0,0,0,29.83,17,26.15,26.15,0,0,1,33,16.6a16.74,16.74,0,0,1,1.87.1,31.58,31.58,0,0,0-11,3.44,27.5,27.5,0,0,1,5.47-1.62A62,62,0,0,1,36,17.77,10.15,10.15,0,0,0,38.41,14s-3,.24-6.33.87a31.94,31.94,0,0,0-6.22,1.75,31.33,31.33,0,0,1,11.78-1.39"/><path id="Fill-14" class="cls-5" d="M19.94,28.79a4.16,4.16,0,0,1,3-.54c2.82.45,2.73,2.23,2.73,2.23a4.58,4.58,0,0,0,1.91-1.66,4.53,4.53,0,0,0-2.23-1c-3.75-.67-5.43,1-5.43,1"/><path id="Fill-15" class="cls-5" d="M11.08,28.07c-.28.08-.88.17-.6-.26l.85-.44a1.52,1.52,0,0,0,1,.34Zm1.17-1.33a4.13,4.13,0,0,1-2.15,0,10.42,10.42,0,0,0-4,3.57,6.16,6.16,0,0,0,.47,2.28,3.08,3.08,0,0,0,3.52,1.28s-3.41-1.51.24-3.72a9.83,9.83,0,0,1,6.3-.61c.16.06.37.2.35.24-.2,1-1,3.71-2.34,4.49-.74-1.08,1.21-3.56-.78-3.65a2.63,2.63,0,0,1,.29,1.8,4.6,4.6,0,0,0,.14,2.91,9.54,9.54,0,0,0,3.92-6,5.13,5.13,0,0,1,.38-1.08A5.55,5.55,0,0,1,12.25,26.74Z"/><path id="Fill-16" class="cls-3" d="M10.48,27.81c-.28.43.32.34.6.26l1.24-.36a1.52,1.52,0,0,1-1-.34l-.85.44"/></g></g></svg>