<svg id="Layer_1" data-name="Layer 1" xmlns="http://www.w3.org/2000/svg" viewBox="0 0 48 48"><defs><style>.cls-1{fill:#fff;}.cls-2{fill:#0a0b09;}.cls-3{fill:#9ea5a4;}.cls-4{fill:#fffffe;}.cls-5{fill:#f2af2b;}.cls-6{fill:#b32534;}.cls-7{fill:#194a85;}</style></defs><title>pittsburgh_steelers</title><path class="cls-1" d="M24.48,42.67a18.15,18.15,0,0,1,0-36.3h0a18.15,18.15,0,0,1,0,36.3Z"/><g id="Team-icons_pittsburgh_steelers" data-name="Team-icons pittsburgh steelers"><g id="pittsburgh_steelers" data-name="pittsburgh steelers"><path id="Fill-1" class="cls-2" d="M7.83,24.52A16.65,16.65,0,1,0,24.48,7.87,16.64,16.64,0,0,0,7.83,24.52v0"/><path id="Fill-4" class="cls-3" d="M24.48,40.8A16.29,16.29,0,1,0,8.2,24.5h0A16.28,16.28,0,0,0,24.46,40.8h0"/><path id="Fill-5" class="cls-4" d="M24.48,38.14A13.59,13.59,0,1,0,10.9,24.54h0a13.58,13.58,0,0,0,13.56,13.6h0"/><path id="Fill-6" class="cls-5" d="M24.55,24.57a6.89,6.89,0,0,1,6.74-6.75c-3.26-.17-6.47-1.55-6.72-6.7-.39,4.79-2.31,6.15-6.74,6.72,3.16.16,6.36,1.41,6.72,6.73"/><path id="Fill-7" class="cls-6" d="M31.31,31.46A6.9,6.9,0,0,1,38,24.64c-3.27-.12-6.41-1.67-6.66-6.82C30.9,22.61,29,24,24.55,24.57c3.17.16,6.4,1.57,6.76,6.89"/><path id="Fill-8" class="cls-7" d="M24.64,38.08a6.69,6.69,0,0,1,6.67-6.62c-3.26-.18-6.51-1.74-6.76-6.89-.39,4.79-2.25,6.23-6.68,6.8,3.16.16,6.41,1.39,6.77,6.71"/><path id="Fill-9" class="cls-2" d="M20.77,23.39v2h.54V24.24c0-.12,0-.28.43-.25v-.62h-.13c-.18,0-.23.12-.31.27v-.26h-.53"/><path id="Fill-10" class="cls-2" d="M23.16,24.05a.75.75,0,0,0-.14-.48.73.73,0,0,0-.81-.15.46.46,0,0,0-.28.21.62.62,0,0,0,.2.85l.07,0a.56.56,0,0,1,.45.2.15.15,0,0,1,0,.16c0,.08-.21.08-.28.05a.17.17,0,0,1-.1-.18h-.46a.88.88,0,0,0,.08.42.52.52,0,0,0,.31.25.83.83,0,0,0,.72-.06.55.55,0,0,0,.18-.19.62.62,0,0,0,0-.5v-.15a.57.57,0,0,0-.4-.29h-.13c-.25,0-.27-.17-.23-.27a.16.16,0,0,1,.17-.11.21.21,0,0,1,.16.11.29.29,0,0,1,0,.13h.47"/><path id="Fill-11" class="cls-2" d="M14.38,23.4a1,1,0,0,0-.1-.5.84.84,0,0,0-1.08-.3.66.66,0,0,0-.33.31.89.89,0,0,0-.12.38.94.94,0,0,0,.43.82,2.48,2.48,0,0,1,.54.32.4.4,0,0,1,0,.37c-.08.15-.3.09-.36,0a.71.71,0,0,1-.07-.35h-.58a1.19,1.19,0,0,0,.07.59.63.63,0,0,0,.34.32,1,1,0,0,0,1-.15.4.4,0,0,0,.1-.15,1.06,1.06,0,0,0,.09-.68,1,1,0,0,0-.12-.32,1,1,0,0,0-.48-.36h-.08c-.31-.1-.43-.29-.34-.49a.25.25,0,0,1,.34-.07.35.35,0,0,1,.08.26h.58"/><path id="Fill-12" class="cls-2" d="M14.68,23.39h-.22v.47h.21v1.08c0,.57.5.48.76.49v-.61c-.22,0-.2,0-.2-.15v-.8h.21v-.48h-.2V22.9l-.54.3v.19"/><polyline id="Fill-13" class="cls-2" points="18.54 22.57 18.54 25.44 19.09 25.44 19.09 22.57 18.54 22.57"/><path id="Fill-14" class="cls-2" d="M19.72,24.14h.41a.21.21,0,0,0-.11-.27h0a.21.21,0,0,0-.28.11h0A.22.22,0,0,0,19.72,24.14Zm0,.71c0,.18.4.22.41,0v-.06h.45V25a.41.41,0,0,1-.33.42,1,1,0,0,1-.63,0,.51.51,0,0,1-.34-.5V24a.55.55,0,0,1,.27-.47.81.81,0,0,1,.71,0,.53.53,0,0,1,.32.48v.63H19.7Z"/><path id="Fill-15" class="cls-2" d="M17.53,24.14h.41a.21.21,0,0,0-.11-.27h0a.21.21,0,0,0-.28.11h0A.22.22,0,0,0,17.53,24.14Zm0,.71c0,.18.4.22.41,0v-.06h.45V25a.41.41,0,0,1-.33.42,1,1,0,0,1-.63,0,.51.51,0,0,1-.34-.5V24a.55.55,0,0,1,.27-.47.81.81,0,0,1,.71,0,.53.53,0,0,1,.32.48v.63h-.86Z"/><path id="Fill-16" class="cls-2" d="M16,24.14h.41a.21.21,0,0,0-.11-.27h0A.21.21,0,0,0,16,24v0A.17.17,0,0,0,16,24.14Zm0,.71c0,.18.4.22.41,0v-.06h.45V25a.41.41,0,0,1-.33.42,1,1,0,0,1-.63,0,.51.51,0,0,1-.34-.5V24a.55.55,0,0,1,.27-.47.81.81,0,0,1,.71,0,.53.53,0,0,1,.32.48v.63H16Z"/></g></g></svg>