<svg id="Layer_1" data-name="Layer 1" xmlns="http://www.w3.org/2000/svg" viewBox="0 0 48 48"><defs><style>.cls-1{fill:#fff;}.cls-2{fill:#101b2e;}.cls-3{fill:#fffffe;}.cls-4{fill:#66b445;}.cls-5{fill:#9ea5a4;}</style></defs><title>seattle_seahawks-01</title><path class="cls-1" d="M44.55,23.09V23a5.11,5.11,0,0,0-1-1.76,6.52,6.52,0,0,0-2.28-1.81,22.78,22.78,0,0,0-5-1.47h-.08l-1-.14c-2-2-5-2.23-7.57-2.23H12.33a2.23,2.23,0,0,1-1.17-.22,2.41,2.41,0,0,1-.81-1.15L9.8,12.6,9,14.15c-2.87,5.39-4,7.53-4.45,8.45h0L4.28,23c-1.35,2.49-1.81,4-.74,5.62s3.1,1.69,4.71,1.69H32a30.39,30.39,0,0,1,4.87.42A12.49,12.49,0,0,1,35.54,34l-.91,1.4,2.69-1.18a12.7,12.7,0,0,0,5.43-4.53c.18-.27.36-.54.5-.78A7.24,7.24,0,0,0,44.55,23.09Z"/><g id="Team-icons_seattle_seahawks" data-name="Team-icons seattle seahawks"><g id="seattle_seahawks" data-name="seattle seahawks"><path id="Fill-3" class="cls-2" d="M40.55,21.08a20.62,20.62,0,0,0-6.23-1.58c-1.53-1.87-4.12-2.15-6.73-2.15H12.39c-2.38,0-2.62-.94-2.62-.94l-3.19,6h8.29c2.61,0,2.74-.27,4.47-1.54a8,8,0,0,1,5-1.84,10.7,10.7,0,0,1,4.82,1.25c1.94.85,3,1.27,4.11.78,0,0-.9,1.22-3.64.07s-3.48-1.39-5.14-1.39-3.52.79-5.88,3.14l2.81,2.25-1.08,1.65c-.43.65-.38,1.06-.16,1.38s.52.45,1.56.45H32a32.77,32.77,0,0,1,5.32.47c2.62.53.93,2.74.93,2.74a13.94,13.94,0,0,0,3.5-3.88c1.94-3.05,1.46-5.54-1.27-6.85"/><path id="Fill-5" class="cls-3" d="M35.73,21.58c-1.24-.3-.18-1-.18-1A3.58,3.58,0,0,0,33,22.78l-.09.18c-1,2-1.88,1.88-3.57,1.88H26.4C24.06,24.84,23,26,21.85,28h1.32c1.21-1.8,2.12-2.28,4.51-2.41A27,27,0,0,1,39.8,28.32c3.27-5.49-1.59-6.4-4.07-6.74"/><path id="Fill-6" class="cls-3" d="M25.57,28c.61-.92,1.85-1.23,3.85-1.12a31.47,31.47,0,0,1,10,2.07,25.07,25.07,0,0,0-10.94-2.73c-1.65,0-3.09.29-3.93,1.78h1"/><path id="Fill-7" class="cls-3" d="M30.87,22.5c-.64.9-1.49,1.21-3.9,1-2.79-.19-2.07-1.37-1.75-1.95h0l.4-.72a5.22,5.22,0,0,0-3.71,1.52A5,5,0,0,0,26,24.13h2.7c2.52,0,3.12-1.13,3.36-1.63a4.82,4.82,0,0,1-1.2,0"/><path id="Fill-8" class="cls-4" d="M29.65,22.24l-.16-.07a1.31,1.31,0,0,1-1.08.36c-.54-.07-.85-.46-.7-.88a.56.56,0,0,1,.09-.17c-.28-.11-.55-.22-.83-.31-.55.9-.88,1.5,1.05,1.66,1.21.1,1.53-.1,1.79-.54l-.16-.05"/><path id="Fill-9" class="cls-5" d="M19.94,25.66c-1,1.73-1.39,2.13-.69,2.95h-11c-1.63,0-2.69-.06-3.24-.9s-.42-1.6,1-4.17H15.4c1.62,0,2,.1,2.91.78S20,25.66,20,25.66"/></g></g></svg>