<svg id="Layer_1" data-name="Layer 1" xmlns="http://www.w3.org/2000/svg" viewBox="0 0 48 48"><defs><style>.cls-1{fill:#fffffe;}.cls-2{fill:#0a0b09;}.cls-3{fill:#a8925a;}.cls-4{fill:#962427;}</style></defs><title>san_francisco_49ers</title><path class="cls-1" d="M24,36.79a31.56,31.56,0,0,1-10-1.62,20.32,20.32,0,0,1-7.82-4.52,9.38,9.38,0,0,1-3-6.57c0-3.51,2.22-6.69,6.27-9.08V15l.84-.42A30.85,30.85,0,0,1,24,11.37c7,0,13.94,2.36,17.65,6a9.4,9.4,0,0,1,3,6.57,9.6,9.6,0,0,1-3,6.77C37.94,34.39,31,36.79,24,36.79Z"/><g id="Team-icons_san_francisco_49ers" data-name="Team-icons san francisco 49ers"><g id="san_francisco_49ers" data-name="san francisco 49ers"><path id="Fill-4" class="cls-2" d="M10.9,15.88c-4,2.13-6.27,5-6.27,8.15a7.86,7.86,0,0,0,2.56,5.52,18.9,18.9,0,0,0,7.27,4.2A30.34,30.34,0,0,0,24,35.29c6.63,0,13.14-2.22,16.59-5.67A8,8,0,0,0,43.16,24a7.84,7.84,0,0,0-2.54-5.53c-3.42-3.39-9.94-5.6-16.62-5.6a29,29,0,0,0-13.1,3"/><path id="Fill-5" class="cls-3" d="M24,34.17c5.85,0,11.39-1.91,14.47-5a7.31,7.31,0,0,0,2.36-5.12A7.28,7.28,0,0,0,38.46,19c-3.08-3.07-8.62-5-14.47-5a23.86,23.86,0,0,0-11.72,2.91C9,18.81,7.16,21.36,7.16,24.07a7.26,7.26,0,0,0,2.37,5.12c3.07,3.07,8.62,5,14.46,5"/><path id="Fill-6" class="cls-4" d="M24,33.81c8.58,0,15.52-4.44,15.52-9.79S32.6,14.33,24,14.33,8.5,18.67,8.5,24s7,9.79,15.52,9.79"/><path id="Fill-7" class="cls-2" d="M36.16,22.8h0v-.35H30a3.28,3.28,0,0,0-1.1-1.84,4.09,4.09,0,0,0-2.3-1.31l-.38-.08a17.25,17.25,0,0,0-4.42-.32,6.35,6.35,0,0,1-1.07-.09,2.06,2.06,0,0,1-.35-.12c0-.23.47-.55,1-.62a9.26,9.26,0,0,1,6.25,1.47l.08.05h2.06V16.42h-.35v-.35H26.5l-.48.37a13.9,13.9,0,0,0-8.27.43,3.24,3.24,0,0,0-2.29,2.88,2,2,0,0,0,.79,1.48,3.23,3.23,0,0,0,1.63,1,12,12,0,0,0,2.73.47v1.44H21v.35h1c.45,0,.57.25.59.34a8.21,8.21,0,0,1-5-1.91l-.06-.06h0c-.08-.08-.17-.16-.25-.25l-.09-.1H15.66V27H16v.35h1.27c.18,0,.77-.05,1.18-1.23a15.17,15.17,0,0,0,4.27.77v2.8c-.06.94-2.14,1.24-2.86,1.26h-.3v1.39h.36v.35H29V31.38l-.24-.06h-.12V31h-.28a5,5,0,0,1-1.21-.25c-.57-.32-.67-.58-.68-.62V28.6h2.66a1.51,1.51,0,0,1,.73.32,3.52,3.52,0,0,1,.56,1l.07.21h.24v.13l.06.22h1.44V25.1H32v-.35H30.53l-.05.24c-.38,1.8-2.46,1.78-4.31,1.51.36-.1.72-.22,1.09-.36a5.06,5.06,0,0,0,2.2-1.56h4a1.43,1.43,0,0,1,.72.21,2.81,2.81,0,0,1,.38,1.53v.33h.37V27h1.59V22.8h-.31"/><path id="Fill-8" class="cls-1" d="M29.79,23.91H33.1c1.89.06,1.76,2.42,1.76,2.42h1V22.76H30.09a2.32,2.32,0,0,1-.3,1.15"/><path id="Fill-9" class="cls-1" d="M23.05,27v2.75c-.1,1.44-3.17,1.56-3.17,1.56v.78h8.48v-.78c-2.52-.22-2.53-1.51-2.53-1.51V27.93h3c1.38.2,1.91,1.92,1.91,1.92h.89V25.06h-.86c-.6,2.89-5,1.59-5.36,1.66A10.31,10.31,0,0,1,23,27"/><path id="Fill-10" class="cls-1" d="M25.69,22.24a1.13,1.13,0,0,1,.59,2,3.72,3.72,0,0,1-2.18.85s-4.44.48-7-2.32H16v3.88h1s.59.09,1-1.33a13.21,13.21,0,0,0,8.88.13c4.19-1.66,2.6-5.31-.29-5.88a16.71,16.71,0,0,0-4.73-.4,7.3,7.3,0,0,1-1.14-.09C19,18.64,20,17.5,21,17.37a9.52,9.52,0,0,1,6.46,1.51H29v-2.5H26.61l-.52.4s-4.49-1.26-8.21.37c-2.51,1-3,3.63-.26,4.42,2.41.69,3.94.4,6.38.5a7.35,7.35,0,0,1,1.69.17"/><path id="Fill-11" class="cls-1" d="M22.07,23.82H20.92v-1h4c1.29,0,1.47.75.92,1.25a3.44,3.44,0,0,1-2.86.59.93.93,0,0,0-.91-.81"/></g></g></svg>