<svg id="Layer_1" data-name="Layer 1" xmlns="http://www.w3.org/2000/svg" viewBox="0 0 48 48"><defs><style>.cls-1{fill:#fff;}.cls-2{fill:#fffffe;}.cls-3{fill:#aab3b4;}.cls-4{fill:#0a0b09;}.cls-5{fill:#c2242b;}.cls-6{fill:#e5702a;}</style></defs><title>tampa_bay_buccaneers</title><path class="cls-1" d="M41.82,9.76a9.56,9.56,0,0,0-1.69-2.4l-1.9-1.94,0,2.72c0,1.23-.08,3.38-.18,3.9s-.15.72-.22,1a6.33,6.33,0,0,1-1.67.5c-2,.32-3.89-.18-6.41-1.15-3.77-1.47-6.91-2.05-9.6-1.76a15.55,15.55,0,0,0-7.07,2.62l-.1.07a4.52,4.52,0,0,1-1.7.94L6.79,15.6,9.7,16.76,8.07,17.85v.08a15.74,15.74,0,0,0,.4,1.91L5,23.11l4.49-.82a9.46,9.46,0,0,0-3,3.76,11.3,11.3,0,0,0-.82,2.29,9.16,9.16,0,0,0-.19,1.86A33.2,33.2,0,0,0,6,35.1l0,.27,3.06-3.94a7.11,7.11,0,0,1,3.59-2.58,8.84,8.84,0,0,1,5.71.6c.29.14.62.32,1,.51a18.79,18.79,0,0,0,6.07,2.35,2.39,2.39,0,0,0-.15.54,3.1,3.1,0,0,0,0,.86l.19.7,0,.14a8.82,8.82,0,0,0-.69,1.69l0,.09-.82.74.29,1.12a3,3,0,0,0,1.66,3.21,3.18,3.18,0,0,0,1.33.29A3.46,3.46,0,0,0,28,41.6,2.94,2.94,0,0,0,29.13,41l.3-.27a5,5,0,0,0,2.94-1.06A4.5,4.5,0,0,0,34,36.46,3.68,3.68,0,0,0,33.68,35c3.22-4.73,5.55-8.16,7-11.65C43.85,16.13,42.75,11.74,41.82,9.76Z"/><polygon class="cls-1" points="29.03 29.23 27.54 26.78 25.93 24.7 28.41 26.19 28.46 26.4 29.03 29.23"/><path class="cls-1" d="M20,24.66l-.39-.92a1.66,1.66,0,0,1,.31-.12h.19l.05,1h0Z"/><g id="Team-icons_tampa_bay_buccaneers" data-name="Team-icons tampa bay buccaneers"><g id="tampa_bay_buccaneers" data-name="tampa bay buccaneers"><path id="Fill-1" class="cls-2" d="M33.08,29.7c-.32.49-2.86,4.12-3,4.36,0,0-.45-.38-.46-.4.64-.9,2.47-3.63,2.51-3.68l1-.27h0"/><path id="Fill-2" class="cls-3" d="M34.29,29.26c-.46.73-3,4.51-3.57,5.37h0l-.32-.28c.2-.29,2.52-3.73,3.2-4.8l.7-.28"/><path id="Fill-3" class="cls-2" d="M27.77,36a1.86,1.86,0,0,0-.14.84.43.43,0,0,0,0,.16h0c-.2.91-.59.93-.69.91h0c.38-.34.36-1,.75-1.79l.06-.12h0"/><path id="Fill-4" class="cls-3" d="M30,36.67a.63.63,0,0,1-.37.49,1.44,1.44,0,0,1-.46.08H29c.05-.08.11-.17.17-.28a6.45,6.45,0,0,1,.47-.69.69.69,0,0,1,.32.29.24.24,0,0,1,0,.12"/><path id="Fill-5" class="cls-3" d="M29,35.45a.86.86,0,0,1-.26-.37,9.81,9.81,0,0,0-.93,1.6.29.29,0,0,0,0,.13c.13.29.25.37.49.35,0,0,.55-.94.94-1.45-.08-.06-.17-.15-.29-.26"/><path id="Fill-6" class="cls-2" d="M28.71,35.08a1.57,1.57,0,0,1-.07-.57h0c-.15.23-.29.46-.43.7s-.4.74-.41.76a1.94,1.94,0,0,0,0,.68h0a9.81,9.81,0,0,1,.93-1.6"/><path id="Fill-7" class="cls-3" d="M31.15,36.18a2.52,2.52,0,0,0-.92-1.12c-.33-.29-1.16-.94-1.24-1.08a1.75,1.75,0,0,0-1-.79s-.09,0-.1.06,0,.08.07.1a.82.82,0,0,1,.48.24,1,1,0,0,1,.29.7.87.87,0,0,0,.35.76,3.78,3.78,0,0,0,.9.64h0c.19,0,.37-.15.34-.25a.45.45,0,0,1-.09.47,1,1,0,0,1,.38,1,1.44,1.44,0,0,1-1.44,1,2.29,2.29,0,0,1-1.12-.27l.06-.13c-.36.09-.49-.44-.49-.46-.2.91-.59.93-.69.91h0a.73.73,0,0,0,.37.44.34.34,0,0,0-.42.21.35.35,0,0,0,.22.42h0a.34.34,0,0,0,.38-.14.32.32,0,0,0-.08-.44h.11c.4.07.53-.12.53-.12V38.2a.62.62,0,0,1-.82-.17.68.68,0,0,0,.4,0c.37-.06.42-.17.45-.19h0a2.46,2.46,0,0,0,1.16.26,2.1,2.1,0,0,0,1.41-.44,1.59,1.59,0,0,0,.55-1.47"/><path id="Fill-9" class="cls-3" d="M33.28,31.89c-.77,1.17-1.51,2.26-2.11,3.13a1.77,1.77,0,0,1,.65,1.44,2.3,2.3,0,0,1-.8,1.68,2.82,2.82,0,0,1-1.78.6,2.54,2.54,0,0,1-.67-.06,1,1,0,0,1-.43.33,1.24,1.24,0,0,1-.1.2,1,1,0,0,1-.81.43,1,1,0,0,1-.53-.16,1,1,0,0,1-.43-.8h0a.92.92,0,0,1,.11-.43,5.44,5.44,0,0,0-.15-.54l.3-.26a1,1,0,0,0,.18-.41,9.39,9.39,0,0,1,.41-1.16,12,12,0,0,1,.95-1.67c0-.14-.18-.2-.28-.23a.78.78,0,0,1-.38-.23.66.66,0,0,1-.16-.6.7.7,0,0,1,.39-.52h0a.76.76,0,0,1,.47-.06,1.87,1.87,0,0,1,1.08.63c.61-.86,2-3,2.08-3a15.73,15.73,0,0,1-5.43.14,21,21,0,0,1-6.64-2.75,10.83,10.83,0,0,0-7.09-.71,9.64,9.64,0,0,0-4.75,3.36c.85-6,4.58-7,4.94-7.13a1.92,1.92,0,0,0,.11-2.7,1.84,1.84,0,0,0-.55-.41,8.26,8.26,0,0,1-1.06-.81,4.63,4.63,0,0,0,1.65-.25,5.54,5.54,0,0,1,1.06-.29A3.19,3.19,0,0,0,12.4,18a7.61,7.61,0,0,0,2.35-.56c.65-.29,1-.81.9-1s-.69-.1-.69-.1a1.32,1.32,0,0,1,.71-.44,4.12,4.12,0,0,0-2.48.7,6.77,6.77,0,0,1,.68-1l-.78.25c2.24-1.73,4.75-3.26,8.26-3.28s6.93,1.55,9.21,2.28a11,11,0,0,0,6,.73,7.83,7.83,0,0,0,3-1.11,10.13,10.13,0,0,0,.57-3.27,6.33,6.33,0,0,1,.64,2.9c0,6.08-2.94,10.52-3.88,12.13S34.73,29.7,33.28,31.89ZM39.76,9.57a12.49,12.49,0,0,1-.2,2.8c-.26,1.29-.41,1.78-.41,1.78a8.29,8.29,0,0,1-2.81,1c-2.5.41-4.76-.26-7.23-1.23s-5.77-2-8.84-1.66A13.75,13.75,0,0,0,14,14.56a6.23,6.23,0,0,1-2.31,1.27,4.61,4.61,0,0,0,1.16.3,3.38,3.38,0,0,0-.12,1s1.62-.74,1.8-.4-.57.58-1.1.72a11.25,11.25,0,0,1-1.92.11,5.12,5.12,0,0,1,.88.86,5.44,5.44,0,0,1-2.59.34s0,.51,1.08,1.34a1.91,1.91,0,0,0-.73.42,2.17,2.17,0,0,1,1.91.58.92.92,0,0,1,.23.73c0,.5-.23.69-.7,1a6.46,6.46,0,0,0-.83.42,8,8,0,0,0-2.91,3.4,10.3,10.3,0,0,0-.68,1.93A11.78,11.78,0,0,0,7,30.15c0,.35-.09,1.46-.09,1.46l.85-1.2a8.82,8.82,0,0,1,4.5-3.18,9,9,0,0,1,2.37-.29,10.33,10.33,0,0,1,4.44,1c1.41.68,3.72,2.29,6.75,2.79a14.63,14.63,0,0,0,2.29.18,16.74,16.74,0,0,0,2.34-.17c-.44.67-.87,1.29-1.28,1.87a1.71,1.71,0,0,0-1-.43,1.17,1.17,0,0,0-1,.35,1.33,1.33,0,0,0-.28,1.15,1.09,1.09,0,0,0,.62.66,7.66,7.66,0,0,0-1.28,2.85l-.45.4.16.66a1.35,1.35,0,0,0,.66,1.68,1.5,1.5,0,0,0,1,.1,1.28,1.28,0,0,0,.77-.56l.08-.13a1.31,1.31,0,0,0,.27-.19h.51a3.19,3.19,0,0,0,2.05-.7,2.78,2.78,0,0,0,1-2A2,2,0,0,0,31.69,35c3.63-5.34,6-8.77,7.5-12.26C43.18,13.47,39.77,9.6,39.76,9.57Z"/><path id="Fill-11" class="cls-4" d="M35,28.32a15.92,15.92,0,0,1-9,1.3,14.48,14.48,0,0,1-5.19-2,11.12,11.12,0,0,0-6.71-1.71,8.93,8.93,0,0,0-5.62,1.91A6,6,0,0,1,15,23.22,3.79,3.79,0,0,0,13,23a2.31,2.31,0,0,0-.41-3.23h0a2.43,2.43,0,0,0-.52-.3A10.62,10.62,0,0,0,13.82,19a10.58,10.58,0,0,1,1.36-.28,4.12,4.12,0,0,0-1.25-.51,3.12,3.12,0,0,0,2.26-1c.2-.2.74-1.22.13-1.62a2.32,2.32,0,0,0-1.68,0S18,12,24.83,13.55c3.26.73,6.93,2.63,10.31,2.65a7.76,7.76,0,0,0,5.15-1.87C40.22,17.2,39.68,21.21,35,28.32Zm-4.32,6.31h0l-.32-.28c.2-.29,2.52-3.73,3.2-4.8l.7-.28c-.43.73-2.94,4.5-3.54,5.36Zm-.12,3a2.1,2.1,0,0,1-1.41.44A2.41,2.41,0,0,1,28,37.83h0s0,.17-.42.17a.68.68,0,0,1-.4,0,.62.62,0,0,0,.82.17.69.69,0,0,0,.05.13s-.13.19-.53.12H27.4a.33.33,0,0,1,.07.45.32.32,0,0,1-.45.06.31.31,0,0,1-.09-.41h0a.33.33,0,0,1,.37-.13.73.73,0,0,1-.37-.44c.38-.34.36-1,.75-1.79l.06-.12h0a1.86,1.86,0,0,0-.14.84.43.43,0,0,0,0,.16h0s.13.55.49.46l-.06.13a2.29,2.29,0,0,0,1.12.27,1.44,1.44,0,0,0,1.44-1,1,1,0,0,0-.38-1,.45.45,0,0,0,.09-.47.32.32,0,0,1-.34.25h0a3.78,3.78,0,0,1-.9-.64.87.87,0,0,1-.35-.76,1,1,0,0,0-.29-.7.82.82,0,0,0-.48-.24.07.07,0,0,1-.07-.09h0l.1-.06A1.75,1.75,0,0,1,29,34c.08.14.91.79,1.24,1.08a2.52,2.52,0,0,1,.92,1.12,1.57,1.57,0,0,1-.56,1.45Zm-.94-1.39a.69.69,0,0,1,.32.29.24.24,0,0,1,0,.12.63.63,0,0,1-.37.49,1.44,1.44,0,0,1-.46.08H29l.16-.28a6.6,6.6,0,0,1,.5-.68Zm-1.47-1c.14-.24.28-.47.43-.7h0a1.57,1.57,0,0,0,.07.57.86.86,0,0,0,.26.37c.12.11.21.2.29.26-.39.51-.94,1.45-.94,1.45-.24,0-.36-.06-.49-.35a.29.29,0,0,1,0-.13h0a1.94,1.94,0,0,1,0-.68s.28-.56.42-.79ZM32.09,30l1-.27h0c-.32.49-2.86,4.12-3,4.36,0,0-.45-.38-.46-.4C30.22,32.76,32.05,30,32.09,30Zm8-18.81a10.13,10.13,0,0,1-.57,3.27,7.83,7.83,0,0,1-3,1.11,11,11,0,0,1-6-.73c-2.28-.73-5.7-2.3-9.21-2.28s-6,1.55-8.26,3.28l.78-.25a6.77,6.77,0,0,0-.68,1,4.12,4.12,0,0,1,2.48-.7,1.32,1.32,0,0,0-.71.44s.58-.13.69.1-.25.75-.9,1A7.75,7.75,0,0,1,12.4,18a3.14,3.14,0,0,1,1.11.63,5.54,5.54,0,0,0-1.06.29,4.63,4.63,0,0,1-1.65.25,8.26,8.26,0,0,0,1.06.81,1.91,1.91,0,0,1,.85,2.56,1.84,1.84,0,0,1-.41.55c-.36.1-4.09,1.11-4.94,7.13a9.64,9.64,0,0,1,4.75-3.36,10.83,10.83,0,0,1,7.09.71c1.45.71,3.71,2.27,6.64,2.75a15.73,15.73,0,0,0,5.43-.14c0,.05-1.47,2.18-2.08,3a1.87,1.87,0,0,0-1.08-.63.76.76,0,0,0-.47.06h0a.7.7,0,0,0-.39.52.66.66,0,0,0,.16.6.78.78,0,0,0,.38.23.31.31,0,0,1,.28.23,12,12,0,0,0-.95,1.67A9.1,9.1,0,0,0,26.71,37a1,1,0,0,1-.18.41l-.3.26s.11.46.15.54a.92.92,0,0,0-.11.43h0a1,1,0,0,0,.43.8,1,1,0,0,0,.53.16,1,1,0,0,0,.81-.43,1.24,1.24,0,0,0,.1-.2,1,1,0,0,0,.43-.33,2.54,2.54,0,0,1,.67.06A2.86,2.86,0,0,0,31,38.1a2.3,2.3,0,0,0,.8-1.68A1.76,1.76,0,0,0,31.17,35c.6-.87,1.34-2,2.11-3.13,1.45-2.19,2.63-4.1,3.53-5.69s3.89-6.05,3.88-12.13a6.25,6.25,0,0,0-.64-2.88Z"/><path id="Fill-12" class="cls-5" d="M32.63,24.42a11.37,11.37,0,0,1-4.22,1.51c0,.11-.2.23-.2.23a4.53,4.53,0,0,1,.91.58c.65.49.47.47.68.61a.38.38,0,0,0,.32.09,1.08,1.08,0,0,1,.07.31c.09.09.51.49.12.9a.61.61,0,0,1-.85,0,.55.55,0,0,1-.31,0,1.57,1.57,0,0,1-1.67,0,1.15,1.15,0,0,1-.6-1.21,4.07,4.07,0,0,1-3.13.32,3.65,3.65,0,0,1-1.41-.88,4.41,4.41,0,0,1-.82-1.14l-.08-.16a1.15,1.15,0,0,1-1.22.63,1.57,1.57,0,0,1-1.36-1A.75.75,0,0,1,18.6,25a.62.62,0,0,1-.66-.53c-.06-.57.52-.64.64-.65a.61.61,0,0,1,.24-.21s.07.1.32.12a5.46,5.46,0,0,1,.9-.07,4.37,4.37,0,0,1,1.08.08.51.51,0,0,1,0-.3,11.28,11.28,0,0,1-2.45-3.75c-.61-1.92-.42-2.63.32-4.66a14.41,14.41,0,0,0,2.23,5.61A17,17,0,0,0,24,23.48h0a1.55,1.55,0,0,1-.34-.63c-.15-.59-.4-1.14-.51-1.58A3.43,3.43,0,0,1,23.33,20a2.35,2.35,0,0,1-.18-1.43.9.9,0,0,0,.33-.25,6.06,6.06,0,0,0,.2-1.4A2.49,2.49,0,0,1,25.33,15a4.52,4.52,0,0,1,2.65.14,4.33,4.33,0,0,1,2.2,1.48,2.49,2.49,0,0,1,.15,2.54c-.35.65-.69,1-.68,1.24a1.12,1.12,0,0,0,.1.4,2.3,2.3,0,0,1-1,1,3.35,3.35,0,0,1-.68,1.13c-.36.28-.89.57-1.37.95a1.37,1.37,0,0,1-.63.3h0a17.06,17.06,0,0,0,3.9-.55,14.22,14.22,0,0,0,5.17-3.13C34.55,22.57,34.27,23.25,32.63,24.42Zm2.51-8.22c-3.38,0-7-1.92-10.31-2.65-6.86-1.53-10.18,2-10.19,2s1.12-.4,1.68,0,.07,1.42-.13,1.62a3.12,3.12,0,0,1-2.26,1,4.12,4.12,0,0,1,1.25.51,10.58,10.58,0,0,0-1.36.28,10.22,10.22,0,0,1-1.62.44,2.31,2.31,0,0,1,1.29,3,2.25,2.25,0,0,1-.35.6,3.8,3.8,0,0,1,2,.27,6,6,0,0,0-6.54,4.6A9,9,0,0,1,14.22,26a11.12,11.12,0,0,1,6.71,1.71,14.48,14.48,0,0,0,5.19,2,15.92,15.92,0,0,0,9-1.3c4.64-7.11,5.18-11.12,5.25-14A7.8,7.8,0,0,1,35.14,16.2Z"/><path id="Fill-13" class="cls-4" d="M26.59,20.69v-.12c0-.12-.05-.17-.06-.37a.81.81,0,0,1,0-.31.19.19,0,0,0-.12-.24h0a.22.22,0,0,0-.24.12A.66.66,0,0,1,26,20c-.12.15-.22.14-.26.26v.12a.19.19,0,0,0,.05.19l.09.06a.22.22,0,0,0,.26-.12h0a.2.2,0,0,0,.13.25h.11a.22.22,0,0,0,.16-.12"/><path id="Fill-14" class="cls-4" d="M27.08,19.51c0,.13,0,.63.26.77h0a1.67,1.67,0,0,0,.9.19h.08a1,1,0,0,0,.27-.17,1.58,1.58,0,0,0,.24-.39,1.34,1.34,0,0,0,.07-.18s.05-.22.14-.25h0a2,2,0,0,0-.6,0h-.09a2.2,2.2,0,0,1-.92.05.76.76,0,0,1-.19-.12h0a1,1,0,0,1-.13-.16h0v.35"/><path id="Fill-15" class="cls-4" d="M24.5,17.93c.06.08,0,.28,0,.28a1.21,1.21,0,0,0-.05.18,1.06,1.06,0,0,0,0,.66s.06.1,0,.11h0l.06.07a1.71,1.71,0,0,0,.83.38h0c.25,0,.59-.34.67-.45l.2-.29-.21.05h-.22a2,2,0,0,1-.71-.59L25,18.24a2.41,2.41,0,0,0-.5-.33h0"/><path id="Fill-16" class="cls-3" d="M25.12,23.64h0a1.89,1.89,0,0,0,.41.1,1.69,1.69,0,0,0,.45,0,2.47,2.47,0,0,0,.87-.51l.82-.55A1.1,1.1,0,0,0,28,22.3c.13-.22.34-.72.34-.72H28.1a4.49,4.49,0,0,1-.37.59h0a.39.39,0,0,1,.23.24,2.16,2.16,0,0,1-.59.39,9.05,9.05,0,0,0-1,.59.77.77,0,0,1-.3.11,1.43,1.43,0,0,0-.7-.43,1.25,1.25,0,0,0-.85-.07,1,1,0,0,1-.19-.3,8.54,8.54,0,0,0-.46-1.08,2.25,2.25,0,0,1-.23-.66.56.56,0,0,1,.36-.05.09.09,0,0,1,0-.07c0-.18.06-.56.06-.62h0l-.25-.13h0c0,.06-.13.55-.16.78a1.15,1.15,0,0,0,.06.52c.05.14.27.77.32.94a.09.09,0,0,1,0,.07,2.13,2.13,0,0,0,.37.86,1.55,1.55,0,0,0,.73.45"/><path id="Fill-17" class="cls-3" d="M25.87,18.1a2.53,2.53,0,0,0,.87.72,2.82,2.82,0,0,0,1.12-.05,4.82,4.82,0,0,1,.93,0c-.23-.29-1-.2-1.44-.18a.92.92,0,0,1-.52,0,1.07,1.07,0,0,1-.44-.28c-.33-.28-.9-.82-1.26-.73a5,5,0,0,1,.74.56"/><path id="Fill-18" class="cls-3" d="M24.51,19.44s-.16-.17,0-.26h0a.44.44,0,0,0-.08-.11.84.84,0,0,1,0-.66,1.42,1.42,0,0,1,.08-.18s.12-.2,0-.28h0a2.66,2.66,0,0,0-.42.8.58.58,0,0,0,.34.73"/><path id="Fill-19" class="cls-3" d="M25.37,19.61s0,.09-.18.21a.77.77,0,0,0,.52,0c.22-.12.51-.67.88-.55s.27.75.38,1a.79.79,0,0,0,.39.33c-.07-.21,0-.27,0-.27h0c-.22-.14-.26-.64-.26-.77v-.35a1.07,1.07,0,0,1-.85-.29s-.12.19-.2.29-.42.48-.67.45"/><path id="Fill-20" class="cls-3" d="M29.05,19.46c-.09,0-.14.25-.14.25a1.34,1.34,0,0,1-.07.18,1.58,1.58,0,0,1-.24.39,1,1,0,0,1-.27.17h0c.07.16-.14.23-.14.23a.71.71,0,0,0,.65-.43,3.41,3.41,0,0,0,.23-.83h0"/><path id="Fill-21" class="cls-3" d="M24.07,19.94a3.11,3.11,0,0,1,.41.2,1,1,0,0,1,.51.48h0a.28.28,0,0,1,0,.18h0a.36.36,0,0,0-.07-.1h0l-.15-.14h0a1.19,1.19,0,0,1-.11.26,1.34,1.34,0,0,0-.12.24h0a.53.53,0,0,0,0,.46s.09,0,.2-.33h0v-.07h0c0-.05.07-.05.12,0h0l.07-.22a.7.7,0,0,0-.16-.65,3.08,3.08,0,0,0-.91-.49,1.11,1.11,0,0,1-.35-.89v.65c.06.19.06.31.48.5"/><path id="Fill-22" class="cls-3" d="M27,21.77h.06v.05h-.13c-.11.32-.08.37,0,.39a.59.59,0,0,0,.34-.35V21.6a1.29,1.29,0,0,1,.08-.28h0a.76.76,0,0,0-.39.08.58.58,0,0,0-.09.25l.11.05"/><path id="Fill-23" class="cls-3" d="M28.47,21.2a3.37,3.37,0,0,0-1-.15.7.7,0,0,0-.47.33h0a.78.78,0,0,1,.69-.15,4.35,4.35,0,0,1,.52.1c.45.11.52,0,.68-.11a1.36,1.36,0,0,0,.34-.41h0a1,1,0,0,1-.74.4"/><path id="Fill-24" class="cls-3" d="M26.7,20.29h0a.57.57,0,0,1,0-.26.32.32,0,0,0-.22-.37.2.2,0,0,1,.13.24.81.81,0,0,0,0,.31c0,.2.1.25.06.37v.12a.26.26,0,0,1-.17.12h0a.25.25,0,0,1-.16.14h0a.34.34,0,0,0,.44-.16v-.12a.26.26,0,0,0,0-.21.48.48,0,0,1-.05-.17"/><path id="Fill-25" class="cls-3" d="M25.73,20.4v-.12c0-.12.14-.11.26-.26a.56.56,0,0,0,.17-.26.22.22,0,0,1,.24-.12.3.3,0,0,0-.38.17.54.54,0,0,1-.15.22h0l-.14.11a.36.36,0,0,0-.14.16v.11a.31.31,0,0,0,.22.38h0a.26.26,0,0,1,0-.21h0a.21.21,0,0,1,0-.19"/><path id="Fill-26" class="cls-2" d="M23.62,20.89a2.25,2.25,0,0,0,.23.66,8.54,8.54,0,0,1,.46,1.08,1,1,0,0,0,.19.3,1.25,1.25,0,0,1,.85.07,1.43,1.43,0,0,1,.7.43.77.77,0,0,0,.3-.11,9.05,9.05,0,0,1,1-.59,2.16,2.16,0,0,0,.59-.39c0-.11-.18-.21-.23-.24a.49.49,0,0,0-.23.08,2.49,2.49,0,0,1-.69.6c0-.2-.1-.3-.13-.29s-.06.08-.07.1-.07.15-.09.21,0,.07,0,.07h-.17c.06-.1.1-.2.15-.3a.08.08,0,0,0,0-.09H26.3a.1.1,0,0,0-.11.05v0l-.07.16h0a.29.29,0,0,0,0,.13h-.23a.09.09,0,0,0,0-.07h0l.13-.31v-.1a.79.79,0,0,1-.22-.06c-.05,0-.07,0-.08.05v.09a2.25,2.25,0,0,1-.08.24h0a.17.17,0,0,0,0,.1h-.2v-.06a2.34,2.34,0,0,1,.09-.38.14.14,0,0,0,0-.09l-.18-.07a.06.06,0,0,0-.08,0h0a.57.57,0,0,1-.07.33.24.24,0,0,0,0,.12l-.2-.14-.1-.06.06-.08.09-.22h0A.11.11,0,0,0,25,22h0l-.17-.08h-.08a1,1,0,0,1-.1.27.14.14,0,0,0,0,.09.32.32,0,0,1-.15-.13.5.5,0,0,0,.06-.24v-.23a.45.45,0,0,0-.17.11.31.31,0,0,0-.05.1h0a2.54,2.54,0,0,1-.19-.9.57.57,0,0,0-.13-.21.55.55,0,0,0-.36,0"/><path id="Fill-27" class="cls-2" d="M26.46,19.65l.14.05-.14-.05"/><path id="Fill-28" class="cls-3" d="M31.65,23.93h0a11.36,11.36,0,0,1-4.56,1.27,1.9,1.9,0,0,1,.23.39,12.11,12.11,0,0,0,2.54-.4,8.24,8.24,0,0,0,1.53-.56,6.88,6.88,0,0,0,1.4-.85,7.74,7.74,0,0,0,.78-.73,4,4,0,0,0,.79-1.27h0A5,5,0,0,1,31.65,24"/><path id="Fill-29" class="cls-2" d="M26.61,24.63c.11.11.21.23.3.34h.33a15.19,15.19,0,0,0,1.51-.19,15.37,15.37,0,0,0,2.6-.71l.3-.12a5,5,0,0,0,2.71-2.18,2.11,2.11,0,0,1-.23.19,1.56,1.56,0,0,1-.2.16,11.65,11.65,0,0,1-5.3,2.31,14.92,14.92,0,0,1-2,.22"/><path id="Fill-30" class="cls-5" d="M27,26.71a3.75,3.75,0,0,1-5.11-1.47L21.77,25a.25.25,0,0,1,.13-.32.4.4,0,0,0-.2.09h0a3.27,3.27,0,0,0,2.19,2.59c1.51.51,3.15-.3,3.3-.74v-.06a.42.42,0,0,0-.11-.18.25.25,0,0,1-.06.33"/><path id="Fill-31" class="cls-6" d="M25.87,25.62v.06l-.16-.07c0,.11-.05.23-.08.34l-.23-.13a1.67,1.67,0,0,1,.08-.32l-.26-.12a.45.45,0,0,1-.08.31l-.24-.1a1.67,1.67,0,0,1,.08-.3l-.26-.1-.09.29-.25-.08a1,1,0,0,1,.1-.29L24.22,25c0,.1-.08.19-.11.29l-.26-.06A1.14,1.14,0,0,1,24,25l-.27-.07a1.69,1.69,0,0,0-.13.31h-.26a1.79,1.79,0,0,1,.13-.32H23.3v-.06a8.23,8.23,0,0,0-1.3-.23,4.59,4.59,0,0,1,1.48,0h.15l.14-.18H24l-.13.18.26.06a1.28,1.28,0,0,0,.11-.2l.22.06-.09.2.25.07a1.8,1.8,0,0,1,.08-.21l.2.07-.06.21.24.1a.34.34,0,0,1,.05-.22l.2.09v.22l.24.11V25l.21.12a.81.81,0,0,1,0,.22l.13.07h0A4.88,4.88,0,0,1,27,26.3,8.49,8.49,0,0,0,25.87,25.62ZM25,24a3.45,3.45,0,0,0-3.24.64v.06h0a.4.4,0,0,1,.2-.09.25.25,0,0,0-.13.32,3.75,3.75,0,0,0,5,1.88h0l.19-.09a.25.25,0,0,0,.06-.33.42.42,0,0,1,.11.18,1.05,1.05,0,0,0-.07-.43A3.65,3.65,0,0,0,25,24Z"/><path id="Fill-32" class="cls-4" d="M22,24.73a3.58,3.58,0,0,1,1.36.33l.12-.39a2,2,0,0,0-1.48.06"/><path id="Fill-33" class="cls-4" d="M25.87,25.43v.19a8.83,8.83,0,0,1,1.13.7,4.88,4.88,0,0,0-1.13-.89"/><path id="Fill-34" class="cls-2" d="M25.87,25.43h0l-.13-.07a.81.81,0,0,0,0-.22L25.53,25v.22l-.24-.11v-.22l-.2-.09A.4.4,0,0,1,25,25l-.24-.1.06-.21-.2-.07a1.8,1.8,0,0,0-.08.21l-.25-.07.09-.2-.22-.06a1.28,1.28,0,0,1-.11.2l-.26-.06.13-.18h-.24l-.14.18h-.15l-.12.16v.06h.17a1.79,1.79,0,0,0-.13.32h.26a1.69,1.69,0,0,1,.13-.31L24,25a1.48,1.48,0,0,0-.12.29l.26.06a1,1,0,0,1,.11-.29l.26.08a1,1,0,0,1-.1.29l.25.08.09-.29.26.1a1.11,1.11,0,0,1-.08.3l.24.1a1.77,1.77,0,0,1,.08-.31l.26.12a1.16,1.16,0,0,1-.08.32l.23.13c0-.11.06-.23.08-.34l.16.07v-.25"/><path id="Fill-35" class="cls-2" d="M19.75,20l.07.14.2.32a10.75,10.75,0,0,0,1.62,2s.88.87,1.25,1.2a3.63,3.63,0,0,1,.45-.1,13.23,13.23,0,0,1-1.49-1.41,11.52,11.52,0,0,1-3-5.57,5.89,5.89,0,0,0,.87,3.4"/><path id="Fill-36" class="cls-3" d="M22,23.67a1.31,1.31,0,0,0,.25.22l.41-.17a11.2,11.2,0,0,1-2.87-3.78h0a5.89,5.89,0,0,1-.87-3.4h0a3,3,0,0,0-.14.84,5.29,5.29,0,0,0,.12,1.43,6.72,6.72,0,0,0,.49,1.43,9,9,0,0,0,.77,1.35,11.53,11.53,0,0,0,1.24,1.46c.19.19.39.38.6.56"/><path id="Fill-37" class="cls-3" d="M20.25,20.46l-.5-.5.5.5"/><path id="Fill-38" class="cls-3" d="M19.52,24.47a.29.29,0,0,0,0,.13.33.33,0,0,0,0,.14,4.9,4.9,0,0,1,1,.19.58.58,0,0,1,.06-.29,1.34,1.34,0,0,1,.07-.18h0a4.74,4.74,0,0,0-1.19,0"/><path id="Fill-39" class="cls-2" d="M19.52,24.6a4.74,4.74,0,0,1,1.19,0h0a.68.68,0,0,1,.35-.36,5,5,0,0,0-.56-.09h-.43a.75.75,0,0,0-.34.18.69.69,0,0,0-.21.32"/><path id="Fill-40" class="cls-2" d="M19.37,24.6v-.05a.52.52,0,0,1,.2-.26h0a1,1,0,0,1,.46-.18h-.51a2.76,2.76,0,0,1-.4.06H19l-.11-.05a.53.53,0,0,0,.5.45"/><path id="Fill-41" class="cls-3" d="M21.53,23.56a.51.51,0,0,1,0,.3.56.56,0,0,1-.3.32.57.57,0,0,0-.31.37,2.2,2.2,0,0,0-.12.62.19.19,0,0,0,.22.15.23.23,0,0,1-.27,0c-.12.23-.3.32-.64.26a1.17,1.17,0,0,1-.86-.95h.18a.21.21,0,0,1,0-.11v-.08a.49.49,0,0,1-.5-.33.37.37,0,0,0-.14.29.19.19,0,0,0-.16-.15.2.2,0,0,0-.21.16.18.18,0,0,0,.15.21h0a.18.18,0,0,0,.21-.15h0v.07a.37.37,0,0,0,.07.14.23.23,0,0,0,.12.1h0a.39.39,0,0,1-.11-.47.51.51,0,0,0,.22.42,1.36,1.36,0,0,0,.86,1c.73.23,1-.12,1.07-.25l.11-.24c.06-.18.22-.88.28-1a1,1,0,0,0,.16-.71h0"/><path id="Fill-42" class="cls-2" d="M28,26.53a.63.63,0,0,1,.12.42,6.09,6.09,0,0,1,.95.72.81.81,0,0,0,0-.31,1,1,0,0,0-.2-.31h0l-.25-.17-.35-.21-.17-.1h0"/><path id="Fill-43" class="cls-2" d="M29.17,27.45a.53.53,0,0,1,0,.25.09.09,0,0,1,0,.07h.12l.13.05h.09a.62.62,0,0,0,.26-.09h-.1l-.11-.07-.21-.19-.13-.13-.22-.2L28.85,27a2.19,2.19,0,0,1,.29.39"/><path id="Fill-44" class="cls-3" d="M29.45,27.89l-.13-.05H29.2v.08a.21.21,0,0,1-.1.06h0l.14.11a1.15,1.15,0,0,1-1.26.24c-.31-.15-.4-.34-.36-.59a.23.23,0,0,1-.19-.2h0a.21.21,0,0,0,.26,0,.72.72,0,0,0,.15-.27c.05-.1.08-.2.13-.3v-.12a.57.57,0,0,0-.06-.36.54.54,0,0,1,0-.43.49.49,0,0,1,.17-.25v-.07H28a1,1,0,0,0-.3.66c0,.11-.29.76-.35.94a1.11,1.11,0,0,0-.07.26c0,.14,0,.58.71.84a1.37,1.37,0,0,0,1.29-.28.5.5,0,0,0,.38-.15l.05-.05a.38.38,0,0,1-.31.3h-.06v.06h.06a.36.36,0,0,0,.24-.09h0a.18.18,0,0,0,.08.24.19.19,0,0,0,.25-.06.19.19,0,0,0-.06-.25h0a.19.19,0,0,0-.18,0,.5.5,0,0,0,.06-.24v-.05h0a.62.62,0,0,1-.26.09h-.09"/><path id="Fill-45" class="cls-3" d="M28.11,27.1l-.08.21a7.1,7.1,0,0,1,.93.52.15.15,0,0,0,.09-.06.17.17,0,0,0,0-.1A5.8,5.8,0,0,0,28.1,27v.15"/><path id="Fill-46" class="cls-3" d="M27.08,15.31c-2-.34-2.39,1.17-2.4,1.53s0,.45,0,.56a3.25,3.25,0,0,1-.61.17,6,6,0,0,1,.09-.84,2.13,2.13,0,0,1,2.16-1.5h.74"/><path id="Fill-47" class="cls-4" d="M34.35,21.79a4,4,0,0,1-.79,1.27,7.74,7.74,0,0,1-.78.73,6.88,6.88,0,0,1-1.4.85,8.24,8.24,0,0,1-1.53.56,12.11,12.11,0,0,1-2.54.4,1.9,1.9,0,0,0-.23-.39,11.36,11.36,0,0,0,4.56-1.27h0l-.3.12a15.37,15.37,0,0,1-2.6.71,15.19,15.19,0,0,1-1.51.19H26.9c-.09-.11-.19-.23-.3-.34a14.92,14.92,0,0,0,2-.22,11.65,11.65,0,0,0,5.3-2.31,1.56,1.56,0,0,0,.2-.16,2.11,2.11,0,0,0,.23-.19h0Zm-6.12,4.86.35.21.25.17h0a1,1,0,0,1,.2.31.81.81,0,0,1,0,.31.17.17,0,0,1,0,.1.15.15,0,0,1-.09.06,7.1,7.1,0,0,0-.93-.52l.08-.21v-.15a.63.63,0,0,0-.12-.42h0Zm.8.53.22.2.13.13.21.19.11.07h.1v.05a.5.5,0,0,1-.06.24.18.18,0,0,1,.2.3h0a.19.19,0,0,1-.25-.05.19.19,0,0,1,0-.18h0a.36.36,0,0,1-.24.09.06.06,0,0,1-.06,0v-.06h.06a.38.38,0,0,0,.31-.3l-.05.05a.5.5,0,0,1-.38.15,1.37,1.37,0,0,1-1.29.28c-.72-.26-.73-.7-.71-.84a1.11,1.11,0,0,1,.07-.26c.06-.18.35-.83.35-.94a1,1,0,0,1,.3-.66h.06c.06,0,0,0,0,.07a.49.49,0,0,0-.17.25.54.54,0,0,0,0,.43.51.51,0,0,1,.06.36v.12a.78.78,0,0,1-.13.3.74.74,0,0,1-.16.27.18.18,0,0,1-.25,0h0a.23.23,0,0,0,.19.2.56.56,0,0,0,.36.59A1.17,1.17,0,0,0,29.21,28a.53.53,0,0,0-.14-.12h0a.21.21,0,0,0,.1-.06v-.08h0a.09.09,0,0,0,0-.07.53.53,0,0,0,0-.25,2.19,2.19,0,0,0-.29-.39Zm-1.84-.62v.06c-.15.44-1.79,1.25-3.3.74s-2.33-2.19-2.19-2.59h0v-.06A3.47,3.47,0,0,1,25,24a3.66,3.66,0,0,1,2.14,2.1A1,1,0,0,1,27.19,26.56Zm-5.77-2.32c-.06.09-.22.79-.28,1l-.11.24c-.06.13-.34.48-1.07.25a1.36,1.36,0,0,1-.86-1,.51.51,0,0,1-.22-.42.39.39,0,0,0,.11.47h0a.23.23,0,0,1-.12-.1.37.37,0,0,1-.07-.14v-.07h0a.18.18,0,0,1-.21.15h0a.18.18,0,0,1-.16-.2h0a.2.2,0,0,1,.21-.16.19.19,0,0,1,.16.15.37.37,0,0,1,.14-.29h1.18a1.43,1.43,0,0,0-.46.13h0a.52.52,0,0,0-.2.19h0v.08a.21.21,0,0,0,0,.11h-.18a1.17,1.17,0,0,0,.86.95c.34.06.52,0,.64-.26a.22.22,0,0,0,.27,0,.19.19,0,0,1-.22-.15,2.2,2.2,0,0,1,.12-.62.57.57,0,0,1,.31-.37.56.56,0,0,0,.3-.32.51.51,0,0,0,0-.3m0-.07h0a1,1,0,0,1-.14.75Zm-1.32.62h.26a5.32,5.32,0,0,1,.56.06.75.75,0,0,0-.35.26.61.61,0,0,0-.07.14.79.79,0,0,1-.06.22,5.62,5.62,0,0,0-1-.15.17.17,0,0,1,0-.1.17.17,0,0,1,0-.1.47.47,0,0,1,.21-.23.83.83,0,0,1,.34-.13Zm-.13-2.46a9,9,0,0,1-.77-1.35,6.61,6.61,0,0,1-.49-1.44,4.82,4.82,0,0,1-.12-1.42,3,3,0,0,1,.14-.84h0a11.52,11.52,0,0,0,3,5.57,13.23,13.23,0,0,0,1.49,1.41,3.63,3.63,0,0,0-.45.1c-.37-.33-1.24-1.19-1.25-1.2a10.75,10.75,0,0,1-1.62-2l-.2-.32c0-.05-.05-.1-.07-.14h0a10.94,10.94,0,0,0,2.87,3.77l-.41.17a1.31,1.31,0,0,1-.25-.22c-.21-.18-.41-.37-.6-.56A11,11,0,0,1,20.11,21.65Zm3.91.68a.09.09,0,0,0,0-.07c-.05-.17-.27-.8-.32-.94a1,1,0,0,1-.06-.43V20.8a4.36,4.36,0,0,1,.16-.8h0l.25.13h0c0,.06-.05.44-.06.62a.09.09,0,0,0,0,.07.57.57,0,0,1,.13.21,2.54,2.54,0,0,0,.19.9h0a.31.31,0,0,1,.05-.1c0-.06.12-.14.17-.11s0,.13,0,.23a.5.5,0,0,1-.06.24.32.32,0,0,0,.15.13.14.14,0,0,1,0-.09.74.74,0,0,1,.1-.27.06.06,0,0,1,.08,0H25a.11.11,0,0,1,0,.13h0l-.09.22s0,.08-.06.08l.1.06.13.05a.24.24,0,0,1,0-.12.57.57,0,0,1,.07-.33.06.06,0,0,1,.06-.06h0l.18.07a.14.14,0,0,1,0,.09,1.24,1.24,0,0,1-.09.38v.06h.2a.17.17,0,0,1,0-.1h0l.08-.24V22.2s0-.06.08,0h.22c.05,0,0,.1,0,.1l-.13.31a.09.09,0,0,1,0,.07H26a.29.29,0,0,1,0-.13h0l.07-.16v-.05a.1.1,0,0,1,.11-.05h.15a.07.07,0,0,1,.07.07h0s-.09.2-.15.3h.17v-.07c0-.07.09-.19.09-.21s0-.1.07-.1.16.09.13.29a2.49,2.49,0,0,0,.69-.6.49.49,0,0,1,.23-.08h0A4.49,4.49,0,0,0,28,21.3h.27s-.21.5-.34.72a1.19,1.19,0,0,1-.36.38l-.82.55a2.47,2.47,0,0,1-.87.51,1.69,1.69,0,0,1-.45,0,1.89,1.89,0,0,1-.41-.1h0a1.55,1.55,0,0,1-.73-.45A2.25,2.25,0,0,1,24,22.3Zm-.45-3v-.57A1.15,1.15,0,0,0,24,18.4a4.19,4.19,0,0,0,.23-.68,1.76,1.76,0,0,0,.93-.58,1.41,1.41,0,0,1-.42.26,3.25,3.25,0,0,1-.61.17,6,6,0,0,1,.09-.84,2.13,2.13,0,0,1,2.16-1.5h.74c.37.08.67.17.75.19h0l.16.05h.21l.13.06h.08c2.1,1,1.64,2.61,1.52,2.92a4.53,4.53,0,0,1-.43.7,3.68,3.68,0,0,1-.37-.51,1.56,1.56,0,0,1-.15-.41,1.85,1.85,0,0,0,.39,1,3.41,3.41,0,0,0-.23.68,1.19,1.19,0,0,0,.06.53l-.06.09h0a1.36,1.36,0,0,1-.34.41c-.16.12-.23.21-.68.11a4.35,4.35,0,0,0-.52-.1.81.81,0,0,0-.7.15h0a.14.14,0,0,0,0,.09.57.57,0,0,1,.34-.08h0a2.86,2.86,0,0,0-.07.28,1.13,1.13,0,0,1,0,.26.57.57,0,0,1-.31.35,3.59,3.59,0,0,1,.05-.39H27l-.11-.05h-.08v.06h0v.06l-.06.2h0a.07.07,0,0,1-.08.05h-.26a.13.13,0,0,1-.06-.1h0a.86.86,0,0,0,.06-.23.58.58,0,0,1,.05-.14l-.06-.05h-.07v.05a1,1,0,0,1,0,.16,1.18,1.18,0,0,1-.07.2c0,.05,0,.05-.06.05H26a.09.09,0,0,1-.06-.1,1.43,1.43,0,0,0,.09-.27h0a.08.08,0,0,1,.07-.08l-.1-.05h-.13a.17.17,0,0,1,0,.1s-.09.33-.09.34v.05c-.05.05-.08,0-.08,0h0l-.18-.05s-.09,0-.06-.1l.08-.29h0a.17.17,0,0,0,0-.1.06.06,0,0,0,0-.08h0a.27.27,0,0,0-.07.08v.09h0a1.8,1.8,0,0,0-.08.21.09.09,0,0,1-.11.06H25a.07.07,0,0,1-.05-.08h0l.08-.2a.21.21,0,0,1,0-.11h0L25,21.24h-.17v.07h0c-.11.31-.17.33-.2.33a.53.53,0,0,1,0-.46h0a1.34,1.34,0,0,1,.12-.24,1.19,1.19,0,0,0,.11-.26h0l.15.14h0a.36.36,0,0,1,.07.1h0a.61.61,0,0,0,0-.19h0a1,1,0,0,0-.51-.48,3.11,3.11,0,0,0-.41-.2c-.42-.19-.42-.31-.48-.5s0-.15,0-.18ZM30,23.64a17.06,17.06,0,0,1-3.9.55h0a1.37,1.37,0,0,0,.63-.3c.48-.38,1-.67,1.37-.95a3.35,3.35,0,0,0,.68-1.13,2.3,2.3,0,0,0,1-1,1.12,1.12,0,0,1-.1-.4c0-.22.33-.59.68-1.24a2.49,2.49,0,0,0-.15-2.54A4.44,4.44,0,0,0,28,15.08a4.52,4.52,0,0,0-2.65-.14,2.47,2.47,0,0,0-1.65,1.93,6.06,6.06,0,0,1-.2,1.4.9.9,0,0,1-.33.25A2.35,2.35,0,0,0,23.33,20a3.48,3.48,0,0,0-.14,1.32c.11.44.36,1,.51,1.58a1.55,1.55,0,0,0,.34.63h0a16.8,16.8,0,0,1-2.79-2.8A14.57,14.57,0,0,1,19,15.07c-.74,2-.93,2.74-.32,4.66a11.28,11.28,0,0,0,2.45,3.75.51.51,0,0,0,0,.3A4.74,4.74,0,0,0,20,23.7a5.46,5.46,0,0,0-.9.07c-.25,0-.32-.12-.32-.12a.61.61,0,0,0-.24.21c-.12,0-.7.08-.64.65a.62.62,0,0,0,.66.53.56.56,0,0,0,.26.17,1.57,1.57,0,0,0,1.36,1,1.15,1.15,0,0,0,1.22-.63l.08.16a4.41,4.41,0,0,0,.82,1.14,3.65,3.65,0,0,0,1.41.88,4.07,4.07,0,0,0,3.13-.32,1.15,1.15,0,0,0,.6,1.21,1.59,1.59,0,0,0,1.67.05.55.55,0,0,0,.31,0,.61.61,0,0,0,.85,0,.59.59,0,0,0,0-.83l-.09-.07a1.08,1.08,0,0,0-.07-.31.42.42,0,0,1-.32-.09c-.21-.14,0-.12-.68-.61a4.53,4.53,0,0,0-.91-.58s.17-.12.2-.23a11.37,11.37,0,0,0,4.22-1.51c1.64-1.17,1.92-1.85,2.55-3.91A14.29,14.29,0,0,1,30,23.64Z"/><path id="Fill-48" class="cls-3" d="M30,18.68a4.53,4.53,0,0,1-.43.7,3.68,3.68,0,0,1-.37-.51c.06-.09.18-.22.32-.41a1.71,1.71,0,0,0,.27-.93,1.86,1.86,0,0,0-1.05-1.61h0l-.3-.17h.08c2.1,1,1.64,2.61,1.52,2.92"/><path id="Fill-49" class="cls-2" d="M29.08,19.45h0a3.33,3.33,0,0,1-.23.82c-.15.24-.29.45-.65.44,0,0,.21-.07.14-.23h-.08a1.67,1.67,0,0,1-.9-.19h0s-.05.06,0,.27a.79.79,0,0,1-.39-.33c-.11-.23,0-.85-.38-1s-.66.43-.88.55a.77.77,0,0,1-.52,0c.18-.12.18-.21.18-.21h0a1.71,1.71,0,0,1-.83-.38l-.06-.07h0c-.15.09,0,.25,0,.26-.3-.2-.28-.45-.26-.73a3.26,3.26,0,0,1,.32-.8h0a2.41,2.41,0,0,1,.5.33l.06.07a2,2,0,0,0,.71.59.81.81,0,0,0,.22,0h0l.21-.05a1.07,1.07,0,0,0,.85.29h0a1,1,0,0,0,.13.16h0a.45.45,0,0,0,.19.11,2,2,0,0,0,.92,0h.09A1.86,1.86,0,0,1,29.08,19.45Zm-2.36,1.22v.11a.32.32,0,0,1-.39.18h0a.23.23,0,0,0,.15-.14h-.1a.19.19,0,0,1-.14-.24h0a.22.22,0,0,1-.26.12l-.09-.06h0a.26.26,0,0,0,0,.21.31.31,0,0,1-.23-.36v-.13a.36.36,0,0,1,.14-.16l.14-.11h0a.54.54,0,0,0,.15-.22.3.3,0,0,1,.38-.17h0a.31.31,0,0,1,.2.37,1.13,1.13,0,0,0,0,.26h0a.49.49,0,0,0,0,.17A.24.24,0,0,1,26.72,20.67Zm-.33-2.4a1.07,1.07,0,0,0,.44.28,1.14,1.14,0,0,0,.52,0c.43,0,1.21-.11,1.44.18a4.82,4.82,0,0,0-.93,0,2.82,2.82,0,0,1-1.12.05,2.53,2.53,0,0,1-.87-.72,5,5,0,0,0-.74-.56C25.49,17.45,26.06,18,26.39,18.27Zm3.13.19a1.71,1.71,0,0,0,.27-.93,1.86,1.86,0,0,0-1.05-1.61h0l-.3-.17-.13-.06H28.1l-.16,0h0c-.08,0-.38-.11-.75-.19-2-.34-2.39,1.17-2.4,1.53s0,.45,0,.56a1.41,1.41,0,0,0,.42-.26,1.76,1.76,0,0,1-.93.58,4.19,4.19,0,0,1-.23.68,1.15,1.15,0,0,1-.37.39,1.11,1.11,0,0,0,.35.89,3.08,3.08,0,0,1,.91.49.7.7,0,0,1,.16.65l-.07.22h0s.07,0,.07.06h0a.21.21,0,0,0,0,.11l-.08.2h0a.08.08,0,0,0,0,.09h.18a.09.09,0,0,0,.11-.06,1.8,1.8,0,0,1,.08-.21h0v-.09s0-.08.07-.08a.06.06,0,0,1,.06.06h0a.17.17,0,0,1,0,.1h0l-.08.29a.11.11,0,0,0,.06.1l.18.05h.08l0-.05a1,1,0,0,0,.09-.34.17.17,0,0,0,0-.1h.24s-.06.08-.07.08h0a1.43,1.43,0,0,1-.09.27.09.09,0,0,0,.06.1h0l.17.06h0a.06.06,0,0,0,.06-.05,1.18,1.18,0,0,0,.07-.2,1,1,0,0,0,.05-.16v-.05h.07l.06.05a.33.33,0,0,0,0,.14.86.86,0,0,1-.06.23h0a.13.13,0,0,0,.06.1l.16.07h0a.07.07,0,0,0,.09,0h0l.06-.2v-.06h0V21.6h.08a.58.58,0,0,1,.09-.25.14.14,0,0,1,0-.09h0a.7.7,0,0,1,.47-.33,3.37,3.37,0,0,1,1,.15,1,1,0,0,0,.74-.41l.06-.09a1.19,1.19,0,0,1-.06-.53,3.41,3.41,0,0,1,.23-.68,1.85,1.85,0,0,1-.39-1,1.56,1.56,0,0,0,.15.41C29.26,18.78,29.38,18.65,29.52,18.46Z"/></g></g></svg>