<svg id="Layer_1" data-name="Layer 1" xmlns="http://www.w3.org/2000/svg" viewBox="0 0 48 48"><defs><style>.cls-1{fill:#fff;}.cls-2{fill:#101b2e;}.cls-3{fill:#5086b9;}.cls-4{fill:#fffffe;}.cls-5{fill:#9ea5a4;}.cls-6{fill:#b32534;}</style></defs><title>tennessee_titans</title><path class="cls-1" d="M32.48,39.17a12.76,12.76,0,0,1-8.74-3.44,14,14,0,0,1-1.68-2C15.87,31.53,15.8,26.06,15.8,26v-.45l-.59-.19A14.17,14.17,0,0,1,10.8,23C9,21.26,8.14,19.11,7.93,15.54L7.79,13c-.33-1.08-6-2.94-7-3.12L5.33,8.77c.38-.09.81-.19,1.28-.26L7,8.44a11.72,11.72,0,0,1,9.37,2.4,7.84,7.84,0,0,1,7.14-.17l.1.05a19,19,0,0,1,2.11,1.54L27.09,12a9,9,0,0,1,8,2,12.8,12.8,0,0,1,6.81,3.56A13,13,0,0,1,42,35,12.77,12.77,0,0,1,33,39.16h-.56Z"/><g id="Team-icons_tennessee_titans" data-name="Team-icons tennessee titans"><g id="tennessee_titans" data-name="tennessee titans"><path id="Fill-4" class="cls-2" d="M40.86,18.52a11.29,11.29,0,0,0-6.43-3.21,7.61,7.61,0,0,0-7-1.92c.81.12,1.35.61,1.14,1.14-.13.36-.72.38-1,.38a3.53,3.53,0,0,1-2.18-1A20,20,0,0,0,22.9,12a6.46,6.46,0,0,0-6.23.4A6.32,6.32,0,0,1,20,13.52c.46.38,1,1.14.56,1.5a2.31,2.31,0,0,1-2-.15,8.15,8.15,0,0,1-2-1.75c-3-3.57-7.33-3.77-10.87-2.89a6.89,6.89,0,0,1,4.83,4.25c1,2.29,1.71,3.26,3.28,3.88,1,.38,1.26.46,1.18.89-.11.65-1.28.34-2.17,0a6.44,6.44,0,0,1-3.38-3.8c.16,2.85.7,4.87,2.3,6.39a12.65,12.65,0,0,0,3.9,2.08,9.21,9.21,0,0,1,3.17,1.6c1.09,1,.62,1.62-.1,1.5a2.58,2.58,0,0,1-1.4-1s0,4.64,5.74,6.42a11.44,11.44,0,0,0,1.72,2.2,11.4,11.4,0,0,0,16.1-16.12"/><path id="Fill-5" class="cls-3" d="M40.26,19.1a10.44,10.44,0,0,0-6.28-3,5.89,5.89,0,0,0-4.07-1.93c.89.56.43,1.8-1.55,2.08a6.8,6.8,0,0,1-5.68-1.82c-1.26-1.46-2.2-1.52-2.2-1.52,1.08.68,1.16,1.49,1.82,2.73a3.72,3.72,0,0,0,3.2,1.77c1.25.08,1.28.65.28,1.24A2.19,2.19,0,0,1,23,18a4.61,4.61,0,0,0-3.75-1.29c-1.54,0-3.56.23-5.27-.42a6.56,6.56,0,0,1-2.84-2.89c.84,3,2.72,4.41,4.47,4.75a11.36,11.36,0,0,1,4.87,1.79,5.23,5.23,0,0,1,1.82,2.61c.27.82.32,1.9.05,2s-.38-.36-.76-1.13a4.06,4.06,0,0,0-1.9-2,7.74,7.74,0,0,0-4-.66,9.63,9.63,0,0,1-1.69-.2s0,.14,1.78.53a7,7,0,0,1,5.06,4.19c1.06,2.27.51,3.86-1.84,3.14a6.79,6.79,0,0,0,4.68,3.31A10.52,10.52,0,1,0,40.26,19.1"/><path id="Fill-6" class="cls-4" d="M32.82,16.53a10,10,0,1,1-7.08,2.93,10,10,0,0,1,7.08-2.93"/><path id="Fill-7" class="cls-2" d="M32.83,35.68A9.14,9.14,0,1,1,42,26.53a9.14,9.14,0,0,1-9.17,9.15h0"/><polyline id="Fill-8" class="cls-4" points="30.58 24.69 27.87 24.69 26.98 26.28 25.78 22.88 39.83 22.88 38.63 26.28 37.75 24.69 35.08 24.69 32.83 34.56 30.58 24.69"/><polyline id="Fill-9" class="cls-5" points="39.83 22.88 25.78 22.88 26.01 23.52 32.71 23.52 30.58 24.69 32.83 34.56 32.83 23.52 39.6 23.52 39.83 22.88"/><path id="Fill-10" class="cls-6" d="M25.92,15c-2-.06-2.87-.87-4.14-1.88a4.22,4.22,0,0,0-3.26-.9,4.19,4.19,0,0,1,4.51.66A9.6,9.6,0,0,0,25.92,15"/><path id="Fill-11" class="cls-6" d="M8.52,10.49s1.91-.05,3.58,2.95a5.2,5.2,0,0,0,6,2.46,5,5,0,0,1-4-2.57c-1.44-2.55-3.34-3.26-5.62-2.84"/><path id="Fill-12" class="cls-6" d="M19.32,25s-.27-2.78-4.23-3.58-4.5-2.89-4.5-2.89a4.3,4.3,0,0,0,3.46,3.91c2.39.64,4.15,1,5.27,2.56"/><polyline id="Fill-13" class="cls-6" points="34.19 22 33.65 20.39 35.02 19.41 33.32 19.41 32.79 17.8 32.29 19.41 30.6 19.43 31.97 20.41 31.46 22.02 32.82 21.01 34.19 22"/><polyline id="Fill-14" class="cls-6" points="28.16 27.66 27.04 28.93 25.49 28.25 26.35 29.71 25.23 30.97 26.88 30.6 27.73 32.06 27.89 30.38 29.54 30.02 27.99 29.35 28.16 27.66"/><polyline id="Fill-15" class="cls-6" points="36.08 30.06 37.74 30.39 37.93 32.07 38.76 30.6 40.41 30.94 39.27 29.7 40.11 28.23 38.57 28.93 37.43 27.68 37.62 29.36 36.08 30.06"/></g></g></svg>