<svg id="Layer_1" data-name="Layer 1" xmlns="http://www.w3.org/2000/svg" viewBox="0 0 48 48"><defs><style>.cls-1{fill:#fff;}.cls-2{fill:#f2af2b;}.cls-3{fill:#fffffe;}.cls-4{fill:#0a0b09;}.cls-5{fill:#4b292b;}</style></defs><title>washington_redskins</title><path class="cls-1" d="M16.32,45.58h0a1.6,1.6,0,0,1-.92-.32,4.14,4.14,0,0,1-.84-1h-.2A1.51,1.51,0,0,1,13,43a7.52,7.52,0,0,1-1.2-2.11.86.86,0,0,1-.14.18.8.8,0,0,0-.06.2,1.51,1.51,0,0,1-.82,1,4.37,4.37,0,0,1-1,1.09,1.52,1.52,0,0,1-1.86,0,1.49,1.49,0,0,1-.47-1.79A2.55,2.55,0,0,0,7.69,41,6.68,6.68,0,0,0,7.54,40a29.11,29.11,0,0,1-.29-7.45c.66-5.34,3.34-10.31,5.29-13.93l.06-.11a.81.81,0,0,1,0-.16v-1A1.47,1.47,0,0,1,13.33,16l.11-.25a1.49,1.49,0,0,1,.55-.64l.21-.66a1.46,1.46,0,0,1,.46-.83,1.52,1.52,0,0,1,2.18.17A13.28,13.28,0,0,1,27.37,8.6h.46A14,14,0,0,1,28,36.49a14.19,14.19,0,0,1-9.72-3.78l.06.73c0,.35.09.72.13,1l0,.21a4.26,4.26,0,0,0,.2.51,1.54,1.54,0,0,1,.11,1l.14,1a.41.41,0,0,1,0,.11,1.4,1.4,0,0,1,.08.67,3.84,3.84,0,0,0,0,.83,1.34,1.34,0,0,0,.12.33A1.53,1.53,0,0,1,19,40.6a5.5,5.5,0,0,1-.2,2,1.48,1.48,0,0,1-.8.93,1.17,1.17,0,0,0-.14.54,1.48,1.48,0,0,1-.83,1.33,1.41,1.41,0,0,1-.73.2Z"/><g id="Team-icons_washington_redskins" data-name="Team-icons washington redskins"><g id="washington_redskins" data-name="washington redskins"><path id="Fill-4" class="cls-2" d="M27.45,10a12,12,0,0,0-11.18,7.56H14.41V18H16.1A12.52,12.52,0,0,0,27.79,35a12.53,12.53,0,0,0,0-25Z"/><polyline id="Fill-5" class="cls-3" points="15.39 18.28 15.88 18.75 15.99 18.28 15.39 18.28"/><path id="Fill-6" class="cls-3" d="M27.79,33.24A10.78,10.78,0,1,0,17,22.46,10.78,10.78,0,0,0,27.79,33.24h0"/><path id="Fill-7" class="cls-4" d="M21,21.44a11.69,11.69,0,0,0-.84,3.82s.27-.63.37-.52-.8,2.65-.2,4.17a2.58,2.58,0,0,1,.35-.68,4.81,4.81,0,0,0,.46-.94,2.77,2.77,0,0,1,.1.5,2.45,2.45,0,0,0,.36-.63c0-.2.18-.42.27-.67l.1.05a5.75,5.75,0,0,0,.83-1.39s.18,0,.09.49a1.82,1.82,0,0,0,.51-1.23l.1.11a2.87,2.87,0,0,1,.41,1.83A4.71,4.71,0,0,1,22,29.73l.09.07a7.77,7.77,0,0,1,4.06,0,14.66,14.66,0,0,1,2.69,1.26,8.36,8.36,0,0,0,2.6.66h0a7.47,7.47,0,0,1,0-1.89s.12-.68.21-1.16a3.38,3.38,0,0,0,.12-1c0-.05-.05-.44.22-.41a3.43,3.43,0,0,0,1.35-.12A5.18,5.18,0,0,1,34,27a2,2,0,0,0,.59,0,1.59,1.59,0,0,0,.52-.37.82.82,0,0,0,.08-.79s-.16-.5-.07-.65a1.87,1.87,0,0,1,.33-.54s.14-.23,0-.34-.1-.12.07-.16a.37.37,0,0,0,.21,0V24a1.48,1.48,0,0,0-.28-1l.17.05a1.45,1.45,0,0,0,.62-.07c.18-.1.45-.23.41-.84a8.57,8.57,0,0,0-.51-1.39,2.46,2.46,0,0,0-.79-1.34c-.31-.14-.45-.37-.22-.6A.94.94,0,0,0,35,17.7a3.52,3.52,0,0,1-.65-1,4.76,4.76,0,0,0-.47-.7c-.16-.19-.39-.31-.8-.79a1,1,0,0,1-.28-.45,3.38,3.38,0,0,0-2.4-1.36l-.54-.07a5.4,5.4,0,0,0-2.4,0l-.8.16a4.41,4.41,0,0,0-1.11.43c-.39.25-.77.53-1.14.82A15.64,15.64,0,0,1,22.65,16a13.25,13.25,0,0,0-2.17,2.13,10.51,10.51,0,0,0-1.73,4,4.66,4.66,0,0,0-.08,1.18,4.87,4.87,0,0,1,1-1.46,3.45,3.45,0,0,0-.11.54,3.64,3.64,0,0,1,.35-.52l.43-.5a6.41,6.41,0,0,1,.69-.78,2,2,0,0,0-.26,1,1.29,1.29,0,0,0,.16-.17s0-.11.1-.08a.11.11,0,0,1,0,.11"/><path id="Fill-8" class="cls-5" d="M36.41,22.56a.91.91,0,0,0-.08-.89A2.78,2.78,0,0,1,36,21a3.39,3.39,0,0,0-.2-.53,3,3,0,0,0-.27-.57c-.25-.37-.46-.4-.6-.56h-.06c-.15.1-.15.32-.27.49h-.09s-.06,0-.1-.12-.08,0-.12,0h-.08c-.08,0,0,.07,0,.11v.08h-.09a.33.33,0,0,1-.14,0c-.09,0-.14-.16-.21-.2a.2.2,0,0,0-.15,0s-.06.09,0,.12.1.12.17.17.18.11.19.2-.15.16-.24.1a.49.49,0,0,1-.13-.12v-.05c0-.05-.08-.06-.09-.09a.5.5,0,0,0-.15-.14h0v-.17s0-.1-.09-.08,0,.06-.1.05,0-.14,0-.13h0s-.13-.06-.07-.14.1,0,.12,0a.24.24,0,0,1,.06-.11.06.06,0,0,1,.08,0h0c0,.07,0,.12.11.08s0-.06,0-.07a.88.88,0,0,1,.26-.25h0c0-.06.06-.15,0-.18s-.17,0-.15-.1.07-.06.11-.08l.37-.16a.34.34,0,0,1,.12-.06.86.86,0,0,1,.32,0h.13A.27.27,0,0,0,35,18.4.45.45,0,0,0,35,18a1.72,1.72,0,0,0-.31-.4c-.14-.13-.32-.2-.35-.39a3.34,3.34,0,0,0-.33-.72,3.23,3.23,0,0,0-.33-.49l-.27-.28a1.36,1.36,0,0,0-.56-.38H32c-.08,0-.32,0-.38-.15a1,1,0,0,0-.26-.36l-.16-.08a1.66,1.66,0,0,0-.7-.29c-.09,0,0,.1,0,.11a.67.67,0,0,1,.22.19c.06.08.2.08.32.13l.3.17c.1,0,.23.22.13.29s-.21,0-.34,0h-.21a.63.63,0,0,1-.43-.17c-.16-.11-.25-.28-.4-.39a2.16,2.16,0,0,0-.58-.31h-.15s-.13-.13-.21-.14a.86.86,0,0,0-.32,0l-.09.07h-.25s0,.07.11.12a.83.83,0,0,0,.22.08,1,1,0,0,1,.62.1s.12.1.12.14a4.17,4.17,0,0,0-.71-.06H28.3c-.17,0,0,.1,0,.16s.13,0,.15,0a.55.55,0,0,1,.31,0c.1,0,0,0,.13.06A.21.21,0,0,0,29,15c.07,0,.08-.13.16-.09l.1.05c.44,0,.45.13.66.13h.17a.26.26,0,0,0,.29,0,6.06,6.06,0,0,1,.21,2.24,5.75,5.75,0,0,1-.25,1.22,4.33,4.33,0,0,0-.13,1.34,7.92,7.92,0,0,1-1.1,4.41c-.23.28-.35.43-.12.64a3,3,0,0,0,1.57.7,1.87,1.87,0,0,0,.62.1,2.45,2.45,0,0,1,1.18.34,2.58,2.58,0,0,0,1.28.31,1.67,1.67,0,0,1,.62.12.43.43,0,0,0,.35,0l.2-.15c0-.06.21-.14.17-.4a2.9,2.9,0,0,0-.12-.57.47.47,0,0,1-.07-.44,4.73,4.73,0,0,1,.32-.46c.16-.17.07-.29-.14-.35a4.34,4.34,0,0,0-.51,0,1,1,0,0,0-.35,0l-.16.12h-.08a.83.83,0,0,1,.22-.33,1.24,1.24,0,0,0,.47,0c.14-.06.29-.09.4-.13a2.18,2.18,0,0,1,.51,0,1,1,0,0,0-.29-.88c-.09-.09-.17-.2-.31-.21a1.11,1.11,0,0,1-.83-.19c-.12,0-.16,0-.22.12a1,1,0,0,1-.37.38h-.1c.09-.14.19-.27.29-.4A2.57,2.57,0,0,1,34,22c.07-.12.09-.4.26-.47s.09,0,.16,0c-.13.12-.49.55-.12.82.16.13.39.13.44,0a.41.41,0,0,1,.12-.14.53.53,0,0,1,.42.1,1,1,0,0,0,.32.3.56.56,0,0,0,.31.06.64.64,0,0,0,.43-.28"/><path id="Fill-9" class="cls-5" d="M33.74,19.57a.86.86,0,0,1,.27.05.35.35,0,0,0,.26-.09s.12-.07.12-.11v-.35a.12.12,0,0,0-.15-.07l-.14.12c-.07.13-.18.15-.23.23l-.09.15v.07"/><path id="Fill-10" class="cls-4" d="M34.92,21.5c.22-.1.32,0,.56.26a.13.13,0,0,1,0,.18H35.4a.72.72,0,0,0-.51-.33V21.5"/><path id="Fill-11" class="cls-4" d="M33.77,23.74l-.16.28c-.06.1,0,.22-.13.31a.15.15,0,0,1-.18,0,.54.54,0,0,1,.09-.52.39.39,0,0,1,.36-.09v.05h0"/><path id="Fill-12" class="cls-4" d="M31.42,22.56a.11.11,0,0,1-.1-.13v0h0a2.34,2.34,0,0,0,.45.07,1.11,1.11,0,0,0,.51-.1,6.05,6.05,0,0,0,.55-.32.89.89,0,0,1,.31-.11c.17,0,.16-.13.28-.21s.17-.18.27-.14,0,.08-.06.1a1.2,1.2,0,0,0-.22.23.86.86,0,0,1-.13.14,2,2,0,0,0-.4.48,1.27,1.27,0,0,0-.18.37,2,2,0,0,1-.1.21h-.11a1.64,1.64,0,0,0-.34.4h-.08a.46.46,0,0,0-.39-.28.26.26,0,0,1-.07-.15V23h-.08l-.07-.08a1.74,1.74,0,0,0-.05-.39h0"/><path id="Fill-13" class="cls-3" d="M28.59,26.1c0-.12-.24-.11-.39-.1a1.8,1.8,0,0,0-.64.18c.14-.22.32-.23.65-.36.08,0,.06-.16,0-.24a.2.2,0,0,0-.16-.1.81.81,0,0,0-.51.05,2.5,2.5,0,0,0-1.28.88.26.26,0,0,0,0,.24c.06.07.14.26.16.24.2-.22.45-.43.72-.37a1.21,1.21,0,0,0-.64.54.62.62,0,0,0,.12.19c.07.06.14.24.2.27s.11-.08.13-.11a1.73,1.73,0,0,1,1.34-.71c.23,0,.36-.1.37-.3a.42.42,0,0,0,0-.31"/><path id="Fill-14" class="cls-3" d="M27.66,27.29v.4a4,4,0,0,1,.2.35c0,.09.14.21.14.27a.21.21,0,0,1,.06.1c.07.09.27.19.2.25a1,1,0,0,1-.49,0c-.19,0-.08.14,0,.16a4.7,4.7,0,0,1,.74.18.7.7,0,0,1,.22.2.57.57,0,0,0,.11.16,2.11,2.11,0,0,0,.31.36.27.27,0,0,1,.12.23.13.13,0,0,1-.15.11h0L28.87,30c-.18-.06-.21-.13-.34-.06s0,.15.11.2c.32.17.71.17,1,.35a.73.73,0,0,1,.41.74l.1.05c.1-.14.32,0,.44,0s0-.06,0-.09-.16-.08-.21-.16,0-.17,0-.24-.15,0-.2,0c-.21-.22-.34-.47-.61-.59a2.18,2.18,0,0,0,.14-.84c-.08-.07-.11,0-.13,0s0,.19-.11.29h-.14a1.43,1.43,0,0,1-.45-.58V29a.54.54,0,0,1,0-.66.22.22,0,0,0,0-.16s-.09,0-.11.05-.17.27-.31.26-.23-.19-.34-.3S28,28,28.05,28a4.51,4.51,0,0,1-.29-.63.2.2,0,0,0-.12-.1"/><path id="Fill-15" class="cls-5" d="M28.63,30.74c.17.08,0-.11,0-.11a2,2,0,0,1-.24-.33l-.2-.3a1.33,1.33,0,0,0-.39-.46,1.86,1.86,0,0,1-.33-.41c-.1-.2-.16-.56-.4-.72s-.14-.28-.3-.53c-.06-.1-.19-.11-.28-.21s-.09-.32-.29-.54a.75.75,0,0,1-.21-.26c-.1-.18,0-.43-.2-.51a2.35,2.35,0,0,0-.37-.14,2,2,0,0,1-.56-.3c-.15-.11-.47-.37-.8-.66a4.46,4.46,0,0,1-1.64,4.31c2.89-.54,4.15.14,6.21,1.19"/><path id="Fill-16" class="cls-5" d="M29.72,28.73c0,.13.05.11.12.29a1.07,1.07,0,0,0,.19.28,1.29,1.29,0,0,1,.48,1c0,.19,0,.18.21.31l.16.12s.31.33.35.36v-.37a5.5,5.5,0,0,0-.1-1.72c-.15-.4-.5-.84-.63-1.25l-.07-.23a4.62,4.62,0,0,1-.08-.65l-.42-.2c-.34-.14-.72-.26-1.06-.39a.66.66,0,0,1-.11.49,5.5,5.5,0,0,0,.27.81,1.74,1.74,0,0,1,.55.88c0,.12.13.18.14.27"/><path id="Fill-17" class="cls-3" d="M24.53,15.14a1.81,1.81,0,0,0-.85.43,8.73,8.73,0,0,0-2.19,1.78A8,8,0,0,0,20.13,19a5.74,5.74,0,0,0-.65,1.65s.09.33.34-.11a20.33,20.33,0,0,1,4.57-5.17h.12a20.31,20.31,0,0,0-4.27,4.79c-.06.09-.13.25-.14.26s.11.15,0,.13c.13,0,.19-.16.27-.2s.08.14.17.1a2,2,0,0,0,.67-.66,1.72,1.72,0,0,0,.07.21c.14,0,.58-.56.81-1,.06.08,0,.27.07.19a4.17,4.17,0,0,0,.63-.76,1.93,1.93,0,0,0,.41-.91.34.34,0,0,1,.12.12c.07-.08.07-.16.17-.27s.14-.22.27-.31a.75.75,0,0,0,.18-.34c0-.1.24-.42.25-.52.18-.34.49-.51.7-.77s.06-.5-.38-.33"/><path id="Fill-18" class="cls-3" d="M22.28,25.11a.11.11,0,0,0,.15,0l0,0a2.07,2.07,0,0,0,.28-.58,3,3,0,0,0,.21-1.1,1.92,1.92,0,0,1,.2.78h.05a1.33,1.33,0,0,1,.45-.62,1.19,1.19,0,0,1,.3-.64c0-.22-.06-.44-.1-.65a5.33,5.33,0,0,1-.06-1.95,4.9,4.9,0,0,0,.36,1.4h.05a1.71,1.71,0,0,0,.15-.63c.11-.49.32-.44.32-.54a5.45,5.45,0,0,1-.1-1.56,2.17,2.17,0,0,0,.28.77c.11.27.13-.06.13-.06a3.79,3.79,0,0,0,0-1.5,8.42,8.42,0,0,1-.24-2c.06-.33-.05-.22-.05-.22s-.33.08-.83,1.48c-.73,2.34-1.35,4.83-2,6.85.2-1.06,1.29-4.8,1.61-6.16,0,0-.05-.09-.12,0a1.61,1.61,0,0,0-.21.3H23l-.16.24a11.73,11.73,0,0,1-1.19,1.35,3.68,3.68,0,0,0-.37.71c-.06.13,0,.15.13.07A3.68,3.68,0,0,1,22,20.4s.28-.1.28-.11a.43.43,0,0,1-.12.11,3.91,3.91,0,0,0-.37.44c-.15.26-.31.58-.52,1a8.21,8.21,0,0,0-.47,1.05c-.14.39-.11.43-.11.43.2.08.09.18.09.18s-.12.28,0,.22a.27.27,0,0,0,.19-.11,2,2,0,0,1,.19-.22c.09-.11.07-.14.16-.25a1.18,1.18,0,0,1,.32-.31,1.11,1.11,0,0,0-.23.49l.05.07h0a2.18,2.18,0,0,0-.32.88,2.67,2.67,0,0,1-.08.48.47.47,0,0,0,.26-.11,1.1,1.1,0,0,0-.06.26,1.41,1.41,0,0,0,0,.29v.27a1,1,0,0,0,.5-.34c.1-.1.18-.33.21-.32s0,.2,0,.2l-.08.19v.12H22l.07-.06V25.2a.27.27,0,0,1,.07-.08h.08"/><path id="Fill-19" class="cls-4" d="M14.77,19a6.79,6.79,0,0,0-.88,2.22,1.37,1.37,0,0,1,.38-.15C14.33,20.74,14.84,18.89,14.77,19Zm2.47,20.8a3.76,3.76,0,0,1,.07,2.39c-.26-.25-.27-.46-.46-.58a2.88,2.88,0,0,1-.18,1.16,2.53,2.53,0,0,0-.36,1.31c-.45-.37-.56-.88-.87-1.18a6.13,6.13,0,0,1-.8-.89,1.9,1.9,0,0,1-.13.74,1.42,1.42,0,0,0-.36-.75A6.46,6.46,0,0,1,13,39.49c0-.18-.14-.7-.25-1.41a.72.72,0,0,1-.4.47.07.07,0,0,1-.07-.07,1.89,1.89,0,0,0,.06-.67A2.87,2.87,0,0,0,12,36.75h0a1,1,0,0,1-.25.75,2.37,2.37,0,0,0-.08-.75c0-.12-.13-.22-.15-.1a2.74,2.74,0,0,0-.09.7,3.72,3.72,0,0,1-.08,1,1.83,1.83,0,0,1-.37,1,1.32,1.32,0,0,0-.24-.54A2.12,2.12,0,0,1,10.55,40a2.08,2.08,0,0,0-.4.85c0-.33-.14-.23-.2-.4a3.18,3.18,0,0,1-1.07,1.68,4.45,4.45,0,0,0,.31-1A8.66,8.66,0,0,0,9,39.61a27.36,27.36,0,0,1-.26-7c.64-5.22,3.34-10,5.62-14.33h-.28v-1h.31l.41-.93.28.21.56-1.73.25,1.27L17,15.24l-.88,2h.3c-.05.11-.1.21-.14.32H14.41V18H16.1a1.15,1.15,0,0,1-.11.31h-.6l.49.32-.09.3-.22-.15a11.61,11.61,0,0,0-.32,2.63,3.52,3.52,0,0,1,1.27,3.12s.05,0-.29-.07a2,2,0,0,1,.36.63,6.54,6.54,0,0,1,.07,1.4A12.72,12.72,0,0,0,16.73,28c.16.06.07.46.08,1a3.81,3.81,0,0,1-.07.59c-.31-.26-.29-.25-.38-.22a1.1,1.1,0,0,0,.28.46,31.87,31.87,0,0,0,.16,3.78c.05.5.14,1.07.17,1.25a5,5,0,0,0,.31.92.55.55,0,0,1-.43-.18c.2.38.2.31.33.43l.18,1.33-.21.23.28.18a5.53,5.53,0,0,0,0,1.15,3,3,0,0,0,.29.87.4.4,0,0,1-.43-.3c-.11-.11-.28-.37-.34-.37A2.41,2.41,0,0,0,17.24,39.8Z"/><path id="Fill-20" class="cls-3" d="M11.79,34.58a10.89,10.89,0,0,0-.15-1.4c-.05-.15,0-.17.08-.2a1.45,1.45,0,0,0,.3-.56l-.53.36A7.49,7.49,0,0,0,11,30.69a2.17,2.17,0,0,1,.55.79,7.51,7.51,0,0,0,.15-1.16,9.24,9.24,0,0,1-.38-2.39,15.6,15.6,0,0,0,.48,1.61c.08-.28.14-.78.25-1.2a1.43,1.43,0,0,0,.35-.3c0-.09-.26.08-.3.09a8.13,8.13,0,0,0-.18-2.41h0a.84.84,0,0,1,.3.53,7,7,0,0,0,.45-2.12c-.24,0-.36.26-.52.24,0-.17,0-.09.1-.24a4.11,4.11,0,0,0,.28-.6,1.33,1.33,0,0,0,.15-.68,1.46,1.46,0,0,1,.16-.82,2.16,2.16,0,0,0,.1.44,5.4,5.4,0,0,1,.55-1,9.54,9.54,0,0,1,1.44-3.18h-.27a53.35,53.35,0,0,0-2.73,5.32,26.63,26.63,0,0,0-3,10.08c0,.12,0,0,.07.14s0,.2.06.3.1-.06.11-.13c0,.2-.1.39,0,.59.08-.07.19-.08.26-.18v.23a1.4,1.4,0,0,0,.05.41c0,.18.23.31.17.48a1.35,1.35,0,0,0-.06.84c0,.06,0,.15.11.18a.25.25,0,0,0,.17,0,.14.14,0,0,0,0-.09V36.1a.86.86,0,0,1,.15-.43h.11a.79.79,0,0,0,.13.45.13.13,0,0,0,.18,0c.12-.11.07-.29.09-.43a6,6,0,0,0-.12-.61c0-.24,0-.27.09-.36a1.59,1.59,0,0,0,.23.64.09.09,0,0,0,.12,0,.37.37,0,0,0,0-.45c-.13-.2-.23-.53,0-.72a.45.45,0,0,0,.05.3,1.36,1.36,0,0,1,.23.54c0,.08.11.11.18,0s0-.06,0-.07.16.11.15.2.1,0,.12,0a2.1,2.1,0,0,0,.09-.5.18.18,0,0,1,.11-.19"/><path id="Fill-21" class="cls-3" d="M16.43,35.82c.07.07.25,0,.3.06a.29.29,0,0,0-.05-.13c-.47-.56-.92-1.15-.89-1.59a3.51,3.51,0,0,0,.84.92V35c-.18-1.15-.18-1.66-.27-2.75-.29-.23-.91-.92-.8-1.51a2.15,2.15,0,0,0,.69.86l.1.07V30c0-.35-.34-.48-.48-.73a3.87,3.87,0,0,0-.62-.93,5.36,5.36,0,0,0-.75-.83h.13a1.42,1.42,0,0,1,.55.27,3.12,3.12,0,0,1,.46.43c.15.14.16.25.25.3a3.8,3.8,0,0,0,.49.41h.05a7.53,7.53,0,0,0,0-1A8,8,0,0,1,16,26.82c0-.15.09.09.31.2a14,14,0,0,0-.06-2.13,13.86,13.86,0,0,1-1-1.81c.3.5.71.57.87.76,0,0,0,.05.08,0A2.89,2.89,0,0,0,15,21.5a12.25,12.25,0,0,1,.32-2.89l-.22-.14a45.08,45.08,0,0,0-1.56,9.65,32.25,32.25,0,0,0,.94,9.18,1.33,1.33,0,0,0,.1.34c0,.12.06.07.11,0a.19.19,0,0,0,.07-.14,1.51,1.51,0,0,1,.15-.59l.06-.08a.59.59,0,0,0,.12-.31l.05-.07c0-.07.13,0,.17.07s0,.21.09.3a3.38,3.38,0,0,0,.5.63.24.24,0,0,0,.22.09h.06a.62.62,0,0,0-.09-.26c0-.08-.16-.26-.1-.38s.12.06.16,0a.23.23,0,0,0,0-.2.88.88,0,0,0-.1-.22,8.08,8.08,0,0,1-.35-.8.29.29,0,0,1,0-.13,1.71,1.71,0,0,0,.21.26.08.08,0,0,0,.05.07.66.66,0,0,1,.23.21c0,.09.06.4.25.37a.14.14,0,0,0,.12-.14h0a.81.81,0,0,0-.1-.21A.75.75,0,0,1,16.3,36a.43.43,0,0,1,0-.35.36.36,0,0,0,.16.22"/><path id="Fill-22" class="cls-3" d="M12.69,37.09a4.11,4.11,0,0,1,.44-1.23.28.28,0,0,1,.1-.09,1.37,1.37,0,0,0,.14.72c.07.1.18.08.28.08.07.24.24.41.3.66a.1.1,0,0,0,.12.06.38.38,0,0,0,.23-.16h0a31.34,31.34,0,0,1-.91-9.6,33.26,33.26,0,0,1,.84-6.12L14,21.5a1.07,1.07,0,0,0-.45.42,3.62,3.62,0,0,0-.24.43,6.74,6.74,0,0,0-.38,1.15H13a4.52,4.52,0,0,1,.73-.72l.13-.06c-.18.46-.42.57-.67,1a30.12,30.12,0,0,0-.8,4h.15a2.48,2.48,0,0,1,.77-.41c.25-.21-.84.94-1,1.32-.14,1-.35,2.63-.38,3.37H12a6.32,6.32,0,0,1,.92-.87L13,31a7.7,7.7,0,0,0-.63,1.29c-.09.26-.21.53-.31.77,0,.08-.08.14-.05.23a7.8,7.8,0,0,0,.1,1.28l.07.09a1.13,1.13,0,0,1,.45-.47v.07c-.14.34-.32.64-.39.81a10.38,10.38,0,0,0,.22,2c0,.09.13.08.18,0h0"/><path id="Fill-23" class="cls-2" d="M16.93,40.09a2.52,2.52,0,0,1-.27-1.8c.13.29.21.28.42.33a5.21,5.21,0,0,0,0-.79,1.53,1.53,0,0,0-.26-.31l.2-.37a1.75,1.75,0,0,0-.07-.72,4.87,4.87,0,0,1-.21-.53c0-.12-.24,0-.31-.08a.36.36,0,0,1-.16-.22.43.43,0,0,0,0,.35.75.75,0,0,0,.16.15.81.81,0,0,1,.1.21.14.14,0,0,1-.07.16h0c-.19,0-.19-.23-.25-.37s-.15-.1-.2-.2,0,0-.05-.07a1.71,1.71,0,0,1-.21-.26.29.29,0,0,0,0,.13,8.08,8.08,0,0,0,.35.8.88.88,0,0,1,.1.22.23.23,0,0,1,0,.2s-.14-.05-.16,0a.52.52,0,0,0,.1.38c.1.12.12.16.09.26h-.06a.24.24,0,0,1-.22-.09,3.38,3.38,0,0,1-.5-.63c-.06-.09,0-.21-.09-.3s-.11-.13-.17-.07,0,0,0,.07a.59.59,0,0,1-.12.31L15,37a1.51,1.51,0,0,0-.15.59.19.19,0,0,1-.07.14h-.11l.07.23h0a1.46,1.46,0,0,1,0,.2h0v.17h0v.13l0-.12V38c-.11-.29-.22-.6-.32-.92h0a.38.38,0,0,1-.23.16.1.1,0,0,1-.12-.06c-.06-.25-.23-.42-.3-.66a.32.32,0,0,1-.28-.08,1.37,1.37,0,0,1-.14-.72.28.28,0,0,0-.1.09A4.11,4.11,0,0,0,12.81,37l-.06.21c-.06.17,0,.19.12.08s.13,0,.14,0c0,.3.19.59.26,1.09s.15,1,.2,1.21a3.27,3.27,0,0,0,1,1.81c0-.33.08-.46.06-.71h.06a2,2,0,0,0,.73,1.35,9.23,9.23,0,0,1,.73.8c.07.13.14.19.2.29a3.23,3.23,0,0,0,.39-1.36,4.81,4.81,0,0,0-.12-1.31,2.26,2.26,0,0,1,.67.8A1.91,1.91,0,0,0,17,40.06"/><path id="Fill-24" class="cls-2" d="M9,33.69c0,.12,0,0,.06.14s0,.2.06.3.1-.06.11-.13c0,.2-.1.39,0,.59.08-.07.19-.08.26-.18v.23a1.41,1.41,0,0,0,0,.41c0,.18.23.31.17.48a1.35,1.35,0,0,0-.06.84c0,.06,0,.15.11.18a.25.25,0,0,0,.17,0,.14.14,0,0,0,0-.09V36.1a.86.86,0,0,1,.15-.43h.11a.79.79,0,0,0,.13.45.13.13,0,0,0,.18,0c.12-.11.07-.29.09-.43a6,6,0,0,0-.12-.61c0-.24,0-.27.09-.36a1.59,1.59,0,0,0,.23.64.09.09,0,0,0,.12,0,.38.38,0,0,0,0-.45c-.13-.2-.23-.53,0-.72a.45.45,0,0,0,.05.3,1.36,1.36,0,0,1,.23.54c0,.08.11.11.18,0s0-.06,0-.07.16.11.15.2.1,0,.12,0a2.1,2.1,0,0,0,.09-.5c0-.15.07-.17.12-.19a2.09,2.09,0,0,1,0,.5,2.33,2.33,0,0,1-.14,1.2c-.11-.12-.13-.22-.28-.26C11,36.21,11,38,11,38.23c0,.06-.1,0-.1,0a1.7,1.7,0,0,1-.39-.66s-.09-.11-.09,0a5.5,5.5,0,0,0,0,1.62,1,1,0,0,1-.13.74c0,.07-.07.09-.07,0s-.09-.16-.13-.28-.09-.16-.12,0a4.23,4.23,0,0,1-.4,1.13H9.5a7.11,7.11,0,0,0-.19-1.52,21.54,21.54,0,0,1-.41-4V33.65h0"/><polyline id="Fill-25" class="cls-3" points="15.97 16.42 16.05 16.72 16.47 16.08 15.97 16.42"/><polyline id="Fill-26" class="cls-3" points="14.75 17.31 14.93 16.81 15.44 17.31 14.75 17.31"/><polyline id="Fill-27" class="cls-3" points="15.34 16.77 15.63 15.92 15.84 17.11 15.34 16.77"/><path id="Fill-28" class="cls-3" d="M28.31,15.29c0-.06-.17,0-.2-.12a.47.47,0,0,0-.06-.15h-.16a.49.49,0,0,1-.24,0c-.14.23-.5.07-.67.09s.1.11.13.14a.58.58,0,0,0,.47.15h.09a1,1,0,0,1,.48.09c.05,0,.22-.07.16-.15"/><path id="Fill-29" class="cls-3" d="M30.8,15.42l-.38-.22-.09-.11c-.09-.08-.13-.17-.23-.24a3,3,0,0,0-.38-.24h-.29l-.12-.08c-.12-.07-.25,0-.37,0l-.08.06h-.19a.09.09,0,0,0-.08.08.08.08,0,0,0,0,.05.56.56,0,0,0,.2.11c.22.06.45,0,.66.1a.23.23,0,0,1,.16.13h-.06a.22.22,0,0,0-.16,0,4.18,4.18,0,0,0-1,0c0,.09,0,.18.12.19h.33a1.19,1.19,0,0,1,.35.15h.06c.05,0,.09-.1.15-.07h.32c.16,0,.3.13.46.11a.25.25,0,0,1,.23.07s.22.16.25.11.26,0,.27-.07"/><path id="Fill-30" class="cls-3" d="M31.72,15.34c-.1-.06-.12-.19-.17-.29a.37.37,0,0,0-.17-.16c-.3-.16-.65-.43-.87-.41s-.1.08-.06.12.22.1.23.23c.3.15.82.24.8.57a1.05,1.05,0,0,1,.24-.06"/><path id="Fill-31" class="cls-2" d="M10.55,33.57s.09,0,0,0a.71.71,0,0,0,.29,0,.14.14,0,0,0,.08-.09c0-.11.09-.25,0-.32s-.09-.18-.16-.23a.8.8,0,0,1-.16-.08s-.11,0-.11.07.07.17.07.26-.08.17,0,.35"/><path id="Fill-32" class="cls-2" d="M9.62,32.4c0-.15-.06-.36.17-.3.07,0,.08.12.08.17a1.12,1.12,0,0,0,.09.36.22.22,0,0,1-.05.17c-.05.05-.26.2-.36.07s-.14-.19-.08-.29a.66.66,0,0,1,.14-.2"/><path id="Fill-33" class="cls-2" d="M9.84,33.92a.27.27,0,0,1,0-.38h0a.12.12,0,0,1,.17,0h0s.11.28.16.43a.22.22,0,0,1-.19.25h-.1c-.1,0-.09-.21-.16-.3"/><path id="Fill-34" class="cls-2" d="M10,34.52c-.05,0-.06,0-.09.06s0,.15-.1.22a.45.45,0,0,0,0,.42.32.32,0,0,0,.25.2c.17,0,.29-.33.16-.4s-.1-.34-.16-.48H9.92"/><path id="Fill-35" class="cls-2" d="M11,34.21V34a.21.21,0,0,1,.19,0l.08,0c.15.11.24.26.16.42a.12.12,0,0,1-.17,0h0s-.12,0-.15-.09,0-.19-.11-.28"/><path id="Fill-36" class="cls-2" d="M9.61,33.18c0-.09-.13,0-.18,0a.77.77,0,0,0-.2.48c0,.12.26.14.36.09.25-.12.08-.56.06-.5s0-.09,0-.08"/><path id="Fill-37" class="cls-2" d="M13.11,34.44c-.06,0-.15,0-.15.06s0,.47.27.42a.16.16,0,0,0,.14-.17h0a.55.55,0,0,0-.26-.28"/><path id="Fill-38" class="cls-2" d="M13.59,34.91a.2.2,0,0,0-.21,0,.24.24,0,0,0-.09.27.81.81,0,0,0,.17.28s.17.1.2.07a.35.35,0,0,0,.11-.32.53.53,0,0,0-.18-.28"/><path id="Fill-39" class="cls-2" d="M15.42,34.75c-.06,0-.12,0-.14,0a.31.31,0,0,0,.12.41h0c.14.07.33-.17.22-.31a.38.38,0,0,0-.31-.16"/><path id="Fill-40" class="cls-2" d="M14.49,35.93a.22.22,0,0,1-.07-.22.16.16,0,0,1,.19-.09.36.36,0,0,1,.19.13.36.36,0,0,1,0,.49h0a.18.18,0,0,1-.24,0c-.06-.09,0-.17-.06-.27h0"/><path id="Fill-41" class="cls-2" d="M15.54,36c-.1-.08-.06-.25-.17-.32a.17.17,0,0,0-.21,0c-.06,0-.06.13-.08.21a.29.29,0,0,0,0,.13c.09.17.29.17.45.27s.06,0,.08-.06A.2.2,0,0,0,15.5,36"/><path id="Fill-42" class="cls-2" d="M14,35.85a.22.22,0,0,0-.27,0,.11.11,0,0,0-.06.07c0,.17-.07.34,0,.5a.27.27,0,0,0,.31.16.15.15,0,0,0,.15-.17.09.09,0,0,0,0,0,.8.8,0,0,0-.13-.5"/><path id="Fill-43" class="cls-2" d="M14.54,33.85c0-.08-.11-.14-.07-.22s.06,0,.09,0a.27.27,0,0,1,.26,0,1.74,1.74,0,0,1,.11.18,1.8,1.8,0,0,1,.08.21.17.17,0,0,1-.07.21c-.07,0-.1.08-.2,0s-.07-.1-.09-.14,0-.17-.05-.21,0,0-.06-.09"/><path id="Fill-44" class="cls-2" d="M14.47,34.28a.11.11,0,0,0-.11,0H14.3c-.08.11-.15.23-.22.35s.06.24.15.33.19,0,.28,0,.17-.25.14-.39a.75.75,0,0,0-.18-.28"/></g></g></svg>