<?xml version="1.0" encoding="utf-8"?>
<!-- Generator: Adobe Illustrator 23.0.2, SVG Export Plug-In . SVG Version: 6.00 Build 0)  -->
<svg version="1.1" id="Layer_1" xmlns="http://www.w3.org/2000/svg" xmlns:xlink="http://www.w3.org/1999/xlink" x="0px" y="0px"
	 width="133.5px" height="133.5px" viewBox="0 0 133.5 133.5" style="enable-background:new 0 0 133.5 133.5;" xml:space="preserve">
<style type="text/css">
	.st0{fill:#030304;}
</style>
<g>
	<polygon class="st0" points="89.8,68.5 81.4,59.9 81.4,83.9 89.8,83.9 	"/>
	<path class="st0" d="M55.9,42.8h20.7l-8.4-8.4h-11c7-0.7,12.8-6.6,12.8-13.9c0-7.7-6.2-14.1-14.1-14.1v27.9L32.6,11.3
		c-1.3,0.7-2.4,1.3-3.5,2c-1.3,0.9-2.4,1.8-3.7,2.6l22,22v48.2L64.3,103V90.9l-8.6-8.6L55.9,42.8z"/>
	<polygon class="st0" points="64.3,42.8 64.3,83.9 72.9,83.9 72.9,51.3 	"/>
	<polygon class="st0" points="93.5,59.9 85,51.3 72.9,51.3 81.4,59.9 	"/>
	<path class="st0" d="M38.8,78V41.4L19.2,21.9c-1.8,2.2-3.5,4.6-4.8,7.3L30.2,45v12.1L11,37.9c-0.9,3.3-1.3,6.8-1.5,10.6
		C9.7,48.5,37.9,77.1,38.8,78"/>
	<polygon class="st0" points="9.9,60.6 9.9,72.7 64.3,127 64.3,115.1 	"/>
	<path class="st0" d="M107,73.3h-8.6v10.8h-8.6c0,7.7,6.4,14.1,14.1,14.1c7.7,0,14.1-6.4,14.1-14.1L107,73.3z"/>
</g>
</svg>
