<svg id="Group_4573" data-name="Group 4573" xmlns="http://www.w3.org/2000/svg" xmlns:xlink="http://www.w3.org/1999/xlink" width="51" height="51" viewBox="0 0 51 51">
  <defs>
    <clipPath id="clip-path">
      <rect id="Rectangle_5471" data-name="Rectangle 5471" width="51" height="51" fill="none"/>
    </clipPath>
  </defs>
  <g id="Group_4572" data-name="Group 4572" clip-path="url(#clip-path)">
    <path id="Path_6912" data-name="Path 6912" d="M11.3,7.758c1.14.014,7.161.367,11.213.569s9.4.573,9.844.656c.8.147,3.058,3.568,3.46,4.92.227.627-.767,1.462-1.752,1.462s-10.928.123-12.253.2c-1.209.075-5.283.305-5.887.426-.644.129-2.625.4-3.256-.131-.585-.489-.9-3.467-1.028-4.842C11.51,9.664,11.3,7.758,11.3,7.758" fill="#ff3d00"/>
    <path id="Path_6913" data-name="Path 6913" d="M20.521,17.422H33.81a10.727,10.727,0,0,0-.227,4.1c.341,2.065,3.635,11.012,3.975,11.9s1.1,2.267,1.363,2.884c.811,1.866-.322,3.883-.89,4.67a9.334,9.334,0,0,1-4.4,2.663c-1.612.525-4.123,1.86-4.918,1.893s-4.07-.573-2.291-2.409,2.953-1.966,3.067-2.818-.492-3.376-1.627-6.26A23.611,23.611,0,0,1,26.2,25.966a8,8,0,0,0-1.9-5.064c-.754-.891-3.368-1.281-3.784-3.48" fill="#ff3d00"/>
    <path id="Path_6914" data-name="Path 6914" d="M21.24,21.191s1.59.05,2.016,1.107a10.086,10.086,0,0,1,.568,1.893,7.312,7.312,0,0,1,.142.734s-1.7.446-1.959.274a16.41,16.41,0,0,1-.767-3.024c-.056-.2-.208-1,0-.984" fill="#ff3d00"/>
    <path id="Path_6915" data-name="Path 6915" d="M44.674,45.528a.975.975,0,0,1-1.08-1.081v-.305a.973.973,0,0,1,1.08-1.08h.233a.975.975,0,0,1,1.08,1.08v.305a.976.976,0,0,1-1.08,1.081ZM44.8,41.55q-.612,0-.666-.685l-.522-6.624a1.234,1.234,0,0,1,.3-.935,1.109,1.109,0,0,1,.873-.378,1.132,1.132,0,0,1,.882.378,1.159,1.159,0,0,1,.288.935l-.5,6.624q-.054.684-.647.685" fill="#ff3d00"/>
    <path id="Path_6916" data-name="Path 6916" d="M5.666,47.028a1.5,1.5,0,0,1-1.061-2.561L20.563,28.509a1.5,1.5,0,0,1,2.122,2.122L6.727,46.589a1.5,1.5,0,0,1-1.061.439" fill="#ff3d00"/>
    <path id="Path_6917" data-name="Path 6917" d="M39.757,12.715a1.5,1.5,0,0,1-1.028-2.592l6.165-5.8A1.5,1.5,0,0,1,46.95,6.5l-6.165,5.8a1.494,1.494,0,0,1-1.028.408" fill="#ff3d00"/>
  </g>
</svg>
