<svg id="Group_2822" data-name="Group 2822" xmlns="http://www.w3.org/2000/svg" width="18.549" height="25.104" viewBox="0 0 18.549 25.104">
  <path id="Path_4074" data-name="Path 4074" d="M82.306-10.606c.758.009,4.76.244,7.453.378S96-9.847,96.3-9.792c.528.1,2.032,2.371,2.3,3.27.151.417-.51.972-1.164.972s-7.263.082-8.144.136c-.8.05-3.511.2-3.913.283-.428.086-1.745.263-2.164-.087-.389-.325-.6-2.3-.683-3.218S82.306-10.606,82.306-10.606Z" transform="translate(-82.306 10.606)" fill="#333d47"/>
  <path id="Path_4075" data-name="Path 4075" d="M92.458,1.68h8.833A7.135,7.135,0,0,0,101.14,4.4c.226,1.372,2.416,7.319,2.642,7.908s.728,1.507.906,1.917a3.366,3.366,0,0,1-.591,3.1,6.2,6.2,0,0,1-2.922,1.77c-1.071.349-2.74,1.236-3.269,1.258s-2.705-.381-1.523-1.6,1.963-1.307,2.038-1.873a12.45,12.45,0,0,0-1.082-4.161,15.682,15.682,0,0,1-1.1-5.37,5.317,5.317,0,0,0-1.265-3.366C94.472,3.4,92.735,3.141,92.458,1.68Z" transform="translate(-86.327 4.743)" fill="#333d47"/>
  <path id="Path_4076" data-name="Path 4076" d="M93.2,6.471s1.057.033,1.34.736a6.713,6.713,0,0,1,.377,1.258,4.889,4.889,0,0,1,.094.488s-1.132.3-1.3.182a10.91,10.91,0,0,1-.51-2.01C93.166,6.994,93.065,6.459,93.2,6.471Z" transform="translate(-86.594 2.457)" fill="#333d47"/>
</svg>
