<svg xmlns="http://www.w3.org/2000/svg" width="27.909" height="37.77" viewBox="0 0 27.909 37.77">
  <g id="Group_4574" data-name="Group 4574" transform="translate(0 0)">
    <path id="Path_4074" data-name="Path 4074" d="M82.306-10.606c1.14.014,7.161.367,11.213.569s9.4.573,9.844.656c.8.147,3.058,3.568,3.46,4.92.227.627-.767,1.462-1.752,1.462s-10.928.123-12.253.205c-1.209.075-5.283.305-5.887.426-.644.129-2.625.4-3.256-.131-.585-.489-.9-3.467-1.028-4.842C82.52-8.7,82.306-10.606,82.306-10.606Z" transform="translate(-82.306 10.606)" fill="#1dab35"/>
    <path id="Path_4075" data-name="Path 4075" d="M92.458,1.68h13.289a10.735,10.735,0,0,0-.227,4.1c.341,2.065,3.635,11.012,3.975,11.9s1.095,2.267,1.363,2.884c.811,1.866-.322,3.883-.89,4.67a9.33,9.33,0,0,1-4.4,2.663c-1.612.525-4.123,1.86-4.918,1.893s-4.07-.573-2.291-2.409,2.953-1.966,3.067-2.818-.492-3.376-1.627-6.26a23.593,23.593,0,0,1-1.657-8.079,8,8,0,0,0-1.9-5.064C95.488,4.269,92.874,3.879,92.458,1.68Z" transform="translate(-83.233 7.984)" fill="#1dab35"/>
    <path id="Path_4076" data-name="Path 4076" d="M93.239,6.471s1.59.05,2.016,1.107a10.1,10.1,0,0,1,.568,1.893,7.351,7.351,0,0,1,.142.734s-1.7.446-1.959.274a16.414,16.414,0,0,1-.767-3.024C93.183,7.258,93.031,6.453,93.239,6.471Z" transform="translate(-83.295 6.962)" fill="#1dab35"/>
  </g>
</svg>
