<svg id="Zebra_Hardware" data-name="Zebra Hardware" xmlns="http://www.w3.org/2000/svg" viewBox="0 0 512 512"><title>FX9600</title><path d="M512,176V144l-32-16V96a32,32,0,0,0-32-32H64A32,32,0,0,0,32,96v32L0,144v32l32,16V304L0,320v32l32,16v16a32,32,0,0,0,32,32H96v24a8,8,0,0,0,8,8h16a8,8,0,0,0,8-8V416h32v24a8,8,0,0,0,8,8h16a8,8,0,0,0,8-8V416h32v24a8,8,0,0,0,8,8h16a8,8,0,0,0,8-8V416h32v24a8,8,0,0,0,8,8h16a8,8,0,0,0,8-8V416h32v16h64V416h32a32,32,0,0,0,32-32V368l32-16V320l-32-16V192ZM24,168a8,8,0,1,1,8-8h0A8,8,0,0,1,24,168Zm0,176a8,8,0,1,1,8-8h0A8,8,0,0,1,24,344ZM176,144a16,16,0,0,1-32,0V112a16,16,0,0,1,32,0Zm96-32a16,16,0,0,1,32,0v32a16,16,0,0,1-32,0Zm-64,0a16,16,0,0,1,32,0v32a16,16,0,0,1-32,0Zm-7.81,145.34,20.35,20.36h0V265l-16.77-16.77a44.38,44.38,0,0,1,5.07-7.68l20.71,20.71v38.25h0V300c-1-1.05-30.9-31.43-30.9-31.43A44.75,44.75,0,0,1,200.19,257.34ZM256.6,352l-57.79-57.79V281.47l57.79,57.78Zm0-25.49-18-18V257.4l-23.35-23.26a45.66,45.66,0,0,1,3.89-2.85,42.24,42.24,0,0,1,3.8-2.21l24.67,24.59h0V224a14.85,14.85,0,0,1,1.4,29.63h11.55l0,0,9,9h-22v42.1l9,9Zm0-20.26,0-43.54,9,9.06,0,34.48Zm9.05-34.47h12.91l9,9H274.62Zm32.89,49.39a14.85,14.85,0,0,1-14.85-14.86h-9V280.8l9,9v16.49h9V294.92h9l11.67,11.39A14.85,14.85,0,0,1,298.5,321.17ZM352,160a16,16,0,0,1-16-16V112a16,16,0,0,1,16-16h0a16,16,0,0,1,16,16v32a16,16,0,0,1-16,16Zm136-8a8,8,0,1,1-8,8h0A8,8,0,0,1,488,152Zm0,176a8,8,0,1,1-8,8h0A8,8,0,0,1,488,328Z"/></svg>