<svg id="API" xmlns="http://www.w3.org/2000/svg" viewBox="0 0 512 512"><title>Handhelds</title><path d="M225.46,54.87c-2.1-2-9.29-6.2-33.79-12.56C186.75,41,150.66,40.06,128,40c-22.64.11-58.73,1.09-63.65,2.36-24.5,6.36-31.69,10.6-33.79,12.56-5.76,5.38-6.34,8.69-6.44,11.37-.22,8.3-.23,358.64,0,363.94.27,4.22,1.92,12,4.58,15.16,4.7,5.61,18,12.76,27,15.67,7,2.24,42.88,3,71.53,3h1.5c28.65,0,64.57-.8,71.54-3,9-2.91,22.33-10.06,27-15.67,2.66-3.17,4.31-10.94,4.58-15.2.23-5.25.22-355.59,0-363.91C231.8,63.56,231.22,60.25,225.46,54.87ZM224,408H32V88H224Z"/><path d="M256,192V104l-.34-33.38s.8-13.18-1.61-24.41S246,31.85,242,28.85s-15.93-9.27-24-13.19S191.79,5.09,190.45,4.57s-5-1.18-13.66-2.22S128,0,128,0,87.92,1.31,79.21,2.35,66.89,4.05,65.55,4.57,46,11.75,38,15.66,18,25.85,14,28.85,4.36,35,2,46.21.34,70.62.34,70.62L0,104v88l8,8V360l-8,8v32c0,8,1.41,39.65,2.21,46.05s3.62,23,17.15,34.07,16.2,12.66,29.05,19.71,13.93,7.7,30.67,9.66S122.63,512,128,512s32.31-.56,48.92-2.51,17.81-2.61,30.67-9.66,15.53-8.61,29-19.71,16.34-27.67,17.15-34.07S256,408,256,400V368l-8-8V200ZM239.79,430.65c-.3,4.54-2,14.52-6.41,19.77-6.44,7.68-22.11,15.35-30.67,18.11-9.58,3.09-54.91,3.42-74,3.42h-1.5c-19,0-64.38-.33-74-3.42-8.56-2.76-24.23-10.43-30.67-18.11-4.4-5.26-6.12-15.23-6.41-19.77-.34-5.33-.09-362.31,0-364.68.21-6.18,2.89-11.22,8.94-16.88,4.77-4.45,16.94-9.17,37.2-14.43,7.41-1.92,54.4-2.56,65.63-2.61s58.26.69,65.67,2.61c20.26,5.26,32.43,10,37.2,14.43,6.05,5.65,8.73,10.7,8.94,16.88C239.88,68.34,240.13,425.33,239.79,430.65Z"/><path d="M391.91,24h64a4,4,0,0,0,0-8h-64a4,4,0,0,0,0,8Z"/><path d="M464,0H383.83a48,48,0,0,0-48,48V256a64,64,0,0,0,52.08,62.88V488a24,24,0,0,0,24,24h24a24,24,0,0,0,24-24V318.88A64,64,0,0,0,512,256V48A48,48,0,0,0,464,0ZM445.67,296H402.16a8,8,0,0,1-7.76-9.94l2.48-9.94A16,16,0,0,1,412.41,264h23a16,16,0,0,1,15.52,12.12l2.49,9.94A8,8,0,0,1,445.67,296Zm58.24-56a40,40,0,0,1-40,40h-3.75l-1.45-5.82A24,24,0,0,0,435.42,256h-23a24,24,0,0,0-23.29,18.18L387.67,280h-3.76a40,40,0,0,1-40-40V48a40,40,0,0,1,40-40h80a40,40,0,0,1,40,40Z"/><rect x="351.91" y="40" width="144" height="208"/></svg>