<svg xmlns="http://www.w3.org/2000/svg" width="26.906" height="24.362" viewBox="0 0 26.906 24.362">
  <g id="Group_3979" data-name="Group 3979" transform="translate(-5542.16 -18943)">
    <g id="Group_3977" data-name="Group 3977" transform="translate(5542.16 18949.492)">
      <path id="Path_5006" data-name="Path 5006" d="M38.831,53.5q-4.164-.014-8.326,0a2.453,2.453,0,1,0-.062,4.906c1,.006,2,0,3.007,0h2.413q1.479,0,2.955,0h.015a2.407,2.407,0,0,0,1.891-.809,2.358,2.358,0,0,0,.432-2.608A2.4,2.4,0,0,0,38.831,53.5Zm.742,3.084a.887.887,0,0,1-.745.289q-.891,0-1.782,0H30.452a.913.913,0,0,1-.673-1.542.9.9,0,0,1,.729-.291q4.16-.008,8.319,0a.877.877,0,0,1,.919.564.84.84,0,0,1-.172.981Z" transform="translate(-21.222 -46.842)" fill="#013369"/>
      <path id="Path_5007" data-name="Path 5007" d="M43.438,43.346a1,1,0,0,0-1.092-1.1q-3.176,0-6.353,0H33.609a.768.768,0,0,0-.543.225L30,45.539l-3.061-3.062a.768.768,0,0,0-.543-.225H24.885q-3.627,0-7.254-.007a1.1,1.1,0,0,0-.8.3,1.085,1.085,0,0,0-.281.812c.015,1.057.015,1.93,0,2.746a.982.982,0,0,0,1.064,1.083h.621q.014,5.95,0,11.9a1,1,0,0,0,.275.74,1.1,1.1,0,0,0,.805.286h.017q10.669-.01,21.338,0a.972.972,0,0,0,1.085-1.01q-.012-5.957,0-11.913h.605a1,1,0,0,0,1.083-1.123C43.42,45.128,43.421,44.214,43.438,43.346Zm-25.349.441q3.4.01,6.8.005H26.08l1.848,1.848h-.171c-3.215,0-6.426,0-9.668,0C18.1,45.076,18.1,44.472,18.089,43.787ZM40.212,58.57q-5.341,0-10.688,0-4.869,0-9.753,0,.012-5.662,0-11.324,4.095.008,8.19,0h4.233c2.66,0,5.32,0,8.02,0Q40.2,52.908,40.212,58.57Zm1.682-12.924q-3.671-.008-7.342-.007H32.077l1.849-1.85h7.967Q41.881,44.685,41.894,45.646Z" transform="translate(-16.541 -42.244)" fill="#013369"/>
    </g>
    <path id="Path_5008" data-name="Path 5008" d="M38.917,34.653l-1.271,1.272V32.147a.887.887,0,0,0-1.773,0V35.91L34.6,34.636a.887.887,0,1,0-1.254,1.254L36.1,38.641a.878.878,0,0,0,.662.3h.015a.887.887,0,0,0,.3-.059l.052-.021a.863.863,0,0,0,.236-.155c.012-.011.027-.014.038-.025l2.778-2.778a.888.888,0,1,0-1.258-1.253Z" transform="translate(5518.854 18911.74)" fill="#013369"/>
  </g>
</svg>
