<svg id="Group_212" data-name="Group 212" xmlns="http://www.w3.org/2000/svg" width="15.545" height="14.118" viewBox="0 0 15.545 14.118">
  <g id="Group_207" data-name="Group 207" transform="translate(3.471 0)">
    <path id="Path_4240" data-name="Path 4240" d="M343.853,609.936h-.024a1.877,1.877,0,0,1-1.442-.7l-2.422-2.995a1.064,1.064,0,0,1,1.655-1.337l2.239,2.769,6.071-7.132a1.064,1.064,0,1,1,1.62,1.379l-6.26,7.353A1.883,1.883,0,0,1,343.853,609.936Z" transform="translate(-339.729 -600.167)" fill="#fff"/>
  </g>
  <g id="Group_208" data-name="Group 208" transform="translate(0 0.059)">
    <path id="Path_4241" data-name="Path 4241" d="M346.545,614.309h-9.068a2.647,2.647,0,0,1-2.643-2.643v-8.772a2.647,2.647,0,0,1,2.643-2.643h4.652a.886.886,0,1,1,0,1.772h-4.652a.873.873,0,0,0-.871.871v8.772a.872.872,0,0,0,.871.871h9.068a.872.872,0,0,0,.871-.871v-3.157a.886.886,0,0,1,1.772,0v3.157A2.647,2.647,0,0,1,346.545,614.309Z" transform="translate(-334.833 -600.25)" fill="#fff"/>
  </g>
</svg>
