<svg xmlns="http://www.w3.org/2000/svg" width="44.47" height="44.469" viewBox="0 0 44.47 44.469">
  <g id="Group_2987" data-name="Group 2987" transform="translate(0 27.884) rotate(-45)">
    <path id="Path_4287" data-name="Path 4287" d="M550.254,78a9.716,9.716,0,0,1,.951.94c2.351,2.482,7.855,8.3,17.718,8.3h0c9.833,0,15.383-5.84,17.753-8.335a9.679,9.679,0,0,1,.92-.9l.034-.029a3.49,3.49,0,0,0,0-4.916l-.034-.028a9.981,9.981,0,0,1-.952-.943c-2.351-2.484-7.857-8.3-17.717-8.3h0c-9.84,0-15.386,5.845-17.755,8.34a9.786,9.786,0,0,1-.917.9l-.032.028a3.482,3.482,0,0,0,0,4.916Zm8.229,3.636V69.393a19.987,19.987,0,0,1,20.886,0V81.638A19.98,19.98,0,0,1,558.483,81.638Zm25.451-3.749c-.8.808-1.269,1.285-1.9,1.822V71.322c.636.544,1.114,1.03,1.932,1.857.455.458,1.023,1.032,1.769,1.768a.806.806,0,0,1,0,1.139h0c-.768.758-1.343,1.336-1.806,1.8Zm-28.123-6.566V79.71c-.634-.546-1.115-1.032-1.932-1.857-.455-.46-1.021-1.032-1.769-1.768a.806.806,0,0,1,0-1.139c.741-.726,1.3-1.293,1.75-1.749.8-.809,1.31-1.318,1.951-1.875Z" transform="translate(-549.209 -63.787)" fill="#013369"/>
    <path id="Path_4288" data-name="Path 4288" d="M566.521,76.483V74.606h1.612v1.877a1.336,1.336,0,0,0,2.671,0V74.606h.806a1.336,1.336,0,0,0,0-2.671H570.8V70.058a1.336,1.336,0,0,0-2.671,0v1.877h-1.612V70.058a1.336,1.336,0,0,0-2.671,0v1.877h-1.612V70.058a1.335,1.335,0,1,0-2.67,0v1.877h-.807a1.336,1.336,0,0,0,0,2.671h.807v1.877a1.335,1.335,0,1,0,2.67,0V74.606h1.612v1.877a1.336,1.336,0,0,0,2.671,0Z" transform="translate(-545.469 -61.542)" fill="#013369"/>
  </g>
</svg>
