<svg xmlns="http://www.w3.org/2000/svg" width="52.542" height="46.017" viewBox="0 0 52.542 46.017">
  <g id="devices-icon" transform="translate(-47.032 -429.112)">
    <path id="Path_3583" data-name="Path 3583" d="M81.145,445.086a6.544,6.544,0,0,1-6.7,6.475c-2.959,0-6.547-2.9-6.415-6.654a6.559,6.559,0,1,1,13.117.179Z" fill="#013c88"/>
    <path id="Path_3584" data-name="Path 3584" d="M60.234,470.739a4.249,4.249,0,0,1,4.24-4.281,1.154,1.154,0,0,0,1.25-.927c1.546-4.093,3.117-8.177,4.68-12.264.2-.521.274-1.039,1.137-.682.783.325.772.632.5,1.316-1.5,3.832-2.955,7.685-4.435,11.528a2.525,2.525,0,0,1-.371.569.958.958,0,0,0,.138,1.518,4.315,4.315,0,0,1-3.969,7.436A4.2,4.2,0,0,1,60.234,470.739Z" fill="#013c88"/>
    <path id="Path_3585" data-name="Path 3585" d="M99.574,458.736a3.941,3.941,0,0,1-2.42,3.509,4.085,4.085,0,0,1-4.5-.436,4.039,4.039,0,0,1-1.622-4.313.987.987,0,0,0-.526-1.246q-4.292-2.742-8.543-5.546c-.354-.233-1.195-.3-.517-1.16.454-.579.685-.906,1.413-.358,2.069,1.557,4.4,2.726,6.425,4.369a23.419,23.419,0,0,0,2.518,1.461c.55.341.815-.124,1.131-.343,1.575-1.092,3.152-.512,4.66.06C98.743,455.167,99.563,456.872,99.574,458.736Z" fill="#013c88"/>
    <path id="Path_3586" data-name="Path 3586" d="M51.241,454.913a4.394,4.394,0,0,1-4.1-3.17,4.71,4.71,0,0,1,2.15-4.989,4.059,4.059,0,0,1,5.2.942,1.838,1.838,0,0,0,2.4.7c1.825-.521,3.665-1,5.517-1.409a22.028,22.028,0,0,0,3.636-.909c.428-.175.395.162.46.443.14.6.358,1.19-.519,1.406-1.273.314-2.544.638-3.816.954-1.814.45-3.621.932-5.446,1.329a1.233,1.233,0,0,0-1.15,1.18A4.217,4.217,0,0,1,51.241,454.913Z" fill="#013c88"/>
    <path id="Path_3587" data-name="Path 3587" d="M54.93,433.5a4.3,4.3,0,0,1,6.233-3.886c1.685.931,2.865,2.4,2.305,4.76a1.328,1.328,0,0,0,.636,1.66c1.33.922,2.589,1.946,3.921,2.865.579.4.446.7.074,1.1-.313.333-.459.912-1.14.36-1.3-1.051-2.7-1.974-4-3.016a1.144,1.144,0,0,0-1.542-.118A4.308,4.308,0,0,1,54.93,433.5Z" fill="#013c88"/>
    <path id="Path_3588" data-name="Path 3588" d="M90.835,439.578a3.644,3.644,0,0,1-2.8-.976.911.911,0,0,0-1.409-.113c-1.181,1.039-2.677,1.565-3.918,2.5-.388.292-.775.493-1-.167-.143-.426-.9-.8.017-1.3,1.459-.8,2.844-1.737,4.28-2.582.377-.221.613-.38.527-.9a4.233,4.233,0,0,1,2.6-4.79c2.323-.8,3.893-.131,5.3,1.721a4.206,4.206,0,0,1-.6,5.349A3.815,3.815,0,0,1,90.835,439.578Z" fill="#013c88"/>
  </g>
</svg>
