<svg xmlns="http://www.w3.org/2000/svg" width="20.367" height="18.47" viewBox="0 0 20.367 18.47">
  <g id="Group_4173" data-name="Group 4173" transform="translate(1193.032 -250.786)">
    <path id="Path_5499" data-name="Path 5499" d="M-1191.969,342.035a3.932,3.932,0,0,1-.459-.237,1.317,1.317,0,0,1-.6-1.131c-.005-1.76,0-3.52,0-5.281,0-.11.028-.142.14-.141.813,0,1.626.008,2.439,0,.167,0,.138.089.138.185,0,1.23,0,2.46,0,3.69,0,.165.04.206.206.206q7.263-.007,14.527,0c.162,0,.209-.035.208-.2-.008-1.23,0-2.46-.008-3.69,0-.146.032-.187.183-.186.792.008,1.583.007,2.375,0,.129,0,.164.028.164.161-.005,1.739,0,3.478,0,5.217a1.329,1.329,0,0,1-1.123,1.379c-.009,0-.014.021-.021.033Z" transform="translate(0 -72.78)" fill="#013369"/>
    <path id="Path_5500" data-name="Path 5500" d="M-1146.042,254.505q0-1.56,0-3.12a.521.521,0,0,1,.6-.6q.929,0,1.859,0a.513.513,0,0,1,.572.575q0,3.159,0,6.319c0,.132.023.175.167.172.588-.01,1.177,0,1.765-.006a.532.532,0,0,1,.544.3.524.524,0,0,1-.13.6q-1.714,1.955-3.424,3.912a.516.516,0,0,1-.869-.006q-1.713-1.956-3.423-3.914a.505.505,0,0,1-.083-.671.529.529,0,0,1,.477-.222c.6,0,1.208,0,1.812,0,.123,0,.143-.035.142-.148C-1146.044,256.638-1146.042,255.571-1146.042,254.505Z" transform="translate(-38.319)" fill="#013369"/>
  </g>
</svg>
