<svg id="duplicate-icon" xmlns="http://www.w3.org/2000/svg" width="19.8" height="19.8" viewBox="0 0 19.8 19.8">
  <path id="Path_5257" data-name="Path 5257" d="M414.684,619.75H403.86c-.057-.14-.2-.1-.3-.131a3.2,3.2,0,0,1-2.312-3.016c-.011-.3-.075-.375-.381-.388a3.174,3.174,0,0,1-3.047-2.326c-.026-.075,0-.184-.118-.211V602.854c.146-.07.113-.228.146-.34a3.521,3.521,0,0,1,1.436-1.96,6.242,6.242,0,0,1,1.41-.6h10.472c.017.021.033.06.052.062a3.121,3.121,0,0,1,2.741,3.163c0,.253.066.309.309.314a3.3,3.3,0,0,1,2.088.765A3.834,3.834,0,0,1,417.5,606.2v10.736a.74.74,0,0,0-.067.157,3.1,3.1,0,0,1-2.021,2.443C415.178,619.628,414.927,619.679,414.684,619.75Zm1.407-8.139q0-2.376,0-4.752a1.836,1.836,0,0,0-1.973-1.973c-.968-.005-1.936,0-2.9,0-2.2,0-4.4-.007-6.6,0a1.849,1.849,0,0,0-1.975,1.984q0,4.75,0,9.5a1.841,1.841,0,0,0,1.942,1.965q4.8,0,9.591,0a1.817,1.817,0,0,0,1.918-1.933C416.094,614.808,416.091,613.209,416.091,611.611Zm-16.981-3.38c0,1.6-.006,3.2,0,4.792a1.8,1.8,0,0,0,1.688,1.8c.32.019.447-.041.444-.411-.019-2.492-.009-4.983-.011-7.475a3.843,3.843,0,0,1,.12-1.042,3.226,3.226,0,0,1,3.218-2.408c2.521-.008,5.042-.012,7.562.008.392,0,.466-.124.432-.472a1.809,1.809,0,0,0-1.831-1.658q-4.725-.006-9.452,0a2.125,2.125,0,0,0-2.171,2.164C399.105,605.095,399.11,606.663,399.11,608.231Z" transform="translate(-397.7 -599.95)" fill="#fff"/>
  <path id="Path_5258" data-name="Path 5258" d="M408.678,613.87c0-.4-.023-.792.007-1.186.024-.325-.1-.388-.4-.381-.776.019-1.553.01-2.329.005-.542,0-.818-.245-.816-.7s.287-.68.83-.683c.791-.005,1.582-.014,2.373.005.279.007.345-.084.34-.349-.016-.806-.01-1.612-.005-2.417,0-.495.265-.778.694-.773a.664.664,0,0,1,.682.746c.013.791.018,1.582,0,2.373-.008.316.06.436.406.422.731-.029,1.464-.01,2.2-.008.633,0,.962.245.957.7-.006.438-.335.678-.938.679-.688,0-1.379.036-2.064-.012-.486-.033-.582.146-.56.584.035.7.012,1.406.008,2.109,0,.551-.272.88-.7.872s-.67-.317-.675-.849C408.675,614.632,408.678,614.251,408.678,613.87Z" transform="translate(-397.7 -599.95)" fill="#fff"/>
</svg>
