<svg xmlns="http://www.w3.org/2000/svg" width="56.688" height="59.211" viewBox="0 0 56.688 59.211">
  <g id="Group_2586" data-name="Group 2586" transform="translate(-6485.312 -11203.797)">
    <g id="Group_2585" data-name="Group 2585" transform="translate(5226.505 11062.016)">
      <path id="Path_3595" data-name="Path 3595" d="M1267.657,144.751a8.854,8.854,0,1,0,8.859,8.851A8.862,8.862,0,0,0,1267.657,144.751Z" transform="translate(0.002 17.778)" fill="#013c88"/>
      <g id="Group_2583" data-name="Group 2583" transform="translate(1258.807 183.278)">
        <path id="Path_3596" data-name="Path 3596" d="M1267.652,165.435a8.855,8.855,0,1,1,8.851-9.375v.007a8.86,8.86,0,0,1-8.319,9.347C1268,165.428,1267.827,165.435,1267.652,165.435Zm.007-14.216c-.1,0-.209,0-.314.007a5.328,5.328,0,0,0-3.689,1.788,5.36,5.36,0,0,0,4.318,8.914,5.368,5.368,0,0,0,5.036-5.658h0A5.369,5.369,0,0,0,1267.66,151.219Z" transform="translate(-1258.807 -147.721)" fill="#013c88"/>
      </g>
      <g id="Group_2584" data-name="Group 2584" transform="translate(1258.809 141.781)">
        <path id="Path_3597" data-name="Path 3597" d="M1267.657,159.483a8.851,8.851,0,1,1,8.859-8.851A8.857,8.857,0,0,1,1267.657,159.483Zm0-14.209a5.358,5.358,0,1,0,5.365,5.358A5.363,5.363,0,0,0,1267.657,145.274Z" transform="translate(-1258.807 -141.781)" fill="#013c88"/>
      </g>
    </g>
    <rect id="Rectangle_2964" data-name="Rectangle 2964" width="35" height="11" rx="5" transform="translate(6507 11207)" fill="#013c88"/>
    <rect id="Rectangle_2965" data-name="Rectangle 2965" width="35" height="11" rx="5" transform="translate(6507 11228)" fill="#013c88"/>
    <rect id="Rectangle_2966" data-name="Rectangle 2966" width="35" height="11" rx="5" transform="translate(6507 11249)" fill="#013c88"/>
  </g>
</svg>
