<svg xmlns="http://www.w3.org/2000/svg" width="128.657" height="128.658" viewBox="0 0 128.657 128.658">
  <g id="Group_3413" data-name="Group 3413" transform="translate(-6.537 -6.537)">
    <circle id="Ellipse_447" data-name="Ellipse 447" cx="64.329" cy="64.329" r="64.329" transform="translate(6.537 6.537)" fill="#ff3d00"/>
    <g id="Group_3411" data-name="Group 3411">
      <path id="Path_4586" data-name="Path 4586" d="M38.128,110.6a7,7,0,0,1-4.95-11.95L98.655,33.178a7,7,0,0,1,9.9,9.9L43.077,108.554A6.975,6.975,0,0,1,38.128,110.6Z" fill="#fff"/>
    </g>
    <g id="Group_3412" data-name="Group 3412">
      <path id="Path_4587" data-name="Path 4587" d="M103.605,110.6a6.979,6.979,0,0,1-4.95-2.05L33.178,43.077a7,7,0,0,1,9.9-9.9l65.478,65.476a7,7,0,0,1-4.95,11.95Z" fill="#fff"/>
    </g>
  </g>
</svg>
