<svg xmlns="http://www.w3.org/2000/svg" width="143.817" height="89.971" viewBox="0 0 143.817 89.971">
  <g id="Group_2408" data-name="Group 2408" transform="translate(-1474.412 323.587)">
    <path id="Path_3493" data-name="Path 3493" d="M1618.23-278.822l-4.774-6.829a1.209,1.209,0,0,1-.574-.748l-1.906-2.364a134.1,134.1,0,0,0-15.809-15.9l-2.229-1.794-.526-.378-9.006-6.143-5.944-3.223-5.863-2.626-2.854-1.012-5.861-1.8-3.083-.646-2.82-.536a10.935,10.935,0,0,1-3.11-.456,92.031,92.031,0,0,0-14.593-.05l-3.05.455-2.84.418a16.123,16.123,0,0,1-3.061.713l-2.85.717-5.893,1.974-5.9,2.524-5.9,3.136-5.94,3.78-.515.346-2.591,1.9c-4.034,3.147-7.855,6.54-11.563,10.063-3.564,3.759-7,7.628-10.226,11.687a8.486,8.486,0,0,1-1.479,1.935,1.552,1.552,0,0,1-.589.835l-2.377,3.644a1.4,1.4,0,0,0-.093.573l5.33,7.553.487.607,2.009,2.5c3.143,3.6,6.386,7.1,9.792,10.452l4.605,4.136a4,4,0,0,1,1.337,1.108l2.547,2.011.277.209,9.309,6.235,5.546,2.929,5.945,2.588,2.772,1.03,6.341,1.834,2.679.606,2.8.441,3.087.451a8.961,8.961,0,0,1,2.823.244l3.077.081,2.817-.015,3.055-.158,2.86-.241,3.076-.439,2.818-.538,3.08-.643,5.915-1.9,2.8-.926,5.865-2.623,5.613-3a1.449,1.449,0,0,1,.892-.552l2.535-1.6,5.783-4.12,2.882-2.262.879-.717,2.266-1.963,4.205-3.938,1.693-1.7,3.912-4.213,1.976-2.286.462-.562,2.322-2.875a.126.126,0,0,1,.107-.163l5.243-7.366Zm-11.883,1.271c-.939,1.2-1.815,2.455-2.718,3.687l-2.306,2.981a82.21,82.21,0,0,1-11.857,11.864,22.573,22.573,0,0,1-2.975,2.279l-.817.6a10.526,10.526,0,0,1-2.27,1.618,36.887,36.887,0,0,1-5.6,3.444,33.667,33.667,0,0,1-6.206,3.055,30.175,30.175,0,0,1-5.443,2.092,15.474,15.474,0,0,1-3.273.987l-3.047.777a29.733,29.733,0,0,1-5.944.954,41.031,41.031,0,0,1-8.71.488,9.577,9.577,0,0,1-3.107-.18,9.718,9.718,0,0,1-2.788-.215,14.576,14.576,0,0,1-3.11-.418,29.437,29.437,0,0,1-5.928-1.292,30.4,30.4,0,0,1-7.012-2.292,4.412,4.412,0,0,1-1.67-.646,50.364,50.364,0,0,1-10.471-5.539,3.259,3.259,0,0,1-1.346-.859,14.487,14.487,0,0,1-2.824-1.975l-.291-.223a78.468,78.468,0,0,1-14.1-13,38.1,38.1,0,0,1-3.559-4.5l-.38-.525a11.276,11.276,0,0,1-1.849-2.563c-.677-.869-1.67-1.7-.351-2.817a75.244,75.244,0,0,1,11.459-13.775,69.938,69.938,0,0,1,11.895-9.562,46.985,46.985,0,0,1,8.36-4.806,34.012,34.012,0,0,1,6.268-2.708,15.219,15.219,0,0,1,3.051-1.048,10.754,10.754,0,0,1,2.834-.78,1.1,1.1,0,0,1,.859-.2,34.661,34.661,0,0,1,8.157-1.507,9.8,9.8,0,0,1,2.8-.216,9.553,9.553,0,0,1,3.107-.18l2.8.014a9.453,9.453,0,0,1,3.1.207,7.35,7.35,0,0,1,2.811.268,14.731,14.731,0,0,1,3.122.395,39.185,39.185,0,0,1,5.87,1.336,11.982,11.982,0,0,1,2.817.844,32.071,32.071,0,0,1,5.9,2.236,16.42,16.42,0,0,1,3.464,1.607,4.469,4.469,0,0,1,1.618.85l.83.41a42.973,42.973,0,0,1,5.893,3.632,11.362,11.362,0,0,1,2.555,1.849l.532.373a79.417,79.417,0,0,1,17.52,17.641l.212.288a13.316,13.316,0,0,1,1.982,2.829C1607.086-279.083,1606.987-278.371,1606.347-277.551Z" fill="#013369"/>
    <path id="Path_3494" data-name="Path 3494" d="M1668.627-206.859l-2.83.715-3.077.36-2.816.013-3.087-.29-2.815-.585a52.841,52.841,0,0,1-5.868-2.368,41.371,41.371,0,0,1-5.946-4.367l-.008-.008a39.409,39.409,0,0,1-4.763-6.192l-.755-1.452a3.308,3.308,0,0,0-.637-1.388l-.935-2.778-.715-2.833-.356-3.074-.013-2.817.289-3.087.584-2.816.9-2.726a46.7,46.7,0,0,1,3.394-6.2l2.445-2.885.572-.572,2.881-2.458h0a49.686,49.686,0,0,1,6.205-3.383l2.724-.9,2.816-.584,3.087-.289,2.816.013,3.077.356,2.83.715,2.781.936a3.328,3.328,0,0,0,1.39.639l1.448.752a38.517,38.517,0,0,1,6.189,4.773,40.2,40.2,0,0,1,4.378,5.944,52.981,52.981,0,0,1,2.368,5.868l.585,2.815.29,3.087-.014,2.816-.359,3.073-.715,2.834a41.877,41.877,0,0,1-2.324,5.613,29.775,29.775,0,0,1-10.4,10.4A42.021,42.021,0,0,1,1668.627-206.859Z" transform="translate(-114.73 -45.84)" fill="#013369"/>
  </g>
</svg>
