<?xml version="1.0" encoding="utf-8"?>
<!-- Generator: Adobe Illustrator 24.0.2, SVG Export Plug-In . SVG Version: 6.00 Build 0)  -->
<svg version="1.1" id="Capa_1" xmlns="http://www.w3.org/2000/svg" xmlns:xlink="http://www.w3.org/1999/xlink" x="0px" y="0px"
	 viewBox="0 0 1366 702.8" style="enable-background:new 0 0 1366 702.8;" xml:space="preserve">
<style type="text/css">
	.st0{fill:#013369;}
</style>
<g>
	<path class="st0" d="M1346.7,321c-176-192.5-410.5-298.5-660.4-298.5c-0.6,0-1.2,0.1-1.8,0.1c-0.3,0-0.6-0.1-0.9-0.1
		c-0.8,0-1.6,0.1-2.5,0.1C433.3,24.1,200.8,129.8,26,321l-5.3,5.8c-9,9.8-8.9,25.7,0.1,35.5c4.5,4.8,10.4,7.3,16.3,7.3
		c5.9,0,11.9-2.5,16.4-7.4l5.3-5.8C180.1,223.7,330.6,134.6,494.7,95.4c-67.9,59.8-111.5,151-111.5,253.2
		c0,179.8,134.8,326.1,300.5,326.1s300.5-146.3,300.5-326.1c0-103.2-44.6-195.2-113.8-255c167,38.2,320.3,128.1,443.5,262.8
		c9,9.9,23.6,9.9,32.7,0.2C1355.6,346.7,1355.7,330.8,1346.7,321z M938,348.6c0,152.1-114.1,275.9-254.3,275.9
		S429.4,500.7,429.4,348.6c0-151.2,112.8-274.3,251.8-275.8c1.1,0,2.2-0.1,3.3-0.1C824.4,73.2,938,196.8,938,348.6z"/>
	<path class="st0" d="M846.2,323.5c-12.8,0-23.1,11.2-23.1,25.1c0,83-62.2,150.5-138.7,150.5s-138.7-67.5-138.7-150.5
		s62.2-150.5,138.7-150.5c12.8,0,23.1-11.2,23.1-25.1c0-13.8-10.4-25.1-23.1-25.1c-102,0-184.9,90-184.9,200.7s83,200.7,184.9,200.7
		s184.9-90,184.9-200.7C869.3,334.7,858.9,323.5,846.2,323.5z"/>
</g>
<circle class="st0" cx="684.3" cy="351.4" r="110"/>
</svg>
