<svg id="Group_20" data-name="Group 20" xmlns="http://www.w3.org/2000/svg" width="53.868" height="52.425" viewBox="0 0 53.868 52.425">
  <path id="Path_1781" data-name="Path 1781" d="M34.59,253.725v-1.2a16.031,16.031,0,0,1,2.247-.944c3.339-.856,6.7-1.645,9.859-2.414v-9.431a26.939,26.939,0,0,0-2.622,1.3,8.438,8.438,0,0,1-5.059,1.5c-1.6-.068-2.064-.451-1.921-2.014a33.517,33.517,0,0,1,.774-5.3,25.784,25.784,0,0,1,49.719-.158c.4,1.486.585,3.027.87,4.543v3.591a22.313,22.313,0,0,0-.4,7.32,3.345,3.345,0,0,1-.4,1.886c-1.123,1.828-2.379,3.574-3.551,5.373a1.388,1.388,0,0,1-1.934.591c-1.022-.436-2.073-.808-3.076-1.282a2.472,2.472,0,0,0-2.386-.061,27.941,27.941,0,0,0-4.845,2.962c-5.074,4.487-14.024,4.528-18.269-2.648-.148-.25-.426-.618-.628-.608-1.09.053-2.174.209-3.1.312a39.44,39.44,0,0,1-.754,4.29c-1.27,4.346-6.978,7.923-11.464,7.182a1.83,1.83,0,0,1-1.125-1.238c-.407-2.307-.653-4.643-.976-6.966C35.237,258.11,34.908,255.918,34.59,253.725Zm4.975-13.249a34.1,34.1,0,0,0,3.239-1.531,7.369,7.369,0,0,1,6.585-1.028A7.157,7.157,0,0,1,54,244.558a59.435,59.435,0,0,0,.288,7.627c.615,3.892,2.662,6.955,6.64,8.12a9.4,9.4,0,0,0,9.245-2.1,17.541,17.541,0,0,1,6.458-3.73,4.542,4.542,0,0,0,1.883-1.07c2.179-2.218,4.3-4.492,6.4-6.792a2.888,2.888,0,0,0,.816-1.636,35.127,35.127,0,0,0-.058-7.362c-1.911-10.4-9.684-17.551-20.191-18.886a23.336,23.336,0,0,0-23.8,12.911A19.822,19.822,0,0,0,39.565,240.477Zm-.857,25.6c5.515-.4,9.039-4.079,8.4-8.791l-9.436.972Zm8.321-14.517c-2.883.692-5.659,1.352-8.432,2.026-1.621.394-1.69.546-1.072,2.263l9.5-.976Zm2.141-3.142c2.4-.174,2.4-.174,2.421-2.147a16.941,16.941,0,0,0-.012-1.9,4.721,4.721,0,0,0-2.408-3.917Zm36.67,1.43-.44-.21-5.07,5.384,2.132.858c.97-1.445,1.919-2.768,2.758-4.156A8.612,8.612,0,0,0,85.841,249.85Zm-33.647,4.5-.684-3.845-2.059.478c0,.7-.012,1.288,0,1.879.015.573.057,1.146.09,1.783Z" transform="translate(-34.59 -216.181)" fill="#013369"/>
  <path id="Path_1782" data-name="Path 1782" d="M108.3,242.6c-.327.443-.505.918-.83,1.061a1.507,1.507,0,0,1-1.208-.095,11.094,11.094,0,0,1-1.438-1.252A16.385,16.385,0,0,0,78.778,248.6c-.5,1.24-1.642,1.7-2.169.825a2.252,2.252,0,0,1-.027-1.752A17.855,17.855,0,0,1,89.7,236.4a18.393,18.393,0,0,1,17.516,4.849A12.639,12.639,0,0,1,108.3,242.6Z" transform="translate(-66.405 -231.143)" fill="#013369"/>
  <path id="Path_1783" data-name="Path 1783" d="M159.456,337.864a4.911,4.911,0,0,1-4.918,4.925,4.909,4.909,0,1,1,0-9.817A4.831,4.831,0,0,1,159.456,337.864Zm-4.888-2.5a2.543,2.543,0,0,0-2.533,2.468,2.584,2.584,0,0,0,2.592,2.554,2.5,2.5,0,0,0,2.427-2.553A2.414,2.414,0,0,0,154.569,335.368Z" transform="translate(-122.087 -305.011)" fill="#013369"/>
</svg>
