<svg xmlns="http://www.w3.org/2000/svg" width="14.159" height="13.618" viewBox="0 0 14.159 13.618">
  <g id="Group_3186" data-name="Group 3186" transform="translate(-0.449 -0.358)">
    <g id="star" transform="translate(0.449 0.359)">
      <path id="Path_4546" data-name="Path 4546" d="M10.971,13.977a1.507,1.507,0,0,1-.694-.17L7.526,12.36,4.779,13.805a1.542,1.542,0,0,1-.937.151A1.5,1.5,0,0,1,2.6,12.228L3.125,9.16.9,6.994a1.513,1.513,0,0,1-.437-.862,1.507,1.507,0,0,1,1.277-1.7l3.067-.449L6.15,1.262a.429.429,0,0,1,.027-.06A1.488,1.488,0,0,1,6.865.513,1.507,1.507,0,0,1,8.877,1.2l1.375,2.783,3.07.449A1.5,1.5,0,0,1,14.153,7L11.93,9.16l.527,3.061a1.506,1.506,0,0,1-1.486,1.756ZM7.526,10.771a.754.754,0,0,1,.348.087l3.1,1.627-.577-3.458a.754.754,0,0,1,.216-.662l2.5-2.439L9.65,5.4a.743.743,0,0,1-.561-.407L7.523,1.849l0,.006L5.971,4.991a.745.745,0,0,1-.559.407l-3.456.507L4.447,8.366a.743.743,0,0,1,.213.659l-.591,3.449,3.109-1.617A.754.754,0,0,1,7.526,10.771Z" transform="translate(-0.449 -0.359)" fill="#013369"/>
    </g>
  </g>
</svg>
