<svg id="line" xmlns="http://www.w3.org/2000/svg" viewBox="0 0 511 484.36"><defs><style>.cls-1{fill:#013369;}</style></defs><title>icon-07</title><path class="cls-1" d="M478.64,35.66H420.42V17.92a12.62,12.62,0,0,0-25.24,0V35.66H116.82V14.2a12.62,12.62,0,1,0-25.24,0V35.66H33.36A32.9,32.9,0,0,0,.5,68.52V453.08a32.9,32.9,0,0,0,32.86,32.86H478.64a32.9,32.9,0,0,0,32.86-32.86V68.52A32.9,32.9,0,0,0,478.64,35.66ZM25.74,68.52a7.63,7.63,0,0,1,7.62-7.62H91.58V78.64a12.62,12.62,0,1,0,25.24,0V60.9H395.18V78.64a12.62,12.62,0,0,0,25.24,0V60.9h58.22a7.63,7.63,0,0,1,7.62,7.62v58.22H25.74ZM486.26,152v301.1a7.62,7.62,0,0,1-7.62,7.62H33.36a7.62,7.62,0,0,1-7.62-7.62V152Z" transform="translate(-0.5 -1.58)"/><path class="cls-1" d="M79.53,324.78c1.88,1.35,5,4.68,9,8.89,22.22,23.46,74.24,78.41,167.45,78.45h0c92.94,0,145.4-55.2,167.8-78.78,3.87-4.07,6.92-7.28,8.69-8.55l.31-.27a33,33,0,0,0,0-46.47l-.31-.26c-1.88-1.35-5-4.68-9-8.9-22.22-23.48-74.25-78.45-167.44-78.45h0c-93,0-145.42,55.23-167.81,78.81-3.85,4.06-6.9,7.27-8.66,8.54l-.3.26a32.9,32.9,0,0,0,0,46.47Zm77.77,34.36V243.42a188.88,188.88,0,0,1,197.4,0V359.14a188.82,188.82,0,0,1-197.4,0Zm240.56-35.43c-7.57,7.63-12,12.14-17.92,17.21V261.65c6,5.14,10.53,9.74,18.26,17.54,4.3,4.34,9.66,9.75,16.72,16.71a7.63,7.63,0,0,1,0,10.77h0C407.66,313.83,402.23,319.3,397.86,323.71Zm-265.8-62.06v79.27c-6-5.15-10.53-9.74-18.26-17.54-4.3-4.34-9.66-9.75-16.72-16.71a7.62,7.62,0,0,1,0-10.77c7-6.86,12.27-12.22,16.54-16.53C121.19,271.73,126,266.92,132.06,261.65Z" transform="translate(-0.5 -1.58)"/><path class="cls-1" d="M268.62,331.64V313.9h15.24v17.74a12.62,12.62,0,0,0,25.24,0V313.9h7.62a12.62,12.62,0,1,0,0-25.24H309.1V270.92a12.62,12.62,0,0,0-25.24,0v17.74H268.62V270.92a12.62,12.62,0,0,0-25.24,0v17.74H228.14V270.92a12.62,12.62,0,1,0-25.24,0v17.74h-7.62a12.62,12.62,0,0,0,0,25.24h7.62v17.74a12.62,12.62,0,1,0,25.24,0V313.9h15.24v17.74a12.62,12.62,0,0,0,25.24,0Z" transform="translate(-0.5 -1.58)"/></svg>