<svg id="Layer_1" data-name="Layer 1" xmlns="http://www.w3.org/2000/svg" viewBox="0 0 383.47 512"><defs><style>.cls-1{fill:#013369;}</style></defs><title>icon-05</title><path class="cls-1" d="M432.73,224.93H383.47v-33.2a15,15,0,0,0-15-15H303.13V159.6a15,15,0,0,0-15-15H222.8V15a15,15,0,0,0-15-15H127.47a15,15,0,0,0-15,15V208.87H79.27a15,15,0,0,0-15,15V352.4A15,15,0,0,0,68.66,363l59.87,59.87V497a15,15,0,0,0,15,15h241a15,15,0,0,0,15-15V455l43.81-43.8a15,15,0,0,0,4.4-10.61V239.93a15,15,0,0,0-15-15Zm-15,30v66.4H383.47v-66.4Zm-64.26-48.2v98.54H303.13V206.73ZM273.13,174.6v98.53H222.8V174.6ZM142.47,30H192.8V208.87H142.47ZM373.93,438.19a15,15,0,0,0-4.4,10.61V482h-211V416.67a15,15,0,0,0-4.39-10.61L94.27,346.19V238.87H192.8V256a49.32,49.32,0,0,1-49.27,49.27,15,15,0,1,0,0,30,79.21,79.21,0,0,0,63.71-32.17c.19,0,.37,0,.56,0h65.33v17.14a15,15,0,0,0,15,15h65.34v1.06a15,15,0,0,0,15,15h49.26v43.06Z" transform="translate(-64.27)"/></svg>