<svg xmlns="http://www.w3.org/2000/svg" width="412.824" height="52.547" viewBox="0 0 412.824 52.547">
  <g id="Grupo_209" data-name="Grupo 209" transform="translate(-475.546 -656)">
    <g id="Grupo_21" data-name="Grupo 21" transform="translate(475.546 656)">
      <path id="Trazado_1829" data-name="Trazado 1829" d="M121.961,185.843c-.116,19.281-13.145,34.363-31.031,37.064a36.544,36.544,0,0,1-12.085-.271,4.708,4.708,0,0,1-4.249-4.255A36.692,36.692,0,0,1,104.032,175.8a37.705,37.705,0,0,1,12.945,0c2.551.432,3.819,1.632,4.245,4.2C121.607,182.321,121.817,184.672,121.961,185.843Zm-3.907,8.947a7.017,7.017,0,0,0-.756-1.061c-4.582-4.619-9.188-9.214-13.761-13.843a1.639,1.639,0,0,0-1.905-.463c-11.942,3.615-19.7,11.4-23.388,23.3a1.965,1.965,0,0,0,.569,2.288q6.84,6.761,13.585,13.616a1.846,1.846,0,0,0,2.147.517,33.526,33.526,0,0,0,23.51-24.352ZM89.126,220.062,76.947,207.92c.138,2.947.158,5.772.432,8.573.306,3.117.413,2.975,3.395,3.425A24.094,24.094,0,0,0,89.126,220.062Zm29.5-29.526.47-.033c-.228-3.236-.461-6.471-.68-9.707-.1-1.431-.988-2-2.274-2.118-1.819-.173-3.638-.39-5.462-.452-1.343-.045-2.694.127-4.277.216Z" transform="translate(-73.975 -175.239)" fill="#013369"/>
      <path id="Trazado_1830" data-name="Trazado 1830" d="M134.951,238.088l-2.418,2.448a11.306,11.306,0,0,1,1.84,2.015c.277.5.3,1.616-.008,1.842a2.164,2.164,0,0,1-1.981.116,10.908,10.908,0,0,1-2-2.285c-.736.881-1.211,1.489-1.728,2.059a1.47,1.47,0,0,1-2.281.262c-.866-.809-.535-1.678.219-2.382.561-.524,1.2-.959,2.04-1.613-.774-.618-1.216-.92-1.6-1.285-.807-.772-1.78-1.563-.73-2.788.737-.86,1.518-.656,2.775.65.366.38.674.815,1.1,1.333l2.148-2.593.625-.2c-.656-.476-1.353-.9-1.956-1.439a1.441,1.441,0,0,1-.158-2.279,1.408,1.408,0,0,1,2.172.118c.549.538,1.039,1.138,1.762,1.94l1.992-2.84.549.084a8.6,8.6,0,0,1-1.918-1.7,2.328,2.328,0,0,1-.094-2.007c.487-.855,1.4-.772,2.089-.075.6.614,1.1,1.329,1.931,2.345.663-.874,1.026-1.449,1.483-1.934.736-.781,1.608-1.442,2.58-.41.878.931.338,1.777-.434,2.491-.495.458-1.021.881-1.591,1.369.747.787,1.343,1.407,1.93,2.036a1.373,1.373,0,0,1,.028,2.16,1.4,1.4,0,0,1-2.165-.139c-.558-.6-1.084-1.23-1.7-1.933l-2.587,2.711c.654.572,1.326,1.1,1.928,1.7a1.394,1.394,0,0,1,.012,2.168,1.369,1.369,0,0,1-2.064-.061C136.144,239.41,135.609,238.788,134.951,238.088Z" transform="translate(-110.821 -211.955)" fill="#013369"/>
    </g>
    <g id="Grupo_20" data-name="Grupo 20" transform="translate(581.858 656.122)">
      <path id="Trazado_1781" data-name="Trazado 1781" d="M34.59,253.725v-1.2a16.031,16.031,0,0,1,2.247-.944c3.339-.856,6.7-1.645,9.859-2.414v-9.431a26.939,26.939,0,0,0-2.622,1.3,8.438,8.438,0,0,1-5.059,1.5c-1.6-.068-2.064-.451-1.921-2.014a33.517,33.517,0,0,1,.774-5.3,25.784,25.784,0,0,1,49.719-.158c.4,1.486.585,3.027.87,4.543v3.591a22.313,22.313,0,0,0-.4,7.32,3.345,3.345,0,0,1-.4,1.886c-1.123,1.828-2.379,3.574-3.551,5.373a1.388,1.388,0,0,1-1.934.591c-1.022-.436-2.073-.808-3.076-1.282a2.472,2.472,0,0,0-2.386-.061,27.941,27.941,0,0,0-4.845,2.962c-5.074,4.487-14.024,4.528-18.269-2.648-.148-.25-.426-.618-.628-.608-1.09.053-2.174.209-3.1.312a39.44,39.44,0,0,1-.754,4.29c-1.27,4.346-6.978,7.923-11.464,7.182a1.83,1.83,0,0,1-1.125-1.238c-.407-2.307-.653-4.643-.976-6.966C35.237,258.11,34.908,255.918,34.59,253.725Zm4.975-13.249a34.1,34.1,0,0,0,3.239-1.531,7.369,7.369,0,0,1,6.585-1.028A7.157,7.157,0,0,1,54,244.558a59.435,59.435,0,0,0,.288,7.627c.615,3.892,2.662,6.955,6.64,8.12a9.4,9.4,0,0,0,9.245-2.1,17.541,17.541,0,0,1,6.458-3.73,4.542,4.542,0,0,0,1.883-1.07c2.179-2.218,4.3-4.492,6.4-6.792a2.888,2.888,0,0,0,.816-1.636,35.127,35.127,0,0,0-.058-7.362c-1.911-10.4-9.684-17.551-20.191-18.886a23.336,23.336,0,0,0-23.8,12.911A19.822,19.822,0,0,0,39.565,240.477Zm-.857,25.6c5.515-.4,9.039-4.079,8.4-8.791l-9.436.972Zm8.321-14.517c-2.883.692-5.659,1.352-8.432,2.026-1.621.394-1.69.546-1.072,2.263l9.5-.976Zm2.141-3.142c2.4-.174,2.4-.174,2.421-2.147a16.941,16.941,0,0,0-.012-1.9,4.721,4.721,0,0,0-2.408-3.917Zm36.67,1.43-.44-.21-5.07,5.384,2.132.858c.97-1.445,1.919-2.768,2.758-4.156A8.612,8.612,0,0,0,85.841,249.85Zm-33.647,4.5-.684-3.845-2.059.478c0,.7-.012,1.288,0,1.879.015.573.057,1.146.09,1.783Z" transform="translate(-34.59 -216.181)" fill="#013369"/>
      <path id="Trazado_1782" data-name="Trazado 1782" d="M108.3,242.6c-.327.443-.505.918-.83,1.061a1.507,1.507,0,0,1-1.208-.095,11.094,11.094,0,0,1-1.438-1.252A16.385,16.385,0,0,0,78.778,248.6c-.5,1.24-1.642,1.7-2.169.825a2.252,2.252,0,0,1-.027-1.752A17.855,17.855,0,0,1,89.7,236.4a18.393,18.393,0,0,1,17.516,4.849A12.639,12.639,0,0,1,108.3,242.6Z" transform="translate(-66.405 -231.143)" fill="#013369"/>
      <path id="Trazado_1783" data-name="Trazado 1783" d="M159.456,337.864a4.911,4.911,0,0,1-4.918,4.925,4.909,4.909,0,1,1,0-9.817A4.831,4.831,0,0,1,159.456,337.864Zm-4.888-2.5a2.543,2.543,0,0,0-2.533,2.468,2.584,2.584,0,0,0,2.592,2.554,2.5,2.5,0,0,0,2.427-2.553A2.414,2.414,0,0,0,154.569,335.368Z" transform="translate(-122.087 -305.011)" fill="#013369"/>
    </g>
    <path id="Trazado_1863" data-name="Trazado 1863" d="M493.244,147.19c-2.014,6.37-7.367,5.448-12.41,5.379,0,3.216,0,6.211,0,9.208,0,2.835.019,5.669-.005,8.5-.029,3.4-2.048,5.468-5.4,5.779a9.358,9.358,0,0,0-2.29.968,21.284,21.284,0,0,1-4.513,1.664,41.448,41.448,0,0,1-6.013.071c-4.736,0-7.056-1.955-7.831-6.68H451.92c-.228,2.768-1.369,5.549-4.063,5.974a39.976,39.976,0,0,1-12.192.075c-2.1-.327-4.047-2.094-6.444-2.629-2.345-.523-3.3-2.7-3.311-5.089-.026-5.2-.008-10.393-.008-15.59v-2.236c-1.763,0-3.449.011-5.134,0-4.5-.037-7.371-2.788-7.215-7.289.089-2.547.753-5.069,1.051-7.615a2.609,2.609,0,0,0-.555-1.659c-.952-1.281-.52-2.083.778-2.6a35.081,35.081,0,0,1,14.869-2.492c.708.038,1.346,1.074,2.052,1.6.551.412,1.13,1.012,1.743,1.075a4,4,0,0,1,3.682,3.071,29.433,29.433,0,0,0,11.341,15.973,8.261,8.261,0,0,1,3.345,5.679h3.01c.368-3,2.28-4.883,4.542-6.628a28.813,28.813,0,0,0,10.127-14.974,4.023,4.023,0,0,1,3.822-3.127,2.283,2.283,0,0,0,1.557-1.036,3.053,3.053,0,0,1,3.119-1.746,37.239,37.239,0,0,1,13.466,2.5,10.983,10.983,0,0,1,1.743,1.109v1.063c-.408.691-1.2,1.421-1.14,2.066a16.92,16.92,0,0,0,1.14,3.605Zm-35.665,24.781a3.892,3.892,0,0,0,3.977,4.278c2.124.054,4.25.022,6.375.013,3.189-.013,4.77-1.579,4.779-4.761.013-4.722-.022-9.445.012-14.167a6.932,6.932,0,0,1,7.206-7.283c2.125-.039,4.25.006,6.375-.013,2.305-.021,4.124-1.358,4.317-3.575a62.379,62.379,0,0,0-.1-6.694c-.505.195-.649.2-.706.28-.356.469-.691.954-1.036,1.432a9.788,9.788,0,0,1-8.452,4.3c-1.594-.011-3.188,0-4.781,0-2.664,0-3.044-.4-2.789-3.119.2-2.133.478-4.258.721-6.387a2.06,2.06,0,0,0-1.456,1.143,33.659,33.659,0,0,1-12.5,17.54c-.966.723-1.491,2.036-2.5,3.473,1.793,0,2.909-.008,4.024,0,.854.008,1.9.059,1.681,1.2-.1.535-1.027,1.167-1.665,1.286a19.715,19.715,0,0,1-3.525.058v2.888a20.163,20.163,0,0,1,3.594.06c.619.116,1.123.845,1.678,1.3-.538.386-1.04,1.021-1.622,1.106a25.124,25.124,0,0,1-3.614.052v3.087a24.3,24.3,0,0,1,3.646.053c.576.091,1.064.739,1.592,1.135-.514.44-.982,1.168-1.553,1.261A22.98,22.98,0,0,1,457.579,171.971Zm-23.813-35.918-.469.249c.236,2.449.483,4.9.705,7.346.133,1.469-.473,2.2-2.041,2.133-1.827-.074-3.66-.042-5.489-.012a9.784,9.784,0,0,1-8.583-4.382c-.386-.543-.8-1.067-1.407-1.88a27.693,27.693,0,0,0-.45,2.825,26.6,26.6,0,0,0,.022,3.892,4.114,4.114,0,0,0,4.306,3.81c1.889.023,3.778,0,5.667.008,5.217.007,7.982,2.748,7.993,7.945.01,4.664-.018,9.327.014,13.991a4.035,4.035,0,0,0,4.178,4.273q3.452.068,6.906,0c2.458-.052,4.011-1.655,4.091-4.278a20.468,20.468,0,0,1-3.5-.056c-.647-.114-1.585-.7-1.708-1.228-.261-1.126.733-1.242,1.623-1.232,1.167.012,2.334,0,3.577,0v-3.084c-1.2,0-2.313,0-3.42,0-.917,0-1.906.043-1.845-1.274.057-1.239,1.015-1.252,1.939-1.247,1.1.006,2.205,0,3.312,0v-2.894a22.652,22.652,0,0,1-3.793-.065c-.551-.1-.981-.886-1.465-1.361.5-.37.971-.986,1.512-1.059a27.5,27.5,0,0,1,3.653-.05l.376-.51c-.814-1.068-1.436-2.4-2.475-3.159a33.027,33.027,0,0,1-12.215-17.1A7.508,7.508,0,0,0,433.766,136.053Zm56.059-.73a33.452,33.452,0,0,0-11.571-1.939,1.483,1.483,0,0,0-1.134.56,20.972,20.972,0,0,0-1.733,9.182C484.233,143.646,484.931,143.228,489.825,135.323Zm-72.913.018c3.81,7.149,7.891,9.277,14.785,7.559-.593-2.776-1.133-5.583-1.837-8.348a1.943,1.943,0,0,0-1.422-1.14A31.686,31.686,0,0,0,416.911,135.341Zm58.339,38.054c2.2-.2,3.056-1.1,3.065-3.2.023-5.473.009-10.946,0-16.419a5.271,5.271,0,0,0-.148-.845,4.119,4.119,0,0,0-2.9,4.141C475.217,162.48,475.251,167.89,475.251,173.394Zm-43.765-.032c0-5.441.031-10.754-.015-16.067-.02-2.358-.968-3.612-3.047-4.236,0,5.93-.044,11.823.028,17.715C428.472,172.475,429.536,173.274,431.486,173.362Zm23.313-4V166.5H451.97v2.86Zm-2.875-8.293V163.7h2.889v-2.635Z" transform="translate(274.115 525.206)" fill="#013369"/>
    <path id="Trazado_1862" data-name="Trazado 1862" d="M546.166,289.337c-.2.949-.406,1.878-.578,2.814a.908.908,0,0,1-1.046.863c-.958-.028-1.918-.037-2.874,0a1.1,1.1,0,0,1-1.21-.848c-.3-.821-.475-1.9-1.085-2.332-.58-.408-1.667-.017-2.5-.158-1.233-.208-1.7.357-2.107,1.428-.935,2.444-.437,2.249-3.075,1.874-1.886-.268-1.942-.241-2.151-2.477-.085-.913-.365-1.4-1.316-1.345a.511.511,0,0,1-.1-.018c-2.161-.327-2.2-.348-3.26,1.605a1.424,1.424,0,0,1-1.964.832c-2.113-.633-2.167-.575-2.366-2.893-.062-.718-.321-.952-1-1.12a26.688,26.688,0,0,0-12.6-.113,1.4,1.4,0,0,0-.821.837,21.043,21.043,0,0,0-.644,2.793.945.945,0,0,1-1.127.9c-.444-.023-.89.009-1.335,0-3.01-.073-2.327.509-3.225-2.486a1.444,1.444,0,0,0-1.661-1.261c-1.809.006-3.619-.191-5.43-.238a1.236,1.236,0,0,0-.92.485c-.434.69-.691,1.493-1.133,2.176a1.393,1.393,0,0,1-1.013.606c-1.052-.066-2.094-.3-3.141-.451a1.012,1.012,0,0,1-.947-1.117c-.037-.819-.128-1.636-.22-2.452a4.115,4.115,0,0,0-.83-2.339,3.431,3.431,0,0,1-.483-2.122,8.661,8.661,0,0,1,.494-3.115,30.815,30.815,0,0,0,1.552-6.735c.406-2.167,1.147-4.271,1.73-6.406.557-2.041,1.132-4.078,1.641-6.131.461-1.859,1.173-2.536,3.072-2.7a5.386,5.386,0,0,1,1.434,0c2.32.436,4.466-.249,6.616-.952,2.239-.733,4.492-1.423,6.715-2.2a1.832,1.832,0,0,0,.857-.943c.383-.831.561-1.766,1-2.56.906-1.641,2.392-1.989,3.728-.7a37.344,37.344,0,0,1,3.1,3.9,10.145,10.145,0,0,0,.942,1.024,17.383,17.383,0,0,1,2.71,2.615,19.574,19.574,0,0,0,5.4,5.265,66.019,66.019,0,0,0,23.234,10.65c2.162.485,4.379.769,6.5,1.4a9.2,9.2,0,0,1,5.772,4.462,4.138,4.138,0,0,1-1,5.25c-.827.646-1.821,1.076-2.681,1.687A2.016,2.016,0,0,0,556,287.7c-.635,3.649.121,2.8-3.541,3.419-1.107.187-1.7-.177-1.89-1.254-.2-1.129-.782-1.414-1.872-1.039A18.6,18.6,0,0,1,546.166,289.337Zm-43.552-31.61c-.13-.033-.164-.054-.192-.047-.164.038-.33.071-.49.124-2.829.943-5.642,1.769-8.719,1.322-1.707-.248-2.06.2-2.455,1.863a6.7,6.7,0,0,1-.316,1.291c-1.471,3.145-.412,5.867,1.365,8.481.115.169.2.358.314.529,4.021,6.139,9.256,10.292,16.977,10.386a61.322,61.322,0,0,1,11.284,1.334,119.361,119.361,0,0,0,12.507,2.149,82.959,82.959,0,0,0,11.783-.032,25.548,25.548,0,0,0,9.628-2.244,7.365,7.365,0,0,0,2.249-1.554,2.617,2.617,0,0,0-.818-4.164c-1.435-.656-2.983-1.062-4.515-1.591-.358,2.053-1.179,2.958-3.132,2.968a38.235,38.235,0,0,1-7.436-.483c-9.956-1.928-19.877-4.039-29.815-6.06-2.757-.561-5.347-1.413-7.365-3.516a4.767,4.767,0,0,1-1.522-3.469c.025-1.263.054-2.53.168-3.787C502.221,260.05,502.443,258.885,502.613,257.727Zm28.321,10.88c-.459.92-.877,1.757-1.293,2.595a1.41,1.41,0,0,1-1.68.85,1.323,1.323,0,0,1-1.124-1.487,1.267,1.267,0,0,1,1.276-1.346c.979.024,1.269-.553,1.624-1.295l-3-1.844c-.488.824-.983,1.569-1.384,2.362a1.443,1.443,0,0,1-1.642.922,1.31,1.31,0,0,1-1.193-1.425,1.243,1.243,0,0,1,1.214-1.392,1.914,1.914,0,0,0,1.854-1.234l-2.617-1.85c-.577.787-1.145,1.5-1.643,2.26a1.442,1.442,0,0,1-1.755.7,1.346,1.346,0,0,1-.978-1.6,1.4,1.4,0,0,1,1.292-1.24c.706-.142,1.388-.41,2.293-.688-.67-.628-1.071-1-1.461-1.372-.911-.879-1.582-.924-2.488-.079-.227.212-.293.591-.461.876a1.368,1.368,0,0,1-1.749.672,1.338,1.338,0,0,1-.942-1.613,1.446,1.446,0,0,1,1.417-1.24c.823-.122,1.634-.324,2.631-.528-.429-.59-.654-.932-.911-1.246a2.53,2.53,0,0,0-4.179.423,1.432,1.432,0,0,1-1.921.673,1.342,1.342,0,0,1-.8-1.691,1.467,1.467,0,0,1,1.736-1.086,9.581,9.581,0,0,0,1.464-.089,2.443,2.443,0,0,0-3.141-1.516c-2.229.49-4.42,1.157-6.613,1.8a1.075,1.075,0,0,0-.568.718c-.3,1.437-.611,2.879-.778,4.336-.478,4.161.405,5.885,3.768,7.493a9.014,9.014,0,0,0,1.922.687c11.506,2.535,22.973,5.274,34.647,6.958a23.288,23.288,0,0,0,5.087-.159c.286-.023.53-.574.793-.881-.288-.224-.546-.563-.872-.653-1.184-.327-2.423-.473-3.582-.862-3.322-1.117-6.615-2.32-9.952-3.5a13.555,13.555,0,0,0-.628,1.655c-.263,1.036-.769,1.521-1.66,1.43a1.394,1.394,0,0,1-1.311-1.35c-.106-.813.488-1.348,1.531-1.555a.893.893,0,0,0,.609-.49.842.842,0,0,0-.267-.746C532.726,269.485,531.9,269.1,530.934,268.607Zm27.692,10.91c-.365,2.832-2.179,4.164-4.48,5.011a24.732,24.732,0,0,1-3.317,1.045,58.007,58.007,0,0,1-24.732.07,98.182,98.182,0,0,0-22.537-2.7,45.129,45.129,0,0,1-6.352-.167,25.241,25.241,0,0,1-9.825-3.923c-.276-.167-.553-.33-.952-.567a20.446,20.446,0,0,0-.717,2.29c-.661,3.564-.522,4.507,3.375,5.34a40.472,40.472,0,0,0,17.206.166,31.433,31.433,0,0,1,13.518.057A98.236,98.236,0,0,0,531.427,288a58.338,58.338,0,0,0,18.97-.955c2.7-.64,5.408-1.228,7.724-2.854C559.947,282.912,560.114,281.483,558.626,279.516ZM488.79,268.1c-.11.118-.178.156-.188.206-.536,2.708-1.086,5.413-1.568,8.13-.043.241.3.69.572.825,2.472,1.225,4.924,2.5,7.47,3.557a12.06,12.06,0,0,0,5.992.6C495.149,278.459,491.44,273.775,488.79,268.1Zm25.287-14.351a11.018,11.018,0,0,0-.749-1.049c-.648-.725-1.233-1.851-2.328-1.562-1.112.292-1.149,1.561-1.388,2.544-.005.022.029.054.036.068Zm-13.115,34.53c.483,2.336.8,2.587,2.731,2.258.517-.088.978-1.609.8-2.62Zm-10.569-.534-3.672-.938.271,2.587C489.752,289.883,489.752,289.883,490.393,287.749Zm50.834,1.978c.436,2.01.821,2.22,3.031,1.7l.375-1.939Zm-7.455-.1-2.841-.181c0,2.038.173,2.207,2.1,2.144.187-.448.386-.912.574-1.381C533.662,290.065,533.693,289.9,533.772,289.631Zm18.251-.007c2.288-.006,2.393-.1,2.44-2.124l-2.927.818Zm-30.1-1.448c.158.9-.13,1.947,1.035,1.866.515-.036.986-.711,1.477-1.1l-.182-.306Z" transform="translate(326.806 410.842)" fill="#013369" stroke="#013369" stroke-width="0.8"/>
  </g>
</svg>
