<svg xmlns="http://www.w3.org/2000/svg" width="68" height="68" viewBox="0 0 68 68">
  <g id="Grupo_231" data-name="Grupo 231" transform="translate(-2032 -27)">
    <circle id="Elipse_14" data-name="Elipse 14" cx="34" cy="34" r="34" transform="translate(2032 27)" fill="#979797"/>
    <path id="shape" d="M84-38A34.012,34.012,0,0,0,50-4,34.012,34.012,0,0,0,84,30,34.012,34.012,0,0,0,118-4,34.012,34.012,0,0,0,84-38Zm0,10.2A10.186,10.186,0,0,1,94.2-17.6,10.186,10.186,0,0,1,84-7.4,10.186,10.186,0,0,1,73.8-17.6,10.186,10.186,0,0,1,84-27.8Zm0,48.28A24.482,24.482,0,0,1,63.6,9.532C63.7,2.766,77.2-.94,84-.94c6.766,0,20.3,3.706,20.4,10.472A24.482,24.482,0,0,1,84,20.48Z" transform="translate(1982 65)" fill="#f6f6f6"/>
  </g>
</svg>
