<svg xmlns="http://www.w3.org/2000/svg" width="23.995" height="20.437" viewBox="0 0 23.995 20.437">
  <g id="Group_2552" data-name="Group 2552" transform="translate(-379.564 739.07)">
    <path id="Path_3557" data-name="Path 3557" d="M406.122-660.838c.13.324.241.616.364.9a.477.477,0,0,1-.091.609.49.49,0,0,1-.639,0q-2.059-1.3-4.121-2.59a.479.479,0,0,1,.01-.885q2.046-1.293,4.095-2.58a.5.5,0,0,1,.641-.015.481.481,0,0,1,.1.63c-.1.237-.19.482-.294.72-.054.124-.059.18.107.178,2.042-.022,4.089.106,6.125-.057a8.254,8.254,0,0,0,7.2-6.067,7.079,7.079,0,0,0,.281-1.949c0-.192.055-.253.251-.251.826.01,1.653.012,2.479,0,.228,0,.3.053.288.289a11.135,11.135,0,0,1-5.5,9.439,10.915,10.915,0,0,1-5.9,1.624Z" transform="translate(-19.355 -59.429)" fill="#046bda"/>
    <path id="Path_3558" data-name="Path 3558" d="M392.832-737.429c1.222,0,2.252,0,3.282,0,.183,0,.259-.022.161-.223-.113-.233-.2-.478-.3-.718a.467.467,0,0,1,.115-.582.483.483,0,0,1,.617-.021c1.388.874,2.78,1.743,4.167,2.62a.47.47,0,0,1,0,.84c-1.394.882-2.794,1.756-4.19,2.635a.46.46,0,0,1-.59-.024.466.466,0,0,1-.115-.581c.1-.257.2-.517.318-.77.065-.144.023-.174-.119-.172-2.042.027-4.093-.138-6.122.067a8.03,8.03,0,0,0-6.576,4.489,7.612,7.612,0,0,0-.894,3.552c0,.209-.08.236-.259.234-.835-.008-1.671-.011-2.506,0-.213,0-.259-.055-.253-.261a11.107,11.107,0,0,1,3.469-7.914,11.046,11.046,0,0,1,6.568-3.094A32.189,32.189,0,0,1,392.832-737.429Z" transform="translate(0 0)" fill="#046bda"/>
  </g>
</svg>
