<svg xmlns="http://www.w3.org/2000/svg" width="186.496" height="60.153" viewBox="0 0 186.496 60.153">
  <g id="Grupo_37" data-name="Grupo 37" transform="translate(1423 677.101)">
    <path id="Trazado_1872" data-name="Trazado 1872" d="M-384.583-556.266c-2.562.012-5.124.038-7.685.009-.215,0-.54-.337-.621-.581-.6-1.786-1.144-3.589-1.722-5.437h-8.383c-1.547,0-1.553,0-2.029,1.466-.438,1.352-.849,2.713-1.3,4.061-.067.2-.292.493-.447.495-2.48.031-4.96.022-7.545.022.084-.334.128-.579.206-.813q4.787-14.51,9.562-29.024a1.157,1.157,0,0,1,1.353-.957c2.587.057,5.177.036,7.765.011a.859.859,0,0,1,.984.709q4.821,14.779,9.688,29.543a2.365,2.365,0,0,0,.176.342Zm-11.956-12.123-2.98-9.52-.148.019-2.982,9.5Z" transform="translate(-851.921 -76.076)" fill="#fff"/>
    <path id="Trazado_1873" data-name="Trazado 1873" d="M-1356.253-677.1a8.335,8.335,0,0,1,3.684,1.851,6.99,6.99,0,0,1-2.71,11.81.7.7,0,0,0-.385.252c1.276,0,2.553-.016,3.828.012a1.332,1.332,0,0,1,.837.273c1.3,1.259,2.559,2.555,3.941,3.949H-1357.3c-.018.356-.042.608-.042.859,0,6.084-.01,12.169.019,18.253a1.829,1.829,0,0,0,.478,1.125c1.078,1.152,2.225,2.24,3.323,3.374a1.34,1.34,0,0,1,.412.779c.04,1.708.027,3.417.026,5.126a3.157,3.157,0,0,1-.181.556,12.644,12.644,0,0,0-.811-1.023c-2.333-2.349-4.667-4.7-7.027-7.02a1.449,1.449,0,0,1-.458-1.153c.011-7.43,0-14.861.025-22.292a2.242,2.242,0,0,0-.735-1.755c-3.38-3.383-6.723-6.8-10.224-10.356,1.065-.677,2.193-1.414,3.352-2.1.119-.07.474.122.633.279q4.05,4.011,8.072,8.049c.976.981,1.916,2,2.872,3l.223-.14V-677.1Z" transform="translate(-42.657)" fill="#fff"/>
    <path id="Trazado_1874" data-name="Trazado 1874" d="M-1423-615.94c.16-.884.316-1.768.483-2.651.051-.271.132-.537.206-.829l9.289,9.381.3-.156q0-.861,0-1.722c0-1.14.037-2.281-.018-3.418a1.773,1.773,0,0,0-.439-1.072q-3.42-3.495-6.911-6.921c-.415-.407-.487-.709-.16-1.184.656-.953,1.275-1.931,1.971-2.992.559.538,1.022.971,1.47,1.418,2.619,2.611,5.243,5.218,7.839,7.852a1.694,1.694,0,0,1,.488,1.05c.033,5.7.028,11.395.029,17.092,0,.12-.012.24-.029.566L-1423-614.23Z" transform="translate(0 -41.89)" fill="#fff"/>
    <path id="Trazado_1875" data-name="Trazado 1875" d="M-1423-502.1a3.546,3.546,0,0,1,.68.426q12.968,12.921,25.929,25.85a1.988,1.988,0,0,1,.667,1.628c-.067,1.6-.021,3.2-.021,5.052L-1423-496.351Z" transform="translate(0 -147.803)" fill="#fff"/>
    <path id="Trazado_1876" data-name="Trazado 1876" d="M-725.744-556.164V-586.77a2.966,2.966,0,0,1,.466-.073c4.3.03,8.6.014,12.893.12a9.132,9.132,0,0,1,5.478,1.683,7.432,7.432,0,0,1,2.851,5.149,7.444,7.444,0,0,1-2.077,6.846,19.484,19.484,0,0,1-2.626,1.785,12.016,12.016,0,0,1,1.674.617,6.174,6.174,0,0,1,3.384,4.472,9.385,9.385,0,0,1-.832,6.329,6.976,6.976,0,0,1-6.412,3.686c-4.839.135-9.685.063-14.528.074A1.191,1.191,0,0,1-725.744-556.164Zm7.46-5.353c1.456,0,2.827.1,4.178-.023,2.017-.184,2.9-1.211,3.033-3.24a3.37,3.37,0,0,0-3.252-3.766c-1.109-.075-2.223-.065-3.334-.121-.468-.024-.649.132-.633.614.029.879.008,1.76.008,2.64C-718.284-564.1-718.284-562.789-718.284-561.517Zm.058-19.8v7.161c1.088,0,2.127.07,3.152-.015,1.977-.164,3.081-1.024,3.387-2.506.51-2.468-.587-4.122-3.021-4.436C-715.83-581.256-716.972-581.248-718.226-581.316Z" transform="translate(-588.893 -76.231)" fill="#fff"/>
    <path id="Trazado_1877" data-name="Trazado 1877" d="M-540.55-556.086c-2.971,0-5.791.014-8.61-.026-.241,0-.56-.321-.7-.573-1.937-3.388-3.848-6.79-5.769-10.188a2.275,2.275,0,0,0-.6-.734v11.471H-563.7V-586.8c.216-.018.438-.055.66-.054,3.546.011,7.093,0,10.638.05a15.5,15.5,0,0,1,5.383.978,8.008,8.008,0,0,1,5.029,5.234,11.874,11.874,0,0,1-.509,9.058,7.931,7.931,0,0,1-3.551,3.566c-.384.205-.776.4-1.247.637Zm-15.695-24.5c0,2.688-.008,5.346.021,8,0,.145.313.413.476.41a22.577,22.577,0,0,0,3.4-.17,3.82,3.82,0,0,0,3.371-4.063,3.882,3.882,0,0,0-3.376-4.146A26.533,26.533,0,0,0-556.245-580.583Z" transform="translate(-725.753 -76.222)" fill="#fff"/>
    <path id="Trazado_1878" data-name="Trazado 1878" d="M-862.705-586.961h1.428c5.1,0,10.2.011,15.3-.014.662,0,.908.14.886.852-.052,1.7-.017,3.408-.017,5.189h-10.117v6.3h6.383c1.036,0,2.073-.025,3.106.022.215.01.595.284.6.444.043,1.833.027,3.667.027,5.586h-10.112v6.311c.268.013.543.036.818.037,2.848,0,5.7.017,8.544-.006.556,0,.777.123.763.729-.039,1.731-.014,3.463-.014,5.261h-17.6Z" transform="translate(-473.217 -76.119)" fill="#fff"/>
    <path id="Trazado_1879" data-name="Trazado 1879" d="M-1012.439-586.773l-12.845,24.663h11.4c-.663,1.266-1.25,2.4-1.851,3.531-.437.82-.7,1.926-1.392,2.36-.655.413-1.755.135-2.66.136q-7.77.008-15.541,0h-1.562l12.865-24.7h-11.313c.119-.3.178-.486.269-.66.849-1.628,1.689-3.26,2.572-4.869a1.058,1.058,0,0,1,.72-.522c6.32-.028,12.64-.022,18.96-.019A2.945,2.945,0,0,1-1012.439-586.773Z" transform="translate(-326.1 -76.224)" fill="#fff"/>
    <path id="Trazado_1880" data-name="Trazado 1880" d="M-1230.58-544.245c1.453,0,2.768-.011,4.082.013a.905.905,0,0,1,.519.286c1.546,1.492,3.06,3.016,4.631,4.481a1.687,1.687,0,0,1,.478,1.737,7.007,7.007,0,0,1-6.85,5.838,6.965,6.965,0,0,1-6.985-6.018c-.048-.279-.077-.562-.125-.925h-4.182c0-.356,0-.63,0-.9,0-3.5,0-6.992-.009-10.488a1.248,1.248,0,0,0-.185-.79c-1.269-1.315-2.574-2.595-4.025-4.042v16.151h-4.239v-20.33c.279.225.495.371.675.551,1.043,1.04,2.062,2.1,3.127,3.121a1.525,1.525,0,0,0,.928.394c1.656.043,3.314.02,4.972.039a1.122,1.122,0,0,1,.711.181c1.325,1.3,2.621,2.631,4.055,4.084h-5.943c.67.692,1.161,1.2,1.656,1.71a9.956,9.956,0,0,0,1.262,1.255,3.154,3.154,0,0,1,1.279,3.085c-.1,1.678-.024,3.365-.024,5.049,0,.276,0,.552,0,.869h4.192Z" transform="translate(-148.25 -99.547)" fill="#fff"/>
  </g>
</svg>
