<?xml version="1.0" encoding="utf-8"?>
<!-- Generator: Adobe Illustrator 22.0.0, SVG Export Plug-In . SVG Version: 6.00 Build 0)  -->
<svg version="1.1" id="Layer_1" xmlns="http://www.w3.org/2000/svg" xmlns:xlink="http://www.w3.org/1999/xlink" x="0px" y="0px"
	 viewBox="0 0 190 80" style="enable-background:new 0 0 190 80;" xml:space="preserve">
<style type="text/css">
	.st0{fill:#013369;}
	.st1{fill:#007ABA;}
</style>
<g>
	<g>
		<path class="st0" d="M43.5,56.8c-0.4,0.1-0.8,0.5-0.9,0.9c-0.2,0.9,0.6,1.7,1.5,1.5c0.4-0.1,0.8-0.5,0.9-0.9
			C45.1,57.4,44.3,56.6,43.5,56.8z"/>
		<path class="st0" d="M47.4,56.9c-0.1,0-0.1,0-0.1,0.1l0.1,0.7c0,0,0,0.1,0.1,0.1l1,0.1L48.3,57L47.4,56.9z"/>
		<path class="st0" d="M50.2,59.2c0,0,0.1,0.7,0.8,1c0.1,0,0.2,0,0.2-0.1l0.5-0.7c0-0.1,0-0.1-0.1-0.1L50.2,59.2z"/>
		<path class="st0" d="M47.6,54.5c0-0.1-0.1-0.1-0.1,0c-0.7,0.5-0.3,1.1-0.3,1.1l0.8,0.1L47.6,54.5z"/>
		<path class="st0" d="M49.8,58l2.7,0.2c0.1,0,0.2,0,0.2-0.1l0.2-0.5c0-0.1,0-0.2-0.2-0.2l-3.1-0.3L49.8,58z"/>
		<path class="st0" d="M55.6,47.6L55.6,47.6c-1.1-1.9-2.7-3.5-4.6-4.6c-4-2.2-8.8-2.2-12.8,0c-1.9,1.1-3.5,2.7-4.6,4.6
			c-2.3,4.1-2.3,9.1,0,13.3c1.1,1.9,2.7,3.5,4.6,4.6c4,2.2,8.8,2.2,12.8,0c1.9-1.1,3.5-2.7,4.6-4.6C57.8,56.7,57.8,51.7,55.6,47.6z
			 M53.3,59.3c-0.8,1.5-2.2,2.4-2.2,2.4s-0.8-0.4-1.4-0.8c-0.5-0.5-0.8-1.2-0.9-1.7c0,0-1.7-0.1-1.7-0.1c-0.4,1.2-1.7,2.7-3.2,2.7
			c-3.9,0.1-3.8-3.8-7-4.5c-0.3-0.1-0.5-0.3-0.5-0.5c-0.3-1.6-0.7-3.2-0.2-5.2c0.6-2.6,2.6-4.8,5.2-5.6c5.2-1.6,9.9,1.8,10.6,6.6
			l0,0.1l-3.5,1.3l0.5,1.9l2.7,0.3l2.2,0.2C54.1,56.2,54.1,57.8,53.3,59.3z"/>
	</g>
	<path id="Path_4084_1_" class="st1" d="M38.8,13.7L30.6,37h-7.1l-8.3-23.3h6L27,31.3l5.8-17.6H38.8z"/>
	<path id="Path_4085_1_" class="st1" d="M48.8,13.7V37h-5.7V13.7H48.8z"/>
	<path id="Path_4086_1_" class="st1" d="M64.9,37l-4.8-8.8h-1.4V37H53V13.7h9.5c1.6,0,3.2,0.3,4.7,1c1.2,0.6,2.2,1.5,2.9,2.6
		c0.6,1.1,1,2.4,1,3.7c0,1.5-0.4,2.9-1.3,4.1c-1,1.3-2.3,2.2-3.9,2.6l5.4,9.2L64.9,37z M58.7,24.2h3.5c0.8,0.1,1.7-0.2,2.3-0.8
		c0.5-0.6,0.8-1.4,0.8-2.2c0-0.8-0.2-1.5-0.8-2.1c-0.6-0.6-1.5-0.8-2.3-0.8h-3.5V24.2z"/>
	<path id="Path_4087_1_" class="st1" d="M90,13.7v4.5h-6.2V37h-5.7V18.2H72v-4.5H90z"/>
	<path id="Path_4088_1_" class="st1" d="M97.8,13.7v13.9c-0.1,1.2,0.3,2.3,1,3.2c0.8,0.8,1.9,1.2,3,1.1c1.1,0.1,2.2-0.3,3.1-1.1
		c0.8-0.9,1.1-2,1.1-3.2V13.7h5.7v13.9c0.1,1.8-0.4,3.7-1.3,5.3c-0.8,1.4-2.1,2.5-3.6,3.2c-1.6,0.7-3.3,1.1-5,1.1
		c-1.7,0-3.4-0.3-4.9-1.1c-1.4-0.7-2.6-1.8-3.4-3.2c-0.9-1.6-1.3-3.4-1.3-5.3V13.7H97.8z"/>
	<path id="Path_4089_1_" class="st1" d="M128.4,32.9h-8.7l-1.4,4.1h-5.9l8.4-23.3h6.6l8.4,23.3h-6L128.4,32.9z M127,28.5l-2.9-8.5
		l-2.9,8.5L127,28.5z"/>
	<path id="Path_4090_1_" class="st1" d="M144.2,32.6h7.4V37h-13.1V13.7h5.7V32.6z"/>
	<path id="Path_4091_1_" class="st0" d="M21.3,62.1h9.8v4.7H15.2V41.8h6.1V62.1z"/>
	<path id="Path_4092_1_" class="st0" d="M62.1,47.6c1-1.9,2.6-3.5,4.5-4.6c2-1.1,4.3-1.7,6.5-1.6c2.8-0.1,5.4,0.8,7.7,2.4
		c2.1,1.6,3.6,3.9,4.3,6.5h-6.7c-0.5-1-1.2-1.8-2.1-2.4c-1-0.6-2-0.8-3.1-0.8c-1.7-0.1-3.4,0.7-4.6,2c-1.2,1.3-1.8,3.1-1.8,5.3
		s0.6,4,1.8,5.3c1.2,1.3,2.8,2,4.6,2c1.1,0,2.2-0.3,3.1-0.8c0.9-0.6,1.7-1.4,2.1-2.4h6.7c-0.6,2.6-2.1,4.9-4.3,6.4
		c-2.2,1.6-4.9,2.4-7.7,2.4c-2.3,0-4.5-0.5-6.5-1.6c-1.9-1.1-3.5-2.6-4.5-4.5C60,56.8,60,51.8,62.1,47.6L62.1,47.6z"/>
	<path id="Path_4093_1_" class="st0" d="M102.9,66.9l-8.5-11.1v11.1h-6.1V41.7h6.1v11.1l8.4-11.1h7.2l-9.8,12.3l10.1,12.8
		L102.9,66.9z"/>
	<path id="Path_4094_1_" class="st0" d="M119.5,46.6v5.1h8.2v4.7h-8.2V62h9.3v4.9h-15.4V41.7h15.4v4.9H119.5z"/>
	<path id="Path_4095_1_" class="st0" d="M144.7,66.9l-5.2-9.5H138v9.5h-6.1V41.7h10.3c1.7-0.1,3.5,0.3,5.1,1
		c1.3,0.6,2.4,1.6,3.1,2.9c0.7,1.2,1.1,2.6,1,4c0,1.6-0.5,3.2-1.4,4.5c-1,1.4-2.5,2.4-4.2,2.8l5.8,10H144.7z M138,53.1h3.8
		c0.9,0.1,1.8-0.2,2.5-0.8c0.6-0.6,0.9-1.5,0.8-2.3c0-0.8-0.3-1.7-0.8-2.3c-0.7-0.6-1.6-0.9-2.5-0.8H138V53.1z"/>
	<g id="Group_2792_1_" transform="translate(29.415 48.24)">
		<g id="Group_2791_1_">
			<path id="Path_4096_1_" class="st0" d="M-6.6,27.6h-19v-71.7h19v5.2h-13.9v61.4h13.9V27.6z"/>
		</g>
	</g>
	<g id="Group_2794_1_" transform="translate(292.76 48.24)">
		<g id="Group_2793_1_">
			<path id="Path_4097_1_" class="st0" d="M-151-44.1h19.1v71.8H-151v-5.2h13.9V-39H-151V-44.1z"/>
		</g>
	</g>
	<path id="Path_4098_1_" class="st0" d="M160.5,4.1v71.8h25.8V4.1H160.5z M164.2,43.7c-1.1,0-2-0.9-2-2s0.9-2,2-2c1.1,0,2,0.9,2,2
		C166.1,42.8,165.2,43.7,164.2,43.7C164.2,43.7,164.2,43.7,164.2,43.7L164.2,43.7z M178.3,23.7h-15.2v-2.4h15.2L178.3,23.7z
		 M178.3,17h-15.2v-2.4h15.2L178.3,17z"/>
</g>
</svg>
