<svg xmlns="http://www.w3.org/2000/svg" width="108.277" height="34.924" viewBox="0 0 108.277 34.924">
  <g id="Group_3381" data-name="Group 3381" transform="translate(1423 677.101)">
    <path id="Path_1872" data-name="Path 1872" d="M-397.053-569.167c-1.487.007-2.975.022-4.462.005-.125,0-.313-.2-.361-.338-.346-1.037-.664-2.084-1-3.157h-4.867c-.9,0-.9,0-1.178.851-.254.785-.493,1.575-.755,2.358-.039.116-.169.286-.259.287-1.44.018-2.88.013-4.38.013.049-.194.074-.336.119-.472q2.779-8.424,5.552-16.851a.672.672,0,0,1,.785-.556c1.5.033,3.006.021,4.508.006a.5.5,0,0,1,.571.411q2.8,8.581,5.625,17.152a1.371,1.371,0,0,0,.1.2Zm-6.941-7.039-1.73-5.527-.086.011-1.731,5.516Z" transform="translate(-917.669 -81.948)" fill="#333e47"/>
    <path id="Path_1873" data-name="Path 1873" d="M-1363.065-677.1a4.838,4.838,0,0,1,2.139,1.075,4.058,4.058,0,0,1-1.574,6.857.405.405,0,0,0-.223.146c.741,0,1.482-.009,2.223.007a.774.774,0,0,1,.486.158c.753.731,1.485,1.483,2.288,2.293h-5.945c-.01.207-.024.353-.024.5,0,3.532-.006,7.065.011,10.6a1.062,1.062,0,0,0,.277.653c.626.669,1.292,1.3,1.929,1.959a.779.779,0,0,1,.239.452c.024.992.016,1.984.015,2.976a1.836,1.836,0,0,1-.105.323,7.37,7.37,0,0,0-.471-.594c-1.355-1.364-2.71-2.728-4.08-4.076a.842.842,0,0,1-.266-.669c.006-4.314,0-8.628.015-12.942a1.3,1.3,0,0,0-.427-1.019c-1.962-1.964-3.9-3.949-5.936-6.013.618-.393,1.273-.821,1.946-1.219.069-.041.275.071.368.162q2.351,2.329,4.687,4.673c.566.569,1.112,1.16,1.667,1.74l.13-.081V-677.1Z" transform="translate(-45.95)" fill="#333e47"/>
    <path id="Path_1874" data-name="Path 1874" d="M-1423-620.79c.093-.513.183-1.027.281-1.539.03-.158.077-.312.119-.481l5.393,5.446.172-.09q0-.5,0-1c0-.661.021-1.324-.011-1.984a1.03,1.03,0,0,0-.255-.622q-1.986-2.029-4.012-4.018c-.241-.236-.283-.412-.093-.687.381-.553.74-1.121,1.144-1.737.325.313.594.564.854.823,1.521,1.516,3.044,3.029,4.552,4.559a.983.983,0,0,1,.283.609c.019,3.308.016,6.616.017,9.924,0,.07-.007.139-.017.328L-1423-619.8Z" transform="translate(0 -45.123)" fill="#333e47"/>
    <path id="Path_1875" data-name="Path 1875" d="M-1423-502.1a2.049,2.049,0,0,1,.395.247q7.529,7.5,15.054,15.008a1.154,1.154,0,0,1,.387.945c-.039.926-.012,1.855-.012,2.933l-15.824-15.8Z" transform="translate(0 -159.209)" fill="#333e47"/>
    <path id="Path_1876" data-name="Path 1876" d="M-725.744-569.031V-586.8a1.716,1.716,0,0,1,.271-.043c2.5.017,4.991.008,7.486.07a5.3,5.3,0,0,1,3.18.977,4.315,4.315,0,0,1,1.655,2.989,4.322,4.322,0,0,1-1.206,3.975,11.319,11.319,0,0,1-1.524,1.036,6.963,6.963,0,0,1,.972.358,3.585,3.585,0,0,1,1.964,2.6,5.449,5.449,0,0,1-.483,3.674,4.05,4.05,0,0,1-3.723,2.14c-2.81.078-5.623.036-8.435.043A.692.692,0,0,1-725.744-569.031Zm4.331-3.108c.845,0,1.641.058,2.426-.014a1.732,1.732,0,0,0,1.761-1.881,1.957,1.957,0,0,0-1.888-2.186c-.644-.044-1.291-.038-1.936-.07-.272-.014-.377.076-.368.357.017.51,0,1.022,0,1.532C-721.413-573.64-721.413-572.878-721.413-572.139Zm.034-11.495v4.158c.632,0,1.235.041,1.83-.009,1.148-.1,1.789-.595,1.966-1.455a1.925,1.925,0,0,0-1.754-2.575C-719.988-583.6-720.651-583.595-721.379-583.634Z" transform="translate(-634.342 -82.114)" fill="#333e47"/>
    <path id="Path_1877" data-name="Path 1877" d="M-550.26-568.99c-1.725,0-3.362.008-5-.015-.14,0-.325-.187-.409-.333-1.125-1.967-2.234-3.942-3.349-5.915a1.321,1.321,0,0,0-.351-.426v6.66H-563.7v-17.8c.125-.011.254-.032.383-.031,2.059.006,4.118,0,6.176.029a9,9,0,0,1,3.126.568,4.65,4.65,0,0,1,2.92,3.039,6.9,6.9,0,0,1-.3,5.259,4.6,4.6,0,0,1-2.062,2.07c-.223.119-.45.23-.724.37Zm-9.112-14.223c0,1.561,0,3.1.012,4.647,0,.084.182.24.277.238a13.1,13.1,0,0,0,1.973-.1,2.218,2.218,0,0,0,1.957-2.359,2.254,2.254,0,0,0-1.96-2.407A15.4,15.4,0,0,0-559.372-583.213Z" transform="translate(-781.764 -82.105)" fill="#333e47"/>
    <path id="Path_1878" data-name="Path 1878" d="M-862.705-586.967h.829c2.962,0,5.923.007,8.884-.008.385,0,.527.082.515.494-.03.989-.01,1.979-.01,3.013h-5.874v3.657h3.706c.6,0,1.2-.015,1.8.013.125.006.345.165.348.258.025,1.064.016,2.129.016,3.243h-5.871v3.664c.156.007.315.021.475.021,1.654,0,3.307.01,4.961,0,.323,0,.451.071.443.423-.023,1-.008,2.01-.008,3.054h-10.218Z" transform="translate(-509.739 -81.993)" fill="#333e47"/>
    <path id="Path_1879" data-name="Path 1879" d="M-1022.7-586.806l-7.458,14.319h6.616c-.385.735-.726,1.395-1.075,2.05-.254.476-.409,1.118-.808,1.37-.38.24-1.019.079-1.544.079q-4.512,0-9.023,0h-.907l7.469-14.34h-6.568c.069-.172.1-.282.156-.383.493-.945.98-1.893,1.493-2.827a.615.615,0,0,1,.418-.3c3.669-.016,7.339-.013,11.008-.011A1.709,1.709,0,0,1-1022.7-586.806Z" transform="translate(-351.267 -82.106)" fill="#333e47"/>
    <path id="Path_1880" data-name="Path 1880" d="M-1237.664-550.532c.844,0,1.607-.006,2.37.007a.527.527,0,0,1,.3.166c.9.866,1.776,1.751,2.688,2.6a.98.98,0,0,1,.277,1.008A4.068,4.068,0,0,1-1236-543.36a4.044,4.044,0,0,1-4.055-3.494c-.028-.162-.044-.326-.073-.537h-2.428c0-.207,0-.366,0-.525,0-2.03,0-4.06-.005-6.089a.725.725,0,0,0-.108-.458c-.737-.764-1.495-1.506-2.337-2.347v9.377h-2.461v-11.8c.162.131.287.215.392.32.605.6,1.2,1.222,1.816,1.812a.885.885,0,0,0,.539.229c.961.025,1.924.011,2.886.022a.652.652,0,0,1,.413.105c.769.755,1.522,1.527,2.354,2.371h-3.451c.389.4.674.7.962.993a5.781,5.781,0,0,0,.733.729,1.831,1.831,0,0,1,.743,1.791c-.055.974-.014,1.954-.014,2.931,0,.16,0,.321,0,.5h2.433Z" transform="translate(-159.692 -107.23)" fill="#333e47"/>
  </g>
</svg>
