<?xml version="1.0" encoding="utf-8"?>
<!-- Generator: Adobe Illustrator 24.0.2, SVG Export Plug-In . SVG Version: 6.00 Build 0)  -->
<svg version="1.1" id="Capa_1" xmlns="http://www.w3.org/2000/svg" xmlns:xlink="http://www.w3.org/1999/xlink" x="0px" y="0px"
	 viewBox="0 0 96.4 72.3" style="enable-background:new 0 0 96.4 72.3;" xml:space="preserve">
<style type="text/css">
	.st0{fill:#FFFFFF;}
</style>
<g id="Group_2804" transform="translate(-445.135 -559)">
	<path id="Path_4084" class="st0" d="M486.4,578.7l-11.6,32.7h-10l-11.6-32.7h8.5l8.1,24.7l8.2-24.7H486.4z"/>
	<path id="Path_4091" class="st0" d="M494.3,605.3h12.9v6.1h-20.9v-32.7h8V605.3z"/>
	<g id="Group_2792" transform="translate(445.135 559.001)">
		<g id="Group_2791">
			<path id="Path_4096" class="st0" d="M19.2,72.2H0V0h19.2v5.2h-14V67h14V72.2z"/>
		</g>
	</g>
	<g id="Group_2794" transform="translate(496.772 559.001)">
		<g id="Group_2793">
			<path id="Path_4097" class="st0" d="M0,0h19.2v72.3H0v-5.2h14V5.2H0V0z"/>
		</g>
	</g>
	<path id="Path_4098" class="st0" d="M515.6,559v72.3h25.9V559H515.6z M519.3,598.9c-1.1,0-2-0.9-2-2c0-1.1,0.9-2,2-2
		c1.1,0,2,0.9,2,2C521.3,598,520.4,598.9,519.3,598.9C519.3,598.9,519.3,598.9,519.3,598.9z M533.5,578.7h-15.3v-2.4h15.3V578.7z
		 M533.5,572h-15.3v-2.4h15.3V572z"/>
</g>
</svg>
