<svg xmlns="http://www.w3.org/2000/svg" width="348.269" height="137" viewBox="0 0 348.269 137">
  <g id="Group_2805" data-name="Group 2805" transform="translate(-29.415 -48.239)">
    <path id="Path_4084" data-name="Path 4084" d="M82.865,55.245,67.1,99.684H53.555L37.794,55.245h11.52L60.33,88.8,71.408,55.245Z" transform="translate(13.514 11.3)" fill="#fff"/>
    <path id="Path_4085" data-name="Path 4085" d="M68.986,55.245V99.684H58.161V55.245Z" transform="translate(46.363 11.3)" fill="#fff"/>
    <path id="Path_4086" data-name="Path 4086" d="M88.084,99.684,78.84,82.91H76.245V99.684H65.42V55.245H83.587a20.022,20.022,0,0,1,8.959,1.834,12.671,12.671,0,0,1,5.539,5.032,14.063,14.063,0,0,1,1.837,7.123,13.245,13.245,0,0,1-2.5,7.914,13.49,13.49,0,0,1-7.376,4.938l10.255,17.6ZM76.245,75.249h6.71a6.146,6.146,0,0,0,4.463-1.455,5.507,5.507,0,0,0,1.489-4.115,5.337,5.337,0,0,0-1.489-3.99,6.146,6.146,0,0,0-4.463-1.455h-6.71Z" transform="translate(58.071 11.3)" fill="#fff"/>
    <path id="Path_4087" data-name="Path 4087" d="M113.613,55.245v8.672H101.836V99.684H91.011V63.917H79.238V55.245Z" transform="translate(80.357 11.3)" fill="#fff"/>
    <path id="Path_4088" data-name="Path 4088" d="M104.8,55.245V81.833a8.8,8.8,0,0,0,1.962,6.14,7.409,7.409,0,0,0,5.761,2.153,7.616,7.616,0,0,0,5.824-2.153,8.621,8.621,0,0,0,2.028-6.14V55.245H131.2V81.768a18.862,18.862,0,0,1-2.532,10.067,16.209,16.209,0,0,1-6.8,6.2,21.4,21.4,0,0,1-9.529,2.09,20.873,20.873,0,0,1-9.4-2.059,15.305,15.305,0,0,1-6.55-6.2,19.808,19.808,0,0,1-2.406-10.1V55.245Z" transform="translate(104.127 11.3)" fill="#fff"/>
    <path id="Path_4089" data-name="Path 4089" d="M139.344,91.835H122.758L120.1,99.684H108.769l16.079-44.439h12.534l16.079,44.439H142Zm-2.785-8.356-5.508-16.27-5.443,16.27Z" transform="translate(127.986 11.3)" fill="#fff"/>
    <path id="Path_4090" data-name="Path 4090" d="M138.7,91.328h14.182v8.356h-25V55.245H138.7Z" transform="translate(158.806 11.3)" fill="#fff"/>
    <path id="Path_4091" data-name="Path 4091" d="M49.387,114.433H68.168v8.949H37.794v-47.6H49.387Z" transform="translate(13.514 44.426)" fill="#fff"/>
    <path id="Path_4092" data-name="Path 4092" d="M73.958,87.319a22.017,22.017,0,0,1,8.594-8.693,24.92,24.92,0,0,1,12.492-3.115,23.907,23.907,0,0,1,14.65,4.518,21.709,21.709,0,0,1,8.147,12.322H104.969a10.413,10.413,0,0,0-4.073-4.586,11.451,11.451,0,0,0-5.989-1.576,11.188,11.188,0,0,0-8.763,3.765q-3.355,3.766-3.355,10.065t3.355,10.062a11.179,11.179,0,0,0,8.763,3.765,11.427,11.427,0,0,0,5.989-1.576,10.385,10.385,0,0,0,4.073-4.586H117.84a21.549,21.549,0,0,1-8.147,12.288,24.038,24.038,0,0,1-14.65,4.484,24.92,24.92,0,0,1-12.492-3.115,22.084,22.084,0,0,1-8.594-8.659,27.648,27.648,0,0,1,0-25.365Z" transform="translate(66.872 43.987)" fill="#fff"/>
    <path id="Path_4093" data-name="Path 4093" d="M119.009,123.777l-16.158-21.221v21.221H91.146V75.722h11.706V96.805l16.019-21.083H132.63l-18.619,23.55,19.3,24.506Z" transform="translate(99.563 44.326)" fill="#fff"/>
    <path id="Path_4094" data-name="Path 4094" d="M121.187,85.1v9.72h15.677v9.038H121.187V114.4h17.731v9.377H109.481V75.722h29.436V85.1Z" transform="translate(129.134 44.326)" fill="#fff"/>
    <path id="Path_4095" data-name="Path 4095" d="M147.492,123.777,137.5,105.636h-2.806v18.141H122.986V75.722h19.646a21.637,21.637,0,0,1,9.686,1.983,13.707,13.707,0,0,1,5.991,5.443,15.2,15.2,0,0,1,1.986,7.7,14.326,14.326,0,0,1-2.7,8.557,14.571,14.571,0,0,1-7.974,5.341L160.7,123.777Zm-12.8-26.424h7.256a6.641,6.641,0,0,0,4.826-1.576,5.943,5.943,0,0,0,1.61-4.45,5.763,5.763,0,0,0-1.61-4.311,6.641,6.641,0,0,0-4.826-1.576h-7.256Z" transform="translate(150.916 44.326)" fill="#fff"/>
    <g id="Group_2792" data-name="Group 2792" transform="translate(29.415 48.24)">
      <g id="Group_2791" data-name="Group 2791">
        <path id="Path_4096" data-name="Path 4096" d="M65.75,185.067H29.415V48.239H65.75V58.1H39.276v117.1H65.75Z" transform="translate(-29.415 -48.239)" fill="#fff"/>
      </g>
    </g>
    <g id="Group_2794" data-name="Group 2794" transform="translate(292.76 48.24)">
      <g id="Group_2793" data-name="Group 2793">
        <path id="Path_4097" data-name="Path 4097" d="M130.2,48.239h36.381v137H130.2v-9.874h26.507V58.113H130.2Z" transform="translate(-130.204 -48.239)" fill="#fff"/>
      </g>
    </g>
    <path id="Path_4098" data-name="Path 4098" d="M143.879,48.239v136.97h49.192V48.239Zm7.01,75.55a3.738,3.738,0,1,1,3.742-3.739A3.739,3.739,0,0,1,150.889,123.789Zm26.884-38.168H148.768V81h29.005Zm0-12.67H148.768V68.329h29.005Z" transform="translate(184.613)" fill="#fff"/>
    <g id="Group_2803" data-name="Group 2803" transform="translate(83.075 119.363)">
      <g id="Group_2802" data-name="Group 2802">
        <g id="Group_2795" data-name="Group 2795" transform="translate(29.495 29.621)">
          <path id="Path_4099" data-name="Path 4099" d="M62.577,86.884c-.212.01-.426-.008-.638-.013a.88.88,0,0,0-.606-.034c-.123,0-.1.073-.068.149l.175.925c-.107.828.559.523.909.57,1.244.167,1.225.152.909-1.061C63.155,87.02,62.966,86.863,62.577,86.884Z" transform="translate(-61.24 -86.797)" fill="#fff"/>
        </g>
        <g id="Group_2796" data-name="Group 2796" transform="translate(20.308 29.334)">
          <path id="Path_4100" data-name="Path 4100" d="M59.77,86.711l-.345.06a.323.323,0,0,0-.334.146,1.024,1.024,0,0,0-.742.59,2.208,2.208,0,0,0,.658,3.564l.24.091a2.163,2.163,0,0,0,2.932-1.21.173.173,0,0,0,.091-.2A2.281,2.281,0,0,0,59.77,86.711Z" transform="translate(-57.724 -86.687)" fill="#fff"/>
        </g>
        <g id="Group_2797" data-name="Group 2797" transform="translate(35.109 34.083)">
          <path id="Path_4101" data-name="Path 4101" d="M64.784,88.655a5.623,5.623,0,0,0-1.144-.144c-.2-.026-.29.01-.235.246a2.376,2.376,0,0,0,1.753,1.68A14.584,14.584,0,0,0,66.6,88.76a8.423,8.423,0,0,0-.925-.034A2.2,2.2,0,0,0,64.784,88.655Z" transform="translate(-63.389 -88.504)" fill="#fff"/>
        </g>
        <g id="Group_2798" data-name="Group 2798" transform="translate(28.923 24.822)">
          <path id="Path_4102" data-name="Path 4102" d="M62.413,87.44c.217,0,.355-.01.274-.282-.219-.726-.431-1.455-.648-2.2a1.987,1.987,0,0,0-.969,2.111c.042.167.078.4.3.35A4.253,4.253,0,0,1,62.413,87.44Z" transform="translate(-61.021 -84.96)" fill="#fff"/>
        </g>
        <g id="Group_2800" data-name="Group 2800">
          <g id="Group_2799" data-name="Group 2799">
            <path id="Path_4103" data-name="Path 4103" d="M95.217,87.338a22.9,22.9,0,0,0-8.75-8.74,25.348,25.348,0,0,0-24.433,0,23.393,23.393,0,0,0-8.816,8.74,26.116,26.116,0,0,0,0,25.292,23.29,23.29,0,0,0,8.816,8.771,25.269,25.269,0,0,0,24.4,0,23.117,23.117,0,0,0,8.748-8.771,26.479,26.479,0,0,0,.034-25.292Zm-7.974,26.424a1.059,1.059,0,0,1-1.186.078l-1.184-.7.01-.008a6.68,6.68,0,0,1-1.4-1.27,6.785,6.785,0,0,1-.713-1.448l-.112-.457a.637.637,0,0,0-.178-.5c-.2-.264-.481-.178-.745-.17a.189.189,0,0,0-.248-.031l-.235-.01c-.4-.05-.8-.081-1.2-.154-.546-.1-.852.078-.865.661l-.619,1.2a13.005,13.005,0,0,1-1.74,1.876l-.815.536a14.336,14.336,0,0,1-2.025.716l-1.319.141a8.094,8.094,0,0,1-3.891-1.108.536.536,0,0,0-.345-.219,31.179,31.179,0,0,1-3.546-4.037,5.924,5.924,0,0,0-1.56-1.523c-.01-.233-.2-.29-.361-.376a.879.879,0,0,0-.483-.334,1.222,1.222,0,0,0-.627-.319.546.546,0,0,0-.431-.165,2.974,2.974,0,0,0-1.387-.321c-.311-.2-.881.068-.967-.536-.1-.541-.2-1.079-.293-1.62q-.157-.87-.316-1.74l-.225-1.272c-.044-.512-.089-1.022-.133-1.534a1.118,1.118,0,0,0-.013-.6.174.174,0,0,0,0-.24.407.407,0,0,0,.016-.361.182.182,0,0,0,.031-.243l-.008-.24.606-3.219a2.259,2.259,0,0,0,.272-.8.365.365,0,0,0,.123-.348.239.239,0,0,0,.1-.251,3.459,3.459,0,0,0,.481-.975A17.215,17.215,0,0,1,63.16,87.2a5.7,5.7,0,0,0,1-.828q1.4-.85,2.8-1.7l.227-.076L70,83.641q.811-.141,1.623-.287a6.927,6.927,0,0,0,1.414-.11.248.248,0,0,0,.261,0,.307.307,0,0,0,.345.005.437.437,0,0,0,.366.005.167.167,0,0,0,.238.018.439.439,0,0,0,.358.016c.447.055.894.107,1.338.162h.01l2.887.776,2.336,1.118a1.231,1.231,0,0,0,.57.361l1.09.763a3.2,3.2,0,0,0,.831.692,5.806,5.806,0,0,0,.928.9.312.312,0,0,0,.206.219.608.608,0,0,0,.285.314A27.559,27.559,0,0,1,87.363,92.1a.393.393,0,0,0,.131.337.167.167,0,0,0,.1.214,3.75,3.75,0,0,0,.381,1.019l.51,1.941.186,1.04c-.1.4-.5.3-.753.452-.212.131-.5.1-.687.3l-.225.076a9.023,9.023,0,0,0-1.8.645.638.638,0,0,0-.447.162c-.823.193-1.589.549-2.388.815-.219.073-.332.175-.243.428a4.316,4.316,0,0,0,.334.993.435.435,0,0,0,.1.358q.243.933.483,1.868c.078.3.282.334.541.264a2.839,2.839,0,0,0,1.079.1,8.885,8.885,0,0,0,1.6.152l.24,0a.362.362,0,0,0,.366.044,16.438,16.438,0,0,0,2.43.191,9.977,9.977,0,0,0,2.067.188,3.875,3.875,0,0,0,.486.065l.6.039A13.117,13.117,0,0,1,87.242,113.762Z" transform="translate(-49.952 -75.46)" fill="#fff"/>
          </g>
        </g>
        <g id="Group_2801" data-name="Group 2801" transform="translate(33.943 29.999)">
          <path id="Path_4104" data-name="Path 4104" d="M67.981,87.359c-.29-.023-.583-.026-.875-.039a.229.229,0,0,0-.259-.018.18.18,0,0,0-.243-.037l-.243-.008q-1.564-.157-3.133-.311c-.206-.021-.319.021-.277.293.178,1.181.332,1.34,1.508,1.442.251.021.5.052.747.078l.716,0c.784.172,1.589.144,2.378.264a.625.625,0,0,0,.387-.037c.1-.214.172-.431.253-.648C69.039,87.463,69,87.445,67.981,87.359Z" transform="translate(-62.943 -86.941)" fill="#fff"/>
        </g>
      </g>
    </g>
  </g>
</svg>
