<svg xmlns="http://www.w3.org/2000/svg" width="38" height="38.139" viewBox="0 0 38 38.139">
  <g id="management-icon" transform="translate(-6637 -11465)">
    <path id="Path_3575" data-name="Path 3575" d="M91.038,160.038c3.6-.1,3.96-.559,3.961-4.2,0-.45,0-.9,0-1.35-.025-2.573-.847-3.454-3.383-3.527-.764-.022-1.371.018-1.627-.978-.213-.833-.562-1.48.336-2.164a3.222,3.222,0,0,0,1.552-2.556,2.9,2.9,0,0,0-.952-2.192c-.663-.689-1.342-1.362-2.028-2.028-1.68-1.629-2.967-1.636-4.643-.03-.5.48-.846,1.131-1.793.648-.906-.462-1.5-.826-1.452-2.059.1-2.692-.931-3.6-3.658-3.6H75.662c-2.9,0-3.674.723-3.734,3.655-.016.743-.207,1.176-.913,1.342s-1.28.732-2.111-.064c-2.551-2.44-3.276-2.373-5.82.1-.363.353-.742.689-1.094,1.052-1.659,1.712-1.66,3.07.034,4.789.526.533,1.037.909.517,1.826-.46.811-.713,1.454-1.9,1.425-2.928-.072-3.633.726-3.643,3.676q0,.759,0,1.519c.007,3.081.57,3.707,3.707,3.846a1.135,1.135,0,0,1,1.264,1c.154.648.8,1.212-.059,1.907-2.68,2.166-2.189,3.95.09,5.966.337.3.636.636.957.951,1.784,1.753,3.122,1.779,4.886.014.558-.558.983-.909,1.836-.457.79.419,1.322.714,1.3,1.806-.05,2.96.864,3.784,3.824,3.789.562,0,1.125,0,1.687,0,2.662-.011,3.555-.852,3.6-3.474.012-.713.022-1.312.884-1.539.779-.206,1.387-.645,2.23.2,2.283,2.285,3.321,2.2,5.591-.068q.477-.477.952-.957c1.989-2,2.015-3.107.1-5.138-.421-.446-.969-.788-.434-1.54C89.866,160.988,89.812,160.072,91.038,160.038Zm-15.1,1.262a6.236,6.236,0,0,1,.209-12.469,6.235,6.235,0,1,1-.209,12.469Z" transform="translate(6580 11329.004)" fill="#013c88"/>
  </g>
</svg>
