<svg id="Group_4860" data-name="Group 4860" xmlns="http://www.w3.org/2000/svg" xmlns:xlink="http://www.w3.org/1999/xlink" width="45.239" height="31.297" viewBox="0 0 45.239 31.297">
  <defs>
    <clipPath id="clip-path">
      <rect id="Rectangle_6049" data-name="Rectangle 6049" width="45.239" height="31.297" fill="#013369"/>
    </clipPath>
  </defs>
  <g id="Group_4857" data-name="Group 4857" clip-path="url(#clip-path)">
    <path id="Path_7011" data-name="Path 7011" d="M5.188,32.908c-1.16,0-2.321.009-3.481,0a1.581,1.581,0,0,1-1.7-1.594,1.573,1.573,0,0,1,1.622-1.794c2.361-.054,4.725-.047,7.086-.008a1.743,1.743,0,0,1,1.755,1.732,1.768,1.768,0,0,1-1.8,1.662c-1.16.024-2.321.006-3.481.005" transform="translate(-0.001 -27.128)" fill="#013369"/>
    <path id="Path_7012" data-name="Path 7012" d="M32.687,120.98c-.744,0-1.488.02-2.23-.006a1.635,1.635,0,0,1-1.673-1.644,1.661,1.661,0,0,1,1.7-1.729c1.569-.037,3.14-.034,4.709,0a1.69,1.69,0,1,1-.03,3.377c-.825.029-1.652.006-2.478,0" transform="translate(-26.482 -108.201)" fill="#013369"/>
    <path id="Path_7013" data-name="Path 7013" d="M61.5,205.514c.414,0,.829-.019,1.242.006a1.582,1.582,0,0,1,1.574,1.606,1.54,1.54,0,0,1-1.414,1.743,15.664,15.664,0,0,1-2.726.039,1.609,1.609,0,0,1-1.62-1.8,1.571,1.571,0,0,1,1.7-1.59c.414-.005.828,0,1.242,0" transform="translate(-53.883 -189.125)" fill="#013369"/>
    <path id="Path_7014" data-name="Path 7014" d="M189.724.013c3.7,0,7.41-.039,11.113.015A4.683,4.683,0,0,1,205.319,4.3c.166,3.177.043,6.358.067,9.537.013,1.752,0,3.505,0,5.258a4.825,4.825,0,0,1-4.968,4.984q-5.537.014-11.073,0a.953.953,0,0,0-.674.254c-2.557,2.2-5.124,4.379-7.679,6.576a1.221,1.221,0,0,1-1.352.287,1.26,1.26,0,0,1-.769-1.28c0-1.806,0-3.611.018-5.417,0-.32-.067-.4-.4-.439a4.827,4.827,0,0,1-4.4-4.233,10.612,10.612,0,0,1-.019-1.71q0-6.692,0-13.384A4.884,4.884,0,0,1,178.889.008c3.612.012,7.223.006,10.835.006m-8.4,27.412c.131-.106.192-.154.251-.2q3.057-2.611,6.109-5.227a1.243,1.243,0,0,1,.888-.33c1.748.015,3.5,0,5.245,0,2.284-.006,4.567-.026,6.851-.018a2.315,2.315,0,0,0,2.27-2.149c.02-.689.016-1.379.017-2.069q.006-6.209.01-12.418a2.385,2.385,0,0,0-2.571-2.583c-1.845,0-3.689-.013-5.534-.012q-5.413,0-10.825.014c-1.713,0-3.426-.006-5.138,0A2.335,2.335,0,0,0,176.726,3.8a3.639,3.639,0,0,0-.243,1.755q0,3.991.009,7.982c0,1.938,0,3.877.023,5.815a2.276,2.276,0,0,0,2.153,2.28c.423.032.849.025,1.273.039a1.286,1.286,0,0,1,1.385,1.462c-.014,1.4,0,2.806,0,4.3" transform="translate(-160.168 0)" fill="#013369"/>
    <path id="Path_7015" data-name="Path 7015" d="M353.868,189.843a1.6,1.6,0,0,0-1.238-.553,1.643,1.643,0,0,0-1.22.544,1.874,1.874,0,0,0-.012,2.565,1.614,1.614,0,0,0,1.213.547,1.644,1.644,0,0,0,1.22-.544,1.8,1.8,0,0,0,.514-1.284,1.861,1.861,0,0,0-.477-1.275" transform="translate(-322.924 -174.2)" fill="#013369"/>
    <path id="Path_7016" data-name="Path 7016" d="M351.757,63.041a.359.359,0,0,0,.357.326H353.4a.359.359,0,0,0,.357-.327l.7-7.76a2.314,2.314,0,0,0-.3-1.367,1.479,1.479,0,0,0-1.4-.739,1.532,1.532,0,0,0-1.368.724,2.172,2.172,0,0,0-.345,1.382Z" transform="translate(-323.048 -48.935)" fill="#013369"/>
  </g>
</svg>
