<svg xmlns="http://www.w3.org/2000/svg" width="26.542" height="28.943" viewBox="0 0 26.542 28.943">
  <g id="Group_4157" data-name="Group 4157" transform="translate(-1236.912 -668.5)">
    <path id="star" d="M237.961,340l-1.327,2.689-2.964.434a.65.65,0,0,0-.363,1.108l2.147,2.093-.507,2.956a.65.65,0,0,0,.942.685l2.655-1.4,2.655,1.4a.651.651,0,0,0,.942-.685l-.509-2.956,2.147-2.093a.651.651,0,0,0-.359-1.11l-2.964-.433L239.124,340a.65.65,0,0,0-1.166,0Z" transform="translate(1011.641 341.158)" fill="#013369"/>
    <path id="Path_5306" data-name="Path 5306" d="M72.863,74.588c-3.719,0-7.439-.009-11.159.006a2.124,2.124,0,0,1-2.067-1.637,2.373,2.373,0,0,1-.044-.477q0-10.251,0-20.5a2.106,2.106,0,0,1,1.425-2.05,2.282,2.282,0,0,1,.685-.088c.611,0,1.223,0,1.835,0,.117,0,.147-.031.145-.147-.005-.518-.011-1.036,0-1.554a2.582,2.582,0,0,1,1.926-2.383,1.979,1.979,0,0,1,.424-.062,8.155,8.155,0,0,1,1.7.039,2.548,2.548,0,0,1,2.066,2.45c.011.507.006,1.013,0,1.521,0,.109.029.135.136.135q2.926-.005,5.853,0c.107,0,.139-.025.137-.135q-.009-.736,0-1.471a2.534,2.534,0,0,1,2.1-2.5,5.1,5.1,0,0,1,2.246.075,2.532,2.532,0,0,1,1.768,2.347c.011.512.007,1.025,0,1.538,0,.115.028.147.145.147.634-.006,1.267-.009,1.9,0a2.063,2.063,0,0,1,2,1.647,2.312,2.312,0,0,1,.043.477q0,10.25,0,20.5a2.11,2.11,0,0,1-1.395,2.022,2.5,2.5,0,0,1-.782.1Zm.016-18.555q-5.531,0-11.06,0c-.152,0-.185.039-.185.188q.006,8.076,0,16.152c0,.154.042.185.189.185q11.044-.005,22.086,0c.155,0,.185-.043.185-.19q-.005-8.076,0-16.152c0-.155-.045-.184-.189-.183Q78.393,56.035,72.879,56.032Zm5.09-5.41q0,1.131,0,2.264c0,.4.167.569.573.572q.445,0,.892,0c.411,0,.574-.169.575-.589q0-1.743,0-3.486c0-.336,0-.672,0-1.008,0-.405-.175-.575-.575-.576h-.876c-.419,0-.588.17-.588.593Q77.969,49.508,77.97,50.623Zm-10.211.021c0-.771,0-1.542,0-2.313a.467.467,0,0,0-.483-.528q-.529-.013-1.058,0a.464.464,0,0,0-.492.47,1.478,1.478,0,0,0-.006.149v4.411a1.593,1.593,0,0,0,.007.165.452.452,0,0,0,.482.457c.33.008.661.006.99,0,.4,0,.559-.17.56-.568Q67.76,51.767,67.759,50.643Z" transform="translate(1177.318 622.849)" fill="#013369"/>
  </g>
</svg>
