<?xml version="1.0" encoding="utf-8"?>
<!-- Generator: Adobe Illustrator 22.0.0, SVG Export Plug-In . SVG Version: 6.00 Build 0)  -->
<svg version="1.1" id="Layer_1" xmlns="http://www.w3.org/2000/svg" xmlns:xlink="http://www.w3.org/1999/xlink" x="0px" y="0px"
	 viewBox="0 0 198.7 255.1" style="enable-background:new 0 0 198.7 255.1;" xml:space="preserve">
<style type="text/css">
	.st0{fill:#012857;}
</style>
<g>
	<path class="st0" d="M97.2,63.5L97.2,63.5c0.6-0.9,1.3-1.8,2-2.8c-2.7-2.3-6.6-4.5-11.4-5.5c-0.7,1-1.9,3-1.9,3
		C89.8,58.9,93.8,60.7,97.2,63.5L97.2,63.5z"/>
	<path class="st0" d="M101.6,57.4L101.6,57.4c0.7-0.9,1.4-1.8,2.2-2.7c-3.8-3.1-8-4.9-11.4-5.5c-0.8,0.9-1.5,1.8-2.2,2.6
		C94.5,52.8,98.4,54.8,101.6,57.4L101.6,57.4z"/>
	<path class="st0" d="M106.4,51.6L106.4,51.6c0.8-0.8,1.5-1.7,2.4-2.5c-2.3-1.9-5.6-4.1-10.6-5.3c-0.9,0.7-1.9,1.5-2.8,2.4
		C99.3,47.1,103.1,48.9,106.4,51.6L106.4,51.6z"/>
	<path class="st0" d="M193.3,27c0,0-20,15.6-48.3,8.5C112.1,27.3,99.1,2.7,99.1,2.7S86.3,27.3,53.3,35.5
		c-27.8,6.9-47.9-8.7-47.9-8.7v163.6c0,5.6,2.3,29.2,46.5,35.4c17.4,2.5,30.4,8.1,39.6,17.1c3.4,3.2,5.9,6.5,7.9,9.5
		c2-3,4.5-6.3,7.8-9.5c9.3-9,22.3-14.6,39.6-17.1c44.1-6.4,46.2-30,46.5-35.4V26.8L193.3,27z M137.6,52.4l3-8.7l3,8.7h9.2l-7.5,5.7
		l2.8,8.8l0,0h0l0,0l-7.4-5.2l-7.5,5.2l2.8-8.8l-7.5-5.7H137.6z M137.6,81.6l3-8.7l3,8.7h9.2l-7.5,5.7l2.8,8.8l0,0h0l0,0l-7.4-5.2
		l-7.5,5.2l2.8-8.8l-7.5-5.7H137.6z M116.7,33.4c1.6,0,2.3,0.3,2.3,0.3s-5.3,2-11.4,6.7c0,0-1.5-0.6-3-1c-1,0.6-2,1.3-2.9,2
		c2.8,0.7,6.5,2.2,10,5.1c0.8-0.7,1.6-1.5,2.4-2.2c-0.8-0.7-2.2-1.6-3.4-2.3c5.4-5.3,9.3-7.4,9.3-7.4l0,0c0.8-0.1,1.2,0.9,1.5,1.5
		c3.3,8.2,4.1,18.2,1.6,27.7c-3.8,14.6-16,28-42.4,31.4c-0.6,0.1-1.3-0.1-1.3-0.4c1.2-5.5,4.2-16.1,10.6-27.3
		c1.3,0.7,2.4,1.5,3.5,2.4c0.4-0.6,0.9-1.5,1.7-2.7c-3.2-2.6-6.9-4.3-11.2-5.1c0,0-0.8,1.6-1.4,2.8c0,0,1.6,0.3,3.6,1
		c-5.7,12.2-7.6,23.5-8.2,28.6c-1.6-2.6-2.9-8.5-3.3-11.8C70.5,51.6,92.6,33.7,116.7,33.4z M65.4,96.3L57.9,91l-7.5,5.2l2.8-8.8l0,0
		l-7.5-5.6h9.2l3-8.7l3,8.7h9.2l-7.5,5.7L65.4,96.3z M54.9,52.6l3-8.7l3,8.7h9.2l-7.5,5.7l2.8,8.8l-7.5-5.2l-7.5,5.2l2.8-8.8l0,0
		l-7.5-5.6H54.9z M22.5,52.6l3-8.7l3,8.7h9.2l-7.5,5.7l2.8,8.8l-7.5-5.2L18,67.1l2.8-8.8l0,0l-7.5-5.6H22.5z M13.3,81.8h9.2l3-8.7
		l3,8.7h9.2l-7.5,5.7l2.8,8.8L25.5,91L18,96.3l2.8-8.8l0,0L13.3,81.8z M145.3,215.3c-33.1,5.1-45.8,20.9-45.8,20.9h-0.3
		c0,0-12.6-15.7-45.8-20.9c-37.9-5.9-36.8-23.7-36.8-24.6v-85.8h165.7v85.8C182.1,191.6,183.5,209.4,145.3,215.3z M178,87.3l2.8,8.8
		l0,0h0l0,0l-7.4-5.2l-7.5,5.2l2.8-8.8l-7.5-5.7h9.2l3-8.7l3,8.7h9.2L178,87.3z M178,58.1l2.8,8.8l0,0h0l0,0l-7.4-5.2l-7.5,5.2
		l2.8-8.8l-7.5-5.7h9.2l3-8.7l3,8.7h9.2L178,58.1z"/>
	<polygon class="st0" points="83.9,124.2 89.3,126.9 89.3,200.9 83.9,203.1 83.9,212.1 108.6,221.3 108.6,210.8 103.7,204.9 
		103.7,163.9 112,163.9 115.2,168.4 121.8,168.4 121.8,146.3 115.2,146.3 111.9,151 103.7,151 103.7,126.2 114.7,126.2 117.5,135 
		127,135 127,113.5 83.9,113.5 	"/>
	<polygon class="st0" points="55.5,124.1 60.6,127 60.6,167.5 43,113.5 24.1,113.5 24.1,124 30,126.9 30,185.6 24.2,187.9 
		24.2,197.1 49.2,203.4 49.2,192.6 43.5,188.2 43.5,153.2 61.5,206.3 73.9,210 73.9,127 78.8,124.1 78.8,113.6 55.5,113.6 	"/>
	<polygon class="st0" points="162.6,186.3 151.9,189.2 151.9,127 156.7,124.3 156.7,113.6 132,113.6 132,124.3 137.2,127 137.2,193 
		131.1,198.1 131.1,208.6 131,208.9 174.8,197.2 174.8,170.1 164.6,170.1 	"/>
</g>
</svg>
