<svg xmlns="http://www.w3.org/2000/svg" width="137.286" height="60.154" viewBox="0 0 137.286 60.154">
  <g id="Group_3407" data-name="Group 3407" transform="translate(5127 -17272.939)">
    <g id="Group_3406" data-name="Group 3406" transform="translate(3 3.471)">
      <path id="Path_1784" data-name="Path 1784" d="M22.1,0A15.222,15.222,0,0,1,20.04,3.108C14.839,9.135,7.846,11.155,0,4.086v41.09c.085,4.662,3.631,6.244,6.9,7.473l2.562.726c3.841.5,7.571,1.449,12.633,6.78,5.062-5.331,8.792-6.284,12.633-6.78l2.561-.726c3.275-1.229,6.821-2.807,6.9-7.473V4.086c-7.84,7.069-14.836,5.049-20.037-.977A15.222,15.222,0,0,1,22.1,0" transform="translate(-5130.003 17269.469)" fill="#fff"/>
      <path id="Path_1785" data-name="Path 1785" d="M24.426,6.048a13.806,13.806,0,0,1-1.937-2.9,13.8,13.8,0,0,1-1.937,2.9A13.337,13.337,0,0,1,2.2,7.829V44.085c.078,4.218,3.325,5.648,6.325,6.757l2.346.656c3.524.448,6.946,1.313,11.6,6.157l.021-.028.021.028c4.65-4.841,8.069-5.707,11.6-6.157l2.346-.656c3-1.112,6.247-2.538,6.325-6.757V7.829A13.335,13.335,0,0,1,24.426,6.048Z" transform="translate(-5130.23 17269.143)" fill="#1d3767"/>
      <g id="Group_6" data-name="Group 6" transform="translate(-5113.587 17279.119)">
        <path id="Path_1786" data-name="Path 1786" d="M29.124,11s-6.241-.909-9.229,3.915a9.937,9.937,0,0,0-.868,9.092s6.268,1.054,9.593-4.073C31.386,15.679,29.124,11,29.124,11Z" transform="translate(-18.31 -10.782)" fill="#fff"/>
        <g id="Group_4" data-name="Group 4" transform="translate(2.442 1.504)">
          <path id="Path_1787" data-name="Path 1787" d="M22.9,15.051,25.7,16.48c.107-.113.213-.224.322-.334l-2.8-1.435C23.113,14.823,23.007,14.935,22.9,15.051Z" transform="translate(-21.226 -12.677)" fill="#1d3767"/>
          <path id="Path_1788" data-name="Path 1788" d="M21.852,16.379l2.723,1.39q.159-.2.324-.39l-2.756-1.409C22.043,16.1,21.946,16.239,21.852,16.379Z" transform="translate(-21.118 -12.807)" fill="#1d3767"/>
          <path id="Path_1789" data-name="Path 1789" d="M21.033,17.771l2.627,1.345c.075-.13.152-.257.233-.38l-2.649-1.355Q21.135,17.573,21.033,17.771Z" transform="translate(-21.033 -12.953)" fill="#1d3767"/>
          <path id="Path_1790" data-name="Path 1790" d="M25.95,12.442c-.136.09-.275.187-.414.288l2.7,1.381c.126-.107.249-.211.37-.31Z" transform="translate(-21.499 -12.442)" fill="#1d3767"/>
          <path id="Path_1791" data-name="Path 1791" d="M24.109,13.858,26.9,15.285c.128-.12.256-.238.382-.353l-2.77-1.417C24.376,13.624,24.243,13.74,24.109,13.858Z" transform="translate(-21.351 -12.553)" fill="#1d3767"/>
        </g>
        <g id="Group_5" data-name="Group 5" transform="translate(0.501 0)">
          <path id="Path_1792" data-name="Path 1792" d="M27.481,13.214a36.152,36.152,0,0,1,2.9-2.291l-.238-.16a12.25,12.25,0,0,0-3.346,2.1Z" transform="translate(-19.688 -10.764)" fill="#1d3767"/>
          <path id="Path_1793" data-name="Path 1793" d="M22.007,18.177a35.973,35.973,0,0,0-3.138,6.652l.284.172a43.659,43.659,0,0,1,3.42-6.545Z" transform="translate(-18.869 -11.531)" fill="#1d3767"/>
        </g>
      </g>
      <g id="Group_9" data-name="Group 9" transform="translate(-5126.383 17281.457)">
        <g id="Group_7" data-name="Group 7" transform="translate(24.952 0)">
          <path id="Path_1794" data-name="Path 1794" d="M42.175,13.372l.675,1.92h2.128l-1.7,1.355.648,2.07L42.17,17.378l-1.753,1.255.674-2-1.644-1.34H41.5Z" transform="translate(-32.652 -13.372)" fill="#fff"/>
          <path id="Path_1795" data-name="Path 1795" d="M42.175,20.375,42.85,22.3h2.128l-1.7,1.353.648,2.071L42.17,24.381l-1.753,1.255.674-2-1.644-1.34H41.5Z" transform="translate(-32.652 -14.096)" fill="#fff"/>
          <path id="Path_1796" data-name="Path 1796" d="M34.656,20.375l.675,1.921H37.46l-1.7,1.353.648,2.071-1.754-1.339L32.9,25.636l.672-2-1.644-1.34h2.05Z" transform="translate(-31.875 -14.096)" fill="#fff"/>
          <path id="Path_1797" data-name="Path 1797" d="M34.594,13.372l.674,1.92H37.4l-1.7,1.355.646,2.07-1.753-1.339-1.752,1.255.674-2-1.645-1.34h2.05Z" transform="translate(-31.868 -13.372)" fill="#fff"/>
        </g>
        <g id="Group_8" data-name="Group 8" transform="translate(0 0)">
          <path id="Path_1798" data-name="Path 1798" d="M14.338,13.372l.674,1.92h2.131l-1.7,1.355.648,2.07-1.754-1.339-1.753,1.255.673-2-1.644-1.34h2.05Z" transform="translate(-4.82 -13.372)" fill="#fff"/>
          <path id="Path_1799" data-name="Path 1799" d="M14.338,20.375l.674,1.921h2.131l-1.7,1.353.648,2.071-1.754-1.339-1.753,1.255.673-2-1.644-1.34h2.05Z" transform="translate(-4.82 -14.096)" fill="#fff"/>
          <path id="Path_1800" data-name="Path 1800" d="M6.824,20.375,7.5,22.3H9.628l-1.7,1.353.648,2.071L6.825,24.381,5.073,25.636l.672-2L4.1,22.293h2.05Z" transform="translate(-4.044 -14.096)" fill="#fff"/>
          <path id="Path_1801" data-name="Path 1801" d="M6.763,13.372l.674,1.92H9.57l-1.7,1.355.646,2.07L6.76,17.378,5.008,18.633l.674-2L4.037,15.29h2.05Z" transform="translate(-4.037 -13.372)" fill="#fff"/>
        </g>
      </g>
      <path id="Path_1802" data-name="Path 1802" d="M4.443,27.9V45.314c.07,3.875,3,5.186,5.7,6.206l2.114.6c3.175.413,6.258,1.206,10.447,5.655l.019-.026.018.026c4.189-4.449,7.272-5.242,10.447-5.655l2.114-.6C38,50.5,40.929,49.189,41,45.314V27.9Z" transform="translate(-5130.462 17266.582)" fill="#fff"/>
      <path id="Path_1803" data-name="Path 1803" d="M25.512,30.473H21.124v2.758h1.153V49.185c-.71-.082-1.32-.126-1.32-.126v2.5a17.425,17.425,0,0,1,2.618.491c.876.264,3.027,1.269,3.027,1.269V50.556A8.786,8.786,0,0,0,25.508,50V41.068H27.2L27.6,42.2H29.42v-5.11H27.6l-.434,1.218H25.508V33.234h2.127l.7,1.619h2.195V30.477Z" transform="translate(-5132.17 17266.316)" fill="#b42025"/>
      <path id="Path_1804" data-name="Path 1804" d="M17.533,30.454H13.36v2.758H14.3v6.739L10.926,30.3v-.007H6.774v2.758h.92V45.185c-.742-.038-1.389-.039-1.389-.039l.224,2.806a15.651,15.651,0,0,1,2.654.343c.9.228,3.132,1.184,3.132,1.184l-.248-3.1a8.386,8.386,0,0,0-1.141-.538V40.1l3.5,10,3.111.962V33.211h.9V30.453Z" transform="translate(-5130.655 17266.334)" fill="#b42025"/>
      <path id="Path_1805" data-name="Path 1805" d="M39.461,41.893v3.922c-.852.191-1.779.412-2.551.628V33.233l.94-.43V30.472H32.74V32.8l.941.43v14.5c-.55.284-1.017.561-1.391.8v3.151a54.037,54.037,0,0,1,4.8-2.528,19.65,19.65,0,0,1,4.925-1.18V41.893Z" transform="translate(-5133.342 17266.316)" fill="#b42025"/>
    </g>
    <path id="Path_4580" data-name="Path 4580" d="M84.155,48.5h-7.5L65.571,29.035V48.5H58.03V17.219h7.541L76.636,36.683V17.219h7.519Z" transform="translate(-5128.003 17269.469)" fill="#013369"/>
    <path id="Path_4581" data-name="Path 4581" d="M108.626,36.039H96.466V48.5H88.925V17.219h20.926v5.822H96.466v7.2h12.16Z" transform="translate(-5126.003 17269.469)" fill="#013369"/>
    <path id="Path_4582" data-name="Path 4582" d="M120.528,42.7h13.127v5.8H112.987V17.219h7.541Z" transform="translate(-5123.369 17269.469)" fill="#013369"/>
  </g>
</svg>
