<?xml version="1.0" encoding="utf-8"?>
<!-- Generator: Adobe Illustrator 22.0.0, SVG Export Plug-In . SVG Version: 6.00 Build 0)  -->
<svg version="1.1" id="Layer_1" xmlns="http://www.w3.org/2000/svg" xmlns:xlink="http://www.w3.org/1999/xlink" x="0px" y="0px"
	 viewBox="0 0 100 100" style="enable-background:new 0 0 100 100;" xml:space="preserve">
<style type="text/css">
	.st0{fill:#466A92;}
</style>
<g>
	<g>
		<path class="st0" d="M11.8,82.3l0,0.6c0.4-0.5,0.9-0.7,1.6-0.7c0.6,0,1,0.2,1.3,0.5s0.4,0.8,0.4,1.5v3.5h-1.4v-3.5
			c0-0.3-0.1-0.5-0.2-0.7c-0.1-0.1-0.4-0.2-0.7-0.2c-0.4,0-0.7,0.2-0.9,0.5v3.8h-1.4v-5.4H11.8z"/>
		<path class="st0" d="M15.9,84.9c0-0.5,0.1-1,0.3-1.4c0.2-0.4,0.5-0.7,0.9-1c0.4-0.2,0.8-0.3,1.4-0.3c0.7,0,1.3,0.2,1.8,0.7
			s0.7,1.1,0.8,1.8l0,0.4c0,0.8-0.2,1.5-0.7,2s-1.1,0.8-1.9,0.8c-0.8,0-1.4-0.3-1.9-0.8C16.2,86.6,15.9,85.9,15.9,84.9L15.9,84.9z
			 M17.4,85c0,0.5,0.1,0.9,0.3,1.2c0.2,0.3,0.5,0.4,0.8,0.4c0.4,0,0.6-0.1,0.8-0.4c0.2-0.3,0.3-0.7,0.3-1.3c0-0.5-0.1-0.9-0.3-1.2
			c-0.2-0.3-0.5-0.4-0.8-0.4c-0.4,0-0.6,0.1-0.8,0.4C17.5,84,17.4,84.5,17.4,85z"/>
		<path class="st0" d="M24.3,85c0-0.8,0.2-1.5,0.6-2c0.4-0.5,0.9-0.8,1.6-0.8c0.5,0,1,0.2,1.3,0.6V80h1.5v7.7h-1.3l-0.1-0.6
			c-0.4,0.5-0.8,0.7-1.4,0.7c-0.6,0-1.2-0.3-1.5-0.8C24.5,86.5,24.3,85.8,24.3,85z M25.8,85.1c0,0.5,0.1,0.9,0.3,1.2
			c0.2,0.3,0.4,0.4,0.8,0.4c0.4,0,0.8-0.2,0.9-0.6v-2.1c-0.2-0.4-0.5-0.6-0.9-0.6C26.1,83.4,25.8,83.9,25.8,85.1z"/>
		<path class="st0" d="M33.5,87.7c-0.1-0.1-0.1-0.3-0.1-0.5c-0.4,0.4-0.8,0.6-1.4,0.6c-0.5,0-1-0.2-1.3-0.5s-0.5-0.7-0.5-1.2
			c0-0.6,0.2-1,0.6-1.3s1-0.5,1.8-0.5h0.7v-0.3c0-0.3-0.1-0.5-0.2-0.6s-0.3-0.2-0.6-0.2c-0.2,0-0.4,0.1-0.6,0.2
			c-0.1,0.1-0.2,0.3-0.2,0.5h-1.4c0-0.3,0.1-0.6,0.3-0.9c0.2-0.3,0.5-0.5,0.8-0.6c0.4-0.2,0.8-0.2,1.2-0.2c0.7,0,1.2,0.2,1.6,0.5
			s0.6,0.8,0.6,1.4v2.4c0,0.5,0.1,0.9,0.2,1.2v0.1H33.5z M32.3,86.7c0.2,0,0.4,0,0.6-0.1s0.3-0.2,0.4-0.4v-0.9h-0.5
			c-0.7,0-1.1,0.3-1.2,0.8l0,0.1c0,0.2,0.1,0.3,0.2,0.4C31.9,86.6,32,86.7,32.3,86.7z"/>
		<path class="st0" d="M37.6,80.9v1.3h0.9v1.1h-0.9V86c0,0.2,0,0.3,0.1,0.4c0.1,0.1,0.2,0.1,0.4,0.1c0.2,0,0.3,0,0.4,0v1.1
			c-0.3,0.1-0.6,0.1-0.9,0.1c-1,0-1.5-0.5-1.6-1.5v-2.9h-0.8v-1.1h0.8v-1.3H37.6z"/>
		<path class="st0" d="M42.4,87.7c-0.1-0.1-0.1-0.3-0.1-0.5c-0.4,0.4-0.8,0.6-1.4,0.6c-0.5,0-1-0.2-1.3-0.5s-0.5-0.7-0.5-1.2
			c0-0.6,0.2-1,0.6-1.3s1-0.5,1.8-0.5h0.7v-0.3c0-0.3-0.1-0.5-0.2-0.6s-0.3-0.2-0.6-0.2c-0.2,0-0.4,0.1-0.6,0.2
			c-0.1,0.1-0.2,0.3-0.2,0.5h-1.4c0-0.3,0.1-0.6,0.3-0.9c0.2-0.3,0.5-0.5,0.8-0.6c0.4-0.2,0.8-0.2,1.2-0.2c0.7,0,1.2,0.2,1.6,0.5
			s0.6,0.8,0.6,1.4v2.4c0,0.5,0.1,0.9,0.2,1.2v0.1H42.4z M41.2,86.7c0.2,0,0.4,0,0.6-0.1s0.3-0.2,0.4-0.4v-0.9h-0.5
			c-0.7,0-1.1,0.3-1.2,0.8l0,0.1c0,0.2,0.1,0.3,0.2,0.4C40.8,86.6,41,86.7,41.2,86.7z"/>
		<path class="st0" d="M50.5,87.7c-0.1-0.1-0.1-0.3-0.1-0.5c-0.4,0.4-0.8,0.6-1.4,0.6c-0.5,0-1-0.2-1.3-0.5s-0.5-0.7-0.5-1.2
			c0-0.6,0.2-1,0.6-1.3s1-0.5,1.8-0.5h0.7v-0.3c0-0.3-0.1-0.5-0.2-0.6s-0.3-0.2-0.6-0.2c-0.2,0-0.4,0.1-0.6,0.2
			c-0.1,0.1-0.2,0.3-0.2,0.5h-1.4c0-0.3,0.1-0.6,0.3-0.9c0.2-0.3,0.5-0.5,0.8-0.6c0.4-0.2,0.8-0.2,1.2-0.2c0.7,0,1.2,0.2,1.6,0.5
			s0.6,0.8,0.6,1.4v2.4c0,0.5,0.1,0.9,0.2,1.2v0.1H50.5z M49.3,86.7c0.2,0,0.4,0,0.6-0.1s0.3-0.2,0.4-0.4v-0.9h-0.5
			c-0.7,0-1.1,0.3-1.2,0.8l0,0.1c0,0.2,0.1,0.3,0.2,0.4C48.9,86.6,49.1,86.7,49.3,86.7z"/>
		<path class="st0" d="M54.8,85.9l1-3.7h1.5l-1.8,5.4h-1.4l-1.8-5.4h1.5L54.8,85.9z"/>
		<path class="st0" d="M61,87.7c-0.1-0.1-0.1-0.3-0.1-0.5c-0.4,0.4-0.8,0.6-1.4,0.6c-0.5,0-1-0.2-1.3-0.5s-0.5-0.7-0.5-1.2
			c0-0.6,0.2-1,0.6-1.3s1-0.5,1.8-0.5h0.7v-0.3c0-0.3-0.1-0.5-0.2-0.6s-0.3-0.2-0.6-0.2c-0.2,0-0.4,0.1-0.6,0.2
			c-0.1,0.1-0.2,0.3-0.2,0.5h-1.4c0-0.3,0.1-0.6,0.3-0.9c0.2-0.3,0.5-0.5,0.8-0.6c0.4-0.2,0.8-0.2,1.2-0.2c0.7,0,1.2,0.2,1.6,0.5
			s0.6,0.8,0.6,1.4v2.4c0,0.5,0.1,0.9,0.2,1.2v0.1H61z M59.8,86.7c0.2,0,0.4,0,0.6-0.1s0.3-0.2,0.4-0.4v-0.9h-0.5
			c-0.7,0-1.1,0.3-1.2,0.8l0,0.1c0,0.2,0.1,0.3,0.2,0.4C59.4,86.6,59.6,86.7,59.8,86.7z"/>
		<path class="st0" d="M63.4,80.9c0-0.2,0.1-0.4,0.2-0.5c0.1-0.1,0.3-0.2,0.6-0.2c0.2,0,0.4,0.1,0.6,0.2c0.1,0.1,0.2,0.3,0.2,0.5
			c0,0.2-0.1,0.4-0.2,0.5c-0.1,0.1-0.3,0.2-0.6,0.2s-0.4-0.1-0.6-0.2C63.5,81.3,63.4,81.1,63.4,80.9z M64.9,87.7h-1.5v-5.4h1.5V87.7
			z"/>
		<path class="st0" d="M67.6,87.7h-1.5V80h1.5V87.7z"/>
		<path class="st0" d="M72,87.7c-0.1-0.1-0.1-0.3-0.1-0.5c-0.4,0.4-0.8,0.6-1.4,0.6c-0.5,0-1-0.2-1.3-0.5s-0.5-0.7-0.5-1.2
			c0-0.6,0.2-1,0.6-1.3s1-0.5,1.8-0.5h0.7v-0.3c0-0.3-0.1-0.5-0.2-0.6s-0.3-0.2-0.6-0.2c-0.2,0-0.4,0.1-0.6,0.2
			c-0.1,0.1-0.2,0.3-0.2,0.5h-1.4c0-0.3,0.1-0.6,0.3-0.9c0.2-0.3,0.5-0.5,0.8-0.6c0.4-0.2,0.8-0.2,1.2-0.2c0.7,0,1.2,0.2,1.6,0.5
			s0.6,0.8,0.6,1.4v2.4c0,0.5,0.1,0.9,0.2,1.2v0.1H72z M70.8,86.7c0.2,0,0.4,0,0.6-0.1s0.3-0.2,0.4-0.4v-0.9h-0.5
			c-0.7,0-1.1,0.3-1.2,0.8l0,0.1c0,0.2,0.1,0.3,0.2,0.4C70.4,86.6,70.6,86.7,70.8,86.7z"/>
		<path class="st0" d="M79.2,85c0,0.9-0.2,1.5-0.6,2c-0.4,0.5-0.9,0.7-1.6,0.7c-0.6,0-1.1-0.2-1.4-0.7l-0.1,0.6h-1.3V80h1.4v2.8
			c0.3-0.4,0.8-0.6,1.3-0.6c0.7,0,1.2,0.2,1.6,0.7S79.2,84.1,79.2,85L79.2,85z M77.8,84.9c0-0.5-0.1-0.9-0.3-1.2
			c-0.2-0.3-0.4-0.4-0.8-0.4c-0.5,0-0.8,0.2-1,0.6v2.1c0.2,0.4,0.5,0.6,1,0.6c0.5,0,0.8-0.2,0.9-0.7C77.7,85.7,77.8,85.4,77.8,84.9z
			"/>
		<path class="st0" d="M81.6,87.7h-1.5V80h1.5V87.7z"/>
		<path class="st0" d="M85.3,87.8c-0.8,0-1.4-0.2-1.9-0.7c-0.5-0.5-0.7-1.1-0.7-2V85c0-0.5,0.1-1,0.3-1.5c0.2-0.4,0.5-0.8,0.9-1
			c0.4-0.2,0.8-0.3,1.3-0.3c0.7,0,1.3,0.2,1.8,0.7c0.4,0.5,0.6,1.1,0.6,2v0.6h-3.5c0,0.4,0.2,0.6,0.4,0.9c0.2,0.2,0.5,0.3,0.9,0.3
			c0.6,0,1-0.2,1.3-0.6l0.7,0.8c-0.2,0.3-0.5,0.5-0.9,0.7C86.2,87.7,85.8,87.8,85.3,87.8z M85.2,83.3c-0.3,0-0.5,0.1-0.7,0.3
			s-0.3,0.5-0.3,0.8h2v-0.1c0-0.3-0.1-0.6-0.3-0.7S85.5,83.3,85.2,83.3z"/>
	</g>
</g>
<g>
	<g>
		<path class="st0" d="M66.8,41.1c-0.3-1.7-1.2-2.6-2.9-2.9c-2.9-0.5-5.9-0.5-8.8,0c-13.5,2.5-22.4,15.4-20,28.9
			c0.1,1.5,1.4,2.7,2.9,2.9c2.7,0.5,5.5,0.6,8.2,0.2c12.2-1.8,21.6-13,21-25.2C67.1,44.2,67.1,42.7,66.8,41.1z M39.3,68.2
			c-2-0.3-2.1-0.2-2.3-2.3C36.8,64,36.8,62,36.7,60l8.3,8.3C43.1,68.6,41.2,68.6,39.3,68.2z M48.7,67.7c-0.5,0.2-1.1,0.1-1.5-0.4
			c-3.1-3.1-6.1-6.2-9.2-9.3c-0.5-0.4-0.6-1-0.4-1.6c2.5-8.1,7.8-13.4,15.9-15.8c0.5-0.2,1-0.1,1.3,0.3c3.1,3.1,6.2,6.3,9.4,9.4
			c0.2,0.2,0.4,0.5,0.5,0.7l0,0C62.7,59.1,56.6,65.4,48.7,67.7z M65.3,48.2c0,0,0,0.3-0.3,0c-0.3-0.3-8.3-8.2-8.3-8.2
			c1.1-0.1,1.6-0.2,2.9-0.1c1.3,0,2.5,0.2,3.7,0.3c0.9,0.1,1.4,0.6,1.7,1.4C65.2,42.5,65.4,45.9,65.3,48.2z"/>
		<path class="st0" d="M56.8,48.4c-0.7-0.7-1.3-0.3-1.8,0.3c-0.3,0.3-0.6,0.7-1,1.3c-0.6-0.7-0.9-1.2-1.3-1.6
			c-0.5-0.5-1.1-0.5-1.4,0.1c-0.2,0.4-0.2,0.9,0.1,1.4c0.4,0.4,0.8,0.8,1.3,1.2L51,52.8c-0.5-0.5-0.8-1-1.2-1.3
			c0-0.1-0.1-0.1-0.1-0.1c-0.4-0.4-1-0.3-1.4,0.1c-0.1,0.1-0.1,0.1-0.2,0.2c-0.3,0.5-0.2,1.1,0.3,1.4c0.4,0.4,0.9,0.7,1.3,1
			l-1.8,1.8c-0.3-0.4-0.6-0.6-0.8-0.8c-0.9-0.9-1.4-1-1.9-0.4c-0.7,0.8,0,1.4,0.5,2c0.3,0.2,0.9,0.8,0.9,0.8s-0.8,0.7-1.2,1.1
			c-0.5,0.5-0.7,1.1-0.1,1.6c0.1,0.1,0.1,0.1,0.2,0.1c0.5,0.3,1.1,0.2,1.4-0.3c0.4-0.4,0.6-0.8,1.1-1.4c0.4,0.6,0.9,1.1,1.4,1.5
			c0.4,0.2,0.9,0.2,1.3-0.1c0.2-0.2,0.2-0.9,0-1.3c-0.4-0.5-0.8-1-1.3-1.4l1.6-1.7c0.4,0.5,0.8,0.9,1.2,1.3c0,0,0.1,0.1,0.1,0.1
			c0.4,0.3,1,0.3,1.3-0.1c0.1,0,0.1-0.1,0.1-0.1c0.3-0.4,0.3-1-0.1-1.3c-0.4-0.4-0.9-0.8-1.3-1.2l1.8-1.8c0.4,0.5,0.8,0.9,1.2,1.3
			c0,0.1,0.1,0.1,0.1,0.1c0.4,0.4,1,0.3,1.3,0c0.1,0,0.1-0.1,0.2-0.2c0.3-0.4,0.2-1-0.2-1.3c-0.4-0.4-0.8-0.8-1.3-1.4
			c0.4-0.3,0.7-0.6,1.1-0.9C57,49.6,57.4,49,56.8,48.4z"/>
		<path class="st0" d="M91.1,34.1c-2.5-8.8-9.2-13.8-18.2-13.4c-1.5,0.1-2.2-0.3-2.9-1.6c-4.2-7-10.5-11-18.6-12
			c-0.2,0-5.6-1-12.5,1.3c-7.7,2.9-12.7,8.4-15.1,16.2c-0.2,0.8-0.6,1.2-1.4,1.4c-6.9,1.9-11.9,5.8-13.6,13.1c0,0.1-0.8,4.2,0.3,8.4
			c1.6,6.1,5.5,10.2,11.6,12.2c2.4,0.8,4.9,0.8,7.4,0.7c4,0,4,0,3.8-4c0-0.8-0.2-1.1-1.1-1c-1.9,0.1-3.8,0-5.8,0
			c-5,0-9.4-3.5-11.1-8.7c-1.6-5.1-0.1-10.4,4-13.4c2.4-1.8,5.2-2.6,8.1-3.1c0.9-0.1,1.5-0.3,1.7-1.4c1.9-10.2,8.7-16.4,19-17
			c7.8-0.5,14,2.7,18.5,9.2c0.6,0.9,0.5,1.3-0.5,1.7c-1.4,0.5-2.7,1.4-4,2.2c-3.4,2.3-3.4,2.3-0.7,5.4c0.6,0.7,1,0.8,1.7,0.2
			c1.6-1.4,3.4-2.6,5.4-3.4c4.5-1.9,9.1-2.4,13.4,0.5c4.6,3,6.1,7.6,6.2,12.9c0.2,8.3-4.7,13.9-14.2,15c-3.8,0.4-3.8,0.1-3.7,4.1
			c0,0.8,0.3,1,1.1,1c3,0.2,5.8-0.3,8.6-1.4c6.1-2.3,10.6-6.1,12.4-12.6C92.9,40.8,91.4,35,91.1,34.1z"/>
		<path class="st0" d="M42,28.6C42,28.6,42,28.6,42,28.6c0.4,0,0.7-0.2,0.8-0.5c0.1-0.1,0.1-0.3,0.1-0.4c0-1.2,0.1-2.3,0.1-3.5
			l0-1.4c0.1-0.2,0-0.5-0.1-0.7c-0.1-0.2-0.4-0.4-0.6-0.4c-0.4-0.1-0.7,0-1,0.1c-0.3,0.2-0.5,0.5-0.4,0.8l0.2,5
			c0,0.2,0.1,0.5,0.3,0.6C41.5,28.5,41.8,28.6,42,28.6z"/>
		<path class="st0" d="M41.2,32c0.2,0.2,0.5,0.3,0.8,0.3h0c0,0,0,0,0,0c0.6,0,1.1-0.5,1.1-1.1c0-0.3-0.1-0.6-0.3-0.8
			c-0.2-0.2-0.5-0.3-0.8-0.3c-0.3,0-0.6,0.1-0.8,0.3c-0.2,0.2-0.3,0.5-0.3,0.8C40.9,31.5,41,31.8,41.2,32z M42,31.9L42,31.9L42,31.9
			L42,31.9z"/>
		<path class="st0" d="M35.2,32.7c0.1-0.2,0.1-0.4,0.1-0.7l0-0.1c-0.1-0.3-0.3-0.6-0.4-0.8c-1.4-3.1-1-5.9,1-8.4
			c2.1-2.6,4.9-3.5,8.2-2.6c3.1,0.9,5,3,5.7,6.2c0.4,2.1,0,4.1-1.3,5.9c-0.3,0.4-0.4,0.8-0.3,1.3c0.1,0.8,0.5,1.6,1,2.3
			c-0.1,0-0.1,0-0.2,0c-0.6-0.1-1.3-0.3-1.9-0.5c-0.4-0.1-0.7-0.2-1.1-0.3c-0.3-0.1-0.6-0.1-0.9,0c-3,1.1-5.7,0.6-8.2-1.4
			c-0.7-0.6-1.1-0.2-1.4,0c-0.2,0.3-0.3,0.5-0.2,0.7c0,0.4,0.3,0.6,0.5,0.8c2.8,2.4,6.1,3,9.6,1.9c0.2-0.1,0.3-0.1,0.5,0
			c0.7,0.2,1.5,0.4,2.2,0.5l1.2,0.3l1,0c0.1,0,0.2,0,0.3-0.1c0.4-0.1,1-0.3,1.2-0.9c0.2-0.6-0.2-1.1-0.6-1.5c-0.5-0.5-0.8-1.1-1-1.8
			c0-0.1,0-0.2,0-0.3c3-4.4,1.9-10.5-2.5-13.5c-2.1-1.5-4.7-2-7.3-1.5c-2.5,0.5-4.8,1.9-6.2,4.1c-2.1,3.1-2.2,7.1-0.4,10.4
			c0.1,0.1,0.1,0.3,0.4,0.4c0.1,0.1,0.3,0.1,0.4,0.1C34.7,33.2,35.1,33,35.2,32.7z"/>
	</g>
</g>
</svg>
