<svg xmlns="http://www.w3.org/2000/svg" width="66.417" height="22.459" viewBox="0 0 66.417 22.459">
  <g id="Group_3385" data-name="Group 3385" transform="translate(515.034 -326.834)">
    <path id="Path_4553" data-name="Path 4553" d="M-402.086,338c0,3.333.012,6.667-.009,10,0,.769.266,1.139,1.068,1.1.665-.035,1.333-.013,2,0,1.042.012,1.112-.054,1.113-1.132q0-1.958,0-3.917c0-.4.006-.81.427-1.005.466-.215.777.079,1.077.394q2.474,2.59,4.958,5.171c.289.3.567.636,1.029.64,1.25.012,2.5.038,3.749,0,.719-.023.97-.656.53-1.243a7.109,7.109,0,0,0-.624-.669c-1.882-1.926-3.771-3.846-5.646-5.779-.931-.959-.931-1.293-.083-2.236,1.577-1.755,3.146-3.516,4.736-5.259.31-.34.514-.69.313-1.117-.191-.405-.609-.426-1.01-.424-.944,0-1.889.01-2.833,0a1.584,1.584,0,0,0-1.306.579c-1.21,1.375-2.453,2.722-3.694,4.07-.288.313-.537.775-1.086.579-.568-.2-.535-.71-.535-1.187,0-2.889-.021-5.778.014-8.667.009-.781-.326-1.051-1.036-1.043-.694.008-1.389.014-2.083,0-.746-.016-1.092.247-1.082,1.075C-402.063,331.273-402.086,334.634-402.086,338Z" transform="translate(-94.094 -0.002)" fill="#007dc0"/>
    <path id="Path_4554" data-name="Path 4554" d="M-301.154,334.62c0,.445-.012.89,0,1.334a48.124,48.124,0,0,0,.167,6.573,8.356,8.356,0,0,0,9.085,6.7c.549-.076.921-.28.872-.876-.074-.913-.182-1.824-.3-2.732a.669.669,0,0,0-.754-.619c-.361.006-.723.036-1.083.015a4.094,4.094,0,0,1-3.705-3.755c.007-1.11.033-2.22.057-3.33.021-.938.249-1.17,1.206-1.185,1-.016,2-.008,3,0,.549,0,.815-.241.8-.811-.019-.806-.027-1.613,0-2.418.024-.712-.289-1.018-.992-1.005-.973.017-1.946.013-2.918,0-.9-.011-1.26-.375-1.265-1.258-.007-1.139-.044-2.281.014-3.418.038-.758-.307-1-.977-.993-.723,0-1.446.014-2.168,0-.78-.019-1.07.325-1.056,1.115C-301.129,330.172-301.154,332.4-301.154,334.62Z" transform="translate(-178.178 0)" fill="#007dc0"/>
    <path id="Path_4555" data-name="Path 4555" d="M-220.6,366.408a43.59,43.59,0,0,0,.133,4.771c.186,1.415.662,1.918,2.074,2,.76.045,1.035.309.975,1.064a14.341,14.341,0,0,0,0,2.165.874.874,0,0,1-.874,1.062c-1.925.24-3.743.075-5.077-1.56-.383-.469-.573-.06-.792.089a8.553,8.553,0,0,1-9.767.057,8.359,8.359,0,0,1-2.546-10.937,8.474,8.474,0,0,1,10.8-3.594c.333.146.706.561.807-.247.043-.339.458-.458.811-.461.861-.008,1.722-.013,2.583,0,.609.01.889.322.88.952C-220.611,363.216-220.6,364.661-220.6,366.408ZM-229,373.3a4.13,4.13,0,0,0,4.145-4.116,4.177,4.177,0,0,0-4.169-4.2,4.194,4.194,0,0,0-4.112,4.179A4.145,4.145,0,0,0-229,373.3Z" transform="translate(-231.21 -28.305)" fill="#007dc0"/>
    <path id="Path_4556" data-name="Path 4556" d="M-402.086,338c0-3.361.023-6.723-.016-10.083-.01-.828.336-1.092,1.082-1.075.694.015,1.389.01,2.083,0,.71-.008,1.046.263,1.036,1.043-.034,2.889-.013,5.778-.014,8.667,0,.478-.033.984.535,1.188.55.2.8-.266,1.086-.579,1.241-1.348,2.484-2.694,3.694-4.07a1.584,1.584,0,0,1,1.306-.579c.944.012,1.889.006,2.833,0,.4,0,.819.019,1.01.424.2.427,0,.777-.313,1.117-1.59,1.743-3.159,3.5-4.736,5.259-.847.943-.847,1.276.083,2.236,1.875,1.933,3.764,3.853,5.646,5.779a7.109,7.109,0,0,1,.624.669c.44.587.189,1.22-.53,1.243-1.249.04-2.5.014-3.749,0-.462,0-.74-.34-1.029-.64q-2.48-2.584-4.958-5.171c-.3-.315-.612-.609-1.077-.394-.421.2-.428.607-.427,1.005q0,1.958,0,3.917c0,1.078-.071,1.144-1.113,1.132-.667-.008-1.335-.03-2,0-.8.042-1.073-.327-1.068-1.1C-402.074,344.662-402.086,341.329-402.086,338Z" transform="translate(-94.094 -0.002)" fill="#007dc0"/>
    <path id="Path_4557" data-name="Path 4557" d="M-498.318,369.056a8.264,8.264,0,0,1-8.333,8.351,8.254,8.254,0,0,1-8.383-8.376,8.311,8.311,0,0,1,8.369-8.335A8.319,8.319,0,0,1-498.318,369.056Zm-8.383,4.151a4.161,4.161,0,0,0,4.184-4.1,4.226,4.226,0,0,0-4.175-4.215,4.216,4.216,0,0,0-4.137,4.162A4.163,4.163,0,0,0-506.7,373.207Z" transform="translate(0 -28.214)" fill="#007dc0"/>
    <path id="Path_4558" data-name="Path 4558" d="M-301.154,334.62c0-2.223.025-4.447-.014-6.67-.014-.79.276-1.134,1.056-1.115.722.017,1.445.007,2.168,0,.67,0,1.015.235.977.993-.057,1.137-.021,2.278-.014,3.418.005.883.368,1.247,1.265,1.258.973.012,1.946.016,2.918,0,.7-.013,1.016.293.992,1.005-.027.805-.02,1.612,0,2.418.014.57-.253.813-.8.811-1,0-2-.012-3,0-.957.015-1.185.248-1.206,1.185-.025,1.11-.05,2.22-.057,3.33a4.094,4.094,0,0,0,3.705,3.755c.36.021.722-.009,1.083-.015a.669.669,0,0,1,.754.619c.118.908.227,1.819.3,2.732.048.6-.323.8-.872.876a8.356,8.356,0,0,1-9.085-6.7,48.124,48.124,0,0,1-.167-6.573C-301.166,335.509-301.154,335.064-301.154,334.62Z" transform="translate(-178.178 0)" fill="#007dc0"/>
  </g>
</svg>
