<svg xmlns="http://www.w3.org/2000/svg" width="25.911" height="25.911" viewBox="0 0 25.911 25.911">
  <g id="Group_4347" data-name="Group 4347" transform="translate(-285.09 -333)">
    <path id="Path_6795" data-name="Path 6795" d="M41.659,27.935l-1.747,1.747-1.926.072-.049-1.766L39.9,26.022a3.6,3.6,0,0,0-5.194,3.857l-5.573,5.573a2.088,2.088,0,0,0,2.953,2.953l5.573-5.573a3.612,3.612,0,0,0,4-4.9M31.292,37.38a.732.732,0,0,1-.641.373.754.754,0,0,1-.348-.087.725.725,0,0,1-.349-.438.738.738,0,0,1,.065-.557.726.726,0,0,1,.988-.276.731.731,0,0,1,.348.444.708.708,0,0,1-.063.542" transform="translate(263.133 313.281)" fill="#1dab35"/>
    <path id="Path_6796" data-name="Path 6796" d="M12.955,25.911A12.955,12.955,0,1,1,25.911,12.955,12.97,12.97,0,0,1,12.955,25.911m0-24.069A11.114,11.114,0,1,0,24.069,12.955,11.126,11.126,0,0,0,12.955,1.842" transform="translate(285.09 333)" fill="#013369"/>
  </g>
</svg>
