<svg xmlns="http://www.w3.org/2000/svg" width="25.973" height="25.963" viewBox="0 0 25.973 25.963">
  <g id="Group_4348" data-name="Group 4348" transform="translate(-318.938 -333.324)">
    <path id="Path_6788" data-name="Path 6788" d="M173.4,99.125a1.015,1.015,0,0,0-.882.516,1.033,1.033,0,0,0-.091.778,1.006,1.006,0,0,0,.487.611,1.056,1.056,0,0,0,.485.121,1.02,1.02,0,0,0,.893-.516.987.987,0,0,0,.089-.755,1.02,1.02,0,0,0-.486-.619,1,1,0,0,0-.494-.13" transform="translate(152.393 256.697)" fill="#013369"/>
    <path id="Path_6789" data-name="Path 6789" d="M187.7,29.978l-1.747,1.747-1.926.072-.049-1.766,1.966-1.966a3.6,3.6,0,0,0-5.194,3.857L175.178,37.5a2.088,2.088,0,0,0,2.953,2.953l5.573-5.573a3.612,3.612,0,0,0,4-4.9m-10.366,9.445a.732.732,0,0,1-.641.373.753.753,0,0,1-.348-.087.724.724,0,0,1-.349-.438.738.738,0,0,1,.065-.557.726.726,0,0,1,.988-.276.73.73,0,0,1,.348.444.708.708,0,0,1-.063.542" transform="translate(150.714 311.708)" fill="#ff9200"/>
    <path id="Path_6790" data-name="Path 6790" d="M161.113,89.392h-.045a1,1,0,0,0-.683.27.99.99,0,0,0-.329.7,1,1,0,0,0,.269.729,1.045,1.045,0,0,0,.751.324.963.963,0,0,0,.675-.262,1.02,1.02,0,0,0,.333-.722.969.969,0,0,0-.268-.706,1,1,0,0,0-.7-.333" transform="translate(161.885 264.191)" fill="#013369"/>
    <path id="Path_6791" data-name="Path 6791" d="M153.312,76.846a1.006,1.006,0,0,0-.568-.535.987.987,0,0,0-.768.028,1.009,1.009,0,0,0-.513,1.332l.007.015a1.032,1.032,0,0,0,1.352.492,1.007,1.007,0,0,0,.49-1.333Z" transform="translate(168.565 274.308)" fill="#013369"/>
    <path id="Path_6792" data-name="Path 6792" d="M148.17,63.178a1.015,1.015,0,0,0,.478-1.81,1.006,1.006,0,0,0-.76-.2.987.987,0,0,0-.666.389,1,1,0,0,0-.2.754,1.015,1.015,0,0,0,1,.872.554.554,0,0,0,.128-.009Z" transform="translate(171.921 285.92)" fill="#013369"/>
    <path id="Path_6793" data-name="Path 6793" d="M148.013,47.45c.024,0,.049.005.074.005a1.012,1.012,0,1,0-.616-1.82.985.985,0,0,0-.383.664,1,1,0,0,0,.188.745,1.016,1.016,0,0,0,.663.4.343.343,0,0,1,.077.006" transform="translate(171.875 298.029)" fill="#013369"/>
    <path id="Path_6794" data-name="Path 6794" d="M166.954,1.583a13.555,13.555,0,0,0-2.152-.175,12.882,12.882,0,0,0-9.258,3.9.374.374,0,0,1-.639-.261V3.012a.826.826,0,0,0-1.651,0V8.405a.825.825,0,0,0,.826.826h4.975a.826.826,0,1,0,0-1.651h-2.5a.373.373,0,0,1-.281-.619,11.353,11.353,0,0,1,8.305-3.9h.214a11.331,11.331,0,1,1-2.245,22.432.8.8,0,0,0-.162-.017.826.826,0,0,0-.7,1.238.838.838,0,0,0,.555.4,12.767,12.767,0,0,0,2.558.259,13,13,0,0,0,9.68-4.335A12.867,12.867,0,0,0,177.7,12.9,13.107,13.107,0,0,0,166.954,1.583" transform="translate(167.12 331.916)" fill="#013369"/>
  </g>
</svg>
