<svg xmlns="http://www.w3.org/2000/svg" xmlns:xlink="http://www.w3.org/1999/xlink" width="25.161" height="25.158" viewBox="0 0 25.161 25.158">
  <defs>
    <clipPath id="clip-path">
      <rect id="Rectangle_4936" data-name="Rectangle 4936" width="25.161" height="25.158" fill="none"/>
    </clipPath>
  </defs>
  <g id="Group_4346" data-name="Group 4346" transform="translate(0 0)">
    <g id="Group_4345" data-name="Group 4345" transform="translate(0 0)" clip-path="url(#clip-path)">
      <path id="Path_6778" data-name="Path 6778" d="M8.813,30.168a.983.983,0,0,0-.855.5,1,1,0,0,0-.088.754.975.975,0,0,0,.472.592,1.023,1.023,0,0,0,.47.117.988.988,0,0,0,.865-.5.956.956,0,0,0,.086-.732.988.988,0,0,0-.471-.6.973.973,0,0,0-.479-.126" transform="translate(-2.173 -8.37)" fill="#013369"/>
      <path id="Path_6779" data-name="Path 6779" d="M21.234,10.669l-1.693,1.693-1.866.07-.048-1.711,1.905-1.905A3.485,3.485,0,0,0,14.5,12.553l-5.4,5.4a2.023,2.023,0,0,0,2.861,2.861l5.4-5.4a3.5,3.5,0,0,0,3.872-4.745M11.189,19.821a.709.709,0,0,1-.621.361.731.731,0,0,1-.337-.084.7.7,0,0,1-.338-.424.714.714,0,0,1,.063-.54.7.7,0,0,1,.422-.331.695.695,0,0,1,.535.064.707.707,0,0,1,.337.43.687.687,0,0,1-.061.525" transform="translate(-2.361 -2.339)" fill="#013369"/>
      <path id="Path_6780" data-name="Path 6780" d="M5.051,27.165H5.007a.969.969,0,0,0-.662.262h0a.959.959,0,0,0-.319.676.97.97,0,0,0,.261.706,1.012,1.012,0,0,0,.728.314.934.934,0,0,0,.654-.254.989.989,0,0,0,.323-.7.938.938,0,0,0-.26-.684.969.969,0,0,0-.678-.323" transform="translate(-1.116 -7.536)" fill="#013369"/>
      <path id="Path_6781" data-name="Path 6781" d="M3.223,23.686a.975.975,0,0,0-.55-.518.957.957,0,0,0-.744.027A.978.978,0,0,0,1.438,24.5a1,1,0,0,0,1.31.477.976.976,0,0,0,.475-1.292Z" transform="translate(-0.374 -6.411)" fill="#013369"/>
      <path id="Path_6782" data-name="Path 6782" d="M1.118,20.4a.99.99,0,0,0,.65-.382.993.993,0,0,0-.187-1.372.974.974,0,0,0-.736-.189.956.956,0,0,0-.645.377.972.972,0,0,0-.189.731.984.984,0,0,0,.971.845.54.54,0,0,0,.124-.009Z" transform="translate(0 -5.117)" fill="#013369"/>
      <path id="Path_6783" data-name="Path 6783" d="M.925,15.548c.023,0,.048.005.072.005A.981.981,0,1,0,.4,13.79a.954.954,0,0,0-.371.643.964.964,0,0,0,.182.722.985.985,0,0,0,.642.387c.023,0,.048,0,.075.006" transform="translate(-0.004 -3.771)" fill="#013369"/>
      <path id="Path_6784" data-name="Path 6784" d="M15.2.169A13.125,13.125,0,0,0,13.115,0a12.481,12.481,0,0,0-8.97,3.776.362.362,0,0,1-.619-.253V1.553a.8.8,0,0,0-1.6,0v5.2c0,.009,0,.017,0,.026a.8.8,0,0,0,.8.8h4.82a.8.8,0,1,0,0-1.6H5.125a.361.361,0,0,1-.272-.6A11,11,0,0,1,12.9,1.6h.207A11.058,11.058,0,0,1,24.089,12.257,10.964,10.964,0,0,1,10.932,23.335a.771.771,0,0,0-.157-.017.8.8,0,0,0-.677,1.2.812.812,0,0,0,.538.387,12.359,12.359,0,0,0,2.479.251,12.6,12.6,0,0,0,9.379-4.2,12.467,12.467,0,0,0,3.118-9.826A12.7,12.7,0,0,0,15.2.169" transform="translate(-0.534 0)" fill="#013369"/>
    </g>
  </g>
</svg>
