<svg xmlns="http://www.w3.org/2000/svg" width="29.981" height="31.584" viewBox="0 0 29.981 31.584">
  <g id="Group_3453" data-name="Group 3453" transform="translate(-490.46 -562.464)">
    <g id="Group_3451" data-name="Group 3451">
      <path id="Path_4604" data-name="Path 4604" d="M505.275,574.909s-.318-2.542,1.88-2.542,1.96,2.3,1.96,2.3H507.9a1.035,1.035,0,0,0-.53.768v.318s-.53-.027-.662-.212a2.053,2.053,0,0,0-.715-.45A2.694,2.694,0,0,0,505.275,574.909Z" fill="#013369"/>
      <path id="Path_4605" data-name="Path 4605" d="M499.15,586.294c-.188.2-.027,1.668,1.271,1.085a21.035,21.035,0,0,0,3.31-2.2l1.192-1.668a4.416,4.416,0,0,1-1.165-.874c-.239-.371-.53-.9-.53-.9a13.3,13.3,0,0,0-.794,1.4c0,.133-2.357,2.357-2.357,2.357A5.337,5.337,0,0,0,499.15,586.294Z" fill="#013369"/>
      <path id="Path_4606" data-name="Path 4606" d="M503.44,577.475l.318,1.139s-.451,3.337,1.271,4.052,2.807,1.271,2.807,1.271v2.78s.026,1.033.874,1.033.953-1.271.953-1.271l.132-3.416a1.34,1.34,0,0,0-.847-1.086,12.575,12.575,0,0,1-2.066-1.271,9.8,9.8,0,0,0,.768-1.218c0-.133,1.166.821,1.166.821l2.7.132s.5.077.524-.631a.728.728,0,0,0-.657-.772l-1.668-.106-1.006-.9v-1.509s-.08-.583-.5-.583-.961.318-1.685.318-.91-.609-1.2-.768a1.415,1.415,0,0,0-.847-.291c-.424,0-1.033.635-1.033.635l-1.112-.635s-.609-.742-.556-.953,1.377-.795,1.377-1.7-.927-1.854-2.6-1.854-2.672,1.057-2.659,1.741a2.235,2.235,0,0,0,2.077,1.834,2.953,2.953,0,0,0,.953,1.827c.874.768,1.51,1.3,1.933,1.245A.656.656,0,0,1,503.44,577.475Z" fill="#013369"/>
    </g>
    <g id="Group_3452" data-name="Group 3452">
      <path id="Path_4607" data-name="Path 4607" d="M500.363,564.979c.087.493.04.957.115,1.49a5.549,5.549,0,0,0,.4.964,2.339,2.339,0,0,1,.119.518,11.985,11.985,0,1,1-5.987,5.215,1.459,1.459,0,0,0-.274-1.779l-.027-.026a1.475,1.475,0,0,0-2.289.321,14.986,14.986,0,1,0,7.944-6.7Z" fill="#013369"/>
    </g>
    <path id="Path_4608" data-name="Path 4608" d="M502.219,569.9l-5.622-1.335a.707.707,0,0,1-.412-1.1l3.364-4.7a.735.735,0,0,1,1.286.17l2.242,5.991A.735.735,0,0,1,502.219,569.9Z" fill="#013369"/>
  </g>
</svg>
