<svg xmlns="http://www.w3.org/2000/svg" width="37.088" height="40.443" viewBox="0 0 37.088 40.443">
  <g id="Group_3379" data-name="Group 3379" transform="translate(-59.593 -45.651)">
    <path id="Path_4538" data-name="Path 4538" d="M78.136,86.085c-5.2,0-10.4-.013-15.593.009a2.968,2.968,0,0,1-2.888-2.287,3.315,3.315,0,0,1-.061-.666q0-14.323,0-28.646a2.943,2.943,0,0,1,1.991-2.864,3.189,3.189,0,0,1,.957-.123c.854,0,1.709,0,2.564.005.163,0,.2-.043.2-.205-.007-.724-.015-1.448,0-2.171A3.608,3.608,0,0,1,68,45.807a2.765,2.765,0,0,1,.593-.086,11.4,11.4,0,0,1,2.372.054A3.561,3.561,0,0,1,73.856,49.2c.015.708.008,1.416,0,2.125,0,.152.04.189.19.189q4.089-.008,8.178,0c.149,0,.194-.035.192-.188q-.012-1.029,0-2.056a3.541,3.541,0,0,1,2.938-3.494,7.124,7.124,0,0,1,3.138.105,3.537,3.537,0,0,1,2.471,3.28c.016.716.01,1.432,0,2.149,0,.16.039.206.2.205.886-.008,1.771-.012,2.657,0a2.882,2.882,0,0,1,2.8,2.3,3.231,3.231,0,0,1,.06.666q0,14.322,0,28.645a2.948,2.948,0,0,1-1.949,2.826,3.486,3.486,0,0,1-1.093.136Zm.022-25.928q-7.728,0-15.455-.005c-.212,0-.259.055-.259.262q.009,11.284,0,22.569c0,.215.059.259.264.259q15.432-.007,30.862,0c.216,0,.259-.06.259-.265q-.008-11.284,0-22.569c0-.217-.063-.257-.264-.256Q85.862,60.161,78.158,60.157ZM85.271,52.6q0,1.581,0,3.163c0,.564.233.795.8.8q.623,0,1.246,0c.575-.005.8-.236.8-.823q0-2.436,0-4.871c0-.469,0-.939,0-1.408-.006-.566-.245-.8-.8-.805H86.093c-.586,0-.821.238-.822.829Q85.269,51.041,85.271,52.6ZM71,52.627c0-1.077,0-2.155,0-3.232a.653.653,0,0,0-.675-.738q-.739-.018-1.478,0a.648.648,0,0,0-.687.657,2.065,2.065,0,0,0-.008.208v6.163a2.23,2.23,0,0,0,.01.231.631.631,0,0,0,.673.639c.461.011.923.009,1.384,0,.552,0,.781-.238.782-.793Q71,54.2,71,52.627Z" fill="#013369"/>
    <g id="Group_3376" data-name="Group 3376">
      <path id="Path_4539" data-name="Path 4539" d="M72.089,78.518H69.725V69.407l-2.821.875V68.36l4.931-1.767h.254Z" fill="#013369"/>
      <path id="Path_4540" data-name="Path 4540" d="M72.089,78.968H69.725a.449.449,0,0,1-.45-.45v-8.5l-2.238.694a.452.452,0,0,1-.584-.43V68.36a.451.451,0,0,1,.3-.424l4.932-1.766a.437.437,0,0,1,.151-.027h.254a.45.45,0,0,1,.45.45V78.518A.449.449,0,0,1,72.089,78.968Zm-1.913-.9h1.462V67.142l-4.284,1.535v.993l2.238-.693a.45.45,0,0,1,.584.43Z" fill="#013369"/>
    </g>
    <g id="Group_3377" data-name="Group 3377">
      <path id="Path_4541" data-name="Path 4541" d="M80.325,72.631a.871.871,0,0,0-.339-.738,4.479,4.479,0,0,0-1.221-.543,8.7,8.7,0,0,1-1.4-.562,2.283,2.283,0,0,1-1.4-2.041,1.992,1.992,0,0,1,.376-1.19,2.454,2.454,0,0,1,1.08-.817A4.063,4.063,0,0,1,79,66.446a3.716,3.716,0,0,1,1.572.319,2.5,2.5,0,0,1,1.071.9,2.354,2.354,0,0,1,.382,1.323h-1.7a1.111,1.111,0,0,0-.356-.879,1.466,1.466,0,0,0-1-.314,1.566,1.566,0,0,0-.967.263.829.829,0,0,0-.345.693.794.794,0,0,0,.4.672,4.543,4.543,0,0,0,1.19.509,5.137,5.137,0,0,1,2.108,1.08,2.151,2.151,0,0,1,.662,1.605,1.982,1.982,0,0,1-.809,1.677,3.539,3.539,0,0,1-2.176.607,4.2,4.2,0,0,1-1.73-.347,2.741,2.741,0,0,1-1.19-.953,2.439,2.439,0,0,1-.41-1.4h1.7q0,1.362,1.628,1.363a1.583,1.583,0,0,0,.944-.246A.8.8,0,0,0,80.325,72.631Z" fill="#013369"/>
      <path id="Path_4542" data-name="Path 4542" d="M79.042,75.354a4.671,4.671,0,0,1-1.913-.387,3.188,3.188,0,0,1-1.38-1.111,2.9,2.9,0,0,1-.487-1.655.449.449,0,0,1,.45-.45h1.7a.449.449,0,0,1,.45.45c0,.474.143.912,1.178.912a1.174,1.174,0,0,0,.68-.16.353.353,0,0,0,.153-.322.416.416,0,0,0-.161-.379,3.945,3.945,0,0,0-1.088-.474,8.988,8.988,0,0,1-1.471-.594,2.709,2.709,0,0,1-1.639-2.437,2.436,2.436,0,0,1,.461-1.453,2.917,2.917,0,0,1,1.272-.97,4.674,4.674,0,0,1,3.514.033,2.955,2.955,0,0,1,1.259,1.064,2.808,2.808,0,0,1,.455,1.569.45.45,0,0,1-.45.451h-1.7a.45.45,0,0,1-.45-.451.649.649,0,0,0-.2-.541,1.414,1.414,0,0,0-1.4-.031.384.384,0,0,0-.168.335c0,.052,0,.161.205.3a4.128,4.128,0,0,0,1.069.451,5.511,5.511,0,0,1,2.293,1.188,2.6,2.6,0,0,1,.8,1.929,2.418,2.418,0,0,1-.988,2.036A3.99,3.99,0,0,1,79.042,75.354Zm-2.838-2.7a1.877,1.877,0,0,0,.29.7,2.274,2.274,0,0,0,1,.794,3.768,3.768,0,0,0,1.547.309,3.127,3.127,0,0,0,1.906-.517,1.541,1.541,0,0,0,.629-1.316,1.7,1.7,0,0,0-.526-1.284,4.743,4.743,0,0,0-1.924-.97,4.954,4.954,0,0,1-1.311-.567,1.228,1.228,0,0,1-.6-1.046,1.277,1.277,0,0,1,.523-1.051,2,2,0,0,1,1.239-.355,1.9,1.9,0,0,1,1.3.426,1.452,1.452,0,0,1,.459.767h.8a1.865,1.865,0,0,0-.262-.626,2.045,2.045,0,0,0-.884-.74,3.777,3.777,0,0,0-2.79-.019,2.025,2.025,0,0,0-.887.665,1.533,1.533,0,0,0-.291.927,1.851,1.851,0,0,0,1.166,1.645,8.255,8.255,0,0,0,1.32.53,4.757,4.757,0,0,1,1.355.612,1.321,1.321,0,0,1,.517,1.1,1.246,1.246,0,0,1-.525,1.051,2.021,2.021,0,0,1-1.208.332c-1.446,0-1.908-.726-2.035-1.363Z" fill="#013369"/>
    </g>
    <g id="Group_3378" data-name="Group 3378">
      <path id="Path_4543" data-name="Path 4543" d="M89.37,67.933H86.849V74.79h-1.7V67.933H82.666V66.559h6.7Z" fill="#013369"/>
      <path id="Path_4544" data-name="Path 4544" d="M86.849,75.241h-1.7a.45.45,0,0,1-.45-.451V68.383H82.666a.45.45,0,0,1-.451-.45V66.559a.45.45,0,0,1,.451-.45h6.7a.449.449,0,0,1,.45.45v1.374a.449.449,0,0,1-.45.45H87.3V74.79A.45.45,0,0,1,86.849,75.241Zm-1.246-.9h.8V67.933a.449.449,0,0,1,.45-.45H88.92v-.474h-5.8v.474h2.037a.449.449,0,0,1,.45.45Z" fill="#013369"/>
    </g>
  </g>
</svg>
