<svg xmlns="http://www.w3.org/2000/svg" width="27.141" height="21.389" viewBox="0 0 27.141 21.389">
  <g id="Group_4175" data-name="Group 4175" transform="translate(1002.591 -227.201)">
    <path id="Path_5501" data-name="Path 5501" d="M-997.265,235.554h3.484c.012.036-.017.046-.032.061q-2.148,2.149-4.3,4.3c-.046.046-.076.067-.134.009q-2.161-2.166-4.325-4.328a.315.315,0,0,1-.023-.032.208.208,0,0,1,.111-.012q1.464,0,2.928,0c.083,0,.112-.022.13-.1a10.233,10.233,0,0,1,1.854-3.981,10.477,10.477,0,0,1,7.385-4.2,10.459,10.459,0,0,1,6.363,1.279,10.5,10.5,0,0,1,2.889,2.352,10.631,10.631,0,0,1,1.817,2.973c.029.071.036.1-.056.126q-.937.24-1.871.493c-.074.02-.105.007-.137-.066a8.349,8.349,0,0,0-2.139-2.948,8.4,8.4,0,0,0-5.1-2.144,8.438,8.438,0,0,0-5.257,1.344,8.606,8.606,0,0,0-2.225,2.08A8.683,8.683,0,0,0-997.265,235.554Z" transform="translate(0 0)" fill="#013369"/>
    <path id="Path_5502" data-name="Path 5502" d="M-959.2,298.885l.082-.082q2.122-2.122,4.243-4.246c.07-.07.107-.076.18,0q2.123,2.129,4.25,4.254l.075.075a.164.164,0,0,1-.118.018q-1.464,0-2.927,0c-.084,0-.111.024-.13.1a10.422,10.422,0,0,1-1.858,3.991,10.43,10.43,0,0,1-5.386,3.775,10.571,10.571,0,0,1-7.684-.527,10.365,10.365,0,0,1-3.188-2.283,10.587,10.587,0,0,1-2.14-3.26c-.026-.061-.037-.091.048-.112q.956-.231,1.909-.473c.069-.017.1-.009.133.062a8.271,8.271,0,0,0,2.052,2.781,8.433,8.433,0,0,0,5.129,2.156,8.461,8.461,0,0,0,4.368-.851,8.454,8.454,0,0,0,2.726-2.11,8.5,8.5,0,0,0,1.707-3.145c.026-.087.018-.11-.08-.11q-1.632.005-3.264,0A.218.218,0,0,1-959.2,298.885Z" transform="translate(-25.077 -58.666)" fill="#013369"/>
  </g>
</svg>
