<?xml version="1.0" encoding="utf-8"?>
<!-- Generator: Adobe Illustrator 22.0.0, SVG Export Plug-In . SVG Version: 6.00 Build 0)  -->
<svg version="1.1" id="Layer_1" xmlns="http://www.w3.org/2000/svg" xmlns:xlink="http://www.w3.org/1999/xlink" x="0px" y="0px"
	 viewBox="0 0 48 48" style="enable-background:new 0 0 48 48;" xml:space="preserve">
<style type="text/css">
	.st0{fill:#013C88;}
</style>
<g id="team-icon" transform="translate(-50.5 -266.5)">
	<g id="Group_2574">
		<path id="Path_3578" class="st0" d="M80.7,285.6h-3.5c-0.8,0-1.4,0.6-1.4,1.3c0,0.8,0.6,1.4,1.3,1.4c0,0,0.1,0,0.1,0h2.1v1.9h-2.1
			c-0.8,0-1.4,0.6-1.4,1.3c0,0.8,0.6,1.4,1.3,1.4c0,0,0.1,0,0.1,0h2.1v1.9h-2.1c-0.8,0-1.4,0.6-1.4,1.3c0,0.8,0.6,1.4,1.3,1.4
			c0,0,0.1,0,0.1,0h3.5c0.8,0,1.4-0.6,1.4-1.4V287C82.1,286.3,81.4,285.6,80.7,285.6z"/>
		<path id="Path_3579" class="st0" d="M72.6,285.6h-3.5c-0.8,0-1.4,0.6-1.4,1.3c0,0.8,0.6,1.4,1.3,1.4c0,0,0.1,0,0.1,0h2.1v1.9h-2.1
			c-0.8,0-1.4,0.6-1.4,1.4v4.6c0,0.8,0.6,1.4,1.4,1.4h3.5c0.8,0,1.4-0.6,1.4-1.3c0-0.8-0.6-1.4-1.3-1.4c0,0-0.1,0-0.1,0h-2.1V293
			h2.1c0.8,0,1.4-0.6,1.4-1.4V287C73.9,286.3,73.3,285.6,72.6,285.6z"/>
	</g>
	<path id="Path_3580" class="st0" d="M85.3,271.6H64.4c-4.7,0-8.4,3.8-8.4,8.4v15.1c0,0.8,0.7,1.5,1.5,1.5H63v11.3
		c0,0.8,0.7,1.5,1.5,1.5h20.9c0.8,0,1.5-0.7,1.5-1.5v-11.3h5.5c0.8,0,1.5-0.7,1.5-1.5v-15.1C93.7,275.4,90,271.6,85.3,271.6z
		 M75.5,277.4c-0.3,0.3-0.9,0.3-1.2,0l-2.8-2.8h6.8L75.5,277.4z M85.3,283.2c-0.8,0-1.5,0.7-1.5,1.5v21.7H65.9v-21.7
		c0-0.8-0.7-1.5-1.5-1.5s-1.5,0.7-1.5,1.5l0,0v4.3h-4v-9c0-3,2.5-5.5,5.5-5.5h1.2c1.1,0,2.1,0.4,2.9,1.2l3.7,3.7
		c1.5,1.5,3.9,1.5,5.4,0l3.7-3.7c0.8-0.8,1.8-1.2,2.9-1.2h1.2c3,0,5.5,2.5,5.5,5.5v9h-4v-4.3C86.8,283.9,86.1,283.2,85.3,283.2z
		 M63,292v1.7h-4V292H63z M90.8,292v1.7h-4V292H90.8z"/>
</g>
</svg>
