<svg xmlns="http://www.w3.org/2000/svg" width="56.368" height="43.405" viewBox="0 0 56.368 43.405">
  <g id="team-site-icon" transform="translate(-46.281 -496.595)">
    <path id="Path_3581" data-name="Path 3581" d="M102.139,536.694a1.71,1.71,0,0,1-.106-.231,3.879,3.879,0,0,0-.192-.412q-6.333-11.388-12.63-22.8a2.783,2.783,0,0,0-2.7-1.588c-1.3.025-2.609.019-3.914.015-1.528-.007-3.054-.011-4.58.029a3.254,3.254,0,0,1-.331-.005c0-.039.01-.086.019-.142a2.512,2.512,0,0,0-.328-1.921,1.625,1.625,0,0,0-1.182-.616h-.006l.021-.117q.012-.057.021-.114a1.685,1.685,0,0,0,.342,0,16,16,0,0,1,2.394-.009,2.376,2.376,0,0,0,1.811-.535,2.294,2.294,0,0,0,.609-1.8c-.047-2.247-.031-4.539-.015-6.756l0-.734c.013-1.927-.972-2.351-1.8-2.367a1.877,1.877,0,0,0-1.359.505,2.539,2.539,0,0,0-.593,1.9c.009.859.007,1.719,0,2.579,0,1.154,0,2.307.017,3.46-2.2-.04-4.387-.04-6.51,0,.023-1.269.02-2.538.017-3.807,0-.829,0-1.658,0-2.487a2.184,2.184,0,0,0-.6-1.645,1.828,1.828,0,0,0-1.369-.505A1.871,1.871,0,0,0,67.4,498.73c.017,2.508.032,5.18,0,7.862a2.152,2.152,0,0,0,.576,1.654,2.288,2.288,0,0,0,1.7.544c.675-.021,1.352-.016,2.029-.013.275,0,.549,0,.823,0,.007.07.015.137.022.2a2.269,2.269,0,0,0-1.485,2.719c-.024,0-.045,0-.07,0-1.345-.021-2.69-.018-4.038-.015-1.521,0-3.043.008-4.565-.025a2.917,2.917,0,0,0-2.876,1.7c-4.04,7.369-8.106,14.683-12.621,22.794a3.459,3.459,0,0,0-.177.384c-.015.037-.028.075-.044.111,0,0-.722,1.569-.2,2.466.6,1.035,1.892.874,2.678.855l.372-.006Q61.7,540,73.886,540c1.617,0,3.234-.018,4.85-.035.931-.01,1.862-.021,2.792-.027,1.889-.014,2.2-1.145,2.216-1.818a1.791,1.791,0,0,0-.483-1.355,2.359,2.359,0,0,0-1.807-.548l-30.305.012c.432-.78.831-1.507,1.218-2.244a1.718,1.718,0,0,1,.172,0q1.675.006,3.352,0h2.174a2.242,2.242,0,0,0,1.744-.526,1.786,1.786,0,0,0,.488-1.332c-.008-.87-.406-1.894-2.293-1.885-1.146.009-2.292.008-3.475.006l.273-.509c.91-1.7,1.8-3.348,2.664-5.01h.014l.194,0q2.847-.006,5.694,0h.006a1.923,1.923,0,0,0,1.98-1.311,1.8,1.8,0,0,0-.637-2.071,2.053,2.053,0,0,0-1.485-.371c-.061,0-.123.006-.181.007-1.153-.007-2.3-.007-3.455-.006l.389-.7c.846-1.516,1.692-3.034,2.505-4.567.159-.3.189-.312.5-.3,1.8.032,3.589.027,5.385.021l2.027,0c.219,0,.454,0,.635.006.009.182.012.425.016.674.009.567,0,1.035-.006,1.422-.02,1.123-.032,1.8.5,2.337s1.24.544,2.5.54c.394,0,.869,0,1.438.009a2.221,2.221,0,0,0,1.72-.588,2.35,2.35,0,0,0,.536-1.779c-.022-.435-.015-.871-.009-1.308s.012-.886-.007-1.327c2.794.037,5.564.035,8.234,0h.016a.407.407,0,0,1,.109.007.971.971,0,0,1,.164.249c.608,1.127,1.229,2.247,1.849,3.368q.539.972,1.075,1.948c-1.164,0-2.33,0-3.5-.006H85.63c-1.5,0-2.285.592-2.331,1.76a1.83,1.83,0,0,0,.488,1.4,2.51,2.51,0,0,0,1.882.6c1.814-.018,3.627-.012,5.438,0,.057,0,.113,0,.169,0,.92,1.687,1.856,3.368,2.828,5.111l.224.4c-1.226,0-2.385,0-3.543-.006a2.283,2.283,0,0,0-1.752.578,1.843,1.843,0,0,0-.489,1.4c.042,1.169.793,1.762,2.232,1.762h.4c1.685-.005,3.371-.007,5.055.007.051,0,.106,0,.162-.006l1.233,2.237H88.9l-.579,0c-.382-.005-.763-.009-1.144,0a1.755,1.755,0,0,0-1.832,1.778,1.791,1.791,0,0,0,1.653,1.9,6.8,6.8,0,0,0,.991.064l12,.005H100a3.042,3.042,0,0,0,2.272-.643C103.188,538.375,102.139,536.694,102.139,536.694Z" fill="#013c88"/>
  </g>
</svg>
