<svg xmlns="http://www.w3.org/2000/svg" width="48" height="48" viewBox="0 0 48 48">
  <g id="team-icon" transform="translate(-50.5 -266.5)">
    <g id="Group_2574" data-name="Group 2574">
      <path id="Path_3578" data-name="Path 3578" d="M81.874,284.323H77.449a1.752,1.752,0,1,0,0,3.5h2.673v2.4H77.449a1.752,1.752,0,1,0,0,3.5h2.673v2.4H77.449a1.752,1.752,0,1,0,0,3.5h4.425a1.754,1.754,0,0,0,1.752-1.752v-11.8A1.754,1.754,0,0,0,81.874,284.323Z" fill="#013c88"/>
      <path id="Path_3579" data-name="Path 3579" d="M71.551,284.323H67.126a1.752,1.752,0,1,0,0,3.5H69.8v2.4H67.126a1.754,1.754,0,0,0-1.752,1.752v5.9a1.754,1.754,0,0,0,1.752,1.752h4.425a1.752,1.752,0,1,0,0-3.5H68.878v-2.4h2.673a1.754,1.754,0,0,0,1.752-1.752v-5.9A1.754,1.754,0,0,0,71.551,284.323Z" fill="#013c88"/>
    </g>
    <path id="Path_3580" data-name="Path 3580" d="M87.774,266.5H61.226A10.753,10.753,0,0,0,50.5,277.226V296.4a1.879,1.879,0,0,0,1.877,1.877h6.972v14.346a1.879,1.879,0,0,0,1.877,1.877H87.774a1.879,1.879,0,0,0,1.877-1.877V298.277h6.972A1.879,1.879,0,0,0,98.5,296.4V277.226A10.753,10.753,0,0,0,87.774,266.5ZM75.26,273.813a1.077,1.077,0,0,1-1.518,0l-3.56-3.559h8.636Zm12.514,7.436a1.879,1.879,0,0,0-1.877,1.877v27.62H63.1v-27.62a1.877,1.877,0,1,0-3.754,0v5.5H54.254v-11.4a6.991,6.991,0,0,1,6.972-6.973h1.489a5.246,5.246,0,0,1,3.694,1.535l4.682,4.682a4.839,4.839,0,0,0,6.826,0l4.683-4.683a5.241,5.241,0,0,1,3.692-1.534h1.481a6.991,6.991,0,0,1,6.973,6.972v11.4h-5.1v-5.5A1.879,1.879,0,0,0,87.774,281.249ZM59.349,292.377v2.146H54.254v-2.146Zm35.4,0v2.146h-5.1v-2.146Z" fill="#013c88"/>
  </g>
</svg>
