<svg xmlns="http://www.w3.org/2000/svg" width="40.609" height="45.358" viewBox="0 0 40.609 45.358">
  <g id="user-icon" transform="translate(-53.891 -195.591)">
    <path id="Path_3576" data-name="Path 3576" d="M58.164,240.949a4.383,4.383,0,0,1-3.185-1.173A4.491,4.491,0,0,1,53.9,236.4a18.33,18.33,0,0,1,17.879-17.234h.008l4.3,0H76.1a17.97,17.97,0,0,1,17.773,13.617,23.472,23.472,0,0,1,.6,3.877,3.816,3.816,0,0,1-.915,3.063,4.307,4.307,0,0,1-3.3,1.228c-3.859-.033-7.719-.029-11.578-.024l-4.484,0h0l-4.191-.007c-3.829-.009-7.788-.02-11.67.033Zm13.615-16.787a13.237,13.237,0,0,0-12.838,11.777c3.7-.042,7.451-.032,11.079-.024l4.18.007,4.477,0c3.565-.005,7.132-.008,10.7.017a13.416,13.416,0,0,0-.331-1.865A13.087,13.087,0,0,0,76.1,224.159h-.011l-4.3,0Z" fill="#013c88"/>
    <path id="Path_3577" data-name="Path 3577" d="M74.537,217.988c-.17,0-.34,0-.511-.012-6.78-.33-11.007-4.614-11.033-11.179a11.04,11.04,0,0,1,3.224-7.893,11.288,11.288,0,0,1,8.059-3.313h0a11.222,11.222,0,0,1,7.673,19.332A10.629,10.629,0,0,1,74.537,217.988Zm-.259-17.4a6.314,6.314,0,0,0-4.518,1.842,6.069,6.069,0,0,0-1.767,4.345c.019,4.876,3.424,6.065,6.277,6.2a5.638,5.638,0,0,0,4.21-1.657,6.222,6.222,0,0,0-4.2-10.734Zm0-2.5h0Z" fill="#013c88"/>
  </g>
</svg>
