<svg xmlns="http://www.w3.org/2000/svg" width="130.266" height="115.975" viewBox="0 0 130.266 115.975">
  <g id="Group_3410" data-name="Group 3410" transform="translate(-5.733 -12.879)">
    <path id="Path_4585" data-name="Path 4585" d="M60.547,18.836,7.347,110.98a11.916,11.916,0,0,0,10.32,17.874h106.4a11.916,11.916,0,0,0,10.319-17.874l-53.2-92.144A11.916,11.916,0,0,0,60.547,18.836Z" fill="#ff9200"/>
    <g id="Group_3409" data-name="Group 3409">
      <path id="Path_4361" data-name="Path 4361" d="M64.208,66.166c0-5.587-.051-11.177.02-16.768a6.247,6.247,0,0,1,3.99-5.947,6.316,6.316,0,0,1,7,1.05,6.118,6.118,0,0,1,2.307,4.823q.037,16.872,0,33.743a6.652,6.652,0,0,1-13.3-.027C64.174,77.415,64.208,71.791,64.208,66.166Z" fill="#fff"/>
      <path id="Path_4362" data-name="Path 4362" d="M77.54,102.917a6.666,6.666,0,1,1-6.661-6.7,6.685,6.685,0,0,1,6.661,6.7Z" fill="#fff"/>
    </g>
  </g>
</svg>
