<?xml version="1.0" encoding="utf-8"?>
<!-- Generator: Adobe Illustrator 22.0.0, SVG Export Plug-In . SVG Version: 6.00 Build 0)  -->
<svg version="1.1" id="Layer_1" xmlns="http://www.w3.org/2000/svg" xmlns:xlink="http://www.w3.org/1999/xlink" x="0px" y="0px"
	 viewBox="0 0 50 50" style="enable-background:new 0 0 50 50;" xml:space="preserve">
<style type="text/css">
	.st0{fill:#999999;}
</style>
<g>
	<path class="st0" d="M26,23.6H12.2c-1.6,0-2.5-1.8-1.6-3.1l6.5-8.7l7.3-9.7c0.8-1,2.3-1,3.1,0l7.3,9.7l6.5,8.7c1,1.3,0,3.1-1.6,3.1
		H26z"/>
</g>
<g>
	<path class="st0" d="M26,26.4h13.8c1.6,0,2.5,1.8,1.6,3.1l-6.5,8.7l-7.3,9.7c-0.8,1-2.3,1-3.1,0l-7.3-9.7l-6.5-8.7
		c-1-1.3,0-3.1,1.6-3.1H26z"/>
</g>
</svg>
