<svg xmlns="http://www.w3.org/2000/svg" width="10.321" height="14.39" viewBox="0 0 10.321 14.39">
  <g id="FX9600-icon-01" transform="translate(-13.8 -8.5)">
    <path id="Path_5015" data-name="Path 5015" d="M23.111,9.021H22.4L22.167,8.5h-.749l-.2.521H16.665L16.437,8.5h-.749l-.2.521a1.037,1.037,0,0,0-.977,1.042v.293H13.93a.14.14,0,0,0-.13.13v.228a.14.14,0,0,0,.13.13h.586v.1H13.93a.14.14,0,0,0-.13.13V11.3a.14.14,0,0,0,.13.13h.586v.26H13.93a.14.14,0,0,0-.13.13v.228a.14.14,0,0,0,.13.13h.586v.13H13.93a.14.14,0,0,0-.13.13v.228a.14.14,0,0,0,.13.13h.586v.228H13.93a.14.14,0,0,0-.13.13v.228a.14.14,0,0,0,.13.13h.586v.13H13.93a.14.14,0,0,0-.13.13V14a.14.14,0,0,0,.13.13h.586V14.3H13.93a.14.14,0,0,0-.13.13v.228a.14.14,0,0,0,.13.13h.586v.2H13.93a.14.14,0,0,0-.13.13v.228a.14.14,0,0,0,.13.13h.586v.586h-.228a.14.14,0,0,0-.13.13v1.3a.14.14,0,0,0,.13.13h.228V21.23a1.023,1.023,0,0,0,.912,1.009l.228.651H16.4l.26-.651h4.493l.228.651h.749l.26-.651h.684A1.049,1.049,0,0,0,24.121,21.2V10.063A1.022,1.022,0,0,0,23.111,9.021ZM23.535,21.3a.431.431,0,0,1-.423.423H15.591a.431.431,0,0,1-.423-.423V10.063a.431.431,0,0,1,.423-.423h7.521a.431.431,0,0,1,.423.423Z" transform="translate(0)" fill="#013369"/>
    <path id="Path_5016" data-name="Path 5016" d="M25.674,16.3H22.06a.806.806,0,0,0-.814.814v.879h-.391a.445.445,0,0,0-.456.456v4.623a.37.37,0,0,0,.1.26l.326.326a.37.37,0,0,0,.26.1h.163v.912a.806.806,0,0,0,.814.814h3.614a.806.806,0,0,0,.814-.814V17.114A.806.806,0,0,0,25.674,16.3ZM21.7,23.756a.439.439,0,0,0,.423-.456V18.416a.486.486,0,0,0-.423-.456v-.879a.361.361,0,0,1,.358-.358h3.614a.361.361,0,0,1,.358.358v7.586a.361.361,0,0,1-.358.358H22.06a.361.361,0,0,1-.358-.358Z" transform="translate(-4.451 -5.261)" fill="#013369"/>
  </g>
</svg>
