<svg xmlns="http://www.w3.org/2000/svg" width="12.618" height="15" viewBox="0 0 12.618 15">
  <path id="Path_5019" data-name="Path 5019" d="M505.469,485.5v-.164q0-3.171,0-6.343a1.425,1.425,0,0,1,1.358-1.422,1.4,1.4,0,0,1,1.474,1.306c.029.714.012,1.43.015,2.145,0,.2,0,.4,0,.607,0,.08.011.1.1.064a1.4,1.4,0,0,1,1.71.407c.062.076.089.047.143.005a1.422,1.422,0,0,1,1.7-.015,1.339,1.339,0,0,1,.464.584c.036.089.057.112.156.061a1.417,1.417,0,0,1,2.052.982,1.566,1.566,0,0,1,.027.309q0,2.247,0,4.494a4.071,4.071,0,0,1-3.515,4,8.606,8.606,0,0,1-1.077.039c-.508,0-1.018.021-1.525,0a4.025,4.025,0,0,1-2.4-.925,5.983,5.983,0,0,1-1.372-1.651q-1.289-2.2-2.552-4.407a1.422,1.422,0,0,1,2.483-1.384c.24.411.475.825.713,1.237C505.426,485.447,505.437,485.459,505.469,485.5Zm.728-2.579v.621q0,1.646,0,3.292a.383.383,0,0,1-.142.333.372.372,0,0,1-.565-.151q-.7-1.219-1.406-2.437a.693.693,0,1,0-1.2.687q1.213,2.107,2.435,4.209a5.685,5.685,0,0,0,1.258,1.57,3.243,3.243,0,0,0,1.982.78c.687.024,1.376.005,2.064,0a3.341,3.341,0,0,0,3.3-3.288c.007-1.5,0-3,0-4.507a.689.689,0,0,0-.7-.73.7.7,0,0,0-.688.742c0,.369,0,.738,0,1.107a.39.39,0,0,1-.1.285.367.367,0,0,1-.632-.279c0-.643,0-1.286,0-1.93a.69.69,0,0,0-1.379.007c0,.634,0,1.268,0,1.9a.383.383,0,0,1-.232.389.36.36,0,0,1-.5-.354c0-.715,0-1.43,0-2.145a.7.7,0,0,0-.692-.74.693.693,0,0,0-.692.737q0,1.046,0,2.091a.735.735,0,0,1-.018.174.351.351,0,0,1-.338.259c-.287-.039-.375-.163-.375-.422q0-3.016,0-6.032a1.639,1.639,0,0,0-.011-.215.693.693,0,0,0-1.375.153Q506.2,480.982,506.2,482.925Z" transform="translate(-502.043 -477.575)" fill="#013369"/>
</svg>
