<svg xmlns="http://www.w3.org/2000/svg" width="6.723" height="18.534" viewBox="0 0 6.723 18.534">
  <path id="MC33-icon-01" d="M28.142,4.118c0-.073-.036-.109-.036-.182-.145-.363-.327-.436-.581-.436a.841.841,0,0,0-.509.254H22.981a.841.841,0,0,0-.509-.254c-.218,0-.4.073-.581.436,0,.036-.036.073-.036.109a.773.773,0,0,0-.254.545v9.231a1.346,1.346,0,0,0,.581,1.127v5.815a1.288,1.288,0,0,0,1.272,1.272H26.47a1.288,1.288,0,0,0,1.272-1.272V14.948a1.5,1.5,0,0,0,.581-1.127V4.59A.765.765,0,0,0,28.142,4.118ZM24.108,20.145a.209.209,0,0,1-.218.218h-.618a.209.209,0,0,1-.218-.218v-.109a.209.209,0,0,1,.218-.218h.618a.209.209,0,0,1,.218.218Zm0-.872a.209.209,0,0,1-.218.218h-.618a.209.209,0,0,1-.218-.218v-.109a.209.209,0,0,1,.218-.218h.618a.209.209,0,0,1,.218.218Zm0-.8a.209.209,0,0,1-.218.218h-.618a.209.209,0,0,1-.218-.218v-.109a.209.209,0,0,1,.218-.218h.618a.209.209,0,0,1,.218.218Zm0-.872a.209.209,0,0,1-.218.218h-.618a.209.209,0,0,1-.218-.218v-.109a.209.209,0,0,1,.218-.218h.618a.209.209,0,0,1,.218.218Zm.109-.836h-.291a.182.182,0,0,1,0-.363h.291a.172.172,0,0,1,.182.182A.233.233,0,0,1,24.217,16.765Zm.145-.981A.364.364,0,0,1,24,15.42a.343.343,0,0,1,.363-.363h1.127a.364.364,0,0,1,.363.363.343.343,0,0,1-.363.363Zm.836.8a.172.172,0,0,1-.182.182h-.291a.182.182,0,0,1,0-.363h.291A.172.172,0,0,1,25.2,16.583Zm.291,3.562a.209.209,0,0,1-.218.218h-.618a.209.209,0,0,1-.218-.218v-.109a.209.209,0,0,1,.218-.218h.618a.209.209,0,0,1,.218.218Zm0-.872a.209.209,0,0,1-.218.218h-.618a.209.209,0,0,1-.218-.218v-.109a.209.209,0,0,1,.218-.218h.618a.209.209,0,0,1,.218.218Zm0-.8a.209.209,0,0,1-.218.218h-.618a.209.209,0,0,1-.218-.218v-.109a.209.209,0,0,1,.218-.218h.618a.209.209,0,0,1,.218.218Zm0-.872a.209.209,0,0,1-.218.218h-.618a.209.209,0,0,1-.218-.218v-.109a.209.209,0,0,1,.218-.218h.618a.209.209,0,0,1,.218.218Zm-.109-1.018a.172.172,0,0,1,.182-.182h.291a.182.182,0,0,1,0,.363h-.291A.2.2,0,0,1,25.38,16.583Zm1.454,3.562a.209.209,0,0,1-.218.218H26a.209.209,0,0,1-.218-.218v-.109A.209.209,0,0,1,26,19.817h.618a.209.209,0,0,1,.218.218Zm0-.872a.209.209,0,0,1-.218.218H26a.209.209,0,0,1-.218-.218v-.109A.209.209,0,0,1,26,18.945h.618a.209.209,0,0,1,.218.218Zm0-.8a.209.209,0,0,1-.218.218H26a.209.209,0,0,1-.218-.218v-.109A.209.209,0,0,1,26,18.146h.618a.209.209,0,0,1,.218.218Zm0-.872a.209.209,0,0,1-.218.218H26a.209.209,0,0,1-.218-.218v-.109A.209.209,0,0,1,26,17.274h.618a.209.209,0,0,1,.218.218Zm.872-4.615a.651.651,0,0,1-.654.654H22.945a.651.651,0,0,1-.654-.654V5.244a.651.651,0,0,1,.654-.654h4.107a.651.651,0,0,1,.654.654v7.741Z" transform="translate(-21.6 -3.5)" fill="#013369"/>
</svg>
