<svg xmlns="http://www.w3.org/2000/svg" width="77.961" height="44.371" viewBox="0 0 77.961 44.371">
    <path id="Path_1862" data-name="Path 1862"
          d="M546.166,289.337c-.2.949-.406,1.878-.578,2.814a.908.908,0,0,1-1.046.863c-.958-.028-1.918-.037-2.874,0a1.1,1.1,0,0,1-1.21-.848c-.3-.821-.475-1.9-1.085-2.332-.58-.408-1.667-.017-2.5-.158-1.233-.208-1.7.357-2.107,1.428-.935,2.444-.437,2.249-3.075,1.874-1.886-.268-1.942-.241-2.151-2.477-.085-.913-.365-1.4-1.316-1.345a.511.511,0,0,1-.1-.018c-2.161-.327-2.2-.348-3.26,1.605a1.424,1.424,0,0,1-1.964.832c-2.113-.633-2.167-.575-2.366-2.893-.062-.718-.321-.952-1-1.12a26.688,26.688,0,0,0-12.6-.113,1.4,1.4,0,0,0-.821.837,21.043,21.043,0,0,0-.644,2.793.945.945,0,0,1-1.127.9c-.444-.023-.89.009-1.335,0-3.01-.073-2.327.509-3.225-2.486a1.444,1.444,0,0,0-1.661-1.261c-1.809.006-3.619-.191-5.43-.238a1.236,1.236,0,0,0-.92.485c-.434.69-.691,1.493-1.133,2.176a1.393,1.393,0,0,1-1.013.606c-1.052-.066-2.094-.3-3.141-.451a1.012,1.012,0,0,1-.947-1.117c-.037-.819-.128-1.636-.22-2.452a4.115,4.115,0,0,0-.83-2.339,3.431,3.431,0,0,1-.483-2.122,8.661,8.661,0,0,1,.494-3.115,30.815,30.815,0,0,0,1.552-6.735c.406-2.167,1.147-4.271,1.73-6.406.557-2.041,1.132-4.078,1.641-6.131.461-1.859,1.173-2.536,3.072-2.7a5.386,5.386,0,0,1,1.434,0c2.32.436,4.466-.249,6.616-.952,2.239-.733,4.492-1.423,6.715-2.2a1.832,1.832,0,0,0,.857-.943c.383-.831.561-1.766,1-2.56.906-1.641,2.392-1.989,3.728-.7a37.344,37.344,0,0,1,3.1,3.9,10.145,10.145,0,0,0,.942,1.024,17.383,17.383,0,0,1,2.71,2.615,19.574,19.574,0,0,0,5.4,5.265,66.019,66.019,0,0,0,23.234,10.65c2.162.485,4.379.769,6.5,1.4a9.2,9.2,0,0,1,5.772,4.462,4.138,4.138,0,0,1-1,5.25c-.827.646-1.821,1.076-2.681,1.687A2.016,2.016,0,0,0,556,287.7c-.635,3.649.121,2.8-3.541,3.419-1.107.187-1.7-.177-1.89-1.254-.2-1.129-.782-1.414-1.872-1.039A18.6,18.6,0,0,1,546.166,289.337Zm-43.552-31.61c-.13-.033-.164-.054-.192-.047-.164.038-.33.071-.49.124-2.829.943-5.642,1.769-8.719,1.322-1.707-.248-2.06.2-2.455,1.863a6.7,6.7,0,0,1-.316,1.291c-1.471,3.145-.412,5.867,1.365,8.481.115.169.2.358.314.529,4.021,6.139,9.256,10.292,16.977,10.386a61.322,61.322,0,0,1,11.284,1.334,119.361,119.361,0,0,0,12.507,2.149,82.959,82.959,0,0,0,11.783-.032,25.548,25.548,0,0,0,9.628-2.244,7.365,7.365,0,0,0,2.249-1.554,2.617,2.617,0,0,0-.818-4.164c-1.435-.656-2.983-1.062-4.515-1.591-.358,2.053-1.179,2.958-3.132,2.968a38.235,38.235,0,0,1-7.436-.483c-9.956-1.928-19.877-4.039-29.815-6.06-2.757-.561-5.347-1.413-7.365-3.516a4.767,4.767,0,0,1-1.522-3.469c.025-1.263.054-2.53.168-3.787C502.221,260.05,502.443,258.885,502.613,257.727Zm28.321,10.88c-.459.92-.877,1.757-1.293,2.595a1.41,1.41,0,0,1-1.68.85,1.323,1.323,0,0,1-1.124-1.487,1.267,1.267,0,0,1,1.276-1.346c.979.024,1.269-.553,1.624-1.295l-3-1.844c-.488.824-.983,1.569-1.384,2.362a1.443,1.443,0,0,1-1.642.922,1.31,1.31,0,0,1-1.193-1.425,1.243,1.243,0,0,1,1.214-1.392,1.914,1.914,0,0,0,1.854-1.234l-2.617-1.85c-.577.787-1.145,1.5-1.643,2.26a1.442,1.442,0,0,1-1.755.7,1.346,1.346,0,0,1-.978-1.6,1.4,1.4,0,0,1,1.292-1.24c.706-.142,1.388-.41,2.293-.688-.67-.628-1.071-1-1.461-1.372-.911-.879-1.582-.924-2.488-.079-.227.212-.293.591-.461.876a1.368,1.368,0,0,1-1.749.672,1.338,1.338,0,0,1-.942-1.613,1.446,1.446,0,0,1,1.417-1.24c.823-.122,1.634-.324,2.631-.528-.429-.59-.654-.932-.911-1.246a2.53,2.53,0,0,0-4.179.423,1.432,1.432,0,0,1-1.921.673,1.342,1.342,0,0,1-.8-1.691,1.467,1.467,0,0,1,1.736-1.086,9.581,9.581,0,0,0,1.464-.089,2.443,2.443,0,0,0-3.141-1.516c-2.229.49-4.42,1.157-6.613,1.8a1.075,1.075,0,0,0-.568.718c-.3,1.437-.611,2.879-.778,4.336-.478,4.161.405,5.885,3.768,7.493a9.014,9.014,0,0,0,1.922.687c11.506,2.535,22.973,5.274,34.647,6.958a23.288,23.288,0,0,0,5.087-.159c.286-.023.53-.574.793-.881-.288-.224-.546-.563-.872-.653-1.184-.327-2.423-.473-3.582-.862-3.322-1.117-6.615-2.32-9.952-3.5a13.555,13.555,0,0,0-.628,1.655c-.263,1.036-.769,1.521-1.66,1.43a1.394,1.394,0,0,1-1.311-1.35c-.106-.813.488-1.348,1.531-1.555a.893.893,0,0,0,.609-.49.842.842,0,0,0-.267-.746C532.726,269.485,531.9,269.1,530.934,268.607Zm27.692,10.91c-.365,2.832-2.179,4.164-4.48,5.011a24.732,24.732,0,0,1-3.317,1.045,58.007,58.007,0,0,1-24.732.07,98.182,98.182,0,0,0-22.537-2.7,45.129,45.129,0,0,1-6.352-.167,25.241,25.241,0,0,1-9.825-3.923c-.276-.167-.553-.33-.952-.567a20.446,20.446,0,0,0-.717,2.29c-.661,3.564-.522,4.507,3.375,5.34a40.472,40.472,0,0,0,17.206.166,31.433,31.433,0,0,1,13.518.057A98.236,98.236,0,0,0,531.427,288a58.338,58.338,0,0,0,18.97-.955c2.7-.64,5.408-1.228,7.724-2.854C559.947,282.912,560.114,281.483,558.626,279.516ZM488.79,268.1c-.11.118-.178.156-.188.206-.536,2.708-1.086,5.413-1.568,8.13-.043.241.3.69.572.825,2.472,1.225,4.924,2.5,7.47,3.557a12.06,12.06,0,0,0,5.992.6C495.149,278.459,491.44,273.775,488.79,268.1Zm25.287-14.351a11.018,11.018,0,0,0-.749-1.049c-.648-.725-1.233-1.851-2.328-1.562-1.112.292-1.149,1.561-1.388,2.544-.005.022.029.054.036.068Zm-13.115,34.53c.483,2.336.8,2.587,2.731,2.258.517-.088.978-1.609.8-2.62Zm-10.569-.534-3.672-.938.271,2.587C489.752,289.883,489.752,289.883,490.393,287.749Zm50.834,1.978c.436,2.01.821,2.22,3.031,1.7l.375-1.939Zm-7.455-.1-2.841-.181c0,2.038.173,2.207,2.1,2.144.187-.448.386-.912.574-1.381C533.662,290.065,533.693,289.9,533.772,289.631Zm18.251-.007c2.288-.006,2.393-.1,2.44-2.124l-2.927.818Zm-30.1-1.448c.158.9-.13,1.947,1.035,1.866.515-.036.986-.711,1.477-1.1l-.182-.306Z"
          transform="translate(-483.603 -249.15)" fill="#013369" stroke="#013369" stroke-width="0.8"/>
</svg>
