<svg xmlns="http://www.w3.org/2000/svg" width="79.709" height="48.02" viewBox="0 0 79.709 48.02">
    <path id="Path_1863" data-name="Path 1863"
          d="M493.244,147.19c-2.014,6.37-7.367,5.448-12.41,5.379,0,3.216,0,6.211,0,9.208,0,2.835.019,5.669-.005,8.5-.029,3.4-2.048,5.468-5.4,5.779a9.358,9.358,0,0,0-2.29.968,21.284,21.284,0,0,1-4.513,1.664,41.448,41.448,0,0,1-6.013.071c-4.736,0-7.056-1.955-7.831-6.68H451.92c-.228,2.768-1.369,5.549-4.063,5.974a39.976,39.976,0,0,1-12.192.075c-2.1-.327-4.047-2.094-6.444-2.629-2.345-.523-3.3-2.7-3.311-5.089-.026-5.2-.008-10.393-.008-15.59v-2.236c-1.763,0-3.449.011-5.134,0-4.5-.037-7.371-2.788-7.215-7.289.089-2.547.753-5.069,1.051-7.615a2.609,2.609,0,0,0-.555-1.659c-.952-1.281-.52-2.083.778-2.6a35.081,35.081,0,0,1,14.869-2.492c.708.038,1.346,1.074,2.052,1.6.551.412,1.13,1.012,1.743,1.075a4,4,0,0,1,3.682,3.071,29.433,29.433,0,0,0,11.341,15.973,8.261,8.261,0,0,1,3.345,5.679h3.01c.368-3,2.28-4.883,4.542-6.628a28.813,28.813,0,0,0,10.127-14.974,4.023,4.023,0,0,1,3.822-3.127,2.283,2.283,0,0,0,1.557-1.036,3.053,3.053,0,0,1,3.119-1.746,37.239,37.239,0,0,1,13.466,2.5,10.983,10.983,0,0,1,1.743,1.109v1.063c-.408.691-1.2,1.421-1.14,2.066a16.92,16.92,0,0,0,1.14,3.605Zm-35.665,24.781a3.892,3.892,0,0,0,3.977,4.278c2.124.054,4.25.022,6.375.013,3.189-.013,4.77-1.579,4.779-4.761.013-4.722-.022-9.445.012-14.167a6.932,6.932,0,0,1,7.206-7.283c2.125-.039,4.25.006,6.375-.013,2.305-.021,4.124-1.358,4.317-3.575a62.379,62.379,0,0,0-.1-6.694c-.505.195-.649.2-.706.28-.356.469-.691.954-1.036,1.432a9.788,9.788,0,0,1-8.452,4.3c-1.594-.011-3.188,0-4.781,0-2.664,0-3.044-.4-2.789-3.119.2-2.133.478-4.258.721-6.387a2.06,2.06,0,0,0-1.456,1.143,33.659,33.659,0,0,1-12.5,17.54c-.966.723-1.491,2.036-2.5,3.473,1.793,0,2.909-.008,4.024,0,.854.008,1.9.059,1.681,1.2-.1.535-1.027,1.167-1.665,1.286a19.715,19.715,0,0,1-3.525.058v2.888a20.163,20.163,0,0,1,3.594.06c.619.116,1.123.845,1.678,1.3-.538.386-1.04,1.021-1.622,1.106a25.124,25.124,0,0,1-3.614.052v3.087a24.3,24.3,0,0,1,3.646.053c.576.091,1.064.739,1.592,1.135-.514.44-.982,1.168-1.553,1.261A22.98,22.98,0,0,1,457.579,171.971Zm-23.813-35.918-.469.249c.236,2.449.483,4.9.705,7.346.133,1.469-.473,2.2-2.041,2.133-1.827-.074-3.66-.042-5.489-.012a9.784,9.784,0,0,1-8.583-4.382c-.386-.543-.8-1.067-1.407-1.88a27.693,27.693,0,0,0-.45,2.825,26.6,26.6,0,0,0,.022,3.892,4.114,4.114,0,0,0,4.306,3.81c1.889.023,3.778,0,5.667.008,5.217.007,7.982,2.748,7.993,7.945.01,4.664-.018,9.327.014,13.991a4.035,4.035,0,0,0,4.178,4.273q3.452.068,6.906,0c2.458-.052,4.011-1.655,4.091-4.278a20.468,20.468,0,0,1-3.5-.056c-.647-.114-1.585-.7-1.708-1.228-.261-1.126.733-1.242,1.623-1.232,1.167.012,2.334,0,3.577,0v-3.084c-1.2,0-2.313,0-3.42,0-.917,0-1.906.043-1.845-1.274.057-1.239,1.015-1.252,1.939-1.247,1.1.006,2.205,0,3.312,0v-2.894a22.652,22.652,0,0,1-3.793-.065c-.551-.1-.981-.886-1.465-1.361.5-.37.971-.986,1.512-1.059a27.5,27.5,0,0,1,3.653-.05l.376-.51c-.814-1.068-1.436-2.4-2.475-3.159a33.027,33.027,0,0,1-12.215-17.1A7.508,7.508,0,0,0,433.766,136.053Zm56.059-.73a33.452,33.452,0,0,0-11.571-1.939,1.483,1.483,0,0,0-1.134.56,20.972,20.972,0,0,0-1.733,9.182C484.233,143.646,484.931,143.228,489.825,135.323Zm-72.913.018c3.81,7.149,7.891,9.277,14.785,7.559-.593-2.776-1.133-5.583-1.837-8.348a1.943,1.943,0,0,0-1.422-1.14A31.686,31.686,0,0,0,416.911,135.341Zm58.339,38.054c2.2-.2,3.056-1.1,3.065-3.2.023-5.473.009-10.946,0-16.419a5.271,5.271,0,0,0-.148-.845,4.119,4.119,0,0,0-2.9,4.141C475.217,162.48,475.251,167.89,475.251,173.394Zm-43.765-.032c0-5.441.031-10.754-.015-16.067-.02-2.358-.968-3.612-3.047-4.236,0,5.93-.044,11.823.028,17.715C428.472,172.475,429.536,173.274,431.486,173.362Zm23.313-4V166.5H451.97v2.86Zm-2.875-8.293V163.7h2.889v-2.635Z"
          transform="translate(-413.534 -130.822)" fill="#013369"/>
</svg>
