<svg id="Layer_1" data-name="Layer 1" xmlns="http://www.w3.org/2000/svg" viewBox="0 0 512 512"><defs><style>.cls-1{fill:#013369;}</style></defs><title>icon-03</title><path class="cls-1" d="M304.2,96.4H272.07a79.36,79.36,0,0,0-79.27,79.27V207.8a15,15,0,0,0,15,15h32.13a79.36,79.36,0,0,0,79.27-79.27V111.4A15,15,0,0,0,304.2,96.4Zm-15,47.13a49.32,49.32,0,0,1-49.27,49.27H222.8V175.67a49.32,49.32,0,0,1,49.27-49.27H289.2Z" transform="translate(0)"/><path class="cls-1" d="M464.87,32.13H415.6V15a15,15,0,0,0-15-15H111.4a15,15,0,0,0-15,15V32.13H47.13A47.12,47.12,0,0,0,0,79.27V191.73a95.45,95.45,0,0,0,95.33,95.34h25a94.78,94.78,0,0,0,56.37,31v18.3A47.21,47.21,0,0,0,208.86,381v3.52a33.23,33.23,0,0,1-33.2,33.2h0c-58,0-75.27,51.35-77.79,64.27H79.27a15,15,0,1,0,0,30H432.73a15,15,0,0,0,0-30H414.18c-9.78-51.31-56.61-64.27-77.85-64.27a33.24,33.24,0,0,1-33.2-33.2V381a47.21,47.21,0,0,0,32.14-44.68V318a94.78,94.78,0,0,0,56.37-31h25A95.45,95.45,0,0,0,512,191.73V79.27a47.11,47.11,0,0,0-47.13-47.14ZM95.33,257.07A65.41,65.41,0,0,1,30,191.73V79.27A17.14,17.14,0,0,1,47.13,62.13H96.4V223.87a95.55,95.55,0,0,0,5.92,33.2ZM383.29,482H128.76c3.57-11.12,17.07-34.27,46.89-34.27H336.33c29.92,0,43.44,23.2,47,34.27ZM229.43,417.73a62.84,62.84,0,0,0,9.44-33.2v-1.06h34.26v1.06a62.76,62.76,0,0,0,9.45,33.2Zm75.84-81.4a17.16,17.16,0,0,1-17.14,17.14H223.87a17.16,17.16,0,0,1-17.14-17.14V319.2h98.54Zm15-47.13H191.73a65.3,65.3,0,0,1-65.33-65.33V30H385.6V223.87A65.29,65.29,0,0,1,320.27,289.2ZM482,191.73a65.41,65.41,0,0,1-65.33,65.34h-7a95.32,95.32,0,0,0,5.92-33.2V62.13h49.27A17.12,17.12,0,0,1,482,79.27Z" transform="translate(0)"/></svg>