<svg id="Group_2985" data-name="Group 2985" xmlns="http://www.w3.org/2000/svg" width="29.369" height="35.97" viewBox="0 0 29.369 35.97">
  <path id="Path_4282" data-name="Path 4282" d="M562.628,132.481s-.691-5.522,4.083-5.522,4.257,5,4.257,5h-2.647a2.249,2.249,0,0,0-1.15,1.669v.689s-1.152-.058-1.438-.461a4.521,4.521,0,0,0-1.553-.978A5.915,5.915,0,0,0,562.628,132.481Z" transform="translate(-547.391 -124.403)" fill="#013369"/>
  <path id="Path_4283" data-name="Path 4283" d="M555.108,148.428c-.408.431-.058,3.624,2.761,2.358a45.786,45.786,0,0,0,7.191-4.773l2.589-3.624a9.644,9.644,0,0,1-2.532-1.9c-.517-.8-1.15-1.956-1.15-1.956a28.755,28.755,0,0,0-1.725,3.049c0,.287-5.119,5.119-5.119,5.119A11.571,11.571,0,0,0,555.108,148.428Z" transform="translate(-553.175 -115.622)" fill="#013369"/>
  <path id="Path_4284" data-name="Path 4284" d="M565.2,139.158l.689,2.474s-.978,7.247,2.761,8.8,6.1,2.761,6.1,2.761v6.041s.056,2.242,1.9,2.242,2.072-2.761,2.072-2.761L579,151.3a2.907,2.907,0,0,0-1.841-2.358,27.381,27.381,0,0,1-4.486-2.761,21.169,21.169,0,0,0,1.669-2.647c0-.288,2.531,1.783,2.531,1.783l5.866.288a1.4,1.4,0,0,0,.575-1.208,3.531,3.531,0,0,0-.862-1.841l-3.624-.23-2.186-1.955v-3.278s-.172-1.266-1.092-1.266-2.089.689-3.663.689-1.975-1.322-2.608-1.667a3.077,3.077,0,0,0-1.839-.633c-.921,0-2.244,1.38-2.244,1.38a6.821,6.821,0,0,1-4.2-3.874s3.077-1.421,2.926-3.77c-1.215-2.254-2.418-2.829-5.988-2.207-4.029.7-3.994,4.053-3.994,4.053a4.08,4.08,0,0,0,3.716,2.4,6.418,6.418,0,0,0,2.07,3.969c1.9,1.669,3.28,2.819,4.2,2.7A1.42,1.42,0,0,1,565.2,139.158Z" transform="translate(-553.948 -125.505)" fill="#013369"/>
</svg>
