<svg id="Group_21" data-name="Group 21" xmlns="http://www.w3.org/2000/svg" width="47.986" height="48.048"
     viewBox="0 0 47.986 48.048">
    <path id="Path_1829" data-name="Path 1829"
          d="M121.961,185.843c-.116,19.281-13.145,34.363-31.031,37.064a36.544,36.544,0,0,1-12.085-.271,4.708,4.708,0,0,1-4.249-4.255A36.692,36.692,0,0,1,104.032,175.8a37.705,37.705,0,0,1,12.945,0c2.551.432,3.819,1.632,4.245,4.2C121.607,182.321,121.817,184.672,121.961,185.843Zm-3.907,8.947a7.017,7.017,0,0,0-.756-1.061c-4.582-4.619-9.188-9.214-13.761-13.843a1.639,1.639,0,0,0-1.905-.463c-11.942,3.615-19.7,11.4-23.388,23.3a1.965,1.965,0,0,0,.569,2.288q6.84,6.761,13.585,13.616a1.846,1.846,0,0,0,2.147.517,33.526,33.526,0,0,0,23.51-24.352ZM89.126,220.062,76.947,207.92c.138,2.947.158,5.772.432,8.573.306,3.117.413,2.975,3.395,3.425A24.094,24.094,0,0,0,89.126,220.062Zm29.5-29.526.47-.033c-.228-3.236-.461-6.471-.68-9.707-.1-1.431-.988-2-2.274-2.118-1.819-.173-3.638-.39-5.462-.452-1.343-.045-2.694.127-4.277.216Z"
          transform="translate(-73.975 -175.239)" fill="#013369"/>
    <path id="Path_1830" data-name="Path 1830"
          d="M134.951,238.088l-2.418,2.448a11.306,11.306,0,0,1,1.84,2.015c.277.5.3,1.616-.008,1.842a2.164,2.164,0,0,1-1.981.116,10.908,10.908,0,0,1-2-2.285c-.736.881-1.211,1.489-1.728,2.059a1.47,1.47,0,0,1-2.281.262c-.866-.809-.535-1.678.219-2.382.561-.524,1.2-.959,2.04-1.613-.774-.618-1.216-.92-1.6-1.285-.807-.772-1.78-1.563-.73-2.788.737-.86,1.518-.656,2.775.65.366.38.674.815,1.1,1.333l2.148-2.593.625-.2c-.656-.476-1.353-.9-1.956-1.439a1.441,1.441,0,0,1-.158-2.279,1.408,1.408,0,0,1,2.172.118c.549.538,1.039,1.138,1.762,1.94l1.992-2.84.549.084a8.6,8.6,0,0,1-1.918-1.7,2.328,2.328,0,0,1-.094-2.007c.487-.855,1.4-.772,2.089-.075.6.614,1.1,1.329,1.931,2.345.663-.874,1.026-1.449,1.483-1.934.736-.781,1.608-1.442,2.58-.41.878.931.338,1.777-.434,2.491-.495.458-1.021.881-1.591,1.369.747.787,1.343,1.407,1.93,2.036a1.373,1.373,0,0,1,.028,2.16,1.4,1.4,0,0,1-2.165-.139c-.558-.6-1.084-1.23-1.7-1.933l-2.587,2.711c.654.572,1.326,1.1,1.928,1.7a1.394,1.394,0,0,1,.012,2.168,1.369,1.369,0,0,1-2.064-.061C136.144,239.41,135.609,238.788,134.951,238.088Z"
          transform="translate(-110.821 -211.955)" fill="#013369"/>
</svg>
