<?xml version="1.0" encoding="utf-8"?>
<!-- Generator: Adobe Illustrator 22.0.0, SVG Export Plug-In . SVG Version: 6.00 Build 0)  -->
<svg version="1.1" id="Layer_1" xmlns="http://www.w3.org/2000/svg" xmlns:xlink="http://www.w3.org/1999/xlink" x="0px" y="0px"
	 viewBox="0 0 735.6 496" style="enable-background:new 0 0 735.6 496;" xml:space="preserve">
<style type="text/css">
	.st0{opacity:0.81;fill:#E3E5F8;enable-background:new    ;}
	.st1{fill:#F6F6FC;}
	.st2{fill:#BCBCBC;}
	.st3{fill:#F7F7F7;}
	.st4{fill:url(#Path_3790_1_);}
	.st5{fill:url(#Path_3791_1_);}
	.st6{fill:#2E4166;}
	.st7{fill:#FF8264;}
	.st8{fill:#FFFFFF;}
	.st9{fill:none;stroke:#000000;stroke-linecap:round;stroke-miterlimit:10;}
	.st10{fill:url(#Path_3802_1_);}
	.st11{fill:#EDF3F7;}
	.st12{fill:#57030B;}
	.st13{fill:#05193A;}
	.st14{fill:url(#Path_3811_1_);}
	.st15{fill:#952C1F;}
	.st16{fill:url(#Path_3819_1_);}
	.st17{fill:#302121;}
	.st18{fill:#FF0303;}
	.st19{fill:#B1D2EF;}
	.st20{fill:#71A3C9;}
	.st21{fill:url(#Path_3825_1_);}
	.st22{opacity:0.38;}
	.st23{fill:#2E8C50;}
	.st24{fill:none;}
</style>
<g id="Group_2663" transform="translate(153.035 71.5)">
	<g id="Group_2662" transform="translate(39.771 23.384)">
		<path id="Path_3781" class="st0" d="M514.3,72.8c0,0-59.9-122.1-162.8-141.3S135.9-11,71.3,1S-72.4-3.8-146.6,94.4
			s-26.5,257.8,124.5,265.8c151,8,229.9-50.3,301.7-7.2S605.3,333.8,514.3,72.8z"/>
		<g id="Group_2645" transform="translate(67.421 187.228)">
			<g id="Group_2644">
				<path id="Path_3782" class="st1" d="M-100-43.1c0,15.7-12.7,28.4-28.4,28.4c-15.7,0-28.4-12.7-28.4-28.4
					c0-15.7,12.7-28.4,28.4-28.4c0,0,0,0,0,0C-112.7-71.5-100-58.8-100-43.1z"/>
				<circle id="Ellipse_340" class="st1" cx="-90" cy="-36" r="22.7"/>
				<path id="Path_3783" class="st1" d="M-148.3-26.7c0,7.5-6,13.5-13.5,13.5c-7.5,0-13.5-6-13.5-13.5c0-7.5,6-13.5,13.5-13.5
					C-154.4-40.2-148.3-34.2-148.3-26.7C-148.3-26.7-148.3-26.7-148.3-26.7z"/>
				<path id="Path_3784" class="st1" d="M-168.2-50.9c0,3.5-2.9,6.4-6.4,6.4s-6.4-2.9-6.4-6.4s2.9-6.4,6.4-6.4h0
					C-171.1-57.3-168.2-54.4-168.2-50.9z"/>
				<path id="Path_3785" class="st1" d="M-112.8-21.7c0,9.4-7.6,17.1-17.1,17.1c-9.4,0-17.1-7.6-17.1-17.1c0-9.4,7.6-17.1,17.1-17.1
					l0,0C-120.4-38.8-112.8-31.2-112.8-21.7z"/>
			</g>
		</g>
		<g id="Group_2647" transform="translate(389.445 87.713)">
			<g id="Group_2646">
				<circle id="Ellipse_341" class="st1" cx="-44.6" cy="2.2" r="73.7"/>
				<circle id="Ellipse_342" class="st1" cx="54.9" cy="20.7" r="59"/>
				<circle id="Ellipse_343" class="st1" cx="-131.3" cy="44.6" r="35"/>
				<path id="Path_3786" class="st1" d="M-147.9-18c0,9.2-7.4,16.6-16.6,16.6c-9.2,0-16.6-7.4-16.6-16.6c0-9.2,7.4-16.6,16.6-16.6
					C-155.3-34.6-147.9-27.2-147.9-18z"/>
				<circle id="Ellipse_344" class="st1" cx="-48.3" cy="57.6" r="44.2"/>
			</g>
		</g>
		<path id="Path_3787" class="st2" d="M94.5,284.3c6.6,5.1,7.7,13,7.9,32.1c0.3,21-4.7,59.6-7.9,81.4c-4.1,27.6-21.8,30.6-29.1,13.2
			s-3.7-17.9-1-37.8c1.8-13.5-6.4-39.1-9.7-54.9c-2.5-12.2,5.5-31.6,18-36C79.2,279.9,87.2,278.6,94.5,284.3z"/>
		<path id="Path_3788" class="st3" d="M23,288.2c0,0-5.6,15.3-3.8,24.4s6.7,23.1,6.7,23.1l46.2,9.8c1.1-10,11.6-23.4,19-32.5
			c7.4-9.1,10.3-16.9,10.3-19.1l1.2-11.4C102.6,282.3,64.6,290.4,23,288.2z"/>
		<path id="Path_3789" class="st3" d="M60.6,290.5c6.1,5.8,9.9,13.6,10.8,22c2.7,30.2-1.3,65.6-6.8,87c-6.9,27.1-21.6,95.7-38.1,0
			c-8.7-53.8-7.7-75.3-7.9-80.2c-0.3-4.8-0.7-10.6,0.6-16.5c1.3-5.8,7.8-14.8,20.7-17.9C46.6,283.3,53.9,284.1,60.6,290.5z"/>
		
			<linearGradient id="Path_3790_1_" gradientUnits="userSpaceOnUse" x1="83.977" y1="220.7562" x2="85" y2="220.7562" gradientTransform="matrix(8.023 0 0 -10.915 -583.6827 2588.9417)">
			<stop  offset="0" style="stop-color:#FAAB6D"/>
			<stop  offset="1" style="stop-color:#FF8264"/>
		</linearGradient>
		<path id="Path_3790" class="st4" d="M77.7,173.9l5.1,1.8l-7.1,9.1l-1-10.5L77.7,173.9z"/>
		
			<linearGradient id="Path_3791_1_" gradientUnits="userSpaceOnUse" x1="116.3915" y1="209.0313" x2="117.4295" y2="209.0313" gradientTransform="matrix(37.448 0 0 -30.8637 -4301.3936 6625.6191)">
			<stop  offset="0" style="stop-color:#FAAB6D"/>
			<stop  offset="1" style="stop-color:#FF8264"/>
		</linearGradient>
		<path id="Path_3791" class="st5" d="M49.9,159.1l-2.3,10.8l-6.7,1.1c0.1,3.2,0.8,8.5,4.7,12.6c4.6,4.9,11.1,5.5,17.5,5.9
			c4.7,0.3,9.4-0.1,13.9-1.1c0.4-9.9,0.9-19.8,1.3-29.7C68.9,158.8,59.4,158.9,49.9,159.1z"/>
		<path id="Path_3792" class="st6" d="M143.6,194c-10.9,8.3-21.7,16.7-32.6,25c0.6,14.1,0.2,28.2-1.2,42.2
			c-1.3,12.3-6.1,22.6-8.3,32.5c-27-1.5-52.6-0.6-79.6-2c-4.1-24.7-6.7-50.9-10.8-75.6l-29-25.8c0.2-2.1,0.7-4.2,1.3-6.2
			c0.5-1.3,1-2.6,1.7-3.8c0.4-0.7,0.8-1.3,1.2-2c2.1-2.9,4.8-5.4,8-7c3.5-1.7,7.2-3.1,11-4.1c5.6-1.7,11.4-2.6,17.2-2.5
			c1.8,0,3.5,0.2,5.2,0.5c0.9,0.1,1.9,0.4,2.8,0.6v0c2.8,0.7,5.5,1.9,8,3.4c0.3,0.2,0.6,0.4,0.9,0.7c0.4,0.3,2.4,1.8,4,2.9
			c19.5,14.3,27.4,12.9,27.4,12.9c7.6-1.3,6.7-7.8,17.4-15.1c0.2-0.1,0.4-0.2,0.5-0.4c0.7-0.5,1.5-0.9,2.2-1.3
			c6.9-3.5,14.1-3.2,18.2-3.1c3.6,0.1,14.8,0.6,23.9,8.6c0.9,0.8,1.8,1.6,2.5,2.5c2.4,2.6,4.3,5.7,5.7,9c0.5,1.2,1,2.5,1.3,3.8
			C143,191.2,143.3,192.6,143.6,194z"/>
		<path id="Path_3793" class="st7" d="M110.9,219c7.5,15.2,13.7,41.5,21.5,43.5c11.1,5.2,14.2-6.4,23.3-12.9
			c-3.5-32.1-6.4-38.6-12.2-55.7C132.7,202.4,121.8,210.7,110.9,219z"/>
		<path id="Path_3794" class="st8" d="M141.2,186.1l-31.1,22.6l-1.4-17.1l24.3-17c0.9,0.8,1.8,1.6,2.5,2.5
			C137.9,179.8,139.8,182.8,141.2,186.1z"/>
		<path id="Path_3795" class="st9" d="M110.9,244.7c0.8-10.4,0.6-20.8-0.5-31.1c-1.8-15.7-0.4-4.9-0.4-4.9l-1.4-17.1l-0.4-4.5"/>
		<path id="Path_3796" class="st9" d="M49,183.9c0,0-7.6,2-17.9,15.8"/>
		<g id="Group_2649" transform="translate(225.973 279.596)">
			<g id="Group_2648" transform="translate(0 0)">
				<path id="Path_3797" class="st8" d="M-180.7-35.1l14.7-19c0.6-0.8,1.2-1.7,1.6-2.6c0.4-0.8,0.6-1.6,0.6-2.4v-0.1
					c0.1-0.9-0.2-1.9-1-2.5c-0.9-0.6-1.9-0.9-3-0.7c-1.2,0-2.3,0.5-3.1,1.4c-0.9,1-1.4,2.3-1.6,3.6v0l-7.9,0.4v0
					c0.2-2.3,0.9-4.6,2.1-6.6c1.1-1.8,2.6-3.3,4.4-4.4c1.9-1.1,4.1-1.7,6.3-1.8c2.2-0.2,4.4,0.1,6.5,0.9c1.7,0.6,3.1,1.8,4,3.4
					c0.9,1.7,1.3,3.7,1.2,5.6v0c-0.1,1.9-0.5,3.8-1.2,5.5c-0.7,1.8-1.7,3.5-2.9,5.1l-10.5,13.1l13.9-0.8l-0.3,7.3l-24.1,1.4
					L-180.7-35.1z"/>
				<path id="Path_3798" class="st8" d="M-149-32.7c-2-1.9-2.9-4.7-2.8-8.2l0.8-18.3c0-3.2,1.2-6.3,3.5-8.6c2.2-2.1,5.2-3.3,9.2-3.5
					c4-0.2,7,0.6,8.9,2.5c2,1.9,2.9,4.6,2.8,8.3l-0.8,18.3c0,3.2-1.2,6.3-3.5,8.6c-2.2,2.1-5.2,3.3-9.2,3.5
					C-144.1-30-147-30.8-149-32.7z M-136.3-39.3c0.9-1.4,1.3-3,1.3-4.6l0.6-14.5c0.2-1.5-0.1-3.1-0.9-4.4c-0.8-1-2.1-1.6-3.3-1.4
					c-1.4,0-2.7,0.7-3.5,1.8c-0.9,1.4-1.3,3-1.3,4.6l-0.6,14.5c-0.2,1.5,0.1,3.1,0.9,4.4c0.8,1,2.1,1.6,3.4,1.4
					C-138.4-37.5-137.1-38.2-136.3-39.3z"/>
			</g>
		</g>
		<path id="Path_3799" class="st8" d="M90.9,169.1c-1.1,2.8-1.9,5.2-2.6,7.1c-2.1,6.4-2.6,9.4-5.5,12.1c-2.7,2.4-6.2,4-9.8,4.3
			l-0.1,0c-14,1.9-35.4-17.5-45.2-27.3c0.9,0.1,1.9,0.4,2.8,0.6v0c2.8,0.7,5.5,1.9,8,3.4c0.3,0.2,0.6,0.4,0.9,0.7
			c0.4,0.3,2.4,1.8,4,2.9c19.5,14.3,27.4,12.9,27.4,12.9c7.6-1.3,6.7-7.8,17.4-15.1c0.2-0.1,0.4-0.2,0.5-0.4
			C89.5,169.9,90.2,169.5,90.9,169.1z"/>
		<path id="Path_3800" d="M11.1,216.5c0,0,11.2-3,17.1-12.7c4.8-7.9,9.5-11.4,9.5-11.4c0.7,24.3-14.6,36.2-22.1,54.4
			C13.7,236.2,12.8,227.1,11.1,216.5z"/>
		<path id="Path_3801" d="M88.2,147.4c-1.9-5.8-3.4-11.8-3.1-17.9c0.3-1.9,0.2-3.8-0.1-5.6c-0.5-1.8-2.2-3.5-4.1-3.2
			c-1.3,0.3-2.5,1.2-2.9,2.5c-0.4,1.3-0.6,2.6-0.6,4c-0.1,9.4,1.2,18.8,4,27.8c1,3.2,3.4,6.8,6.6,3.2
			C90.8,155.2,89.3,150.7,88.2,147.4z"/>
		
			<linearGradient id="Path_3802_1_" gradientUnits="userSpaceOnUse" x1="117.6918" y1="206.9661" x2="118.6318" y2="206.9661" gradientTransform="matrix(43.3574 0 0 -45.5165 -5039.0981 9561.9385)">
			<stop  offset="0" style="stop-color:#FAAB6D"/>
			<stop  offset="1" style="stop-color:#FF8264"/>
		</linearGradient>
		<path id="Path_3802" class="st10" d="M85.9,153.2c0.5,2.2,0.9,4.7-0.5,6.5c-0.7,0.7-1.5,1.3-2.4,1.7c-13.7,6.8-30.3,1.3-37.2-12.4
			c-1.2-2.4-2-4.9-2.5-7.5c-0.7-3-0.4-6,0.6-8.9c0.9-1.9,2.2-3.6,3.7-5c5.4-5.2,12.5-8.3,20-8.8C83.2,117.9,83.7,142.7,85.9,153.2z"
			/>
		<path id="Path_3803" class="st6" d="M41.4,161.4c-4.7-4.4-7.6-10.5-9.6-16.6c-1.7-5-2.6-10.2-2.5-15.5c0.1-5.3,1.9-10.4,5.2-14.6
			c1.5-1.8,3.2-3.4,5.1-4.7c7.7-5.6,17.7-8.3,26.9-6.1s17.3,9.9,18.7,19.2c-12.9,1.6-25.1,6.2-35.9,13.4c-1,0.5-1.7,1.4-2,2.4
			c-0.1,0.7,0,1.3,0.3,1.9c1.2,3.1,3.7,5.6,6.2,7.8s5.1,4.5,6.7,7.5s2,6.8,0.1,9.6c-2.6,3.7-8.3,3.8-12.2,1.7s-6.8-5.9-9.9-9.1"/>
		<path id="Path_3804" class="st8" d="M65.2,159.4c0.9,0.7,1.8,1.7,1.4,2.8c-0.3,0.7-1.1,1.1-1.8,1c-0.7-0.1-1.4-0.4-2.1-0.8
			c-2.9-1.9-5.7-4-8.2-6.5c-7.3-6.6-14-13.9-20-21.8c-0.5-0.7-0.2-3.3,0.9-3.4c0.8-0.1,2.4,2.4,2.9,3c2,2.2,4,4.4,6.1,6.6
			c4.2,4.4,8.6,8.5,13.1,12.6C60.1,155.2,62.6,157.3,65.2,159.4z"/>
		<path id="Path_3805" class="st8" d="M58.2,164.8c2.3,0.1,4.5-0.3,6.6-1.4c0.6,0.6,0.9,1.3,0.9,2.2c-6.8,3-14.7,2.6-21.8,0.5
			c-1.2-0.3-2.4-0.9-3.4-1.7c-1.3-1.2-1.9-3.3,0.4-2.8c2,0.4,3.8,1.3,5.8,1.8C50.4,164.4,54.3,164.8,58.2,164.8z"/>
		<path id="Path_3806" class="st11" d="M63.2,164.9c0.9,1.5,2.2,2.6,3.7,3.4c2.6,1.5,5.6,2.2,8.6,2.3c3,0,5.9-1,8.3-2.9
			c0.8-0.7,1.5-1.5,2.1-2.4c0.8-1.5,1.3-3.1,1.5-4.8c0.3-2.1,0.4-4.2,0.2-6.3c0-0.2-0.1-0.5-0.2-0.7c-0.2-0.2-0.4-0.3-0.6-0.4
			c-2.1-0.7-4.3-0.4-6.5,0.1c-4,0.6-7.9,1.9-11.6,3.7C65.9,158.4,61.2,161,63.2,164.9z"/>
		<g id="Path_3807">
			<path class="st12" d="M76.2,147.5c-0.2,0-0.3-0.1-0.4-0.2c-0.2-0.2-0.1-0.5,0.1-0.7c1.6-1.1,3.2-2.4,4.6-3.8
				c-2.4-1.8-4.7-3.8-6.9-5.9c-0.2-0.2-0.2-0.5,0-0.7c0.2-0.2,0.5-0.2,0.7,0c2.3,2.2,4.7,4.3,7.3,6.2l0.5,0.3l-0.4,0.4
				c-1.5,1.6-3.3,3.1-5.1,4.3C76.4,147.4,76.3,147.5,76.2,147.5z"/>
		</g>
		<path id="Path_3808" class="st8" d="M56.7,125.5c0.1,0.3,0.2,0.5,0.5,0.7c0.2,0.1,0.5,0.1,0.7,0.1c3.3-0.5,6.4-1.4,9.4-2.7
			c2.1-0.8,4.3-1.7,6.4-2.5c0.5-0.1,0.9-0.6,0.8-1.2c0-0.1-0.1-0.2-0.1-0.3c-0.7-2.6-1.8-5.1-3.3-7.4c-0.2-0.5-0.8-0.9-1.4-0.7
			c-4.9,0.2-9.6,1.5-14,3.7c-0.8,0.4-2.6,1-3.2,1.8c-0.8,1.1-0.1,1.3,0.7,2.3C54.6,121.1,55.8,123.2,56.7,125.5z"/>
		<path id="Path_3809" class="st8" d="M35.4,141.6c0.8,0,1.5-0.2,2-0.7c7.7-5.4,15.8-10.3,24.6-13.8c8.7-3.5,18.2-5.4,27.6-4.6
			c0.7,0.1,1.5,0.1,1.8-0.5c0.5-0.8-0.5-1.8-1.4-2.1c-7.4-3-15.8-1.2-23.4,1.2c-7.2,2.1-14.2,5-20.7,8.7c-3.2,1.9-6.2,4.1-9,6.5
			C35.8,137.1,32,140.9,35.4,141.6z"/>
		<path id="Path_3810" class="st13" d="M93.4,138.4c0.6-0.2,1.1-0.6,1.5-1c0.4-0.5,0.3-1.2-0.3-1.6c-0.5-0.4-1.2-0.3-1.6,0.2
			c0,0,0,0,0,0c-0.4,0.3-0.9,0.6-1.4,0.7c-0.1,0-0.2,0-0.3,0.1c0,0-0.1,0.1-0.1,0.1c-0.4,0.2-0.9,0.3-1.4,0.5c0,0-0.1,0-0.1,0
			c-0.1,0-0.2,0.1-0.3,0.1c-4.1,1.4-11.3,3.4-19.9,5.5c-0.1,0-0.1,0-0.2,0c-8.6,2.1-18.4,4.4-27.9,6.5c-0.6,0.1-1,0.7-0.9,1.4
			c0.1,0.4,0.4,0.8,0.9,0.9c0.2,0,0.3,0,0.5,0c2.5-0.6,6.2-1.4,10.6-2.4c0,2.1,0.3,7.1,4.2,10.7c1.9,1.7,4.3,2.9,6.8,3.3
			c3.7,0.6,7.4,0.6,11.1-0.2c10.5-1.9,15.4-3.9,17.7-5.4l0.1,0c0.7-0.4,1.2-0.9,1.6-1.5C95.3,155.4,99.2,150.9,93.4,138.4z
			 M90.8,156.3c-1.7,1-5.5,2.6-13.6,4.3c-0.8-5.5-4.2-12.7-5.7-15.6c6.9-1.7,13.4-3.5,17.8-5C90.1,142.9,91.8,151.1,90.8,156.3z
			 M58.4,158.6c-3.7-3.4-3.5-8.6-3.5-9.6c4.5-1,9.5-2.2,14.4-3.4c1.3,2.5,4.9,10.1,5.7,15.5l-0.7,0.1
			C67,162.5,61.6,161.6,58.4,158.6L58.4,158.6z M93.3,153.8c0-4.7-0.5-9.3-1.7-13.9C95.4,148.3,94.3,152.3,93.3,153.8L93.3,153.8z"
			/>
		
			<linearGradient id="Path_3811_1_" gradientUnits="userSpaceOnUse" x1="117.8969" y1="206.6737" x2="118.7859" y2="206.6737" gradientTransform="matrix(53.46 0 0 -48.796 -6388.8428 10299.5918)">
			<stop  offset="0" style="stop-color:#FAAB6D"/>
			<stop  offset="1" style="stop-color:#FF8264"/>
		</linearGradient>
		<path id="Path_3811" class="st14" d="M11.5,216.2l-28.3,22.9c-9.4-5.1-15.8-10.2-25.2-15.4c10-12.8,14-20.7,24-33.4
			C-9.7,197.2,6.1,212.2,11.5,216.2z"/>
		<g id="Group_2655" transform="translate(194.632 292.381)">
			<path id="Path_3812" class="st15" d="M-179.1-38.1c0.6,1.6,1.4,3.2,2.4,4.6c1.1,1.7,2.3,3.2,3.7,4.7c10,10.2,27.1,13.8,35.5,6.9
				c6.6-5.4,7.1-16.7,4.2-25.9c-0.5-1.6-1.1-3.2-1.8-4.7c-6.5-13.2-24.1-23.6-35.9-17C-180.7-64-183.3-48.7-179.1-38.1z"/>
			<path id="Path_3813" class="st8" d="M-177-35.4c0.8,1.4,1.7,2.7,2.7,4c0.9,1.2,1.9,2.3,2.9,3.3c2.9-8.3,8.7-15.3,16.3-19.6
				c10.1-5.7,21.7-0.1,21.7-0.1c-0.3-0.9-0.6-1.8-0.9-2.7c-0.3-0.7-0.6-1.4-0.9-2c-2.8-2.9-6.4-4.8-10.3-5.6
				C-156.4-60.1-169.5-51.2-177-35.4z"/>
			<g id="Group_2650" transform="translate(6.815 2.791)">
				<path id="Path_3814" class="st12" d="M-144.3-23.9c-0.3,0-0.6-0.2-0.7-0.4c-0.2-0.4-23.8-37.8-35.6-45.6
					c-0.4-0.3-0.5-0.8-0.2-1.2c0.3-0.4,0.8-0.5,1.2-0.2c12.1,8,35.1,44.6,36.1,46.2c0.3,0.4,0.1,0.9-0.3,1.2
					C-144-23.9-144.2-23.9-144.3-23.9L-144.3-23.9z"/>
			</g>
			<g id="Group_2651" transform="translate(18.399 26.248)">
				<path id="Path_3815" class="st12" d="M-180.2-46.7c-0.5,0-0.9-0.4-0.9-0.9c0-0.4,0.3-0.8,0.8-0.9c24.8-2.8,28.6-22.2,28.6-22.4
					c0.1-0.5,0.5-0.8,1-0.7c0.5,0.1,0.8,0.5,0.7,1c0,0,0,0,0,0C-150-70.3-153.9-49.6-180.2-46.7C-180.1-46.7-180.1-46.7-180.2-46.7z
					"/>
			</g>
			<g id="Group_2652" transform="translate(12.695 8.733)">
				<path id="Path_3816" class="st8" d="M-180.2-67.3c-0.2,0-0.3-0.1-0.5-0.2c-0.4-0.3-0.5-0.8-0.2-1.2c0,0,0,0,0,0
					c1-1.5,2.5-2.5,4.2-2.9c0.5,0,0.9,0.3,0.9,0.8c0,0.5-0.3,0.9-0.7,0.9l0,0c-1.3,0.3-2.3,1-3,2.1
					C-179.6-67.4-179.9-67.3-180.2-67.3z"/>
			</g>
			<g id="Group_2653" transform="translate(10.58 6.312)">
				<path id="Path_3817" class="st8" d="M-180.2-67.3c-0.5,0-0.9-0.4-0.9-0.9c0-0.2,0.1-0.3,0.2-0.5c1-1.5,2.5-2.5,4.2-2.9
					c0.5-0.1,0.9,0.3,1,0.8c0,0.5-0.3,0.9-0.7,1l0,0c-1.3,0.3-2.3,1-3,2.1C-179.6-67.4-179.9-67.3-180.2-67.3z"/>
			</g>
			<g id="Group_2654" transform="translate(8.165 4.125)">
				<path id="Path_3818" class="st8" d="M-180.2-67.3c-0.5,0-0.9-0.4-0.9-0.9c0-0.2,0.1-0.3,0.2-0.5c1-1.5,2.5-2.5,4.3-2.9
					c0.5,0,0.9,0.3,1,0.8c0,0.5-0.3,0.9-0.7,1l0,0c-1.3,0.3-2.3,1-3,2.1C-179.6-67.4-179.9-67.3-180.2-67.3z"/>
			</g>
		</g>
		
			<linearGradient id="Path_3819_1_" gradientUnits="userSpaceOnUse" x1="118.1577" y1="205.1094" x2="119.1297" y2="205.1094" gradientTransform="matrix(50.4863 0 0 -79.4098 -5868.5713 16514.8926)">
			<stop  offset="0" style="stop-color:#FAAB6D"/>
			<stop  offset="1" style="stop-color:#FF8264"/>
		</linearGradient>
		<path id="Path_3819" class="st16" d="M127.7,259.5c8.1,7.4,21.8,9.8,26.8,4.7c1-1.1,2.8-3.7,1.5-12.9c-2-13.7-8.2-23.4-12.6-30
			c-6.5-9.9-16.2-21.3-25.7-33.8c-4.8,5.4-6.9,8-11.7,13.4c2.8,4.4,5.8,14,9.2,23C122.5,243.2,119.4,251.9,127.7,259.5z"/>
		<path id="Path_3820" class="st17" d="M108.5,163.4c-2.6-4.6-4.4-7.9-4.9-9c-0.1-0.2-0.3-0.6-0.7-0.7c-0.6-0.1-1.2,0.6-1.4,0.8
			c-1.4,1.6,2.2,9.8,3.3,12.3c-3.3-2.3-6.4-4.7-9.4-7.3c-2.4-2.1-5-4.6-6.1-3.9c-0.4,0.3-0.5,1-0.5,1.3c-0.2,2.2,1.7,4.1,2.8,5.1
			c4.1,4,8.1,7.4,8,7.5c-0.1,0.2-4.5-1.8-10.5-5.4c-0.7-0.4-2.4-1.4-3.2-0.8c-0.6,0.5-0.5,1.7-0.4,2.1c0.6,3.8,5.7,4.2,7.3,6.5
			s-0.2,4.5-0.3,6c-0.1,0.9-0.2,1.8-0.1,2.7c0.1,1.8,0.6,3.6,1.5,5.3c0.4,0.7,5.8,11.5,13.6,10.6c4.3-0.5,7-4.3,7.5-5.1
			c3-4.4,2.2-9.3,1.2-15.9c-1-6.2-3.4-14.5-5.5-14.3c-0.6,0-1.5,1-1.7,2c-0.1,0.4-0.1,0.9,0,1.3c0.7,3,1.2,6,2,8.9
			c0.1,0.5,0.4,1.4,0.6,2.4l0,0"/>
		<path id="Path_3821" class="st17" d="M102.6,195.9c1.1,2.4,2.2,4.8,3.4,7.1c6.8-0.2,13-3.8,16.4-9.7l-5.3-8.4L102.6,195.9z"/>
		<g id="Group_2656" transform="translate(219.278 362.782)">
			<path id="Path_3822" class="st18" d="M-169-70.2c-2.1,5-9.4,23.9-5.6,42.8c3.8,18.5,3.5,51.4-3,70.7l-3.5-1.2
				c6.3-18.8,6.5-50.7,2.9-68.8c-3.7-17.9,2.2-36,5.3-43.8C-171.4-70.4-170.1-70.2-169-70.2z"/>
		</g>
		<g id="Group_2657" transform="translate(417.866 65.939)">
			<path id="Path_3823" class="st19" d="M-171.8,402.4h-9.2V-67.8l9.2-3.7V402.4z"/>
		</g>
		<g id="Group_2658" transform="translate(426.839 65.939)">
			<path id="Path_3824" class="st20" d="M-173.3,408.6h-7.7l0.3-480.1l7.4,6.2V408.6z"/>
		</g>
		
			<linearGradient id="Path_3825_1_" gradientUnits="userSpaceOnUse" x1="119.8336" y1="208.5873" x2="119.4056" y2="209.4273" gradientTransform="matrix(76.5399 0 0 -58.0956 -9281.7285 12215.8584)">
			<stop  offset="0" style="stop-color:#FAAB6D"/>
			<stop  offset="1" style="stop-color:#FF8264"/>
		</linearGradient>
		<path id="Path_3825" class="st21" d="M31.2,260.3C19,257.5,10.2,249.1,5,245.1c-12.6-9.9-13.1-20.2-26.8-25.3
			c-3-1.1-10.1-3.8-15.8-0.5c-6.8,3.9-8.1,14-7.8,18.1c1.5,23.9,65.8,37.2,71.6,38.4L31.2,260.3z"/>
		<path id="Path_3826" class="st17" d="M45.1,261.3c0,0,11.1-2.1,12.3-6c1.1-3.9-7.7-1-7.7-1L32.4,260l-5,16
			c3.3,3.9,15.4,6.6,22.7,4.2s1.6-3.9,1.7-7.1C52.3,263.5,43,263.3,45.1,261.3z"/>
		<path id="Path_3827" class="st17" d="M28.5,277.3l-9.3-1.9c-0.2-6.8,1.6-13.5,5.1-19.3l8.8,3.6L28.5,277.3z"/>
		<path id="Path_3828" class="st8" d="M30.8,198.9c0,1.4-0.6,4.2-4.5,8.1c-1.9,2-4,3.7-6.2,5.3l-35.1-32c0.4-0.7,0.8-1.3,1.2-2
			c0.8-1.1,1.6-2.1,2.6-3.1c2.4-2.2,5.1-3.9,8-5.2C8.3,180,19.4,189,30.8,198.9z"/>
		<path id="Path_3829" d="M58.4,137.1c-0.3-0.6-0.2-1.4,0.1-2c0.3-0.6,0.7-1.1,1.2-1.6c0.5-0.4,1.1-0.7,1.7-0.9
			c0.6-0.2,1.4-0.2,2,0.2c-0.5,0.3-0.9,0.7-1.4,1.1c-0.4,0.3-0.8,0.7-1.2,1c-0.4,0.3-0.8,0.6-1.2,1
			C59.1,136.3,58.7,136.7,58.4,137.1z"/>
		<path id="Path_3830" d="M78.7,129c-0.6,0-1.1,0-1.7,0c-0.5,0.1-1,0.1-1.5,0.2c-0.5,0-1,0.1-1.5,0.2c-0.6,0.1-1.1,0.1-1.7,0.3
			c0.2-0.7,0.6-1.2,1.2-1.5c0.6-0.3,1.2-0.6,1.8-0.6c0.7-0.1,1.3,0,2,0.2C77.8,127.9,78.4,128.4,78.7,129z"/>
		
			<ellipse id="Ellipse_345" transform="matrix(0.9088 -0.4173 0.4173 0.9088 -48.7328 44.5842)" cx="77.6" cy="133.8" rx="0.7" ry="2.2"/>
		
			<ellipse id="Ellipse_346" transform="matrix(0.9088 -0.4173 0.4173 0.9088 -52.1917 39.5703)" cx="64.4" cy="139.2" rx="0.7" ry="2.2"/>
		<g id="Group_2659" transform="translate(247.927 420.197)" class="st22">
			<path id="Path_3831" d="M-179.7-40.4c-0.1,0-0.2,0-0.3,0c-0.7-0.1-1.1-0.8-1-1.5c0,0,0,0,0,0c1.1-5.2,1.9-10.5,2.3-15.8
				c0.4-4.1,0.5-8.3,0.5-12.4c0-0.7,0.6-1.3,1.3-1.3h0c0.7,0,1.3,0.6,1.3,1.3c0,4.2-0.1,8.5-0.5,12.7c-0.5,5.4-1.3,10.8-2.4,16.1
				C-178.6-40.9-179.1-40.4-179.7-40.4z"/>
		</g>
		<path id="Path_3832" class="st23" d="M242.3,8.7v44.2c0,0.8-0.7,1.5-1.5,1.5l0,0h-168c-0.4,0-0.7-0.1-1-0.4L49.1,32.9
			c-0.6-0.6-0.6-1.5-0.1-2.1c0,0,0,0,0,0L71.6,7.1c0.3-0.3,0.7-0.5,1.1-0.5l168.1,0.6C241.6,7.2,242.3,7.9,242.3,8.7z"/>
		<path id="Path_3833" class="st23" d="M249.6,106.7V62.5c0-0.8,0.7-1.5,1.5-1.5h168c0.4,0,0.7,0.1,1,0.4l22.7,21.1
			c0.6,0.6,0.6,1.5,0.1,2.1c0,0,0,0,0,0l-22.6,23.6c-0.3,0.3-0.7,0.5-1.1,0.5l-168.1-0.6C250.3,108.2,249.6,107.5,249.6,106.7z"/>
		<g id="Path_3834" transform="translate(-75.194 -50.081)">
			<path class="st24" d="M313.3,61.8v36.5c0,1.6-1.3,2.9-3,2.9l0,0H150.4c-0.7,0-1.5-0.3-2-0.8l-17.9-16.6c-1.2-1.1-1.3-3-0.1-4.2
				c0,0,0,0,0,0l17.8-18.7c0.6-0.6,1.3-0.9,2.1-0.9L312,60.5C312.7,60.5,313.3,61.1,313.3,61.8z"/>
			<path class="st8" d="M150.3,61c-0.5,0-1,0.2-1.4,0.6l-17.8,18.7c-0.4,0.4-0.6,0.9-0.5,1.4c0,0.5,0.2,1,0.6,1.4l17.9,16.6
				c0.4,0.3,0.8,0.5,1.3,0.5h159.9c1.1,0,1.9-0.9,1.9-1.9V61.8c0-0.1-0.1-0.3-0.3-0.3L150.3,61L150.3,61 M150.3,60
				C150.3,60,150.3,60,150.3,60L312,60.5c0.7,0,1.3,0.6,1.3,1.3v36.5c0,1.6-1.3,2.9-2.9,2.9H150.4c-0.7,0-1.5-0.3-2-0.8l-17.9-16.6
				c-1.2-1.1-1.3-3-0.1-4.2l17.8-18.7C148.8,60.4,149.5,60,150.3,60z"/>
		</g>
		<g id="Path_3835" transform="translate(10.227 -26.852)">
			<path class="st24" d="M244,130.6V95.5c0-2.4,1.9-4.3,4.3-4.3c0,0,0,0,0,0h158c1.1,0,2.1,0.4,2.9,1.2l16.5,15.3
				c1.7,1.6,1.8,4.4,0.2,6.1c0,0,0,0,0,0L409.5,131c-0.8,0.9-2,1.3-3.1,1.3l-161.1-0.5C244.6,131.9,244,131.3,244,130.6z"/>
			<path class="st8" d="M406.4,131.3c0.9,0,1.8-0.4,2.4-1l16.4-17.2c0.6-0.6,0.9-1.5,0.9-2.4c0-0.9-0.4-1.7-1.1-2.3L408.6,93
				c-0.6-0.6-1.4-0.9-2.3-0.9h-158c-1.8,0-3.3,1.5-3.3,3.3v35.1c0,0.1,0.1,0.3,0.3,0.3L406.4,131.3L406.4,131.3 M406.4,132.3
				C406.4,132.3,406.4,132.3,406.4,132.3l-161.1-0.5c-0.7,0-1.3-0.6-1.3-1.3V95.5c0-2.4,1.9-4.3,4.3-4.3h158c1.1,0,2.1,0.4,2.9,1.2
				l16.5,15.3c1.8,1.6,1.8,4.4,0.2,6.1L409.5,131C408.7,131.9,407.6,132.3,406.4,132.3z"/>
		</g>
		<path id="Path_3836" class="st17" d="M98.3,174.1c0,0-4.4-0.4-6.7-1.8c-2.3-1.4-4-2.5-4.8-2.9c-1.6-0.9-2.8,1.3-1.5,2.9
			c1.8,1.9,3.7,3.8,5.8,5.4c1.2,1,1.3,6.7,3.9,9.8"/>
		<path id="Path_3837" class="st17" d="M41.8,262c0,0,8.4,1.3,10.3,0.7s9.2-7.1,10.9-8s2.1,1.5,0.9,3.2s-7.2,6.6-7.7,7
			s-1.8,2.3-0.3,1.3s6.7-4.6,7.8-5.8c0.6-0.7,1.5-1.1,2.4-0.8c0,0,0.7,0.5,0,1.7s-1.7,1.9-4.6,4.9c-1.7,1.7-3.6,3.1-5.7,4.3
			c-1.1,0.8-1.7,1.2-1.7,1.2s6.9-3.6,10.1-7.4s2.1,1.1,2.1,1.1s-1.7,5.3-5.5,8.1s-7.2,4.9-7.2,4.9L40,275.1l-6.8-5.7"/>
		<g id="Group_2660" transform="translate(281.828 91.139)">
			<path id="Path_3838" class="st8" d="M-169.5-54.3h-5.8l-1.1,4.3h-4.5l6.6-21.2h3.9l6.7,21.2h-4.6L-169.5-54.3z M-174.4-57.9h4
				l-2-7.6L-174.4-57.9z"/>
			<path id="Path_3839" class="st8" d="M-156-55.8l3.6-15.4h4.8l-6.1,21.2h-4.5l-6.1-21.2h4.8L-156-55.8z"/>
			<path id="Path_3840" class="st8" d="M-148.7-52.1c0-0.6,0.2-1.2,0.7-1.6c0.5-0.4,1.1-0.7,1.7-0.6c0.6,0,1.3,0.2,1.7,0.6
				c0.5,0.4,0.7,1,0.7,1.6c0,0.6-0.2,1.2-0.7,1.6c-0.5,0.4-1.1,0.6-1.7,0.6c-0.6,0-1.2-0.2-1.7-0.6
				C-148.5-50.9-148.7-51.5-148.7-52.1z"/>
			<path id="Path_3841" class="st8" d="M-129-53.5h7.5v3.6h-11.8v-21.2h4.3L-129-53.5z"/>
			<path id="Path_3842" class="st8" d="M-104.9-58.7c0.1,2.4-0.6,4.7-2,6.6c-3,3.1-8,3.2-11.1,0.1c0,0-0.1-0.1-0.1-0.1
				c-1.5-1.9-2.2-4.2-2.1-6.6v-3.6c-0.1-2.4,0.6-4.9,2-6.8c2.9-3.1,7.7-3.3,10.8-0.4c0.1,0.1,0.3,0.2,0.4,0.4
				c1.5,1.9,2.2,4.3,2.1,6.8L-104.9-58.7z M-109.2-62.2c0.1-1.5-0.2-2.9-0.8-4.3c-0.9-1.4-2.8-1.8-4.2-0.9c-0.4,0.2-0.7,0.5-0.9,0.9
				c-0.6,1.3-0.9,2.7-0.8,4.1v3.8c-0.1,1.4,0.2,2.8,0.8,4.1c0.5,0.9,1.5,1.4,2.6,1.3c1,0.1,2-0.4,2.5-1.3c0.6-1.2,0.9-2.6,0.8-4
				L-109.2-62.2z"/>
			<path id="Path_3843" class="st8" d="M-87.4-52.4c-0.8,0.9-1.9,1.6-3,2c-1.3,0.5-2.6,0.7-3.9,0.7c-2.1,0.1-4.2-0.7-5.7-2.3
				c-1.4-1.5-2-3.7-2.1-6.6v-3.8c0-2.9,0.6-5.2,1.9-6.8c1.4-1.6,3.5-2.5,5.6-2.4c1.9-0.1,3.8,0.5,5.2,1.7c1.3,1.5,2,3.4,2,5.3h-4.2
				c0-1-0.3-1.9-0.8-2.8c-0.6-0.5-1.3-0.8-2.1-0.7c-1-0.1-2,0.4-2.5,1.3c-0.6,1.3-0.9,2.6-0.8,4v3.8c-0.1,1.5,0.2,2.9,0.9,4.2
				c0.6,0.9,1.7,1.4,2.9,1.3c0.7,0,1.4-0.1,2.1-0.5l0.4-0.3v-3.9h-3v-3.2h7.3L-87.4-52.4z"/>
			<path id="Path_3844" class="st8" d="M-79.9-50h-4.3v-21.2h4.3V-50z"/>
			<path id="Path_3845" class="st8" d="M-61.5-50h-4.3L-72-63.9V-50h-4.3v-21.2h4.3l6.3,13.9v-13.9h4.3L-61.5-50z"/>
		</g>
		<g id="Group_2661" transform="translate(450.351 143.707)">
			<path id="Path_3846" class="st8" d="M-171.2-55.2c0.1-0.7-0.2-1.5-0.7-2c-0.7-0.6-1.6-1.1-2.5-1.4c-1.8-0.6-3.4-1.6-4.7-2.9
				c-0.9-1.1-1.5-2.5-1.4-3.9c-0.1-1.7,0.7-3.3,2-4.4c1.4-1.1,3.2-1.7,5-1.7c1.2,0,2.5,0.3,3.6,0.8c1,0.5,1.9,1.4,2.4,2.4
				c0.6,1.1,0.9,2.3,0.8,3.5h-4.4c0.1-0.8-0.2-1.6-0.6-2.3c-0.5-0.5-1.2-0.8-1.9-0.8c-0.7,0-1.3,0.2-1.8,0.7
				c-0.4,0.5-0.7,1.2-0.6,1.8c0,0.6,0.3,1.2,0.7,1.6c0.7,0.6,1.6,1.2,2.5,1.5c1.8,0.5,3.3,1.5,4.6,2.8c1,1.2,1.5,2.7,1.4,4.3
				c0.1,1.7-0.6,3.3-1.8,4.4c-1.4,1.1-3.1,1.7-4.9,1.6c-1.3,0-2.6-0.3-3.8-0.9c-1.1-0.6-2.1-1.4-2.7-2.5c-0.7-1.2-1-2.5-1-3.8h4.4
				c-0.1,1,0.2,1.9,0.7,2.7c0.6,0.6,1.5,0.9,2.4,0.9C-172-52.7-171.2-53.5-171.2-55.2z"/>
			<path id="Path_3847" class="st8" d="M-149.8-67.5h-5.4v18.1h-4.4v-18.1h-5.3v-3.7h15.1V-67.5z"/>
			<path id="Path_3848" class="st8" d="M-151-51.6c0-0.6,0.2-1.2,0.7-1.7c0.5-0.4,1.1-0.7,1.8-0.7c0.6,0,1.3,0.2,1.8,0.6
				c0.5,0.4,0.7,1,0.7,1.7c0,0.6-0.2,1.3-0.7,1.7c-0.5,0.4-1.1,0.7-1.8,0.6c-0.6,0-1.3-0.2-1.8-0.6C-150.7-50.4-151-51-151-51.6z"/>
			<path id="Path_3849" class="st8" d="M-135.2-49.4v-21.8h5.8c2.3-0.1,4.5,0.8,6.1,2.4c1.6,1.8,2.4,4.2,2.3,6.6v3.5
				c0.1,2.5-0.7,4.9-2.3,6.7c-1.6,1.7-3.9,2.6-6.2,2.4L-135.2-49.4z M-130.8-67.5v14.4h1.3c1.2,0.1,2.3-0.3,3.1-1.2
				c0.7-1.2,1-2.6,0.9-4V-62c0.1-1.5-0.2-2.9-0.9-4.3c-0.7-0.9-1.8-1.3-2.9-1.3L-130.8-67.5z"/>
			<path id="Path_3850" class="st8" d="M-106.6-58.9h-6.8v5.8h8.1v3.6h-12.5v-21.8h12.5v3.7h-8.1v5.1h6.8L-106.6-58.9z"/>
			<path id="Path_3851" class="st8" d="M-95.8-55.4l3.7-15.8h4.9l-6.3,21.8h-4.6l-6.2-21.8h4.9L-95.8-55.4z"/>
			<path id="Path_3852" class="st8" d="M-80.6-49.4H-85v-21.8h4.4V-49.4z"/>
			<path id="Path_3853" class="st8" d="M-62.1-56.7c0,2.1-0.7,4.1-2.1,5.6c-1.5,1.3-3.4,2-5.4,1.9c-2.2,0.1-4.3-0.8-5.7-2.4
				c-1.3-1.6-2-3.9-2-6.9v-3.7c0-3,0.7-5.3,2-6.9c3-3.1,7.8-3.3,11-0.4c1.3,1.6,2.1,3.6,2.1,5.7h-4.4c0.1-1.1-0.2-2.2-0.7-3.2
				c-0.6-0.7-1.5-1-2.4-0.9c-1-0.1-2,0.4-2.5,1.2c-0.6,1.3-0.9,2.7-0.8,4.1v4.1c-0.1,1.5,0.1,3,0.7,4.5c0.5,0.8,1.5,1.3,2.5,1.2
				c0.9,0.1,1.8-0.2,2.4-0.8c0.5-0.9,0.8-2,0.7-3.1L-62.1-56.7z"/>
			<path id="Path_3854" class="st8" d="M-48.2-58.9H-55v5.8h8.1v3.6h-12.5v-21.8H-47v3.7H-55v5.1h6.8L-48.2-58.9z"/>
		</g>
	</g>
</g>
</svg>
