<svg xmlns="http://www.w3.org/2000/svg" width="709.447" height="377.771" viewBox="0 0 709.447 377.771">
  <g id="Group_3060" data-name="Group 3060" transform="translate(-577.891 -267.23)">
    <g id="Group_2640" data-name="Group 2640" transform="translate(0 25)">
      <g id="Group_2634" data-name="Group 2634" transform="translate(-164.023 119.429)">
        <g id="Group_2611" data-name="Group 2611" transform="translate(1382.901 311.821)">
          <rect id="Rectangle_3031" data-name="Rectangle 3031" width="24.938" height="15.075" fill="#a0c8f8"/>
          <rect id="Rectangle_3032" data-name="Rectangle 3032" width="17.758" height="15.075" transform="translate(13.991)" fill="#d2e5fe"/>
        </g>
        <g id="Group_2615" data-name="Group 2615" transform="translate(1303.257 324.171)">
          <rect id="Rectangle_3033" data-name="Rectangle 3033" width="3.622" height="144.761" transform="translate(109.654 4.637)" fill="#323d65"/>
          <rect id="Rectangle_3034" data-name="Rectangle 3034" width="3.622" height="144.761" transform="translate(49.592 4.637)" fill="#323d65"/>
          <g id="Group_2612" data-name="Group 2612">
            <rect id="Rectangle_3035" data-name="Rectangle 3035" width="120.699" height="9.275" fill="#a0c8f8"/>
            <rect id="Rectangle_3036" data-name="Rectangle 3036" width="38.513" height="9.275" fill="#9eb3ff"/>
          </g>
          <g id="Group_2613" data-name="Group 2613" transform="translate(51.402 17.519)">
            <line id="Line_71" data-name="Line 71" x2="60.063" y2="21.783" fill="none" stroke="#323d65" stroke-miterlimit="10" stroke-width="1"/>
            <line id="Line_72" data-name="Line 72" x2="60.063" y2="21.783" transform="translate(0 29.455)" fill="none" stroke="#323d65" stroke-miterlimit="10" stroke-width="1"/>
            <line id="Line_73" data-name="Line 73" x2="60.063" y2="21.783" transform="translate(0 58.909)" fill="none" stroke="#323d65" stroke-miterlimit="10" stroke-width="1"/>
          </g>
          <g id="Group_2614" data-name="Group 2614" transform="translate(51.402 17.519)">
            <line id="Line_74" data-name="Line 74" x1="60.063" y2="21.783" fill="none" stroke="#323d65" stroke-miterlimit="10" stroke-width="1"/>
            <line id="Line_75" data-name="Line 75" x1="60.063" y2="21.783" transform="translate(0 29.455)" fill="none" stroke="#323d65" stroke-miterlimit="10" stroke-width="1"/>
            <line id="Line_76" data-name="Line 76" x1="60.063" y2="21.783" transform="translate(0 58.909)" fill="none" stroke="#323d65" stroke-miterlimit="10" stroke-width="1"/>
          </g>
        </g>
        <g id="Group_2616" data-name="Group 2616" transform="translate(1303.257 427.321)">
          <path id="Path_3709" data-name="Path 3709" d="M0,0H76.505V46.248H0Z" fill="#003267"/>
          <rect id="Rectangle_3038" data-name="Rectangle 3038" width="54.479" height="46.248" transform="translate(42.923)" fill="#d2e5fe"/>
        </g>
        <g id="Group_2617" data-name="Group 2617" transform="translate(1372.854 447.165)">
          <rect id="Rectangle_3039" data-name="Rectangle 3039" width="43.679" height="26.405" fill="#003267"/>
          <rect id="Rectangle_3040" data-name="Rectangle 3040" width="31.103" height="26.405" transform="translate(24.506)" fill="#d2e5fe"/>
        </g>
        <path id="Path_3610" data-name="Path 3610" d="M843.928,322.349a22.713,22.713,0,0,1,45.419,0h28.991v-6.875a4.29,4.29,0,0,0-4.291-4.291h-6.919a41.789,41.789,0,0,0-4.058-9.533l4.97-4.97a4.292,4.292,0,0,0,0-6.067l-9.69-9.69a4.292,4.292,0,0,0-6.067,0l-5.089,5.089a41.92,41.92,0,0,0-9.414-3.858v-9.132a2.4,2.4,0,0,0-2.4-2.4H857.891a2.4,2.4,0,0,0-2.4,2.4v9.132a41.915,41.915,0,0,0-9.414,3.858l-6.43-6.43a2.4,2.4,0,0,0-3.387,0l-12.37,12.37a2.4,2.4,0,0,0,0,3.39l6.31,6.308a41.8,41.8,0,0,0-4.058,9.533h-8.813a2.4,2.4,0,0,0-2.4,2.4v8.77Z" transform="translate(12.166 149.153)" fill="#013369"/>
        <path id="Path_3611" data-name="Path 3611" d="M881.418,266.821h-3.886a23.513,23.513,0,0,0-2.28-5.355l2.792-2.792a2.411,2.411,0,0,0,0-3.407l-5.441-5.442a2.411,2.411,0,0,0-3.407,0l-2.86,2.858a23.549,23.549,0,0,0-5.287-2.166v-5.13a1.344,1.344,0,0,0-1.345-1.345h-9.824a1.346,1.346,0,0,0-1.345,1.345v5.13a23.6,23.6,0,0,0-5.287,2.166l-3.61-3.61a1.347,1.347,0,0,0-1.9,0l-6.946,6.946a1.342,1.342,0,0,0,0,1.9l3.542,3.544a23.5,23.5,0,0,0-2.277,5.355H827.1a1.344,1.344,0,0,0-1.345,1.345v9.824a1.346,1.346,0,0,0,1.345,1.345h4.808a23.568,23.568,0,0,0,2.237,5.538l-3.359,3.359a1.342,1.342,0,0,0,0,1.9l6.946,6.946a1.342,1.342,0,0,0,1.9,0l3.293-3.291a23.484,23.484,0,0,0,5.6,2.348V299.7a2.408,2.408,0,0,0,2.409,2.409h7.7a2.407,2.407,0,0,0,2.409-2.409v-3.564a23.454,23.454,0,0,0,5.606-2.348l2.541,2.541a2.411,2.411,0,0,0,3.407,0l5.441-5.444a2.411,2.411,0,0,0,0-3.407l-2.609-2.607a23.449,23.449,0,0,0,2.239-5.538h3.744a2.41,2.41,0,0,0,2.409-2.409v-7.7A2.408,2.408,0,0,0,881.418,266.821Zm-26.627,19.273a12.767,12.767,0,1,1,12.765-12.765A12.765,12.765,0,0,1,854.791,286.095Z" transform="translate(28.756 108.394)" fill="#013369"/>
        <g id="Group_2618" data-name="Group 2618" transform="translate(883.822 203.762)">
          <rect id="Rectangle_3041" data-name="Rectangle 3041" width="442.503" height="266.807" rx="3.333" transform="translate(0 3)" fill="#fff" stroke="#003267" stroke-width="4"/>
        </g>
        <path id="Path_3613" data-name="Path 3613" d="M1272.016,203.762H846.926a9.706,9.706,0,0,0-9.708,9.7v40.278h444.5V213.467A9.7,9.7,0,0,0,1272.016,203.762Z" transform="translate(46.604)" fill="#003268"/>
        <g id="Group_2626" data-name="Group 2626" transform="translate(952.914 434.163)">
          <g id="Group_2625" data-name="Group 2625" transform="translate(-209)">
            <g id="Group_2624" data-name="Group 2624">
              <g id="Group_2620" data-name="Group 2620" transform="translate(5.459)">
                <g id="Rectangle_3042" data-name="Rectangle 3042" fill="#a0c8f8" stroke="#003268" stroke-linecap="round" stroke-linejoin="round" stroke-width="2">
                  <rect width="4.004" height="52.409" stroke="none"/>
                  <rect x="-1" y="-1" width="6.004" height="54.409" fill="none"/>
                </g>
                <g id="Rectangle_3043" data-name="Rectangle 3043" transform="translate(61.507)" fill="#a0c8f8" stroke="#003268" stroke-linecap="round" stroke-linejoin="round" stroke-width="2">
                  <rect width="4.004" height="52.409" stroke="none"/>
                  <rect x="-1" y="-1" width="6.004" height="54.409" fill="none"/>
                </g>
              </g>
              <g id="Group_2623" data-name="Group 2623" transform="translate(0 2.644)">
                <g id="Group_2621" data-name="Group 2621">
                  <g id="Rectangle_3044" data-name="Rectangle 3044" fill="#ffb800" stroke="#003268" stroke-linecap="round" stroke-linejoin="round" stroke-width="2">
                    <rect width="76.429" height="20.189" stroke="none"/>
                    <rect x="-1" y="-1" width="78.429" height="22.189" fill="none"/>
                  </g>
                </g>
                <g id="Group_2622" data-name="Group 2622" transform="translate(3.97)">
                  <path id="Path_3614" data-name="Path 3614" d="M875.882,279.141H863.508l-9.914,20.189h12.374Z" transform="translate(-831.029 -279.141)" fill="#664756"/>
                  <path id="Path_3615" data-name="Path 3615" d="M883.181,279.141H870.807l-9.914,20.189h12.374Z" transform="translate(-815.763 -279.141)" fill="#664756"/>
                  <path id="Path_3616" data-name="Path 3616" d="M846.3,299.33h12.374l9.914-20.189H856.209Z" transform="translate(-846.295 -279.141)" fill="#664756"/>
                </g>
              </g>
            </g>
          </g>
        </g>
        <g id="Group_2629" data-name="Group 2629" transform="translate(1414.649 444.544)">
          <path id="Path_3617" data-name="Path 3617" d="M906.172,322.849,892.13,282.639a1.485,1.485,0,0,0-2.8,0l-14.042,40.209Z" transform="translate(-872.269 -281.644)" fill="#ffb800" stroke="#003268" stroke-width="1"/>
          <g id="Group_2627" data-name="Group 2627" transform="translate(3.015 5.261)">
            <path id="Path_3618" data-name="Path 3618" d="M879.2,293.708l-2.925,8.378a115.237,115.237,0,0,0,21.855-8.236l-2.266-6.492A115.84,115.84,0,0,1,879.2,293.708Z" transform="translate(-873.201 -274.955)" fill="#664756"/>
            <path id="Path_3619" data-name="Path 3619" d="M902.224,291.315a114.371,114.371,0,0,1-26.44,9.878l-.5,1.428h19.072c4.214-1.818,7.683-3.592,10.1-4.913Z" transform="translate(-875.284 -266.678)" fill="#664756"/>
            <path id="Path_3620" data-name="Path 3620" d="M881.08,285.94l-3,8.588a117.045,117.045,0,0,0,11.986-4.6l-2.3-6.582C885.7,284.224,883.454,285.1,881.08,285.94Z" transform="translate(-869.434 -283.346)" fill="#664756"/>
          </g>
          <g id="Group_2628" data-name="Group 2628" transform="translate(0 40.116)">
            <rect id="Rectangle_3045" data-name="Rectangle 3045" width="36.213" height="1.912" fill="#ff9c00" stroke="#003268" stroke-width="1"/>
            <path id="Path_3621" data-name="Path 3621" d="M891.582,294.62H878.733a.956.956,0,0,0-.955.955h0a.956.956,0,0,0,.955.955h12.849a.954.954,0,0,0,.955-.955h0A.954.954,0,0,0,891.582,294.62Z" transform="translate(-867.052 -294.62)" fill="#ed8300" stroke="#003268" stroke-width="1"/>
          </g>
        </g>
        <path id="Path_3627" data-name="Path 3627" d="M975.632,225.5H852.74a7.728,7.728,0,0,1-7.729-7.729h0a7.73,7.73,0,0,1,7.729-7.729H975.632a7.73,7.73,0,0,1,7.729,7.729h0A7.728,7.728,0,0,1,975.632,225.5Z" transform="translate(62.903 13.136)" fill="#f6fcff"/>
        <circle id="Ellipse_335" data-name="Ellipse 335" cx="7.729" cy="7.729" r="7.729" transform="translate(1232.574 223.178)" fill="#f6fcff"/>
        <circle id="Ellipse_336" data-name="Ellipse 336" cx="7.729" cy="7.729" r="7.729" transform="translate(1261.765 223.178)" fill="#f6fcff"/>
        <circle id="Ellipse_337" data-name="Ellipse 337" cx="7.729" cy="7.729" r="7.729" transform="translate(1288.956 223.178)" fill="#f6fcff"/>
        <rect id="Rectangle_3050" data-name="Rectangle 3050" width="135.291" height="110.878" rx="1.963" transform="translate(930.504 275.634)" fill="#e8f0f4"/>
        <rect id="Rectangle_3051" data-name="Rectangle 3051" width="135.291" height="20.826" rx="1.963" transform="translate(930.504 401.556)" fill="#e8f0f4"/>
      </g>
      <g id="Group_2635" data-name="Group 2635" transform="translate(274.637 18.931)">
        <path id="Path_3629" data-name="Path 3629" d="M640.325,590.1V574.3c.653-.295.57-1.006.811-1.516,1.475-3.134,3.815-5.291,7.256-5.767,2.078-.288,2.5-1.057,2.5-3.084q-.112-62.607-.056-125.218c0-3.529.53-4.3,3.453-5.1,2.36.47,3.332,1.9,3.283,4.3-.078,3.816.027,7.636.055,11.455l.013,8.92-.013,31.586.013,9.039-.013,31.592.013,9.037c-.031,7.13-.074,14.26-.092,21.389-.015,6.069,0,6.069,6.25,5.642l8.585.016,32.046-.016c3.831.031,7.671-.083,11.491.148,2.227.136,2.658-.561,2.654-2.7q-.095-94.289-.051-188.579c0-5.805,0-5.805-5.961-5.25a42.9,42.9,0,0,0-7.683,0,54.144,54.144,0,0,0-8.565-.018c-10.689-.2-21.376-.23-32.066.018-6.831-.718-6.831-.718-6.7,5.946.005.295.062.588.094.883l-.013,31.713.013,8.916a17.761,17.761,0,0,0-.071,2.87c.342,2.552-1.118,3.531-3.261,4-2.8-.65-3.483-1.509-3.483-4.591q-.006-24.6.013-49.206c0-5.575,1.824-7.378,7.461-7.378q44.692-.005,89.385-.005,36.565,0,73.133.007c3.3,0,4.016.5,4.747,3.248-.277,2.416-1.735,3.427-4.057,3.451-1.1.011-2.2.081-3.3.125q-11.577-.062-23.152-.134c-.881-.007-1.374.145-1.368,1.2.051,7.794.053,15.586.069,23.378a55.529,55.529,0,0,0-.013,9.048c-.324,10.541-.259,21.085-.154,31.628q-.008,4.517-.014,9.032-.043,15.762-.089,31.523,0,4.53-.005,9.06-.025,16.018-.049,32.037,0,4.294,0,8.588-.025,16.023-.047,32.046c-.038,2.6-.081,5.208-.109,7.812-.007.661-.123,1.455,1,1.187l32.046-.016,8.585.016,13.085,0a35.4,35.4,0,0,1,3.824.107c1.947.253,2.492-.369,2.486-2.409-.08-27.222-.047-54.441-.056-81.663q-.011-28.536-.058-57.071-.005-4.422-.015-8.842.033-20.646.073-41.291c.014-5.789.036-5.789-5.795-5.214l-8.9-.148c-3.018-.049-3.724-.568-4.647-3.424.528-2.479,2.086-3.366,4.569-3.31,4.888.11,9.781.02,14.67.036,4.792.014,6.826,2.05,6.83,6.891q.019,23.36,0,46.72-.005,73.8-.056,147.608c0,1.627.434,2.059,2.018,2.322,4.3.713,7.157,3.161,8.114,7.591.9,4.169.264,8.375.394,12.56.119,3.863-1.042,4.965-4.824,4.967q-62.745,0-125.489.043c-2.6.005-4.37-.688-5.137-3.268.563-3.015,1.426-3.576,5.6-3.576q51.457,0,102.913,0c6.093,0,12.187-.038,18.28.027,1.441.016,2.09-.369,1.954-1.891-.1-1.118-.02-2.255-.02-3.382,0-6.236-.324-6.56-6.663-6.56q-81.7,0-163.4,0-21.666,0-43.332.007c-3.071,0-4.213,1.162-4.242,4.215-.014,1.73.118,3.469-.025,5.188-.154,1.837.416,2.454,2.347,2.43,8.123-.1,16.248-.034,24.373-.033q24.147,0,48.3,0c3.159,0,4.211.854,4.627,3.653a4.632,4.632,0,0,1-1.142,2.526,7.4,7.4,0,0,1-3.941.628q-38.091-.005-76.182.031C643.383,592.071,641.662,591.711,640.325,590.1ZM786.333,533.5a25,25,0,0,0-.007-7.644c.011-.226.031-.451.031-.675q-.016-76.489,0-152.975c0-1.766-.61-2.085-2.211-2.083q-27.863.038-55.728-.04c-3.044,0-3.049,0-3.049,3.011q0,95.552-.04,191.105c0,1.891.324,2.548,2.414,2.535q27.977-.157,55.956-.029c2.226.009,2.743-.641,2.72-2.749C786.31,553.8,786.348,543.648,786.333,533.5Z" transform="translate(0)" fill="#003268"/>
        <path id="Path_3630" data-name="Path 3630" d="M748.3,530.476c.014,10.152-.023,20.305.087,30.457.024,2.108-.494,2.758-2.72,2.749q-27.977-.136-55.956.029c-2.09.013-2.416-.644-2.414-2.535q.073-95.552.04-191.1c0-3.011.005-3.015,3.049-3.011q27.863.033,55.728.04c1.6,0,2.213.317,2.211,2.083q-.052,76.486,0,152.975c0,.224-.02.449-.031.675-3.368,2.179-6.393,4.558-5.5,9.269.1.55-.221,1.281.583,1.527.762.233,1-.452,1.4-.876A6.841,6.841,0,0,1,748.3,530.476Zm-30.43-128.957q-8.455,0-16.914,0c-2.662.005-4.22,1.216-4.265,3.268-.045,2.117,1.6,3.46,4.352,3.462q16.913.008,33.828-.022c2.591,0,4.189-1.361,4.158-3.416s-1.583-3.284-4.245-3.29Q726.329,401.505,717.873,401.519Zm-.013,132.657v-.015c-5.716,0-11.433-.014-17.149.007-2.485.009-4,1.274-4.034,3.261s1.478,3.406,3.929,3.415q17.261.065,34.523.025c2.414-.005,3.95-1.459,3.918-3.442s-1.542-3.239-4.037-3.246C729.293,534.164,723.577,534.176,717.86,534.176Zm.011-149.253c5.711,0,11.422.014,17.133-.007,2.476-.011,4-1.283,4.026-3.268s-1.518-3.415-3.93-3.42q-17.245-.035-34.491.025c-2.436.009-3.954,1.421-3.914,3.417s1.536,3.235,4.043,3.246C706.449,384.938,712.16,384.923,717.871,384.923Zm-.009,137.6q-8.456,0-16.912,0c-2.664.005-4.218,1.223-4.256,3.282s1.556,3.445,4.138,3.449q17.027.022,34.053-.015c2.582-.005,4.186-1.375,4.148-3.431s-1.6-3.281-4.256-3.286Q726.318,522.508,717.862,522.521Zm.009-125.942q8.344,0,16.686,0c2.85,0,4.443-1.189,4.475-3.3s-1.6-3.418-4.381-3.42q-16.8-.016-33.6,0c-2.78,0-4.406,1.312-4.359,3.438.047,2.067,1.594,3.275,4.265,3.281C706.6,396.588,712.232,396.579,717.871,396.579ZM717.8,552.437q8.453,0,16.907-.005a4.5,4.5,0,0,0,2.62-.451,3.154,3.154,0,0,0,1.58-3.648c-.536-1.982-2.065-2.611-3.974-2.611-11.346.005-22.69-.011-34.037.014-2.666.005-4.2,1.3-4.207,3.368-.006,2.043,1.56,3.315,4.205,3.326C706.534,552.451,712.169,552.435,717.8,552.437Zm20.8-88.6c0-1.73.047-3.46-.013-5.186-.08-2.251-1.486-3.664-3.474-3.6a3.308,3.308,0,0,0-3.252,3.583q-.081,5.073.016,10.146a3.392,3.392,0,0,0,3.33,3.545,3.448,3.448,0,0,0,3.371-3.527C738.658,467.142,738.594,465.484,738.6,463.832Z" transform="translate(38.03 3.021)" fill="#d8e6eb"/>
        <path id="Path_3631" data-name="Path 3631" d="M732.989,494.811h-5.821a10.259,10.259,0,0,0-3.471.08c-.416-2.8-1.467-3.652-4.627-3.653q-24.147-.011-48.3,0c-8.125,0-16.25-.071-24.373.033-1.931.024-2.5-.594-2.347-2.43.143-1.719.011-3.458.025-5.188.029-3.053,1.171-4.213,4.242-4.215q21.666-.019,43.332-.007,81.7,0,163.4,0c6.339,0,6.661.324,6.663,6.56,0,1.128-.081,2.264.02,3.382.136,1.522-.514,1.907-1.954,1.891-6.093-.065-12.187-.027-18.28-.027q-51.457,0-102.913,0C734.415,491.235,733.552,491.8,732.989,494.811Z" transform="translate(2.999 93.99)" fill="#e8f0f4"/>
        <path id="Path_3632" data-name="Path 3632" d="M649.9,536.576q-.005-4.517-.013-9.037c1.057.11,1.627-.644,2.26-1.278q25.694-25.692,51.407-51.371a4.089,4.089,0,0,0,1.286-3.183c-.045-9.328-.018-18.657-.042-27.987,0-.53.326-1.2-.8-1.909a14.589,14.589,0,0,1-1.412,1.933Q677.312,469.062,652,494.339c-.621.621-1.1,1.469-2.1,1.609q-.005-4.519-.013-9.039c1.156.114,1.737-.758,2.414-1.435q25.512-25.5,51.039-50.989a4.8,4.8,0,0,0,1.506-3.769c-.06-9.093-.024-18.186-.043-27.279,0-.63.241-1.321-.284-2.01-1.223.632-1.8,2.054-3.12,2.49-.947-2.457-3.093-2.367-5.165-2.432.186-1.214,1.325-1.69,1.974-2.544.724-.954,2.112-1.448,2.041-2.951l.374-.311a5.843,5.843,0,0,0,4.191-5.548q.008-11.449.007-22.9c5.961-.556,5.961-.556,5.961,5.25q0,94.289.051,188.579c0,2.135-.427,2.832-2.655,2.7-3.82-.232-7.66-.118-11.491-.148.016-.859.682-1.3,1.2-1.819,1.844-1.864,3.659-3.76,5.575-5.546a4.14,4.14,0,0,0,1.379-3.357c-.051-9.289-.02-18.577-.042-27.868,0-.536.29-1.18-.326-1.667-1.095.483-1.535,1.931-2.9,1.951a4.086,4.086,0,0,0-4.433-2.81c1.335-2.606,3.753-4.24,5.734-6.247a6.048,6.048,0,0,0,1.992-4.716c-.109-8.872-.04-17.747-.061-26.621a3.4,3.4,0,0,0-.3-2.266c-.375.315-.726.57-1.028.872q-18.672,18.658-37.332,37.326c-.47.472-1.049.888-1.049,1.663-.516.022-1.03.06-1.545.065-3.811.04-5.087,1.844-3.805,5.393-1.124.036-1.618.988-2.334,1.614C654.831,531.83,652.878,534.754,649.9,536.576Z" transform="translate(7.74 2.973)" fill="#d8e6eb"/>
        <path id="Path_3633" data-name="Path 3633" d="M701.4,388.514c1.321-.436,1.9-1.858,3.12-2.49.525.689.284,1.381.284,2.01.02,9.093-.016,18.186.043,27.279a4.8,4.8,0,0,1-1.506,3.769q-25.556,25.458-51.039,50.989c-.677.677-1.258,1.549-2.414,1.435q.008-15.792.013-31.586c.843-.081,1.263-.769,1.781-1.287q21.84-21.821,43.66-43.66c.57-.57,1.33-1.035,1.354-1.987C700.577,392.663,701.536,391.751,701.4,388.514Z" transform="translate(7.74 18.375)" fill="#d8e6eb"/>
        <path id="Path_3634" data-name="Path 3634" d="M724.93,486.3q.025-16.017.049-32.037c1.093-.137,1.6-1.068,2.271-1.737q25.037-25,50.057-50.021c.512-.512,1-1.513,1.715-1.252.943.344.45,1.459.452,2.22.034,9.015-.011,18.029.047,27.044a3.623,3.623,0,0,1-2.685,3.869c-.027-1.2-.009-2.4-.094-3.6a3.362,3.362,0,0,0-3.464-3.393,3.262,3.262,0,0,0-3.227,3.377c-.049,3.905.042,7.812.074,11.717-1.133.016-1.676.928-2.349,1.6Q747.5,464.34,727.225,484.605C726.555,485.273,726.048,486.217,724.93,486.3Z" transform="translate(68.495 30.667)" fill="#d8e6eb"/>
        <path id="Path_3635" data-name="Path 3635" d="M649.9,462.478c1-.139,1.48-.988,2.1-1.609q25.312-25.279,50.587-50.594A14.593,14.593,0,0,0,704,408.342c1.126.713.8,1.379.8,1.909.023,9.33,0,18.659.042,27.987a4.089,4.089,0,0,1-1.286,3.183q-25.73,25.659-51.407,51.371c-.633.633-1.2,1.388-2.26,1.278Q649.893,478.274,649.9,462.478Zm43.631-32.25c0,1.728-.054,3.456.013,5.183a3.34,3.34,0,1,0,6.677.132q.149-5.293,0-10.59a3.338,3.338,0,1,0-6.675.092C693.478,426.769,693.53,428.5,693.529,430.227Z" transform="translate(7.74 36.443)" fill="#d8e6eb"/>
        <path id="Path_3636" data-name="Path 3636" d="M776.814,438.524a3.623,3.623,0,0,0,2.685-3.869c-.058-9.015-.013-18.029-.047-27.044,0-.762.49-1.877-.452-2.22-.715-.261-1.2.74-1.715,1.252q-25.035,25-50.057,50.021c-.671.669-1.178,1.6-2.271,1.737q0-4.53.006-9.061c1.366.154,1.969-.954,2.736-1.719q24.964-24.932,49.912-49.878c.668-.666,1.18-1.611,2.313-1.65v7.1c2.43-1.2,3.263-3.768,5.74-4.157q.03,28.533.058,57.071c.009,27.222-.023,54.441.056,81.663.005,2.039-.539,2.662-2.486,2.409a35.379,35.379,0,0,0-3.824-.107c0-3.751.016-7.5-.005-11.256,0-.554.295-1.339-.456-1.571-.539-.167-.89.454-1.252.814q-5.263,5.244-10.51,10.5a2.1,2.1,0,0,0-.861,1.515l-8.585-.016c.033-.946.794-1.4,1.357-1.972,2.26-2.287,4.544-4.551,6.815-6.828.626-.63,1.381-1.189,1.343-2.222,1.556-.034,3.113-.129,4.667-.087,1.846.049,3.462-.308,4.16-2.237.657-1.817-.232-3.138-1.625-4.216,1.308-1.236,2.595-2.5,3.934-3.7a3.169,3.169,0,0,0,1.042-2.6c-.027-9.323-.011-18.648-.029-27.971,0-.556.306-1.359-.425-1.592-.646-.206-1.008.527-1.417.932q-4.88,4.848-9.734,9.725c-.472.472-1.05.888-1.05,1.663l-8.59-.014c.085-1.024.937-1.507,1.556-2.128q9.158-9.2,18.362-18.346A4.06,4.06,0,0,0,779.5,475.3c-.049-9.1-.02-18.208-.036-27.312,0-.646.335-1.522-.3-1.9-.755-.449-1.109.5-1.594.887a1.738,1.738,0,0,1-1.428.508C777.326,444.57,776.414,441.5,776.814,438.524Z" transform="translate(68.517 26.526)" fill="#cad7dc"/>
        <path id="Path_3637" data-name="Path 3637" d="M779.921,410.135c-1.133.04-1.645.984-2.313,1.65q-24.964,24.932-49.912,49.878c-.767.765-1.37,1.873-2.736,1.719q.043-15.762.089-31.523a10.743,10.743,0,0,0,1.435-1.039q15.157-15.122,30.285-30.271c.474-.474,1.031-.9,1.033-1.672,4.861-.034,9.723-.053,14.583-.114,2.479-.033,3.927-1.3,3.941-3.342s-1.446-3.319-3.889-3.36c-2.168-.038-4.338-.051-6.505-.074.038-.926.84-1.321,1.33-1.934.76-.954,2.03-1.5,2.28-2.859.823-.027,1.645-.069,2.466-.076,3.735-.034,5.025-1.839,3.809-5.335.532-.626,1.031-1.281,1.605-1.864.461-.471.91-1.345,1.556-1.14.912.289.47,1.307.474,1.994.029,8.641.007,17.283.034,25.926,0,.854-.36,1.824.485,2.537Z" transform="translate(68.519 12.484)" fill="#d8e6eb"/>
        <path id="Path_3638" data-name="Path 3638" d="M776.189,425.17a1.738,1.738,0,0,0,1.428-.508c.485-.387.84-1.335,1.594-.887.63.376.293,1.252.3,1.9.016,9.1-.013,18.208.036,27.312a4.061,4.061,0,0,1-1.336,3.163q-9.221,9.131-18.362,18.346c-.619.621-1.471,1.1-1.556,2.128q-10.008.041-20.018.081c-2.635.013-4.191,1.258-4.2,3.326s1.578,3.364,4.177,3.393c3.972.043,7.944.06,11.918.089-.5,2.125-2.971,2.732-3.625,4.736-3.058.042-6.118.062-9.176.13a3.052,3.052,0,0,0-3.234,3.051,3.1,3.1,0,0,0,2.763,3.494c.51.1,1.028.154,1.544.228A75.372,75.372,0,0,1,724.9,508.757q.024-16.023.047-32.046c.858-.029,1.3-.7,1.817-1.218q23.743-23.732,47.473-47.473c.57-.57,1.323-1.062,1.126-2.063Z" transform="translate(68.475 48.842)" fill="#d8e6eb"/>
        <path id="Path_3639" data-name="Path 3639" d="M648.041,413.157l.016-9.08c2.143-.472,3.6-1.451,3.261-4a17.769,17.769,0,0,1,.071-2.87c.921-.107,1.348-.892,1.936-1.44,2.519-2.342,4.716-5.018,7.426-7.162a4.471,4.471,0,0,0,4.314,2.22c8.179-.031,16.359.034,24.538.065.006.865-.653,1.312-1.174,1.831q-17.4,17.415-34.811,34.824a3.612,3.612,0,0,1-2.24,1.373c-.027-3.818-.132-7.638-.054-11.455C651.372,415.053,650.4,413.628,648.041,413.157Z" transform="translate(6.247 20.461)" fill="#d8e6eb"/>
        <path id="Path_3640" data-name="Path 3640" d="M656.507,367.208c10.689-.248,21.377-.215,32.066-.018.018.948-.709,1.43-1.274,2-2.305,2.322-4.629,4.624-6.931,6.947-.563.566-1.306,1.039-1.279,1.992-5.311.049-10.622.08-15.932.156-2.541.038-3.934,1.247-3.952,3.31s1.383,3.3,3.884,3.348c2.468.049,4.936.065,7.4.094.143,1.037-.651,1.54-1.212,2.2-.695.809-1.8,1.312-1.938,2.546-1.341.033-2.68.072-4.021.1-3.8.072-5.125,2.485-3.2,5.831a2.144,2.144,0,0,1-.847,1.52q-3.741,3.73-7.465,7.472a3.174,3.174,0,0,1-1.924,1.053l.013-31.713A21.446,21.446,0,0,0,656.507,367.208Z" transform="translate(7.739 2.999)" fill="#d8e6eb"/>
        <path id="Path_3641" data-name="Path 3641" d="M694.967,455.353c1.37-.02,1.81-1.468,2.9-1.951.615.487.324,1.131.326,1.667.022,9.29-.009,18.579.042,27.868a4.141,4.141,0,0,1-1.379,3.357c-1.916,1.786-3.731,3.682-5.575,5.546-.518.521-1.183.959-1.2,1.819l-32.046.016c.031-1.039.909-1.491,1.493-2.139,2.738-3.033,6.066-5.5,8.44-8.885q8.1-.057,16.192-.112c2.551-.018,5.1.047,7.649-.071a3,3,0,0,0,3.033-3.255,3.065,3.065,0,0,0-2.8-3.259,14.9,14.9,0,0,0-2.24-.114q-6.859-.073-13.715-.127c-.013-1.039.863-1.491,1.417-2.159.644-.776,1.715-1.252,1.746-2.463.521-.047,1.04-.134,1.561-.136,3.527-.016,7.056.047,10.583-.042a3.353,3.353,0,0,0,3.5-3.357c-.018-1.878-1.413-3.179-3.549-3.275-1.2-.052-2.4-.067-3.594-.1.029-.974.724-1.536,1.3-2.195.706-.8,1.806-1.31,1.943-2.546C693.974,458.9,694.535,458.322,694.967,455.353Z" transform="translate(14.341 72.923)" fill="#d8e6eb"/>
        <path id="Path_3642" data-name="Path 3642" d="M649.934,464.564c2.98-1.822,4.933-4.747,7.512-7,.717-.626,1.211-1.578,2.334-1.614a5.269,5.269,0,0,0,3.887,1.354c8.462-.016,16.921.034,25.381.063-.494,2.125-2.97,2.733-3.623,4.736-3.6.036-7.191.087-10.787.1-4.048.02-8.1.009-12.146.02a3.08,3.08,0,0,0-3.073,2.2,3.165,3.165,0,0,0,1.006,3.654,4.553,4.553,0,0,0,3.19.809q6.854.052,13.706.121c.02.946-.749,1.388-1.259,2-.688.831-1.846,1.326-1.9,2.617-.519.047-1.039.132-1.558.136-3.219.014-6.439-.045-9.656.034-2.372.058-3.7,1.337-3.7,3.337s1.348,3.232,3.683,3.337c.894.04,1.79.069,2.685.1.034.934-.6,1.482-1.183,2.065-1.748,1.743-3.545,3.438-5.215,5.252-1.091,1.183-2.671,1.978-3.118,3.706-6.254.427-6.265.427-6.25-5.642C649.86,478.823,649.9,471.693,649.934,464.564Z" transform="translate(7.704 74.986)" fill="#d8e6eb"/>
        <path id="Path_3643" data-name="Path 3643" d="M725.055,420.7c-.1-10.543-.17-21.087.154-31.628,2.115-1.524,3.688-3.621,5.626-5.327.972-.856,1.571-2.217,3.082-2.378.762,3.069,1.466,3.61,4.7,3.621l22.332.067c-.027.928-.829,1.325-1.319,1.938-.764.952-2.025,1.5-2.295,2.852q-9.557.041-19.115.087c-2.646.014-4.191,1.25-4.195,3.321s1.578,3.357,4.177,3.388c3.672.043,7.343.065,11.015.1,0,.869-.66,1.316-1.182,1.839q-10.448,10.458-20.9,20.912A2.951,2.951,0,0,1,725.055,420.7Z" transform="translate(68.527 14.608)" fill="#d8e6eb"/>
        <path id="Path_3644" data-name="Path 3644" d="M775.347,425.666c.2,1-.556,1.493-1.126,2.063q-23.729,23.743-47.473,47.473c-.521.519-.959,1.189-1.817,1.218l0-8.588c1.118-.08,1.625-1.024,2.295-1.692q20.287-20.249,40.553-40.522c.673-.671,1.216-1.583,2.349-1.6C771.388,426.084,773.1,426.7,775.347,425.666Z" transform="translate(68.495 49.133)" fill="#cad7dc"/>
        <path id="Path_3645" data-name="Path 3645" d="M649.885,427.892a3.612,3.612,0,0,0,2.24-1.373q17.4-17.415,34.811-34.824c.521-.519,1.18-.966,1.174-1.831l8.581.014c-.023.952-.784,1.417-1.354,1.987q-21.821,21.84-43.66,43.66c-.517.518-.937,1.205-1.781,1.287Z" transform="translate(7.74 21.484)" fill="#d8e6eb"/>
        <path id="Path_3646" data-name="Path 3646" d="M760.234,418.749c-.845-.713-.481-1.683-.485-2.537-.027-8.643-.005-17.285-.034-25.926,0-.688.438-1.7-.474-1.994-.646-.2-1.095.67-1.556,1.14-.574.583-1.073,1.238-1.605,1.864-1.9-2.066-4.464-1.12-6.737-1.491.047-1,.917-1.433,1.464-2.09.673-.812,1.82-1.325,1.69-2.651,2.87-.335,3.776-1.165,4.146-3.793,2.168-1.1,3.73-2.5,3.57-5.288-.166-2.9-.031-5.827-.027-8.742,5.831-.575,5.809-.575,5.794,5.213q-.054,20.646-.073,41.291C763.6,414.938,762.355,417.341,760.234,418.749Z" transform="translate(88.259 2.971)" fill="#cad7dc"/>
        <path id="Path_3647" data-name="Path 3647" d="M766.957,469.741c.038,1.033-.716,1.592-1.343,2.222-2.271,2.277-4.555,4.54-6.815,6.828-.563.57-1.325,1.026-1.357,1.972l-32.046.016c.009-.95.773-1.406,1.334-1.974,2.41-2.436,4.844-4.85,7.264-7.278.622-.626,1.386-1.174,1.39-2.2a11.311,11.311,0,0,0,3.556.311Q752.948,469.693,766.957,469.741Z" transform="translate(68.872 85.818)" fill="#d8e6eb"/>
        <path id="Path_3648" data-name="Path 3648" d="M769.275,368.73c0,2.915-.139,5.838.027,8.742.159,2.783-1.4,4.187-3.57,5.288-.543-2.309-2.135-2.986-4.334-2.984-7.761,0-15.523-.065-23.284-.1-.013-1.053.831-1.553,1.448-2.173q4.913-4.957,9.862-9.879c.686-.684,1.505-1.3,1.332-2.448l4.973-.013c.923,2.855,1.629,3.375,4.647,3.424Z" transform="translate(79.169 1.482)" fill="#d8e6eb"/>
        <path id="Path_3649" data-name="Path 3649" d="M693.17,367.2q0,11.449-.007,22.9a5.843,5.843,0,0,1-4.191,5.548c1.643-3.894.405-5.76-3.833-5.774l-20.863-.083a3.645,3.645,0,0,1,1.967-2.778,1.99,1.99,0,0,0,1.205-1.96q9.1-.054,18.2-.112c2.664-.02,4.186-1.238,4.191-3.308.007-2.05-1.556-3.313-4.184-3.357-3.217-.051-6.435-.085-9.652-.125-.025-.952.7-1.433,1.269-2,2.305-2.323,4.631-4.627,6.934-6.951.563-.568,1.3-1.041,1.279-1.994A42.9,42.9,0,0,1,693.17,367.2Z" transform="translate(19.39 3)" fill="#d8e6eb"/>
        <path id="Path_3650" data-name="Path 3650" d="M725.14,391.627c-.016-7.792-.018-15.584-.069-23.378-.005-1.059.487-1.211,1.368-1.2q11.574.09,23.152.134c.018.948-.709,1.43-1.274,2-2.3,2.322-4.629,4.623-6.931,6.947-.563.566-1.306,1.039-1.279,1.992-.585.047-1.167.123-1.752.139-3.713.1-4.9,1.645-3.992,5.2-2.49,1.784-4.341,4.24-6.6,6.267C726.96,390.445,726.43,391.569,725.14,391.627Z" transform="translate(68.609 3.009)" fill="#d8e6eb"/>
        <path id="Path_3651" data-name="Path 3651" d="M725.023,413.828a2.951,2.951,0,0,0,2.074-1.214q10.45-10.459,20.9-20.912c.521-.523,1.185-.97,1.182-1.839l8.581.014c0,.769-.559,1.2-1.033,1.672q-15.135,15.141-30.285,30.271a10.74,10.74,0,0,1-1.435,1.039Q725.017,418.346,725.023,413.828Z" transform="translate(68.559 21.484)" fill="#d8e6eb"/>
        <path id="Path_3652" data-name="Path 3652" d="M735.832,474.392c0,1.022-.767,1.571-1.39,2.2-2.419,2.428-4.853,4.843-7.263,7.278-.561.568-1.325,1.024-1.334,1.974-1.12.268-1-.527-1-1.187.027-2.6.071-5.208.109-7.812a75.369,75.369,0,0,0,13.534-13.606,54.159,54.159,0,0,1,8.567.022c.025.95-.76,1.383-1.267,2-.69.832-1.844,1.332-1.9,2.624-1.864.042-3.726.107-5.59.12-1.67.013-3.154.365-3.869,2.079C733.681,471.886,734.462,473.247,735.832,474.392Z" transform="translate(68.423 80.756)" fill="#cad7dc"/>
        <path id="Path_3653" data-name="Path 3653" d="M649.884,392.922a3.175,3.175,0,0,0,1.924-1.053q3.713-3.751,7.465-7.472a2.144,2.144,0,0,0,.847-1.52c2.392,1.668,5.141.516,7.685.974-.054.917-.849,1.317-1.339,1.933-.758.952-2.036,1.493-2.271,2.861-4.182.224-5.043,1.024-4.935,4.591-2.711,2.144-4.907,4.821-7.427,7.162-.588.548-1.015,1.334-1.936,1.44Z" transform="translate(7.739 15.827)" fill="#cad7dc"/>
        <path id="Path_3654" data-name="Path 3654" d="M733.38,379.658c-.027-.954.717-1.426,1.279-1.992,2.3-2.323,4.627-4.625,6.931-6.947.565-.57,1.292-1.051,1.274-2,1.1-.043,2.2-.114,3.3-.125,2.322-.024,3.78-1.035,4.057-3.451l4.367.04c.174,1.153-.646,1.764-1.332,2.448q-4.935,4.938-9.862,9.879c-.617.621-1.46,1.12-1.448,2.173A54.388,54.388,0,0,1,733.38,379.658Z" transform="translate(75.336 1.47)" fill="#d8e6eb"/>
        <path id="Path_3655" data-name="Path 3655" d="M725.195,384.284c1.29-.058,1.82-1.182,2.624-1.9,2.258-2.027,4.109-4.482,6.6-6.267,1.515,1.983,3.769,1.285,5.749,1.589.121,1.04-.7,1.529-1.254,2.188-.689.814-1.817,1.31-1.915,2.566a4.216,4.216,0,0,0-3.109,3.17c-1.511.161-2.11,1.522-3.082,2.378-1.938,1.706-3.511,3.8-5.626,5.327A55.521,55.521,0,0,1,725.195,384.284Z" transform="translate(68.554 10.352)" fill="#d8e6eb"/>
        <path id="Path_3656" data-name="Path 3656" d="M653.295,480.637c.447-1.728,2.027-2.523,3.118-3.706,1.67-1.813,3.467-3.509,5.215-5.252.584-.583,1.218-1.131,1.183-2.065a74.679,74.679,0,0,1,9,.014c-2.374,3.38-5.7,5.852-8.44,8.885-.584.648-1.462,1.1-1.493,2.139Z" transform="translate(10.5 85.944)" fill="#cad7dc"/>
        <path id="Path_3657" data-name="Path 3657" d="M747.849,481.409a2.1,2.1,0,0,1,.861-1.515q5.255-5.25,10.51-10.5c.362-.36.713-.981,1.252-.814.751.232.452,1.017.456,1.571.022,3.751.007,7.5.005,11.256Q754.392,481.406,747.849,481.409Z" transform="translate(87.05 85.188)" fill="#d8e6eb"/>
        <path id="Path_3658" data-name="Path 3658" d="M684.072,367.209c.025.954-.717,1.426-1.279,1.994-2.3,2.324-4.629,4.627-6.934,6.951-.565.568-1.294,1.05-1.268,2a54.387,54.387,0,0,1-8.567-.025c-.027-.954.717-1.426,1.279-1.992,2.3-2.323,4.625-4.625,6.931-6.947.565-.57,1.292-1.051,1.274-2A54.151,54.151,0,0,1,684.072,367.209Z" transform="translate(20.804 2.998)" fill="#cad7dc"/>
        <path id="Path_3659" data-name="Path 3659" d="M755.385,397.835c2.121-1.408,3.364-3.811,5.673-5q.008,4.422.015,8.842c-2.477.389-3.31,2.959-5.74,4.157v-7.1Z" transform="translate(93.108 23.886)" fill="#cad7dc"/>
        <path id="Path_3660" data-name="Path 3660" d="M723.546,460.785a6.841,6.841,0,0,0-3.52,2.276c-.4.423-.642,1.109-1.4.876-.8-.246-.478-.977-.583-1.527-.894-4.71,2.132-7.09,5.5-9.269A25,25,0,0,1,723.546,460.785Z" transform="translate(62.788 72.712)" fill="#d8e6eb"/>
        <path id="Path_3661" data-name="Path 3661" d="M656.556,367.268a21.448,21.448,0,0,1-6.61,6.829c-.033-.3-.089-.588-.094-.883C649.725,366.55,649.725,366.55,656.556,367.268Z" transform="translate(7.69 2.938)" fill="#cad7dc"/>
        <path id="Path_3662" data-name="Path 3662" d="M713.671,386.1q8.458,0,16.914.005c2.662.005,4.216,1.229,4.245,3.29s-1.567,3.413-4.158,3.417q-16.916.035-33.829.022c-2.749,0-4.4-1.345-4.352-3.462.045-2.052,1.6-3.263,4.265-3.268Q705.214,386.09,713.671,386.1Z" transform="translate(42.232 18.437)" fill="#003268"/>
        <path id="Path_3663" data-name="Path 3663" d="M713.665,459.419c5.717,0,11.433-.013,17.149.005,2.5.007,4,1.251,4.037,3.246s-1.5,3.436-3.918,3.442q-17.261.043-34.523-.025c-2.45-.009-3.959-1.417-3.929-3.415s1.549-3.252,4.034-3.261c5.716-.022,11.433-.007,17.149-.007Z" transform="translate(42.226 77.778)" fill="#003268"/>
        <path id="Path_3664" data-name="Path 3664" d="M713.668,379.932c-5.711,0-11.422.014-17.133-.007-2.506-.011-4-1.25-4.043-3.246s1.478-3.407,3.914-3.417q17.244-.06,34.491-.025c2.412.005,3.959,1.444,3.93,3.42s-1.551,3.257-4.026,3.268C725.09,379.947,719.379,379.932,713.668,379.932Z" transform="translate(42.233 8.012)" fill="#003268"/>
        <path id="Path_3665" data-name="Path 3665" d="M713.66,452.97q8.458,0,16.914,0c2.655.005,4.22,1.232,4.256,3.286s-1.565,3.426-4.147,3.431q-17.027.033-34.053.014c-2.582,0-4.178-1.388-4.138-3.449s1.592-3.277,4.256-3.283Q705.2,452.957,713.66,452.97Z" transform="translate(42.232 72.571)" fill="#003268"/>
        <path id="Path_3666" data-name="Path 3666" d="M713.67,386.383c-5.639,0-11.275.009-16.914,0-2.671-.005-4.218-1.214-4.265-3.281-.047-2.126,1.58-3.436,4.359-3.438q16.8-.016,33.6,0c2.785,0,4.415,1.3,4.381,3.42s-1.625,3.3-4.475,3.3Q722.012,386.392,713.67,386.383Z" transform="translate(42.232 13.216)" fill="#003268"/>
        <path id="Path_3667" data-name="Path 3667" d="M713.6,472.5c-5.635,0-11.27.016-16.905-.005-2.646-.011-4.211-1.283-4.205-3.326.007-2.07,1.542-3.362,4.207-3.368,11.346-.025,22.69-.009,34.036-.014,1.909,0,3.438.63,3.974,2.611a3.154,3.154,0,0,1-1.58,3.648,4.5,4.5,0,0,1-2.62.451Q722.053,472.514,713.6,472.5Z" transform="translate(42.233 82.952)" fill="#003268"/>
        <path id="Path_3668" data-name="Path 3668" d="M718.678,424.47c0,1.652.062,3.31-.018,4.958a3.448,3.448,0,0,1-3.371,3.527,3.392,3.392,0,0,1-3.33-3.545q-.106-5.07-.016-10.146a3.308,3.308,0,0,1,3.252-3.583c1.989-.062,3.395,1.352,3.474,3.6C718.728,421.01,718.681,422.74,718.678,424.47Z" transform="translate(57.949 42.383)" fill="#003268"/>
        <path id="Path_3669" data-name="Path 3669" d="M658.29,470.768c0-.774.579-1.191,1.05-1.663Q678,450.438,696.671,431.778c.3-.3.653-.557,1.028-.872a3.4,3.4,0,0,1,.3,2.266c.022,8.874-.047,17.748.062,26.621a6.048,6.048,0,0,1-1.992,4.716c-1.981,2.007-4.4,3.641-5.735,6.247Q674.31,470.76,658.29,470.768Z" transform="translate(14.544 54.711)" fill="#d8e6eb"/>
        <path id="Path_3670" data-name="Path 3670" d="M655.069,390.661c-.109-3.567.753-4.367,4.935-4.591l32.039-.014c2.072.065,4.218-.025,5.165,2.432.139,3.237-.82,4.149-4.705,4.473l-8.581-.014c-8.179-.031-16.359-.1-24.538-.065A4.471,4.471,0,0,1,655.069,390.661Z" transform="translate(11.929 18.401)" fill="#003268"/>
        <path id="Path_3671" data-name="Path 3671" d="M663.616,386.5c-2.544-.458-5.293.695-7.685-.974-1.922-3.346-.6-5.758,3.2-5.831,1.341-.025,2.68-.065,4.021-.1l8.585.016,20.863.083c4.238.014,5.476,1.88,3.833,5.774l-.374.311a6.766,6.766,0,0,1-3.469.65Q678.1,386.444,663.616,386.5Z" transform="translate(11.927 13.175)" fill="#003268"/>
        <path id="Path_3672" data-name="Path 3672" d="M660.9,452.943q16.02-.008,32.04-.013a4.086,4.086,0,0,1,4.434,2.81c-.432,2.969-.994,3.547-3.972,4.09l-8.585-.013c-8.46-.029-16.92-.08-25.381-.063a5.27,5.27,0,0,1-3.887-1.354q-1.922-5.323,3.806-5.393C659.87,453,660.384,452.965,660.9,452.943Z" transform="translate(11.935 72.535)" fill="#003268"/>
        <path id="Path_3673" data-name="Path 3673" d="M661.4,383.736q14.487-.041,28.975-.067a6.766,6.766,0,0,0,3.469-.65c.07,1.5-1.318,2-2.041,2.951-.65.854-1.788,1.33-1.974,2.544l-32.039.014c.235-1.368,1.513-1.909,2.271-2.861C660.553,385.053,661.348,384.653,661.4,383.736Z" transform="translate(14.141 15.942)" fill="#d8e6eb"/>
        <path id="Path_3674" data-name="Path 3674" d="M755.166,432.419c-2.242,1.039-3.959.418-5.221-1.649-.033-3.905-.123-7.812-.074-11.717a3.262,3.262,0,0,1,3.226-3.377,3.362,3.362,0,0,1,3.464,3.393c.085,1.2.067,2.4.094,3.6-.4,2.973.512,6.046-.668,8.961Z" transform="translate(88.676 42.38)" fill="#003268"/>
        <path id="Path_3675" data-name="Path 3675" d="M674.012,424.287c0-1.728-.051-3.458.016-5.183a3.338,3.338,0,1,1,6.675-.092q.149,5.29,0,10.59a3.34,3.34,0,1,1-6.677-.132C673.958,427.743,674.012,426.015,674.012,424.287Z" transform="translate(27.256 42.383)" fill="#003268"/>
        <path id="Path_3676" data-name="Path 3676" d="M735.37,481.619c.052-1.292,1.207-1.792,1.9-2.624.507-.615,1.292-1.048,1.267-2,.97-.049,1.942-.138,2.914-.139,7.437-.011,14.875.011,22.312-.016,2.705-.009,4.151-1.245,4.137-3.38-.014-2.119-1.458-3.259-4.2-3.279q-8.333-.057-16.67-.092c.031-.974.724-1.536,1.3-2.2.708-.8,1.808-1.31,1.943-2.546,4.562-.033,9.124-.045,13.684-.107,2.476-.033,3.923-1.3,3.938-3.348s-1.449-3.321-3.887-3.366c-1.869-.034-3.739-.045-5.606-.067,0-.774.577-1.191,1.05-1.663q4.859-4.87,9.734-9.725c.409-.405.771-1.138,1.417-.932.731.233.425,1.037.425,1.592.018,9.323,0,18.648.029,27.971a3.169,3.169,0,0,1-1.042,2.6c-1.339,1.2-2.626,2.463-3.934,3.7-1.189-.087-2.38-.241-3.57-.25Q748.942,481.663,735.37,481.619Z" transform="translate(76.947 67.016)" fill="#d8e6eb"/>
        <path id="Path_3677" data-name="Path 3677" d="M739.733,465.731q13.572.062,27.144.134c1.191.009,2.381.163,3.57.25,1.393,1.079,2.282,2.4,1.625,4.216-.7,1.929-2.315,2.286-4.16,2.237-1.554-.042-3.111.052-4.667.087q-14.009-.049-28.018-.1a11.312,11.312,0,0,1-3.556-.311c-1.37-1.146-2.151-2.506-1.4-4.314.715-1.714,2.2-2.067,3.869-2.079C736.007,465.838,737.869,465.773,739.733,465.731Z" transform="translate(72.584 82.904)" fill="#003268"/>
        <path id="Path_3678" data-name="Path 3678" d="M762.777,452.94c1.868.022,3.737.033,5.606.067,2.437.045,3.9,1.323,3.887,3.366s-1.462,3.315-3.938,3.348c-4.56.062-9.122.074-13.684.107l-8.583-.013c-3.974-.029-7.946-.045-11.918-.089-2.6-.029-4.184-1.335-4.177-3.393s1.563-3.313,4.2-3.326q10.011-.049,20.018-.082Z" transform="translate(72.576 72.538)" fill="#003268"/>
        <path id="Path_3679" data-name="Path 3679" d="M753.745,392.961l-8.581-.014c-3.672-.031-7.343-.053-11.015-.1-2.6-.031-4.18-1.33-4.177-3.388s1.549-3.306,4.195-3.321q9.557-.054,19.115-.087l8.594.014c2.168.024,4.338.036,6.505.074,2.443.042,3.905,1.316,3.889,3.36s-1.462,3.31-3.941,3.342C763.467,392.909,758.6,392.927,753.745,392.961Z" transform="translate(72.577 18.401)" fill="#003268"/>
        <path id="Path_3680" data-name="Path 3680" d="M729.914,382.8a4.216,4.216,0,0,1,3.109-3.17l32.048-.032c2.273.371,4.839-.576,6.737,1.491,1.216,3.5-.074,5.3-3.809,5.335-.822.007-1.643.049-2.467.076l-8.59-.011-22.332-.067C731.38,386.414,730.676,385.873,729.914,382.8Z" transform="translate(72.53 13.175)" fill="#003268"/>
        <path id="Path_3681" data-name="Path 3681" d="M746.467,383.409l8.59.011c-.25,1.359-1.52,1.905-2.28,2.859-.49.614-1.292,1.008-1.33,1.934l-8.594-.014c.27-1.348,1.531-1.9,2.294-2.852C745.638,384.734,746.44,384.337,746.467,383.409Z" transform="translate(83.005 16.258)" fill="#cad7dc"/>
        <path id="Path_3682" data-name="Path 3682" d="M751.379,459.368q8.336.046,16.67.092c2.738.02,4.182,1.16,4.2,3.279.015,2.135-1.432,3.371-4.137,3.38-7.437.027-14.875.005-22.312.016-.972,0-1.943.09-2.913.139a54.159,54.159,0,0,0-8.567-.022c-.516-.074-1.033-.127-1.543-.228a3.1,3.1,0,0,1-2.763-3.494,3.052,3.052,0,0,1,3.234-3.051c3.058-.069,6.118-.089,9.176-.13Q746.9,459.361,751.379,459.368Z" transform="translate(72.597 77.738)" fill="#003268"/>
        <path id="Path_3683" data-name="Path 3683" d="M745.821,461.487l-8.959-.018c.653-2,3.129-2.611,3.625-4.736l8.583.013c-.136,1.236-1.236,1.748-1.943,2.546C746.545,459.95,745.852,460.513,745.821,461.487Z" transform="translate(78.155 75.62)" fill="#cad7dc"/>
        <path id="Path_3684" data-name="Path 3684" d="M674.919,373.164a54.4,54.4,0,0,0,8.566.025c3.217.04,6.435.074,9.652.125,2.628.043,4.191,1.307,4.184,3.357-.005,2.07-1.527,3.288-4.191,3.308q-9.1.068-18.2.112l-8.606-.02c-2.468-.029-4.937-.045-7.4-.094-2.5-.047-3.9-1.27-3.883-3.348s1.411-3.272,3.952-3.31C664.3,373.244,669.608,373.213,674.919,373.164Z" transform="translate(11.909 7.963)" fill="#003268"/>
        <path id="Path_3685" data-name="Path 3685" d="M662.682,376.981l8.606.02a1.99,1.99,0,0,1-1.205,1.96,3.645,3.645,0,0,0-1.967,2.778l-8.585-.016c.136-1.234,1.243-1.737,1.938-2.546C662.031,378.521,662.825,378.018,662.682,376.981Z" transform="translate(15.55 11.054)" fill="#cad7dc"/>
        <path id="Path_3686" data-name="Path 3686" d="M673.133,466.254q-6.854-.062-13.706-.121a4.554,4.554,0,0,1-3.19-.809,3.165,3.165,0,0,1-1.006-3.654,3.08,3.08,0,0,1,3.073-2.2c4.048-.011,8.1,0,12.146-.02,3.6-.018,7.191-.069,10.787-.1q4.479.011,8.959.018c1.2.031,2.4.045,3.594.1,2.135.1,3.531,1.4,3.549,3.275a3.353,3.353,0,0,1-3.5,3.357c-3.527.089-7.056.025-10.583.042-.521,0-1.04.089-1.562.136A54.135,54.135,0,0,0,673.133,466.254Z" transform="translate(11.892 77.738)" fill="#003268"/>
        <path id="Path_3687" data-name="Path 3687" d="M670.4,472.68a74.667,74.667,0,0,0-9-.015c-.9-.034-1.792-.063-2.685-.1-2.334-.1-3.69-1.336-3.683-3.337s1.332-3.279,3.7-3.337c3.217-.08,6.437-.02,9.656-.034.519,0,1.039-.089,1.558-.136a54.15,54.15,0,0,0,8.565.023q6.856.062,13.715.127a14.907,14.907,0,0,1,2.24.114,3.065,3.065,0,0,1,2.8,3.259,3,3,0,0,1-3.033,3.255c-2.544.118-5.1.053-7.649.071Q678.5,472.622,670.4,472.68Z" transform="translate(11.909 82.894)" fill="#003268"/>
        <path id="Path_3688" data-name="Path 3688" d="M678.464,461.487q-4.482-.008-8.959-.018c.653-2,3.129-2.611,3.623-4.736l8.585.013c-.137,1.236-1.238,1.748-1.943,2.546C679.188,459.95,678.493,460.513,678.464,461.487Z" transform="translate(23.624 75.62)" fill="#cad7dc"/>
        <path id="Path_3689" data-name="Path 3689" d="M671.844,467.879a54.151,54.151,0,0,1-8.565-.023c.058-1.29,1.216-1.786,1.9-2.617.51-.615,1.279-1.057,1.259-2a54.135,54.135,0,0,1,8.565.022c-.031,1.211-1.1,1.687-1.746,2.463C672.707,466.388,671.831,466.841,671.844,467.879Z" transform="translate(18.583 80.756)" fill="#cad7dc"/>
        <path id="Path_3690" data-name="Path 3690" d="M736.086,380.091c-1.98-.3-4.234.395-5.749-1.589-.912-3.554.279-5.1,3.992-5.2.585-.016,1.167-.092,1.752-.139a54.4,54.4,0,0,0,8.567.025c7.761.04,15.523.109,23.284.1,2.2,0,3.791.675,4.334,2.984-.369,2.628-1.276,3.458-4.146,3.793Z" transform="translate(72.636 7.963)" fill="#003268"/>
        <path id="Path_3691" data-name="Path 3691" d="M734.8,377l32.033-.02c.13,1.326-1.017,1.839-1.69,2.651-.547.657-1.417,1.086-1.464,2.09l-32.048.033c.1-1.256,1.225-1.752,1.914-2.566C734.1,378.53,734.922,378.041,734.8,377Z" transform="translate(73.921 11.054)" fill="#d8e6eb"/>
      </g>
      <ellipse id="Ellipse_338" data-name="Ellipse 338" cx="34.484" cy="34.484" rx="34.484" ry="34.484" transform="translate(824 551.032)" fill="#fff"/>
      <g id="Group_2636" data-name="Group 2636" transform="translate(829.894 550.79)">
        <path id="Path_3692" data-name="Path 3692" d="M-104.529,343.681h-22.006c-.039-.037-.075-.1-.117-.107a17.735,17.735,0,0,1-5.774-1.771l-1.336-.762a20.717,20.717,0,0,1-4.443-4.09l-1.054-1.5a22.822,22.822,0,0,1-2.394-5.723l-.375-1.924c-.255-2.494-.65-4.97-1-7.45a15.849,15.849,0,0,0-.309-2.053c-.151-1.189-.251-2.385-.465-3.562a6.4,6.4,0,0,1,2.025-6.4,7.7,7.7,0,0,1,2.44-1.1c3.187-.842,6.353-1.762,9.559-2.533l2.886-.567c.829-.119,1.655-.258,2.489-.346a.752.752,0,0,0,.671-.457,3.157,3.157,0,0,1,2.674-1.761c.757-.058,1.514-.11,2.273-.144.311-.014.448-.093.445-.448-.025-1.8-.022-3.6-.029-5.394l0-2.287,0-8.537c.1-.494-.014-.744-.593-.6a16.309,16.309,0,0,0-1.8.368.935.935,0,0,0-.239,0,25.36,25.36,0,0,0-7.83,3.216A25.169,25.169,0,0,0-140.3,304.01c-.066.329-.141.659-.2.99a1,1,0,0,1-1.068.971l-.469-.187a1.282,1.282,0,0,1-.233-1.239,28.565,28.565,0,0,1,1.723-5.783,32.215,32.215,0,0,1,3.2-5.666l.4-.5a31.943,31.943,0,0,1,4.769-4.762,34.95,34.95,0,0,1,3.727-2.406,27.261,27.261,0,0,1,14.985-3.231,36.775,36.775,0,0,1,5.321.878l1.8.586a33.9,33.9,0,0,1,5.52,2.671l1.441.981a35.816,35.816,0,0,1,4.343,3.944l1.014,1.221a33.253,33.253,0,0,1,3.391,5.52l.62,1.445a34.6,34.6,0,0,1,1.423,5.16c.136.778.008,1.061-.684,1.367-.759-.07-.937-.239-1.088-1.009a21.026,21.026,0,0,0-1.031-3.857,7.367,7.367,0,0,0-.65-1.669,21.191,21.191,0,0,0-3.129-5.409,8.755,8.755,0,0,0-1.187-1.448,20.8,20.8,0,0,0-4.275-3.866,8.257,8.257,0,0,0-1.616-1.068,21.422,21.422,0,0,0-5.895-2.62,9.343,9.343,0,0,0-1.8-.479,18.413,18.413,0,0,0-2.105-.392c-.448-.073-.521.122-.426.491a19.3,19.3,0,0,0,0,2.408,16.806,16.806,0,0,0,0,2.284c-.059,2.846-.051,5.693,0,8.539a16.807,16.807,0,0,0,0,2.284,4.912,4.912,0,0,1-.037.594c-.088.514.109.71.635.7.6-.01,1.194.07,1.791.092a3.424,3.424,0,0,1,3.093,2c.032.165.144.2.3.221.56.066,1.121.144,1.681.217.374.068.747.139,1.121.2,1.971.323,3.905.817,5.852,1.255a24.1,24.1,0,0,0,2.647.723c.438.127.881.243,1.316.382,1.691.543,3.518.71,5.01,1.807l.64.6a6.4,6.4,0,0,1,1.435,5.3c-.088.548-.143,1.1-.212,1.657a23.118,23.118,0,0,0-.362,2.647c-.036.154-.083.307-.105.465q-.647,4.7-1.287,9.4l-.778,3.117c-.122.294-.243.587-.367.879-2.475,5.8-6.656,9.588-12.89,10.971A6.485,6.485,0,0,0-104.529,343.681Zm9.65-31.77a.651.651,0,0,0-.066-.054l-.039.027.07.056a4.585,4.585,0,0,1,.236,2.881,30.751,30.751,0,0,0-.723,3.455c-.2.912-.368,1.832-.616,2.73-.166.6.039.655.521.5.672-.093,1.346-.192,2.02-.275.219-.027.346-.075.382-.343.343-2.557.708-5.109,1.059-7.664.048-.35-.029-.649-.47-.674A13.981,13.981,0,0,0-94.878,311.911Zm-37.434,27.823a4.361,4.361,0,0,0,1.324.7,12,12,0,0,0,5.452,1.406c4.355.065,8.713.017,13.07.015l1.8,0c1.783,0,3.565.053,5.343-.012a12.079,12.079,0,0,0,4.533-1.01,13.791,13.791,0,0,0,4.766-2.941,15.509,15.509,0,0,0,4.238-6.24,6.164,6.164,0,0,0,.587-1.618,84.708,84.708,0,0,0,1.4-8.853l.36-2.64c.244-1.735.538-3.465.716-5.207a3.788,3.788,0,0,0-1.224-3.292A2.812,2.812,0,0,0-91.3,309.2c-2.268-.666-4.547-1.3-6.846-1.852a7.892,7.892,0,0,0-1.691-.45,59.076,59.076,0,0,0-6.584-1.294c-.27-.042-.284.08-.3.289-.122,1.4-.127,1.4,1.263,1.623.058.008.117.025.175.036l4.362.8a10.912,10.912,0,0,0,1.691.44c.248.073.492.154.742.221q3.054.81,6.107,1.615a5.267,5.267,0,0,1,1.421.645,2.843,2.843,0,0,1,.676,2.548c-.311,1.971-.533,3.956-.791,5.936l-.367,2.511a1.5,1.5,0,0,1-.581.6l-2.52.379c-.375.039-.752.066-1.126.117-2.822.38-5.655.635-8.491.891a23.827,23.827,0,0,0-2.408.176l-8.778.262-2.285-.017-8.3-.345-2.048-.19-7.683-.813-2.056-.3c-1.438-.277-1.613.02-1.834-1.907-.144-1.262-.37-2.513-.559-3.768a13.832,13.832,0,0,0-.27-2.046c-.076-.611-.165-1.222-.224-1.837a2.3,2.3,0,0,1,1.9-2.734c1.38-.379,2.756-.771,4.134-1.156l2.99-.786a69.169,69.169,0,0,1,7.1-1.4c.317-.042.4-.148.37-.448-.031-.357-.014-.718-.012-1.078,0-.175,0-.307-.253-.267a49.235,49.235,0,0,0-5.52,1.059,16.9,16.9,0,0,0-2.886.71c-2.194.587-4.394,1.153-6.581,1.769a3.665,3.665,0,0,0-2.679,2.941c-.324,1.467.144,2.886.345,4.321a8.052,8.052,0,0,0,.251,1.8c.261,2.543.666,5.068,1.025,7.6a12.224,12.224,0,0,0,.292,1.9,15.329,15.329,0,0,0,2.294,6.491,4.57,4.57,0,0,0,.8,1.214A14,14,0,0,0-132.312,339.734Zm2.032-24.133a9.374,9.374,0,0,1-3.508.07c-.253-.049-.38-.009-.309.292.234.985.457,1.973.683,2.959a8.851,8.851,0,0,0,.382,1.793,5.325,5.325,0,0,1,.105.706c.007.333.171.441.479.47,2.17.2,4.331.474,6.511.562l2.29.154c.5.031.992.071,1.489.087,2.228.073,4.452.2,6.683.132a15.74,15.74,0,0,0,2.4-.024c.638-.008,1.275-.008,1.913-.026,2.335-.061,4.667-.141,6.992-.391a15.327,15.327,0,0,0,2.525-.214c1.1-.01,2.175-.2,3.265-.29.209-.015.379-.065.428-.319.244-1.285.5-2.571.752-3.854.076-.307.165-.611.229-.92.236-1.148.233-1.149-.947-.99a13.846,13.846,0,0,1-2.494-.219,42.505,42.505,0,0,0-4.954-.774,10.591,10.591,0,0,0-2.155-.26,60.159,60.159,0,0,0-8.07-.411,13.25,13.25,0,0,0-2.406.07,60.313,60.313,0,0,0-9.379.885C-128.353,315.2-129.317,315.4-130.28,315.6Zm13.749-24.505.005,2.2,0,7.936c-.02.083.01.114.092.093l.964-.01c1.314.027,1.209.326,1.115-1.17.082-2.849.056-5.7.014-8.547a14.332,14.332,0,0,0-.007-2.4c.012-1.637.019-3.275.042-4.912.005-.3-.124-.373-.394-.365-.479.014-.959.017-1.438,0-.3-.012-.419.07-.416.4C-116.536,286.58-116.536,288.838-116.531,291.1Zm-18.428,29.619q-.15-.792-.3-1.584c-.346-1.842-.871-3.649-1.112-5.513A7.084,7.084,0,0,1-136,312.3c.2-.391-.024-.421-.309-.348-.659.167-1.309.372-1.969.526a.6.6,0,0,0-.542.769c.112.732.217,1.462.326,2.194.187,1.44.363,2.881.565,4.319.194,1.392.2,1.394,1.6,1.621.255.041.514.041.773.059a1.1,1.1,0,0,0,.813.068Zm21.282-12.707c1.177.068,2.353.155,3.53.2a1.427,1.427,0,0,0,1.6-1.419,15.732,15.732,0,0,0,.005-1.98,1.422,1.422,0,0,0-1.3-1.419,33.621,33.621,0,0,0-3.834-.2,57.791,57.791,0,0,0-7.253.19,1.451,1.451,0,0,0-1.394,1.515c-.017.581-.014,1.161,0,1.742a1.457,1.457,0,0,0,1.632,1.572C-118.354,308.071-116.016,307.988-113.677,308.008Zm-1.677,4.3c1.224-.029,2.443.051,3.664.1a74.4,74.4,0,0,1,10.423,1.18,10.261,10.261,0,0,0,4.16.27c.839-.187.947-.35.5-1.105a4.526,4.526,0,0,0-2.749-2.1,62.2,62.2,0,0,0-7.878-1.574.61.61,0,0,0-.569.092c-1.025.988-2.29.893-3.564.8a58.271,58.271,0,0,0-8.221,0,4.079,4.079,0,0,1-3.01-.472,1.67,1.67,0,0,0-1.6-.333,2.951,2.951,0,0,1-.458.112,38.127,38.127,0,0,0-6.633,1.343,4.916,4.916,0,0,0-3.058,2.452c-.2.38-.149.591.336.711a7.49,7.49,0,0,0,3.333.042A79.03,79.03,0,0,1-115.354,312.3Z" transform="translate(143.961 -282.126)" fill="#030303"/>
        <path id="Path_3693" data-name="Path 3693" d="M-119.258,301.238a79.026,79.026,0,0,0-15.328,1.523,7.489,7.489,0,0,1-3.333-.042c-.486-.121-.538-.331-.336-.711a4.916,4.916,0,0,1,3.058-2.452,38.132,38.132,0,0,1,6.633-1.343,2.951,2.951,0,0,0,.458-.112,1.67,1.67,0,0,1,1.6.333,4.079,4.079,0,0,0,3.01.472,58.281,58.281,0,0,1,8.221,0c1.273.09,2.538.185,3.564-.8a.61.61,0,0,1,.569-.092,62.2,62.2,0,0,1,7.878,1.574,4.526,4.526,0,0,1,2.749,2.1c.45.756.341.919-.5,1.105a10.262,10.262,0,0,1-4.16-.27,74.38,74.38,0,0,0-10.423-1.18C-116.815,301.289-118.034,301.21-119.258,301.238Z" transform="translate(147.866 -271.06)" fill="#8f7066"/>
        <path id="Path_3694" data-name="Path 3694" d="M-122.566,299.367c-2.34-.02-4.678.063-7.015.2a1.457,1.457,0,0,1-1.632-1.572c-.01-.581-.014-1.161,0-1.742a1.45,1.45,0,0,1,1.394-1.514,57.79,57.79,0,0,1,7.253-.19Q-122.563,296.954-122.566,299.367Z" transform="translate(152.851 -273.484)" fill="#f9ae37"/>
        <path id="Path_3695" data-name="Path 3695" d="M-126.124,299.352q0-2.412,0-4.822a33.628,33.628,0,0,1,3.834.2,1.422,1.422,0,0,1,1.3,1.419,15.73,15.73,0,0,1-.005,1.98,1.427,1.427,0,0,1-1.6,1.419C-123.771,299.507-124.947,299.42-126.124,299.352Z" transform="translate(156.409 -273.47)" fill="#fc8e1d"/>
        <path id="Path_3696" data-name="Path 3696" d="M-119.264,292.479q0-4.268,0-8.537c.1-.494-.014-.744-.593-.6a16.3,16.3,0,0,0-1.8.368.944.944,0,0,0-.239,0,25.4,25.4,0,0,0-7.83,3.216,25.169,25.169,0,0,0-11.471,16.267c-.066.329-.141.659-.2.99a1,1,0,0,1-1.068.971,9.4,9.4,0,0,0-.127,1.759.529.529,0,0,0,.214-.054.529.529,0,0,1-.214.054l-.105.357.02.25a7.7,7.7,0,0,1,2.44-1.1c3.187-.842,6.353-1.762,9.559-2.533l2.886-.567c.829-.119,1.655-.258,2.489-.346a.752.752,0,0,0,.671-.457,3.157,3.157,0,0,1,2.674-1.761c.757-.058,1.514-.11,2.273-.144.311-.014.448-.093.445-.448-.025-1.8-.022-3.6-.029-5.394Q-119.263,293.622-119.264,292.479Z" transform="translate(144.849 -281.306)" fill="#0f4e92"/>
        <path id="Path_3697" data-name="Path 3697" d="M-137.365,306.885c-.346-1.844-.869-3.649-1.112-5.513a7.083,7.083,0,0,1,.372-1.319c.2-.39-.024-.421-.309-.348-.659.166-1.309.372-1.97.526a.6.6,0,0,0-.542.769c.112.732.217,1.462.326,2.194.187,1.44.363,2.881.565,4.319.194,1.392.2,1.394,1.6,1.622.255.041.514.041.773.059.109-.316.205-.64.594-.725Q-137.218,307.677-137.365,306.885Z" transform="translate(146.07 -269.88)" fill="#003268"/>
        <path id="Path_3698" data-name="Path 3698" d="M-108.428,303.809a7.84,7.84,0,0,0-.367-1.564l.005-.36a37.279,37.279,0,0,0-1.331-3.791,7.866,7.866,0,0,0-1.073-2.1c0-.041,0-.08,0-.12a5.172,5.172,0,0,0-.842-1.319h0l0-.241a44.071,44.071,0,0,0-3.078-3.956c-.2-.221-.433-.409-.652-.613l0-.119a9.229,9.229,0,0,0-1.2-.964l0-.119a28.161,28.161,0,0,0-4.73-3.275c-.081-.042-.136-.138-.2-.209l-.238,0-1.205-.72-.355-.007a4.751,4.751,0,0,1-.735.956,4.751,4.751,0,0,0,.735-.956,5.236,5.236,0,0,0-1.694-.72,19.291,19.291,0,0,0,0,2.408,16.8,16.8,0,0,0,0,2.284c-.059,2.846-.051,5.693,0,8.539a16.8,16.8,0,0,0,0,2.284,4.915,4.915,0,0,1-.037.594c-.088.514.109.71.635.7.6-.01,1.194.07,1.791.092a3.424,3.424,0,0,1,3.093,2h0c.032.165.144.2.3.221.56.066,1.121.144,1.681.217.374.068.747.139,1.121.2,1.971.323,3.905.817,5.852,1.255a24.111,24.111,0,0,0,2.647.723A4.888,4.888,0,0,0-108.428,303.809Z" transform="translate(156.881 -281.093)" fill="#0f4e92"/>
        <path id="Path_3699" data-name="Path 3699" d="M-102.056,306.181c-.046-.346-.09-.694-.136-1.041-.759-.07-.937-.239-1.088-1.008a21.026,21.026,0,0,0-1.031-3.858,7.372,7.372,0,0,0-.65-1.669,21.191,21.191,0,0,0-3.129-5.409,8.758,8.758,0,0,0-1.187-1.448,20.8,20.8,0,0,0-4.275-3.866h0a8.257,8.257,0,0,0-1.616-1.068,21.441,21.441,0,0,0-5.895-2.62,9.337,9.337,0,0,0-1.8-.479,18.389,18.389,0,0,0-2.105-.392c-.448-.073-.521.122-.426.491a5.235,5.235,0,0,1,1.694.72l.355.007,1.205.72.238,0c.066.071.121.166.2.209a28.165,28.165,0,0,1,4.73,3.275l0,.119a9.229,9.229,0,0,1,1.2.964l0,.119c.219.2.455.392.652.613a44.086,44.086,0,0,1,3.078,3.956h0l0,.241a5.173,5.173,0,0,1,.842,1.319c0,.041,0,.08,0,.12a7.866,7.866,0,0,1,1.073,2.1,37.284,37.284,0,0,1,1.331,3.791l-.005.36a7.842,7.842,0,0,1,.367,1.564,4.888,4.888,0,0,1,.119,1.314c.438.127.881.243,1.316.382,1.691.543,3.518.71,5.01,1.807Z" transform="translate(156.888 -281.3)" fill="#003268"/>
        <path id="Path_3700" data-name="Path 3700" d="M-112.187,300.3a14.16,14.16,0,0,0-2.374-.637l-.036.031a4.585,4.585,0,0,1,.236,2.881,30.746,30.746,0,0,0-.723,3.455c-.2.912-.368,1.832-.616,2.73-.166.6.039.655.521.5.672-.093,1.346-.192,2.02-.275.219-.027.346-.075.382-.343.343-2.557.708-5.109,1.059-7.664C-111.669,300.629-111.745,300.33-112.187,300.3Z" transform="translate(163.643 -269.884)" fill="#003268"/>
        <path id="Path_3701" data-name="Path 3701" d="M-139.009,305.579c.109-.316.205-.64.594-.725l.219.793A1.1,1.1,0,0,1-139.009,305.579Z" transform="translate(147.417 -266.265)" fill="#003268"/>
        <path id="Path_3702" data-name="Path 3702" d="M-115.044,299.72l-.07-.056.039-.027a.669.669,0,0,1,.066.054Z" transform="translate(164.092 -269.905)" fill="#5c9def"/>
        <path id="Path_3703" data-name="Path 3703" d="M-110.291,307.626a23.93,23.93,0,0,0,2.647-.357c.158-.012.317-.025.475-.036a.9.9,0,0,1,1.032,1.066,16.165,16.165,0,0,1-3.187,8.681.613.613,0,0,0-.059.168,20.789,20.789,0,0,1-2.725,2.715,14.68,14.68,0,0,1-5.635,2.5,25.884,25.884,0,0,1-5.073.227,1.97,1.97,0,0,1-.46-.117c-.52-.4-.338-.959-.334-1.477.27-1.829.552-3.657.808-5.487.222-1.576.418-3.155.625-4.732.073-.409.163-.813.212-1.224a.959.959,0,0,1,.983-.922c.4-.034.791-.056,1.187-.083C-116.615,308.363-113.445,308.082-110.291,307.626Zm-2.28,4.588a18.56,18.56,0,0,0,.129-2.127c.017-.306-.081-.411-.374-.28l-1.548.126c-1.851.153-3.7.314-5.552.45-.28.02-.367.105-.4.377-.064.615-.173,1.224-.256,1.837q-.39,2.875-.776,5.751c-.1.623-.158,1.255-.3,1.868-.122.521,0,.706.528.555a11.619,11.619,0,0,0,8.056-2.486.6.6,0,0,0,.27-.494C-112.724,315.931-112.646,314.071-112.571,312.214Zm1.671,3.9a14.016,14.016,0,0,0,2.769-6.538c.044-.282-.017-.409-.336-.358-.591.1-1.187.175-1.781.241-.273.029-.374.149-.384.419C-110.712,311.9-110.8,313.915-110.9,316.116Z" transform="translate(158.14 -264.606)" fill="#030303"/>
        <path id="Path_3704" data-name="Path 3704" d="M-137.846,317.014l-.973-1.458a18.161,18.161,0,0,1-2.066-6.347c-.034-.318-.08-.633-.1-.953a.9.9,0,0,1,1.027-1.02c.377.029.752.09,1.129.138,2.514.363,5.036.689,7.572.857a12.587,12.587,0,0,0,2.034.166c.951.073,1.9.156,2.852.217.9.056,1.134.28,1.255,1.18.109.808.243,1.613.367,2.418l.261,1.927,1.058,7.574a1.329,1.329,0,0,1-.5.825,17.582,17.582,0,0,1-7.914-.886l-1.582-.761A16.144,16.144,0,0,1-137.846,317.014Zm3.248-5.521a12.58,12.58,0,0,0,.107,1.925c.051,1.455.1,2.91.148,4.367a.6.6,0,0,0,.285.491,10.083,10.083,0,0,0,2.185,1.34,5.258,5.258,0,0,0,1.441.579,12.251,12.251,0,0,0,4.71.611c.219,0,.324-.049.284-.311-.222-1.436-.428-2.875-.64-4.313a14.8,14.8,0,0,0-.272-2.046c-.149-1.1-.316-2.2-.44-3.309-.036-.326-.134-.43-.462-.448-1.29-.075-2.579-.182-3.869-.277l-1.818-.161c-.47-.058-.944-.1-1.413-.178-.268-.042-.358.032-.333.307C-134.64,310.541-134.625,311.017-134.6,311.492Zm-1.647,4.445c-.022-.638-.039-1.275-.066-1.912-.059-1.358-.131-2.713-.178-4.071-.01-.346-.119-.491-.482-.513a13.119,13.119,0,0,1-1.542-.205c-.385-.068-.526-.005-.453.44a13.661,13.661,0,0,0,1.5,4.515,5.258,5.258,0,0,0,1.209,1.739Z" transform="translate(146.036 -264.606)" fill="#040404"/>
        <path id="Path_3705" data-name="Path 3705" d="M-128.2,308.17l2.287.022c2.049.066,4.1.007,6.15-.029.783-.014.956.117,1.2.876l-.312,2.278q-.688,4.806-1.374,9.612c-.11.771-.363,1.024-1.126,1.026-2.18.008-4.362,0-6.542.008a1.171,1.171,0,0,1-1.11-.557l-.211-1.318-1.024-7.44a15.781,15.781,0,0,0-.316-2.051c-.048-.436-.1-.871-.139-1.307-.061-.761.272-1.124,1.025-1.129C-129.2,308.158-128.7,308.166-128.2,308.17Zm1.2,11.951c1.521.01,3.043.007,4.564.042.4.01.494-.132.54-.494.229-1.784.486-3.567.732-5.35l.387-2.756c.061-.414.114-.832.187-1.245.039-.211.034-.331-.239-.329q-3.84.013-7.681,0c-.255,0-.29.09-.258.318q.571,3.881,1.127,7.764c.068.565.134,1.131.2,1.7C-127.4,320.026-127.339,320.255-126.995,320.121Z" transform="translate(153.198 -263.957)" fill="#040404"/>
        <path id="Path_3708" data-name="Path 3708" d="M-138.2,312.354l.008.008Z" transform="translate(147.982 -261.031)" fill="#7aaeef"/>
      </g>
      <rect id="Rectangle_3067" data-name="Rectangle 3067" width="630" height="9" transform="translate(645 606)" fill="#cad7dc" opacity="0.3"/>
    </g>
    <g id="Group_2639" data-name="Group 2639" transform="translate(312.924 150.543)">
      <path id="Path_3710" data-name="Path 3710" d="M644.867,117.962l-27.633,47.861a2.551,2.551,0,0,0,2.208,3.825h55.269a2.548,2.548,0,0,0,2.2-3.825l-27.633-47.861A2.55,2.55,0,0,0,644.867,117.962Z" transform="translate(0 0)" fill="#ff9200"/>
      <g id="Group_2638" data-name="Group 2638" transform="translate(643.263 133.874)">
        <g id="Group_2637" data-name="Group 2637">
          <path id="Path_3711" data-name="Path 3711" d="M624.832,148.42a4.144,4.144,0,0,1,8.265,0,4.138,4.138,0,0,1-8.265,0Zm4.131-26.557h0a3.742,3.742,0,0,1,3.732,3.995l-1.063,15.676h-5.339l-1.062-15.679A3.74,3.74,0,0,1,628.963,121.863Z" transform="translate(-624.832 -121.863)" fill="#f6fcff"/>
        </g>
      </g>
    </g>
  </g>
</svg>
