<svg xmlns="http://www.w3.org/2000/svg" width="11.552" height="12.2" viewBox="0 0 11.552 12.2">
  <g id="Group_4732" data-name="Group 4732" transform="translate(0 0)">
    <path id="Path_6998" data-name="Path 6998" d="M111.618,8.892l-.568-.708a.182.182,0,0,1,.03-.259,5.794,5.794,0,0,1,1.478-.806.182.182,0,0,1,.234.114l.287.861a.181.181,0,0,1-.111.227,4.532,4.532,0,0,0-1.1.6.181.181,0,0,1-.251-.03" transform="translate(-108.75 -6.212)" fill="#046bda"/>
    <path id="Path_6999" data-name="Path 6999" d="M102.381,17.838l-.835-.355a.182.182,0,0,1-.1-.242,5.811,5.811,0,0,1,.908-1.393.182.182,0,0,1,.26-.011l.663.62a.182.182,0,0,1,.011.253,4.547,4.547,0,0,0-.676,1.037.181.181,0,0,1-.235.092" transform="translate(-100.912 -13.315)" fill="#046bda"/>
    <path id="Path_7000" data-name="Path 7000" d="M98.765,31.323a.182.182,0,0,1-.2-.167c-.008-.122-.011-.246-.011-.369A5.86,5.86,0,0,1,98.7,29.48a.182.182,0,0,1,.224-.133l.878.231a.181.181,0,0,1,.13.217,4.594,4.594,0,0,0-.108.991c0,.086,0,.173.007.258a.182.182,0,0,1-.163.193Z" transform="translate(-98.554 -24.411)" fill="#046bda"/>
    <path id="Path_7001" data-name="Path 7001" d="M113.171,11.69a5.854,5.854,0,0,0-3.581-4.338.2.2,0,0,0-.262.121l-.291.817a.2.2,0,0,0,.118.255,4.558,4.558,0,1,1-5.563,6.662c-.025-.04-.075-.123-.075-.123l-1.094.645s.063.105.1.156a5.829,5.829,0,0,0,10.653-4.2" transform="translate(-101.72 -6.4)" fill="#046bda"/>
    <path id="Path_7002" data-name="Path 7002" d="M127.593,7.251H126.48A.247.247,0,0,1,126.233,7V2.414a.247.247,0,0,1,.247-.247h1.113a.247.247,0,0,1,.247.247V7a.247.247,0,0,1-.247.247" transform="translate(-121.211 -2.167)" fill="#046bda"/>
    <path id="Path_7003" data-name="Path 7003" d="M100.57,49.9h-.848a.218.218,0,0,1-.218-.218v-2.8a.218.218,0,0,1,.218-.218h.848a.218.218,0,0,1,.218.218v2.8a.218.218,0,0,1-.218.218" transform="translate(-99.332 -38.594)" fill="#046bda"/>
    <path id="Path_7004" data-name="Path 7004" d="M102.738,46.886v.848a.218.218,0,0,1-.218.218h-2.8a.218.218,0,0,1-.218-.218v-.848a.218.218,0,0,1,.218-.218h2.8a.218.218,0,0,1,.218.218" transform="translate(-99.332 -38.594)" fill="#046bda"/>
  </g>
</svg>
