<svg xmlns="http://www.w3.org/2000/svg" width="12.7" height="12.7" viewBox="0 0 12.7 12.7">
  <g id="Group_4733" data-name="Group 4733" transform="translate(0 0)">
    <path id="Path_6996" data-name="Path 6996" d="M6.35,12.7A6.35,6.35,0,1,1,12.7,6.35,6.357,6.357,0,0,1,6.35,12.7m0-11.6A5.254,5.254,0,1,0,11.6,6.35,5.26,5.26,0,0,0,6.35,1.1" transform="translate(0 0)" fill="#4b4b4b"/>
    <path id="Path_6997" data-name="Path 6997" d="M26.116,26.49H22.1a.374.374,0,0,1-.374-.374V22.1a.374.374,0,0,1,.374-.374h4.015a.374.374,0,0,1,.374.374v4.014a.374.374,0,0,1-.374.374" transform="translate(-17.759 -17.76)" fill="#4b4b4b"/>
  </g>
</svg>
