<svg id="team-site-icon" xmlns="http://www.w3.org/2000/svg" width="31.823" height="24.511" viewBox="0 0 31.823 24.511">
  <path id="Path_3581" data-name="Path 3581" d="M349.54,296.519a.947.947,0,0,1-.06-.131,2.222,2.222,0,0,0-.109-.232q-3.575-6.43-7.131-12.874a1.571,1.571,0,0,0-1.524-.9c-.734.015-1.473.011-2.21.009-.862,0-1.724-.007-2.586.016a1.754,1.754,0,0,1-.187,0,.554.554,0,0,1,.01-.08,1.415,1.415,0,0,0-.185-1.084.916.916,0,0,0-.667-.348h0l.012-.065c0-.022.008-.043.012-.065a.947.947,0,0,0,.193,0,9.014,9.014,0,0,1,1.352-.005,1.343,1.343,0,0,0,1.022-.3,1.3,1.3,0,0,0,.344-1.017c-.026-1.269-.018-2.562-.009-3.815v-.414c.007-1.089-.548-1.327-1.016-1.337a1.062,1.062,0,0,0-.767.285,1.433,1.433,0,0,0-.335,1.073c.005.485,0,.97,0,1.456,0,.651,0,1.3.01,1.954-1.242-.023-2.477-.023-3.676,0,.013-.717.012-1.433.01-2.15v-1.4a1.23,1.23,0,0,0-.339-.929,1.033,1.033,0,0,0-.772-.285,1.057,1.057,0,0,0-1.013,1.1c0,.037.005.073.01.11.01,1.416.018,2.925,0,4.439a1.217,1.217,0,0,0,.326.934,1.29,1.29,0,0,0,.96.306c.381-.012.763-.009,1.145-.007h.465c0,.04.008.078.012.113A1.281,1.281,0,0,0,332,282.4h-.04c-.759-.012-1.519-.01-2.28-.009-.858,0-1.718,0-2.578-.014a1.647,1.647,0,0,0-1.624.96c-2.281,4.161-4.577,8.29-7.126,12.87a1.8,1.8,0,0,0-.1.217c-.009.021-.016.042-.025.063,0,0-.408.886-.113,1.392.339.584,1.069.494,1.513.483l.209,0q6.875.022,13.756.022c.913,0,1.826-.01,2.738-.02.526-.005,1.052-.012,1.577-.015,1.066-.008,1.242-.647,1.251-1.027a1.009,1.009,0,0,0-.273-.765,1.334,1.334,0,0,0-1.02-.309l-17.11.007c.243-.441.469-.851.687-1.267q.049,0,.1,0,.946,0,1.893,0h1.227a1.266,1.266,0,0,0,.985-.3,1.007,1.007,0,0,0,.276-.752c0-.492-.229-1.069-1.3-1.064-.647,0-1.294,0-1.962,0l.154-.287c.514-.96,1.016-1.89,1.5-2.828h.118q1.607,0,3.215,0h0a1.087,1.087,0,0,0,1.118-.741,1.015,1.015,0,0,0-.36-1.169,1.155,1.155,0,0,0-.838-.21c-.035,0-.07,0-.1,0-.651,0-1.3,0-1.951,0l.22-.395c.478-.856.955-1.713,1.415-2.579.09-.169.107-.176.282-.169,1.016.018,2.026.015,3.04.012h1.144c.124,0,.257,0,.359,0,.005.1.007.24.009.38.005.32,0,.584,0,.8-.012.634-.018,1.017.282,1.319s.7.307,1.411.3c.223,0,.491,0,.812.005a1.254,1.254,0,0,0,.971-.332,1.329,1.329,0,0,0,.3-1c-.013-.245-.008-.492-.005-.738s.007-.5,0-.75c1.577.021,3.141.02,4.649,0h.009a.22.22,0,0,1,.062,0,.542.542,0,0,1,.093.14c.343.637.694,1.269,1.044,1.9q.3.549.607,1.1c-.657,0-1.316,0-1.976,0h-.023c-.847,0-1.29.334-1.316.994a1.03,1.03,0,0,0,.275.79,1.416,1.416,0,0,0,1.063.339c1.025-.01,2.048-.007,3.071,0h.095c.52.953,1.048,1.9,1.6,2.886l.126.226c-.692,0-1.347,0-2,0a1.289,1.289,0,0,0-.989.326,1.041,1.041,0,0,0-.276.791c.024.66.448.994,1.26.994h.226c.951,0,1.9,0,2.854,0a.783.783,0,0,0,.091,0l.7,1.263h-5.254c-.215,0-.431,0-.645,0a.992.992,0,0,0-1.034.947c0,.019,0,.038,0,.057a1.012,1.012,0,0,0,.933,1.073,3.848,3.848,0,0,0,.559.036l6.776,0h.006a1.716,1.716,0,0,0,1.283-.363C350.132,297.468,349.54,296.519,349.54,296.519Z" transform="translate(-318.004 -273.874)" fill="#013c88"/>
</svg>
