<svg xmlns="http://www.w3.org/2000/svg" width="13.702" height="12.198" viewBox="0 0 13.702 12.198">
  <g id="Group_4735" data-name="Group 4735" transform="translate(0 0)">
    <g id="Group_4361" data-name="Group 4361" transform="translate(0 0)">
      <path id="Path_6799" data-name="Path 6799" d="M11.5,13.5,5.9,23.2a1.253,1.253,0,0,0,1.086,1.88H18.18a1.253,1.253,0,0,0,1.085-1.88L13.67,13.5A1.253,1.253,0,0,0,11.5,13.5Z" transform="translate(-5.733 -12.878)" fill="#fcb81a"/>
      <g id="Group_4360" data-name="Group 4360" transform="translate(6.125 2.931)">
        <path id="Path_4361" data-name="Path 4361" d="M65.638,45.366c0-.606.006-1.213,0-1.82A.678.678,0,0,0,65.2,42.9a.686.686,0,0,0-.76.114.664.664,0,0,0-.251.523q0,1.831,0,3.662a.723.723,0,0,0,1.445,0C65.642,46.587,65.638,45.977,65.638,45.366Z" transform="translate(-64.19 -42.834)" fill="#fff"/>
        <path id="Path_4362" data-name="Path 4362" d="M64.208,96.942a.724.724,0,1,0,.723-.727.726.726,0,0,0-.723.727Z" transform="translate(-64.207 -90.421)" fill="#fff"/>
      </g>
    </g>
  </g>
</svg>
