<svg xmlns="http://www.w3.org/2000/svg" width="415.83" height="107.416" viewBox="0 0 415.83 107.416">
  <g id="Group_4166" data-name="Group 4166" transform="translate(-126.125 -593.969)">
    <path id="Path_5449" data-name="Path 5449" d="M170.882,594.976h27.294a3.48,3.48,0,0,1,3.247,2.221l11.144,28.664a3.483,3.483,0,0,0,6.487.02l11.293-28.535a3.486,3.486,0,0,1,3.2-2.2l24.982-.325a3.478,3.478,0,0,1,3.526,3.481v7.13a5.03,5.03,0,0,1-2.3,4.221l-2.3,1.494a5.014,5.014,0,0,0-2.3,4.221v33.794a5.027,5.027,0,0,0,2.422,4.306l2.864,1.733a5.016,5.016,0,0,1,2.422,4.3v7.279a3.486,3.486,0,0,1-3.481,3.487H234.892a3.486,3.486,0,0,1-3.481-3.487v-6a5.049,5.049,0,0,1,1.468-3.559l3.247-3.241a5.033,5.033,0,0,0,1.474-3.559V630.894l-14.852,37.177a3.492,3.492,0,0,1-3.241,2.195H211.1A3.49,3.49,0,0,1,207.832,668l-13.358-35.684v22.118l4.26,4.26v8.487a3.482,3.482,0,0,1-3.481,3.487H170.362a3.484,3.484,0,0,1-3.487-3.487v-6.377a5.038,5.038,0,0,1,2.533-4.37l2.033-1.162a5.021,5.021,0,0,0,2.539-4.364V614.659l-6.9-3.247.325-13.04A3.481,3.481,0,0,1,170.882,594.976Z" transform="translate(223.877 4.675)" fill="#2b2828"/>
    <path id="Path_5450" data-name="Path 5450" d="M182.583,667.159V648.821a2.979,2.979,0,0,1,2.981-2.974h9.65a2.971,2.971,0,0,1,2.572,1.474l2.929,5.02s1.9,3.786,5.682,3.786,7.169-4.2,7.169-6.9-2.163-9.611-7.572-9.611-21.378-8.52-21.378-21.917,3.922-17.177,8.117-20.021,17.858-4.331,26.787-.539l1.487-2.169h6.221a2.985,2.985,0,0,1,2.981,2.981v14.2a2.985,2.985,0,0,1-2.981,2.981h-9.286a2.886,2.886,0,0,1-2.669-1.675c-.929-2.085-3.091-5.364-7.526-5.364-6.494,0-7.572,4.059-7.572,5.818s.266,9.066,11.364,9.066,20.157,9.741,20.157,23.813-11.364,23.4-20.969,23.4-12.722-2.3-12.722-2.3l-2.7,2.026-9.683.208A2.98,2.98,0,0,1,182.583,667.159Z" transform="translate(310.175 4.944)" fill="#2b2828"/>
    <path id="Path_5451" data-name="Path 5451" d="M532.4,681.228H226.949a2.093,2.093,0,0,1-1.929-1.272l-36.256-84.713a2.093,2.093,0,0,0-1.929-1.273H154.6a2.091,2.091,0,0,0-2.091,2.1v16.995a2.091,2.091,0,0,0,1.026,1.805l6.3,3.727a2.1,2.1,0,0,1,.857,2.643l-24.274,55.49a2.107,2.107,0,0,1-1.922,1.253h-6.273a2.1,2.1,0,0,0-2.1,2.1v18.943a2.1,2.1,0,0,0,2.1,2.1h39.236a2.1,2.1,0,0,0,2.1-2.1V680.416h-7.715l4.7-9.39a2.1,2.1,0,0,1,1.877-1.163H190.1a2.091,2.091,0,0,1,1.916,1.253l3.916,8.9-5.494,4.117a2.1,2.1,0,0,0-.818,1.987L191.61,699.6a2.1,2.1,0,0,0,2.078,1.786H539.858a2.1,2.1,0,0,0,2.1-2.1V683.326a2.1,2.1,0,0,0-2.1-2.1ZM172,646.979l5.306-11.118a2.1,2.1,0,0,1,3.741-.084l5.935,11.118a2.1,2.1,0,0,1-1.851,3.084H173.894A2.1,2.1,0,0,1,172,646.979Z" transform="translate(0 0)" fill="#2b2828"/>
    <path id="Path_5452" data-name="Path 5452" d="M225.425,653.8l-23.534-56.49a4.014,4.014,0,0,0-3.7-2.468H176.156a4.015,4.015,0,0,0-4.013,3.9l-.3,11.52,4.87,4.059-15.365,38.5a4.022,4.022,0,0,1-2.364,2.286l-5.611,2.026v9.585a4.016,4.016,0,0,0,4.013,4.013h25.437a4.749,4.749,0,0,0,4.747-4.747v-2.929a4.743,4.743,0,0,0-1.39-3.351l-3.585-3.585v-4.461H203.9l.208,3.65-4.669,4.669v6.13a4.008,4.008,0,0,0,4.013,4.014h26.067a4.012,4.012,0,0,0,4.013-4.014v-8.767l-5.273-1.175A4.027,4.027,0,0,1,225.425,653.8Zm-38.834-17.156,5.715-11.975,6.39,11.975Z" transform="translate(149.709 4.807)" fill="#2b2828"/>
    <path id="Path_5453" data-name="Path 5453" d="M179.017,594.93H144.644a2.993,2.993,0,0,0-2.994,2.968l-.084,8.585a2.989,2.989,0,0,0,1.792,2.773l4.1,1.8a3,3,0,0,1,1.792,2.747v36.191a2.985,2.985,0,0,1-1.533,2.617l-3.7,2.071a3.014,3.014,0,0,0-1.533,2.617v9.585a3,3,0,0,0,3,3h41.827a.927.927,0,0,0,.13-.006c1.24-.065,31.755-2.111,31.755-38.691C219.2,593.845,179.017,594.93,179.017,594.93Zm5.552,58.107H173.153a3,3,0,0,1-2.994-3V614.509a2.978,2.978,0,0,1,3.02-3c3.513.046,8.975.273,10.143.325a2.533,2.533,0,0,1,.5.058c2.052.441,14.949,3.9,14.949,21.462C198.771,652.427,184.569,653.037,184.569,653.037Z" transform="translate(84.831 5.26)" fill="#2b2828"/>
  </g>
</svg>
