<svg xmlns="http://www.w3.org/2000/svg" width="88.861" height="60.051" viewBox="0 0 88.861 60.051">
  <g id="Group_4164" data-name="Group 4164" transform="translate(-21879.035 7548.317)">
    <g id="Group_4159" data-name="Group 4159" transform="translate(21376.912 -8161.198)">
      <path id="Path_5438" data-name="Path 5438" d="M584.176,672.906c-4.156,0-6.621-2.126-6.809-5.189h3.973c0,1.021.566,2.38,3.024,2.464,1.7,0,2.647-1.021,2.647-1.788-.189-1.19-1.7-1.275-3.213-1.535a15.548,15.548,0,0,1-3.973-1.014,4.07,4.07,0,0,1-2.081-3.661c0-2.726,2.276-4.852,6.243-4.852,3.785,0,6.243,1.958,6.425,4.936h-3.778c0-.761-.189-2.042-2.459-2.042-1.515,0-2.458.253-2.646,1.359,0,1.535,3.212,1.45,5.671,2.042,2.269.6,3.784,2.042,3.784,4.091,0,3.746-3.024,5.189-6.808,5.189m-72.408-25.132,13.046-7.576,7,12.005H514.226"/>
      <path id="Path_5439" data-name="Path 5439" d="M505.713,665.1a4.442,4.442,0,0,0,4.344,4.338,4.315,4.315,0,0,0,4.351-4.338,4.368,4.368,0,0,0-4.351-4.337,4.5,4.5,0,0,0-4.344,4.337m4.156,7.83a7.788,7.788,0,0,1,0-15.575,7.663,7.663,0,0,1,4.539,1.359v-1.19h3.785v15.062h-3.785v-.937a7.764,7.764,0,0,1-4.539,1.281M560.362,652.2l-18.15-31.658,13.045-7.661,22.69,39.319m-54.838,12.9a4.32,4.32,0,0,0,4.351,4.338,4.448,4.448,0,0,0,4.351-4.338,4.507,4.507,0,0,0-4.351-4.337,4.373,4.373,0,0,0-4.351,4.337m4.162,7.83a7.789,7.789,0,1,1,4.54-14.216v-6.38h3.778v20.252H531.81v-.937a8.22,8.22,0,0,1-4.539,1.281m-.186-38.689,13.234-7.485L554.88,652.2H541.074v3.746h-3.779V652.2m51.238,3.864a1.873,1.873,0,1,1,0-3.746,1.873,1.873,0,1,1,0,3.746m0-3.486a1.62,1.62,0,1,0,1.508,1.613,1.519,1.519,0,0,0-1.508-1.613"/>
      <path id="Path_5440" data-name="Path 5440" d="M588.923,655.217l-.377-.852h-.378v.852h-.286v-2.042h.852a.675.675,0,0,1,.566.6.605.605,0,0,1-.377.592l.377.852m-.754-1.782h-.378v.677h.378c.377,0,.377-.085.377-.339,0-.175,0-.338-.377-.338M563.56,665.1a4.32,4.32,0,0,0,4.351,4.338,4.438,4.438,0,0,0,4.344-4.338,4.5,4.5,0,0,0-4.344-4.337,4.372,4.372,0,0,0-4.351,4.337m4.156,7.83a7.789,7.789,0,1,1,4.539-14.216v-1.19h3.6v15.062h-3.6v-.937a8.193,8.193,0,0,1-4.54,1.281m-21.538-7.83a4.443,4.443,0,0,0,4.35,4.338,4.319,4.319,0,0,0,4.351-4.338,4.373,4.373,0,0,0-4.351-4.337,4.5,4.5,0,0,0-4.35,4.337m8.7-12.766h3.778v20.252h-3.778v-.937a7.2,7.2,0,0,1-4.351,1.281,7.789,7.789,0,1,1,0-15.575,6.756,6.756,0,0,1,4.351,1.359Z"/>
      <rect id="Rectangle_4583" data-name="Rectangle 4583" width="3.819" height="15.299" transform="translate(537.277 657.302)"/>
    </g>
  </g>
</svg>
