<svg xmlns="http://www.w3.org/2000/svg" width="450.191" height="97.256" viewBox="0 0 450.191 97.256">
  <g id="Group_4170" data-name="Group 4170" transform="translate(-52 -530.836)">
    <path id="Path_5485" data-name="Path 5485" d="M270.757,559.657c5.767-1.656,13.723-1.814,20.429-1.729l.958.009H311.3c.628,0,1.232.006,1.83.015-21.664-16.065-66.812-27.117-119.026-27.117-41.422,0-77.669,6.663-102,17.556-.18.125-.729.25-.619.927.073.436.244.9,1.485.589,20.648-7.124,48.131-11.475,78.312-11.475,42.215.006,79.154,8.511,99.476,21.225Z" transform="translate(80.894 0)"/>
    <path id="Path_5486" data-name="Path 5486" d="M246.242,557.68H227.78l-.146,0a50.433,50.433,0,0,1-14.507-1.375c-21.176,10.661-54.91,17.568-92.932,17.568-.954,0-1.9-.018-2.845-.027-1.006-.018-1.174.643-.714.988.024.025.241.061.244.095,8.453.622,17.187.955,26.138.955,41.861,0,79.175-7.105,103.5-18.2l-.274,0Z" transform="translate(131.976 52.206)"/>
    <path id="Path_5487" data-name="Path 5487" d="M117.961,543.2h0c-3.617-1.574-7.645-1.7-12.543-1.7H60.56L52,582.658l40.431-.055h1.086c7.91.009,14.162.018,20.886-4.138h0c5.77-3.593,7.529-8.874,8.42-13.07l1.269-6.014C125.369,553.654,125.826,546.627,117.961,543.2ZM114.8,559.268l-1.11,5.257c-1.086,5.126-3.15,8.466-6.142,9.92-3.8,1.9-8.655,1.888-14.272,1.869H62.387l6.023-28.473H102c3.62,0,7.654.168,10.121,1.412C115.159,550.778,115.961,553.776,114.8,559.268Z" transform="translate(0 21.858)"/>
    <path id="Path_5488" data-name="Path 5488" d="M147.911,545.107c-2.366-2.421-8.222-3.6-17.9-3.586H110.847l-1.031-.009c-7.075-.095-17.007.07-21.536,2.558-5.852,3.1-8.185,10.457-9.051,14.565l-1.6,7.578c-1.122,5.3-.662,9.149,1.449,12.107,2.711,4.059,12.582,4.446,18.224,4.312l.217-.006h18.52l2.034.012c6.45.049,17.239.131,21.819-2.626,5.538-3.141,7.551-9.194,8.255-12.527l1.72-8.133a31.218,31.218,0,0,0,.762-6.365C150.625,549.513,149.728,546.948,147.911,545.107Zm-7.59,15.6-1.089,5.154c-1.019,4.809-2.656,7.679-5.157,9.033-2.592,1.458-11.283,1.385-15,1.354l-1.278-.009H102.6c-8.722,0-13.717-.281-15.141-1.766-.933-1.028-1.485-4.318-.634-8.35l1.278-6.038c.89-4.239,1.592-7.587,5.1-10.42h0c2.272-1.833,8.054-1.815,13.156-1.8l1.351,0h20.258c4.559,0,9.606.125,11.756,1.592C142.3,551.328,141.2,556.527,140.321,560.7Z" transform="translate(51.302 21.839)"/>
    <rect id="Rectangle_4585" data-name="Rectangle 4585" width="0.018" height="0.008" transform="translate(191.178 601.853) rotate(-33.69)"/>
    <path id="Path_5489" data-name="Path 5489" d="M177.806,541.5h-8.093l-7.2,34.048L121.075,541.5H110.409l-8.694,41.106h8.837l7.077-33.458,41.5,33.458h11.22L179.04,541.5h-1.234Z" transform="translate(101.892 21.858)"/>
    <rect id="Rectangle_4586" data-name="Rectangle 4586" width="0.011" height="0.014" transform="translate(402.063 601.846)"/>
    <path id="Path_5490" data-name="Path 5490" d="M219.774,552.984c0-3.473-.9-6.041-2.714-7.88-2.366-2.418-8.218-3.592-17.892-3.583H180l-1.034-.009c-7.075-.095-17,.07-21.536,2.558-5.852,3.1-8.185,10.457-9.051,14.565l-1.6,7.578c-1.125,5.3-.662,9.149,1.449,12.107,2.711,4.059,12.582,4.446,18.221,4.312l.22-.006h18.52l2.034.012c6.453.049,17.236.131,21.816-2.625,5.538-3.141,7.551-9.194,8.255-12.528l1.72-8.136a31.436,31.436,0,0,0,.759-6.365ZM209.466,560.7l-1.092,5.154c-1.016,4.809-2.656,7.679-5.154,9.033-2.6,1.458-11.286,1.385-15,1.354l-1.272-.009h-15.2c-8.725,0-13.717-.281-15.144-1.766-.933-1.028-1.485-4.318-.634-8.35l1.278-6.041c.9-4.236,1.6-7.584,5.1-10.417h0c2.272-1.833,8.054-1.815,13.156-1.8l1.351,0h20.255c4.559,0,9.606.125,11.753,1.592C211.452,551.325,210.351,556.525,209.466,560.7Z" transform="translate(193.035 21.841)"/>
    <path id="Path_5491" data-name="Path 5491" d="M238.838,541.519h-8.054L201.625,575c-1.284-2.284-18.88-33.481-18.88-33.481h-9.591L195,581.468c-.515.47-1.153,1.061-1.153,1.061a13.78,13.78,0,0,1-4.135,2.208l-.918.378c-2.717,1.107-9.121,1.1-12.945,1.1H171.27l-1.394,6.593h6.5l3.226.052c4.465.1,10.021.232,13.448-1a25.584,25.584,0,0,0,9.938-6.587l.027-.028,38-43.721h-2.183v-.006Z" transform="translate(241.591 21.895)"/>
    <path id="Path_5492" data-name="Path 5492" d="M175.8,541.5l-5.934,28.071c-.561,2.677-.79,3.781-2.626,5.114-1.558,1.128-6.349,1.632-7.911,1.632H143.161c-5.321,0-6.8-.994-7.212-1.592-.775-1.119-.567-2.229-.107-4.257l.2-.93.674-3.175h-8.7l-.793,3.72c-.54,2.571-1.095,7.2,1.317,9.338,2.357,2.141,7.09,3.184,14.473,3.184h12.973c8.587,0,10.8-.082,15.705-2.257s5.748-6.123,6.55-9.951l6.117-28.9Z" transform="translate(153.229 21.858)"/>
    <path id="Path_5493" data-name="Path 5493" d="M201.39,547.7,203.958,541h2.481v9.116h-1.617V542.7h-.045l-2.853,7.41h-1.108l-2.853-7.41h-.045v7.41H196.3V541h2.481l2.607,6.705Z" transform="translate(295.752 20.828)"/>
    <path id="Path_5494" data-name="Path 5494" d="M200.646,542.327h-2.814v7.788h-1.617v-7.788h-2.808V541h7.239Z" transform="translate(289.819 20.828)"/>
  </g>
</svg>
