<svg xmlns="http://www.w3.org/2000/svg" width="150.451" height="89.257" viewBox="0 0 150.451 89.257">
  <g id="Group_4152" data-name="Group 4152" transform="translate(1773.658 -2451.667)">
    <path id="Path_5367" data-name="Path 5367" d="M-1773.606,2485.38c1.92,0,3.84,0,5.761,0q16.333-.036,32.665-.055a1.214,1.214,0,0,0,1.242-.777q8.575-16.048,17.181-32.078c.115-.214.242-.42.462-.8.241,1.622.46,3.066.67,4.512q1.444,9.989,2.885,19.978c.405,2.8.854,5.594,1.2,8.4.091.733.343.872,1.019.87q17.323-.03,34.647-.015h.912c.015.33-.26.352-.418.453q-8.562,5.42-17.133,10.825a1.357,1.357,0,0,1-.74.319c-2.025-.008-4.049,0-6.125-.145l12.84-8.373a1.361,1.361,0,0,0-.975-.159c-8.717-.006-17.433-.017-26.15.015-.764,0-1.012-.2-1.125-.948-1.2-7.873-2.428-15.74-3.651-23.609-.021-.133-.012-.283-.194-.34a1.859,1.859,0,0,0-.47.738q-6.2,11.67-12.38,23.348a1.28,1.28,0,0,1-1.313.808q-14.931-.04-29.862-.013a1.768,1.768,0,0,0-1.027.127c.229.2.418.373.623.529q10.816,8.25,21.645,16.484c.559.424.654.719.314,1.365q-6.1,11.583-12.131,23.2c-.124.237-.235.48-.456.935.426-.24.673-.367.907-.515q11.709-7.379,23.407-14.775a.982.982,0,0,1,1.344.068q9.374,7.08,18.787,14.11c.232.174.425.433.831.446-.228-2.31-.45-4.6-.679-6.889-.282-2.816-.563-5.633-.861-8.447-.039-.367.059-.479.423-.488q2.061-.049,4.121-.149c.4-.02.5.124.53.508q.641,8.551,1.311,17.1c.207,2.678.419,5.357.63,8.052-.371-.024-.563-.284-.8-.459q-12.379-9.327-24.739-18.678a1.186,1.186,0,0,0-1.623-.086q-15.649,9.858-31.333,19.657c-.255.16-.512.316-.81.5-.091-.337.125-.536.234-.755q8.009-16.009,16.042-32.007c.306-.609.258-.892-.291-1.317q-13.466-10.419-26.9-20.885l-.51-.4Z" fill="#03539b"/>
    <path id="Path_5368" data-name="Path 5368" d="M-1528.117,2685.122c1.95,0,3.9-.036,5.851.01,2.307.054,3.387,1.294,3.073,3.568a98.22,98.22,0,0,1-2.286,9.933,44.7,44.7,0,0,1-1.731,5.913,4.975,4.975,0,0,1-4.7,3.384c-4.036.236-8.074.038-12.109.119-.522.01-.495-.187-.389-.583.27-1.006.523-2.018.729-3.038.116-.576.348-.9.977-.769.58.118.8-.155.937-.706q1.568-6.389,3.2-12.762c.154-.6.142-.891-.564-.766-.669.119-.771-.147-.589-.748.293-.97.554-1.953.759-2.945a.689.689,0,0,1,.823-.658c2.005.027,4.011.011,6.016.011Zm-2.285,18.536c.467,0,.935-.027,1.4.009.383.029.538-.143.629-.479,1.184-4.39,2.328-8.789,3.229-13.248.107-.529-.1-.525-.477-.519-.8.012-1.593.032-2.387-.007-.494-.024-.706.119-.831.63-.964,3.937-1.969,7.863-2.952,11.795C-1532.247,2703.656-1532.238,2703.658-1530.4,2703.658Z" transform="translate(-194.716 -194.897)" fill="#e41b39"/>
    <path id="Path_5369" data-name="Path 5369" d="M-1209.7,2734.364a5.359,5.359,0,0,0,.237-.483c.5-1.722.5-1.722,2.267-1.722,1.4,0,2.8.02,4.205-.01.52-.011.6.157.469.619q-.351,1.225-.623,2.473c-.1.45-.3.686-.781.592-.724-.141-.972.212-1.139.891-1.136,4.606-2.291,9.209-3.5,13.8-.595,2.255-1.523,2.955-3.812,2.978q-3.709.038-7.419-.057c-1.606-.042-1.981-.591-1.643-2.148.473-2.182.473-2.182,2.656-2.182.6,0,1.211.029,1.813-.009.525-.033.718.11.492.631-.3.7-.028.915.677.833.757-.088,1.679.3,2.241-.161.523-.427.443-1.365.634-2.075.276-1.026.5-2.065.754-3.108-.293-.037-.413.137-.561.246-.685.505-1.363,1.021-2.049,1.525-.751.553-4.4.478-5.093-.112-.607-.513-.475-1.2-.345-1.841q.418-2.055.937-4.09c.506-1.992.9-4.015,1.59-5.958.818-2.316,1.512-2.693,3.919-2.87C-1211.924,2731.986-1210.519,2732.407-1209.7,2734.364Zm-3.627,9.291a9.156,9.156,0,0,1,1.071.008c.433.052.573-.174.662-.534q.827-3.355,1.672-6.707c.1-.407.039-.619-.449-.6a15.807,15.807,0,0,1-1.977-.006c-.528-.042-.707.2-.838.652-.531,1.846-1.032,3.7-1.436,5.575C-1214.971,2743.655-1214.972,2743.655-1213.329,2743.655Z" transform="translate(-461.01 -234.164)" fill="#e41b39"/>
    <path id="Path_5370" data-name="Path 5370" d="M-1308.48,2744.989a18.424,18.424,0,0,0-2.031,1.539c-1.468,1.453-3.183,1.06-4.859.7a1.645,1.645,0,0,1-1.2-2.131c.617-2.645,1.284-5.278,1.936-7.914.259-1.046.266-1.058-.775-1.146-.323-.027-.429-.079-.329-.436.266-.95.5-1.912.72-2.874.071-.306.237-.385.525-.384,2,.008,4.008,0,6.088,0-.7,2.805-1.391,5.54-2.079,8.275-.221.878-.427,1.76-.672,2.631-.115.406-.018.573.4.532.055-.005.11,0,.165,0,.849-.015,1.871.255,2.5-.125.651-.393.552-1.53.764-2.342q1.07-4.1,2.05-8.224c.137-.572.363-.8.982-.764a31.735,31.735,0,0,0,3.462,0c.741-.043.72.242.577.8-.831,3.242-1.623,6.493-2.462,9.733-.172.662-.2,1.07.669.926.519-.086.512.183.4.58-.244.872-.474,1.749-.662,2.634-.09.425-.313.5-.693.5-1.759-.014-3.519-.027-5.278.006-.549.01-.574-.205-.459-.627.158-.582.292-1.17.435-1.755,0-.073,0-.146,0-.219Z" transform="translate(-381.626 -234.356)" fill="#e41b39"/>
    <path id="Path_5371" data-name="Path 5371" d="M-1049.715,2745.291a6.861,6.861,0,0,0-.789.561,6.383,6.383,0,0,1-5.5,1.672c-1.495-.135-2.048-.588-1.874-2.049a18.421,18.421,0,0,1,1.154-4.617,2.944,2.944,0,0,1,2.949-1.721c1.619-.067,3.243-.059,4.863-.03.562.01.842-.114.934-.717a19.048,19.048,0,0,1,.54-2.323c.125-.44-.027-.53-.421-.523-.852.014-1.706.039-2.555-.009-.533-.03-.7.192-.82.668-.3,1.226-.324,1.22-1.586,1.22-.77,0-1.543-.051-2.307.015-.728.063-.768-.237-.582-.8.155-.468.261-.951.406-1.423.6-1.969,1.6-2.8,3.626-2.842,2.472-.053,4.947-.048,7.42,0,1.673.033,2.427.971,2.064,2.6-.583,2.623-1.26,5.225-1.9,7.834-.238.969-.244.993.7,1.02.44.012.491.133.375.531-.255.868-.482,1.746-.668,2.63-.088.417-.284.521-.676.518-1.759-.015-3.518-.019-5.276,0-.473.005-.569-.147-.44-.582C-1049.946,2746.467-1049.867,2745.982-1049.715,2745.291Zm-3.5-1.032c1.155,0,2.3,0,3.451,0,.27,0,.378-.13.434-.385.147-.668.328-1.329.48-2,.045-.2.14-.46-.236-.457-1.123.01-2.37-.27-3.327.134-.653.276-.526,1.62-.8,2.47A1.012,1.012,0,0,0-1053.211,2744.258Z" transform="translate(-597.655 -234.365)" fill="#e41b39"/>
    <path id="Path_5372" data-name="Path 5372" d="M-1410.442,2747.6a28.414,28.414,0,0,1-3.373-.084,1.981,1.981,0,0,1-1.942-2.561c.241-1.99.76-3.926,1.2-5.878a26.974,26.974,0,0,1,1.069-3.879,3.92,3.92,0,0,1,3.83-2.722c2.031-.037,4.063-.009,6.094,0a5.428,5.428,0,0,1,.9.112,1.931,1.931,0,0,1,1.852,2.41,29.341,29.341,0,0,1-.8,4.2,48.571,48.571,0,0,1-1.3,5.177,4.11,4.11,0,0,1-4.4,3.22C-1408.248,2747.621-1409.182,2747.6-1410.442,2747.6Zm3.073-11.5a2.134,2.134,0,0,1-.411,0c-.837-.167-1.191.174-1.358,1.016-.393,1.986-.873,3.955-1.36,5.921-.191.769.031,1.029.806.927a5.488,5.488,0,0,1,1.232,0c.552.054.822-.1.947-.7.394-1.9.868-3.788,1.31-5.681C-1405.858,2736.1-1405.86,2736.1-1407.369,2736.1Z" transform="translate(-298.822 -234.464)" fill="#e41b39"/>
    <path id="Path_5373" data-name="Path 5373" d="M-961.72,2747.526c.332-1.334.662-2.63.975-3.931.082-.34.283-.416.6-.414,1.319.01,2.639.019,3.958,0,.459-.008.516.185.384.544-.2.534.028.693.536.635a5.162,5.162,0,0,1,.577,0c1.835,0,1.8-.008,2.254-1.76.129-.5-.023-.606-.438-.7-1.764-.407-3.523-.834-5.284-1.255-1.544-.37-1.745-.712-1.31-2.267.31-1.109.641-2.212.952-3.32a3.292,3.292,0,0,1,3.446-2.607c3.133-.025,6.267-.009,9.4-.031.465,0,.49.191.4.546q-.421,1.633-.827,3.271a.5.5,0,0,1-.579.437q-1.772-.026-3.546,0c-.435.006-.547-.157-.389-.542.178-.432-.031-.525-.418-.518-.687.014-1.376.037-2.061-.007-.512-.033-.716.157-.839.647-.317,1.26-.342,1.253.933,1.6,1.454.4,2.913.786,4.36,1.209,1.363.4,1.621.759,1.39,2.132-.214,1.27-.5,2.53-.818,3.778a3.038,3.038,0,0,1-3.041,2.542C-954.622,2747.565-958.136,2747.526-961.72,2747.526Z" transform="translate(-677.977 -234.424)" fill="#e41b39"/>
    <path id="Path_5374" data-name="Path 5374" d="M-1117.65,2707.927c-1.182,0-2.365-.011-3.547.005-.4.006-.535-.091-.416-.52.227-.819.43-1.648.582-2.483.1-.565.352-.829.933-.711.675.136.873-.237,1.006-.824q1.588-6.983,3.237-13.951c.148-.621.026-.826-.579-.733-.725.111-.809-.2-.628-.816a20.385,20.385,0,0,0,.508-2.163c.1-.571.33-.807.963-.787,1.648.053,3.3.068,4.947,0,.8-.035.8.252.652.869-1.388,5.846-2.744,11.7-4.146,17.542-.165.688-.107.987.657.866.631-.1.737.146.558.728a21.066,21.066,0,0,0-.543,2.323c-.1.531-.346.7-.887.673C-1115.449,2707.893-1116.55,2707.927-1117.65,2707.927Z" transform="translate(-544.43 -194.783)" fill="#e41b39"/>
  </g>
</svg>
