<svg xmlns="http://www.w3.org/2000/svg" width="143.025" height="51.311" viewBox="0 0 143.025 51.311">
  <g id="Group_4058" data-name="Group 4058" transform="translate(-101.121 -143.565)">
    <path id="Path_5269" data-name="Path 5269" d="M116.7,163.571c1.017-2.061,1.947-3.886,2.826-5.74.43-.908,1.212-.677,1.907-.678,5.892-.011,11.786-.042,17.678.023,1.282.015,1.861-.285,1.665-1.639a12.479,12.479,0,0,1-.015-1.807c.017-6.148,2.625-9.336,8.784-9.662,6.677-.352,13.391-.3,20.076-.058a8.531,8.531,0,0,1,8,6.016c.5,1.334.268,1.849-1.334,1.832-7.5-.079-15-.03-22.5-.04-1.252,0-2.395.121-3.08,1.4-1.166,2.182-.646,3.152,1.756,3.152H172.2c-1.04,2.167-1.991,4.129-2.927,6.1-.387.812-1.115.6-1.753.6-5.092.012-10.184-.011-15.267.029-.663,0-1.653-.456-1.951.427a2.777,2.777,0,0,0,.695,2.789,4.054,4.054,0,0,0,3.12,1.121c6.094,0,12.187-.039,18.281.029a2.1,2.1,0,0,0,2.1-1.428c3.516-6.684,7.088-13.336,10.548-20.046a2.717,2.717,0,0,1,2.936-1.725c2.807.129,5.626.108,8.435.008a2.326,2.326,0,0,1,2.468,1.466c3.59,6.789,7.262,13.545,10.912,20.308a1.917,1.917,0,0,0,.906.912c0-2.633.067-5.268-.028-7.9-.046-1.288.3-1.7,1.64-1.679,6.562.072,13.124.05,19.687.023,2.4-.01,3.152-.7,3.21-2.609a2.273,2.273,0,0,0-1.821-2.648,2.3,2.3,0,0,0-.483-.036c-1.6-.1-3.21-.087-4.816-.09-5.29-.01-10.581-.044-15.869.027-1.248.017-1.673-.327-1.54-1.576.21-1.97-.838-4.545.423-5.771,1.159-1.126,3.7-.307,5.628-.306,6.628,0,13.26-.067,19.883.15,5.121.167,7.453,2.839,7.47,7.941v1.606c0,4.954-.062,5.057-4.365,7.217,3.316,1.254,4.333,2.733,4.343,6.33,0,2.142-.034,4.286.018,6.426.021.871-.242,1.168-1.135,1.147q-3.517-.08-7.032,0c-.894.021-1.148-.289-1.126-1.153.052-2.074.008-4.151.017-6.227,0-1.53-.709-2.445-2.265-2.471-3.88-.063-7.765-.042-11.649-.105-1.062-.017-.961.639-.96,1.314,0,2.344-.089,4.692.035,7.032.073,1.381-.428,1.64-1.688,1.625q-6.121-.078-12.245.08c-1.261.034-2.076-.324-2.425-1.513-.981-3.351-3.128-4.319-6.574-4.017a121.574,121.574,0,0,1-12.648.059c-1.212-.021-2.112.176-2.442,1.445-.884,3.4-3.031,4.234-6.472,4.091-7.687-.32-15.4-.113-23.1-.141a26.628,26.628,0,0,1-3.807-.19c-3.758-.558-6.58-2.373-7.864-6.4-1.034,5.552-5.076,6.438-9.515,6.515-6.627.121-13.259.169-19.883.089-6.08-.074-9.422-3.224-9.893-9.28a84.136,84.136,0,0,1-.08-13.243c.455-5.67,3.414-8.737,9.049-8.956,6.554-.255,13.124-.319,19.677.073,6.118.364,8.905,3.516,8.735,9.418-.03,1.049-.309,1.394-1.365,1.359-2.141-.073-4.285-.036-6.426-.016-.8.008-1.38-.021-1.506-1.091a2.653,2.653,0,0,0-2.861-2.426l-.086.008c-3.482-.029-6.966-.085-10.445.028-3.152.1-4.85,1.627-5.265,4.709a30.05,30.05,0,0,0-.027,7.415c.315,2.768,1.743,4.325,4.556,4.477,4.339.236,8.7.137,13.049.1a2.769,2.769,0,0,0,2.53-1.707c.958-1.993.606-2.565-1.588-2.567C125.242,163.57,121.106,163.571,116.7,163.571Zm75.32-12.021-5.786,11.518h11.76Z" transform="translate(0 0)" fill="#252122"/>
    <path id="Path_5270" data-name="Path 5270" d="M172.84,188.751q-34.554,0-69.115.036c-1.6,0-2.2-.286-2.141-2.038.139-4.214.121-8.438,0-12.655-.044-1.549.434-1.851,1.9-1.845,14.733.056,29.461.033,44.2.033q46.913,0,93.827-.056c2.174,0,2.61.633,2.531,2.637-.159,4.012-.121,8.037-.008,12.053.042,1.514-.381,1.873-1.88,1.871Q207.5,188.71,172.84,188.751ZM146.6,182.667c2.625-1.306,3.469-2.354,3.288-3.951q-.3-2.653-4.178-3.415a5.464,5.464,0,0,0-.991-.142c-4.082-.021-8.163-.01-12.245-.056-.874-.01-1.155.284-1.142,1.148.041,2.742.07,5.489-.013,8.23-.038,1.267.567,1.38,1.583,1.386,1,0,1.455-.216,1.409-1.334-.08-2.071.018-4.149-.038-6.222-.025-.93.228-1.307,1.221-1.284,2.943.068,5.889.017,8.831.084,1.256.028,2.521.322,2.527,1.94,0,1.7-1.3,2.024-2.636,2.085-1.469.068-2.966-.13-4.408.08-1.091.159-3.1-.976-3.139.736-.036,1.871,2.032.8,3.046.783a7.461,7.461,0,0,1,5.7,1.819c1.566,1.519,3.441,1.383,5.92,1.153Zm16.214-7.533a16.785,16.785,0,0,0-6.911.8c-1.94.782-3.571,1.908-3.657,4.27a4.485,4.485,0,0,0,3.3,4.527,20.42,20.42,0,0,0,14.28-.033,4.532,4.532,0,0,0,3.265-4.379c-.027-2.3-1.632-3.549-3.589-4.348a15.827,15.827,0,0,0-6.691-.834Zm-44.425-.015c-2.285,0-4.16.048-6.029-.019-1.049-.038-1.563.161-1.522,1.386q.131,4.008,0,8.024c-.042,1.307.638,1.322,1.61,1.354,1.048.035,1.411-.3,1.375-1.364-.07-2.071.022-4.146-.04-6.218-.029-.97.3-1.279,1.258-1.256,2.205.053,4.413,0,6.62.022a13.433,13.433,0,0,1,2.789.179c.914.206,1.819.658,1.756,1.857-.056,1.049-.807,1.511-1.711,1.677a18.25,18.25,0,0,1-2.789.28c-1.6.045-3.209.019-4.814.012-.552,0-.89.171-.88.8.007.506.036.981.7.953,3.063-.121,6.158.4,9.183-.389,1.8-.47,3.249-1.406,3.213-3.529s-1.576-2.928-3.357-3.406c-2.556-.686-5.181-.2-7.363-.359Zm88.321,0c-2.207,0-4.414.034-6.621-.017-.873-.021-1.158.262-1.143,1.141.047,2.808.024,5.617.012,8.426,0,.66.042,1.177.924,1.174q6.72-.027,13.442,0c.824,0,.984-.411.994-1.126.011-.839-.527-.775-1.067-.775h-6.018c-5.474,0-5.438,0-5.3-5.456.028-1.136.35-1.49,1.479-1.466,3.141.064,6.286.019,9.429.022.742,0,1.482.131,1.467-1.05-.015-1.137-.775-.862-1.379-.868-2.07-.018-4.145,0-6.218-.007Zm21.634,0v.027c-1.471,0-2.941-.035-4.411.01a10.7,10.7,0,0,0-4.806,1.234c-3.457,1.863-3.6,5.75-.285,7.866a9.469,9.469,0,0,0,4.134,1.4c3.273.353,6.547.089,9.821.187.769.023,1.269-.084,1.263-1.048-.007-1.148-.805-.849-1.4-.849-2.607-.023-5.213-.012-7.82-.013a7.109,7.109,0,0,1-3.659-.879c-2.34-1.368-2.293-3.887.056-5.222a7.216,7.216,0,0,1,3.674-.787c2.673,0,5.348-.021,8.021.006.727.007,1.108-.167,1.134-.983.027-.86-.4-.978-1.106-.963-1.541.032-3.078.011-4.616.011Zm-40.895,6.264c0,1.071.061,2.145-.016,3.21-.1,1.4.828,1.2,1.7,1.26,1.026.069,1.429-.263,1.389-1.348-.076-2.071.018-4.149-.041-6.221-.027-.948.261-1.311,1.238-1.258,1.334.072,2.676,0,4.013.025.757.017,1.272-.063,1.268-1.048,0-.932-.53-.892-1.16-.891q-6.825.011-13.649,0c-.683,0-1.334-.086-1.3.97s.7.951,1.374.952h.8c4.373.018,4.373.018,4.376,4.349Zm-9.713.58c.649,0,.913.013,1.176,0,1.037-.062,2.182-.273,2.228-1.477.046-1.291-1.17-1.42-2.175-1.49a12.321,12.321,0,0,0-1.973.063c-.849.079-1.634.43-1.66,1.376s.816,1.271,1.6,1.468a2.877,2.877,0,0,0,.8.059Zm31.255-2.4c-1.334,0-2.655.01-3.983,0-.559,0-.84.178-.849.794s.235.815.812.812c2.589-.012,5.178,0,7.767-.007.456,0,.953.044.981-.664.027-.687-.272-.948-.94-.937-1.265.018-2.527,0-3.788,0Z" transform="translate(0.098 6.088)" fill="#0879c0"/>
    <path id="Path_5271" data-name="Path 5271" d="M153.334,176.194c1.728.063,3.5-.184,5.137.58a3.081,3.081,0,0,1,2.19,2.825,2.837,2.837,0,0,1-2.175,2.81,17.261,17.261,0,0,1-10.427.024,2.909,2.909,0,0,1-2.228-2.8,3.151,3.151,0,0,1,2.353-2.927C149.847,176.006,151.607,176.267,153.334,176.194Z" transform="translate(9.497 6.931)" fill="#0879c0"/>
  </g>
</svg>
