<svg xmlns="http://www.w3.org/2000/svg" width="450.264" height="139.891" viewBox="0 0 450.264 139.891">
  <g id="Group_4168" data-name="Group 4168" transform="translate(191.084 -649.484)">
    <path id="Path_5458" data-name="Path 5458" d="M25.84,649.542v25.387H-2.452V748.62H-35.479V674.929H-63.125V649.542S26,649.7,25.84,649.542Z" transform="translate(202.41 0.091)" fill="#41515e"/>
    <path id="Path_5459" data-name="Path 5459" d="M-7.555,649.525v99.186h-32.7v-35.5H-70.81v35.716h-32.273V649.74h32.919v35.5h29.691V649.484Z" transform="translate(139.202)" fill="#41515e"/>
    <path id="Path_5460" data-name="Path 5460" d="M-54.558,649.714V675.75H-86.616s-23.451.86-23.451,23.02,15.06,29.263,34,23.882V697.7h29.26v41.093a75.664,75.664,0,0,1-40.019,11.835c-23.237,0-56.586-10.544-56.586-52.5S-99.094,649.5-87.045,649.5-54.558,649.714-54.558,649.714Z" transform="translate(75.401 0.025)" fill="#41515e"/>
    <rect id="Rectangle_4584" data-name="Rectangle 4584" width="32.488" height="98.325" transform="translate(-107.173 649.955)" fill="#41515e"/>
    <path id="Path_5461" data-name="Path 5461" d="M-191.083,649.583h32.7v73.583h43.461v24.743h-75.949Z" transform="translate(0 0.157)" fill="#41515e"/>
    <path id="Path_5462" data-name="Path 5462" d="M-27.292,649.521v2.313h3.98v10.22H-20.3V651.726h3.711v-2.205Z" transform="translate(259.093 0.058)" fill="#41515e"/>
    <path id="Path_5463" data-name="Path 5463" d="M-21.614,649.637h3.55l2.958,8.552h.538l2.636-8.606h3.927l1.237,12.479H-8.973l-.968-10.381L-13.6,662.062h-2.8l-3.066-9.9-.968,9.843h-2.528Z" transform="translate(265.948 0.157)" fill="#41515e"/>
    <path id="Path_5464" data-name="Path 5464" d="M-184.719,693.563h5.809v10.247h12.264V693.643h5.567v25.334h-5.406V708.569H-178.91v10.569h-5.809Z" transform="translate(10.068 69.725)" fill="#41515e"/>
    <path id="Path_5465" data-name="Path 5465" d="M-140.31,693.583h-19.149v25.281h19.794v-4.2h-14.2v-6.24h12.156v-4.2h-12.156v-6.024h13.541Z" transform="translate(50.026 69.758)" fill="#41515e"/>
    <path id="Path_5466" data-name="Path 5466" d="M-67.643,693.583H-86.792v25.281H-67v-4.2H-81.2v-6.24h12.156v-4.2H-81.2v-6.024h13.541Z" transform="translate(164.973 69.758)" fill="#41515e"/>
    <path id="Path_5467" data-name="Path 5467" d="M-136.187,693.6v25.419h18.638V714.5h-12.909l-.063-20.914Z" transform="translate(86.837 69.764)" fill="#41515e"/>
    <path id="Path_5468" data-name="Path 5468" d="M-114.1,719.187v-25.6h4.787l9.789,15.922,9.79-15.868H-84.9v25.388h-5.755V703.7l-7.477,12.587h-2.8l-7.423-12.264v15.168Z" transform="translate(121.769 69.758)" fill="#41515e"/>
    <path id="Path_5469" data-name="Path 5469" d="M-64.792,693.625v4.2h8.5v21.3h5.164v-21.3h8.5v-4.2Z" transform="translate(199.774 69.824)" fill="#41515e"/>
    <path id="Path_5470" data-name="Path 5470" d="M-23.607,699.809l1.936-4.3a25.584,25.584,0,0,0-9.573-2.151c-5.164-.054-10.436,3.067-10.436,7.531s3.55,8.068,9.413,8.068,6.078,3.119,6.078,3.764-1.774,3.927-7.423,3.013-6.777-3.067-6.777-3.067l-1.882,4.3a17.531,17.531,0,0,0,9.95,3.013c6.026,0,11.512-1.614,11.512-7.423s-4.144-6.294-6.994-7.371-8.283-.537-8.283-4.787S-27.1,696.8-23.607,699.809Z" transform="translate(235.398 69.395)" fill="#41515e"/>
  </g>
</svg>
