<svg xmlns="http://www.w3.org/2000/svg" width="89.186" height="45.558" viewBox="0 0 89.186 45.558">
  <g id="Group_4162" data-name="Group 4162" transform="translate(-21879.332 7701.925)">
    <g id="Group_4158" data-name="Group 4158" transform="translate(21376.912 -8161.198)">
      <path id="Path_5431" data-name="Path 5431" d="M539.788,459.273h5.5l-9.033,24.636H530.1Z" fill="#020202"/>
      <path id="Path_5432" data-name="Path 5432" d="M532.151,459.273h6.077l-9.444,24.636h-5.5V473.89l-3.449,10.019h-6.241l9.2-24.636h6.405l-.493,8.294Z" fill="#020202"/>
      <path id="Path_5433" data-name="Path 5433" d="M565.409,481.2l.575-2.71-5.995-.082,2.053-5.42h5.009l1.807-4.6h-5.009l1.4-4.27h4.681l1.97-4.845H555.8l-5.173,5.666,2.135-5.666h-6.241l-8.951,24.554,6.076.164,3.365-9.115v8.951h6.49l-27.017,7.226s-10.183,3.285-13.468-3.2,2.135-13.714,2.135-13.714-7.062,6.323-10.511,13.549-2.217,11.5-.739,13.55,8.294,6.077,19.955,1.478S591.6,474.629,591.6,474.629Zm-12.4-.411-.821-11,7.965-9.033Z" fill="#020202"/>
    </g>
  </g>
</svg>
