<svg xmlns="http://www.w3.org/2000/svg" width="47.445" height="47.641" viewBox="0 0 47.445 47.641">
  <g id="Group_4165" data-name="Group 4165" transform="translate(-383.715 -487.076)">
    <path id="Path_5447" data-name="Path 5447" d="M429.092,507.891c-1.2-.031-3.971-.1-4.819-3.4l-.1-.368a4.613,4.613,0,0,1,1.553-5.478l.244-.166a1.762,1.762,0,0,0,.851-1.4,1.3,1.3,0,0,0-.439-.867l-.132-.13c-.9-.935-1.823-1.85-2.757-2.755-1.319-1.278-1.445-1.221-2.687-.03l-.221.228c-1.635,1.743-3.448,2.124-5.39,1.133-1.272-.65-3.639-1.858-3.5-5.393.056-1.52-.232-1.838-.234-1.841s-.353-.344-2.14-.344h-2.351a4.836,4.836,0,0,0-2.2.26,5.659,5.659,0,0,0-.275,2.164,4.237,4.237,0,0,1-3.364,4.456,3.017,3.017,0,0,0-.319.115,4.47,4.47,0,0,1-5.121-.885c-1.525-1.459-2.041-1.709-2.194-1.749a20.523,20.523,0,0,0-2.131,1.874l-.609.576c-.29.273-.582.545-.86.831-1.278,1.321-1.277,1.535.034,2.865l.159.158a4.334,4.334,0,0,1,.989,5.63l-.138.247A5.049,5.049,0,0,1,386,506.731a4.727,4.727,0,0,0-2.086.193h0a8.222,8.222,0,0,0-.2,2.214v2.106a6.268,6.268,0,0,0,.235,2.388,14.406,14.406,0,0,0,2.16.241,4.3,4.3,0,0,1,4.462,3.515c.017.041.048.1.074.163a3.994,3.994,0,0,1-1.106,5.2c-1.114.9-1.517,1.571-1.524,1.871,0,.121.068.8,1.742,2.284.356.317.683.65,1.008.985l.428.436c1.476,1.447,1.639,1.369,2.971.036a5,5,0,0,1,3.495-1.728,4.787,4.787,0,0,1,2.256.611,5.126,5.126,0,0,1,3.253,4.971c-.032,1.814.265,2.172.269,2.175s.37.32,2.34.323h2.342c2.258-.008,2.258-.049,2.293-2.162.02-1.069.069-3.884,3.255-4.724.135-.035.266-.08.393-.122a4.748,4.748,0,0,1,5.326,1.109c1.4,1.4,1.89,1.524,1.941,1.533a6.762,6.762,0,0,0,1.995-1.631l1.313-1.318c1.244-1.251,1.322-1.7,1.323-1.714,0,0-.07-.435-1.227-1.663l-.174-.173c-2.308-2.277-1.41-4.366-.668-5.409a3.035,3.035,0,0,0,.136-.3,4.534,4.534,0,0,1,4.263-3.052,12.349,12.349,0,0,0,2.7-.247,14.3,14.3,0,0,0,.175-2.882v-1.877C431.139,507.949,431.139,507.949,429.092,507.891Zm-21.654,16.726a13.721,13.721,0,1,1,13.72-13.72A13.721,13.721,0,0,1,407.438,524.617Z" fill="#013369"/>
    <path id="star" d="M406.415,501.638l-2.334,4.729-5.213.762a1.143,1.143,0,0,0-.639,1.95L402,512.758l-.892,5.2a1.143,1.143,0,0,0,1.658,1.2l4.668-2.455,4.668,2.455a1.143,1.143,0,0,0,1.657-1.2l-.893-5.2,3.775-3.679a1.143,1.143,0,0,0-.632-1.952l-5.212-.762-2.34-4.727a1.145,1.145,0,0,0-2.052,0Z" fill="#007aba"/>
  </g>
</svg>
