<svg xmlns="http://www.w3.org/2000/svg" width="254.688" height="84.638" viewBox="0 0 254.688 84.638">
  <g id="Group_4153" data-name="Group 4153" transform="translate(-2631.25 -1586.262)">
    <path id="Path_5375" data-name="Path 5375" d="M2803.333,1617.3v-5H2783s-5.333.167-5.333,5.333v13.417s.416,4.833,5.25,4.833h20.416v-14.25h-11v4.834h2.167v4.083h-4.25a3.167,3.167,0,0,1-3.167-3.167v-6.916a3.167,3.167,0,0,1,3.167-3.167Z" fill="#211e1e"/>
    <path id="Path_5376" data-name="Path 5376" d="M2805.75,1612.3h21.583v5h-11.5v3.75h9.417v5.917h-9.75v3.667h11.167v5.25H2805.75V1617.3h6.583Z" fill="#211e1e"/>
    <path id="Path_5377" data-name="Path 5377" d="M2729.708,1634.883l-11.625-11.625v-36.537h42.852l-13.652,23.583h-13.4l7.25-11.667h-11.427Z" fill="#282828"/>
    <path id="Path_5378" data-name="Path 5378" d="M2721.083,1622.016l5.625,5.625v-32h19.823l-7.25,11.667h6.271l10.18-17.583h-34.648Z" fill="#df4c21"/>
    <path id="Path_5379" data-name="Path 5379" d="M2744.417,1660.138l-11.625-11.625v-36.538h42.852l-13.653,23.584h-13.4l7.25-11.667h-11.427Z" fill="#282828"/>
    <path id="Path_5380" data-name="Path 5380" d="M2735.792,1647.271l5.625,5.625v-32h19.823l-7.25,11.667h6.27l10.181-17.584h-34.648Z" fill="#df4c21"/>
    <path id="Path_5381" data-name="Path 5381" d="M2757.243,1670.9l-9.987-8.921,7.272-13.967h-4.872l-2.377-11.375h23.288Z" fill="#282828"/>
    <path id="Path_5382" data-name="Path 5382" d="M2750.994,1661.3l5.021,4.485,10.168-26.144h-15.212l1.123,5.375h7.378Z" fill="#df4c21"/>
    <path id="Path_5383" data-name="Path 5383" d="M2652.875,1586.262H2631.25l7.75,5.375h-7.75v18.25h11v-8.125h10.625s3.625-2,3.625-8S2652.875,1586.262,2652.875,1586.262Zm-6.75,8.606a2,2,0,0,1-2.088,1.894h-1.787v-4.777h1.787a2,2,0,0,1,2.088,1.894Z" fill="#211e1e"/>
    <path id="Path_5384" data-name="Path 5384" d="M2685.167,1609.887l-7.834-7.791a8.447,8.447,0,0,0,3.167-.584c1.375-.625,3-2.375,3-8.125s-4-7.125-4-7.125h-21.125l7.458,5.292h-7.458v18.333h10.542l-.167-4.5,5,4.5Zm-12.188-15.019a2,2,0,0,1-2.088,1.894H2669.1v-4.777h1.787a2,2,0,0,1,2.088,1.894Z" fill="#211e1e"/>
    <path id="Path_5385" data-name="Path 5385" d="M2885.938,1635.908l-7.834-7.791a8.447,8.447,0,0,0,3.167-.584c1.375-.625,3-2.375,3-8.125s-4-7.125-4-7.125h-21.125l7.458,5.292h-7.458v18.333h10.542l-.167-4.5,5,4.5Zm-12.188-15.019a2,2,0,0,1-2.088,1.894h-1.787v-4.778h1.787a2,2,0,0,1,2.088,1.894Z" fill="#211e1e"/>
    <path id="Path_5386" data-name="Path 5386" d="M2707.188,1586.262h-15.209a6.4,6.4,0,0,0-6.4,6.4v10.834a6.4,6.4,0,0,0,6.4,6.4h15.209a6.4,6.4,0,0,0,6.4-6.4v-10.834A6.4,6.4,0,0,0,2707.188,1586.262Zm-4.25,15.549a3.077,3.077,0,0,1-3.077,3.076h-.472a3.076,3.076,0,0,1-3.076-3.076v-6.75a3.076,3.076,0,0,1,3.076-3.076h.472a3.077,3.077,0,0,1,3.077,3.076Z" fill="#211e1e"/>
    <path id="Path_5387" data-name="Path 5387" d="M2850.083,1612.3h-14.166l4.583,5h-6.583l-5.417,18.583h10.167l1.25-4.5h6l1.416,4.5h10.084Zm-9.416,13.625,1.9-6.417,1.9,6.417Z" fill="#211e1e"/>
  </g>
</svg>
