<svg xmlns="http://www.w3.org/2000/svg" width="100.662" height="40.648" viewBox="0 0 100.662 40.648">
  <g id="Group_4160" data-name="Group 4160" transform="translate(-21873.146 7825.222)">
    <path id="Path_5441" data-name="Path 5441" d="M552.744,336.811a2.452,2.452,0,0,1,2.1-.806,3.207,3.207,0,0,1,2.375,2.05,4.9,4.9,0,0,1-.026,2.854,26.068,26.068,0,0,1-1.9,4.592,33.675,33.675,0,0,1-2.81,4.533,16.323,16.323,0,0,1-1.448,1.713c-.352.361-.8.612-1.133.99a2,2,0,0,0-.544,2,2.6,2.6,0,0,0,.9,1.424,1.853,1.853,0,0,0,1.208-.106,4.489,4.489,0,0,0,2.061-1.725,7.034,7.034,0,0,0,.692-1.73c.622-1.936,1.192-3.891,1.9-5.8.121-.259.18-.609.483-.72a3.375,3.375,0,0,1,1.771-.276c.221.038.5.072.627.289a1.994,1.994,0,0,1-.081.562c-.537,2.188-1.159,4.355-1.715,6.538a7.982,7.982,0,0,0-.238,1.24c0,.292.358.294.564.24.368-.111.57-.473.755-.783,1.091-1.951,2.145-3.922,3.232-5.875a12.756,12.756,0,0,1,1.438-2.267,4,4,0,0,1,1.489-1.18,1.6,1.6,0,0,1,1.666.286,6.037,6.037,0,0,1,.738,1.466,7.815,7.815,0,0,1,2.557-2.408,2.492,2.492,0,0,1,2.339.122,1.859,1.859,0,0,1,.863,1.773,18.805,18.805,0,0,1-.929,4.27,8.835,8.835,0,0,0-.675,2.512c.015.3.1.721.463.771a1.3,1.3,0,0,0,.677-.558,6.661,6.661,0,0,0,.922-1.876c.412-1.177.868-2.338,1.326-3.5a8.6,8.6,0,0,1,1.871-3.044,6.512,6.512,0,0,1,4.015-2,3.392,3.392,0,0,1,2.371.868c.158-.368.346-.721.518-1.081.882-.06,1.769-.026,2.653,0-.7,1.959-1.264,3.962-1.78,5.974a20.187,20.187,0,0,0-.492,2.483,12.8,12.8,0,0,0,1.974-2.642,65.659,65.659,0,0,0,3.574-6.989c.2-.388.222-.9.609-1.164.266-.1.537.068.8.124.524.164,1.169.371,1.361.946.139.7.166,1.415.243,2.122.193,2.163.359,4.329.516,6.495.014.156.07.414.283.379.392-.122.619-.5.872-.8.729-.9,1.348-1.877,2.076-2.774a1.35,1.35,0,0,1,1.024.894c.039.149-.057.285-.107.419a12.048,12.048,0,0,1-3.227,4.467,8.23,8.23,0,0,1-4.443,1.991,4.263,4.263,0,0,1-2.849-.786,13.6,13.6,0,0,1-1.237-1,17.3,17.3,0,0,0-2.842,2.72,3.016,3.016,0,0,0-.5.806,23.1,23.1,0,0,1-1.338,5.514,28.162,28.162,0,0,1-1.772,4.052,8.037,8.037,0,0,1-2.248,2.8,2.716,2.716,0,0,1-2.4.337,3.15,3.15,0,0,1-1.568-.958,2.838,2.838,0,0,1-.441-2.139,9.62,9.62,0,0,1,1.353-3.446,20.324,20.324,0,0,1,5.111-5.765c.537-.341.59-1.035.8-1.582a4.3,4.3,0,0,1-3.061.9,2.213,2.213,0,0,1-1.519-.688,3.393,3.393,0,0,1-.733-1.538,5.214,5.214,0,0,1-2.784,2.767,2.675,2.675,0,0,1-2.2-.081,2.534,2.534,0,0,1-1.012-1.745,9.062,9.062,0,0,1,.358-3.726c.285-1.176.669-2.324.97-3.5a1.263,1.263,0,0,0-.732.129,3.512,3.512,0,0,0-1.169,1.42,14.081,14.081,0,0,0-1.217,2.767c-.557,1.538-.982,3.123-1.56,4.654-.084.338-.488.345-.764.418a3.741,3.741,0,0,1-2.159-.285,30.993,30.993,0,0,1,1.292-4.9c.371-1.174.783-2.333,1.153-3.507-1.562,2.436-2.923,4.995-4.418,7.473a5.743,5.743,0,0,1-1.886,2.1,3.058,3.058,0,0,1-2.2.424,2.883,2.883,0,0,1-1.4-1.6,5.733,5.733,0,0,1-3.269,2.55,2.845,2.845,0,0,1-2.263-.22,4.318,4.318,0,0,1-1.806-3.006,9.046,9.046,0,0,1-.162-1.737,4.912,4.912,0,0,1-1.812.062,21.761,21.761,0,0,1-2.1,4.94,3.322,3.322,0,0,1-2.061,1.632,3.755,3.755,0,0,1-2.007-.033,2.6,2.6,0,0,1-1.382-1.353,5.17,5.17,0,0,1-2.248,1.919,2.912,2.912,0,0,1-2.48-.025,4.819,4.819,0,0,1-1.332-1.319,5.028,5.028,0,0,1-2.887,2.428,3.234,3.234,0,0,1-2.328-.213,7.432,7.432,0,0,1-1.184-.971,4.963,4.963,0,0,1-2.734,2.11,3.228,3.228,0,0,1-2.811-.446,3.469,3.469,0,0,1-1.271-2.16,8.584,8.584,0,0,1,.7-5.057,11.618,11.618,0,0,1,2.489-3.924,4.629,4.629,0,0,1,3.413-1.388,2.675,2.675,0,0,1,1.829.744,1.89,1.89,0,0,1,.849-.953,5.539,5.539,0,0,1,1.763-.162,1.07,1.07,0,0,1,.526,1.276c-.5,2.228-1.389,4.353-1.857,6.589a2.708,2.708,0,0,0,0,1.527.689.689,0,0,0,.87.212,3.418,3.418,0,0,0,1.4-1.187,9.041,9.041,0,0,0,1.4-2.584c.725-2.049,1.364-4.127,1.967-6.214a10.1,10.1,0,0,1,3.119-.371c-.55,2.133-1.294,4.209-1.876,6.333a14.4,14.4,0,0,0-.523,2.467c.009.166.022.37.184.464a1.1,1.1,0,0,0,.953-.253,4.829,4.829,0,0,0,1.052-1.366,8.564,8.564,0,0,0,.693-1.632c.72-2.127,1.366-4.277,1.995-6.432a6.174,6.174,0,0,1,2.8-.314c-.66,2.5-1.343,4.985-2,7.483a2.292,2.292,0,0,0,.161,1.865.9.9,0,0,0,1.214.2,3.359,3.359,0,0,0,1.138-1.478,10.789,10.789,0,0,0,.882-5.235,8.469,8.469,0,0,1,.142-2.4,2.383,2.383,0,0,1,.948-1.525.943.943,0,0,1,1.114-.028,1.486,1.486,0,0,1,.449,1.094,11.107,11.107,0,0,1-.4,3.459,1.716,1.716,0,0,0,1.15.09c.131-.042.3-.1.339-.251a51.3,51.3,0,0,1,3.691-11.111,10.7,10.7,0,0,1,2.163-3.413m1.395,2.989a26.548,26.548,0,0,0-1.743,3.831,50.417,50.417,0,0,0-1.789,5.426,8.833,8.833,0,0,0,1.606-2.191,47.661,47.661,0,0,0,2.479-5.123,4.866,4.866,0,0,0,.507-1.878c-.019-.269-.125-.615-.437-.655-.322.024-.459.36-.623.59m25.542,5.305a3.449,3.449,0,0,0-1.187,1.028,12.451,12.451,0,0,0-1.918,3.85,5.992,5.992,0,0,0-.337,1.775c.018.3.1.665.417.775a1.487,1.487,0,0,0,1.378-.349,6.87,6.87,0,0,0,1.66-2.33,13.045,13.045,0,0,0,1.016-3.017,2.343,2.343,0,0,0-.084-1.456.728.728,0,0,0-.945-.276m8.674,1.629a24.816,24.816,0,0,1-1.506,2.468,1.421,1.421,0,0,0,0,1.651,2.291,2.291,0,0,0,1.158.84.8.8,0,0,0,.825-.313,4.187,4.187,0,0,0,.735-2.317,10.151,10.151,0,0,0-.491-3.863,12.534,12.534,0,0,1-.722,1.534M524.337,352.5a2.661,2.661,0,0,0-1.05.634,8.019,8.019,0,0,0-1.887,3.61,6.088,6.088,0,0,0-.312,2.679.85.85,0,0,0,.826.77,2.639,2.639,0,0,0,1.514-1.067,11.8,11.8,0,0,0,1.91-4.594,2.773,2.773,0,0,0,.052-1.634.86.86,0,0,0-1.053-.4m51.732,9.685a8.592,8.592,0,0,0-1.783,3.762.512.512,0,0,0,.388.59c.458.156.864-.205,1.1-.556a11.546,11.546,0,0,0,1.083-2.362,27.9,27.9,0,0,0,1.075-3.668,14.051,14.051,0,0,0-1.864,2.234" transform="translate(21376.912 -8161.198)" fill="#ee2324"/>
    <path id="Path_5442" data-name="Path 5442" d="M559.074,339.45a1.726,1.726,0,0,1,1.632.418,2.075,2.075,0,0,1,.164,2.753,1.717,1.717,0,0,1-1.835.581,1.9,1.9,0,0,1-1.29-1.664,1.945,1.945,0,0,1,1.329-2.088" transform="translate(21376.912 -8161.198)" fill="#ee2324"/>
    <path id="Path_5443" data-name="Path 5443" d="M509.05,342.037a14.568,14.568,0,0,1,5.052-.875,6.394,6.394,0,0,1,6.372,4.919,7.627,7.627,0,0,1-.569,4.882,8.038,8.038,0,0,1-3.982,3.8,10.4,10.4,0,0,1-2.757.794,2.142,2.142,0,0,1,1.33,1.342c.264,1.038.584,2.061.948,3.07a11.478,11.478,0,0,0,.9,1.976,3.6,3.6,0,0,0,1.623,1.257,15.856,15.856,0,0,0,3.946,1.129,32.577,32.577,0,0,0,7.237.32c1.224-.077,2.452-.128,3.674-.249a23.267,23.267,0,0,1,9.844-2.922,33.637,33.637,0,0,1,8.29.261,1.037,1.037,0,0,0,.375-.035c5.48-1.211,10.914-2.651,16.248-4.4.378.332.271.912.119,1.332-.036.152-.2.19-.317.25a117.806,117.806,0,0,1-11.537,4.128,13.105,13.105,0,0,1,4.486,2.665,4.731,4.731,0,0,1,1.569,3.243,4.5,4.5,0,0,1-1.325,3.115,11.548,11.548,0,0,1-3.771,2.53,26.857,26.857,0,0,1-9.276,2.018,30.437,30.437,0,0,1-11.458-1.488,14.477,14.477,0,0,1-4.293-2.3,5.775,5.775,0,0,1-2.006-2.823,3.562,3.562,0,0,1-.018-1.867c-1.687.1-3.376.073-5.064.072a32.187,32.187,0,0,1-7.2-.81,6.738,6.738,0,0,1-3.327-1.743,10.54,10.54,0,0,1-2.094-4.341c-.34-1.182-.551-2.4-.94-3.569a4.713,4.713,0,0,0-.681-1.19.973.973,0,0,0-.84-.48c-.692,2.195-1.324,4.41-2.039,6.6a18.47,18.47,0,0,1-2.1,4.879,4.746,4.746,0,0,1-6.571,1.388,5.9,5.9,0,0,1-1.955-2.676,10.531,10.531,0,0,1-.7-3.9,18.319,18.319,0,0,1,.58-3.742,33.047,33.047,0,0,1,2.944-7.728,21.183,21.183,0,0,1,5.456-6.711,12.881,12.881,0,0,1,3.835-2.118m-.093,2.35a14.838,14.838,0,0,0-3.281,3.106,17.943,17.943,0,0,0-1.645,2.639,46.258,46.258,0,0,0-3.309,8.026,19.5,19.5,0,0,0-1.025,6.206,4.24,4.24,0,0,0,.672,2.329,1.284,1.284,0,0,0,1.548.442,3.54,3.54,0,0,0,1.267-1.521,25.208,25.208,0,0,0,1.494-3.985c.677-2.23,1.255-4.491,2.021-6.692a27.53,27.53,0,0,1,1.662-4.1,11.473,11.473,0,0,1,1.708-2.294,6.141,6.141,0,0,1,2.375-1.584,1.615,1.615,0,0,1,1.36.056A7.259,7.259,0,0,0,511.785,350a20.256,20.256,0,0,0-1.049,3.3,8.565,8.565,0,0,0,1.78-.162A4.433,4.433,0,0,0,515,351.712a7.977,7.977,0,0,0,1.378-2.787,7.122,7.122,0,0,0,.236-3.213,3.393,3.393,0,0,0-1.191-2.16,3.677,3.677,0,0,0-2.429-.655,7.825,7.825,0,0,0-4.035,1.49m35.049,17.677a24.875,24.875,0,0,0-5.772,1.013,15.287,15.287,0,0,0-4.62,2.242,5.933,5.933,0,0,0-2.175,2.737,3.013,3.013,0,0,0,.265,2.388,7.1,7.1,0,0,0,2.222,2.328,16.462,16.462,0,0,0,5.111,2.245,26.627,26.627,0,0,0,6.438.838A24.317,24.317,0,0,0,555.368,374a10.7,10.7,0,0,0,3.876-2.737,3.636,3.636,0,0,0,.939-2.617,4.51,4.51,0,0,0-1.49-2.638,12.708,12.708,0,0,0-4.243-2.523,25.614,25.614,0,0,0-10.444-1.421" transform="translate(21376.912 -8161.198)" fill="#ee2324"/>
    <path id="Path_5444" data-name="Path 5444" d="M584.515,354.96a1.343,1.343,0,0,1,1.69,1.448,1.311,1.311,0,0,1-1.455,1.153,1.289,1.289,0,0,1-1.161-1.066,1.362,1.362,0,0,1,.926-1.535m-.017.236a1.161,1.161,0,0,0-.719,1.1,1.109,1.109,0,1,0,2.2-.27,1.12,1.12,0,0,0-1.477-.826" transform="translate(21376.912 -8161.198)" fill="#ee2324"/>
    <path id="Path_5445" data-name="Path 5445" d="M584.355,355.529a3,3,0,0,1,.928.058.384.384,0,0,1-.048.71c.242.141.247.432.25.678l-.264-.005c-.02-.146.023-.311-.058-.44-.14-.134-.35-.1-.524-.123,0,.188,0,.376,0,.565l-.281,0q0-.72,0-1.441m.283.161c0,.171,0,.343,0,.515.163-.021.366.053.5-.077a.245.245,0,0,0-.021-.387,2.035,2.035,0,0,0-.478-.051" transform="translate(21376.912 -8161.198)" fill="#ee2324"/>
    <path id="Path_5446" data-name="Path 5446" d="M545.482,363.165a15.281,15.281,0,0,1,5.742.222,3.537,3.537,0,0,1,2.185,1.322,1.292,1.292,0,0,1-.253,1.485,4.449,4.449,0,0,1-2.117,1.2,15.176,15.176,0,0,1-3.917.577,3.075,3.075,0,0,1,2.14,1.354,2.664,2.664,0,0,0,.826.945,5.525,5.525,0,0,0,1.713.547,22.6,22.6,0,0,1,2.519.6.255.255,0,0,1,.163.367.8.8,0,0,1-.739.489,9.563,9.563,0,0,1-1.683-.058,12.625,12.625,0,0,1-4.135-.989c-.8-.465-1.008-1.434-1.446-2.18a1.441,1.441,0,0,0-1.7-.653c-.5.71-.96,1.453-1.481,2.15a6.891,6.891,0,0,1-4.055,2.587,5.2,5.2,0,0,1-3.837-.733,2.051,2.051,0,0,1-.855-1.61,3.915,3.915,0,0,1,.734-2.4,12.415,12.415,0,0,1,4.176-3.345,17.291,17.291,0,0,1,6.018-1.873m-4.83,3.169a10.54,10.54,0,0,0-2.531,2.556,6.021,6.021,0,0,0-1.1,2.26,1.223,1.223,0,0,0,.687,1.2,2.018,2.018,0,0,0,1.612-.107,3.281,3.281,0,0,0,1.428-1.463,33.852,33.852,0,0,1,2.017-3.265,6.773,6.773,0,0,1,5.161-2.488,3.813,3.813,0,0,0-2.391,2.322,8.34,8.34,0,0,0,4.253-.888,2,2,0,0,0,1.03-1.34,1.22,1.22,0,0,0-.913-1.071,7.1,7.1,0,0,0-3.291-.164,13.707,13.707,0,0,0-5.964,2.452" transform="translate(21376.912 -8161.198)" fill="#ee2324"/>
  </g>
</svg>
