<svg xmlns="http://www.w3.org/2000/svg" width="137.541" height="26.548" viewBox="0 0 137.541 26.548">
  <g id="Group_4146" data-name="Group 4146" transform="translate(-62.715 -368.675)">
    <path id="Path_5344" data-name="Path 5344" d="M87.228,394.8H78.186c-.395,0-.307.028-.433-.286q-1.879-4.676-3.753-9.353a1.644,1.644,0,0,1-.066-.169c-.032-.118-.107-.151-.224-.151q-1.136.006-2.272,0c-.123,0-.192.028-.179.167.007.08,0,.161,0,.242q0,4.605,0,9.21c0,.372.049.338-.341.339H63.041c-.369,0-.324.038-.324-.32q0-12.74,0-25.48c0-.369-.031-.327.321-.327,4.736,0,9.472-.005,14.209.013a14.806,14.806,0,0,1,4.274.6,8.461,8.461,0,0,1,3.565,2.037,6.579,6.579,0,0,1,1.858,3.569,8.446,8.446,0,0,1-.249,4.276,6.038,6.038,0,0,1-1.986,2.8,10.327,10.327,0,0,1-2.165,1.322c-.309.145-.274.1-.148.387l4.7,10.8C87.132,394.57,87.169,394.662,87.228,394.8ZM73.589,374.25v-.01c-.7,0-1.393,0-2.09,0-.235,0-.239,0-.24.223q0,2.271,0,4.542c0,.222,0,.226.238.225,1.291,0,2.583.029,3.872-.076a5.224,5.224,0,0,0,1.59-.348,2.436,2.436,0,0,0,.911-.633,2.368,2.368,0,0,0-1.15-3.733,4.174,4.174,0,0,0-1.223-.19C74.861,374.245,74.225,374.25,73.589,374.25Z" transform="translate(0 -0.001)" fill="#b71f20"/>
    <path id="Path_5345" data-name="Path 5345" d="M200.225,377v-.364q0-3.756,0-7.513c0-.374-.048-.341.338-.341h7.24c.362,0,.331-.03.331.32v25.477c0,.36.03.331-.321.331h-6.967c-.25,0-.253,0-.254-.245,0-.667,0-1.333,0-2v-.369c-.146.044-.168.141-.21.213a5.3,5.3,0,0,1-4.3,2.715,8.534,8.534,0,0,1-3.56-.338,6.721,6.721,0,0,1-3.641-2.9,10.568,10.568,0,0,1-1.441-3.86,15.976,15.976,0,0,1,.231-6.847,9.176,9.176,0,0,1,1.8-3.664,6.812,6.812,0,0,1,4.2-2.392,7.793,7.793,0,0,1,3.976.23,6.747,6.747,0,0,1,2.263,1.313c.068.06.136.12.206.178A.948.948,0,0,0,200.225,377Zm-.03,7.741h-.007v-1.09c0-.374,0-.747,0-1.12,0-.283-.011-.566-.035-.847a2.221,2.221,0,0,0-.4-1.157,1.993,1.993,0,0,0-1.47-.8,2.035,2.035,0,0,0-2.223,1.156,3.264,3.264,0,0,0-.21.6,17.93,17.93,0,0,0-.471,3.381,11.609,11.609,0,0,0,.17,2.834,3.978,3.978,0,0,0,.687,1.662,2.182,2.182,0,0,0,3.1.324,2.634,2.634,0,0,0,.707-1.112,3.811,3.811,0,0,0,.154-1.226C200.2,386.473,200.195,385.6,200.195,384.737Z" transform="translate(-61.556 -0.05)" fill="#b72021"/>
    <path id="Path_5346" data-name="Path 5346" d="M153.884,392.31c-.125.005-.139.1-.176.163a5.311,5.311,0,0,1-4.372,2.751,8.521,8.521,0,0,1-3.5-.342,6.8,6.8,0,0,1-3.846-3.238,11.327,11.327,0,0,1-1.287-3.791,16.23,16.23,0,0,1-.179-3.562,12.7,12.7,0,0,1,1.265-5.165,7.17,7.17,0,0,1,2.912-3.118,7.48,7.48,0,0,1,2.934-.89,7.345,7.345,0,0,1,3.935.571,6.833,6.833,0,0,1,1.647,1.064.92.92,0,0,0,.3.223.8.8,0,0,0,.025-.332q0-3.772,0-7.544c0-.37-.04-.324.32-.324q3.62,0,7.24,0c.381,0,.331-.039.331.345q0,12.709,0,25.417c0,.421.049.364-.374.364q-3.408,0-6.816,0c-.375,0-.335.046-.336-.342,0-.657,0-1.313,0-1.969A.592.592,0,0,0,153.884,392.31Zm-.394-7.491h0q0-1.257,0-2.514a4.737,4.737,0,0,0-.058-.784,2.009,2.009,0,0,0-1-1.509,2.187,2.187,0,0,0-3.294,1.354c-.008.029-.011.06-.018.089a15.372,15.372,0,0,0-.389,2.265,13.982,13.982,0,0,0,.043,3.774,4.261,4.261,0,0,0,.711,1.846,2.167,2.167,0,0,0,3.442-.034,3.354,3.354,0,0,0,.565-1.913Q153.49,386.106,153.489,384.818Z" transform="translate(-38.468 -0.05)" fill="#b71f20"/>
    <path id="Path_5347" data-name="Path 5347" d="M256.4,394.417a8.515,8.515,0,0,1-4.263,5.414,11.72,11.72,0,0,1-4.188,1.323,17.037,17.037,0,0,1-4.8-.069,10.656,10.656,0,0,1-4.876-1.926,9.231,9.231,0,0,1-3.749-6.015,10.282,10.282,0,0,1,2.13-8.308,9.218,9.218,0,0,1,4-2.9,13.131,13.131,0,0,1,5.427-.893,12.363,12.363,0,0,1,4.726,1.057,9.181,9.181,0,0,1,5.1,5.8,12.449,12.449,0,0,1,.545,3.7c0,.293,0,.586,0,.879,0,.126-.037.19-.172.178-.08-.007-.161,0-.242,0q-6.453,0-12.907,0c-.417,0-.366-.061-.378.366a4.283,4.283,0,0,0,.147,1.289,2.5,2.5,0,0,0,2.127,1.9,4.788,4.788,0,0,0,2.013-.067,2.434,2.434,0,0,0,1.831-1.829c.113-.39.114-.381.518-.353.806.057,1.612.1,2.418.153l4.323.261C256.212,394.382,256.29,394.4,256.4,394.417Zm-10.882-5.523q1.334,0,2.667,0c.215,0,.217-.005.218-.217a4.466,4.466,0,0,0-.212-1.4,2.27,2.27,0,0,0-1.573-1.585,3.664,3.664,0,0,0-1.945-.048,2.426,2.426,0,0,0-1.616,1.269,3.7,3.7,0,0,0-.391,1.725c0,.255,0,.257.276.258Z" transform="translate(-84.892 -6.112)" fill="#b72021"/>
    <path id="Path_5348" data-name="Path 5348" d="M307.945,381.739q0-6.346,0-12.692c0-.419-.05-.37.37-.37q3.619,0,7.239,0c.369,0,.333-.05.333.345q0,12.722,0,25.444c0,.384.045.338-.337.338q-3.635,0-7.27,0c-.387,0-.335.029-.335-.344Q307.944,388.1,307.945,381.739Z" transform="translate(-121.281 0)" fill="#b71f20"/>
    <path id="Path_5349" data-name="Path 5349" d="M292.677,381.746v12.666c0,.392,0,.392-.406.392H285.12c-.386,0-.335.037-.335-.341q0-12.711,0-25.422c0-.419-.048-.363.376-.364q3.591,0,7.181,0c.371,0,.335-.049.335.344Q292.677,375.384,292.677,381.746Z" transform="translate(-109.827)" fill="#b71f20"/>
    <path id="Path_5350" data-name="Path 5350" d="M118.232,391.553q0-4.68,0-9.36c0-.383-.038-.337.341-.337q3.6,0,7.209,0c.061,0,.121,0,.181,0,.114-.009.17.034.161.154-.005.07,0,.141,0,.212v18.75c0,.04,0,.081,0,.121,0,.225,0,.229-.234.229h-7.421c-.28,0-.237-.016-.237-.289q0-3.65,0-7.3Z" transform="translate(-27.456 -6.518)" fill="#b71f20"/>
    <path id="Path_5351" data-name="Path 5351" d="M326.744,415.2a1.8,1.8,0,0,1,.841-1.553,2.081,2.081,0,0,1,3.109.921,2.045,2.045,0,0,1-3.778,1.55A2.119,2.119,0,0,1,326.744,415.2Zm2.008-1.684a1.566,1.566,0,0,0-.977.356,1.719,1.719,0,0,0-.651,1.82,1.679,1.679,0,0,0,1.379,1.279,1.434,1.434,0,0,0,.969-.138,1.775,1.775,0,0,0,.91-1.964A1.7,1.7,0,0,0,328.753,413.518Z" transform="translate(-130.579 -22.057)" fill="#b72021"/>
    <path id="Path_5352" data-name="Path 5352" d="M330.246,416.3l.645,1a.4.4,0,0,1-.558-.226c-.1-.206-.252-.39-.367-.591a.3.3,0,0,0-.3-.156c-.133,0-.175.053-.171.179.007.222-.006.445,0,.667.006.145-.068.163-.186.164s-.185-.019-.184-.162c.006-.677,0-1.354,0-2.03,0-.12.053-.155.165-.155.292,0,.585-.021.875-.023.641,0,.789.453.656.948a.412.412,0,0,1-.253.246C330.477,416.2,330.375,416.243,330.246,416.3Zm-.34-1.031h0c-.08,0-.161,0-.241,0-.107-.006-.159.025-.169.147-.051.589-.052.591.541.586.04,0,.08,0,.12,0a.352.352,0,0,0,.344-.377.314.314,0,0,0-.325-.351A2.544,2.544,0,0,0,329.906,415.267Z" transform="translate(-131.759 -22.892)" fill="#b72021"/>
  </g>
</svg>
