<svg xmlns="http://www.w3.org/2000/svg" width="112.771" height="112.772" viewBox="0 0 112.771 112.772">
  <g id="Group_4151" data-name="Group 4151" transform="translate(3168)">
    <path id="Path_5363" data-name="Path 5363" d="M-3168,0h112.772V112.772H-3168Z" transform="translate(0)" fill="rgba(255,255,255,0)"/>
    <path id="Path_5364" data-name="Path 5364" d="M-2057.756,901.764l3.784,13.876a26.554,26.554,0,0,0,3.24,6.733.951.951,0,0,1,.133.463.867.867,0,0,1-.861.859h-37.394v-27l2.844-1.548h-2.844v-4.815h14.776c7.3,0,14.417,4.445,16.322,11.429Zm-31.1,21.931h-7.117a.863.863,0,0,1-.845-.859V907.1c0-2.341-2.289-4.194-4.656-4.22a7.593,7.593,0,0,0-5.212,2.117l-.013-7.169a4.263,4.263,0,0,1,4.167-4.511h2.448a3.318,3.318,0,0,0,3.135-2.355.94.94,0,0,1,.833-.621h7.261v4.815h-2.831l1.323,2.368,1.507-.82v27Z" transform="translate(-1013.429 -850.173)" fill="#cc2229"/>
    <path id="Path_5365" data-name="Path 5365" d="M-3002.626,277.449h35.714a.971.971,0,0,0,.86-.859V225.809a.867.867,0,0,1,.86-.86h5.5a4.957,4.957,0,0,1,4.948,4.947v11.23a.855.855,0,0,0,.845.86h26.747a14.242,14.242,0,0,0,10.277-4.4,14.238,14.238,0,0,0,3.942-9.815,14.179,14.179,0,0,0-2.844-8.479,14.209,14.209,0,0,0-11.375-5.728h-75.476a.867.867,0,0,0-.86.86v62.169A.875.875,0,0,0-3002.626,277.449Zm84.616,14.127h10.938v-2.8h-6.666v-7.38h-4.272v10.185Zm-12.276,0h10.94v-2.8H-2926v-7.38h-4.287Zm-13.346,0h11.984v-2.632h-7.712v-1.363h5.926v-2.5h-5.926v-1.189h7.342v-2.5h-11.614v10.185Zm-15.516-3.1c.026,2.156,2.222,3.439,6.35,3.439,5.065,0,7.486-1.11,7.486-3.651,0-1.706-1.243-2.671-3.651-3.015l-3.835-.517c-1.085-.119-1.627-.25-1.627-.674s.542-.674,1.547-.674c1.27,0,2,.33,2.09.978h4.96c-.172-2.3-2.46-3.28-6.879-3.28-4.272,0-6.323.979-6.323,3.321,0,1.694,1.336,2.712,3.955,3.015l3.135.371c1.058.092,1.561.344,1.561.807s-.6.727-1.719.727c-1.151,0-1.826-.344-1.918-.847h-5.133Zm-14.867,0c.053,2.156,2.236,3.439,6.375,3.439,5.053,0,7.473-1.11,7.473-3.651,0-1.706-1.23-2.671-3.637-3.015l-3.836-.517c-1.085-.119-1.641-.25-1.641-.674s.555-.674,1.548-.674c1.282,0,2.011.33,2.1.978h4.961c-.185-2.3-2.448-3.28-6.879-3.28-4.272,0-6.323.979-6.323,3.321,0,1.694,1.309,2.712,3.954,3.015l3.149.371c1.045.092,1.548.344,1.548.807s-.6.727-1.732.727-1.825-.344-1.918-.847h-5.146Zm-10.383-7.089h-4.286v5.343c0,3.532,2.05,5.185,6.455,5.185,4.484,0,6.482-1.614,6.482-5.185v-5.343h-4.246v4.961c0,1.917-.45,2.724-2.236,2.724-1.719,0-2.169-.807-2.169-2.724v-4.961Zm-11.005,0h-1.879v2.593h.238c1.243,0,1.879.079,1.879.847s-.583.926-1.786.926h-.331v2.724h.384c1.058,0,1.468.252,1.547,1.019.093.847-.052,1.561.278,2.076h4.748V291.4c-.516-.212-.516-1.058-.608-2.54-.04-1.151-.172-1.706-1.363-2.169a2.7,2.7,0,0,0,1.825-2.593,2.456,2.456,0,0,0-1.283-2.209,8.559,8.559,0,0,0-3.65-.5Zm-1.879,0h-6.455v10.185h4.339v-3.1h2.116v-2.724h-2.116v-1.772h2.116v-2.593Zm85.278,19.431h4.829c-.133-2.884-2.646-4.538-7.236-4.538-4.894,0-7.393,1.865-7.393,5.384s2.5,5.4,7.393,5.4c4.365,0,6.826-1.533,7.289-4.325h-4.934a2.093,2.093,0,0,1-2.355,1.653,2.465,2.465,0,0,1-2.791-2.724,2.489,2.489,0,0,1,2.791-2.751,2.124,2.124,0,0,1,2.407,1.9Zm-14.643,6.071h4.3V296.709h-4.3Zm-9.417,0h4.232V299.3h3.968v-2.593h-12.169V299.3h3.969Zm-16.177,0h11.984V304.26h-7.712V302.9h5.927v-2.5h-5.927v-1.19h7.342v-2.5h-11.613v10.185Zm-12.262,0h10.926v-2.8h-6.627v-7.38h-4.3Zm-14.841-.132h4.273v-4.114h4.841v4.114H-2966V296.576h-4.233v3.532h-4.841v-3.532h-4.273Zm-9.445,0h4.246v-7.592h3.955v-2.593h-12.169v2.593h3.968v7.592Zm-8.994-7.05.066-.159,1.27,3.558h-1.336v2.514h2.289l.37,1.018h4.616l-4.431-10.185h-2.844Zm-1.349,3.4,1.349-3.4v-3.254h-2.539l-4.828,10.185h4.6l.41-1.018h2.354v-2.514h-1.349Z" transform="translate(-155.502 -203.927)" fill="#33348e"/>
    <path id="Path_5366" data-name="Path 5366" d="M-948.912,1722.28a2.644,2.644,0,0,0,2.659-2.63q0-.021,0-.042a2.62,2.62,0,0,0-2.659-2.633v.436a2.147,2.147,0,0,1,2.144,2.2,2.134,2.134,0,0,1-2.144,2.209Zm0-2.434v-.436c.4,0,.728-.012.728-.476,0-.383-.33-.449-.648-.449h-.08v-.4h.146c.714,0,1.072.278,1.072.859a.8.8,0,0,1-.782.847l.861,1.35h-.529l-.768-1.3Zm0-2.87a2.668,2.668,0,0,0-2.724,2.633,2.692,2.692,0,0,0,2.724,2.671v-.463a2.135,2.135,0,0,1-2.155-2.209,2.149,2.149,0,0,1,2.155-2.2Zm0,1.112v.4h-.555v.926h.555v.437l-.026-.026h-.529v1.323h-.463v-3.056Z" transform="translate(-2116.386 -1639.525)" fill="#33348e"/>
  </g>
</svg>
