<svg xmlns="http://www.w3.org/2000/svg" width="92.949" height="37.15" viewBox="0 0 92.949 37.15">
  <g id="Group_4161" data-name="Group 4161" transform="translate(-21873 7768.848)">
    <path id="Path_5436" data-name="Path 5436" d="M577.417,403.39v.581h2.324l-.291.872c-.289,3.481-2.905,9.223-2.905,12.492,0,.354.6.872,1.162.872h6.682v-.872l.291-.581.7-3.171-2.439-.025,2.324-9.3,2.613-.323.292-.549.872-3.777h-2.615l.291-.871.571-2.908c-1.661.392-6.353,3.779-6.963,3.779h-2.034l-.871,3.777Zm-11.912,0v.581h2.324l-.29.872c-.572,2.452-2.905,10.53-2.905,12.492,0,.354.6.872,1.162.872h6.682l.984-4.621-2.146-.028,1.743-8.425c.068-.82-.007-1.162.871-1.162h1.453c.561,0,.517-.091.872-.29l.871-4.068h-2.615l.291-.871.676-2.884c-2.259.483-6.053,3.755-7.649,3.755h-1.452l-.872,3.777Zm-9.51-3.757-5.6-.02-4.61,17.949c.776.415.763.645,1.414.645h.872l6.372-.985.019.985h5.52l4.544-18.548-5.706-.046a64.64,64.64,0,0,1-1.8,7.5c-.272,1.088-1.027,6.74-2.266,6.74l-2.346-.006,3.585-14.21Zm-15.475.561-1.449.329.287-.91,1.743-7.263-5.687.031-6.225,25.826,5.472-.012,3.535-14.224,3.014.027-3.6,14.209h5.81c0-4.679,4.068-13.309,4.068-17.722,0-.354-.6-.872-1.163-.872l-.888-.114-4.922.7ZM513.5,417.045a1.116,1.116,0,0,0,1.162,1.162h10.169c2.42,0,3.6-5.162,3.776-7.263l-5.526,0-.575,2.907-3-.024,2.421-9.854,2.9,0-.571,2.907h5.519c.049-2.187,1.163-3.758,1.163-6.1a1.117,1.117,0,0,0-1.163-1.162H519.021c-2.056,0-2.859,5.915-3.37,7.961-.569,2.274-2.15,7.3-2.15,9.471Zm-13.945-8.716c0,1.253,5.949,3.166,7.361,3.222l-.679,2.879-2.931-.005.316-2.029h-5.229c-.144,1.725-.872,2.692-.872,4.649a1.116,1.116,0,0,0,1.162,1.162h9.878c2.563,0,4.067-6.825,4.128-9.772L505.358,406l.589-2.613,2.862-.012-.537,2.046,5.4-.024.986-4.915c-.3-.452-.385-.872-1.162-.872H503.042c-1.965,0-3.486,6.557-3.486,8.716Zm86.171,9.878V416.93h-.457v-.26h1.222v.26h-.455v1.277Zm.961,0V416.67h.464l.279,1.048.276-1.048h.465v1.537h-.288V417l-.3,1.21h-.3l-.3-1.21v1.21Z" transform="translate(21376.912 -8161.198)" fill="#231f20" fill-rule="evenodd"/>
    <path id="Path_5437" data-name="Path 5437" d="M496.088,421.253h86.784L524.766,429.5l-28.678-8.247Z" transform="translate(21376.912 -8161.198)" fill="#ec1c24" fill-rule="evenodd"/>
  </g>
</svg>
