<svg xmlns="http://www.w3.org/2000/svg" width="164.25" height="177.201" viewBox="0 0 164.25 177.201">
  <g id="Group_4169" data-name="Group 4169" transform="translate(154.566 -878.845)">
    <path id="Path_5471" data-name="Path 5471" d="M-60.9,881.25l54.532,24.569A27.234,27.234,0,0,1,9.628,932.376l-4.646,73.076a27.232,27.232,0,0,1-14.525,22.389l-47.813,25.087a27.239,27.239,0,0,1-24.578.368l-52.244-25.445a27.233,27.233,0,0,1-15.245-22.608L-154.5,931.7a27.23,27.23,0,0,1,16.417-26.9l55.248-23.743A27.225,27.225,0,0,1-60.9,881.25Z" transform="translate(0)" fill="#fff"/>
    <path id="Path_5472" data-name="Path 5472" d="M-63.078,883.813l52.162,23.5a26.052,26.052,0,0,1,15.3,25.4l-4.443,69.9a26.049,26.049,0,0,1-13.895,21.414l-45.737,24a26.052,26.052,0,0,1-23.51.353l-49.975-24.339a26.052,26.052,0,0,1-14.581-21.626l-4.858-70.352a26.053,26.053,0,0,1,15.7-25.728l52.85-22.711A26.042,26.042,0,0,1-63.078,883.813Z" transform="translate(1.391 1.967)"/>
    <path id="Path_5473" data-name="Path 5473" d="M-48.513,904.811v22.66H-66.539V919.58H-82.683v29.609h13.827v-6.226h-5.936v-9.411h33.881v9.411h-7.746v21.284H-60.169l-5.611-5.611-5.647,5.647H-91.009L-106.3,948.99V933.335L-92.529,923.2l-3.113-2.027,24.9-15.13,3.982,4.778,4.416-6.153Z" transform="translate(35.593 19.042)" fill="#fff"/>
    <path id="Path_5474" data-name="Path 5474" d="M-68.455,904.847H-98.589l-5.457,5.457-5.538-5.538h-18.759l-13.18,13.18v14.321l10.364,10.364h20.626v8.586l5.267-4.615-1.629-1.52,15.366-13.954-4.507-4.4h-20.144v-9.5h12.217v4.941h18.026l9.99-8.307-2.715-.434Z" transform="translate(9.618 19.115)" fill="#fff"/>
    <path id="Path_5475" data-name="Path 5475" d="M-111.121,934.082h-14.3v-5.249h-16.145v17.411h11.186a7.033,7.033,0,0,0,4.163-4.851h1.809a11.367,11.367,0,0,0,1.92,2.9Z" transform="translate(9.589 36.864)" fill="#fff"/>
    <path id="Path_5476" data-name="Path 5476" d="M-99.866,926.115l3.679-2.862,1.574,1.349v14.227l-11.733,11.631h-20.584l29.9-22.955Z" transform="translate(20.381 32.749)" fill="#fff"/>
    <path id="Path_5477" data-name="Path 5477" d="M-67.07,902.594h16.995l-32.252,20.415,3.638,2.009-22.7,16.832,3.041,1.52-33.718,25.9,24.053-21.338-1.629-1.357,19.6-18.026-2.5-1.357,16.126-13.737-3.475-.109Z" transform="translate(16.595 17.514)" fill="#fef200"/>
    <path id="Path_5478" data-name="Path 5478" d="M-141.615,943.823h5.321v8.072h3.728V943.75h5.466v19.836h-5.43v-8h-3.728v8h-5.43Z" transform="translate(9.497 47.865)" fill="#fef200"/>
    <path id="Path_5479" data-name="Path 5479" d="M-130.693,943.792h11.4v3.764h-5.9v3.656h5.068v3.475h-5.321v5.068h6.045v3.728h-11.33Z" transform="translate(17.579 47.896)" fill="#fef200"/>
    <path id="Path_5480" data-name="Path 5480" d="M-99.339,943.792h11.4v3.764h-5.9v3.656h5.068v3.475H-94.09v5.068h6.045v3.728h-11.33Z" transform="translate(40.701 47.896)" fill="#fef200"/>
    <path id="Path_5481" data-name="Path 5481" d="M-121.771,943.813h5.321V959.7h6.733v3.837H-121.7Z" transform="translate(24.185 47.911)" fill="#fef200"/>
    <path id="Path_5482" data-name="Path 5482" d="M-112.656,943.75h6.95l2.226,9.773,2.5-9.665h7v19.655h-5V949.343l-2.986,14.117h-2.389l-3.2-14.063v14.28h-5.1Z" transform="translate(30.907 47.865)" fill="#fef200"/>
    <path id="Path_5483" data-name="Path 5483" d="M-90.75,943.8v3.746h3.692v15.909h5.43V947.5h4.072V943.75Z" transform="translate(47.062 47.865)" fill="#fef200"/>
    <path id="Path_5484" data-name="Path 5484" d="M-72.026,949.948h4.941V946.69l-3.8-2.878H-77.4l-3.692,2.552v5.81l4.126,2.878h4.778v4.561h-3.529v-2.389h-5.212v3.529l3.692,2.606h6.733l3.366-2.552v-6.516l-3.964-2.715H-75.61V947.5h3.584Z" transform="translate(54.183 47.911)" fill="#fef200"/>
  </g>
</svg>
