<svg xmlns="http://www.w3.org/2000/svg" width="213" height="93.493" viewBox="0 0 213 93.493">
  <g id="Group_4155" data-name="Group 4155" transform="translate(-3277.729 -504.762)">
    <g id="Group_4154" data-name="Group 4154" transform="translate(3296.757 547.654)">
      <path id="Path_5388" data-name="Path 5388" d="M3427.107,818.582v3.6h-5.557v5.584h3.961s1.825-.173,1.825,1.488v8.514a2.471,2.471,0,0,1-2.514,2.526h-6.613a2.8,2.8,0,0,1-.792-1.834v-1.973h4.512s.9.277.9-2.526-1.206-2.872-1.206-2.872h-3.168s-1.722-.277-1.722-1.73v-8.41s.138-2.838,2.824-2.838h6.613S3427.107,817.982,3427.107,818.582Z" transform="translate(-3416.729 -818.098)"/>
      <path id="Path_5389" data-name="Path 5389" d="M3854.523,822.394l1.137-3.823h8.679l1.55,3.823h-3.1v16.993s.069,1.314-.792,1.314h-4.478V823.778l-1.412-1.419Z" transform="translate(-3794.594 -818.506)"/>
      <path id="Path_5390" data-name="Path 5390" d="M4087.846,822.394l1.136-3.823h8.68l1.55,3.823h-3.1v16.993s.069,1.314-.792,1.314h-4.478V823.778l-1.412-1.419Z" transform="translate(-3995.977 -818.506)"/>
      <path id="Path_5391" data-name="Path 5391" d="M3957.421,823.409h5.419v-2.584a1.187,1.187,0,0,0-1.242-1.248h-5.876s-3.26-.183-3.26,2.171V830.5s-.138,1.676,1.377,1.676h2.985s1.378-.231,1.378,1.384v4.061h-5.189a8.92,8.92,0,0,0,.3,2.613c.362,1.125.74,1.331.74,1.331h7.1a2.888,2.888,0,0,0,2.428-2.94v-7.3s.241-2.457-1.653-2.457h-3.556a1.012,1.012,0,0,1-1.009-1.029Z" transform="translate(-3879.123 -819.372)"/>
      <path id="Path_5392" data-name="Path 5392" d="M4290.032,819.574h4.776v8.358l.734-.831,1.929-7.527h4.914l-2.847,9.88,2.847,12.112h-5.373l-1.378-6.805-1.332-1.523v8.328h-4.271a.885.885,0,0,1-.781-.945V820.553S4289.114,819.574,4290.032,819.574Z" transform="translate(-4169.806 -819.372)"/>
      <path id="Path_5393" data-name="Path 5393" d="M4404.561,819.574h7.81a1.01,1.01,0,0,1,1.007,1.012v2.881h-4.615v5.5h2.991a.869.869,0,0,1,.867.871v2.03a.869.869,0,0,1-.867.871h-2.991v4.949h4.891l-1.1,3.875h-9.024V819.574Z" transform="translate(-4268.446 -819.372)"/>
      <path id="Path_5394" data-name="Path 5394" d="M4269.08,1045.286h6.926a.9.9,0,0,1,.893.9v2.555h-4.092v4.88h2.652a.77.77,0,0,1,.769.772v1.8a.77.77,0,0,1-.769.772h-2.652v4.388h4.337l-.977,3.436h-8v-19.5Z" transform="translate(-4151.612 -1014.186)"/>
      <path id="Path_5395" data-name="Path 5395" d="M3815.182,1045.286h6.925a.9.9,0,0,1,.893.9v2.555h-4.093v4.88h2.652a.77.77,0,0,1,.769.772v1.8a.771.771,0,0,1-.769.772h-2.652v4.388h4.337l-.977,3.436h-8v-19.5Z" transform="translate(-3759.848 -1014.186)"/>
      <path id="Path_5396" data-name="Path 5396" d="M4613.167,819.574h7.756a1.222,1.222,0,0,1,1.22,1.225v1.779a.921.921,0,0,1-.918.923h-3.49v5.4h3.054a.76.76,0,0,1,.758.761v2.215a.76.76,0,0,1-.758.761H4617.6v8.928h-5.235V820.384A.808.808,0,0,1,4613.167,819.574Z" transform="translate(-4448.692 -819.372)"/>
      <path id="Path_5397" data-name="Path 5397" d="M4706.764,819.574h7.756a1.223,1.223,0,0,1,1.22,1.225v1.779a.921.921,0,0,1-.918.923h-3.49v5.4h3.054a.76.76,0,0,1,.758.761v2.215a.76.76,0,0,1-.758.761h-3.191v8.928h-5.235V820.384A.808.808,0,0,1,4706.764,819.574Z" transform="translate(-4529.477 -819.372)"/>
      <path id="Path_5398" data-name="Path 5398" d="M3642.118,837.541V821.326a2.471,2.471,0,0,0-2.674-2.751h-6.739a2.827,2.827,0,0,0-2.951,2.856V836.6c0,4.105,3.542,4.1,3.542,4.1h5.751A2.812,2.812,0,0,0,3642.118,837.541Zm-4.924-1.821a.762.762,0,0,1-.76.764h-.729a.762.762,0,0,1-.76-.764V823.544a.762.762,0,0,1,.76-.764h.729a.762.762,0,0,1,.76.764Z" transform="translate(-3600.594 -818.506)"/>
      <path id="Path_5399" data-name="Path 5399" d="M4091.383,1062v-14.29a2.178,2.178,0,0,0-2.356-2.424h-5.939a2.491,2.491,0,0,0-2.6,2.517v13.364c0,3.618,3.121,3.616,3.121,3.616h5.068A2.478,2.478,0,0,0,4091.383,1062Zm-4.339-1.7a.762.762,0,0,1-.76.764h-.462a.762.762,0,0,1-.76-.764v-10.549a.762.762,0,0,1,.76-.764h.462a.762.762,0,0,1,.76.764Z" transform="translate(-3989.627 -1014.187)"/>
      <path id="Path_5400" data-name="Path 5400" d="M4512.1,837.541V821.326a2.471,2.471,0,0,0-2.674-2.751h-6.739a2.827,2.827,0,0,0-2.951,2.856V836.6c0,4.105,3.542,4.1,3.542,4.1h5.751A2.812,2.812,0,0,0,4512.1,837.541Zm-4.924-1.821a.762.762,0,0,1-.76.764h-.729a.762.762,0,0,1-.76-.764V823.544a.762.762,0,0,1,.76-.764h.729a.762.762,0,0,1,.76.764Z" transform="translate(-4351.484 -818.506)"/>
      <path id="Path_5401" data-name="Path 5401" d="M3527.907,820.137h-8.631a.887.887,0,0,0-.9.9v21.014h3.789c1.01,0,.964-1.107.964-1.107v-5.007h4.707a2.729,2.729,0,0,0,2.87-2.746V822.234C3530.708,820.111,3527.907,820.137,3527.907,820.137Zm-1.952,11.669a.762.762,0,0,1-.76.764h-.729a.762.762,0,0,1-.76-.764v-7.234a.762.762,0,0,1,.76-.764h.729a.762.762,0,0,1,.76.764Z" transform="translate(-3504.463 -819.858)"/>
      <path id="Path_5402" data-name="Path 5402" d="M3753.105,818.53h-8.094s-1.447-.192-1.447,1.5v20.625h4.856v-6.3l1.24,1.73,1.206,4.567h5.029v-1.8l-2.1-5.364s2.256-.312,2.256-2.267v-9.65A2.859,2.859,0,0,0,3753.105,818.53Zm-1.929,11.4a.762.762,0,0,1-.76.764h-.729a.762.762,0,0,1-.76-.764V822.7a.762.762,0,0,1,.76-.764h.729a.762.762,0,0,1,.76.764Z" transform="translate(-3698.825 -818.465)"/>
      <path id="Path_5403" data-name="Path 5403" d="M3994.525,1045.292h-7.131s-1.274-.169-1.274,1.325v18.171h4.278v-5.548l1.093,1.525,1.062,4.023h4.43V1063.2l-1.851-4.726s1.988-.274,1.988-2v-8.5A2.519,2.519,0,0,0,3994.525,1045.292Zm-1.833,9.737a.762.762,0,0,1-.76.764h-.422a.762.762,0,0,1-.76-.764v-6.036a.762.762,0,0,1,.76-.764h.422a.762.762,0,0,1,.76.764Z" transform="translate(-3908.177 -1014.186)"/>
      <path id="Path_5404" data-name="Path 5404" d="M4180.52,819.574H4175.1l-4.225,21.992h5.143l.322-2.883h2.87l.54,2.883h5.27Zm-3.421,15.937.378-3.634h.792l.517,3.634Z" transform="translate(-4067.641 -819.372)"/>
      <path id="Path_5405" data-name="Path 5405" d="M3893.193,1045.286h3.489a.427.427,0,0,1,.426.428v15.171a.691.691,0,0,0,.689.692h.9a.69.69,0,0,0,.689-.692v-15.6h3.5a.427.427,0,0,1,.426.428v16.43a2.637,2.637,0,0,1-2.631,2.643H3895.4a2.637,2.637,0,0,1-2.63-2.643v-16.43A.427.427,0,0,1,3893.193,1045.286Z" transform="translate(-3827.603 -1014.186)"/>
      <path id="Path_5406" data-name="Path 5406" d="M4183.85,1045.286h-8.277v19.5h2.96a1.037,1.037,0,0,0,1.035-1.04v-4.5h3.651a2.6,2.6,0,0,0,2.595-2.607v-9.38A1.969,1.969,0,0,0,4183.85,1045.286Zm-2.024,10.2a.762.762,0,0,1-.76.764h-.422a.763.763,0,0,1-.761-.764v-6.036a.763.763,0,0,1,.761-.764h.422a.762.762,0,0,1,.76.764Z" transform="translate(-4071.696 -1014.186)"/>
    </g>
    <path id="Path_5407" data-name="Path 5407" d="M3277.729,547.929l66.391,1.643s11.088,16.974,28.884,22.039,35.831.684,35.831.684-4.141,5-22.758,6.16a82.983,82.983,0,0,1-33.2-4.791l-35.18-2.259s17.316-.8,17.613-1.118.388-2.6-.068-2.669-28.45-5.019-28.45-5.019,25.324-.023,26.465,0,2.19-.251,2.19-1.369-.388-2.031-2.145-2.281S3277.729,547.929,3277.729,547.929Z" transform="translate(0 -37.258)"/>
    <path id="Path_5408" data-name="Path 5408" d="M3900.979,517.986s17.488-6.3,33.641-5.065,26.37,4.517,26.37,4.517l67.673-3.559-56.125,11.864v2.875h27.652l-27.378,5.567v1.6l16.244,1-29.317,3.24a29.805,29.805,0,0,0-15.879-19.849C3930.376,513.606,3900.979,517.986,3900.979,517.986Z" transform="translate(-537.934 -6.905)"/>
    <path id="Path_5409" data-name="Path 5409" d="M3297.729,542.929l66.391,1.643s11.088,16.974,28.884,22.039,35.831.684,35.831.684-4.141,5-22.758,6.16a82.982,82.982,0,0,1-33.2-4.791l-35.18-2.259s17.316-.8,17.613-1.118.388-2.6-.068-2.669-28.45-5.019-28.45-5.019,25.325-.023,26.465,0,2.19-.251,2.19-1.369-.388-2.031-2.145-2.281S3297.729,542.929,3297.729,542.929Z" transform="translate(-17.262 -32.943)" fill="#443bd6"/>
    <path id="Path_5410" data-name="Path 5410" d="M3425.041,814.577v3.559h-5.521v5.521h3.936s1.814-.171,1.814,1.472v8.419a2.447,2.447,0,0,1-2.5,2.5H3416.2a2.768,2.768,0,0,1-.787-1.814v-1.951h4.483s.89.274.89-2.5-1.2-2.84-1.2-2.84h-3.148s-1.711-.274-1.711-1.711v-8.316s.137-2.806,2.806-2.806h6.571S3425.041,813.984,3425.041,814.577Z" transform="translate(-118.246 -266.992)" fill="#fff"/>
    <path id="Path_5411" data-name="Path 5411" d="M3849.729,818.346l1.129-3.78h8.624l1.54,3.78h-3.08v16.8s.068,1.3-.787,1.3h-4.449V819.715l-1.4-1.4Z" transform="translate(-493.699 -267.395)" fill="#fff"/>
    <path id="Path_5412" data-name="Path 5412" d="M4081.562,818.346l1.129-3.78h8.624l1.54,3.78h-3.08v16.8s.068,1.3-.787,1.3h-4.449V819.715l-1.4-1.4Z" transform="translate(-693.797 -267.395)" fill="#fff"/>
    <path id="Path_5413" data-name="Path 5413" d="M3951.97,819.35h5.384v-2.555a1.175,1.175,0,0,0-1.234-1.234h-5.839s-3.24-.181-3.24,2.147v8.656s-.137,1.657,1.369,1.657h2.966s1.369-.228,1.369,1.369V833.4h-5.156a8.779,8.779,0,0,0,.3,2.584c.359,1.112.736,1.316.736,1.316h7.05a2.862,2.862,0,0,0,2.413-2.908v-7.221s.24-2.43-1.643-2.43h-3.534a1,1,0,0,1-1-1.018Z" transform="translate(-577.688 -268.251)" fill="#fff"/>
    <path id="Path_5414" data-name="Path 5414" d="M4282.459,815.557h4.745v8.264l.73-.821,1.916-7.443h4.882l-2.829,9.77,2.829,11.976h-5.338l-1.369-6.729-1.323-1.506V837.3h-4.243a.877.877,0,0,1-.776-.934V816.525S4281.546,815.557,4282.459,815.557Z" transform="translate(-866.517 -268.251)" fill="#fff"/>
    <path id="Path_5415" data-name="Path 5415" d="M4396.256,815.557h7.76a1,1,0,0,1,1,1v2.849h-4.586v5.441h2.972a.861.861,0,0,1,.861.861v2.008a.861.861,0,0,1-.861.861h-2.972v4.894h4.86l-1.1,3.832h-8.966V815.557Z" transform="translate(-964.526 -268.251)" fill="#fff"/>
    <path id="Path_5416" data-name="Path 5416" d="M4261.639,1038.749h6.881a.887.887,0,0,1,.887.887v2.526h-4.066v4.825h2.635a.764.764,0,0,1,.764.764v1.78a.764.764,0,0,1-.764.764h-2.635v4.339h4.309l-.971,3.4h-7.951v-19.283Z" transform="translate(-848.438 -460.89)" fill="#fff"/>
    <path id="Path_5417" data-name="Path 5417" d="M3810.639,1038.749h6.881a.887.887,0,0,1,.887.887v2.526h-4.066v4.825h2.635a.764.764,0,0,1,.764.764v1.78a.764.764,0,0,1-.764.764h-2.635v4.339h4.309l-.971,3.4h-7.951v-19.283Z" transform="translate(-459.175 -460.89)" fill="#fff"/>
    <path id="Path_5418" data-name="Path 5418" d="M4603.53,815.557h7.706a1.212,1.212,0,0,1,1.212,1.212v1.759a.913.913,0,0,1-.913.913h-3.468v5.339h3.035a.753.753,0,0,1,.753.753v2.19a.753.753,0,0,1-.753.753h-3.171V837.3h-5.2V816.358A.8.8,0,0,1,4603.53,815.557Z" transform="translate(-1143.622 -268.251)" fill="#fff"/>
    <path id="Path_5419" data-name="Path 5419" d="M4696.53,815.557h7.706a1.212,1.212,0,0,1,1.212,1.212v1.759a.913.913,0,0,1-.913.913h-3.468v5.339h3.035a.753.753,0,0,1,.753.753v2.19a.753.753,0,0,1-.753.753h-3.171V837.3h-5.2V816.358A.8.8,0,0,1,4696.53,815.557Z" transform="translate(-1223.891 -268.251)" fill="#fff"/>
    <path id="Path_5420" data-name="Path 5420" d="M3638.68,833.325V817.29a2.452,2.452,0,0,0-2.657-2.72h-6.7a2.8,2.8,0,0,0-2.932,2.824v15c0,4.059,3.519,4.058,3.519,4.058h5.715A2.785,2.785,0,0,0,3638.68,833.325Zm-4.892-1.8a.756.756,0,0,1-.756.756h-.725a.756.756,0,0,1-.756-.756V819.484a.756.756,0,0,1,.756-.756h.725a.756.756,0,0,1,.756.756Z" transform="translate(-300.938 -267.396)" fill="#fff"/>
    <path id="Path_5421" data-name="Path 5421" d="M4085.076,1055.279v-14.13a2.161,2.161,0,0,0-2.341-2.4h-5.9a2.468,2.468,0,0,0-2.583,2.489v13.215c0,3.577,3.1,3.576,3.1,3.576h5.036A2.454,2.454,0,0,0,4085.076,1055.279Zm-4.311-1.676a.756.756,0,0,1-.756.756h-.459a.756.756,0,0,1-.756-.756v-10.431a.756.756,0,0,1,.756-.756h.459a.756.756,0,0,1,.756.756Z" transform="translate(-687.487 -460.89)" fill="#fff"/>
    <path id="Path_5422" data-name="Path 5422" d="M4503.108,833.325V817.29a2.452,2.452,0,0,0-2.657-2.72h-6.7a2.8,2.8,0,0,0-2.932,2.824v15c0,4.059,3.519,4.058,3.519,4.058h5.715A2.785,2.785,0,0,0,4503.108,833.325Zm-4.893-1.8a.756.756,0,0,1-.755.756h-.725a.756.756,0,0,1-.756-.756V819.484a.756.756,0,0,1,.756-.756h.725a.756.756,0,0,1,.755.756Z" transform="translate(-1047.035 -267.396)" fill="#fff"/>
    <path id="Path_5423" data-name="Path 5423" d="M3525.2,816.114h-8.576a.878.878,0,0,0-.892.892v20.779h3.764c1,0,.958-1.1.958-1.1V831.74h4.677a2.7,2.7,0,0,0,2.852-2.715V818.188C3527.98,816.089,3525.2,816.114,3525.2,816.114Zm-1.939,11.539a.756.756,0,0,1-.756.756h-.725a.756.756,0,0,1-.756-.756V820.5a.756.756,0,0,1,.756-.756h.725a.756.756,0,0,1,.756.756Z" transform="translate(-205.42 -268.732)" fill="#fff"/>
    <path id="Path_5424" data-name="Path 5424" d="M3748.958,814.525h-8.042s-1.437-.19-1.437,1.487v20.4h4.825V830.18l1.232,1.711,1.2,4.516h5v-1.778l-2.088-5.3s2.242-.308,2.242-2.242v-9.542A2.831,2.831,0,0,0,3748.958,814.525Zm-1.916,11.272a.756.756,0,0,1-.756.756h-.725a.755.755,0,0,1-.755-.756v-7.153a.755.755,0,0,1,.755-.756h.725a.756.756,0,0,1,.756.756Z" transform="translate(-398.541 -267.355)" fill="#fff"/>
    <path id="Path_5425" data-name="Path 5425" d="M3988.837,1038.755h-7.085s-1.266-.167-1.266,1.31v17.968h4.251v-5.486l1.085,1.507,1.055,3.979h4.4v-1.567l-1.839-4.673s1.975-.271,1.975-1.975v-8.406A2.493,2.493,0,0,0,3988.837,1038.755Zm-1.822,9.628a.756.756,0,0,1-.756.756h-.419a.755.755,0,0,1-.756-.756v-5.969a.756.756,0,0,1,.756-.756h.419a.756.756,0,0,1,.756.756Z" transform="translate(-606.557 -460.891)" fill="#fff"/>
    <path id="Path_5426" data-name="Path 5426" d="M4173.644,815.557h-5.384l-4.2,21.746h5.111l.319-2.85h2.852l.536,2.85h5.236Zm-3.4,15.759.376-3.593h.787l.514,3.593Z" transform="translate(-765.004 -268.251)" fill="#fff"/>
    <path id="Path_5427" data-name="Path 5427" d="M3888.152,1038.749h3.466a.423.423,0,0,1,.423.423v15a.684.684,0,0,0,.684.684h.89a.684.684,0,0,0,.684-.684v-15.425h3.478a.423.423,0,0,1,.423.423v16.247a2.614,2.614,0,0,1-2.614,2.614h-5.244a2.614,2.614,0,0,1-2.614-2.614v-16.247A.423.423,0,0,1,3888.152,1038.749Z" transform="translate(-526.498 -460.89)" fill="#fff"/>
    <path id="Path_5428" data-name="Path 5428" d="M3890.979,509.986s17.488-6.3,33.641-5.065,26.37,4.517,26.37,4.517l67.673-3.559-56.125,11.864v2.875h27.652l-27.378,5.567v1.6l16.244,1-29.317,3.24a29.805,29.805,0,0,0-15.879-19.849C3920.376,505.606,3890.979,509.986,3890.979,509.986Z" transform="translate(-529.303)" fill="#443bd6"/>
    <path id="Path_5429" data-name="Path 5429" d="M4176.953,1038.749h-8.224v19.283h2.941A1.028,1.028,0,0,0,4172.7,1057v-4.45h3.627a2.578,2.578,0,0,0,2.578-2.578V1040.7A1.951,1.951,0,0,0,4176.953,1038.749Zm-2.011,10.086a.756.756,0,0,1-.755.756h-.419a.756.756,0,0,1-.756-.756v-5.969a.756.756,0,0,1,.756-.756h.419a.756.756,0,0,1,.755.756Z" transform="translate(-769.032 -460.89)" fill="#fff"/>
  </g>
</svg>
