<svg xmlns="http://www.w3.org/2000/svg" width="327" height="177.2" viewBox="0 0 327 177.2">
  <g id="Group_4167" data-name="Group 4167" transform="translate(-202.484 -591.889)">
    <path id="Path_5454" data-name="Path 5454" d="M277.932,768.013c-42.359-6.287-73.335-42.977-75.343-83.2-1.907-38.405,22.35-75.242,59.743-88.193,36.868-12.758,79.336.989,100.928,32.667.178.271.278.587.765,1.622-6.688,0-13.051.069-19.415-.047-1.869-.03-2.711-1.938-3.946-3.042-21.168-18.874-45.579-24.813-72.377-15.839-27.207,9.12-43.95,28.844-48.445,57.148-4.394,27.655,4.95,51.178,27.308,68.331,22.481,17.237,47.564,20.01,73.428,8.634,4.943-2.178,16.357-7.615,16.357-7.615l9.507.965-3.328-9.051a71.173,71.173,0,0,0,7-8,60.676,60.676,0,0,0,5.954-9.815l17.029.139s-1.467,4.665-2.286,6.294a89.277,89.277,0,0,1-41.88,41.378C319.766,764.823,296,771.773,277.932,768.013Z" transform="translate(0 0)" fill="#d23d39"/>
    <path id="Path_5455" data-name="Path 5455" d="M243.228,694.44H217.1c2.417-3.815,5.035-7.12,6.781-10.835,12-25.616,23.786-51.341,35.756-76.98,1.483-3.166-.934-4.942-2.487-8.263,13.646,0,26.551.016,39.463-.015,2.711-.008,2.634,2.278,3.259,3.861q14.387,36.374,28.7,72.779a4.873,4.873,0,0,0,2.108,2.665c0-4.765.008-9.53-.008-14.295-.046-14.882-.139-29.764-.147-44.637-.008-13.105,6.557-20.118,19.7-20.3,23.261-.324,46.522-.263,69.783-.433,2.464-.023,3.769.549,3.977,3.3.378,4.889,2.193,9.6,2.047,14.589-14.349-3.2-28.667-1.259-42.9-1.63-2.726-.069-5.46.17-8.194.217-6.541.115-8.348,1.745-8.433,8.718-.139,12.141-.016,24.289.008,36.428.008,3.421-.031,6.843.139,10.256.294,5.707,2.147,7.761,7.731,8.132,4.085.278,8.209.154,12.31.039,3.83-.116,6.086-2.225,6.194-6.078.155-5.638-.023-11.291.1-16.928.046-2.294-.919-2.989-3.043-2.935-4.773.124-9.584-.2-14.21,1.32-2.193.718-3.275.248-2.973-2.224a2.9,2.9,0,0,0,0-.518c-.61-14-.61-14,13.43-14h44.954c-4.078,19.067-3.745,37.942.07,57.171-8.7,0-18.071-.123-27.439.054-4.1.069-2.409-3.776-4.417-5.684-2.587,4.657-7,5.5-11.669,5.521-12.82.078-25.639-.115-38.444.186-4.394.108-8.927-4.232-13.2.277-13.685,0-27.369-.023-41.054.016-2.433.008-2.595-.518-1.908-2.958,2.363-8.4-2.958-15.028-5.854-22.18-.479-1.167-1.738-.656-2.742-.649-10.433.062-20.875.27-31.3.008-3.576-.092-5.29,1.174-6.31,4.348a42.472,42.472,0,0,1-2.633,6.1C241.776,683.752,240.093,688.671,243.228,694.44Zm25.5-73.528c-4.085,9.321-7.638,17.615-11.36,25.832-1.073,2.371-.989,3.375,1.954,3.321,6.147-.116,12.3-.069,18.45-.016,2.054.016,2.8-.409,1.853-2.641C276.057,638.976,272.644,630.473,268.728,620.913Z" transform="translate(98.27 40.967)" fill="#262223"/>
    <path id="Path_5456" data-name="Path 5456" d="M301.888,616.473c-9.043-3.87-18.009-1.955-26.782-2.41-3.382-.178-2.124,2.486-2.124,4.008-.023,18.8.1,37.6.1,56.407,0,6.51.062,12.974,3.738,19.3H233.666c3.753-6.757,3.421-13.9,3.359-21.067-.162-18.118-.232-36.235-.116-54.353.023-3.5-1.135-4.378-4.4-4.193-7.947.455-16.063-.9-24.551,2.672.834-5.923,1.591-11.515,2.417-17.1.262-1.792,1.807-1.243,2.865-1.243,27.516-.155,55.032-.24,82.548-.425,2.572-.023,3.6.811,3.877,3.421C300.182,606.364,301.085,611.2,301.888,616.473Z" transform="translate(36.791 41.545)" fill="#262223"/>
    <path id="Path_5457" data-name="Path 5457" d="M227.178,602.77l4.34,9.136H223.3Z" transform="translate(139.944 73.149)" fill="#d23d39"/>
  </g>
</svg>
