<svg xmlns="http://www.w3.org/2000/svg" width="75.586" height="56.702" viewBox="0 0 75.586 56.702">
  <g id="Group_4163" data-name="Group 4163" transform="translate(-21877.664 7633.944)">
    <path id="Path_5434" data-name="Path 5434" d="M575.881,534.3s-2.167-1.678-9.186-4.255a51.23,51.23,0,0,0-10.863-2.788l.023,13.442c0,5.681-6.42,11.714-17.384,11.714h-.314c-10.963,0-17.381-6.033-17.381-11.714l.022-13.442a51.262,51.262,0,0,0-10.861,2.788c-7.019,2.577-9.186,4.255-9.186,4.255.52,10.78,17.267,19.662,37.561,19.667h.005c20.295-.005,37.046-8.887,37.564-19.667" transform="translate(21376.912 -8161.198)"/>
    <path id="Path_5435" data-name="Path 5435" d="M575.891,564.481s-2.168,1.673-9.186,4.253a51.156,51.156,0,0,1-10.864,2.785l.024-13.439c0-5.68-6.42-11.71-17.385-11.71l-.154-.005h-.005l-.152.005c-10.965,0-17.383,6.03-17.383,11.71l.024,13.439a51.124,51.124,0,0,1-10.863-2.785c-7.017-2.58-9.188-4.253-9.188-4.253.52-10.779,17.271-19.66,37.567-19.667s37.047,8.888,37.565,19.667m-71.483,19.446a1.574,1.574,0,0,1-1.742-1.806V579.75c0-.147-.009-.337.3-.337h.881c.29,0,.274.2.274.337v2.371a.569.569,0,0,0,.651.623h1.483a.571.571,0,0,0,.646-.623V579.75c0-.137-.02-.337.268-.337h.894c.321,0,.292.2.292.337v2.371a1.576,1.576,0,0,1-1.746,1.806m6-.29c-.6-.812-1.466-1.834-2.345-2.918v2.889c0,.128.031.319-.271.319h-.825c-.3,0-.263-.19-.263-.319v-3.864c0-.132-.012-.332.263-.332h1.609c.454,0,1.1.912,1.525,1.52.331.456.934,1.15,1.341,1.673v-2.861c0-.133-.017-.333.282-.333h.9c.285,0,.269.2.269.333v4.182h-1.651a.891.891,0,0,1-.83-.289m3.027.29v-4.51h3.985a1.663,1.663,0,0,1,1.879,1.687c0,1.754.188,2.823-1.846,2.823H517.5l-.463-.941v.941m2.366-1.188c.725,0,.67-.694.67-1.012,0-1.065-.3-1.108-.777-1.108h-2.274v2.119Zm3.65-3.293h3.673c.309,0,.269.2.269.579,0,.352.048.552-.269.552h-2.9c-.076,0-.342-.038-.342.233s-.05.385.24.385h2.566l.414.821c.059.114.052.215-.174.215H523.87l-.411-.8v1.184c0,.275.245.223.316.223h3.015c.3,0,.274.209.274.551,0,.366.026.571-.274.571h-3.816c-.318,0-.938-.1-.938-1.094v-2.485a.916.916,0,0,1,1.017-.931m4.933-.029H532c.539,0,1.323-.005,1.323,1.45,0,.95-.2,1-.635,1.292.725.124.628,1.05.628,1.53,0,.243-.088.238-.16.238h-1.178c-.247,0-.188-.39-.188-.594,0-.551-.309-.528-.43-.528H529.63c-.167-.29-.49-.936-.49-.936v1.872l-.221.185h-1.186l-.118-.147v-3.973a.36.36,0,0,1,.371-.389m3.2,1.193H529.4c-.3,0-.285.1-.285.19v.807h1.841c.894,0,.894-.223.894-.456,0-.465-.038-.541-.661-.541m9.06-1.164c.3,0,.582.133.892.736.209.433,1.668,3.07,1.977,3.621v.152h-1.521l-.438-.793h-1.849l-.4-.908c-.114.185-.724,1.344-.933,1.7h-1.526v-.1c.312-.584,2.436-4.41,2.436-4.41m.887,1.251-.746,1.354.069.067h1.383l.069-.067-.706-1.359-.069.005m4.308-1.279H548.1c.537,0,1.321-.005,1.321,1.45,0,.95-.2,1-.632,1.292.728.124.627,1.05.627,1.53,0,.243-.09.238-.162.238h-1.178c-.247,0-.185-.39-.185-.594,0-.551-.309-.528-.428-.528h-1.739c-.166-.29-.49-.936-.49-.936v1.872l-.218.185h-1.188l-.119-.147v-3.973a.36.36,0,0,1,.37-.389m3.2,1.193h-1.792c-.3,0-.284.1-.284.19v.807h1.843c.889,0,.889-.223.889-.456,0-.465-.033-.541-.656-.541m5.65,3.317c-.3-.561-1.131-2.11-1.691-3.127v2.814c0,.118.019.313-.271.313h-.813c-.3,0-.28-.2-.28-.313V579.75c0-.138-.019-.333.28-.333h1.407c.209,0,.508-.048.841.622.252.537.784,1.654,1.155,2.244.371-.59.918-1.707,1.169-2.244.328-.67.618-.622.856-.622h1.4c.284,0,.251.2.251.333v3.864c0,.118.043.313-.251.313h-.823c-.3,0-.275-.2-.275-.313V580.8c-.571,1.017-1.393,2.566-1.706,3.127m4.86.009c-1.33,0-1.273-1.425-1.273-2.356,0-.847-.095-2.172,1.572-2.186h2.966c1.673,0,1.563,1.345,1.563,2.186,0,.931.067,2.356-1.287,2.356m-.861-1.159c.676,0,.651-.7.651-1.164,0-.423.1-1.079-.779-1.079H560.1c-.874,0-.77.656-.77,1.079,0,.466-.043,1.164.632,1.164Zm4.377,1.15a1.574,1.574,0,0,1-1.739-1.806V579.75c0-.147-.009-.337.295-.337h.885c.289,0,.27.2.27.337v2.371a.569.569,0,0,0,.651.623h1.482a.571.571,0,0,0,.647-.623V579.75c0-.137-.014-.337.27-.337h.889c.323,0,.3.2.3.337v2.371a1.574,1.574,0,0,1-1.749,1.806m2.7-4.51h4.021c.537,0,1.32-.005,1.32,1.45,0,.95-.2,1-.636,1.292.727.124.632,1.05.632,1.53,0,.243-.09.238-.162.238h-1.178c-.243,0-.186-.39-.186-.594,0-.551-.313-.528-.432-.528H572.64c-.166-.29-.489-.936-.489-.936v1.872l-.224.185h-1.183l-.119-.147v-3.973a.361.361,0,0,1,.371-.389m3.2,1.193h-1.787c-.3,0-.285.1-.285.19v.807h1.844c.888,0,.888-.223.888-.456,0-.465-.037-.541-.66-.541" transform="translate(21376.912 -8161.198)"/>
  </g>
</svg>
