<svg xmlns="http://www.w3.org/2000/svg" width="147.971" height="29.774" viewBox="0 0 147.971 29.774">
  <g id="Group_4145" data-name="Group 4145" transform="translate(-93.898 -461.244)">
    <path id="Path_5333" data-name="Path 5333" d="M130.866,474.648c.531,2.653-.882,3.973-3.174,4.794-1.1.395-2.127,1.012-3.2,1.507-3.64,1.69-7.3,3.342-10.919,5.073a2.361,2.361,0,0,1-2.27.03c-5.09-2.412-10.2-4.774-15.317-7.136a3.218,3.218,0,0,1-2.076-3.213c.017-.923.016-1.848-.011-2.77-.017-.6.08-.819.741-.507q6.843,3.223,13.715,6.384a1.878,1.878,0,0,1,.952,1.007q1.3,2.8,2.621,5.588c.118.251.164.667.53.606.177-.03.333-.362.439-.586.755-1.593,1.554-3.168,2.215-4.8a4.011,4.011,0,0,1,2.222-2.262c4.288-1.949,8.559-3.938,12.825-5.935.57-.266.725-.131.705.449S130.866,474.057,130.866,474.648Z" transform="translate(0.002 4.689)"/>
    <path id="Path_5334" data-name="Path 5334" d="M191.554,485.267c-1.516,0-3.032-.024-4.546.011-.744.018-.9-.067-.645-.9.617-2.013,1.785-2.76,3.9-2.486a39.023,39.023,0,0,0,4.985.043,6.252,6.252,0,0,0,2.285-.362,3.023,3.023,0,0,0,1.818-3.509c-.172-.645-.729-.8-1.247-.962-2.637-.826-5.277-1.647-7.925-2.433-2.617-.778-3.983-2.154-4.171-4.284a6.53,6.53,0,0,1,3.412-6.351,9.563,9.563,0,0,1,4.086-.866c2.772-.03,5.545,0,8.317-.019.69,0,.986-.023.623.883a3.607,3.607,0,0,1-4.022,2.5,27.235,27.235,0,0,0-6.521.161,2.873,2.873,0,0,0-2.289,1.859c-.543,1.369-.363,2.415,1.17,2.841,2.661.739,5.288,1.6,7.925,2.422,2.54.794,3.936,2.227,4.043,4.12.169,3.012-1.1,5.391-3.451,6.515a8.716,8.716,0,0,1-3.753.815C194.216,485.273,192.885,485.266,191.554,485.267Z" transform="translate(39.105 0.809)"/>
    <path id="Path_5335" data-name="Path 5335" d="M169.159,481.943c1.479,0,2.958,0,4.436,0,.608,0,.885-.088.593.825-.674,2.106-1.875,2.824-4.059,2.559-1.895-.228-3.841.009-5.759-.081-3.727-.175-6.15-2.136-6.532-5.8a44.818,44.818,0,0,1,.07-10.833,5.834,5.834,0,0,1,5.37-5.22c3.526-.494,7.086-.11,10.631-.224.453-.014.567.145.379.615-.912,2.271-1.554,2.683-4.065,2.727a37.513,37.513,0,0,0-6.414.169,3.05,3.05,0,0,0-2.754,3.317q-.03,4.214,0,8.428a3.14,3.14,0,0,0,3.12,3.458c.841.093,1.7.056,2.546.066C167.533,481.952,168.347,481.945,169.159,481.943Z" transform="translate(27.029 0.799)"/>
    <path id="Path_5336" data-name="Path 5336" d="M128.049,463.18c1.131-.318,1.74.3,2.288,1.5,2.8,6.15,5.7,12.254,8.581,18.364a1.143,1.143,0,0,1,.024,1.134c-.419.818-.791,1.658-1.167,2.495-.108.238-.171.534-.483.53-.279,0-.258-.319-.343-.5q-4.548-9.674-9.081-19.357c-.483-1.03-.942-2.072-1.436-3.1-.507-1.051-.5-1.071.645-1.073C127.336,463.178,127.595,463.18,128.049,463.18Z" transform="translate(13.679 0.787)"/>
    <path id="Path_5337" data-name="Path 5337" d="M179.84,474.265c0,3.327-.029,6.653.021,9.98.013.852-.252,1.056-1.067,1.044-2.3-.031-2.3.006-2.3-2.241,0-6.246.021-12.493-.024-18.739-.007-.962.293-1.193,1.2-1.168,2.166.06,2.167.018,2.167,2.141Z" transform="translate(35.067 0.805)"/>
    <path id="Path_5338" data-name="Path 5338" d="M151.632,474.337c0,3.321-.026,6.643.02,9.963.011.8-.245.989-1,.987-2.366-.007-2.366.023-2.366-2.382,0-6.236.017-12.473-.021-18.709,0-.853.261-1.063,1.07-1.054,2.3.024,2.3-.009,2.3,2.339Q151.631,469.909,151.632,474.337Z" transform="translate(23.087 0.806)"/>
    <path id="Path_5339" data-name="Path 5339" d="M106.328,476.346c-2.465-1.141-4.86-2.248-7.252-3.361-.9-.419-1.769-.92-2.7-1.267a3.448,3.448,0,0,1-2.468-3.842c.037-.51.006-1.026.006-1.711,2.107.97,4.033,2.049,6.089,2.757a8.019,8.019,0,0,1,5.655,5.714C105.81,475.182,106.271,475.618,106.328,476.346Z" transform="translate(0 2.09)"/>
    <path id="Path_5340" data-name="Path 5340" d="M111.133,476.064c.833-1.735,1.645-3.48,2.51-5.2.227-.45.8-.493,1.224-.692,2.661-1.248,5.335-2.473,7.991-3.737.519-.246.732-.234.7.4a12.46,12.46,0,0,0-.007,1.547,2.888,2.888,0,0,1-1.812,3c-3.448,1.636-6.918,3.227-10.379,4.835Z" transform="translate(7.319 2.141)"/>
    <path id="Path_5341" data-name="Path 5341" d="M137.686,474.293c-1.989,0-2,0-1.172-1.779q1.735-3.744,3.493-7.478a3.534,3.534,0,0,1,4.066-1.846c.453.127.343.328.194.645-1.522,3.213-3.064,6.418-4.518,9.662C139.252,474.608,138.374,474.2,137.686,474.293Z" transform="translate(17.879 0.774)"/>
    <path id="Path_5342" data-name="Path 5342" d="M114.578,467.634c.617-1.269,1.12-2.244,1.566-3.245a1.982,1.982,0,0,1,1.069-1.037c1.368-.623,2.738-1.242,4.083-1.91.65-.323.792-.187.8.519a2.941,2.941,0,0,1-1.809,2.989C118.469,465.8,116.654,466.658,114.578,467.634Z" transform="translate(8.782 0.013)"/>
    <path id="Path_5343" data-name="Path 5343" d="M101.123,467.488c-1.943-.927-3.916-1.8-5.821-2.8a3.025,3.025,0,0,1-1.4-3.039c.007-.41.155-.5.549-.309,1.559.741,3.136,1.445,4.7,2.178a1.4,1.4,0,0,1,.678.7c.473,1.029.965,2.047,1.449,3.07Z" transform="translate(0.001 0)"/>
  </g>
</svg>
