<svg xmlns="http://www.w3.org/2000/svg" width="107.021" height="57.446" viewBox="0 0 107.021 57.446">
  <g id="Group_4147" data-name="Group 4147" transform="translate(-80.84 -208.123)">
    <path id="Path_5353" data-name="Path 5353" d="M224.618,290.3c-.011-5.132-.013-10.264-.046-15.4,0-.572.212-.663.705-.65,1.113.03,2.229.044,3.342,0,.616-.026.824.145.8.783-.049,1.315,0,2.634-.024,3.95-.01.478.13.641.623.635,2.06-.024,4.12-.031,6.179,0,.565.009.666-.205.655-.7-.029-1.282.018-2.567-.022-3.849-.018-.588.094-.849.762-.82,1.348.059,2.7.031,4.05.04,0,5.134-.009,10.268.013,15.4,0,.507-.113.636-.621.622-1.418-.04-2.837-.014-4.256-.014.021-1.812.033-3.625.069-5.438.009-.448-.176-.573-.6-.57q-3.126.021-6.253,0c-.424,0-.611.128-.6.574.058,1.81-.091,3.624.082,5.433Z" transform="translate(-53.794 -24.749)" fill="#030303"/>
    <path id="Path_5354" data-name="Path 5354" d="M117.112,290.3c.025-3.374.074-6.748.056-10.121a2.568,2.568,0,0,1,.73-1.892c1.049-1.144,2.052-2.33,3.048-3.52a1.309,1.309,0,0,1,1.124-.512c3.344.021,6.688.033,10.032-.007.7-.008.854.241.812.868a13.932,13.932,0,0,0,0,2.126c.061.7-.156.915-.882.9-3.074-.042-6.148.007-9.221-.036-.715-.01-.9.178-.881.887.048,1.536.007,1.537,1.552,1.537,2.8,0,5.608.039,8.41-.023.876-.019,1.1.254,1.023,1.074-.086.867.265,2.014-.173,2.544-.467.564-1.652.17-2.521.178-2.466.023-4.932.036-7.4-.009-.707-.013-.91.175-.894.887.039,1.648,0,1.649,1.638,1.649,2.837,0,5.675.023,8.512-.016.676-.009.872.193.835.85-.05.875,0,1.755.005,2.633Z" transform="translate(-13.575 -24.749)" fill="#030303"/>
    <path id="Path_5355" data-name="Path 5355" d="M149.825,290.258a2.224,2.224,0,0,0,.092-1.093c.008-4.69.021-9.379-.011-14.068-.005-.71.214-.817.89-.907a4.51,4.51,0,0,1,4.719,2.171c1.6,2.273,3.51,4.329,5.456,6.684,0-2.3-.012-4.373.006-6.442.007-.767-.335-1.808.145-2.222.453-.39,1.465-.15,2.232-.154,2.29-.01,2.291,0,2.29,2.268q0,6.883-.011,13.764h-3.851l-7.009-8.565-.287.128v8.437Z" transform="translate(-25.819 -24.704)" fill="#030303"/>
    <path id="Path_5356" data-name="Path 5356" d="M81.04,290.306c-.088-.416.293-.563.49-.794,1.9-2.236,3.808-4.467,5.745-6.672.364-.414.36-.651,0-1.063-1.956-2.233-3.878-4.494-5.812-6.747-.166-.194-.325-.395-.623-.758,1.968,0,3.739.007,5.51,0,.422,0,.556.345.763.578,1.032,1.158,2.06,2.321,3.049,3.516.372.449.583.479.971.008,1.008-1.223,2.074-2.4,3.109-3.6a1.212,1.212,0,0,1,1.019-.512c1.653.033,3.308.013,4.969.013.122.405-.224.548-.4.751-1.9,2.233-3.809,4.464-5.747,6.667-.409.466-.43.751,0,1.231,1.924,2.171,3.806,4.38,5.692,6.585.2.238.549.4.519.8H94.619c-1.166-1.348-2.347-2.683-3.488-4.05-.36-.431-.566-.508-.961-.024-1.124,1.38-2.3,2.719-3.455,4.074Z" transform="translate(0 -24.752)" fill="#030303"/>
    <path id="Path_5357" data-name="Path 5357" d="M200.665,290.308c-.009-3.714-.049-7.43,0-11.144.011-.877-.254-1.075-1.071-1.026-1.206.071-2.42.018-3.82.018,1.134-1.3,2.169-2.464,3.184-3.65a.815.815,0,0,1,.727-.233c3.378,0,6.755.008,10.133-.009.5,0,.746.088.713.659-.027,1.288,0,3.217,0,3.217s-2.089-.009-3.089.008c-1.942.032-1.946.009-1.942,1.93q.011,5.115.029,10.231Z" transform="translate(-43.015 -24.754)" fill="#030303"/>
    <path id="Path_5358" data-name="Path 5358" d="M183.186,290.3c.007-5.02.031-10.041,0-15.061,0-.788.186-1.047.99-.993a30.274,30.274,0,0,0,3.233.006c.543-.021.673.159.67.683-.024,5.122-.023,10.243-.029,15.364Z" transform="translate(-38.305 -24.745)" fill="#030303"/>
    <path id="Path_5359" data-name="Path 5359" d="M130.9,236.7l12.841-15.858c-2.774-1.365-5.479-2.7-8.186-4.027-1.479-.726-2.957-1.454-4.442-2.166-.459-.22-.638-.387-.153-.826,1.975-1.788,3.936-3.594,5.861-5.437.47-.451.818-.232,1.24-.047,4.99,2.189,9.987,4.364,14.966,6.58a1.758,1.758,0,0,0,1.6-.018c3.716-1.659,7.456-3.264,11.168-4.934a1.088,1.088,0,0,1,1.4.272q2.827,2.681,5.71,5.3c.479.435.564.6-.111.925-3.211,1.541-6.376,3.18-9.6,4.684-.912.425-.74.683-.24,1.292,3.078,3.756,6.123,7.539,9.18,11.314.17.21.343.417.5.636.105.146.36.286.159.5-.169.176-.372.035-.554-.055-1-.491-1.994-.976-2.991-1.465-4.923-2.417-9.852-4.824-14.762-7.269a1.349,1.349,0,0,0-1.383.023q-10.545,5.209-21.112,10.375C131.662,236.661,131.355,236.9,130.9,236.7Z" transform="translate(-18.652)" fill="#020202"/>
  </g>
</svg>
