<?xml version="1.0" encoding="utf-8"?>
<!-- Generator: Adobe Illustrator 22.0.0, SVG Export Plug-In . SVG Version: 6.00 Build 0)  -->
<svg version="1.1" id="Layer_1" xmlns="http://www.w3.org/2000/svg" xmlns:xlink="http://www.w3.org/1999/xlink" x="0px" y="0px"
	 viewBox="0 0 25 24" style="enable-background:new 0 0 25 24;" xml:space="preserve">
<style type="text/css">
	.st0{fill:none;}
	.st1{fill:#046BDA;}
</style>
<g id="Group_3440" transform="translate(-1418 -459)">
	<rect id="Rectangle_4129" x="1418" y="459" class="st0" width="25" height="24"/>
	<g id="Group_3439" transform="translate(724.813 436.833)">
		<path id="Path_4597" class="st1" d="M705.7,27.9c-4.2,0-7.6,3.4-7.6,7.6c0,4.2,3.4,7.6,7.6,7.6s7.6-3.4,7.6-7.6c0,0,0,0,0,0
			C713.3,31.4,709.9,28,705.7,27.9z M705.7,41.9c-3.5,0-6.3-2.8-6.3-6.3c0-3.5,2.8-6.3,6.3-6.3c3.5,0,6.3,2.8,6.3,6.3c0,0,0,0,0,0
			C712,39,709.2,41.9,705.7,41.9z"/>
		<path id="Path_4598" class="st1" d="M710.5,26.8c-0.2,0.4-0.5,0.9-0.7,1.3c0.9,0.5,1.6,1.1,2.2,1.9c0.4-0.3,0.8-0.6,1.2-0.9
			C712.6,28.2,711.6,27.4,710.5,26.8z"/>
		<g id="Group_3427" transform="translate(703.463 32.327)">
			<path id="Path_4599" class="st1" d="M5.5,2.9C5.6,3,5.7,3.2,5.6,3.4c0,0.1-0.1,0.1-0.1,0.1L3,4.9L0.6,6.3c-0.2,0.1-0.4,0-0.5-0.1
				C0,6.1,0,6.1,0,6V0.4C0,0.2,0.2,0,0.4,0c0.1,0,0.1,0,0.2,0.1L3,1.5L5.5,2.9z"/>
		</g>
		<rect id="Rectangle_4114" x="703.6" y="25.2" class="st1" width="4.1" height="1.8"/>
		<rect id="Rectangle_4115" x="704.8" y="26.4" class="st1" width="1.8" height="2.2"/>
	</g>
</g>
</svg>
