<svg xmlns="http://www.w3.org/2000/svg" width="25" height="24" viewBox="0 0 25 24">
  <g id="Group_3450" data-name="Group 3450" transform="translate(10068 6097)">
    <rect id="Rectangle_4130" data-name="Rectangle 4130" width="25" height="24" transform="translate(-10068 -6097)" fill="none"/>
    <path id="Path_4589" data-name="Path 4589" d="M883.292,29.322a7.8,7.8,0,0,0-4.254,1.283c-.078.052-.122.058-.178-.032-.125-.2-.263-.39-.4-.579a.677.677,0,0,0-.109-.128.144.144,0,0,0-.2-.016.14.14,0,0,0-.037.05.53.53,0,0,0-.067.168q-.272.976-.546,1.95c-.1.351.031.53.39.562.674.059,1.348.121,2.022.182.03,0,.061.007.091.007.2,0,.276-.127.165-.3-.14-.219-.289-.433-.442-.642-.058-.078-.059-.113.032-.171a6.661,6.661,0,0,1,7.375.137,6.28,6.28,0,0,1,2.845,5.1,6.479,6.479,0,0,1-3.659,6.326,6.178,6.178,0,0,1-1.765.6.624.624,0,0,0-.53.488.643.643,0,0,0,.735.773,7.857,7.857,0,0,0,3.706-1.746,7.778,7.778,0,0,0,2.354-3.386,8.012,8.012,0,0,0,.445-2.091,7.945,7.945,0,0,0-4.805-7.892A8.149,8.149,0,0,0,883.292,29.322Z" transform="translate(-10939.118 -6122.204)" fill="#b42025"/>
    <path id="Path_4591" data-name="Path 4591" d="M876.8,54.234a.6.6,0,0,0-.509.324.59.59,0,0,0,.012.641,2.878,2.878,0,0,0,.371.468.634.634,0,0,0,1-.771,2.841,2.841,0,0,0-.4-.5A.623.623,0,0,0,876.8,54.234Z" transform="translate(-10938.443 -6135.424)" fill="#b42025"/>
    <path id="Path_4592" data-name="Path 4592" d="M885.572,59.986a.652.652,0,0,0-.665.528.631.631,0,0,0,.409.7,2.779,2.779,0,0,0,.62.134.635.635,0,0,0,.284-1.217A2.777,2.777,0,0,0,885.572,59.986Z" transform="translate(-10943.061 -6138.478)" fill="#b42025"/>
    <path id="Path_4593" data-name="Path 4593" d="M874.592,51.213a.632.632,0,0,0,.605-.806,4.527,4.527,0,0,0-.173-.489.634.634,0,0,0-1.2.419,4.6,4.6,0,0,0,.164.477A.623.623,0,0,0,874.592,51.213Z" transform="translate(-10937.172 -6132.924)" fill="#b42025"/>
    <path id="Path_4594" data-name="Path 4594" d="M874.622,39.113a.6.6,0,0,0-.533.385,3.871,3.871,0,0,0-.183.512.624.624,0,0,0,.405.757.631.631,0,0,0,.789-.346,4.394,4.394,0,0,0,.183-.512.637.637,0,0,0-.662-.8Z" transform="translate(-10937.216 -6127.399)" fill="#b42025"/>
    <path id="Path_4595" data-name="Path 4595" d="M881.025,59.358a.64.64,0,0,0,.647-.41.624.624,0,0,0-.219-.728,4.449,4.449,0,0,0-.486-.3.634.634,0,0,0-.724,1.017,2.067,2.067,0,0,0,.674.4A.389.389,0,0,0,881.025,59.358Z" transform="translate(-10940.491 -6137.349)" fill="#b42025"/>
    <path id="Path_4596" data-name="Path 4596" d="M873.085,45.154a.921.921,0,0,0,.092.541.635.635,0,0,0,1.178-.294c.007-.156.009-.321,0-.481a.634.634,0,0,0-.632-.635h0a.646.646,0,0,0-.641.636C873.082,45,873.085,45.076,873.085,45.154Z" transform="translate(-10936.787 -6130.145)" fill="#b42025"/>
    <g id="Group_3448" data-name="Group 3448" transform="translate(-116.205 107.714)">
      <g id="Group_3411" data-name="Group 3411" transform="translate(-9942.728 -6196.001)">
        <path id="Path_4586" data-name="Path 4586" d="M31.707,37.706a.579.579,0,0,1-.41-.989L36.716,31.3a.579.579,0,0,1,.819.819l-5.419,5.419A.577.577,0,0,1,31.707,37.706Z" transform="translate(-31.128 -31.128)" fill="#b42025"/>
      </g>
      <g id="Group_3412" data-name="Group 3412" transform="translate(-9942.728 -6196.001)">
        <path id="Path_4587" data-name="Path 4587" d="M37.126,37.706a.578.578,0,0,1-.41-.17L31.3,32.117a.579.579,0,1,1,.819-.819l5.419,5.419a.579.579,0,0,1-.41.989Z" transform="translate(-31.128 -31.128)" fill="#b42025"/>
      </g>
    </g>
  </g>
</svg>
