<?xml version="1.0" encoding="utf-8"?>
<!-- Generator: Adobe Illustrator 22.0.0, SVG Export Plug-In . SVG Version: 6.00 Build 0)  -->
<svg version="1.1" id="Layer_1" xmlns="http://www.w3.org/2000/svg" xmlns:xlink="http://www.w3.org/1999/xlink" x="0px" y="0px"
	 viewBox="0 0 25 24" style="enable-background:new 0 0 25 24;" xml:space="preserve">
<style type="text/css">
	.st0{fill:none;}
	.st1{fill:#1DAB35;}
</style>
<g id="Group_3444" transform="translate(-1418 -296)">
	<rect id="Rectangle_4125" x="1418" y="296" class="st0" width="25" height="24"/>
	<g id="Group_3426" transform="translate(549.213 270.796)">
		<path id="Path_4589" class="st1" d="M881,29.3c-1.5,0-3,0.5-4.3,1.3c-0.1,0.1-0.1,0.1-0.2,0c-0.1-0.2-0.3-0.4-0.4-0.6
			c0,0-0.1-0.1-0.1-0.1c-0.1-0.1-0.1-0.1-0.2,0c0,0,0,0,0,0c0,0.1-0.1,0.1-0.1,0.2c-0.2,0.7-0.4,1.3-0.5,2c-0.1,0.4,0,0.5,0.4,0.6
			c0.7,0.1,1.3,0.1,2,0.2c0,0,0.1,0,0.1,0c0.2,0,0.3-0.1,0.2-0.3c-0.1-0.2-0.3-0.4-0.4-0.6c-0.1-0.1-0.1-0.1,0-0.2
			c2.3-1.4,5.2-1.4,7.4,0.1c1.7,1.1,2.8,3,2.8,5.1c0.2,2.7-1.3,5.2-3.7,6.3c-0.6,0.3-1.1,0.5-1.8,0.6c-0.3,0-0.5,0.2-0.5,0.5
			c-0.1,0.3,0.1,0.7,0.5,0.8c0.1,0,0.2,0,0.2,0c1.4-0.2,2.6-0.8,3.7-1.7c1.1-0.9,1.9-2.1,2.4-3.4c0.2-0.7,0.4-1.4,0.4-2.1
			c0.2-3.4-1.7-6.6-4.8-7.9C883.1,29.5,882,29.3,881,29.3z"/>
		<path id="Path_4590" class="st1" d="M881.9,35.1v-2.5c0-0.3-0.2-0.5-0.5-0.6c-0.3,0-0.5,0.2-0.6,0.4c0,0,0,0,0,0
			c0,0.1,0,0.1,0,0.2V37c0,0.1,0,0.2-0.1,0.2c-1.3,0.7-2.6,1.4-4,2c-0.2,0.1-0.3,0.2-0.3,0.4c0,0.2,0,0.4,0.2,0.5
			c0.1,0.1,0.3,0.2,0.5,0.1c0.3-0.1,0.6-0.3,1-0.5l3.7-1.9c0.1,0,0.1-0.1,0.1-0.2C881.9,36.8,881.9,36,881.9,35.1z"/>
		<path id="Path_4591" class="st1" d="M875.1,41c-0.2,0-0.4,0.1-0.5,0.3c-0.1,0.2-0.1,0.4,0,0.6c0.1,0.2,0.2,0.3,0.4,0.5
			c0.2,0.3,0.6,0.3,0.9,0c0.2-0.2,0.3-0.5,0.1-0.8c-0.1-0.2-0.2-0.3-0.4-0.5C875.5,41.1,875.3,41,875.1,41z"/>
		<path id="Path_4592" class="st1" d="M879.3,43.7c-0.3,0-0.6,0.2-0.7,0.5c-0.1,0.3,0.1,0.6,0.4,0.7c0.2,0.1,0.4,0.1,0.6,0.1
			c0.4,0,0.6-0.3,0.7-0.6c0-0.3-0.1-0.5-0.4-0.6C879.7,43.8,879.5,43.7,879.3,43.7z"/>
		<path id="Path_4593" class="st1" d="M874.2,40.5c0.3,0,0.6-0.3,0.6-0.6c0-0.1,0-0.1,0-0.2c0-0.2-0.1-0.3-0.2-0.5
			c-0.1-0.3-0.5-0.5-0.8-0.4s-0.5,0.5-0.4,0.8l0,0c0,0.2,0.1,0.3,0.2,0.5C873.7,40.3,873.9,40.5,874.2,40.5z"/>
		<path id="Path_4594" class="st1" d="M874.2,33.9c-0.2,0-0.4,0.2-0.5,0.4c-0.1,0.2-0.1,0.3-0.2,0.5c-0.1,0.3,0.1,0.7,0.4,0.8
			c0.3,0.1,0.7,0,0.8-0.3c0.1-0.2,0.1-0.3,0.2-0.5c0.1-0.3-0.1-0.7-0.5-0.8C874.3,33.9,874.3,33.9,874.2,33.9L874.2,33.9z"/>
		<path id="Path_4595" class="st1" d="M877.3,44.2c0.3,0,0.5-0.1,0.6-0.4c0.1-0.3,0-0.6-0.2-0.7c-0.2-0.1-0.3-0.2-0.5-0.3
			c-0.3-0.1-0.7,0-0.8,0.3c-0.1,0.2-0.1,0.5,0.1,0.7c0.2,0.2,0.4,0.3,0.7,0.4C877.2,44.2,877.3,44.2,877.3,44.2z"/>
		<path id="Path_4596" class="st1" d="M873.1,37.2c0,0.2,0,0.4,0.1,0.5c0.2,0.3,0.6,0.4,0.9,0.2c0.2-0.1,0.3-0.3,0.3-0.5
			c0-0.2,0-0.3,0-0.5c0-0.3-0.3-0.6-0.6-0.6l0,0c-0.4,0-0.6,0.3-0.6,0.6C873.1,37.1,873.1,37.1,873.1,37.2z"/>
	</g>
</g>
</svg>
