<?xml version="1.0" encoding="utf-8"?>
<!-- Generator: Adobe Illustrator 22.0.0, SVG Export Plug-In . SVG Version: 6.00 Build 0)  -->
<svg version="1.1" id="Layer_1" xmlns="http://www.w3.org/2000/svg" xmlns:xlink="http://www.w3.org/1999/xlink" x="0px" y="0px"
	 viewBox="0 0 25 24" style="enable-background:new 0 0 25 24;" xml:space="preserve">
<style type="text/css">
	.st0{fill:none;}
	.st1{fill:#858585;}
</style>
<g id="Group_3441" transform="translate(-1418 -416)">
	<rect id="Rectangle_4128" x="1418" y="416" class="st0" width="25" height="24"/>
	<g id="Group_3430" transform="translate(500.904 393.833)">
		<path id="Path_4602" class="st1" d="M929,28c-4.2,0-7.6,3.4-7.6,7.6s3.4,7.6,7.6,7.6c4.2,0,7.6-3.4,7.6-7.6
			C936.7,31.4,933.3,28,929,28z M929,41.9c-3.5,0-6.3-2.8-6.3-6.3c0-3.5,2.8-6.3,6.3-6.3c3.5,0,6.3,2.8,6.3,6.3c0,0,0,0,0,0
			C935.4,39.1,932.5,41.9,929,41.9z"/>
		<path id="Path_4603" class="st1" d="M933.9,26.8c-0.2,0.5-0.5,0.9-0.7,1.3c0.9,0.5,1.6,1.2,2.3,2c0.4-0.3,0.8-0.6,1.2-0.9
			C935.9,28.2,935,27.4,933.9,26.8z"/>
		<rect id="Rectangle_4119" x="927" y="25.2" class="st1" width="4.1" height="1.8"/>
		<rect id="Rectangle_4120" x="928.1" y="26.4" class="st1" width="1.8" height="2.2"/>
		<circle id="Ellipse_455" class="st1" cx="925.9" cy="35.6" r="0.9"/>
		<circle id="Ellipse_456" class="st1" cx="929.2" cy="35.6" r="0.9"/>
		<circle id="Ellipse_457" class="st1" cx="932.4" cy="35.6" r="0.9"/>
	</g>
</g>
</svg>
