<svg xmlns="http://www.w3.org/2000/svg" width="693.652" height="921.789" viewBox="0 0 693.652 921.789">
  <g id="Group_210" data-name="Group 210" transform="translate(-574.405 -162.655)" opacity="0.05">
    <path id="Path_1975" data-name="Path 1975" d="M701.4,239.477l.077-.037c2.484-3.266,5.125-6.7,7.945-10.085-13.841-11.42-29.682-17.93-42.04-20.122-2.782,3.151-5.679,6.55-8.151,9.742A95.451,95.451,0,0,1,701.4,239.481Z" transform="translate(228.168 125.297)" fill="#013369"/>
    <path id="Path_1976" data-name="Path 1976" d="M705.193,232.6l.052-.026c2.756-3.063,5.664-6.063,8.664-9.136a94.429,94.429,0,0,0-39.092-19.609c-3.192,2.664-6.83,5.55-10.38,8.908a95.9,95.9,0,0,1,40.756,19.867Z" transform="translate(242.185 110.766)" fill="#013369"/>
    <path id="Path_1977" data-name="Path 1977" d="M1267.8,252.373s-73.955,57.545-178.156,31.527C968.264,253.525,920.459,162.655,920.459,162.655s-47.165,91-169.182,121.246c-102.534,25.634-176.872-32.044-176.872-32.044V855.536c.011,20.505,8.586,107.663,171.747,130.733,64.213,9.292,112.15,29.863,146.113,63.058a193.82,193.82,0,0,1,28.966,35.118,202.33,202.33,0,0,1,28.966-35.118c34.476-33.2,82.412-53.83,146.113-63.058,162.773-23.454,170.463-110.611,171.747-130.733V251.857Zm-205.4,93.951,11.166-32.044,11.177,32.044h33.837l-27.686,20.893,10.159,32.461.133.092h-.1l-.03-.092-27.424-19.262-27.557,19.354,10.177-32.553-27.686-20.893Zm0,107.659,11.166-32.044,11.177,32.044h33.837l-27.686,20.893,10.159,32.461.133.092h-.1l-.03-.092-27.424-19.262-27.557,19.354,10.177-32.553-27.686-20.893ZM985.16,276.019c6.037-.081,8.306,1.03,8.306,1.03s-19.612,7.432-42.169,24.609A98.283,98.283,0,0,0,940.2,298c-3.657,2.384-7.358,4.845-10.845,7.343a93.7,93.7,0,0,1,37.04,18.712c2.871-2.716,5.959-5.612,8.985-8.291a95.234,95.234,0,0,0-12.494-8.535c20-19.7,34.35-27.173,34.35-27.173l-.181-.052c2.834-.258,4.5,3.255,5.358,5.369,12.2,30.118,15.188,67.032,6.074,102.279-14.1,53.7-59.088,103.393-156.367,115.991-2.077.269-4.649-.376-4.9-1.638a366.905,366.905,0,0,1,39.092-100.869,95.985,95.985,0,0,1,13.074,8.716c1.373-2.384,3.31-5.395,6.166-10.022a92.75,92.75,0,0,0-41.269-18.97s-2.989,5.753-5.14,10.266a92.021,92.021,0,0,1,13.328,3.7c-21.044,44.855-28.144,86.641-30.118,105.482-5.948-9.616-10.627-31.546-12.281-43.579C814.693,343.435,896.338,277.166,985.16,276.019ZM796.081,508.071l-27.557-19.354-27.557,19.354,10.177-32.553.133-.129-27.686-20.764h33.837l11.162-32.044,11.162,32.044H813.59L785.9,475.518ZM757.428,346.963l11.162-32.044,11.162,32.044H813.59L785.9,367.855l10.177,32.553-27.557-19.354-27.557,19.354,10.177-32.553.133-.129-27.686-20.764Zm-119.84,0,11.162-32.044,11.162,32.044H693.75l-27.686,20.893,10.177,32.553-27.557-19.354-27.557,19.354L631.3,367.855l.133-.129-27.686-20.764ZM603.751,454.625h33.837l11.162-32.044,11.162,32.044H693.75l-27.686,20.893,10.177,32.553-27.557-19.354-27.557,19.354L631.3,475.518l.133-.129Zm487.175,492.684c-122.017,18.841-169.182,77.029-169.182,77.029h-1.284s-46.652-58.062-169.182-77.029c-140.013-21.66-135.862-87.541-135.862-90.873V539.857h611.369V856.436C1226.784,859.768,1231.913,925.649,1090.926,947.309Zm120.423-472.433,10.155,32.442.155.111h-.121l-.033-.111-27.4-19.243-27.557,19.354,10.177-32.553-27.686-20.893h33.837l11.162-32.044,11.162,32.044h33.837Zm0-107.659,10.155,32.442.155.111h-.121l-.033-.111-27.4-19.243-27.557,19.354,10.177-32.553-27.686-20.893h33.837l11.162-32.044,11.162,32.044h33.837Z" transform="translate(0 0)" fill="#013369"/>
    <path id="Path_1978" data-name="Path 1978" d="M696.865,245.922v-.011c2.192-3.255,4.642-6.793,7.229-10.483a95.238,95.238,0,0,0-42.169-20.251c-2.524,3.756-6.971,11.011-6.971,11.011a92.128,92.128,0,0,1,41.911,19.738Z" transform="translate(216.676 141.284)" fill="#013369"/>
    <path id="Path_1979" data-name="Path 1979" d="M653.068,312.95l19.992,10.14v273l-20.122,8.255v33.07l91.386,34.092V632.543l-18.192-21.727V459.708h30.76l11.472,16.535H792.72V394.6H768.366l-11.919,17.431H726.2v-91.77h40.372l10.561,32.553H812V273.474H653.068Z" transform="translate(211.256 298.102)" fill="#013369"/>
    <path id="Path_1980" data-name="Path 1980" d="M708.9,312.854l18.841,10.576.022,149.3L662.874,273.463H593.152v38.963l21.66,10.7V539.732l-21.147,8.255V581.95l92.154,23.457V565.544l-21.147-16.151.011-129.452,66.39,196.1,45.885,13.712V323.429L794.9,312.854V273.891h-86Z" transform="translate(50.429 298.072)" fill="#013369"/>
    <path id="Path_1981" data-name="Path 1981" d="M816.472,542.005l-39.35,10.624V323.207l17.945-10.14V273.592H703.68v39.476l19.354,10.14V566.728l-22.686,18.586v38.962l-.281,1.037L861.56,582.248V482.021H824.006Z" transform="translate(338.029 298.419)" fill="#013369"/>
  </g>
</svg>
